<?xml version="1.0" encoding="utf-8"?>
<!-- Generator: Adobe Illustrator 25.3.1, SVG Export Plug-In . SVG Version: 6.00 Build 0)  -->
<svg version="1.1" id="Layer_1" xmlns="http://www.w3.org/2000/svg" xmlns:xlink="http://www.w3.org/1999/xlink" x="0px" y="0px"
	 viewBox="0 0 1498.4 1527.4" style="enable-background:new 0 0 1498.4 1527.4;" xml:space="preserve">
<style type="text/css">
	.st0{fill:#F34336;}
	.st1{fill:#D33030;}
	.st2{fill:#4DAE50;}
</style>
<path class="st0" d="M792.7,371.5c27.5-13.6,54.8-27.5,82.5-40.9c65.6-31.6,134.7-51.4,207.6-54.5c57.9-2.5,114.1,6.9,167.1,32
	c1,5.6,4.9,5.9,9.4,5.3l-0.1-0.4c-2.1,10.1,6.1,14.5,11.7,19.7c13.9,13.2,26,27.9,36.4,43.9c53.6,82.5,71,175.2,74.8,271.5
	c1,25.6-1.8,51.2-3.1,76.8c-1.7,32.3-5.9,64.2-10.9,95.8c-11.6,73.5-29.1,145.7-54.6,216c-21.5,58.9-48.1,115.1-82.1,167.6
	c-50.6,78.3-112.8,144.2-199.6,183.5c-23.6,10.7-48.5,19.4-73.8,17.7c-24.4-1.6-48-10.4-69.7-24c-25.5-15.9-52.1-30-78.7-44.1
	c-21.6-11.5-45.7-18.3-69.4-17.4c-32.7,1.2-62.2,14.8-87.9,35.9c-10.7,8.8-21.8,17.2-34,24.1c-50.3,28.6-104.3,27.7-158.3,18
	c-103.1-18.5-189.5-70.9-269.6-135.9c-13.7-11.2-24.2-27.6-43.3-31.6l0.3,0.2c0.4-4.3,0.5-8.4-5.4-8.8l0.7,0.4
	c0.1-3-1.4-4.7-4.2-5.5C78.4,1123,37.8,1021.5,15,912.7C1.3,847.4-3.3,781.4,2.3,715.2c10.8-127.3,52-242.2,143.8-335
	c29.2-29.6,63.8-51.7,100.4-71.1c1.4-0.3,3-0.3,4.3-0.9c78.2-35.2,159.2-38,242-21.8c78.4,15.4,150.7,46.9,216.4,90.9
	c31.4,21,54.4,21.9,80.6-2.7C790.8,373.7,791.7,372.5,792.7,371.5z"/>
<path class="st1" d="M147,1230.4c19.1,4,29.6,20.4,43.3,31.6c80.1,65,166.5,117.4,269.6,135.9c54.1,9.7,108,10.6,158.3-18
	c12.2-6.9,23.2-15.3,34-24.1c25.7-21.1,55.2-34.6,87.9-35.9c23.8-0.9,47.8,5.9,69.4,17.4c26.5,14.1,53.2,28.2,78.7,44.1
	c21.7,13.5,45.3,22.4,69.7,24c25.3,1.7,50.2-7,73.8-17.7c86.8-39.2,149-105.2,199.6-183.5c34-52.5,60.6-108.7,82.1-167.6
	c25.6-70.2,43.1-142.5,54.6-216c5-31.6,9.1-63.5,10.9-95.8c1.4-25.6,4.1-51.2,3.1-76.8c-3.8-96.2-21.2-188.9-74.8-271.5
	c-10.4-16-22.5-30.7-36.4-43.9c-5.6-5.3-13.8-9.7-11.7-19.7c50.7,21.7,90.3,57.7,124.6,99.5c62.8,76.7,96.6,166.3,108.9,263.7
	c25.7,204.7-33.7,388.5-143,558.8c-56.2,87.6-125.3,163.7-212.1,222.3c-47.3,32-98.2,55.9-155.3,65.3
	c-79.8,13.2-148.4-8.7-206.7-64.2c-8.5-8.1-16.7-16.3-24.1-23.4c-9.4,8.4-18.8,16.5-27.9,24.9c-75.5,70.2-162.7,83-257.9,50.6
	c-88.6-30.1-159.5-86.9-222.4-154.4C207.2,1317.4,173.1,1276.9,147,1230.4z"/>
<path class="st2" d="M792.7,371.5c-1,1.1-1.9,2.2-2.9,3.2c-26.1,24.6-49.1,23.8-80.6,2.7c-65.6-43.9-137.9-75.5-216.4-90.9
	c-82.8-16.2-163.9-13.4-242,21.8c-1.3,0.6-2.9,0.6-4.3,0.9c-45.1-68.3-68.3-144.2-78.7-224.9c-1.5-12,0.5-16.9,11.9-20.7
	c59.6-19.8,120.5-34.4,183.4-35.9c146.2-3.5,254.7,60,325.3,187.9c10.3,18.6,18.9,38,29.2,58.9c9.2-35,16-68.9,27.7-101.4
	c20.4-56.4,46.6-109.7,84.2-156.8c19.1-24,15.8-18.3,32-2.6c10.1,9.7,19.3,20.3,29.9,29.5c9.5,8.3,10.8,14.6,2.6,25.5
	C827.4,158.4,797.7,260.9,792.7,371.5z"/>
<path class="st1" d="M1259.1,313.4c-4.5,0.6-8.4,0.3-9.4-5.3C1253.3,309.2,1257.4,309.2,1259.1,313.4z"/>
<path class="st1" d="M141.9,1221.8c5.9,0.4,5.8,4.5,5.4,8.8C143.5,1228.9,142.4,1225.6,141.9,1221.8z"/>
<path class="st1" d="M138.3,1216.8c2.8,0.7,4.4,2.4,4.2,5.5C139.4,1221.7,138.9,1219.2,138.3,1216.8z"/>
</svg>
