<?xml version="1.0" encoding="iso-8859-1"?>
<!-- Generator: Adobe Illustrator 25.3.1, SVG Export Plug-In . SVG Version: 6.00 Build 0)  -->
<svg version="1.1" id="Layer_1" xmlns="http://www.w3.org/2000/svg" xmlns:xlink="http://www.w3.org/1999/xlink" x="0px" y="0px"
	 viewBox="0 0 4320 4320"  style="enable-background:new 0 0 0 0;" xml:space="preserve">
<path style="fill:#F34336;" d="M2360.05,1203.098c27.482-13.641,54.838-27.544,82.473-40.869
	c65.63-31.645,134.675-51.363,207.584-54.457c57.887-2.457,114.138,6.884,167.064,31.965c0.968,5.565,4.885,5.925,9.358,5.303
	l-0.113-0.406c-2.113,10.092,6.092,14.464,11.671,19.748c13.943,13.206,26.048,27.9,36.444,43.907
	c53.607,82.542,71.019,175.244,74.842,271.466c1.016,25.576-1.774,51.207-3.126,76.766c-1.708,32.282-5.883,64.206-10.85,95.759
	c-11.573,73.514-29.057,145.741-54.642,215.982c-21.459,58.913-48.136,115.064-82.104,167.588
	c-50.614,78.263-112.822,144.228-199.591,183.469c-23.626,10.685-48.508,19.351-73.803,17.698
	c-24.362-1.592-48.04-10.443-69.711-23.967c-25.477-15.899-52.142-29.951-78.68-44.076c-21.589-11.491-45.651-18.282-69.425-17.374
	c-32.677,1.248-62.209,14.769-87.908,35.861c-10.711,8.791-21.754,17.19-33.956,24.122c-50.285,28.566-104.251,27.682-158.31,17.995
	c-103.103-18.474-189.501-70.878-269.582-135.919c-13.744-11.163-24.189-27.624-43.336-31.6l0.337,0.189
	c0.389-4.266,0.528-8.378-5.392-8.76l0.654,0.365c0.127-3.008-1.387-4.745-4.225-5.457
	c-59.968-93.71-100.502-195.241-123.308-304.078c-13.679-65.277-18.291-131.269-12.702-197.449
	c10.75-127.296,52.002-242.22,143.768-335.048c29.247-29.585,63.848-51.749,100.417-71.062c1.441-0.274,3.005-0.275,4.307-0.86
	c78.172-35.183,159.2-38,242.029-21.762c78.411,15.372,150.721,46.901,216.359,90.851c31.425,21.041,54.45,21.852,80.568-2.716
	C2358.198,1205.294,2359.09,1204.159,2360.05,1203.098z"/>
<path style="fill:#D33030;" d="M1714.348,2062.058c19.147,3.976,29.592,20.437,43.336,31.6
	c80.081,65.041,166.479,117.445,269.582,135.919c54.06,9.686,108.025,10.57,158.31-17.995c12.202-6.932,23.245-15.331,33.956-24.122
	c25.7-21.092,55.231-34.613,87.908-35.861c23.774-0.907,47.836,5.883,69.425,17.374c26.538,14.125,53.203,28.177,78.68,44.076
	c21.671,13.524,45.349,22.375,69.711,23.967c25.295,1.653,50.177-7.014,73.803-17.698
	c86.768-39.241,148.976-105.206,199.591-183.469c33.969-52.525,60.646-108.675,82.104-167.588
	c25.585-70.241,43.069-142.468,54.642-215.982c4.968-31.553,9.143-63.476,10.85-95.759c1.352-25.559,4.142-51.19,3.126-76.766
	c-3.823-96.221-21.236-188.923-74.842-271.466c-10.396-16.007-22.501-30.701-36.444-43.907c-5.579-5.284-13.784-9.656-11.671-19.748
	c50.735,21.657,90.306,57.683,124.599,99.547c62.847,76.725,96.644,166.298,108.874,263.69
	c25.706,204.72-33.663,388.529-142.952,558.774c-56.207,87.557-125.252,163.71-212.082,222.32
	c-47.347,31.959-98.232,55.9-155.281,65.326c-79.76,13.179-148.392-8.669-206.677-64.185c-8.451-8.05-16.738-16.272-24.07-23.412
	c-9.435,8.403-18.818,16.46-27.872,24.873c-75.526,70.182-162.737,82.954-257.916,50.624
	c-88.635-30.107-159.516-86.921-222.37-154.412C1774.588,2149.036,1740.509,2108.517,1714.348,2062.058z"/>
<path style="fill:#4DAE50;" d="M2360.05,1203.097c-0.96,1.062-1.852,2.196-2.891,3.174c-26.118,24.568-49.143,23.757-80.568,2.716
	c-65.638-43.95-137.948-75.479-216.359-90.851c-82.829-16.238-163.857-13.421-242.029,21.762c-1.301,0.585-2.865,0.586-4.307,0.86
	c-45.141-68.342-68.318-144.24-78.688-224.861c-1.545-12.015,0.535-16.895,11.932-20.686
	c59.637-19.834,120.476-34.389,183.387-35.903c146.204-3.518,254.663,59.998,325.333,187.86
	c10.257,18.559,18.883,38.019,29.179,58.919c9.197-35.041,15.961-68.933,27.715-101.447c20.394-56.418,46.612-109.702,84.176-156.81
	c19.119-23.976,15.784-18.264,32.015-2.617c10.078,9.715,19.331,20.345,29.878,29.5c9.512,8.257,10.756,14.586,2.635,25.525
	C2394.774,990.059,2365.077,1092.504,2360.05,1203.097z"/>
<path style="fill:#D33030;" d="M2826.529,1145.04c-4.473,0.622-8.391,0.262-9.358-5.303
	C2820.648,1140.874,2824.762,1140.885,2826.529,1145.04z"/>
<path style="fill:#D33030;" d="M1709.294,2053.487c5.92,0.383,5.781,4.494,5.392,8.76
	C1710.873,2060.568,1709.744,2057.236,1709.294,2053.487z"/>
<path style="fill:#D33030;" d="M1705.722,2048.395c2.838,0.712,4.352,2.449,4.225,5.457
	C1706.811,2053.371,1706.274,2050.877,1705.722,2048.395z"/>
</svg>
