<?xml version="1.0" encoding="iso-8859-1"?>
<!-- Generator: Adobe Illustrator 25.3.1, SVG Export Plug-In . SVG Version: 6.00 Build 0)  -->
<svg version="1.1" id="Layer_1" xmlns="http://www.w3.org/2000/svg" xmlns:xlink="http://www.w3.org/1999/xlink" x="0px" y="0px"
	 viewBox="0 0 4320 4320" style="enable-background:new 0 0 0 0;" xml:space="preserve">
<path style="fill:#558A2F;" d="M2508.338,3147.618c-0.573-252.923-75.422-472.188-179.682-520.2
	c-27.917-12.856-55.354-31.044-82.172-56.08c-53.593-50.031-113.36-51.348-166.892-0.949
	c-27.634,26.017-55.836,44.455-84.468,57.259c-105.428,47.147-181.44,268.156-181.44,523.91c0,3.473,0,6.947,0,10.421
	c0,38.107,1.68,75.277,4.864,111.123v355.279c0,37.117,30.089,67.206,67.206,67.206h244.404H2161h280.138
	c37.117,0,67.206-30.089,67.206-67.206v-466.393v-11.445v-2.657C2508.344,3147.795,2508.338,3147.707,2508.338,3147.618z"/>
<path style="fill:#7CB242;" d="M1813.296,3118.233c-132.71-26.709-242.903-92.435-333.327-192.417
	c-76.183-125.451-206.632-234.146-125.96-408.032c69.87-77.699,159.118-50.148,244.244-44.981
	c236.764,42.909,438.623,141.605,565.627,343.662c126.362-205.286,329.225-298.1,562.025-343.846
	c87.913-7.398,178.245-28.164,251.49,45.514c66.211,167.642-48.613,278.587-125.665,401.362
	c-91.826,103.668-204.025,172.387-340.9,198.776c-148.548,5.248-290.016-3.277-345.682-185.784
	C2108.016,3119.004,1962.335,3121.937,1813.296,3118.233z"/>
<path style="fill:#689F39;" d="M1354.01,2517.783c-80.672,173.886,49.777,282.581,125.96,408.032
	c-259.843-12.566-432.628-157.94-552.648-373.6c-118.819-213.503-123.108-435.748-20.521-657.642
	c19.173-41.472,52.478-13.719,79.443-1.4c77.943,67.198,155.892,134.402,233.846,201.61
	C1226.449,2247.909,1262.666,2391.575,1354.01,2517.783z"/>
<path style="fill:#689F39;" d="M2851.731,2919.493c77.052-122.775,191.876-233.72,125.666-401.365
	c77.737-135.742,127.848-279.453,126.377-438.049c78.445-65.277,156.889-130.554,235.334-195.831
	c45.513-25.434,71.049-14.08,92.193,36.21C3617.26,2362.749,3307.851,2897.708,2851.731,2919.493z"/>
<path style="fill:#689F38;" d="M1285.538,1232.109c83.882-277.247,263.1-412.69,505.663-382.154
	c123.278,71.251,242.367,147.616,326.048,267.197c-218.144,79.568-354.37,242.594-452.565,444.363
	c-59.239-35.554-113.987-84.042-191.642-66.539C1442.433,1384.598,1358.791,1312.06,1285.538,1232.109z"/>
<path style="fill:#689F38;" d="M2526.578,840.929c234.949-18.698,402.895,111.194,510.07,394.496
	c-78.681,75.694-149.06,157.561-192.727,259.287c-75.648-16.588-126.91,33.958-184.514,67.046
	c-95.843-205.009-235.259-365.683-453.658-445.995C2284.641,991.398,2403.902,914.17,2526.578,840.929z"/>
<path style="fill:#7CB242;" d="M1285.538,1232.109c73.253,79.951,156.895,152.489,187.499,262.864
	c-196.277,152.707-248.718,366.09-252.952,599.808c-77.949-67.204-155.899-134.409-233.842-201.607
	c-35.124-224.115,23.586-421.824,165.562-597.222C1187.197,1252.23,1224.954,1219.956,1285.538,1232.109z"/>
<path style="fill:#7CB242;" d="M2843.919,1494.713c43.668-101.727,114.047-183.593,192.728-259.288
	c209.306,26.478,226.847,211.504,286.416,356.187c37.759,91.709,30.782,193.861,16.047,292.631
	c-78.447,65.282-156.892,130.559-235.339,195.838C3093.376,1851.115,3047.898,1637.725,2843.919,1494.713z"/>
<path style="fill:#34691F;" d="M2526.578,840.929c-122.676,73.241-241.937,150.469-320.826,274.839
	c-29.499,0.465-59.002,0.926-88.505,1.387c-83.679-119.583-202.768-195.948-326.046-267.2
	C2027.3,552.386,2293.459,549.119,2526.578,840.929z"/>
<path style="fill:#33691E;" d="M2504.66,3259.105c-119.278,4.35-235.243-6.931-338.572-76.759c-1.678-1.134-3.871-1.129-5.544,0.011
	c-105.395,71.8-222.038,80.035-341.103,76.695c-2.648-0.074-4.765-2.234-4.791-4.883c-0.434-43.612-0.868-87.224-1.303-130.836
	c-0.028-2.787,2.261-5.041,5.047-4.975c143.362,3.396,282.713-41.19,342.098-211.595c1.535-4.405,7.768-4.397,9.299,0.009
	c57.889,166.696,193.195,216.395,335.891,211.674c2.806-0.093,5.125,2.167,5.096,4.974c-0.457,43.602-0.914,87.204-1.37,130.806
	C2509.38,3256.857,2507.29,3259.009,2504.66,3259.105z"/>
<path style="fill:#689E38;" d="M2725.906,2472.618c-232.8,45.746-435.663,138.56-562.025,343.846
	c-127.004-202.057-328.863-300.753-565.624-343.658c1.745-10.854,2.88-21.851,5.32-32.55
	c44.196-193.858,162.493-343.277,291.729-486.112c55.704-29.448,108.938-65.72,167.61-86.981
	c138.753-50.28,254.645,12.131,365.801,86.963c13.398,17.093,25.231,35.742,40.44,51.034
	C2599.695,2136.398,2694.771,2286.877,2725.906,2472.618z"/>
<path style="fill:#558B2F;" d="M1895.307,1954.142c-129.237,142.837-247.534,292.255-291.73,486.113
	c-2.439,10.699-3.574,21.696-5.32,32.55c-85.13-5.171-174.378-32.722-244.247,44.977c-91.344-126.208-127.561-269.874-133.92-423
	c4.23-233.721,56.671-447.104,252.948-599.811c77.659-17.5,132.407,30.988,191.652,66.54
	C1763.466,1679.522,1857.765,1800.159,1895.307,1954.142z"/>
<path style="fill:#558B2F;" d="M2725.906,2472.618c-31.135-185.741-126.211-336.219-256.748-467.459
	c-15.209-15.291-27.042-33.941-40.439-51.032c36.457-154.571,131.999-274.395,230.688-392.368
	c57.604-33.089,108.865-83.635,184.514-67.046c203.977,143.012,249.456,356.402,259.851,585.369
	c1.473,158.594-48.638,302.305-126.375,438.047C2904.151,2444.454,2813.819,2465.22,2725.906,2472.618z"/>
<path style="fill:#7BB242;" d="M2659.407,1561.759c-98.69,117.973-194.231,237.797-230.688,392.368
	c-111.158-74.833-227.049-137.245-365.802-86.964c-58.672,21.261-111.906,57.533-167.61,86.981
	c-37.541-153.984-131.84-274.622-230.617-392.63c98.19-201.767,234.416-364.793,452.56-444.361
	c29.501-0.458,59.004-0.919,88.503-1.384C2424.147,1196.075,2563.563,1356.75,2659.407,1561.759z"/>
</svg>
