<?xml version="1.0" encoding="utf-8"?>
<!-- Generator: Adobe Illustrator 25.3.1, SVG Export Plug-In . SVG Version: 6.00 Build 0)  -->
<svg version="1.1" id="Layer_1" xmlns="http://www.w3.org/2000/svg" xmlns:xlink="http://www.w3.org/1999/xlink" x="0px" y="0px"
	 viewBox="0 0 2652.5 3071.2" style="enable-background:new 0 0 2652.5 3071.2;" xml:space="preserve">
<style type="text/css">
	.st0{fill:#558A2F;}
	.st1{fill:#7CB242;}
	.st2{fill:#689F39;}
	.st3{fill:#689F38;}
	.st4{fill:#34691F;}
	.st5{fill:#33691E;}
	.st6{fill:#689E38;}
	.st7{fill:#558B2F;}
	.st8{fill:#7BB242;}
</style>
<path class="st0" d="M1674.6,2523.2c-0.6-252.9-75.4-472.2-179.7-520.2c-27.9-12.9-55.4-31-82.2-56.1c-53.6-50-113.4-51.3-166.9-0.9
	c-27.6,26-55.8,44.5-84.5,57.3c-105.4,47.1-181.4,268.2-181.4,523.9c0,3.5,0,6.9,0,10.4c0,38.1,1.7,75.3,4.9,111.1V3004
	c0,37.1,30.1,67.2,67.2,67.2h244.4h30.8h280.1c37.1,0,67.2-30.1,67.2-67.2v-466.4v-11.4v-2.7
	C1674.6,2523.4,1674.6,2523.3,1674.6,2523.2z"/>
<path class="st1" d="M979.5,2493.8c-132.7-26.7-242.9-92.4-333.3-192.4c-76.2-125.5-206.6-234.1-126-408
	c69.9-77.7,159.1-50.1,244.2-45c236.8,42.9,438.6,141.6,565.6,343.7c126.4-205.3,329.2-298.1,562-343.8
	c87.9-7.4,178.2-28.2,251.5,45.5c66.2,167.6-48.6,278.6-125.7,401.4c-91.8,103.7-204,172.4-340.9,198.8
	c-148.5,5.2-290-3.3-345.7-185.8C1274.2,2494.6,1128.6,2497.5,979.5,2493.8z"/>
<path class="st2" d="M520.2,1893.4c-80.7,173.9,49.8,282.6,126,408c-259.8-12.6-432.6-157.9-552.6-373.6
	C-25.3,1714.3-29.6,1492.1,73,1270.2c19.2-41.5,52.5-13.7,79.4-1.4c77.9,67.2,155.9,134.4,233.8,201.6
	C392.7,1623.5,428.9,1767.2,520.2,1893.4z"/>
<path class="st2" d="M2018,2295.1c77.1-122.8,191.9-233.7,125.7-401.4c77.7-135.7,127.8-279.5,126.4-438
	c78.4-65.3,156.9-130.6,235.3-195.8c45.5-25.4,71-14.1,92.2,36.2C2783.5,1738.3,2474.1,2273.3,2018,2295.1z"/>
<path class="st3" d="M451.8,607.7C535.6,330.5,714.9,195,957.4,225.6c123.3,71.3,242.4,147.6,326,267.2
	c-218.1,79.6-354.4,242.6-452.6,444.4c-59.2-35.6-114-84-191.6-66.5C608.7,760.2,525,687.7,451.8,607.7z"/>
<path class="st3" d="M1692.8,216.5c234.9-18.7,402.9,111.2,510.1,394.5c-78.7,75.7-149.1,157.6-192.7,259.3
	c-75.6-16.6-126.9,34-184.5,67c-95.8-205-235.3-365.7-453.7-446C1450.9,367,1570.1,289.8,1692.8,216.5z"/>
<path class="st1" d="M451.8,607.7c73.3,80,156.9,152.5,187.5,262.9c-196.3,152.7-248.7,366.1-253,599.8
	c-77.9-67.2-155.9-134.4-233.8-201.6c-35.1-224.1,23.6-421.8,165.6-597.2C353.4,627.8,391.2,595.6,451.8,607.7z"/>
<path class="st1" d="M2010.1,870.3c43.7-101.7,114-183.6,192.7-259.3c209.3,26.5,226.8,211.5,286.4,356.2
	c37.8,91.7,30.8,193.9,16,292.6c-78.4,65.3-156.9,130.6-235.3,195.8C2259.6,1226.7,2214.1,1013.3,2010.1,870.3z"/>
<path class="st4" d="M1692.8,216.5C1570.1,289.8,1450.9,367,1372,491.4c-29.5,0.5-59,0.9-88.5,1.4
	c-83.7-119.6-202.8-195.9-326-267.2C1193.5-72,1459.7-75.3,1692.8,216.5z"/>
<path class="st5" d="M1670.9,2634.7c-119.3,4.4-235.2-6.9-338.6-76.8c-1.7-1.1-3.9-1.1-5.5,0c-105.4,71.8-222,80-341.1,76.7
	c-2.6-0.1-4.8-2.2-4.8-4.9c-0.4-43.6-0.9-87.2-1.3-130.8c0-2.8,2.3-5,5-5c143.4,3.4,282.7-41.2,342.1-211.6c1.5-4.4,7.8-4.4,9.3,0
	c57.9,166.7,193.2,216.4,335.9,211.7c2.8-0.1,5.1,2.2,5.1,5c-0.5,43.6-0.9,87.2-1.4,130.8
	C1675.6,2632.5,1673.5,2634.6,1670.9,2634.7z"/>
<path class="st6" d="M1892.1,1848.2c-232.8,45.7-435.7,138.6-562,343.8c-127-202.1-328.9-300.8-565.6-343.7
	c1.7-10.9,2.9-21.9,5.3-32.6c44.2-193.9,162.5-343.3,291.7-486.1c55.7-29.4,108.9-65.7,167.6-87c138.8-50.3,254.6,12.1,365.8,87
	c13.4,17.1,25.2,35.7,40.4,51C1765.9,1512,1861,1662.5,1892.1,1848.2z"/>
<path class="st7" d="M1061.5,1329.7C932.3,1472.6,814,1622,769.8,1815.9c-2.4,10.7-3.6,21.7-5.3,32.6c-85.1-5.2-174.4-32.7-244.2,45
	c-91.3-126.2-127.6-269.9-133.9-423c4.2-233.7,56.7-447.1,252.9-599.8c77.7-17.5,132.4,31,191.7,66.5
	C929.7,1055.1,1024,1175.8,1061.5,1329.7z"/>
<path class="st7" d="M1892.1,1848.2c-31.1-185.7-126.2-336.2-256.7-467.5c-15.2-15.3-27-33.9-40.4-51
	c36.5-154.6,132-274.4,230.7-392.4c57.6-33.1,108.9-83.6,184.5-67c204,143,249.5,356.4,259.9,585.4c1.5,158.6-48.6,302.3-126.4,438
	C2070.4,1820.1,1980,1840.8,1892.1,1848.2z"/>
<path class="st8" d="M1825.6,937.4c-98.7,118-194.2,237.8-230.7,392.4c-111.2-74.8-227-137.2-365.8-87
	c-58.7,21.3-111.9,57.5-167.6,87c-37.5-154-131.8-274.6-230.6-392.6c98.2-201.8,234.4-364.8,452.6-444.4c29.5-0.5,59-0.9,88.5-1.4
	C1590.4,571.7,1729.8,732.3,1825.6,937.4z"/>
</svg>
