<?xml version="1.0" encoding="iso-8859-1"?>
<!-- Generator: Adobe Illustrator 25.3.1, SVG Export Plug-In . SVG Version: 6.00 Build 0)  -->
<svg version="1.1" id="Layer_1" xmlns="http://www.w3.org/2000/svg" xmlns:xlink="http://www.w3.org/1999/xlink" x="0px" y="0px"
	 viewBox="0 0 4320 4320" style="enable-background:new 0 0 4320 4320;" xml:space="preserve">
<g>
	<path style="fill:#FDFEFE;" d="M1908.651,1840.952l-0.129,0.29c0.62,7.25,0.513,14.648,1.968,21.726
		c24.672,120.071,49.821,240.046,74.198,360.176c8.01,39.475,20.528,78.486,21.806,118.798c1.544,48.685,8.859,96.387,17.49,143.98
		c17.852,98.45,40.851,195.797,65.823,292.651c15.071,58.451,28.988,117.25,48.018,174.625c9.332,6.137,9.996,15.599,9.418,25.333
		c-0.617,10.399,4.069,14.461,14.322,14.016c39.307-1.708,78.738,1.193,117.992-4.215c10.462-1.442,13.759-5.374,13.739-15.071
		c-0.022-10.869-1.954-22.693,9.819-29.808c2.069-6.094,4.467-12.099,6.158-18.297c29.484-108.093,57.128-216.661,80.933-326.144
		c14.206-65.338,28.081-130.748,36.614-197.241c3.515-27.394,0.02-54.997,5.364-82.037c14.529-73.51,29.502-146.933,43.99-220.451
		c10.901-55.314,21.324-110.722,31.961-166.087c31.557-18.746,53.875-45.569,68.353-79.01c2.18-5.035,3.284-10.933,3.3-16.437
		c0.058-19.339-11.654-27.527-30.191-21.753c-6.1,1.901-11.412,6.356-18.312,5.663c6.39-31.181,12.781-62.362,19.171-93.543
		c24.166-17.647,44.826-38.547,60.59-64.185c5.116-8.321,8.903-17.133,10.838-26.512c4.815-23.338-9.162-35.787-31.491-28.364
		c-3.75,1.247-7.167,3.497-10.738,5.284c-3.48-2.814-4.588-6.688-3.727-10.766c5.954-28.191,12.089-56.343,18.166-84.507
		c10.581-6.023,19.032-14.566,27.424-23.18c17.963-18.438,35.316-37.252,41.931-63.246c2.928-11.507,2.929-22.598-6.6-30.993
		c-8.815-7.766-18.076-2.901-26.937,0.983c-3.656,1.602-7.263,3.318-10.892,4.982c-1.004-8.826,0.436-17.313,2.3-25.992
		c4.999-23.286,9.165-46.75,13.662-70.143c27.97-17.182,48.474-41.321,64.554-69.52c5.239-9.187,8.446-19.04,7.79-29.799
		c-1.124-18.433-11.177-24.995-28.963-19.678c-6.805,2.034-12.597,7.455-20.377,6.228c0.946-3.905,1.723-7.86,2.862-11.708
		c14.874-50.235,5.353-98.999-10.272-146.882c-8.217-25.179-19.007-26.686-37.828-7.519c-15.335,15.616-27.322,33.767-37.929,52.844
		c-8.316-2.653-12.194-10.244-17.55-16.086c-7.382-8.052-15.059-15.576-27.032-11.296c-11.225,4.012-15.303,14.197-16.89,24.788
		c-1.794,11.979-1.38,24.07,1.449,36.099c5.77,24.533,14.512,47.85,26.793,69.849c-3.139,6.5-3.631,13.684-5.433,20.505
		c-6.352,24.043-5.704,49.942-18.88,72.177c-7.38-9.565-14.536-21.009-28.988-16.131c-14.205,4.795-17.294,18.174-18.588,31.239
		c-0.701,7.076,0.526,14.392,1.291,21.557c3.049,28.548,16.2,53.633,27.471,79.354c-6.826,30.768-13.653,61.536-20.479,92.305
		c-2.531-1.843-5.29-3.442-7.557-5.565c-20.313-19.026-35.155-14.711-41.895,12.198c-1.972,7.872-1.741,15.612-0.965,23.718
		c2.951,30.826,16.018,58.248,27.672,86.187c-8.067,22.945-10.482,47.173-15.964,70.707c-1.614,6.93-0.582,14.965-9.586,17.785
		c-6.106-9.118-13.463-17.752-25.507-14c-11.736,3.656-17.823,13.401-18.643,25.888c-0.318,4.838-0.548,9.704-0.421,14.547
		c0.809,30.64,10.829,58.522,25.672,84.933c-0.635,5.62-0.823,11.332-1.969,16.846c-27.236,131.123-53.983,262.352-82.318,393.238
		c-6.924,31.983-9.749,65.165-23.413,95.559c-14.519-43.722-11.999-89.519-12.846-134.221
		c-2.404-126.921-1.092-253.913-1.243-380.877c25.125-26.039,42.742-56.494,54.288-90.73c4.007-11.882,5.075-23.922,3.181-35.9
		c-3.238-20.472-19.433-27.834-37.399-17.696c-6.969,3.933-13.622,8.427-20.419,12.666c-0.081-37.295-0.161-74.59-0.242-111.885
		c22.683-23.349,39.322-50.576,51.444-80.642c5.773-14.318,8.96-29.179,6.937-44.697c-2.977-22.835-19.816-30.672-39.434-18.431
		c-4.757,2.969-9.222,6.406-13.822,9.627c-7.88-6.068-4.821-14.752-4.975-22.418c-0.584-28.959-0.715-57.927-1.016-86.891
		c27.159-28.627,48.075-61.135,57.422-99.712c3.914-16.154,7.834-34.956-9.215-46.8c-17.783-12.354-29.73,2.872-42.464,12.116
		c-5.802-3.553-5.063-9.393-5.044-14.867c0.114-32.557,0.307-65.114,0.473-97.672c28.21-26.644,44.877-60.079,56.38-96.453
		c2.941-9.3,2.882-19.159,1.512-28.673c-3.038-21.106-20.331-29.109-38.444-18.126c-6.839,4.146-13.369,8.8-20.04,13.222
		c7.968-60.412-13.293-114.125-39.217-166.417c-6.104-12.313-11.375-29.583-28.689-29.373c-16.771,0.204-22.407,16.34-29.119,29.018
		c-9.797,18.503-18.627,37.465-24.808,57.548c-9.96-2.095-16.389-9.745-24.052-15.41c-9.4-6.948-19.31-12.796-30.991-6.635
		c-12.166,6.417-15.366,18.725-14.717,30.947c0.943,17.752,7.322,34.326,14.561,50.593c10.892,24.475,27.831,44.953,42.671,66.829
		c-3.106,35.871-0.733,71.813-1.383,107.716c-4.268-2.193-8.764-4.036-12.757-6.649c-8.996-5.887-18.024-11.914-28.915-5.092
		c-11.533,7.225-15.167,19.055-14.145,31.532c0.98,11.964,3.85,23.754,7.936,35.321c10.694,30.272,30.512,54.833,48.633,80.504
		c-0.316,28.594-0.389,57.194-1.113,85.778c-0.189,7.464,3.488,16.103-4.445,22.156c-2.606-1.878-5.136-3.875-7.832-5.614
		c-8.77-5.656-17.314-12.289-28.593-5.52c-11.011,6.609-14.27,17.498-14.196,28.886c0.072,11.113,2.231,22.141,5.847,33.012
		c10.608,31.886,30.025,58.344,50.036,84.547c-0.315,28.734-0.462,57.471-1.056,86.199c-0.158,7.639,2.939,16.159-4.314,22.535
		c-11.44-7.314-23.053-18.852-37.246-9.398c-15.515,10.334-15.186,27.004-11.791,43.795c4.067,20.112,12.22,38.553,22.694,55.887
		c10.003,16.554,21.209,32.38,31.887,48.526c-1.499,71.081-3.78,142.156-4.319,213.244c-0.878,115.706-0.338,231.423-1.061,347.13
		c-0.154,24.608-1.842,49.469-14.502,71.818c-16.422-56.527-26.084-114.59-38.929-171.928
		c-16.905-75.461-33.008-151.102-49.455-226.666c17.175-30.618,30.361-62.398,30.321-98.398
		c-0.018-15.567-2.736-30.365-18.887-35.839c-15.713-5.325-22.365,8.85-30.319,18.726c-7.351-5.129-7.778-13.279-9.385-21.023
		c-5.007-24.128-10.203-48.216-15.325-72.32c13.136-20.529,21.517-42.881,26.932-66.625c3.276-14.363,4.357-28.677,2.329-43.056
		c-1.521-10.784-6.886-20.269-17.745-24.016c-10.939-3.774-17.857,4.182-24.7,11.061c-3.344,3.362-6.734,6.678-10.103,10.015
		c-6.717-32.056-13.434-64.112-20.151-96.168c2.568-4.064,5.524-7.938,7.642-12.224c14.775-29.895,25.235-60.775,21.859-94.927
		c-1.126-11.388-5.874-19.731-16.461-24.616c-11.536-5.323-17.875,2.657-24.865,9.288c-4.007,3.801-6.443,9.358-12.308,11.097
		c-6.859-31.051-13.719-62.101-20.578-93.152c12.639-19.911,21.439-41.454,27.444-64.21c4.391-16.642,5.582-33.719,2.306-50.364
		c-4.412-22.421-22.114-27.633-38.915-12.711c-4.76,4.228-7.771,10.458-14.352,12.609c-1.438-7.079-3.242-14.106-4.256-21.246
		c-7.033-49.496-35.868-87.17-67.772-122.671c-14.991-16.681-25.079-14.241-34.083,5.83c-9.653,21.517-13.294,44.592-15.661,67.88
		c-7.637,0.007-13.673-4.469-20.358-7.177c-9.469-3.835-18.902-11.115-29.32-2.703c-11.282,9.109-9.673,21.534-7.006,33.515
		c2.115,9.501,7.101,17.984,12.479,26.116c14.871,22.488,33.687,41.206,54.946,57.596c5.255,31.024,10.84,61.981,18.949,92.42
		c-4.968,0.932-9.331-0.902-14.033-2.283c-22.08-6.488-31.726,1.845-30.244,25.155c0.857,13.489,7.301,24.623,14.277,35.54
		c14.54,22.754,34.476,40.493,54.507,58.123c3.974,31.118,10.599,61.688,19.022,91.885c-5.083,1.049-9.188-1.919-13.754-3.149
		c-22.441-6.042-31.808,1.898-30.4,25.181c0.911,15.062,8.445,27.305,16.432,39.383c14.304,21.631,34.157,38.006,52.707,55.615
		c-0.781,8.931,1.666,17.401,3.099,26.103c3.622,22.004,12.82,43.114,10.882,66.015c-10.804-4.122-21.468-14.389-33.076-2.474
		c-10.578,10.857-6.675,24.104-4.117,36.699c0.78,3.84,3.048,7.491,5.119,10.936c14.683,24.425,31.553,46.936,55.897,62.772
		C1905.363,1837.525,1907.007,1839.239,1908.651,1840.952z"/>
	<path style="fill:#C2D876;" d="M2147.575,1301.149c7.933-6.053,4.256-14.692,4.445-22.156c0.724-28.584,0.797-57.184,1.113-85.778
		c3.976-0.315,8.7,0.662,11.812-1.142c34.543-20.025,56.39-50.283,64.825-88.734c4.529-20.644-1.601-24.77-22.878-26.59
		c-19.639-1.679-40.55-0.851-54.51-19.151c0.65-35.903-1.723-71.845,1.383-107.716c11.582,1.484,19.984-4.534,28.04-11.659
		c19.745-17.462,34.159-38.707,44.417-62.807c11.237-26.4,4.869-38.425-22.403-44.741c-12.436-2.88-26.255,1.663-37.525-7.117
		c6.18-20.082,15.011-39.044,24.808-57.548c6.712-12.678,12.349-28.814,29.119-29.018c17.314-0.211,22.585,17.06,28.689,29.373
		c25.924,52.292,47.185,106.005,39.217,166.417c-4.06,8.785-13.389,8.101-20.533,11.011c-12.114,4.935-25.533-0.069-38.081,4.564
		c-16.558,6.114-19.902,11.507-15.358,28.724c4.791,18.152,12.474,35.833,24.009,49.678c13.145,15.776,23.934,37.992,50.555,36.054
		c-0.167,32.557-0.36,65.114-0.473,97.672c-0.019,5.474-0.758,11.314,5.044,14.867c-16.216,16.589-38.882,11.698-58.386,17.267
		c-22.038,6.292-25.116,11.645-19.193,33.912c8.919,33.528,31.909,56.592,56.184,78.979c4.592,4.234,9.913,4.759,15.652,4.238
		c0.301,28.964,0.433,57.932,1.016,86.891c0.154,7.667-2.905,16.35,4.975,22.418c-16.25,11.43-34.833,15.83-54.178,17.473
		c-23.526,1.997-30.673,11.983-24.114,34.54c8.36,28.75,27.161,50.815,46.946,72.037c6.696,7.182,15.772,11.17,26.221,10.094
		c0.081,37.295,0.161,74.59,0.242,111.885c-11.485,11.743-25.841,14.433-41.684,14.876c-32.756,0.918-41.178,14.648-28.097,44.74
		c9.706,22.327,22.564,42.466,40.335,59.598c8.731,8.417,17.52,13.862,29.795,12.446c0.151,126.964-1.161,253.955,1.243,380.877
		c0.847,44.702-1.673,90.499,12.846,134.221c0.129,20.903,4.14,41.964,3.973,62.353c-0.927,112.953,5.632,225.945-3.237,338.919
		c-3.708,47.237-0.19,94.982-5.305,142.382c-2.233,20.692,1.264,41.64-4.166,62.522c-1.991,7.657-8.028,21.935,8.76,25.435
		c-11.773,7.115-9.841,18.939-9.819,29.808c0.02,9.697-3.277,13.629-13.739,15.071c-39.254,5.408-78.686,2.507-117.992,4.215
		c-10.254,0.445-14.939-3.617-14.322-14.016c0.577-9.735-0.086-19.196-9.418-25.333c3.881-0.673,9.095-0.714,8.203-6.34
		c-5.223-32.953-5.308-66.529-6.748-99.496c-2.317-53.027-5.78-106.151-6.072-159.281c-0.569-103.455-0.182-206.914-0.151-310.371
		c0.002-7.266-1.774-15.472,0.952-21.608c6.191-13.931,2.725-26.708-0.88-39.908c12.66-22.349,14.348-47.209,14.502-71.818
		c0.723-115.708,0.183-231.424,1.061-347.13c0.539-71.088,2.82-142.163,4.319-213.244c13.434,1.311,23.051-5.729,31.503-14.809
		c14.268-15.328,27.436-31.729,36.828-50.399c15.692-31.196,18.334-52.515-28.108-55.587c-17.08-1.13-33.218-5.141-45.768-18.015
		c7.253-6.376,4.156-14.896,4.314-22.535c0.594-28.728,0.741-57.465,1.056-86.199c9.209,1.302,16.818-1.114,24.722-6.715
		c25.473-18.052,40.789-43.181,50.313-71.769c9.323-27.984,2.245-36.653-27.412-37.915
		C2180.871,1319.226,2162.221,1315.792,2147.575,1301.149z"/>
	<path style="fill:#B1CE5D;" d="M2133.129,2316.195c3.604,13.2,7.071,25.977,0.88,39.908c-2.726,6.135-0.95,14.342-0.952,21.608
		c-0.031,103.458-0.418,206.917,0.151,310.371c0.292,53.13,3.755,106.253,6.072,159.281c1.44,32.967,1.526,66.543,6.748,99.496
		c0.892,5.626-4.322,5.667-8.203,6.34c-19.03-57.375-32.948-116.174-48.018-174.625c-24.971-96.853-47.971-194.2-65.823-292.651
		c-8.63-47.593-15.946-95.295-17.49-143.98c-1.278-40.312-13.796-79.323-21.806-118.798
		c-24.377-120.131-49.526-240.105-74.198-360.176c-1.455-7.078-1.348-14.477-1.968-21.726c8.21-0.743,15.843-2.401,21.273-9.651
		c15.272-20.394,25.49-43.102,28.03-68.362c2.761-27.458-4.26-34.093-31.508-29.375c-16.583,2.872-31.482,0.15-46.42-5.974
		c1.938-22.901-7.26-44.012-10.882-66.015c-1.432-8.702-3.88-17.172-3.099-26.103c35.374-16.387,44.912-48.517,48.011-82.917
		c2.228-24.731-8.448-32.613-32.629-26.338c-15.275,3.964-28.297,2.04-40.367-7.776c-8.423-30.197-15.048-60.767-19.022-91.885
		c33.579-12.32,40.886-43.374,47.869-72.265c7.06-29.205,0.131-34.817-30.636-34.644c-8.033,0.045-16.07-0.096-24.1,0.081
		c-7.837,0.172-14.266-1.912-17.64-9.707c-8.109-30.439-13.694-61.396-18.949-92.42c4.807-0.079,9.654,0.427,13.974-2.646
		c20.364-14.48,39.874-67.503,34.268-91.997c-2.314-10.109-8.931-12.328-17.806-12.335c-13.725-0.011-27.451-0.236-41.176-0.37
		c2.367-23.288,6.008-46.364,15.661-67.88c9.004-20.071,19.092-22.511,34.083-5.83c31.904,35.501,60.739,73.175,67.772,122.671
		c1.014,7.139,2.818,14.167,4.256,21.246c-9.218,15.606-26.197,17.278-41.035,22.596c-12.314,4.414-21.888,13.744-15.109,25.133
		c18.499,31.08,39.75,60.609,79.661,66.946c6.859,31.051,13.719,62.101,20.578,93.152c-8.9,17.671-27.935,17.053-43.015,22.587
		c-12.329,4.524-17.256,10.27-13.856,22.821c8.018,29.598,50.27,64.028,81.003,65.974c6.717,32.056,13.434,64.112,20.151,96.168
		c-3.479,9.617-12.375,12.062-20.564,15.184c-8.232,3.139-16.658,5.778-25.035,8.525c-12.707,4.167-15.17,13.911-12.406,25.112
		c6.287,25.484,53.541,62.154,81.292,63.799c5.123,24.104,10.319,48.192,15.325,72.32c1.607,7.744,2.034,15.894,9.385,21.023
		c-13.106,12.413-29.293,18.693-46.251,23.682c-12.466,3.667-18.958,11.751-15.706,25.277c6.752,28.087,51.522,64.825,80.842,66.552
		c16.447,75.564,32.55,151.205,49.455,226.666C2107.045,2201.604,2116.707,2259.667,2133.129,2316.195z"/>
	<path style="fill:#B1CE5D;" d="M2303.115,2943.453c-16.788-3.5-10.751-17.778-8.76-25.435c5.43-20.882,1.933-41.83,4.166-62.522
		c5.116-47.4,1.597-95.145,5.305-142.382c8.869-112.974,2.31-225.966,3.237-338.919c0.167-20.389-3.844-41.45-3.973-62.353
		c13.665-30.395,16.489-63.576,23.413-95.559c28.335-130.885,55.082-262.115,82.318-393.238c1.146-5.514,1.334-11.226,1.969-16.846
		c5.818,7.5,11.204,10.967,21.969,5.971c24.986-11.597,44.068-29.242,58.03-52.194c12.32-20.253,8.104-29.546-14.558-37.531
		c-17.376-6.122-34.924-11.838-46.543-27.613c9.004-2.82,7.972-10.855,9.586-17.785c5.482-23.534,7.897-47.761,15.964-70.707
		c7.883,0.053,15.579,1.497,23.356-2.735c21.476-11.685,39.561-26.47,52.05-48.033c15.886-27.428,14.45-31.667-15.422-42.298
		c-14.017-4.989-30.024-7.436-37.239-23.473c6.827-30.768,13.653-61.537,20.48-92.305c30.917,0.203,75.33-34.395,81.298-63.871
		c2.619-12.934,0.569-22.673-15.425-26.864c-17.304-4.534-36.858-6.769-47.06-25.283c13.176-22.235,12.529-48.134,18.88-72.177
		c1.802-6.821,2.293-14.005,5.433-20.505c31.41-0.23,72.011-30.811,81.012-61.021c4.625-15.521,0.48-21.689-16.024-28.227
		c-10.729-4.251-24.703-1.588-31.758-14.106c10.607-19.077,22.594-37.228,37.929-52.844c18.822-19.167,29.612-17.66,37.828,7.519
		c15.625,47.883,25.146,96.646,10.272,146.882c-1.139,3.848-1.917,7.803-2.862,11.708c-15.636,9.812-32.823,3.529-49.25,4.334
		c-13.18,0.646-18.338,5.777-19.221,19.002c-1.475,22.063,6.014,40.975,16.977,59.144c7.316,12.125,10.923,27.789,28.49,30.29
		c-4.497,23.393-8.663,46.858-13.662,70.143c-1.864,8.679-3.304,17.166-2.3,25.992c-5.344,7.366-13.266,4.408-20.154,4.661
		c-12.111,0.446-24.253,0.061-36.382,0.043c-8.114-0.012-13.675,2.955-15.967,11.575c-7.622,28.669,18.96,82.191,47.577,95.175
		c-6.077,28.165-12.212,56.317-18.166,84.507c-0.862,4.079,0.247,7.952,3.727,10.766c-16.951,10.931-35.646,7.304-53.82,5.8
		c-16.353-1.354-22.174,2.072-23.279,17.713c-1.406,19.906,5.632,37.958,15.294,54.584c8.139,14.004,12.678,32.138,32.604,35.681
		c-6.391,31.181-12.781,62.362-19.171,93.543c-11.489,10.713-23.825,8.699-37.983,5.135c-25.546-6.43-37.666,7.261-31.914,33.525
		c1.022,4.667,0.74,9.752,2.421,14.12c9.144,23.763,16.74,48.856,44.327,58.755c-10.636,55.366-21.06,110.774-31.96,166.087
		c-14.488,73.518-29.461,146.941-43.99,220.451c-5.344,27.039-1.849,54.642-5.364,82.037
		c-8.533,66.493-22.407,131.903-36.614,197.241c-23.805,109.483-51.449,218.052-80.933,326.144
		C2307.582,2931.354,2305.184,2937.358,2303.115,2943.453z"/>
	<path style="fill:#84AB53;" d="M2288.411,1553.2c-10.449,1.077-19.525-2.912-26.221-10.094
		c-19.785-21.222-38.586-43.287-46.946-72.037c-6.559-22.556,0.588-32.543,24.114-34.54c19.345-1.642,37.928-6.043,54.178-17.473
		c4.599-3.221,9.064-6.659,13.822-9.627c19.618-12.241,36.457-4.404,39.434,18.431c2.023,15.517-1.164,30.378-6.937,44.697
		C2327.733,1502.624,2311.094,1529.851,2288.411,1553.2z"/>
	<path style="fill:#84AB53;" d="M2166.292,823.559c11.271,8.78,25.09,4.237,37.525,7.117c27.272,6.316,33.64,18.341,22.403,44.741
		c-10.258,24.1-24.672,45.345-44.417,62.807c-8.056,7.124-16.458,13.142-28.04,11.659c-14.84-21.876-31.779-42.354-42.671-66.829
		c-7.239-16.267-13.618-32.841-14.561-50.593c-0.649-12.222,2.551-24.53,14.717-30.947c11.681-6.161,21.591-0.313,30.991,6.635
		C2149.903,813.814,2156.332,821.464,2166.292,823.559z"/>
	<path style="fill:#84AB53;" d="M2147.575,1301.149c14.646,14.644,33.296,18.078,52.885,18.911
		c29.657,1.262,36.734,9.931,27.412,37.915c-9.524,28.588-24.84,53.717-50.313,71.769c-7.904,5.601-15.512,8.017-24.722,6.715
		c-20.011-26.202-39.428-52.66-50.036-84.547c-3.616-10.87-5.775-21.899-5.847-33.012c-0.074-11.388,3.185-22.277,14.196-28.886
		c11.279-6.769,19.823-0.136,28.593,5.52C2142.439,1297.274,2144.969,1299.27,2147.575,1301.149z"/>
	<path style="fill:#84AB53;" d="M2288.718,1062.814c-26.621,1.938-37.41-20.277-50.555-36.054
		c-11.535-13.844-19.219-31.526-24.009-49.678c-4.544-17.216-1.2-22.61,15.358-28.724c12.548-4.634,25.967,0.371,38.081-4.564
		c7.144-2.91,16.473-2.227,20.533-11.012c6.671-4.422,13.201-9.076,20.04-13.222c18.114-10.983,35.406-2.979,38.444,18.126
		c1.369,9.513,1.429,19.373-1.512,28.673C2333.595,1002.735,2316.928,1036.169,2288.718,1062.814z"/>
	<path style="fill:#84AB53;" d="M2152.381,1057.598c13.961,18.3,34.871,17.472,54.51,19.151c21.278,1.819,27.407,5.945,22.878,26.59
		c-8.435,38.451-30.282,68.709-64.825,88.734c-3.112,1.804-7.836,0.827-11.812,1.142c-18.12-25.671-37.939-50.232-48.633-80.504
		c-4.086-11.567-6.956-23.357-7.936-35.321c-1.022-12.477,2.612-24.307,14.145-31.532c10.891-6.823,19.919-0.796,28.915,5.092
		C2143.616,1053.563,2148.113,1055.406,2152.381,1057.598z"/>
	<path style="fill:#84AB53;" d="M2147.467,1545.193c12.55,12.874,28.688,16.885,45.768,18.015
		c46.442,3.072,43.8,24.391,28.108,55.587c-9.392,18.671-22.56,35.072-36.828,50.399c-8.452,9.08-18.069,16.119-31.503,14.809
		c-10.677-16.146-21.884-31.973-31.887-48.526c-10.474-17.333-18.628-35.774-22.694-55.887
		c-3.395-16.792-3.724-33.461,11.791-43.795C2124.413,1526.342,2136.026,1537.879,2147.467,1545.193z"/>
	<path style="fill:#84AB53;" d="M2289.002,1796.745c-12.274,1.417-21.064-4.029-29.795-12.446
		c-17.771-17.132-30.629-37.271-40.335-59.598c-13.081-30.091-4.659-43.821,28.097-44.74c15.843-0.444,30.199-3.133,41.684-14.876
		c6.797-4.239,13.45-8.732,20.419-12.666c17.966-10.139,34.161-2.776,37.399,17.696c1.894,11.978,0.827,24.018-3.181,35.9
		C2331.744,1740.251,2314.127,1770.706,2289.002,1796.745z"/>
	<path style="fill:#84AB53;" d="M2287.545,1309.748c-5.739,0.521-11.06-0.004-15.652-4.238
		c-24.275-22.387-47.265-45.451-56.184-78.979c-5.924-22.267-2.845-27.62,19.193-33.912c19.505-5.569,42.17-0.678,58.386-17.267
		c12.733-9.244,24.681-24.47,42.464-12.116c17.049,11.844,13.128,30.646,9.215,46.8
		C2335.62,1248.614,2314.704,1281.121,2287.545,1309.748z"/>
	<path style="fill:#84AB53;" d="M2044.745,1917.601c-29.32-1.727-74.089-38.465-80.842-66.552
		c-3.252-13.526,3.24-21.61,15.706-25.277c16.958-4.988,33.145-11.269,46.251-23.682c7.953-9.876,14.606-24.051,30.319-18.726
		c16.151,5.473,18.869,20.272,18.887,35.839C2075.105,1855.203,2061.92,1886.983,2044.745,1917.601z"/>
	<path style="fill:#84AB53;" d="M2477.984,1489.801c7.214,16.036,23.222,18.484,37.239,23.473
		c29.872,10.631,31.308,14.87,15.422,42.298c-12.489,21.563-30.573,36.348-52.05,48.033c-7.778,4.232-15.474,2.788-23.356,2.735
		c-11.653-27.94-24.721-55.362-27.672-86.187c-0.776-8.106-1.007-15.846,0.965-23.718c6.74-26.909,21.582-31.224,41.895-12.198
		C2472.694,1486.36,2475.453,1487.959,2477.984,1489.801z"/>
	<path style="fill:#84AB53;" d="M2001.15,1708.748c-27.751-1.645-75.004-38.315-81.292-63.799
		c-2.763-11.201-0.301-20.946,12.406-25.112c8.377-2.747,16.803-5.386,25.035-8.525c8.189-3.122,17.084-5.568,20.564-15.184
		c3.369-3.337,6.759-6.653,10.103-10.015c6.842-6.879,13.761-14.835,24.7-11.061c10.859,3.747,16.224,13.231,17.745,24.016
		c2.028,14.38,0.947,28.693-2.329,43.056C2022.667,1665.867,2014.286,1688.218,2001.15,1708.748z"/>
	<path style="fill:#84AB53;" d="M1913.002,1295.425c-39.911-6.337-61.162-35.866-79.661-66.946
		c-6.779-11.389,2.795-20.719,15.109-25.133c14.838-5.318,31.817-6.99,41.035-22.596c6.581-2.152,9.592-8.381,14.352-12.609
		c16.801-14.922,34.503-9.71,38.915,12.711c3.276,16.645,2.085,33.722-2.306,50.364
		C1934.442,1253.971,1925.641,1275.513,1913.002,1295.425z"/>
	<path style="fill:#84AB53;" d="M1840.932,1518.73c12.07,9.816,25.093,11.739,40.367,7.776c24.181-6.275,34.857,1.607,32.629,26.338
		c-3.099,34.4-12.637,66.529-48.011,82.917c-18.55-17.609-38.403-33.984-52.707-55.615c-7.986-12.078-15.521-24.321-16.432-39.383
		c-1.408-23.283,7.959-31.224,30.4-25.181C1831.744,1516.811,1835.849,1519.779,1840.932,1518.73z"/>
	<path style="fill:#84AB53;" d="M2508.135,1933.196c-27.587-9.899-35.184-34.992-44.327-58.755
		c-1.681-4.368-1.399-9.453-2.421-14.12c-5.751-26.264,6.368-39.955,31.914-33.525c14.159,3.564,26.495,5.578,37.983-5.135
		c6.9,0.693,12.212-3.762,18.312-5.663c18.537-5.774,30.249,2.413,30.191,21.753c-0.016,5.504-1.12,11.402-3.3,16.437
		C2562.009,1887.626,2539.692,1914.45,2508.135,1933.196z"/>
	<path style="fill:#84AB53;" d="M1767.713,1110.542c13.725,0.134,27.45,0.359,41.176,0.37c8.876,0.007,15.493,2.226,17.806,12.335
		c5.606,24.494-13.904,77.517-34.268,91.997c-4.32,3.072-9.167,2.567-13.974,2.646c-21.259-16.39-40.075-35.109-54.946-57.596
		c-5.378-8.133-10.364-16.615-12.479-26.116c-2.667-11.981-4.275-24.406,7.006-33.515c10.418-8.411,19.851-1.132,29.32,2.703
		C1754.04,1106.073,1760.076,1110.549,1767.713,1110.542z"/>
	<path style="fill:#84AB53;" d="M2550.456,1728.116c-19.926-3.543-24.466-21.677-32.604-35.681
		c-9.662-16.626-16.7-34.678-15.294-54.584c1.104-15.641,6.926-19.066,23.279-17.713c18.174,1.505,36.869,5.131,53.82-5.8
		c3.571-1.787,6.988-4.037,10.738-5.284c22.329-7.424,36.306,5.026,31.491,28.364c-1.935,9.379-5.722,18.191-10.838,26.512
		C2595.282,1689.569,2574.622,1710.469,2550.456,1728.116z"/>
	<path style="fill:#84AB53;" d="M1879.897,1727.879c14.937,6.124,29.837,8.846,46.42,5.974c27.248-4.719,34.27,1.916,31.508,29.375
		c-2.54,25.26-12.758,47.968-28.03,68.362c-5.429,7.251-13.063,8.909-21.273,9.651l0.129-0.29c-0.199-3.1-1.879-4.779-4.932-5.14
		c-24.344-15.836-41.214-38.347-55.897-62.772c-2.072-3.446-4.339-7.096-5.119-10.936c-2.558-12.595-6.461-25.842,4.117-36.699
		C1858.429,1713.49,1869.093,1723.757,1879.897,1727.879z"/>
	<path style="fill:#84AB53;" d="M2517.277,1281.477c10.202,18.514,29.756,20.749,47.06,25.283
		c15.994,4.191,18.043,13.931,15.425,26.864c-5.969,29.476-50.381,64.075-81.298,63.871c-11.271-25.722-24.422-50.806-27.471-79.354
		c-0.765-7.164-1.992-14.48-1.291-21.557c1.294-13.064,4.382-26.444,18.588-31.239
		C2502.741,1260.468,2509.896,1271.912,2517.277,1281.477z"/>
	<path style="fill:#84AB53;" d="M1957.713,1499.959c-30.733-1.946-72.985-36.376-81.003-65.974
		c-3.4-12.552,1.527-18.297,13.856-22.821c15.08-5.534,34.115-4.916,43.015-22.587c5.865-1.739,8.301-7.296,12.308-11.097
		c6.99-6.631,13.329-14.612,24.865-9.288c10.588,4.885,15.335,13.228,16.461,24.616c3.375,34.153-7.085,65.032-21.859,94.927
		C1963.236,1492.021,1960.281,1495.895,1957.713,1499.959z"/>
	<path style="fill:#84AB53;" d="M2429.688,1694.832c11.619,15.775,29.167,21.491,46.543,27.613
		c22.662,7.985,26.878,17.278,14.558,37.531c-13.962,22.952-33.045,40.597-58.03,52.194c-10.765,4.997-16.151,1.529-21.969-5.971
		c-14.843-26.412-24.864-54.294-25.672-84.933c-0.128-4.843,0.103-9.708,0.421-14.547c0.82-12.487,6.907-22.232,18.643-25.888
		C2416.226,1677.079,2423.582,1685.714,2429.688,1694.832z"/>
	<path style="fill:#84AB53;" d="M2594.094,1519.066c-28.617-12.984-55.199-66.506-47.577-95.175
		c2.292-8.62,7.853-11.587,15.967-11.575c12.129,0.018,24.271,0.403,36.382-0.043c6.888-0.254,14.81,2.704,20.154-4.661
		c3.629-1.664,7.236-3.379,10.892-4.982c8.861-3.884,18.122-8.749,26.937-0.983c9.529,8.395,9.528,19.486,6.6,30.993
		c-6.614,25.995-23.967,44.809-41.931,63.246C2613.126,1504.5,2604.676,1513.043,2594.094,1519.066z"/>
	<path style="fill:#84AB53;" d="M2574.819,1085.441c7.055,12.519,21.03,9.855,31.758,14.106
		c16.504,6.538,20.648,12.706,16.024,28.227c-9.001,30.209-49.602,60.791-81.012,61.021c-12.281-21.998-21.024-45.316-26.793-69.849
		c-2.829-12.029-3.244-24.12-1.449-36.099c1.587-10.591,5.665-20.776,16.89-24.788c11.973-4.28,19.651,3.244,27.032,11.296
		C2562.625,1075.198,2566.503,1082.788,2574.819,1085.441z"/>
	<path style="fill:#84AB53;" d="M2634.982,1311.476c-17.567-2.501-21.175-18.166-28.49-30.29
		c-10.963-18.169-18.451-37.08-16.977-59.144c0.884-13.225,6.042-18.356,19.221-19.002c16.427-0.805,33.614,5.479,49.25-4.334
		c7.78,1.228,13.572-4.194,20.377-6.228c17.786-5.316,27.84,1.246,28.963,19.678c0.656,10.759-2.552,20.613-7.79,29.799
		C2683.457,1270.156,2662.952,1294.295,2634.982,1311.476z"/>
	<path style="fill:#84AB53;" d="M1797.402,1310.311c3.374,7.794,9.804,9.879,17.64,9.707c8.03-0.177,16.067-0.036,24.1-0.081
		c30.768-0.173,37.696,5.439,30.636,34.644c-6.984,28.891-14.291,59.945-47.869,72.265c-20.031-17.63-39.967-35.369-54.507-58.123
		c-6.976-10.917-13.42-22.052-14.277-35.54c-1.482-23.31,8.164-31.643,30.244-25.155
		C1788.071,1309.409,1792.434,1311.243,1797.402,1310.311z"/>
	<path style="fill:#B1CE5D;" d="M1903.719,1835.812c3.053,0.361,4.733,2.04,4.932,5.14
		C1907.007,1839.239,1905.363,1837.525,1903.719,1835.812z"/>
</g>
</svg>
