<?xml version="1.0" encoding="utf-8"?>
<!-- Generator: Adobe Illustrator 25.3.1, SVG Export Plug-In . SVG Version: 6.00 Build 0)  -->
<svg version="1.1" id="Layer_1" xmlns="http://www.w3.org/2000/svg" xmlns:xlink="http://www.w3.org/1999/xlink" x="0px" y="0px"
	 viewBox="0 0 998.3 2255.6" style="enable-background:new 0 0 998.3 2255.6;" xml:space="preserve">
<style type="text/css">
	.st0{fill:#FDFEFE;}
	.st1{fill:#C2D876;}
	.st2{fill:#B1CE5D;}
	.st3{fill:#84AB53;}
</style>
<g>
	<path class="st0" d="M199.6,1104l-0.1,0.3c0.6,7.2,0.5,14.6,2,21.7c24.7,120.1,49.8,240,74.2,360.2c8,39.5,20.5,78.5,21.8,118.8
		c1.5,48.7,8.9,96.4,17.5,144c17.9,98.4,40.9,195.8,65.8,292.7c15.1,58.5,29,117.2,48,174.6c9.3,6.1,10,15.6,9.4,25.3
		c-0.6,10.4,4.1,14.5,14.3,14c39.3-1.7,78.7,1.2,118-4.2c10.5-1.4,13.8-5.4,13.7-15.1c0-10.9-2-22.7,9.8-29.8
		c2.1-6.1,4.5-12.1,6.2-18.3c29.5-108.1,57.1-216.7,80.9-326.1c14.2-65.3,28.1-130.7,36.6-197.2c3.5-27.4,0-55,5.4-82
		c14.5-73.5,29.5-146.9,44-220.5c10.9-55.3,21.3-110.7,32-166.1c31.6-18.7,53.9-45.6,68.4-79c2.2-5,3.3-10.9,3.3-16.4
		c0.1-19.3-11.7-27.5-30.2-21.8c-6.1,1.9-11.4,6.4-18.3,5.7c6.4-31.2,12.8-62.4,19.2-93.5c24.2-17.6,44.8-38.5,60.6-64.2
		c5.1-8.3,8.9-17.1,10.8-26.5c4.8-23.3-9.2-35.8-31.5-28.4c-3.8,1.2-7.2,3.5-10.7,5.3c-3.5-2.8-4.6-6.7-3.7-10.8
		c6-28.2,12.1-56.3,18.2-84.5c10.6-6,19-14.6,27.4-23.2c18-18.4,35.3-37.3,41.9-63.2c2.9-11.5,2.9-22.6-6.6-31
		c-8.8-7.8-18.1-2.9-26.9,1c-3.7,1.6-7.3,3.3-10.9,5c-1-8.8,0.4-17.3,2.3-26c5-23.3,9.2-46.8,13.7-70.1c28-17.2,48.5-41.3,64.6-69.5
		c5.2-9.2,8.4-19,7.8-29.8c-1.1-18.4-11.2-25-29-19.7c-6.8,2-12.6,7.5-20.4,6.2c0.9-3.9,1.7-7.9,2.9-11.7
		c14.9-50.2,5.4-99-10.3-146.9c-8.2-25.2-19-26.7-37.8-7.5c-15.3,15.6-27.3,33.8-37.9,52.8c-8.3-2.7-12.2-10.2-17.6-16.1
		c-7.4-8.1-15.1-15.6-27-11.3c-11.2,4-15.3,14.2-16.9,24.8c-1.8,12-1.4,24.1,1.4,36.1c5.8,24.5,14.5,47.8,26.8,69.8
		c-3.1,6.5-3.6,13.7-5.4,20.5c-6.4,24-5.7,49.9-18.9,72.2c-7.4-9.6-14.5-21-29-16.1c-14.2,4.8-17.3,18.2-18.6,31.2
		c-0.7,7.1,0.5,14.4,1.3,21.6c3,28.5,16.2,53.6,27.5,79.4c-6.8,30.8-13.7,61.5-20.5,92.3c-2.5-1.8-5.3-3.4-7.6-5.6
		c-20.3-19-35.2-14.7-41.9,12.2c-2,7.9-1.7,15.6-1,23.7c3,30.8,16,58.2,27.7,86.2c-8.1,22.9-10.5,47.2-16,70.7
		c-1.6,6.9-0.6,15-9.6,17.8c-6.1-9.1-13.5-17.8-25.5-14c-11.7,3.7-17.8,13.4-18.6,25.9c-0.3,4.8-0.5,9.7-0.4,14.5
		c0.8,30.6,10.8,58.5,25.7,84.9c-0.6,5.6-0.8,11.3-2,16.8c-27.2,131.1-54,262.4-82.3,393.2c-6.9,32-9.7,65.2-23.4,95.6
		c-14.5-43.7-12-89.5-12.8-134.2c-2.4-126.9-1.1-253.9-1.2-380.9c25.1-26,42.7-56.5,54.3-90.7c4-11.9,5.1-23.9,3.2-35.9
		c-3.2-20.5-19.4-27.8-37.4-17.7c-7,3.9-13.6,8.4-20.4,12.7c-0.1-37.3-0.2-74.6-0.2-111.9c22.7-23.3,39.3-50.6,51.4-80.6
		c5.8-14.3,9-29.2,6.9-44.7c-3-22.8-19.8-30.7-39.4-18.4c-4.8,3-9.2,6.4-13.8,9.6c-7.9-6.1-4.8-14.8-5-22.4c-0.6-29-0.7-57.9-1-86.9
		c27.2-28.6,48.1-61.1,57.4-99.7c3.9-16.2,7.8-35-9.2-46.8c-17.8-12.4-29.7,2.9-42.5,12.1c-5.8-3.6-5.1-9.4-5-14.9
		c0.1-32.6,0.3-65.1,0.5-97.7c28.2-26.6,44.9-60.1,56.4-96.5c2.9-9.3,2.9-19.2,1.5-28.7c-3-21.1-20.3-29.1-38.4-18.1
		c-6.8,4.1-13.4,8.8-20,13.2c8-60.4-13.3-114.1-39.2-166.4C533.7,17.1,528.4-0.2,511.1,0c-16.8,0.2-22.4,16.3-29.1,29
		c-9.8,18.5-18.6,37.5-24.8,57.5c-10-2.1-16.4-9.7-24.1-15.4c-9.4-6.9-19.3-12.8-31-6.6c-12.2,6.4-15.4,18.7-14.7,30.9
		c0.9,17.8,7.3,34.3,14.6,50.6c10.9,24.5,27.8,45,42.7,66.8c-3.1,35.9-0.7,71.8-1.4,107.7c-4.3-2.2-8.8-4-12.8-6.6
		c-9-5.9-18-11.9-28.9-5.1c-11.5,7.2-15.2,19.1-14.1,31.5c1,12,3.9,23.8,7.9,35.3c10.7,30.3,30.5,54.8,48.6,80.5
		c-0.3,28.6-0.4,57.2-1.1,85.8c-0.2,7.5,3.5,16.1-4.4,22.2c-2.6-1.9-5.1-3.9-7.8-5.6c-8.8-5.7-17.3-12.3-28.6-5.5
		c-11,6.6-14.3,17.5-14.2,28.9c0.1,11.1,2.2,22.1,5.8,33c10.6,31.9,30,58.3,50,84.5c-0.3,28.7-0.5,57.5-1.1,86.2
		c-0.2,7.6,2.9,16.2-4.3,22.5c-11.4-7.3-23.1-18.9-37.2-9.4c-15.5,10.3-15.2,27-11.8,43.8c4.1,20.1,12.2,38.6,22.7,55.9
		c10,16.6,21.2,32.4,31.9,48.5c-1.5,71.1-3.8,142.2-4.3,213.2c-0.9,115.7-0.3,231.4-1.1,347.1c-0.2,24.6-1.8,49.5-14.5,71.8
		c-16.4-56.5-26.1-114.6-38.9-171.9c-16.9-75.5-33-151.1-49.5-226.7c17.2-30.6,30.4-62.4,30.3-98.4c0-15.6-2.7-30.4-18.9-35.8
		c-15.7-5.3-22.4,8.8-30.3,18.7c-7.4-5.1-7.8-13.3-9.4-21c-5-24.1-10.2-48.2-15.3-72.3c13.1-20.5,21.5-42.9,26.9-66.6
		c3.3-14.4,4.4-28.7,2.3-43.1c-1.5-10.8-6.9-20.3-17.7-24c-10.9-3.8-17.9,4.2-24.7,11.1c-3.3,3.4-6.7,6.7-10.1,10
		c-6.7-32.1-13.4-64.1-20.2-96.2c2.6-4.1,5.5-7.9,7.6-12.2c14.8-29.9,25.2-60.8,21.9-94.9c-1.1-11.4-5.9-19.7-16.5-24.6
		c-11.5-5.3-17.9,2.7-24.9,9.3c-4,3.8-6.4,9.4-12.3,11.1c-6.9-31.1-13.7-62.1-20.6-93.2c12.6-19.9,21.4-41.5,27.4-64.2
		c4.4-16.6,5.6-33.7,2.3-50.4c-4.4-22.4-22.1-27.6-38.9-12.7c-4.8,4.2-7.8,10.5-14.4,12.6c-1.4-7.1-3.2-14.1-4.3-21.2
		c-7-49.5-35.9-87.2-67.8-122.7c-15-16.7-25.1-14.2-34.1,5.8c-9.7,21.5-13.3,44.6-15.7,67.9c-7.6,0-13.7-4.5-20.4-7.2
		c-9.5-3.8-18.9-11.1-29.3-2.7c-11.3,9.1-9.7,21.5-7,33.5c2.1,9.5,7.1,18,12.5,26.1c14.9,22.5,33.7,41.2,54.9,57.6
		c5.3,31,10.8,62,18.9,92.4c-5,0.9-9.3-0.9-14-2.3c-22.1-6.5-31.7,1.8-30.2,25.2c0.9,13.5,7.3,24.6,14.3,35.5
		c14.5,22.8,34.5,40.5,54.5,58.1c4,31.1,10.6,61.7,19,91.9c-5.1,1-9.2-1.9-13.8-3.1c-22.4-6-31.8,1.9-30.4,25.2
		c0.9,15.1,8.4,27.3,16.4,39.4c14.3,21.6,34.2,38,52.7,55.6c-0.8,8.9,1.7,17.4,3.1,26.1c3.6,22,12.8,43.1,10.9,66
		c-10.8-4.1-21.5-14.4-33.1-2.5c-10.6,10.9-6.7,24.1-4.1,36.7c0.8,3.8,3,7.5,5.1,10.9c14.7,24.4,31.6,46.9,55.9,62.8
		C196.3,1100.5,197.9,1102.2,199.6,1104z"/>
	<path class="st1" d="M438.5,564.2c7.9-6.1,4.3-14.7,4.4-22.2c0.7-28.6,0.8-57.2,1.1-85.8c4-0.3,8.7,0.7,11.8-1.1
		c34.5-20,56.4-50.3,64.8-88.7c4.5-20.6-1.6-24.8-22.9-26.6c-19.6-1.7-40.6-0.9-54.5-19.2c0.6-35.9-1.7-71.8,1.4-107.7
		c11.6,1.5,20-4.5,28-11.7c19.7-17.5,34.2-38.7,44.4-62.8c11.2-26.4,4.9-38.4-22.4-44.7c-12.4-2.9-26.3,1.7-37.5-7.1
		c6.2-20.1,15-39,24.8-57.5c6.7-12.7,12.3-28.8,29.1-29c17.3-0.2,22.6,17.1,28.7,29.4c25.9,52.3,47.2,106,39.2,166.4
		c-4.1,8.8-13.4,8.1-20.5,11c-12.1,4.9-25.5-0.1-38.1,4.6c-16.6,6.1-19.9,11.5-15.4,28.7c4.8,18.2,12.5,35.8,24,49.7
		c13.1,15.8,23.9,38,50.6,36.1c-0.2,32.6-0.4,65.1-0.5,97.7c0,5.5-0.8,11.3,5,14.9c-16.2,16.6-38.9,11.7-58.4,17.3
		c-22,6.3-25.1,11.6-19.2,33.9c8.9,33.5,31.9,56.6,56.2,79c4.6,4.2,9.9,4.8,15.7,4.2c0.3,29,0.4,57.9,1,86.9
		c0.2,7.7-2.9,16.3,5,22.4c-16.2,11.4-34.8,15.8-54.2,17.5c-23.5,2-30.7,12-24.1,34.5c8.4,28.8,27.2,50.8,46.9,72
		c6.7,7.2,15.8,11.2,26.2,10.1c0.1,37.3,0.2,74.6,0.2,111.9c-11.5,11.7-25.8,14.4-41.7,14.9c-32.8,0.9-41.2,14.6-28.1,44.7
		c9.7,22.3,22.6,42.5,40.3,59.6c8.7,8.4,17.5,13.9,29.8,12.4c0.2,127-1.2,254,1.2,380.9c0.8,44.7-1.7,90.5,12.8,134.2
		c0.1,20.9,4.1,42,4,62.4c-0.9,113,5.6,225.9-3.2,338.9c-3.7,47.2-0.2,95-5.3,142.4c-2.2,20.7,1.3,41.6-4.2,62.5
		c-2,7.7-8,21.9,8.8,25.4c-11.8,7.1-9.8,18.9-9.8,29.8c0,9.7-3.3,13.6-13.7,15.1c-39.3,5.4-78.7,2.5-118,4.2
		c-10.3,0.4-14.9-3.6-14.3-14c0.6-9.7-0.1-19.2-9.4-25.3c3.9-0.7,9.1-0.7,8.2-6.3c-5.2-33-5.3-66.5-6.7-99.5
		c-2.3-53-5.8-106.2-6.1-159.3c-0.6-103.5-0.2-206.9-0.2-310.4c0-7.3-1.8-15.5,1-21.6c6.2-13.9,2.7-26.7-0.9-39.9
		c12.7-22.3,14.3-47.2,14.5-71.8c0.7-115.7,0.2-231.4,1.1-347.1c0.5-71.1,2.8-142.2,4.3-213.2c13.4,1.3,23.1-5.7,31.5-14.8
		c14.3-15.3,27.4-31.7,36.8-50.4c15.7-31.2,18.3-52.5-28.1-55.6c-17.1-1.1-33.2-5.1-45.8-18c7.3-6.4,4.2-14.9,4.3-22.5
		c0.6-28.7,0.7-57.5,1.1-86.2c9.2,1.3,16.8-1.1,24.7-6.7c25.5-18.1,40.8-43.2,50.3-71.8c9.3-28,2.2-36.7-27.4-37.9
		C471.8,582.2,453.1,578.8,438.5,564.2z"/>
	<path class="st2" d="M424,1579.2c3.6,13.2,7.1,26,0.9,39.9c-2.7,6.1-0.9,14.3-1,21.6c0,103.5-0.4,206.9,0.2,310.4
		c0.3,53.1,3.8,106.3,6.1,159.3c1.4,33,1.5,66.5,6.7,99.5c0.9,5.6-4.3,5.7-8.2,6.3c-19-57.4-32.9-116.2-48-174.6
		c-25-96.9-48-194.2-65.8-292.7c-8.6-47.6-15.9-95.3-17.5-144c-1.3-40.3-13.8-79.3-21.8-118.8c-24.4-120.1-49.5-240.1-74.2-360.2
		c-1.5-7.1-1.3-14.5-2-21.7c8.2-0.7,15.8-2.4,21.3-9.7c15.3-20.4,25.5-43.1,28-68.4c2.8-27.5-4.3-34.1-31.5-29.4
		c-16.6,2.9-31.5,0.2-46.4-6c1.9-22.9-7.3-44-10.9-66c-1.4-8.7-3.9-17.2-3.1-26.1c35.4-16.4,44.9-48.5,48-82.9
		c2.2-24.7-8.4-32.6-32.6-26.3c-15.3,4-28.3,2-40.4-7.8c-8.4-30.2-15-60.8-19-91.9c33.6-12.3,40.9-43.4,47.9-72.3
		c7.1-29.2,0.1-34.8-30.6-34.6c-8,0-16.1-0.1-24.1,0.1c-7.8,0.2-14.3-1.9-17.6-9.7c-8.1-30.4-13.7-61.4-18.9-92.4
		c4.8-0.1,9.7,0.4,14-2.6c20.4-14.5,39.9-67.5,34.3-92c-2.3-10.1-8.9-12.3-17.8-12.3c-13.7,0-27.5-0.2-41.2-0.4
		c2.4-23.3,6-46.4,15.7-67.9c9-20.1,19.1-22.5,34.1-5.8c31.9,35.5,60.7,73.2,67.8,122.7c1,7.1,2.8,14.2,4.3,21.2
		c-9.2,15.6-26.2,17.3-41,22.6c-12.3,4.4-21.9,13.7-15.1,25.1c18.5,31.1,39.7,60.6,79.7,66.9c6.9,31.1,13.7,62.1,20.6,93.2
		c-8.9,17.7-27.9,17.1-43,22.6c-12.3,4.5-17.3,10.3-13.9,22.8c8,29.6,50.3,64,81,66c6.7,32.1,13.4,64.1,20.2,96.2
		c-3.5,9.6-12.4,12.1-20.6,15.2c-8.2,3.1-16.7,5.8-25,8.5c-12.7,4.2-15.2,13.9-12.4,25.1c6.3,25.5,53.5,62.2,81.3,63.8
		c5.1,24.1,10.3,48.2,15.3,72.3c1.6,7.7,2,15.9,9.4,21c-13.1,12.4-29.3,18.7-46.3,23.7c-12.5,3.7-19,11.8-15.7,25.3
		c6.8,28.1,51.5,64.8,80.8,66.6c16.4,75.6,32.5,151.2,49.5,226.7C398,1464.6,407.6,1522.7,424,1579.2z"/>
	<path class="st2" d="M594,2206.5c-16.8-3.5-10.8-17.8-8.8-25.4c5.4-20.9,1.9-41.8,4.2-62.5c5.1-47.4,1.6-95.1,5.3-142.4
		c8.9-113,2.3-226,3.2-338.9c0.2-20.4-3.8-41.4-4-62.4c13.7-30.4,16.5-63.6,23.4-95.6c28.3-130.9,55.1-262.1,82.3-393.2
		c1.1-5.5,1.3-11.2,2-16.8c5.8,7.5,11.2,11,22,6c25-11.6,44.1-29.2,58-52.2c12.3-20.3,8.1-29.5-14.6-37.5
		c-17.4-6.1-34.9-11.8-46.5-27.6c9-2.8,8-10.9,9.6-17.8c5.5-23.5,7.9-47.8,16-70.7c7.9,0.1,15.6,1.5,23.4-2.7
		c21.5-11.7,39.6-26.5,52.1-48c15.9-27.4,14.4-31.7-15.4-42.3c-14-5-30-7.4-37.2-23.5c6.8-30.8,13.7-61.5,20.5-92.3
		c30.9,0.2,75.3-34.4,81.3-63.9c2.6-12.9,0.6-22.7-15.4-26.9c-17.3-4.5-36.9-6.8-47.1-25.3c13.2-22.2,12.5-48.1,18.9-72.2
		c1.8-6.8,2.3-14,5.4-20.5c31.4-0.2,72-30.8,81-61c4.6-15.5,0.5-21.7-16-28.2c-10.7-4.3-24.7-1.6-31.8-14.1
		c10.6-19.1,22.6-37.2,37.9-52.8c18.8-19.2,29.6-17.7,37.8,7.5c15.6,47.9,25.1,96.6,10.3,146.9c-1.1,3.8-1.9,7.8-2.9,11.7
		c-15.6,9.8-32.8,3.5-49.2,4.3c-13.2,0.6-18.3,5.8-19.2,19c-1.5,22.1,6,41,17,59.1c7.3,12.1,10.9,27.8,28.5,30.3
		c-4.5,23.4-8.7,46.9-13.7,70.1c-1.9,8.7-3.3,17.2-2.3,26c-5.3,7.4-13.3,4.4-20.2,4.7c-12.1,0.4-24.3,0.1-36.4,0
		c-8.1,0-13.7,3-16,11.6c-7.6,28.7,19,82.2,47.6,95.2c-6.1,28.2-12.2,56.3-18.2,84.5c-0.9,4.1,0.2,8,3.7,10.8
		c-17,10.9-35.6,7.3-53.8,5.8c-16.4-1.4-22.2,2.1-23.3,17.7c-1.4,19.9,5.6,38,15.3,54.6c8.1,14,12.7,32.1,32.6,35.7
		c-6.4,31.2-12.8,62.4-19.2,93.5c-11.5,10.7-23.8,8.7-38,5.1c-25.5-6.4-37.7,7.3-31.9,33.5c1,4.7,0.7,9.8,2.4,14.1
		c9.1,23.8,16.7,48.9,44.3,58.8c-10.6,55.4-21.1,110.8-32,166.1c-14.5,73.5-29.5,146.9-44,220.5c-5.3,27-1.8,54.6-5.4,82
		c-8.5,66.5-22.4,131.9-36.6,197.2c-23.8,109.5-51.4,218.1-80.9,326.1C598.5,2194.4,596.1,2200.4,594,2206.5z"/>
	<path class="st3" d="M579.3,816.2c-10.4,1.1-19.5-2.9-26.2-10.1c-19.8-21.2-38.6-43.3-46.9-72c-6.6-22.6,0.6-32.5,24.1-34.5
		c19.3-1.6,37.9-6,54.2-17.5c4.6-3.2,9.1-6.7,13.8-9.6c19.6-12.2,36.5-4.4,39.4,18.4c2,15.5-1.2,30.4-6.9,44.7
		C618.6,765.6,602,792.9,579.3,816.2z"/>
	<path class="st3" d="M457.2,86.6c11.3,8.8,25.1,4.2,37.5,7.1c27.3,6.3,33.6,18.3,22.4,44.7c-10.3,24.1-24.7,45.3-44.4,62.8
		c-8.1,7.1-16.5,13.1-28,11.7c-14.8-21.9-31.8-42.4-42.7-66.8c-7.2-16.3-13.6-32.8-14.6-50.6c-0.6-12.2,2.6-24.5,14.7-30.9
		c11.7-6.2,21.6-0.3,31,6.6C440.8,76.8,447.2,84.5,457.2,86.6z"/>
	<path class="st3" d="M438.5,564.2c14.6,14.6,33.3,18.1,52.9,18.9c29.7,1.3,36.7,9.9,27.4,37.9c-9.5,28.6-24.8,53.7-50.3,71.8
		c-7.9,5.6-15.5,8-24.7,6.7c-20-26.2-39.4-52.7-50-84.5c-3.6-10.9-5.8-21.9-5.8-33c-0.1-11.4,3.2-22.3,14.2-28.9
		c11.3-6.8,19.8-0.1,28.6,5.5C433.3,560.3,435.9,562.3,438.5,564.2z"/>
	<path class="st3" d="M579.6,325.8c-26.6,1.9-37.4-20.3-50.6-36.1c-11.5-13.8-19.2-31.5-24-49.7c-4.5-17.2-1.2-22.6,15.4-28.7
		c12.5-4.6,26,0.4,38.1-4.6c7.1-2.9,16.5-2.2,20.5-11c6.7-4.4,13.2-9.1,20-13.2c18.1-11,35.4-3,38.4,18.1c1.4,9.5,1.4,19.4-1.5,28.7
		C624.5,265.7,607.8,299.2,579.6,325.8z"/>
	<path class="st3" d="M443.3,320.6c14,18.3,34.9,17.5,54.5,19.2c21.3,1.8,27.4,5.9,22.9,26.6c-8.4,38.5-30.3,68.7-64.8,88.7
		c-3.1,1.8-7.8,0.8-11.8,1.1c-18.1-25.7-37.9-50.2-48.6-80.5c-4.1-11.6-7-23.4-7.9-35.3c-1-12.5,2.6-24.3,14.1-31.5
		c10.9-6.8,19.9-0.8,28.9,5.1C434.5,316.6,439,318.4,443.3,320.6z"/>
	<path class="st3" d="M438.4,808.2c12.6,12.9,28.7,16.9,45.8,18c46.4,3.1,43.8,24.4,28.1,55.6c-9.4,18.7-22.6,35.1-36.8,50.4
		c-8.5,9.1-18.1,16.1-31.5,14.8c-10.7-16.1-21.9-32-31.9-48.5c-10.5-17.3-18.6-35.8-22.7-55.9c-3.4-16.8-3.7-33.5,11.8-43.8
		C415.3,789.4,426.9,800.9,438.4,808.2z"/>
	<path class="st3" d="M579.9,1059.8c-12.3,1.4-21.1-4-29.8-12.4c-17.8-17.1-30.6-37.3-40.3-59.6c-13.1-30.1-4.7-43.8,28.1-44.7
		c15.8-0.4,30.2-3.1,41.7-14.9c6.8-4.2,13.4-8.7,20.4-12.7c18-10.1,34.2-2.8,37.4,17.7c1.9,12,0.8,24-3.2,35.9
		C622.7,1003.3,605,1033.7,579.9,1059.8z"/>
	<path class="st3" d="M578.5,572.8c-5.7,0.5-11.1,0-15.7-4.2c-24.3-22.4-47.3-45.5-56.2-79c-5.9-22.3-2.8-27.6,19.2-33.9
		c19.5-5.6,42.2-0.7,58.4-17.3c12.7-9.2,24.7-24.5,42.5-12.1c17,11.8,13.1,30.6,9.2,46.8C626.5,511.6,605.6,544.1,578.5,572.8z"/>
	<path class="st3" d="M335.7,1180.6c-29.3-1.7-74.1-38.5-80.8-66.6c-3.3-13.5,3.2-21.6,15.7-25.3c17-5,33.1-11.3,46.3-23.7
		c8-9.9,14.6-24.1,30.3-18.7c16.2,5.5,18.9,20.3,18.9,35.8C366,1118.2,352.8,1150,335.7,1180.6z"/>
	<path class="st3" d="M768.9,752.8c7.2,16,23.2,18.5,37.2,23.5c29.9,10.6,31.3,14.9,15.4,42.3c-12.5,21.6-30.6,36.3-52.1,48
		c-7.8,4.2-15.5,2.8-23.4,2.7c-11.7-27.9-24.7-55.4-27.7-86.2c-0.8-8.1-1-15.8,1-23.7c6.7-26.9,21.6-31.2,41.9-12.2
		C763.6,749.4,766.4,751,768.9,752.8z"/>
	<path class="st3" d="M292.1,971.8c-27.8-1.6-75-38.3-81.3-63.8c-2.8-11.2-0.3-20.9,12.4-25.1c8.4-2.7,16.8-5.4,25-8.5
		c8.2-3.1,17.1-5.6,20.6-15.2c3.4-3.3,6.8-6.7,10.1-10c6.8-6.9,13.8-14.8,24.7-11.1c10.9,3.7,16.2,13.2,17.7,24
		c2,14.4,0.9,28.7-2.3,43.1C313.6,928.9,305.2,951.2,292.1,971.8z"/>
	<path class="st3" d="M203.9,558.4c-39.9-6.3-61.2-35.9-79.7-66.9c-6.8-11.4,2.8-20.7,15.1-25.1c14.8-5.3,31.8-7,41-22.6
		c6.6-2.2,9.6-8.4,14.4-12.6c16.8-14.9,34.5-9.7,38.9,12.7c3.3,16.6,2.1,33.7-2.3,50.4C225.4,517,216.6,538.5,203.9,558.4z"/>
	<path class="st3" d="M131.8,781.7c12.1,9.8,25.1,11.7,40.4,7.8c24.2-6.3,34.9,1.6,32.6,26.3c-3.1,34.4-12.6,66.5-48,82.9
		c-18.6-17.6-38.4-34-52.7-55.6c-8-12.1-15.5-24.3-16.4-39.4c-1.4-23.3,8-31.2,30.4-25.2C122.7,779.8,126.8,782.8,131.8,781.7z"/>
	<path class="st3" d="M799,1196.2c-27.6-9.9-35.2-35-44.3-58.8c-1.7-4.4-1.4-9.5-2.4-14.1c-5.8-26.3,6.4-40,31.9-33.5
		c14.2,3.6,26.5,5.6,38-5.1c6.9,0.7,12.2-3.8,18.3-5.7c18.5-5.8,30.2,2.4,30.2,21.8c0,5.5-1.1,11.4-3.3,16.4
		C852.9,1150.6,830.6,1177.5,799,1196.2z"/>
	<path class="st3" d="M58.6,373.6c13.7,0.1,27.4,0.4,41.2,0.4c8.9,0,15.5,2.2,17.8,12.3c5.6,24.5-13.9,77.5-34.3,92
		c-4.3,3.1-9.2,2.6-14,2.6c-21.3-16.4-40.1-35.1-54.9-57.6C9,415.2,4.1,406.7,1.9,397.2c-2.7-12-4.3-24.4,7-33.5
		c10.4-8.4,19.9-1.1,29.3,2.7C45,369.1,51,373.6,58.6,373.6z"/>
	<path class="st3" d="M841.4,991.1c-19.9-3.5-24.5-21.7-32.6-35.7c-9.7-16.6-16.7-34.7-15.3-54.6c1.1-15.6,6.9-19.1,23.3-17.7
		c18.2,1.5,36.9,5.1,53.8-5.8c3.6-1.8,7-4,10.7-5.3c22.3-7.4,36.3,5,31.5,28.4c-1.9,9.4-5.7,18.2-10.8,26.5
		C886.2,952.6,865.5,973.5,841.4,991.1z"/>
	<path class="st3" d="M170.8,990.9c14.9,6.1,29.8,8.8,46.4,6c27.2-4.7,34.3,1.9,31.5,29.4c-2.5,25.3-12.8,48-28,68.4
		c-5.4,7.3-13.1,8.9-21.3,9.7l0.1-0.3c-0.2-3.1-1.9-4.8-4.9-5.1c-24.3-15.8-41.2-38.3-55.9-62.8c-2.1-3.4-4.3-7.1-5.1-10.9
		c-2.6-12.6-6.5-25.8,4.1-36.7C149.3,976.5,160,986.8,170.8,990.9z"/>
	<path class="st3" d="M808.2,544.5c10.2,18.5,29.8,20.7,47.1,25.3c16,4.2,18,13.9,15.4,26.9c-6,29.5-50.4,64.1-81.3,63.9
		c-11.3-25.7-24.4-50.8-27.5-79.4c-0.8-7.2-2-14.5-1.3-21.6c1.3-13.1,4.4-26.4,18.6-31.2C793.7,523.5,800.8,534.9,808.2,544.5z"/>
	<path class="st3" d="M248.6,763c-30.7-1.9-73-36.4-81-66c-3.4-12.6,1.5-18.3,13.9-22.8c15.1-5.5,34.1-4.9,43-22.6
		c5.9-1.7,8.3-7.3,12.3-11.1c7-6.6,13.3-14.6,24.9-9.3c10.6,4.9,15.3,13.2,16.5,24.6c3.4,34.2-7.1,65-21.9,94.9
		C254.1,755,251.2,758.9,248.6,763z"/>
	<path class="st3" d="M720.6,957.8c11.6,15.8,29.2,21.5,46.5,27.6c22.7,8,26.9,17.3,14.6,37.5c-14,23-33,40.6-58,52.2
		c-10.8,5-16.2,1.5-22-6c-14.8-26.4-24.9-54.3-25.7-84.9c-0.1-4.8,0.1-9.7,0.4-14.5c0.8-12.5,6.9-22.2,18.6-25.9
		C707.1,940.1,714.5,948.7,720.6,957.8z"/>
	<path class="st3" d="M885,782.1c-28.6-13-55.2-66.5-47.6-95.2c2.3-8.6,7.9-11.6,16-11.6c12.1,0,24.3,0.4,36.4,0
		c6.9-0.3,14.8,2.7,20.2-4.7c3.6-1.7,7.2-3.4,10.9-5c8.9-3.9,18.1-8.7,26.9-1c9.5,8.4,9.5,19.5,6.6,31c-6.6,26-24,44.8-41.9,63.2
		C904,767.5,895.6,776.1,885,782.1z"/>
	<path class="st3" d="M865.7,348.5c7.1,12.5,21,9.9,31.8,14.1c16.5,6.5,20.6,12.7,16,28.2c-9,30.2-49.6,60.8-81,61
		c-12.3-22-21-45.3-26.8-69.8c-2.8-12-3.2-24.1-1.4-36.1c1.6-10.6,5.7-20.8,16.9-24.8c12-4.3,19.7,3.2,27,11.3
		C853.5,338.2,857.4,345.8,865.7,348.5z"/>
	<path class="st3" d="M925.9,574.5c-17.6-2.5-21.2-18.2-28.5-30.3c-11-18.2-18.5-37.1-17-59.1c0.9-13.2,6-18.4,19.2-19
		c16.4-0.8,33.6,5.5,49.2-4.3c7.8,1.2,13.6-4.2,20.4-6.2c17.8-5.3,27.8,1.2,29,19.7c0.7,10.8-2.6,20.6-7.8,29.8
		C974.4,533.2,953.9,557.3,925.9,574.5z"/>
	<path class="st3" d="M88.3,573.3c3.4,7.8,9.8,9.9,17.6,9.7c8-0.2,16.1,0,24.1-0.1c30.8-0.2,37.7,5.4,30.6,34.6
		c-7,28.9-14.3,59.9-47.9,72.3c-20-17.6-40-35.4-54.5-58.1c-7-10.9-13.4-22.1-14.3-35.5c-1.5-23.3,8.2-31.6,30.2-25.2
		C79,572.4,83.3,574.3,88.3,573.3z"/>
	<path class="st2" d="M194.6,1098.8c3.1,0.4,4.7,2,4.9,5.1C197.9,1102.2,196.3,1100.5,194.6,1098.8z"/>
</g>
</svg>
