<svg id="Layer_1" data-name="Layer 1" xmlns="http://www.w3.org/2000/svg" viewBox="0 0 2320.54 2243.52"><defs><style>.cls-1{fill:#b0b147;}.cls-2{fill:#fdf3a8;}.cls-3{fill:#4c6529;}.cls-4{fill:#7e5d53;}.cls-5{fill:#d3c9c6;}</style></defs><path class="cls-1" d="M8283.67,7676.81c-.09,2.7-.19,5.39-.28,8.09a101.33,101.33,0,0,0-5.48,37.67l-.33,3.71a295.65,295.65,0,0,0-11.48,55.86c-.12,1-.23,2.1-.34,3.14-8,14.1-9.4,30.3-14,45.47-21,69.45-51.76,134.26-89.32,196.25-39.9,65.83-86.62,126-141.91,179.55-63,60.94-134.87,108.78-215,144.17-48.63,21.48-98.36,40.47-149.24,55.69a731.68,731.68,0,0,1-172.95,29.89c-79.74,4.09-157.91-4.24-235.42-22.62-120.41-28.55-231.21-77.56-329.43-153.32A866,866,0,0,1,6758.4,8099c-1.58-2.07-2.16-6-6.37-4.51l-1.92-2.2c.15-4.55-3.14-7.42-5.4-10.72-8.4-12.28-17.42-24.17-25.39-36.72-46.32-72.94-82.63-150.5-106.62-233.62-19.49-67.54-31.37-136.37-33-206.74-1-42.36,2-84.56,4.6-126.86,4.61-75.77,16.79-150.61,24.26-226,6.86-69.27,16.68-138.27,26-207.28,10.63-78.72,10.69-157.82,10-237,2.95-6.41,1.66-13.21,1.65-19.84q-.06-82.34-.38-164.67c0-1.2.07-2.4.1-3.6,2.28-16.31,3.68-32.81,7-48.92,20-97.31,59.9-185,127.85-258.65,47.11-51.09,104.66-84.84,171.34-103.8,68.3-19.43,136.17-18,204.84-.59,85,21.52,160.46,60.92,224.7,119.76,33.9,31.06,62.82,67.56,94.15,101.44,2.2,2.38,3.6,7.4,8.8,5l6.8,1.3c-3.25,2.1-6.1,3.41-1.8,8.13,43.68,47.91,86.35,96.76,130.74,144,55.69,59.3,120,109.39,179.5,164.65,81.54,75.74,166.09,148.29,243.95,227.95A831.53,831.53,0,0,1,8128.41,7081c36.2,51.25,66.72,105.62,90.56,163.58,12.63,30.73,23.22,62.3,34.73,93.48.36,1.21.72,2.44,1.09,3.66-1,3.8-.26,7.37.71,11.13,3.48,13.47,6,27.22,10,40.52,5.25,17.48,5,36.15,12.05,53.17l.81,7.34c-1.4,11.14,1.25,21.62,5.16,31.9l.26,6.68c.47,30.5,1.9,61,5.18,91.29.15.57.31,1.14.46,1.7q-.24,12.19-.49,24.39C8284.63,7632,8284.27,7654.39,8283.67,7676.81ZM6767.82,6799.55h-.29c0,48.3.7,96.6-.24,144.88-.64,33-2,66-5.79,98.77-8.15,70.95-18.5,141.65-27.08,212.55q-11.72,96.83-21.51,193.88c-7.13,70-12.58,140-3.55,210.53,11.3,88.18,36.92,171.73,77.55,250.5a758.6,758.6,0,0,0,166.43,216.28c61.26,55.42,129.91,99.07,206.84,129.36,73.45,28.91,149.21,48,228.11,55.18,60.51,5.52,120,1.13,179.4-10.39,47.63-9.23,92.3-27.35,137.72-43.45,90.16-32,169.75-80.72,237.51-148.15,39.66-39.47,73.34-83.82,103.85-130.84,84.66-130.52,122.24-273.11,114.8-428.35a761.24,761.24,0,0,0-46.28-228.9,714.59,714.59,0,0,0-157.85-251.27c-67.89-70.36-142.45-133.61-213.55-200.54-30.84-29-63.31-56.3-94.61-84.85-26.33-24-54.85-45.71-78.93-72.13-35.23-38.64-69.91-77.79-104.94-116.62-34.65-38.4-69.79-76.36-104.07-115.08-51.36-58-108.77-107.71-181.83-136.85-57.18-22.81-115.67-35.32-177.17-21.87-70,15.33-123.5,54.55-163,114-46.48,70-71.19,146.6-71.52,230.78C6767.67,6711.16,6767.82,6755.36,6767.82,6799.55Z" transform="translate(-5968.84 -6193.8)"/><path class="cls-2" d="M6767.82,6799.55c0-44.19-.15-88.39,0-132.59.33-84.18,25-160.77,71.52-230.78,39.47-59.44,92.93-98.66,163-114,61.5-13.45,120-.94,177.17,21.87,73.06,29.14,130.47,78.83,181.83,136.85,34.28,38.72,69.42,76.68,104.07,115.08,35,38.83,69.71,78,104.94,116.62,24.08,26.42,52.6,48.11,78.93,72.13,31.3,28.55,63.77,55.83,94.61,84.85,71.1,66.93,145.66,130.18,213.55,200.54a714.59,714.59,0,0,1,157.85,251.27,761.24,761.24,0,0,1,46.28,228.9c7.44,155.24-30.14,297.83-114.8,428.35-30.51,47-64.19,91.37-103.85,130.84-67.76,67.43-147.35,116.18-237.51,148.15-45.42,16.1-90.09,34.22-137.72,43.45-59.38,11.52-118.89,15.91-179.4,10.39-78.9-7.19-154.66-26.27-228.11-55.18-76.93-30.29-145.58-73.94-206.84-129.36a758.6,758.6,0,0,1-166.43-216.28c-40.63-78.77-66.25-162.32-77.55-250.5-9-70.51-3.58-140.49,3.55-210.53q9.89-97,21.51-193.88c8.58-70.9,18.93-141.6,27.08-212.55,3.76-32.72,5.15-65.81,5.79-98.77.94-48.28.24-96.58.24-144.88Zm684.37,1173.08c12.25-.85,24.52-1.38,36.73-2.61,83.24-8.43,155.67-41.26,216-98.91,59.63-56.95,96.14-126.63,108.66-208.45,13.3-86.93-2-168.31-48.79-243-37.25-59.52-86.65-108-142.33-150.12-78.65-59.5-163-107.6-261.61-125.75-56.59-10.42-104.43,3.2-142.11,49-31.6,38.44-54.82,81.36-73.4,127.09a765.2,765.2,0,0,0-53.84,220.62c-5.26,58.53-5.2,117.18,12.16,174C7150.48,7867.88,7291.85,7971.89,7452.19,7972.63Z" transform="translate(-5968.84 -6193.8)"/><path class="cls-3" d="M6244.06,7216.63l3.39-2.7c4.55-.79,7.27-3.75,9.1-7.74l1.46-.92c3.94-.25,5.84-2.91,7.28-6.13l3.21-2.66c4.58-.83,7.27-3.86,9.13-7.84l3.08-2.72c4.63-.77,7.34-3.81,9.23-7.82l1.41-1.25c2.24.46,3-.64,2.84-2.7l.44,0,.15-.42c5.43-1.2,8.42-5.21,11.1-9.59l1.28-1.22c5.26-1.23,8.46-4.87,10.9-9.37l3.1-2.75c5.36-1.25,8.33-5.15,10.75-9.66l8.6-7.85c10.85-6.43,19.15-15.53,26.66-25.47l10.08-10.23,14.5-14.37c6.26-3.84,11.55-8.57,14.38-15.58l1.62-1.71a3.5,3.5,0,0,0,3.32-3.78c.57-.64,1.13-1.29,1.7-1.94,3.27-1.29,5.92-3.14,6.21-7l6.08-7a20.33,20.33,0,0,0,10.83-12,1,1,0,0,0,.77-.87c4.19-2.31,7.84-5.1,8.94-10.14l.28-.31a57,57,0,0,0,18-20.38c.55-.61,1.09-1.23,1.64-1.85,5.16-2.91,9.4-6.65,11.31-12.5l2.79-3.21c4.65-2.4,8.3-5.72,9.9-10.89l.32-.31c3-.34,4.67-1.83,4.61-5,.28-.56.56-1.12.83-1.68l2.62-2.39a30.73,30.73,0,0,0,13.56-14.78l-.05.06c2.69-.95,4.64-2.54,4.86-5.63l.08-.08c2.94-.58,4.63-2.28,4.78-5.35l.33-.33c2.15,0,3.13-.94,2.75-3.12l4.6-5a3.62,3.62,0,0,0,3.42-3.61l0,0c4.5-2.4,8.35-5.39,9.65-10.69l8.07-8.37c6.66-4.65,12.45-10.09,16-17.6l3.24-3.67c4.53-2.48,8.37-5.59,9.89-10.83l.34-.4c2.09,0,3.25-.87,2.92-3.13l2.76-3c9.22-7.06,17.54-15,23.5-25.07l2.82-3.13c7-4.63,13-10.1,16.6-17.87l2.71-3.2,13.82-12.48c.65,79.16.59,158.26-10,237-9.32,69-19.14,138-26,207.28-7.47,75.4-19.65,150.24-24.26,226-2.57,42.3-5.61,84.5-4.6,126.86,1.67,70.37,13.55,139.2,33,206.74,24,83.12,60.3,160.68,106.62,233.62,8,12.55,17,24.44,25.39,36.72,2.26,3.3,5.55,6.17,5.4,10.72-95-7.42-190.15-14.39-285.15-22.46-43.95-3.73-88.09-7-131.28-16.75-125.3-28.3-235.62-81.54-308.24-193-47.52-73-64.59-153.9-53.19-240.53.48-3.7.08-7.51.1-11.26l.15-2.53c.89-2.41,2.13-4.75,2.61-7.24,11-56.83,30.36-110.59,59.09-160.87,10.79-18.9,22.34-37.36,33.55-56a1.52,1.52,0,0,0,.84-1.39,128.36,128.36,0,0,0,21.95-28.52,1.49,1.49,0,0,0,.9-1.33l57.92-54.63,3.1-2.82c2.21.35,3.14-.71,3.08-2.83l.47-.34c4-.3,6-3,7.43-6.29l3.22-2.59c3.86-.4,5.95-2.86,7.29-6.21l3.25-2.63c2.17.29,3.06-.95,3.42-2.84l.13-.11a3.46,3.46,0,0,0,3.71-3.22l3.29-2.54c3.93-.31,5.91-2.92,7.3-6.21l1.41-1.22c4.05.08,5.87-2.65,7.32-5.83v0a10.58,10.58,0,0,0,8.66-7.13l3.3-2.63c4-.23,6-2.71,7.24-6.14l5-4.42c3.21.28,4.75-1.52,5.46-4.37l3.42-2.74C6240.9,7222.57,6242.71,7219.87,6244.06,7216.63Z" transform="translate(-5968.84 -6193.8)"/><path class="cls-3" d="M8242.79,7092.8l.45,2.66c-1.78,4.63.39,8.42,2.6,12.2.2,1.12.41,2.24.62,3.36.29,8.45,1,16.84,4.88,24.57l.45,3.62a171,171,0,0,0,5.37,41.09q.18,3.26.35,6.52c-1.51,11.88.26,23.52,2.55,35.13q.29,7,.56,14a126.42,126.42,0,0,0-.13,33.6q-.18,7.84-.37,15.67c-2.67,11-4,22.05-2.68,33.34l-.15,8.51-.23-.15c-3.4,3-1.85,7.56-3.35,11.16-11.52-31.19-22.11-62.76-34.74-93.49-23.84-58-54.36-112.33-90.56-163.58a831.53,831.53,0,0,0-84.61-101.43c-77.86-79.66-162.41-152.21-243.95-227.95-59.49-55.26-123.81-105.35-179.5-164.65-44.39-47.25-87.06-96.1-130.74-144-4.3-4.72-1.45-6,1.8-8.13l7.33.95c1,3.15,2.75,2.86,4.87,1.15l10.87.82c2.43,3.55,5.67,2.46,8.88,1.54l7.14.78c2.05,1.06,4.06,2.65,6.35.46l4,.59c1,2.76,2.63,3.11,4.8,1.18l9.08,1.15c3.66,2.36,7.45,4.09,11.92,2.36l5.79.7c1.68,3.25,4.32,2.53,7,1.71l9,1.52c.69,2.93,2.33,3.14,4.57,1.57l5.47-.08.16.59c2,3.63,5.42,2.4,8.46,2.5l4-.16,1.9.84c.16,2.16.92,3.11,3,1.45l5.37.15,2.79.54c11.92,6.58,25.51,7.91,38.25,11.93q193.34,60.89,342.85,197.57c85.88,78.52,147.92,173.46,188.34,282.59,10,27,21.07,53.69,31.65,80.52l.54,2.51c1.63,8.45,3,17,7.9,24.39.23,1.16.47,2.32.7,3.48C8235.65,7071.4,8237.91,7082.44,8242.79,7092.8Z" transform="translate(-5968.84 -6193.8)"/><path class="cls-4" d="M7452.19,7972.63c-160.34-.74-301.71-104.75-348.5-258.07-17.36-56.86-17.42-115.51-12.16-174a765.2,765.2,0,0,1,53.84-220.62c18.58-45.73,41.8-88.65,73.4-127.09,37.68-45.83,85.52-59.45,142.11-49,98.63,18.15,183,66.25,261.61,125.75,55.68,42.12,105.08,90.6,142.33,150.12,46.75,74.7,62.09,156.08,48.79,243-12.52,81.82-49,151.5-108.66,208.45-60.36,57.65-132.79,90.48-216,98.91C7476.71,7971.25,7464.44,7971.78,7452.19,7972.63Zm288.64-379.3a244.76,244.76,0,0,0-14.14-76.63c-22.35-62.11-62.66-111.73-110.22-156-20.35-18.94-42.61-35.71-69.06-45.67-13.45-5.07-27.62-8.46-39.87,2.06-12.94,11.1-13.52,26.25-8.62,41.16a281.12,281.12,0,0,0,16.89,41.26c31.73,61.42,55.77,124.84,62.87,194.56,3.4,33.38,17.08,64.43,45.52,86.11,26.86,20.47,79.21,24.28,101-17.76C7736.36,7641,7740.24,7617.82,7740.83,7593.33Z" transform="translate(-5968.84 -6193.8)"/><path class="cls-5" d="M7740.83,7593.33c-.59,24.49-4.47,47.62-15.62,69.13-21.8,42-74.15,38.23-101,17.76-28.44-21.68-42.12-52.73-45.52-86.11-7.1-69.72-31.14-133.14-62.87-194.56a281.12,281.12,0,0,1-16.89-41.26c-4.9-14.91-4.32-30.06,8.62-41.16,12.25-10.52,26.42-7.13,39.87-2.06,26.45,10,48.71,26.73,69.06,45.67,47.56,44.23,87.87,93.85,110.22,156A244.76,244.76,0,0,1,7740.83,7593.33Z" transform="translate(-5968.84 -6193.8)"/></svg>