<?xml version="1.0" encoding="utf-8"?>
<!-- Generator: Adobe Illustrator 25.3.1, SVG Export Plug-In . SVG Version: 6.00 Build 0)  -->
<svg version="1.1" id="Layer_1" xmlns="http://www.w3.org/2000/svg" xmlns:xlink="http://www.w3.org/1999/xlink" x="0px" y="0px"
	 viewBox="0 0 2320.6 2243.6" style="enable-background:new 0 0 2320.6 2243.6;" xml:space="preserve">
<style type="text/css">
	.st0{fill:#B0B147;}
	.st1{fill:#FDF3A8;}
	.st2{fill:#4C6529;}
	.st3{fill:#7E5D53;}
	.st4{fill:#D3C9C6;}
</style>
<path class="st0" d="M2314.8,1483.1c-0.1,2.7-0.2,5.4-0.3,8.1c-4.2,12.1-6,24.9-5.5,37.7l-0.3,3.7c-5.6,18.2-9.5,36.9-11.5,55.9
	c-0.1,1-0.2,2.1-0.3,3.1c-8,14.1-9.4,30.3-14,45.5c-21,69.5-51.8,134.3-89.3,196.2c-39.9,65.8-86.6,126-141.9,179.5
	c-63,60.9-134.9,108.8-215,144.2c-48.6,21.5-98.4,40.5-149.2,55.7c-56.2,16.9-114.3,26.9-173,29.9c-79.7,4.1-157.9-4.2-235.4-22.6
	c-120.4-28.5-231.2-77.6-329.4-153.3c-60.2-46.5-114-100.8-160.1-161.4c-1.6-2.1-2.2-6-6.4-4.5l-1.9-2.2c0.1-4.5-3.1-7.4-5.4-10.7
	c-8.4-12.3-17.4-24.2-25.4-36.7c-46.3-72.9-82.6-150.5-106.6-233.6c-19.5-67.5-31.4-136.4-33-206.7c-1-42.4,2-84.6,4.6-126.9
	c4.6-75.8,16.8-150.6,24.3-226c6.9-69.3,16.7-138.3,26-207.3c10.6-78.7,10.7-157.8,10-237c3-6.4,1.7-13.2,1.6-19.8
	c0-54.9-0.2-109.8-0.4-164.7c0-1.2,0.1-2.4,0.1-3.6c2.3-16.3,3.7-32.8,7-48.9c20-97.3,59.9-185,127.9-258.6
	c47.1-51.1,104.7-84.8,171.3-103.8c68.3-19.4,136.2-18,204.8-0.6c85,21.5,160.5,60.9,224.7,119.8c33.9,31.1,62.8,67.6,94.1,101.4
	c2.2,2.4,3.6,7.4,8.8,5l6.8,1.3c-3.2,2.1-6.1,3.4-1.8,8.1c43.7,47.9,86.4,96.8,130.7,144c55.7,59.3,120,109.4,179.5,164.6
	c81.5,75.7,166.1,148.3,244,228c30.9,31.5,59.1,65.5,84.6,101.5c36.2,51.2,66.7,105.6,90.6,163.6c12.6,30.7,23.2,62.3,34.7,93.5
	c0.4,1.2,0.7,2.4,1.1,3.7c-1,3.8-0.3,7.4,0.7,11.1c3.5,13.5,6,27.2,10,40.5c5.2,17.5,5,36.1,12,53.2l0.8,7.3
	c-1.4,11.1,1.2,21.6,5.2,31.9l0.3,6.7c0.5,30.5,1.9,61,5.2,91.3c0.2,0.6,0.3,1.1,0.5,1.7c-0.2,8.1-0.3,16.3-0.5,24.4
	C2315.8,1438.2,2315.4,1460.6,2314.8,1483.1z M799,605.8h-0.3c0,48.3,0.7,96.6-0.2,144.9c-0.6,33-2,66-5.8,98.8
	c-8.1,71-18.5,141.6-27.1,212.5c-7.8,64.6-15,129.2-21.5,193.9c-7.1,70-12.6,140-3.5,210.5c11.3,88.2,36.9,171.7,77.5,250.5
	c41.9,81.6,98.3,154.8,166.4,216.3c61.3,55.4,129.9,99.1,206.8,129.4c73.5,28.9,149.2,48,228.1,55.2c60.5,5.5,120,1.1,179.4-10.4
	c47.6-9.2,92.3-27.3,137.7-43.5c90.2-32,169.8-80.7,237.5-148.1c39.7-39.5,73.3-83.8,103.9-130.8
	c84.7-130.5,122.2-273.1,114.8-428.4c-3.6-78.2-19.2-155.4-46.3-228.9c-34.5-93.9-88.2-179.5-157.9-251.3
	c-67.9-70.4-142.5-133.6-213.5-200.5c-30.8-29-63.3-56.3-94.6-84.9c-26.3-24-54.9-45.7-78.9-72.1c-35.2-38.6-69.9-77.8-104.9-116.6
	c-34.6-38.4-69.8-76.4-104.1-115.1c-51.4-58-108.8-107.7-181.8-136.9c-57.2-22.8-115.7-35.3-177.2-21.9c-70,15.3-123.5,54.5-163,114
	C824,312.4,799.3,389,799,473.2C798.8,517.4,799,561.6,799,605.8z"/>
<path class="st1" d="M799,605.8c0-44.2-0.1-88.4,0-132.6c0.3-84.2,25-160.8,71.5-230.8c39.5-59.4,92.9-98.7,163-114
	c61.5-13.5,120-0.9,177.2,21.9c73.1,29.1,130.5,78.8,181.8,136.9c34.3,38.7,69.4,76.7,104.1,115.1c35,38.8,69.7,78,104.9,116.6
	c24.1,26.4,52.6,48.1,78.9,72.1c31.3,28.5,63.8,55.8,94.6,84.9c71.1,66.9,145.7,130.2,213.5,200.5
	c69.6,71.8,123.4,157.4,157.9,251.3c27.1,73.5,42.7,150.7,46.3,228.9c7.4,155.2-30.1,297.8-114.8,428.4
	c-30.5,47-64.2,91.4-103.9,130.8c-67.8,67.4-147.4,116.2-237.5,148.2c-45.4,16.1-90.1,34.2-137.7,43.5
	c-59.4,11.5-118.9,15.9-179.4,10.4c-78.9-7.2-154.7-26.3-228.1-55.2c-76.9-30.3-145.6-73.9-206.8-129.4
	c-68.1-61.4-124.5-134.7-166.4-216.3c-40.6-78.8-66.2-162.3-77.5-250.5c-9-70.5-3.6-140.5,3.5-210.5c6.6-64.7,13.8-129.3,21.5-193.9
	c8.6-70.9,18.9-141.6,27.1-212.5c3.8-32.7,5.1-65.8,5.8-98.8c0.9-48.3,0.2-96.6,0.2-144.9L799,605.8z M1483.4,1778.9
	c12.2-0.9,24.5-1.4,36.7-2.6c83.2-8.4,155.7-41.3,216-98.9c59.6-57,96.1-126.6,108.7-208.5c13.3-86.9-2-168.3-48.8-243
	c-37.2-59.5-86.6-108-142.3-150.1c-78.6-59.5-163-107.6-261.6-125.8c-56.6-10.4-104.4,3.2-142.1,49c-31.6,38.4-54.8,81.4-73.4,127.1
	c-28.8,70.5-47,144.8-53.8,220.6c-5.3,58.5-5.2,117.2,12.2,174C1181.6,1674.1,1323,1778.1,1483.4,1778.9z"/>
<path class="st2" d="M275.2,1022.9l3.4-2.7c4.5-0.8,7.3-3.8,9.1-7.7l1.5-0.9c3.9-0.2,5.8-2.9,7.3-6.1l3.2-2.7
	c4.6-0.8,7.3-3.9,9.1-7.8l3.1-2.7c4.6-0.8,7.3-3.8,9.2-7.8l1.4-1.2c2.2,0.5,3-0.6,2.8-2.7h0.4l0.1-0.4c5.4-1.2,8.4-5.2,11.1-9.6
	l1.3-1.2c5.3-1.2,8.5-4.9,10.9-9.4l3.1-2.8c5.4-1.2,8.3-5.1,10.8-9.7l8.6-7.9c10.9-6.4,19.1-15.5,26.7-25.5l10.1-10.2l14.5-14.4
	c6.3-3.8,11.5-8.6,14.4-15.6l1.6-1.7c1.9-0.1,3.4-1.7,3.3-3.7c0,0,0-0.1,0-0.1c0.6-0.6,1.1-1.3,1.7-1.9c3.3-1.3,5.9-3.1,6.2-7l6.1-7
	c5.1-2.3,9-6.7,10.8-12c0.4-0.1,0.7-0.4,0.8-0.9c4.2-2.3,7.8-5.1,8.9-10.1l0.3-0.3c7.6-5.2,13.7-12.2,18-20.4
	c0.5-0.6,1.1-1.2,1.6-1.9c5.2-2.9,9.4-6.6,11.3-12.5l2.8-3.2c4.6-2.4,8.3-5.7,9.9-10.9l0.3-0.3c3-0.3,4.7-1.8,4.6-5
	c0.3-0.6,0.6-1.1,0.8-1.7l2.6-2.4c6-3.3,10.8-8.5,13.6-14.8l0,0.1c2.7-1,4.6-2.5,4.9-5.6l0.1-0.1c2.9-0.6,4.6-2.3,4.8-5.4l0.3-0.3
	c2.1,0,3.1-0.9,2.8-3.1l4.6-5c1.9-0.1,3.4-1.7,3.4-3.6l0,0c4.5-2.4,8.4-5.4,9.6-10.7l8.1-8.4c6.7-4.6,12.5-10.1,16-17.6l3.2-3.7
	c4.5-2.5,8.4-5.6,9.9-10.8l0.3-0.4c2.1,0,3.2-0.9,2.9-3.1l2.8-3c9.2-7.1,17.5-15,23.5-25.1l2.8-3.1c7-4.6,13-10.1,16.6-17.9l2.7-3.2
	l13.8-12.5c0.6,79.2,0.6,158.3-10,237c-9.3,69-19.1,138-26,207.3c-7.5,75.4-19.6,150.2-24.3,226c-2.6,42.3-5.6,84.5-4.6,126.9
	c1.7,70.4,13.5,139.2,33,206.7c24,83.1,60.3,160.7,106.6,233.6c8,12.5,17,24.4,25.4,36.7c2.3,3.3,5.5,6.2,5.4,10.7
	c-95-7.4-190.1-14.4-285.1-22.5c-44-3.7-88.1-7-131.3-16.8c-125.3-28.3-235.6-81.5-308.2-193c-47.5-73-64.6-153.9-53.2-240.5
	c0.5-3.7,0.1-7.5,0.1-11.3l0.1-2.5c0.9-2.4,2.1-4.8,2.6-7.2c11-56.8,30.4-110.6,59.1-160.9c10.8-18.9,22.3-37.4,33.5-56
	c0.5-0.3,0.9-0.8,0.8-1.4c8.6-8.4,16-18,22-28.5c0.5-0.2,0.9-0.7,0.9-1.3l57.9-54.6l3.1-2.8c2.2,0.4,3.1-0.7,3.1-2.8l0.5-0.3
	c4-0.3,6-3,7.4-6.3l3.2-2.6c3.9-0.4,6-2.9,7.3-6.2l3.2-2.6c2.2,0.3,3.1-1,3.4-2.8l0.1-0.1c1.9,0.1,3.6-1.3,3.7-3.2c0,0,0,0,0,0
	l3.3-2.5c3.9-0.3,5.9-2.9,7.3-6.2l1.4-1.2c4,0.1,5.9-2.6,7.3-5.8l0,0c4-0.5,7.4-3.3,8.7-7.1l3.3-2.6c4-0.2,6-2.7,7.2-6.1l5-4.4
	c3.2,0.3,4.8-1.5,5.5-4.4l3.4-2.7C272.1,1028.8,273.9,1026.1,275.2,1022.9z"/>
<path class="st2" d="M2274,899l0.5,2.7c-1.8,4.6,0.4,8.4,2.6,12.2c0.2,1.1,0.4,2.2,0.6,3.4c0.3,8.5,1,16.8,4.9,24.6l0.5,3.6
	c0.1,13.9,1.9,27.7,5.4,41.1c0.1,2.2,0.2,4.3,0.3,6.5c-1.5,11.9,0.3,23.5,2.5,35.1c0.2,4.7,0.4,9.3,0.6,14
	c-1.5,11.1-1.6,22.4-0.1,33.6c-0.1,5.2-0.2,10.5-0.4,15.7c-2.7,11-4,22-2.7,33.3l-0.2,8.5l-0.2-0.1c-3.4,3-1.8,7.6-3.3,11.2
	c-11.5-31.2-22.1-62.8-34.7-93.5c-23.8-58-54.4-112.3-90.6-163.6c-25.5-36-53.8-69.9-84.6-101.4c-77.9-79.7-162.4-152.2-244-228
	c-59.5-55.3-123.8-105.4-179.5-164.6c-44.4-47.2-87.1-96.1-130.7-144c-4.3-4.7-1.5-6,1.8-8.1l7.3,1c1,3.1,2.8,2.9,4.9,1.1l10.9,0.8
	c2.4,3.5,5.7,2.5,8.9,1.5l7.1,0.8c2,1.1,4.1,2.6,6.4,0.5l4,0.6c1,2.8,2.6,3.1,4.8,1.2l9.1,1.1c3.7,2.4,7.5,4.1,11.9,2.4l5.8,0.7
	c1.7,3.2,4.3,2.5,7,1.7l9,1.5c0.7,2.9,2.3,3.1,4.6,1.6l5.5-0.1l0.2,0.6c2,3.6,5.4,2.4,8.5,2.5l4-0.2l1.9,0.8c0.2,2.2,0.9,3.1,3,1.5
	l5.4,0.1l2.8,0.5c11.9,6.6,25.5,7.9,38.2,11.9c128.9,40.6,243.2,106.5,342.9,197.6c85.9,78.5,147.9,173.5,188.3,282.6
	c10,27,21.1,53.7,31.7,80.5l0.5,2.5c1.6,8.5,3,17,7.9,24.4c0.2,1.2,0.5,2.3,0.7,3.5C2266.8,877.6,2269.1,888.7,2274,899z"/>
<path class="st3" d="M1483.4,1778.9c-160.3-0.7-301.7-104.8-348.5-258.1c-17.4-56.9-17.4-115.5-12.2-174
	c6.9-75.8,25-150.2,53.8-220.6c18.6-45.7,41.8-88.6,73.4-127.1c37.7-45.8,85.5-59.5,142.1-49c98.6,18.1,183,66.2,261.6,125.8
	c55.7,42.1,105.1,90.6,142.3,150.1c46.8,74.7,62.1,156.1,48.8,243c-12.5,81.8-49,151.5-108.7,208.5c-60.4,57.6-132.8,90.5-216,98.9
	C1507.9,1777.5,1495.6,1778,1483.4,1778.9z M1772,1399.6c-0.6-26.1-5.4-52-14.1-76.6c-22.4-62.1-62.7-111.7-110.2-156
	c-20.4-18.9-42.6-35.7-69.1-45.7c-13.5-5.1-27.6-8.5-39.9,2.1c-12.9,11.1-13.5,26.2-8.6,41.2c4.5,14.2,10.2,28,16.9,41.3
	c31.7,61.4,55.8,124.8,62.9,194.6c3.4,33.4,17.1,64.4,45.5,86.1c26.9,20.5,79.2,24.3,101-17.8
	C1767.5,1447.2,1771.4,1424.1,1772,1399.6z"/>
<path class="st4" d="M1772,1399.6c-0.6,24.5-4.5,47.6-15.6,69.1c-21.8,42-74.1,38.2-101,17.8c-28.4-21.7-42.1-52.7-45.5-86.1
	c-7.1-69.7-31.1-133.1-62.9-194.6c-6.7-13.3-12.4-27.1-16.9-41.3c-4.9-14.9-4.3-30.1,8.6-41.2c12.2-10.5,26.4-7.1,39.9-2.1
	c26.5,10,48.7,26.7,69.1,45.7c47.6,44.2,87.9,93.9,110.2,156C1766.6,1347.6,1771.4,1373.5,1772,1399.6z"/>
</svg>
