<?xml version="1.0" encoding="iso-8859-1"?>
<!-- Generator: Adobe Illustrator 25.3.1, SVG Export Plug-In . SVG Version: 6.00 Build 0)  -->
<svg version="1.1" id="Layer_1" xmlns="http://www.w3.org/2000/svg" xmlns:xlink="http://www.w3.org/1999/xlink" x="0px" y="0px"
	 viewBox="0 0 4320 4320" style="enable-background:new 0 0 4320 4320;" xml:space="preserve">
<path style="fill:#FAEAAF;" d="M1592.368,3297.257c-0.326,1.471-0.422,2.957-0.288,4.457c-36.232,0-72.463,0-108.695,0
	c0.047-1.46-0.068-2.906-0.344-4.34C1519.483,3297.335,1555.926,3297.296,1592.368,3297.257z"/>
<path style="fill:#FAD634;" d="M1592.368,3297.257c-36.442,0.039-72.885,0.078-109.327,0.117
	c-193.606-8.206-376.56-57.647-551.64-139.753c-55.146-25.862-104.449-58.196-146.536-102.162
	c-15.303-15.987-31.3-32.199-49.682-44.153c-33.074-21.508-38.445-51.786-31.526-86.057c4.492-22.249,10.597-44.581,23.057-64.287
	c1.012,1.269,1.762,3.178,3.073,3.715c72.67,29.749,146.42,56.372,222.38,76.578c64.619,17.19,129.546,32.447,196.144,40.515
	c43.686,5.292,87.119,12.843,131.222,13.499c39.496,0.587,79.083-1.424,118.492,0.519c49.484,2.439,98.291-4.682,146.541-11.549
	c81.434-11.591,161.443-31.018,239.611-58.031c101.153-34.956,196.839-80.698,286.825-138.313
	c87.724-56.167,167.985-121.382,240.01-197.025c41.29-43.365,82.542-86.575,118.741-134.326
	c46.994-61.99,90.771-126.095,127.052-195.085c33.506-63.711,64.772-128.399,90.657-195.692
	c19.703-51.223,36.428-103.464,50.555-156.286c13.86-51.82,23.945-104.697,32.835-157.779c8.094-48.325,13.79-96.988,16.497-145.597
	c3.381-60.706,0.621-121.754,0.512-182.654c47.616-10.257,92.898-5.373,135.568,19.605c22.121,12.949,36.95,33.786,56.329,49.628
	c16.447,86.525,20.742,174.255,24.34,261.915c2.291,55.822-3.921,111.541-7.544,167.289c-4.799,73.851-17.435,146.37-33.027,218.408
	c-21.21,97.996-52.781,192.774-92.82,284.724c-65.156,149.629-152.237,284.941-261.325,406.522
	c-122.208,136.204-265.09,244.849-428.375,326.764c-119.499,59.948-245.788,100.103-377.413,122.414
	C1707.099,3290.295,1649.98,3297.334,1592.368,3297.257z"/>
<path style="fill:#F8BE2C;" d="M2747.864,1423.45c0.109,60.9,2.868,121.948-0.512,182.654
	c-2.707,48.609-8.404,97.272-16.497,145.597c-8.89,53.082-18.976,105.959-32.835,157.779
	c-14.127,52.822-30.852,105.063-50.555,156.286c-25.885,67.293-57.151,131.98-90.657,195.692
	c-36.282,68.99-80.058,133.095-127.052,195.085c-36.199,47.751-77.451,90.962-118.741,134.326
	c-72.025,75.643-152.286,140.857-240.01,197.025c-89.987,57.616-185.672,103.357-286.825,138.313
	c-78.168,27.013-158.177,46.44-239.611,58.031c-48.25,6.867-97.057,13.989-146.541,11.549c-39.408-1.943-78.996,0.068-118.492-0.519
	c-44.103-0.656-87.536-8.206-131.222-13.499c-66.598-8.068-131.525-23.325-196.144-40.515
	c-75.96-20.206-149.711-46.829-222.38-76.578c-1.312-0.537-2.062-2.446-3.073-3.715c7.631-24.289,17.07-47.748,30.366-69.609
	c13.271-21.82,32.717-35.343,57.534-37.659c72.651-6.781,144.037-20.999,215.703-33.799c22.508-4.02,45.891-0.544,68.414-5.965
	c31.875-1.589,63.705-1.392,95.695-3.978c60.351-4.878,119.658-14.594,178.996-25.55c115.734-21.367,225.777-60.006,332.256-109.201
	c46.919-21.677,91.67-47.53,135.771-74.621c83.323-51.185,160.733-110.113,231.676-177.149
	c35.16-33.224,69.133-67.775,101.181-104.383c44.826-51.202,87.202-104.108,125.46-160.217
	c62.458-91.601,118.414-186.9,162.309-289.077c23.28-54.189,46.455-108.333,64.922-164.39c2.005-6.086,6.817-11.887-0.121-17.787
	c19.179-25.106,21.347-57.177,34.671-84.681c1.249-1.638,2.497-3.276,3.746-4.914l-0.328,0.215
	c16.549-5.116,28.731-17.672,43.656-25.607C2652.594,1449.213,2696.37,1425.447,2747.864,1423.45z"/>
<path style="fill:#F6A724;" d="M2526.879,1587.577c6.938,5.9,2.126,11.7,0.121,17.787c-18.468,56.057-41.643,110.201-64.922,164.39
	c-43.895,102.177-99.851,197.476-162.309,289.077c-38.258,56.109-80.635,109.015-125.46,160.217
	c-32.049,36.608-66.021,71.159-101.181,104.383c-70.943,67.036-148.353,125.965-231.676,177.149
	c-44.101,27.091-88.852,52.943-135.771,74.621c-106.479,49.194-216.522,87.833-332.256,109.201
	c-59.338,10.955-118.645,20.671-178.996,25.55c-31.991,2.586-63.821,2.388-95.695,3.978
	c-70.963-39.973-140.066-82.792-203.62-134.002c-70.029-56.427-133.823-119.258-191.547-188.201
	c-14.346-17.135-24.241-37.175-33.716-57.254c-15.789-33.462-30.89-67.251-49.043-99.546c-10.876-19.349-12.204-39.711-1.985-59.097
	c24.002-45.536,56.659-84.602,95.228-118.397c15.485-13.568,34.501-17.038,55.503-12.08
	c117.308,27.691,234.769,53.889,349.816,91.202c122.004,39.569,249.119,52.92,377.24,47.337
	c159.363-6.945,311.517-45.245,455.796-113.884c140.121-66.661,264.264-156.04,376.981-262.278
	C2401.454,1739.805,2465.555,1665.001,2526.879,1587.577z"/>
<path style="fill:#ADB02C;" d="M2747.864,1423.45c-51.494,1.997-95.27,25.762-139.24,49.14
	c-14.925,7.935-27.107,20.491-43.656,25.607c7.756-31.783,20.877-61.963,25.645-94.747c10.271-70.622,5.589-141.31,2.918-211.981
	c-1.832-48.484-6.405-96.87-7.961-145.357c-2.142-66.751-8.353-132.869-22.688-198.196c-9.527-43.414,15.485-76.115,60.079-75.149
	c35.2,0.763,70.352,6.019,105.415,10.207c33.357,3.985,66.626,8.808,99.832,13.922c43.31,6.669,61.111,32.096,51.854,75.006
	c-3.614,16.751-7.808,34.004-15.468,49.14c-25.634,50.655-21.347,104.11-15.047,157.021
	c16.222,136.249,56.015,267.461,88.822,400.139c1.208,4.885,2.401,9.504,1.392,14.48c-19.379-15.842-34.208-36.679-56.329-49.628
	C2840.762,1418.077,2795.48,1413.194,2747.864,1423.45z"/>
<path style="fill:#ADB02C;" d="M2565.296,1497.982c-1.249,1.638-2.498,3.276-3.746,4.914
	C2561.462,1500.239,2561.893,1497.978,2565.296,1497.982z"/>
</svg>
