<?xml version="1.0" encoding="utf-8"?>
<!-- Generator: Adobe Illustrator 25.3.1, SVG Export Plug-In . SVG Version: 6.00 Build 0)  -->
<svg version="1.1" id="Layer_1" xmlns="http://www.w3.org/2000/svg" xmlns:xlink="http://www.w3.org/1999/xlink" x="0px" y="0px"
	 viewBox="0 0 2352.7 2529" style="enable-background:new 0 0 2352.7 2529;" xml:space="preserve">
<style type="text/css">
	.st0{fill:#FAEAAF;}
	.st1{fill:#FAD634;}
	.st2{fill:#F8BE2C;}
	.st3{fill:#F6A724;}
	.st4{fill:#ADB02C;}
</style>
<path class="st0" d="M980.5,2524.5c-0.3,1.5-0.4,3-0.3,4.5c-36.2,0-72.5,0-108.7,0c0-1.5-0.1-2.9-0.3-4.3
	C907.6,2524.6,944.1,2524.5,980.5,2524.5z"/>
<path class="st1" d="M980.5,2524.5c-36.4,0-72.9,0.1-109.3,0.1c-193.6-8.2-376.6-57.6-551.6-139.8
	c-55.1-25.9-104.4-58.2-146.5-102.2c-15.3-16-31.3-32.2-49.7-44.2c-33.1-21.5-38.4-51.8-31.5-86.1c4.5-22.2,10.6-44.6,23.1-64.3
	c1,1.3,1.8,3.2,3.1,3.7c72.7,29.7,146.4,56.4,222.4,76.6c64.6,17.2,129.5,32.4,196.1,40.5c43.7,5.3,87.1,12.8,131.2,13.5
	c39.5,0.6,79.1-1.4,118.5,0.5c49.5,2.4,98.3-4.7,146.5-11.5c81.4-11.6,161.4-31,239.6-58c101.2-35,196.8-80.7,286.8-138.3
	c87.7-56.2,168-121.4,240-197c41.3-43.4,82.5-86.6,118.7-134.3c47-62,90.8-126.1,127.1-195.1c33.5-63.7,64.8-128.4,90.7-195.7
	c19.7-51.2,36.4-103.5,50.6-156.3c13.9-51.8,23.9-104.7,32.8-157.8c8.1-48.3,13.8-97,16.5-145.6c3.4-60.7,0.6-121.8,0.5-182.7
	c47.6-10.3,92.9-5.4,135.6,19.6c22.1,12.9,36.9,33.8,56.3,49.6c16.4,86.5,20.7,174.3,24.3,261.9c2.3,55.8-3.9,111.5-7.5,167.3
	c-4.8,73.9-17.4,146.4-33,218.4c-21.2,98-52.8,192.8-92.8,284.7c-65.2,149.6-152.2,284.9-261.3,406.5
	c-122.2,136.2-265.1,244.8-428.4,326.8c-119.5,59.9-245.8,100.1-377.4,122.4C1095.2,2517.5,1038.1,2524.6,980.5,2524.5z"/>
<path class="st2" d="M2136,650.7c0.1,60.9,2.9,121.9-0.5,182.7c-2.7,48.6-8.4,97.3-16.5,145.6c-8.9,53.1-19,106-32.8,157.8
	c-14.1,52.8-30.9,105.1-50.6,156.3c-25.9,67.3-57.2,132-90.7,195.7c-36.3,69-80.1,133.1-127.1,195.1c-36.2,47.8-77.5,91-118.7,134.3
	c-72,75.6-152.3,140.9-240,197c-90,57.6-185.7,103.4-286.8,138.3c-78.2,27-158.2,46.4-239.6,58c-48.2,6.9-97.1,14-146.5,11.5
	c-39.4-1.9-79,0.1-118.5-0.5c-44.1-0.7-87.5-8.2-131.2-13.5c-66.6-8.1-131.5-23.3-196.1-40.5c-76-20.2-149.7-46.8-222.4-76.6
	c-1.3-0.5-2.1-2.4-3.1-3.7c7.6-24.3,17.1-47.7,30.4-69.6c13.3-21.8,32.7-35.3,57.5-37.7c72.7-6.8,144-21,215.7-33.8
	c22.5-4,45.9-0.5,68.4-6c31.9-1.6,63.7-1.4,95.7-4c60.4-4.9,119.7-14.6,179-25.6c115.7-21.4,225.8-60,332.3-109.2
	c46.9-21.7,91.7-47.5,135.8-74.6c83.3-51.2,160.7-110.1,231.7-177.1c35.2-33.2,69.1-67.8,101.2-104.4
	c44.8-51.2,87.2-104.1,125.5-160.2c62.5-91.6,118.4-186.9,162.3-289.1c23.3-54.2,46.5-108.3,64.9-164.4c2-6.1,6.8-11.9-0.1-17.8
	c19.2-25.1,21.3-57.2,34.7-84.7c1.2-1.6,2.5-3.3,3.7-4.9l-0.3,0.2c16.5-5.1,28.7-17.7,43.7-25.6
	C2040.7,676.5,2084.5,652.7,2136,650.7z"/>
<path class="st3" d="M1915,814.8c6.9,5.9,2.1,11.7,0.1,17.8c-18.5,56.1-41.6,110.2-64.9,164.4c-43.9,102.2-99.9,197.5-162.3,289.1
	c-38.3,56.1-80.6,109-125.5,160.2c-32,36.6-66,71.2-101.2,104.4c-70.9,67-148.4,126-231.7,177.1c-44.1,27.1-88.9,52.9-135.8,74.6
	c-106.5,49.2-216.5,87.8-332.3,109.2c-59.3,11-118.6,20.7-179,25.6c-32,2.6-63.8,2.4-95.7,4c-71-40-140.1-82.8-203.6-134
	c-70-56.4-133.8-119.3-191.5-188.2c-14.3-17.1-24.2-37.2-33.7-57.3c-15.8-33.5-30.9-67.3-49-99.5c-10.9-19.3-12.2-39.7-2-59.1
	c24-45.5,56.7-84.6,95.2-118.4c15.5-13.6,34.5-17,55.5-12.1c117.3,27.7,234.8,53.9,349.8,91.2c122,39.6,249.1,52.9,377.2,47.3
	c159.4-6.9,311.5-45.2,455.8-113.9c140.1-66.7,264.3-156,377-262.3C1789.6,967.1,1853.7,892.3,1915,814.8z"/>
<path class="st4" d="M2136,650.7c-51.5,2-95.3,25.8-139.2,49.1c-14.9,7.9-27.1,20.5-43.7,25.6c7.8-31.8,20.9-62,25.6-94.7
	c10.3-70.6,5.6-141.3,2.9-212c-1.8-48.5-6.4-96.9-8-145.4c-2.1-66.8-8.4-132.9-22.7-198.2c-9.5-43.4,15.5-76.1,60.1-75.1
	c35.2,0.8,70.4,6,105.4,10.2c33.4,4,66.6,8.8,99.8,13.9c43.3,6.7,61.1,32.1,51.9,75c-3.6,16.8-7.8,34-15.5,49.1
	c-25.6,50.7-21.3,104.1-15,157c16.2,136.2,56,267.5,88.8,400.1c1.2,4.9,2.4,9.5,1.4,14.5c-19.4-15.8-34.2-36.7-56.3-49.6
	C2228.9,645.3,2183.6,640.4,2136,650.7z"/>
<path class="st4" d="M1953.4,725.2c-1.2,1.6-2.5,3.3-3.7,4.9C1949.6,727.5,1950,725.2,1953.4,725.2z"/>
</svg>
