<?xml version="1.0" encoding="iso-8859-1"?>
<!-- Generator: Adobe Illustrator 25.3.1, SVG Export Plug-In . SVG Version: 6.00 Build 0)  -->
<svg version="1.1" id="Layer_1" xmlns="http://www.w3.org/2000/svg" xmlns:xlink="http://www.w3.org/1999/xlink" x="0px" y="0px"
	 viewBox="0 0 14400 14400" style="enable-background:new 0 0 14400 14400;" xml:space="preserve">
<g>
	<ellipse style="fill:#8BB000;" cx="7304.139" cy="7339.795" rx="813.449" ry="881.908"/>
	<g>
		<path style="fill:#B3D000;" d="M5039.5,5771.128h875.452c0,0,925.478-43.772,925.478,1044.29h-900.465
			C5939.965,6815.417,5039.5,6896.709,5039.5,5771.128z"/>
		<path style="fill:#A5C500;" d="M6837.94,6720.428c-112.41-97.46-226.723-182.322-340.523-252.74
			c-145.45-90.002-295.942-160.124-447.295-208.415c-76.087-24.277-154.773-39.375-230.87-53.976
			c-117.04-22.458-227.589-43.671-325.028-95.243c-79.275-41.958-154.021-96.038-222.164-160.738
			c-57.182-54.293-107.418-113.923-149.809-177.661H5039.5c0,45.637,1.489,89.278,4.33,131.034
			c102.681,136.809,236.358,252.167,385.033,330.857c115.927,61.357,242.069,85.562,364.06,108.97
			c75.384,14.464,146.588,28.127,214.729,49.868c140.466,44.819,280.512,110.129,416.246,194.119
			c103.57,64.088,207.871,141.091,310.86,229.442h105.673C6840.43,6783.08,6839.578,6751.258,6837.94,6720.428z"/>
	</g>
	<g>
		<path style="fill:#9BBD00;" d="M6234.82,5039.5v881.706c0,0-38.472,819.173,1230.934,819.173v-800.413
			C7465.753,5939.965,7536.444,5039.5,6234.82,5039.5z"/>
		<path style="fill:#8BB000;" d="M7466.03,6707.856c-46.763-31.934-133.534-96.81-224.398-193.487
			c-77.829-82.809-143.471-172.513-195.105-266.622c-64.022-116.689-106.639-240.709-126.667-368.615
			c-22.766-145.385-71.328-283.365-144.337-410.108c-58.22-101.07-131.973-195.122-219.21-279.542
			c-65.499-63.383-128.66-111.719-179.323-146.205c-45.39-2.479-92.653-3.776-141.893-3.776v79.376
			c44.144,25.451,131.156,81.116,224.052,171.011c77.875,75.361,143.585,159.096,195.302,248.877
			c64.414,111.822,107.267,233.61,127.368,361.982c22.697,144.948,71.053,285.232,143.723,416.955
			c57.833,104.829,131.084,204.419,217.718,296.005c44.265,46.795,87.425,86.647,126.318,119.612
			c61.731,4.617,127.141,7.06,196.452,7.06V6707.856z"/>
	</g>
</g>
<g>
	<circle style="fill:#535C98;" cx="6234.82" cy="7637.854" r="973.369"/>
	<path style="fill:#485190;" d="M6232.078,7087.12c23.034-34.346,62.95-60.592,103.969-55.332
		c72.741,9.329,102.651,102.502,168.364,135.062c38.381,19.017,83.578,14.734,126.341,12.272s89.456-1.43,122.971,25.244
		c33.514,26.674,40.073,88.199,2.326,108.444c1.816-5.778,3.632-11.557,5.448-17.335c-69.958,47.435-105.183,140.78-84.003,222.606
		c10.154,39.23,30.74,84.554,5.803,116.496c-24.454,31.324-74.716,23.026-108.791,2.58c-34.075-20.447-64.666-50.534-104.032-55.965
		c-40.663-5.61-79.873,16.936-111.582,43.002c-31.708,26.067-60.559,57.025-98.081,73.669
		c-37.522,16.644-88.114,13.974-112.032-19.386c-37.97-52.96,16.997-133.876-15.978-190.083
		c-29.772-50.748-119.419-58.985-123.373-117.688c-2.791-41.431,42.548-68.102,81.995-81.105
		c43.617-14.377,86.024-29.981,101.228-76.043C6207.04,7169.969,6204.747,7127.872,6232.078,7087.12z"/>
</g>
<g>
	<circle style="fill:#5C66A8;" cx="8117.588" cy="6767.876" r="1137.797"/>
	<path style="fill:#485190;" d="M7983.454,6333.132c-29.301,54.837-96.618,98.279-85.766,159.499
		c7.144,40.296,49.09,66.871,89.87,70.311c40.779,3.439,80.727-10.83,119.263-24.605c38.537-13.774,78.815-27.474,119.478-22.858
		c40.978,4.652,77.404,27.349,111.828,50.058c34.425,22.709,69.74,46.564,110.291,54.075c40.552,7.51,88.202-6.059,107.385-42.567
		c20.26-38.559,2.588-85.675-18.313-123.891s-45.914-78.854-39.457-121.931c5.931-39.57,36.834-69.784,62.452-100.519
		c25.618-30.735,48.255-71.685,34.147-109.127c-18.49-49.077-85.598-57.002-136.44-44.139
		c-50.843,12.863-102.312,38.226-153.226,25.646c-41.565-10.27-72.831-43.854-99.742-77.155
		c-26.911-33.3-53.611-69.224-92.215-87.737c-85.691-41.095-129.451,25.131-131.826,98.971
		C7978.118,6132.432,8031.527,6243.163,7983.454,6333.132z"/>
</g>
<g>
	<circle style="fill:#6B76BD;" cx="8195.567" cy="8221.703" r="1137.797"/>
	<path style="fill:#485190;" d="M8363.278,8142.992c-10.197-14.809-19.698-36.42-35.818-50.397
		c-33.994-29.474-74.803-51.648-106.129-83.412c-16.548-16.779-30.094-50.454-24.47-70.835c4.648-16.84,38.504-33.2,61.087-35.921
		c46.008-5.544,93.186-3.031,139.795-1.385c35.973,1.271,61.875-11.173,83.084-40.868c41.566-58.196,85.152-114.98,128.854-171.613
		c41.029-53.169,83.802-49.657,114.688,9.418c27.383,52.374,49.865,107.663,81.173,157.478c14.882,23.681,42.7,44.325,69.204,54.482
		c46.147,17.687,96.308,24.565,143.884,38.955c56.197,16.998,68.815,64.45,28.778,107.46
		c-36.018,38.691-77.329,72.795-110.565,113.598c-18.056,22.166-31.491,53.4-34.094,81.731
		c-5.244,57.082,1.942,115.313-3.426,172.373c-2.245,23.865-18.34,56.125-37.541,65.689c-15.92,7.93-51.216-5.522-68.203-20.518
		c-52.384-46.237-100.866-97.025-149.367-147.484c-29.548-30.741-59.263-34.954-95.469-12.328
		c-51.418,32.132-103.949,62.488-156.124,93.4c-28.951,17.153-58.992,33.283-89.508,4.695c-27.62-25.876-19.361-55.583-6.381-85.985
		c17.699-41.453,33.795-83.602,49.991-125.677C8352.253,8181.482,8356.011,8166.435,8363.278,8142.992z"/>
</g>
</svg>
