<?xml version="1.0" encoding="utf-8"?>
<!-- Generator: Adobe Illustrator 25.3.1, SVG Export Plug-In . SVG Version: 6.00 Build 0)  -->
<svg version="1.1" id="Layer_1" xmlns="http://www.w3.org/2000/svg" xmlns:xlink="http://www.w3.org/1999/xlink" x="0px" y="0px"
	 viewBox="0 0 2698.3 2644.9" style="enable-background:new 0 0 2698.3 2644.9;" xml:space="preserve">
<style type="text/css">
	.st0{fill:#249B32;}
	.st1{fill:#30AA44;}
	.st2{fill:#3BBB56;}
	.st3{fill:#82CB8D;}
	.st4{fill:#9ADFA2;}
</style>
<g>
	<path class="st0" d="M0,842.6c49.5-212.4,169-352.1,395.4-380.8C160.5,581.6,67,766.8,131.4,1027.1
		c18.7,75.6,103.9,132.4,76.2,217.5c-41.1,126-45.4,242.8,41.5,352.8c-28.7,11.2-53.8,21-78.8,30.8c-101-97-130.4-212.9-79.3-342.7
		c45.4-115.1-66.7-181.4-77.2-278.2c-1.8-16.5-9-32.5-13.7-48.7C0,919.9,0,881.2,0,842.6z"/>
	<path class="st1" d="M170.2,1628.2c25.1-9.8,50.2-19.6,78.8-30.8c-86.9-110-82.5-226.9-41.5-352.8c27.7-85.1-57.5-141.9-76.2-217.5
		C67,766.8,160.5,581.6,395.4,461.8c76.1,10.3,115.7-34.2,162-88.3c111-129.9,255.8-166.6,419-111.8c46.7,15.7,81.4,9.1,117.3-23.8
		c86.4-79.3,189.4-108,304.5-86.2c29.2,5.5,44.7,2.4,63.4-24c105.9-150,339.6-171.3,465.5-45c-67.2-15.2-134.6-22.6-201.6,0.5
		c-68.9,23.7-134.6,59-161.6,127.3c-7.7,19.6,41.2,60.6,62.5,92.9c32.3,49,53.6,102.2,55.9,161.7c-149.7-38.5-302.1-63.7-455.2-34.5
		c-542.8,103.5-847.2,407.9-939.6,953.4c-10.4,61.3-94.4,174.6,50,213.4c-254.3,198.5-257.7,280.6-15.6,384.5
		c-109.3,17.7-212,1-266.1-103.7C-7.4,1756.1,89,1692.2,170.2,1628.2z"/>
	<path class="st2" d="M2526,1000.7c185.9,685.9,85.9,1309.5-647,1594.9c-65.1,25.3-138.1,30.3-207.4,44.7
		c-142.1-65.3-169.9-142.2-103.2-278.4c70.1-143.2,173.5-255.2,309.1-338.1c8.8-3.5,17.5-6.9,26.3-10.4
		c35.2-14.1,70.4-28.1,105.6-42.2c320-108.4,518.9-452,463-784.8C2461.9,1124.5,2437.7,1041.7,2526,1000.7z"/>
	<path class="st2" d="M321.8,1981.9c-242-103.9-238.7-186.1,15.6-384.5c102.4,9.3,151.7,113.1,241.9,138.7
		c99.1,28.2,184.8,75.5,229.7,165.6c66.6,133.8,126.6,254.7,286.7,315.3c133.6,50.6,194.6,197.2,265.2,319.4c0,21,0.1,42,0.1,63.1
		c-40.6,4.7-81.3,9.4-121.9,14.1c-302.3-14.3-512.3-161.4-644.9-432.9c-47.3-96.9-67.8-245.2-240.6-194.8
		C343,1984.6,332.4,1983.2,321.8,1981.9z"/>
	<path class="st1" d="M2526,1000.7c-88.2,41-64.1,123.8-53.6,185.7c56,332.8-142.9,676.5-463,784.8
		c-9.3-185.1-2.8-370.5,135.9-510.9c56-56.7,43-102.6,35.9-163.7c-7.4-63.3-20.3-139.1,5.9-190.8
		c87.6-172.9,149.9-367.4,333.7-473.5c84.4,13.2,166.1,38.3,176.3,137.3c11,106.1-56.3,170.6-144.8,215.7
		C2543.3,989.9,2534.7,995.5,2526,1000.7z"/>
	<path class="st2" d="M1682.2,465c-2.3-59.6-23.6-112.8-55.9-161.7c-21.3-32.3-70.3-73.3-62.5-92.9
		c27.1-68.3,92.7-103.5,161.6-127.3c67-23.1,134.4-15.7,201.6-0.5c62.5,131,177.5,184.1,307.5,232.1
		c99.3,36.7,147.6,136.5,162.6,243.4c4.8,34.2,17.9,57.7,49.7,70.6c-121.2,16.7-182.3,99.8-224.9,203.4
		C2077.2,658,1897.3,535.7,1682.2,465z"/>
	<path class="st0" d="M2221.9,832.2c42.6-103.6,103.7-186.7,224.8-203.4c24.7,1.2,49.4,2.4,74.1,3.6
		c-183.8,106.1-246.1,300.6-333.7,473.5c-26.2,51.7-13.3,127.5-5.9,190.8c7.1,61.1,20.1,106.9-35.9,163.7
		c-138.7,140.4-145.2,325.8-135.9,510.9c-35.2,14.1-70.4,28.1-105.6,42.2c-24.7-216.2-13.5-423.2,158.1-586
		c19.4-18.4,24.3-35,18.8-60c-38.8-176-36.3-341.5,116.3-471.5C2212.2,883,2213.9,853.9,2221.9,832.2z"/>
	<path class="st1" d="M1361,2599.5c0-21-0.1-42-0.1-63.1c17.3-42.7,34.5-85.4,51.8-128.1c34.1-54.1,68.2-108.3,102.3-162.4
		c99.3-109.1,212.9-195.1,362.5-222.1c-135.6,82.9-239,194.9-309.1,338.1c-66.7,136.2-38.9,213.1,103.2,278.4
		C1564.3,2655.3,1462,2631.9,1361,2599.5z"/>
	<path class="st1" d="M353.6,1985.9c172.8-50.4,193.2,97.9,240.6,194.8c132.6,271.5,342.6,418.6,644.9,432.9
		c-353.3,27.4-585.8-104-748.1-417.9C452.6,2121.6,431.5,2034.7,353.6,1985.9z"/>
	<path class="st3" d="M1412.7,2408.4c-17.3,42.7-34.5,85.4-51.8,128.1c-70.6-122.2-131.6-268.8-265.2-319.4
		c-160.1-60.7-220.1-181.5-286.7-315.3c-44.9-90.1-130.5-137.5-229.7-165.6c-90.2-25.6-139.5-129.5-241.9-138.7
		c-144.4-38.8-60.3-152.1-50-213.4c92.4-545.5,396.8-850,939.6-953.4c153.1-29.2,305.5-4.1,455.2,34.5c215,70.8,395,193,539.6,367.3
		c-8,21.7-9.6,50.8-24.9,63.8c-152.6,129.9-155.1,295.5-116.3,471.5c5.5,24.9,0.6,41.6-18.8,60c-171.6,162.8-182.8,369.7-158.1,586
		c-8.8,3.5-17.5,6.9-26.3,10.4c-149.6,27-263.2,113-362.5,222.1c0-52.6-0.7-105.3,0.1-157.9c2.1-140.8-49.9-280.5-41.8-415.7
		c16.4-274.5,161.6-485.3,405.3-621.8c26.7-15,42.2-37.5,25.9-64.3c-15.8-26.1-42.2-20.4-67.4-6.1
		c-209.4,118.8-349.2,293.5-421.9,530.9c-8.2-19-14.7-30.2-18-42.4c-26.3-96.6-125.8-172.7-112-273.1
		c21.4-155.3,109.8-284,226.4-390.5c21.9-20,35.2-42.7,9.5-67.3c-25-24-47.2-9.3-68.5,10c-114.4,103.7-189.5,232.5-240.2,383.7
		c-99.1-135.2-207.7-251.9-338.8-346.2c-23.6-17-47.4-17.7-64.3,7.3c-16.8,24.8-2.3,43.8,18,60.4c58.5,47.8,116.4,96.3,189.9,157.2
		c-104.8-16.8-187.3-4.2-269.5,12.4c-29.6,6-62.2,18-54.7,54.4c7.3,35.2,37,34.9,69.5,26.4c256.6-66.8,446.4,42.4,508.7,291.6
		c-216.4-81.3-428.5-49-639.3,22c-24.6,8.3-41.5,22.7-33.8,50.3c8.4,30,32.2,33.9,59.1,27.2c71.2-17.8,141.9-37.8,213.7-53.1
		c339.4-72.3,575.9,111.9,542.6,424.4c-104.9-56.3-216.1-88.9-334.2-91.7c-34.9-0.8-70.6,9.7-104.7,19.2c-4.8,1.3-9.1,29.4-3.5,39.5
		c21,38.1,59.5,18.3,90.8,22.2c26,3.2,52.3,4.2,78.5,5.6c221.5,11.7,305.2,100.4,293.4,314.9
		C1429.6,2253.1,1419.9,2330.7,1412.7,2408.4z"/>
	<path class="st4" d="M1412.7,2408.4c7.2-77.7,16.9-155.3,21.2-233.1c11.8-214.5-71.9-303.2-293.4-314.9
		c-26.2-1.4-52.5-2.3-78.5-5.6c-31.3-3.9-69.8,15.9-90.8-22.2c-5.6-10.1-1.3-38.2,3.5-39.5c34.2-9.5,69.8-20,104.7-19.2
		c118.1,2.8,229.3,35.4,334.2,91.7c33.3-312.5-203.2-496.7-542.6-424.4c-71.7,15.3-142.5,35.3-213.7,53.1
		c-26.9,6.7-50.7,2.8-59.1-27.2c-7.7-27.6,9.1-42,33.8-50.3c210.8-70.9,422.9-103.3,639.3-22c-62.2-249.3-252.1-358.4-508.7-291.6
		c-32.5,8.5-62.3,8.8-69.5-26.4c-7.5-36.3,25.1-48.4,54.7-54.4c82.1-16.6,164.7-29.2,269.5-12.4c-73.5-60.9-131.4-109.4-189.9-157.2
		c-20.3-16.6-34.8-35.5-18-60.4c16.9-25,40.8-24.2,64.3-7.3c131,94.3,239.7,211,338.8,346.2c50.7-151.2,125.8-280,240.2-383.7
		c21.3-19.4,43.5-34.1,68.5-10c25.7,24.7,12.4,47.4-9.5,67.3c-116.6,106.5-205,235.2-226.4,390.5c-13.8,100.3,85.7,176.5,112,273.1
		c3.3,12.2,9.8,23.4,18,42.4c72.7-237.4,212.5-412.2,421.9-530.9c25.2-14.3,51.5-19.9,67.4,6.1c16.3,26.9,0.8,49.4-25.9,64.3
		c-243.7,136.5-388.9,347.3-405.3,621.8c-8.1,135.2,43.9,274.9,41.8,415.7c-0.8,52.6-0.1,105.3-0.1,157.9
		C1480.9,2300.1,1446.8,2354.2,1412.7,2408.4z"/>
</g>
</svg>
