<?xml version="1.0" encoding="iso-8859-1"?>
<!-- Generator: Adobe Illustrator 25.3.1, SVG Export Plug-In . SVG Version: 6.00 Build 0)  -->
<svg version="1.1" id="Layer_1" xmlns="http://www.w3.org/2000/svg" xmlns:xlink="http://www.w3.org/1999/xlink" x="0px" y="0px"
	 viewBox="0 0 8000 8500" style="enable-background:new 0 0 0 0;" xml:space="preserve">
<g>
	<path style="fill:#249B32;" d="M5838.761,6645.216c51.359-220.399,175.343-365.371,410.316-395.068
		c-243.749,124.292-340.75,316.508-274.024,586.506c19.388,78.451,107.779,137.415,79.017,225.669
		c-42.597,130.704-47.091,251.943,43.053,366.089c-29.745,11.633-55.775,21.813-81.805,31.993
		c-104.799-100.647-135.292-220.937-82.245-355.599c47.063-119.472-69.208-188.226-80.105-288.625
		c-1.864-17.172-9.329-33.736-14.207-50.582C5838.761,6725.472,5838.761,6685.344,5838.761,6645.216z"/>
	<path style="fill:#30AA44;" d="M6015.318,7460.405c26.03-10.18,52.061-20.36,81.805-31.993
		c-90.144-114.146-85.65-235.385-43.053-366.089c28.762-88.254-59.629-147.218-79.017-225.669
		c-66.726-269.998,30.275-462.215,274.024-586.506c78.926,10.732,120.09-35.529,168.08-91.67
		c115.174-134.734,265.368-172.83,434.729-116.021c48.426,16.244,84.444,9.433,121.667-24.712
		c89.699-82.28,196.522-112.092,315.951-89.441c30.258,5.739,46.358,2.528,65.735-24.91
		c109.889-155.605,352.383-177.786,482.977-46.716c-69.767-15.791-139.645-23.402-209.169,0.517
		c-71.507,24.601-139.645,61.169-167.716,132.038c-8.039,20.293,42.779,62.863,64.866,96.369
		c33.5,50.817,55.642,106.022,58.027,167.806c-155.335-39.99-313.413-66.046-472.271-35.763
		c-563.205,107.361-879.062,423.268-974.954,989.296c-10.772,63.587-97.957,181.127,51.839,221.433
		c-263.886,205.94-267.345,291.15-16.197,399.004c-113.396,18.408-219.928,1.042-276.105-107.625
		C5831.07,7593.119,5931.061,7526.835,6015.318,7460.405z"/>
	<path style="fill:#3BBB56;" d="M8459.701,6809.299c192.848,711.671,89.169,1358.684-671.307,1654.838
		c-67.517,26.294-143.282,31.409-215.216,46.36c-147.487-67.762-176.287-147.52-107.085-288.824
		c72.752-148.554,180.044-264.755,320.735-350.805c9.082-3.587,18.163-7.174,27.245-10.762
		c36.533-14.604,73.065-29.207,109.598-43.811c332.065-112.447,538.44-469.017,480.37-814.344
		C8393.24,6937.723,8368.146,6851.852,8459.701,6809.299z"/>
	<path style="fill:#3BBB56;" d="M6172.642,7827.377c-251.148-107.854-247.689-193.063,16.198-399.008
		c106.209,9.599,157.406,117.356,250.983,143.93c102.871,29.212,191.769,78.368,238.328,171.869
		c69.14,138.846,131.315,264.234,297.463,327.203c138.606,52.531,201.909,204.584,275.199,331.428
		c0.027,21.808,0.053,43.615,0.08,65.423c-42.17,4.875-84.34,9.751-126.51,14.626c-313.626-14.792-531.552-167.474-669.114-449.138
		c-49.114-100.562-70.326-254.465-249.597-202.169C6194.662,7830.153,6183.651,7828.765,6172.642,7827.377z"/>
	<path style="fill:#30AA44;" d="M8459.701,6809.299c-91.555,42.553-66.461,128.424-55.66,192.653
		c58.07,345.327-148.305,701.897-480.371,814.344c-9.636-192.107-2.933-384.439,141.013-530.146
		c58.153-58.865,44.622-106.444,37.256-169.809c-7.635-65.683-21.044-144.279,6.141-197.942
		c90.886-179.399,155.494-381.172,346.245-491.284c87.57,13.695,172.306,39.71,182.971,142.425
		c11.432,110.094-58.457,176.966-150.224,223.802C8477.681,6798.135,8468.812,6803.955,8459.701,6809.299z"/>
	<path style="fill:#3BBB56;" d="M7584.227,6253.423c-2.388-61.799-24.529-117.005-58.029-167.822
		c-22.087-33.505-72.905-76.075-64.866-96.369c28.071-70.869,96.209-107.437,167.716-132.038
		c69.524-23.919,139.402-16.308,209.169-0.517c64.804,135.904,184.177,191.03,319.061,240.849
		c103.032,38.054,153.18,141.617,168.669,252.584c4.952,35.479,18.614,59.892,51.527,73.303
		c-125.713,17.353-189.129,103.569-233.311,211.053C7994.095,6453.694,7807.346,6326.837,7584.227,6253.423z"/>
	<path style="fill:#249B32;" d="M8144.171,6634.469c44.173-107.486,107.589-193.703,233.302-211.055
		c25.618,1.234,51.234,2.467,76.852,3.701c-190.751,110.112-255.359,311.885-346.245,491.284
		c-27.186,53.663-13.776,132.259-6.141,197.942c7.366,63.364,20.897,110.943-37.256,169.809
		c-143.945,145.707-150.649,338.04-141.013,530.146c-36.532,14.604-73.065,29.208-109.598,43.811
		c-25.601-224.377-14.024-439.065,164.036-608.006c20.106-19.076,25.185-36.333,19.487-62.205
		c-40.211-182.606-37.63-354.38,120.687-489.214C8134.179,6687.143,8135.881,6656.938,8144.171,6634.469z"/>
	<path style="fill:#30AA44;" d="M7250.893,8468.222c-0.027-21.808-0.053-43.615-0.082-65.43
		c17.904-44.305,35.81-88.604,53.715-132.903c35.381-56.182,70.761-112.363,106.142-168.544
		c103.082-113.229,220.89-202.423,376.16-230.476c-140.691,86.05-247.983,202.25-320.735,350.805
		c-69.202,141.305-40.402,221.062,107.085,288.824C7461.857,8526.082,7355.76,8501.836,7250.893,8468.222z"/>
	<path style="fill:#30AA44;" d="M6205.671,7831.541c179.271-52.296,200.483,101.607,249.597,202.169
		c137.562,281.665,355.487,434.346,669.114,449.138c-366.533,28.411-607.827-107.877-776.211-433.62
		C6308.415,7972.318,6286.488,7882.163,6205.671,7831.541z"/>
	<path style="fill:#82CB8D;" d="M7304.526,8269.889c-17.906,44.299-35.811,88.599-53.715,132.903
		c-73.289-126.837-136.591-278.89-275.198-331.421c-166.148-62.969-228.324-188.357-297.463-327.203
		c-46.559-93.5-135.457-142.656-238.328-171.869c-93.577-26.574-144.774-134.331-250.983-143.93
		c-149.796-40.302-62.612-157.842-51.839-221.429c95.892-566.029,411.749-881.935,974.954-989.296
		c158.858-30.283,316.936-4.227,472.271,35.763c223.121,73.429,409.871,200.287,559.938,381.059
		c-8.282,22.472-9.984,52.676-25.88,66.214c-158.317,134.834-160.898,306.607-120.687,489.214
		c5.698,25.873,0.619,43.129-19.487,62.205c-178.06,168.94-189.637,383.629-164.036,608.006
		c-9.082,3.588-18.163,7.175-27.245,10.762c-155.27,28.053-273.078,117.247-376.165,230.473
		c-0.017-54.624-0.713-109.255,0.093-163.864c2.157-146.113-51.796-291.085-43.407-431.32
		c17.041-284.849,167.659-503.557,420.526-645.225c27.712-15.526,43.833-38.874,26.886-66.757
		c-16.436-27.042-43.82-21.143-69.916-6.345c-217.301,123.22-362.336,304.559-437.752,550.871
		c-8.485-19.666-15.265-31.362-18.697-43.969c-27.284-100.205-130.489-179.212-116.16-283.325
		c22.171-161.1,113.928-294.704,234.93-405.165c22.694-20.717,36.525-44.273,9.872-69.88c-25.97-24.951-48.937-9.672-71.08,10.41
		c-118.7,107.65-196.65,241.275-249.214,398.172c-102.831-140.264-215.537-261.337-351.502-359.225
		c-24.442-17.597-49.201-18.342-66.743,7.549c-17.444,25.748-2.421,45.431,18.636,62.629
		c60.692,49.569,120.784,99.872,197.028,163.081c-108.706-17.435-194.379-4.347-279.581,12.861
		c-30.688,6.198-64.517,18.715-56.742,56.429c7.532,36.53,38.385,36.215,72.152,27.426
		c266.212-69.291,463.212,43.964,527.795,302.591c-224.564-84.358-444.641-50.809-663.34,22.783
		c-25.545,8.596-43.057,23.585-35.027,52.191c8.737,31.125,33.388,35.192,61.332,28.222
		c73.897-18.431,147.286-39.231,221.729-55.081c352.2-74.982,597.59,116.084,563.018,440.383
		c-108.817-58.398-224.199-92.23-346.719-95.18c-36.227-0.872-73.22,10.089-108.679,19.9c-5.026,1.391-9.427,30.495-3.639,40.996
		c21.78,39.511,61.76,18.984,94.208,23.011c26.965,3.346,54.25,4.325,81.423,5.76c229.845,12.142,316.631,104.133,304.42,326.714
		C7322.081,8108.778,7312.02,8189.263,7304.526,8269.889z"/>
	<path style="fill:#9ADFA2;" d="M7304.526,8269.889c7.493-80.625,17.555-161.111,21.987-241.905
		c12.21-222.581-74.576-314.573-304.42-326.714c-27.174-1.435-54.458-2.414-81.423-5.76c-32.449-4.027-72.428,16.5-94.208-23.011
		c-5.788-10.5-1.388-39.605,3.639-40.996c35.459-9.811,72.452-20.772,108.679-19.9c122.521,2.949,237.902,36.782,346.719,95.18
		c34.572-324.299-210.818-515.366-563.018-440.383c-74.444,15.849-147.833,36.649-221.729,55.081
		c-27.944,6.97-52.595,2.903-61.332-28.222c-8.029-28.605,9.482-43.595,35.027-52.191c218.699-73.592,438.776-107.141,663.34-22.783
		c-64.583-258.627-261.583-371.881-527.795-302.591c-33.767,8.789-64.62,9.104-72.152-27.426
		c-7.775-37.714,26.054-50.231,56.742-56.429c85.201-17.208,170.875-30.296,279.581-12.861
		c-76.244-63.209-136.336-113.512-197.028-163.081c-21.057-17.198-36.081-36.881-18.636-62.629
		c17.542-25.892,42.301-25.146,66.743-7.549c135.966,97.888,248.672,218.961,351.502,359.225
		c52.564-156.897,130.515-290.521,249.214-398.172c22.144-20.082,45.11-35.361,71.08-10.41c26.653,25.607,12.822,49.163-9.872,69.88
		c-121.001,110.46-212.759,244.065-234.93,405.165c-14.329,104.113,88.876,183.12,116.16,283.325
		c3.433,12.607,10.212,24.303,18.697,43.969c75.416-246.312,220.451-427.651,437.752-550.871
		c26.096-14.798,53.48-20.697,69.916,6.345c16.947,27.883,0.827,51.231-26.886,66.757
		c-252.868,141.668-403.486,360.376-420.526,645.225c-8.39,140.235,45.564,285.208,43.407,431.32
		c-0.806,54.609-0.109,109.24-0.093,163.864C7375.288,8157.526,7339.907,8213.707,7304.526,8269.889z"/>
</g>
</svg>
