<?xml version="1.0" encoding="iso-8859-1"?>
<!-- Generator: Adobe Illustrator 25.3.1, SVG Export Plug-In . SVG Version: 6.00 Build 0)  -->
<svg version="1.1" id="Layer_1" xmlns="http://www.w3.org/2000/svg" xmlns:xlink="http://www.w3.org/1999/xlink" x="0px" y="0px"
	 viewBox="0 0 8000 9500" style="enable-background:new 0 0 0 0;" xml:space="preserve">
<g>
	<path style="fill:#629D42;" d="M7262.166,8664.133c-60.63,0-121.261,0-181.891,0c-74.924-36.311-161.108-51.162-221.062-116.008
		c-77.674-69.018-137.878-151.491-153.169-254.881c-23.22-157.002-36.666-315.445-54.565-473.242
		c-28.78-253.707-60.368-507.131-85.69-761.181c-13.41-134.527-46.221-268.976-28.326-404.658
		c22.307-169.122,131.982-279.058,269.424-366.122c56.566-13.551,113.129-27.086,169.691-40.623
		c204.536,6.094,413.187-27.115,608.849,63.75c57.141,57.674,123.366,105.245,168.489,176.104
		c105.909,166.314,53.371,342.905,36.891,515.576c-28.934,303.133-62.157,605.993-101.275,907.971
		c-26.918,207.796-6.644,429.342-154.229,607.105C7454.672,8586.122,7363.138,8633.944,7262.166,8664.133z M6717.989,6880.909
		c0,25.964-4.02,52.711,0.853,77.726c9.568,49.123,40.447,74.22,92.958,69.267c51.988-4.904,75.345-41.152,71.023-84.205
		c-14.3-142.44,30.009-262.572,121.858-368.962c34.964-40.499,27.805-78.308-13.273-111.939
		c-42.801-35.042-82.238-24.38-113.987,12.175C6776.589,6591.063,6716.679,6724.411,6717.989,6880.909z"/>
	<path style="fill:#4A8131;" d="M7665.267,6265.274c193.508-32.046,387.905-15.292,578.269,13
		c207.298,30.81,320.38,180.523,382.814,371.85c0,60.637,0,121.273,0,181.91c-7.112,19.22-17.302,37.885-20.883,57.742
		c-66.869,370.784-130.301,742.214-200.479,1112.366c-28.999,152.952-28.825,314.714-121.083,451.466
		c-83.384,123.597-206.708,179.923-346.143,210.524c-47.638,0-95.276,0-142.915,0c-92.006-38.987-188.341-70.287-259.545-146.208
		c147.584-177.764,127.31-399.309,154.229-607.105c39.118-301.978,72.341-604.837,101.275-907.971
		c16.48-172.67,69.019-349.262-36.891-515.576c-45.123-70.859-111.348-118.43-168.475-176.094
		C7612.06,6295.884,7638.663,6280.579,7665.267,6265.274z"/>
	<path style="fill:#528F36;" d="M6456.647,8664.133c-167.022-51.617-309.368-136.181-368.893-311.141
		c-28.955-85.105-41.729-176.098-57.737-265.161c-77.165-429.3-153.16-858.811-229.116-1288.327
		c-43.843-247.924,143.205-484.531,393.07-517.567c182.004-24.064,362.908-37.883,545.882-26.796
		c22.35,10.965,44.689,21.941,67.028,32.917c-137.438,87.049-247.113,196.985-269.42,366.107
		c-17.896,135.682,14.916,270.131,28.326,404.658c25.323,254.05,56.91,507.474,85.69,761.181
		c17.9,157.797,31.345,316.24,54.565,473.242c15.291,103.39,75.495,185.863,153.169,254.881
		c-84.554,64.919-182.347,97.231-285.636,116.008C6534.601,8664.133,6495.624,8664.133,6456.647,8664.133z"/>
	<path style="fill:#8F962C;" d="M7665.267,6265.274c-26.604,15.305-53.208,30.61-79.826,45.905
		c-195.677-90.875-404.328-57.666-608.866-63.76c101.481-111.523,156.244-248.013,189.735-390.5
		c21.414-91.103,52.464-160.207,148.939-183.858c53.104-3.321,54.277,39.383,63.543,73.303
		c48.805,178.67,92.744,359.061,240.238,490.22C7634.087,6249.972,7650.917,6254.276,7665.267,6265.274z"/>
	<path style="fill:#999F40;" d="M7315.25,5673.06c-96.476,23.652-127.526,92.755-148.939,183.858
		c-33.492,142.488-88.254,278.978-189.735,390.5c-56.56,13.537-113.123,27.072-169.689,40.623
		c-22.343-10.96-44.683-21.937-67.032-32.901c135.8-123.063,197.633-286.22,234.769-457.984
		c23.959-110.82,77.704-164.52,190.682-147.306C7215.269,5657.463,7272.222,5621.955,7315.25,5673.06z"/>
	<path style="fill:#8FBA78;" d="M6717.989,6880.909c-1.31-156.498,58.6-289.846,159.432-405.938
		c31.75-36.555,71.187-47.216,113.987-12.175c41.078,33.631,48.237,71.44,13.273,111.939
		c-91.85,106.39-136.159,226.521-121.858,368.962c4.322,43.052-19.035,79.301-71.023,84.205
		c-52.51,4.953-83.389-20.144-92.958-69.267C6713.969,6933.62,6717.989,6906.873,6717.989,6880.909z"/>
</g>
</svg>
