<?xml version="1.0" encoding="utf-8"?>
<!-- Generator: Adobe Illustrator 25.3.1, SVG Export Plug-In . SVG Version: 6.00 Build 0)  -->
<svg version="1.1" id="Layer_1" xmlns="http://www.w3.org/2000/svg" xmlns:xlink="http://www.w3.org/1999/xlink" x="0px" y="0px"
	 viewBox="0 0 2441.9 2603.6" style="enable-background:new 0 0 2441.9 2603.6;" xml:space="preserve">
<style type="text/css">
	.st0{fill:#629D42;}
	.st1{fill:#4A8131;}
	.st2{fill:#528F36;}
	.st3{fill:#8F962C;}
	.st4{fill:#999F40;}
	.st5{fill:#8FBA78;}
</style>
<g>
	<path class="st0" d="M1265.6,2603.6c-52.3,0-104.6,0-156.8,0c-64.6-31.3-138.9-44.1-190.6-100c-67-59.5-118.9-130.6-132.1-219.8
		c-20-135.4-31.6-272-47.1-408.1c-24.8-218.8-52.1-437.3-73.9-656.4c-11.6-116-39.9-231.9-24.4-348.9
		C659.9,724.5,754.5,629.7,873,554.6c48.8-11.7,97.6-23.4,146.3-35c176.4,5.3,356.3-23.4,525,55c49.3,49.7,106.4,90.8,145.3,151.9
		c91.3,143.4,46,295.7,31.8,444.6c-25,261.4-53.6,522.6-87.3,783c-23.2,179.2-5.7,370.2-133,523.5
		C1431.6,2536.3,1352.7,2577.5,1265.6,2603.6z M796.3,1065.9c0,22.4-3.5,45.5,0.7,67c8.3,42.4,34.9,64,80.2,59.7
		c44.8-4.2,65-35.5,61.2-72.6c-12.3-122.8,25.9-226.4,105.1-318.2c30.1-34.9,24-67.5-11.4-96.5c-36.9-30.2-70.9-21-98.3,10.5
		C846.9,815.9,795.2,930.9,796.3,1065.9z"/>
	<path class="st1" d="M1613.2,535c166.9-27.6,334.5-13.2,498.7,11.2c178.8,26.6,276.3,155.7,330.1,320.7c0,52.3,0,104.6,0,156.9
		c-6.1,16.6-14.9,32.7-18,49.8c-57.7,319.7-112.4,640-172.9,959.2c-25,131.9-24.9,271.4-104.4,389.3
		c-71.9,106.6-178.2,155.2-298.5,181.5c-41.1,0-82.2,0-123.2,0c-79.3-33.6-162.4-60.6-223.8-126.1
		c127.3-153.3,109.8-344.3,133-523.5c33.7-260.4,62.4-521.6,87.3-783c14.2-148.9,59.5-301.2-31.8-444.6
		c-38.9-61.1-96-102.1-145.3-151.8C1567.3,561.4,1590.2,548.2,1613.2,535z"/>
	<path class="st2" d="M571,2603.6c-144-44.5-266.8-117.4-318.1-268.3c-25-73.4-36-151.9-49.8-228.7
		C136.5,1736.4,71,1366.1,5.5,995.7c-37.8-213.8,123.5-417.8,339-446.3c156.9-20.8,312.9-32.7,470.7-23.1
		c19.3,9.5,38.5,18.9,57.8,28.4c-118.5,75.1-213.1,169.9-232.3,315.7c-15.4,117,12.9,232.9,24.4,348.9
		c21.8,219.1,49.1,437.6,73.9,656.4c15.4,136.1,27,272.7,47.1,408.1c13.2,89.2,65.1,160.3,132.1,219.8
		c-72.9,56-157.2,83.8-246.3,100C638.2,2603.6,604.6,2603.6,571,2603.6z"/>
	<path class="st3" d="M1613.2,535c-22.9,13.2-45.9,26.4-68.8,39.6c-168.7-78.4-348.7-49.7-525-55c87.5-96.2,134.7-213.9,163.6-336.7
		c18.5-78.6,45.2-138.1,128.4-158.5c45.8-2.9,46.8,34,54.8,63.2c42.1,154.1,80,309.6,207.2,422.7
		C1586.3,521.8,1600.8,525.5,1613.2,535z"/>
	<path class="st4" d="M1311.4,24.3c-83.2,20.4-110,80-128.4,158.5c-28.9,122.9-76.1,240.6-163.6,336.7
		c-48.8,11.7-97.5,23.3-146.3,35c-19.3-9.5-38.5-18.9-57.8-28.4c117.1-106.1,170.4-246.8,202.4-394.9c20.7-95.6,67-141.9,164.4-127
		C1225.1,10.9,1274.3-19.7,1311.4,24.3z"/>
	<path class="st5" d="M796.3,1065.9c-1.1-135,50.5-249.9,137.5-350c27.4-31.5,61.4-40.7,98.3-10.5c35.4,29,41.6,61.6,11.4,96.5
		c-79.2,91.7-117.4,195.3-105.1,318.2c3.7,37.1-16.4,68.4-61.2,72.6c-45.3,4.3-71.9-17.4-80.2-59.7
		C792.9,1111.3,796.3,1088.3,796.3,1065.9z"/>
</g>
</svg>
