<?xml version="1.0" encoding="utf-8"?>
<!-- Generator: Adobe Illustrator 25.3.1, SVG Export Plug-In . SVG Version: 6.00 Build 0)  -->
<svg version="1.1" id="Layer_1" xmlns="http://www.w3.org/2000/svg" xmlns:xlink="http://www.w3.org/1999/xlink" x="0px" y="0px"
	 viewBox="0 0 2537.1 3089.2" style="enable-background:new 0 0 2537.1 3089.2;" xml:space="preserve">
<style type="text/css">
	.st0{fill:#FB751B;}
	.st1{fill:#8EC540;}
	.st2{fill:#EC660B;}
	.st3{fill:#DB5E09;}
	.st4{fill:#DA5E09;}
	.st5{fill:#B6520E;}
</style>
<path class="st0" d="M1.4,2987.9C1,2957.1,9,2927.5,17,2898.2c30.8-112.7,78-219.1,127.4-324.6c65.8-140.5,139.2-277.1,214.6-412.7
	c95.1-171.1,195.2-339.3,298.1-505.9c71.4-115.6,144.4-230.2,220.5-342.7c30.2-44.7,59.9-89.8,95.9-130.3
	c42.5-47.7,93.6-83.2,152.1-108.1c59.2-25.2,121.4-35.9,185.5-32.9c49.5,2.3,97.6,12.1,143.5,31.8c6.4,2.7,12.3,7.1,19.8,6.7
	c20.1,12.3,40.4,24.4,60.4,36.8s39.2,26.5,53.2,46.1c5.2,24.2,10.8,48.4,15.6,72.8c5.2,26.3,8.5,52.9,8.7,79.8
	c0.1,11.8-3.9,22.9-3.9,34.8c0.1,36.4-8.9,71.5-20.6,105.7c-14.8,43-36.3,82.8-63.1,119.7c-14.2,19.6-34.2,33.5-50.8,50.6
	c-67.4,69.5-140.5,132.9-209.2,201c-13.6,13.5-26.6,27.9-41.1,40.3c-18.7,16-36.2,33.2-52.4,51.7c-6.8,0.2-10.4-5-14.3-9.1
	c-7.1-7.7-13.2-16.5-20.9-23.6c-32.3-29.7-66.8-56.5-104.1-79.5c-14.2-8.8-28.4-18.2-44.6-23.5c-21-6.9-46.5,3.2-52.8,31.1
	c-5.4,23.6,9.7,44.5,31.9,55.7c14.5,7.3,28.5,15.1,42,24.5c21.1,14.8,40.7,31.4,60,48.1c13.4,11.5,29.1,21.9,35.8,39.9
	c-48.1,45.2-96.6,90.1-144.3,135.8c-14.7,14.1-29,29-44.1,42.2c-30.9,27-57.7,58.2-89.2,84.6c-28.1,23.5-53.4,50.4-79.8,76
	c-32.8,31.9-67.4,61.9-99.3,94.7c-24,24.7-49.7,47.7-74.7,71.6c-3.4,3.3-6.6,6.8-11.9,6.6c-8.1-7.5-16.3-14.8-24.1-22.5
	c-25.8-25.2-57.1-41.9-89.3-56.7c-22.6-10.4-49.5,0.2-58,20c-10.5,24.5-1.4,47.2,23,59.7c31,15.9,62.4,31.4,84.9,59.5
	c-0.5,1.7-0.5,3.7-1.5,4.9c-30.6,36.4-67.9,65.9-101.8,98.9c-33,32-67.2,62.8-97.8,97.2c-6.4,0.8-10.7-2.7-15.5-6.4
	c-17-13.1-34-26-54.5-33.5c-21-7.6-53.4-0.1-58.1,27.1c-4.2,23.9,6.3,45.6,30.2,55.8c10.8,4.6,21.6,9.3,27.5,20.5
	c-34.5,30.5-65.9,64.2-100,95.2c-35.1,31.8-68.4,65.6-102.5,98.4c-3.6,3.5-6.7,8.6-14.2,6.2c-3.6-3.3-0.4-11.9-7.9-13.6l-0.2-5.2
	C7.8,2995.6,10.9,2991.8,1.4,2987.9z M1066.8,1269.8c-19.2,0.3-35.9,13.4-40.7,32.1c-5.4,21,1.7,39.5,19.5,49.5
	c15.2,8.5,32.1,13.3,48.1,19.6c45.8,17.9,89,41.7,128.7,70.7c21.9,16,40.1,35.9,61.6,52.1c14.8,11.1,42.5,9.5,54.2-4.1
	c12.8-14.9,17.2-42.5,5.1-56.2c-12.8-14.5-26.2-28.9-41.2-41c-57.6-46.4-120.9-83.4-190.1-109.6
	C1097,1277.2,1081.7,1270.5,1066.8,1269.8z M779.9,2154.1c0-19.7-0.7-21.6-14.2-35.9c-16.1-17.1-34.2-31.8-52.9-45.8
	c-44.5-33.7-93.5-61-145.6-81.2c-16.5-6.4-33.9-9.4-49.4,4.5c-24.6,22.2-24.5,62.4,16.9,77.7c66.2,24.4,124.5,60.3,173.7,110.8
	c13.1,13.5,33.1,17.8,48.1,10.8C773.6,2186.9,781,2172.8,779.9,2154.1z"/>
<path class="st1" d="M1588.1,1162.5c-14-19.7-33-33.6-53.2-46.1s-40.3-24.6-60.4-36.8c19.1-29.5,38.9-58.6,52.9-91.2
	c18.8-43.6,29-89.3,32.2-136.3c4.9-70.5-1.9-140.6-11.9-210.5c-7.5-52.2-16-104.5-13.3-157.6c1.6-30.6,8.2-59.5,30.1-82.5
	c44.2-46.4,99.7-47.2,145.5-1.9c11.9,11.7,22.1,25.1,36,41.1c0.6-20.4-7.1-35.1-10.3-50.5c-12.3-60.1-21.4-120.2-4.2-180.9
	c14.3-50.4,49.4-78,99.3-88.5c36.6-7.7,71.5-3.7,102.2,19.2c25.7,19.2,40.5,46.7,53.8,75c0.7,1.5,1.7,3,3.6,6.2
	c4.2-6.8,1.7-12.5,1.4-18.3c-2.7-53.2-0.5-105.5,27.2-153.4c16.6-28.8,42.6-43.5,74.2-47.7c36.7-4.9,72.1-0.7,98.5,29.4
	c19.9,22.7,26,50.7,27.9,79.9c0.6,9.7-1.2,19.7,1.5,29.1c8.8,2.5,11-4.3,14.6-8.3c25.8-28.7,56-48.7,95-56
	c40.7-7.5,78.6,23.4,83.7,58.5c6,42-6,77.4-27.7,111.3c-6.4,10-6.7,9.8-8.8,21.1c12.3,3.5,24.1-2.3,35.7-3.6
	c82.6-9.1,117,38.9,123,102.1c4.3,45.6-14.9,79.7-52.4,104.1c-37.1,24.2-79.1,34.7-122.2,41.7c-4,0.6-8,1.2-12,2.1
	c-0.8,0.2-1.3,1.7-2.6,3.6c22.8,5.5,45.3,10.8,65.9,22.2c42.2,23.4,60.7,60.1,63.5,106.6c4.7,78.7-39,124.4-111.1,144.7
	c-54.7,15.4-110.1,14.6-165.9,11.3c-3.4-0.2-7.1-1.2-10.5,5.1c11.9,6.2,24.2,11.9,35.7,18.9c25.8,15.4,47.2,34.8,55.1,65.4
	c10,38.4-3.8,70.6-28.1,98.6c-21.8,25.1-52.8,34.3-84.2,40.1c-58.3,10.8-117.7,11.9-176.6,17.4c-71.3,6.6-141.8,17.5-208.3,46.1
	c-48.6,20.9-91.5,49.8-127.8,88.5c-7.2,7.7-13.7,16.1-22.4,22.2c-4.9-1.3-7.2-5.5-10.4-9C1611.6,1183.4,1602.5,1170.1,1588.1,1162.5
	z"/>
<path class="st2" d="M1588.1,1162.5c14.4,7.6,23.6,20.9,34.2,32.5c3.2,3.5,5.5,7.6,10.4,9c10.6,22.9,27.5,41.9,39.2,64.3
	c32.3,61.7,50.6,126.8,53.1,196.6c1.9,55.3-5.1,109.2-22.8,161.2c-18.8,55.3-47.9,105.2-86.4,149.6
	c-95.9,110.5-198.9,214.3-302.2,317.8c-82.1,82.3-164.2,164.5-249.1,244c-45,42.1-89,85.3-134.4,127
	c-90.4,82.9-181.5,165.1-274.9,244.7c-86.8,73.9-174.9,146.1-266.8,213.4c-67.7,49.6-136.7,97.5-212.8,133.8
	c-36.5,17.4-73.4,34.5-115.5,32.6c-22.1-1-39.6-9.4-49.2-30.5c-0.7-1.2-1.5-2.3-2.2-3.5c-2.4-3.7-2.9-7.7-2.3-12
	c0.8-8.4,4.4-17.4-5.3-23.5c-1.5-4.9-1.2-10.2,0.6-14.9c7.5,1.7,4.3,10.2,7.9,13.6c7.5,2.5,10.5-2.7,14.2-6.2
	c34.1-32.8,67.4-66.6,102.5-98.4c34.1-30.9,65.5-64.7,100-95.2h3.6c21.6,15.2,37.6,36.2,56.1,54.5c16.7,16.5,39.1,17.6,56.7,3.3
	c14.8-12,20-36.1,9.2-55.2c-13.5-24-34.4-41.6-55-59.2l-0.1-6.9c30.6-34.4,64.8-65.2,97.8-97.2c33.9-33,71.2-62.5,101.8-98.9
	c1-1.2,1-3.3,1.5-4.9l7,7c2.7,2.2,5.6,4.2,8.2,6.5c21,18.9,50.3,12.8,64.1-12.3c11.6-21.1,4.3-37.8-8.8-54.3l-7.1-7
	c5.3,0.2,8.5-3.3,11.9-6.6c24.9-23.8,50.7-46.8,74.7-71.6c31.9-32.9,66.5-62.9,99.3-94.7c26.3-25.6,51.7-52.5,79.8-76
	c31.5-26.4,58.3-57.5,89.2-84.6c15.1-13.2,29.4-28.1,44.1-42.2c47.7-45.7,96.1-90.6,144.3-135.8l3.6-0.1
	c14.1,17.7,29.9,33.9,42.8,52.7c13.2,19.3,41.7,24.2,60.2,12.4c19.7-12.6,25.1-42.3,9.4-65c-14.2-20.5-28.6-41.2-48.8-56.7
	c0-2.3-0.1-4.6-0.1-6.8c16.2-18.4,33.7-35.7,52.4-51.7c14.5-12.4,27.4-26.8,41.1-40.3c68.6-68.1,141.8-131.5,209.2-201
	c16.6-17.1,36.6-31.1,50.8-50.6c26.8-36.8,48.3-76.6,63.1-119.7c11.7-34.1,20.7-69.2,20.6-105.7c0-11.9,4-23,3.9-34.8
	c-0.1-26.9-3.5-53.5-8.7-79.8C1598.9,1210.9,1593.3,1186.7,1588.1,1162.5z"/>
<path class="st0" d="M1,3019.6c9.6,6,6.1,15.1,5.3,23.5C-2,3036.7,0.8,3027.8,1,3019.6z"/>
<path class="st2" d="M1.4,2987.9c9.5,3.9,6.5,7.7-0.1,11.5C-0.4,2995.8-0.4,2991.5,1.4,2987.9z"/>
<path class="st0" d="M8.6,3055c0.7,1.2,1.5,2.3,2.2,3.5C8.9,3058,7.9,3057,8.6,3055z"/>
<path class="st3" d="M1066.8,1269.8c14.9,0.7,30.1,7.4,45.2,13.1c69.2,26.2,132.5,63.2,190.1,109.6c15,12.1,28.4,26.5,41.2,41
	c12,13.7,7.6,41.3-5.1,56.2c-11.8,13.7-39.4,15.3-54.2,4.1c-21.5-16.2-39.8-36-61.6-52.1c-39.7-29-82.9-52.8-128.7-70.7
	c-16.1-6.4-32.9-11.1-48.1-19.6c-17.7-10-24.9-28.5-19.5-49.5C1030.9,1283.2,1047.6,1270.1,1066.8,1269.8z"/>
<path class="st3" d="M779.9,2154.1c1.1,18.8-6.3,32.8-23.4,40.9c-15.1,7.1-35,2.7-48.1-10.8c-49.2-50.6-107.5-86.4-173.7-110.8
	c-41.3-15.2-41.5-55.5-16.9-77.7c15.5-14,32.9-10.9,49.4-4.5c52,20.2,101,47.5,145.6,81.2c18.7,14,36.8,28.8,52.9,45.8
	C779.2,2132.5,779.9,2134.4,779.9,2154.1z"/>
<path class="st4" d="M1108,1982.3l-3.6,0.1c-6.6-18-22.4-28.4-35.8-39.9c-19.4-16.7-38.9-33.4-60-48.1c-13.5-9.4-27.5-17.2-42-24.5
	c-22.2-11.2-37.2-32.1-31.9-55.7c6.4-27.9,31.9-38.1,52.8-31.1c16.2,5.3,30.4,14.8,44.6,23.5c37.3,23,71.9,49.9,104.1,79.5
	c7.7,7.1,13.7,15.9,20.9,23.6c3.9,4.2,7.5,9.4,14.3,9.1c0,2.3,0.1,4.6,0.1,6.8c-3.3-0.9-6.5-3-9.5,0.8c-9.2,11.5-23,18.1-32.5,29.2
	C1122.1,1964.3,1110.3,1969.5,1108,1982.3z"/>
<path class="st4" d="M504.7,2560.9l-7-7c-22.5-28.1-53.9-43.6-84.9-59.5c-24.3-12.5-33.5-35.2-23-59.7c8.5-19.8,35.4-30.4,58-20
	c32.2,14.8,63.5,31.5,89.3,56.7c7.9,7.7,16.1,15,24.1,22.5l7.1,7c-19.1,4.1-30.5,19.3-43.4,31.7
	C516.6,2540.5,503.8,2546.2,504.7,2560.9z"/>
<path class="st4" d="M296.6,2754.9l0.1,6.9c-3.4,0.6-7.7,0.2-10,2.1c-20.2,16.9-42.1,32.1-57.1,54.5h-3.6
	c-5.9-11.2-16.8-15.9-27.5-20.5c-23.9-10.2-34.4-31.9-30.2-55.8c4.8-27.2,37.1-34.7,58.1-27.1c20.5,7.5,37.6,20.4,54.5,33.5
	C285.9,2752.3,290.2,2755.7,296.6,2754.9z"/>
<path class="st5" d="M1108,1982.3c2.3-12.8,14.1-18,21.5-26.7c9.5-11.1,23.3-17.7,32.5-29.2c3-3.7,6.2-1.7,9.5-0.8
	c20.2,15.5,34.6,36.2,48.8,56.7c15.7,22.7,10.3,52.5-9.4,65c-18.4,11.8-47,6.9-60.2-12.4C1137.9,2016.2,1122.1,2000,1108,1982.3z"/>
<path class="st5" d="M229.7,2818.4c15-22.4,36.9-37.6,57.1-54.5c2.3-1.9,6.6-1.5,10-2.1c20.6,17.6,41.5,35.2,55,59.2
	c10.8,19.2,5.5,43.2-9.2,55.2c-17.6,14.3-40,13.1-56.7-3.3C267.2,2854.6,251.2,2833.6,229.7,2818.4z"/>
<path class="st5" d="M504.7,2560.9c-0.9-14.8,11.9-20.4,20.1-28.4c12.9-12.4,24.3-27.5,43.4-31.7c13.1,16.4,20.4,33.2,8.8,54.3
	c-13.8,25.1-43.1,31.3-64.1,12.3C510.3,2565.1,507.4,2563.1,504.7,2560.9z"/>
</svg>
