<svg id="Layer_1" data-name="Layer 1" xmlns="http://www.w3.org/2000/svg" viewBox="0 0 2537.07 3089.13"><defs><style>.cls-1{fill:#fb751b;}.cls-2{fill:#8ec540;}.cls-3{fill:#ec660b;}.cls-4{fill:#db5e09;}.cls-5{fill:#da5e09;}.cls-6{fill:#b6520e;}</style></defs><path class="cls-1" d="M5847.68,8518c-.37-30.87,7.64-60.42,15.63-89.7,30.8-112.72,78-219.12,127.39-324.57,65.82-140.53,139.2-277.12,214.59-412.71,95.15-171.12,195.17-339.33,298.1-505.86,71.44-115.58,144.35-230.21,220.51-342.73,30.24-44.66,59.88-89.83,95.92-130.31,42.48-47.7,93.65-83.17,152.09-108.06,59.18-25.2,121.42-35.91,185.55-32.9,49.45,2.32,97.62,12.12,143.46,31.77,6.38,2.73,12.34,7.11,19.82,6.71,20.15,12.26,40.39,24.37,60.43,36.82s39.18,26.46,53.19,46.13c5.24,24.25,10.84,48.43,15.64,72.77,5.19,26.33,8.55,52.9,8.7,79.84.06,11.78-3.93,22.85-3.91,34.75.06,36.44-8.91,71.53-20.62,105.66-14.77,43.05-36.34,82.84-63.11,119.67-14.2,19.56-34.18,33.52-50.77,50.62-67.38,69.49-140.54,132.9-209.17,201-13.62,13.52-26.57,27.93-41.06,40.3a517.24,517.24,0,0,0-52.38,51.66c-6.84.22-10.4-4.95-14.29-9.15-7.13-7.71-13.18-16.51-20.86-23.58-32.26-29.68-66.84-56.53-104.12-79.55-14.23-8.79-28.43-18.22-44.6-23.55-21-6.91-46.48,3.23-52.83,31.15-5.37,23.62,9.67,44.5,31.85,55.68,14.49,7.31,28.52,15.08,42,24.51,21.14,14.77,40.68,31.41,60,48.13,13.37,11.54,29.1,21.94,35.75,39.91-48.15,45.22-96.59,90.12-144.26,135.84-14.68,14.08-29,29-44.12,42.21-30.91,27-57.72,58.16-89.23,84.59-28.07,23.55-53.42,50.42-79.75,76-32.8,31.87-67.37,61.86-99.26,94.73-24,24.72-49.73,47.74-74.66,71.56-3.42,3.27-6.6,6.8-11.9,6.58-8.06-7.49-16.3-14.79-24.15-22.49-25.75-25.2-57.1-41.87-89.26-56.66-22.58-10.38-49.47.19-58,20-10.53,24.47-1.35,47.21,22.95,59.66,31,15.88,62.4,31.42,84.92,59.51-.46,1.67-.45,3.74-1.46,4.94-30.6,36.37-67.9,65.9-101.83,98.85-33,32-67.16,62.82-97.75,97.25-6.41.81-10.7-2.66-15.54-6.39-17-13.08-34-26-54.54-33.48-21-7.64-53.37-.14-58.13,27.07-4.19,23.91,6.27,45.57,30.16,55.78,10.75,4.59,21.63,9.3,27.52,20.53-34.52,30.48-65.87,64.25-100,95.18-35.08,31.79-68.35,65.57-102.47,98.41-3.64,3.5-6.7,8.64-14.17,6.18-3.59-3.33-.4-11.86-7.88-13.56l-.24-5.25C5854.14,8525.69,5857.17,8521.88,5847.68,8518ZM6913.12,6799.86a42.68,42.68,0,0,0-40.67,32.09c-5.43,21,1.72,39.54,19.46,49.49,15.19,8.52,32.06,13.27,48.12,19.63a571.51,571.51,0,0,1,128.68,70.73c21.85,16,40.07,35.89,61.62,52.06,14.83,11.14,42.46,9.54,54.22-4.14,12.78-14.86,17.19-42.5,5.15-56.16-12.81-14.52-26.2-28.91-41.23-41-57.6-46.38-120.91-83.36-190.12-109.58C6943.26,6807.26,6928,6800.58,6913.12,6799.86ZM6626.2,7684.15c0-19.67-.73-21.61-14.23-35.94-16.09-17.07-34.25-31.79-52.93-45.84a603.62,603.62,0,0,0-145.56-81.2c-16.53-6.39-33.87-9.43-49.41,4.54-24.64,22.17-24.45,62.43,16.85,77.66,66.21,24.42,124.45,60.27,173.7,110.84,13.13,13.48,33.08,17.84,48.15,10.78C6619.94,7716.93,6627.34,7702.9,6626.2,7684.15Z" transform="translate(-5846.29 -5530.08)"/><path class="cls-2" d="M7434.36,6692.57c-14-19.67-33-33.6-53.19-46.13s-40.28-24.56-60.43-36.82c19.12-29.52,38.85-58.58,52.89-91.16,18.8-43.61,29-89.32,32.2-136.26,4.85-70.55-1.88-140.62-11.9-210.54-7.48-52.22-16-104.51-13.3-157.65,1.56-30.57,8.17-59.49,30.08-82.46,44.25-46.37,99.67-47.17,145.47-1.88,11.86,11.74,22.1,25.12,36,41.11.59-20.43-7.13-35.11-10.27-50.49-12.3-60.11-21.4-120.23-4.24-180.93,14.26-50.43,49.4-78,99.27-88.51,36.6-7.71,71.49-3.66,102.18,19.23,25.7,19.17,40.51,46.67,53.84,75,.73,1.55,1.73,3,3.61,6.17,4.19-6.81,1.66-12.45,1.36-18.3-2.72-53.17-.49-105.49,27.2-153.41,16.64-28.81,42.64-43.47,74.16-47.71,36.74-4.94,72.07-.71,98.55,29.42,19.91,22.66,26,50.68,27.94,79.92.63,9.74-1.17,19.71,1.48,29.1,8.83,2.47,11-4.26,14.61-8.27,25.77-28.69,56-48.71,95-55.95,40.66-7.55,78.61,23.38,83.65,58.51,6,42-6,77.36-27.67,111.32-6.36,10-6.69,9.77-8.82,21.11,12.35,3.53,24.06-2.3,35.69-3.59,82.62-9.14,117,38.9,123.05,102.11,4.34,45.6-14.94,79.71-52.37,104.1-37.12,24.17-79.13,34.74-122.24,41.71-4,.65-8,1.19-12,2.08-.81.19-1.31,1.73-2.61,3.58,22.83,5.53,45.26,10.76,65.87,22.19,42.17,23.38,60.74,60.1,63.54,106.61,4.74,78.66-39,124.39-111.12,144.7-54.7,15.4-110.09,14.65-165.85,11.32-3.44-.21-7.14-1.16-10.47,5.11,11.9,6.24,24.17,11.94,35.7,18.86,25.76,15.44,47.18,34.8,55.15,65.4,10,38.41-3.75,70.59-28.1,98.64-21.83,25.15-52.81,34.26-84.22,40.06-58.33,10.76-117.68,11.94-176.59,17.39-71.31,6.61-141.75,17.48-208.3,46.09-48.63,20.92-91.54,49.83-127.82,88.48-7.2,7.66-13.67,16.11-22.42,22.21-4.91-1.34-7.19-5.47-10.37-8.95C7457.93,6713.47,7448.78,6700.21,7434.36,6692.57Z" transform="translate(-5846.29 -5530.08)"/><path class="cls-3" d="M7434.36,6692.57c14.42,7.64,23.57,20.9,34.19,32.52,3.18,3.48,5.46,7.61,10.37,8.95,10.57,22.92,27.47,41.92,39.17,64.27,32.32,61.73,50.61,126.77,53.06,196.65,1.94,55.28-5.12,109.21-22.76,161.21-18.77,55.31-47.91,105.25-86.41,149.6-95.92,110.52-198.89,214.34-302.17,317.84-82.09,82.27-164.21,164.52-249.08,244-45,42.12-89,85.34-134.42,127-90.39,82.94-181.48,165.07-274.88,244.66-86.75,73.92-174.86,146.06-266.79,213.41-67.71,49.61-136.68,97.53-212.79,133.78-36.51,17.4-73.44,34.46-115.54,32.64-22.13-1-39.6-9.4-49.24-30.5-.73-1.17-1.47-2.34-2.2-3.52-2.44-3.66-2.86-7.72-2.32-12,.8-8.39,4.35-17.41-5.29-23.45a23.29,23.29,0,0,1,.58-14.93c7.48,1.7,4.29,10.23,7.88,13.56,7.47,2.46,10.53-2.68,14.17-6.18,34.12-32.84,67.39-66.62,102.47-98.41,34.13-30.93,65.48-64.7,100-95.18l3.6,0c21.57,15.24,37.59,36.18,56.15,54.51,16.67,16.48,39.1,17.63,56.66,3.35,14.79-12,20-36.07,9.24-55.24-13.53-24-34.4-41.59-55-59.22l-.1-6.87c30.59-34.43,64.76-65.21,97.75-97.25,33.93-32.95,71.23-62.48,101.83-98.85,1-1.2,1-3.27,1.46-4.94l7,7.05c2.74,2.16,5.61,4.18,8.2,6.52,21,18.94,50.3,12.75,64.12-12.32,11.6-21.06,4.34-37.84-8.77-54.26l-7.08-7c5.3.22,8.48-3.31,11.9-6.58,24.93-23.82,50.67-46.84,74.66-71.56,31.89-32.87,66.46-62.86,99.26-94.73,26.33-25.6,51.68-52.47,79.75-76,31.51-26.43,58.32-57.55,89.23-84.59,15.08-13.18,29.44-28.13,44.12-42.21,47.67-45.72,96.11-90.62,144.26-135.84l3.65-.06c14.1,17.7,29.91,33.91,42.8,52.73,13.22,19.31,41.73,24.19,60.17,12.39,19.7-12.6,25.08-42.31,9.37-65.05-14.16-20.49-28.58-41.24-48.8-56.73q-.07-3.41-.14-6.83a517.24,517.24,0,0,1,52.38-51.66c14.49-12.37,27.44-26.78,41.06-40.3,68.63-68.14,141.79-131.55,209.17-201,16.59-17.1,36.57-31.06,50.77-50.62,26.77-36.83,48.34-76.62,63.11-119.67,11.71-34.13,20.68-69.22,20.62-105.66,0-11.9,4-23,3.91-34.75-.15-26.94-3.51-53.51-8.7-79.84C7445.2,6741,7439.6,6716.82,7434.36,6692.57Z" transform="translate(-5846.29 -5530.08)"/><path class="cls-1" d="M5847.26,8549.64c9.64,6,6.09,15.06,5.29,23.45C5844.35,8566.73,5847.14,8557.88,5847.26,8549.64Z" transform="translate(-5846.29 -5530.08)"/><path class="cls-3" d="M5847.68,8518c9.49,3.9,6.46,7.71-.08,11.48A13.28,13.28,0,0,1,5847.68,8518Z" transform="translate(-5846.29 -5530.08)"/><path class="cls-1" d="M5854.87,8585.06c.73,1.18,1.47,2.35,2.2,3.52C5855.2,8588.12,5854.21,8587.11,5854.87,8585.06Z" transform="translate(-5846.29 -5530.08)"/><path class="cls-4" d="M6913.12,6799.86c14.91.72,30.14,7.4,45.23,13.12,69.21,26.22,132.52,63.2,190.12,109.58,15,12.09,28.42,26.48,41.23,41,12,13.66,7.63,41.3-5.15,56.16-11.76,13.68-39.39,15.28-54.22,4.14-21.55-16.17-39.77-36-61.62-52.06A571.51,571.51,0,0,0,6940,6901.07c-16.06-6.36-32.93-11.11-48.12-19.63-17.74-9.95-24.89-28.5-19.46-49.49A42.68,42.68,0,0,1,6913.12,6799.86Z" transform="translate(-5846.29 -5530.08)"/><path class="cls-4" d="M6626.2,7684.14c1.14,18.76-6.26,32.79-23.43,40.85-15.07,7.06-35,2.7-48.15-10.78-49.25-50.57-107.49-86.42-173.7-110.84-41.3-15.23-41.49-55.49-16.85-77.66,15.54-14,32.88-10.93,49.41-4.54a603.62,603.62,0,0,1,145.56,81.2c18.68,14.05,36.84,28.77,52.93,45.84C6625.47,7662.54,6626.22,7664.48,6626.2,7684.14Z" transform="translate(-5846.29 -5530.08)"/><path class="cls-5" d="M6954.28,7512.37l-3.65.06c-6.65-18-22.38-28.37-35.75-39.91-19.36-16.72-38.9-33.36-60-48.13-13.49-9.43-27.52-17.2-42-24.51-22.18-11.18-37.22-32.06-31.85-55.68,6.35-27.92,31.86-38.06,52.83-31.15,16.17,5.33,30.37,14.76,44.6,23.55,37.28,23,71.86,49.87,104.12,79.55,7.68,7.07,13.73,15.87,20.86,23.58,3.89,4.2,7.45,9.37,14.29,9.15q.06,3.42.14,6.83c-3.27-.9-6.55-2.95-9.52.78-9.21,11.55-23,18.07-32.48,29.21C6968.42,7494.39,6956.59,7499.58,6954.28,7512.37Z" transform="translate(-5846.29 -5530.08)"/><path class="cls-5" d="M6351,8091l-7-7.05c-22.52-28.09-53.92-43.63-84.92-59.51-24.3-12.45-33.48-35.19-22.95-59.66,8.51-19.78,35.4-30.35,58-20,32.16,14.79,63.51,31.46,89.26,56.66,7.85,7.7,16.09,15,24.15,22.49l7.08,7c-19.1,4.15-30.5,19.28-43.42,31.69C6362.86,8070.56,6350.11,8076.25,6351,8091Z" transform="translate(-5846.29 -5530.08)"/><path class="cls-5" d="M6142.89,8285l.1,6.87c-3.37.63-7.66.16-9.95,2.08-20.21,16.91-42.11,32.12-57.08,54.52l-3.6,0c-5.89-11.23-16.77-15.94-27.52-20.53-23.89-10.21-34.35-31.87-30.16-55.78,4.76-27.21,37.15-34.71,58.13-27.07,20.54,7.47,37.59,20.4,54.54,33.48C6132.19,8282.33,6136.48,8285.8,6142.89,8285Z" transform="translate(-5846.29 -5530.08)"/><path class="cls-6" d="M6954.28,7512.37c2.31-12.79,14.14-18,21.54-26.67,9.48-11.14,23.27-17.66,32.48-29.21,3-3.73,6.25-1.68,9.52-.78,20.22,15.49,34.64,36.24,48.8,56.73,15.71,22.74,10.33,52.45-9.37,65.05-18.44,11.8-46.95,6.92-60.17-12.39C6984.19,7546.28,6968.38,7530.07,6954.28,7512.37Z" transform="translate(-5846.29 -5530.08)"/><path class="cls-6" d="M6076,8348.46c15-22.4,36.87-37.61,57.08-54.52,2.29-1.92,6.58-1.45,9.95-2.08,20.62,17.63,41.49,35.21,55,59.22,10.8,19.17,5.55,43.21-9.24,55.24-17.56,14.28-40,13.13-56.66-3.35C6113.55,8384.64,6097.53,8363.7,6076,8348.46Z" transform="translate(-5846.29 -5530.08)"/><path class="cls-6" d="M6351,8091c-.87-14.75,11.88-20.44,20.13-28.37,12.92-12.41,24.32-27.54,43.42-31.69,13.11,16.42,20.37,33.2,8.77,54.26-13.82,25.07-43.13,31.26-64.12,12.32C6356.59,8095.18,6353.72,8093.16,6351,8091Z" transform="translate(-5846.29 -5530.08)"/></svg>