<?xml version="1.0" encoding="iso-8859-1"?>
<!-- Generator: Adobe Illustrator 25.3.1, SVG Export Plug-In . SVG Version: 6.00 Build 0)  -->
<svg version="1.1" id="Layer_1" xmlns="http://www.w3.org/2000/svg" xmlns:xlink="http://www.w3.org/1999/xlink" x="0px" y="0px"
	 viewBox="0 0 4320 4320" style="enable-background:new 0 0 4320 4320;" xml:space="preserve">
<path style="fill:#75B14D;" d="M2623.879,1296.883c24.75-29.317,54.524-52.762,86.592-73.391
	c33.018-21.24,67.081-40.668,102.479-57.735c68.383-32.969,124.347-11.814,170.622,39.764
	c27.398,30.538,44.474,67.281,60.581,104.585c12.076,27.969,23.562,56.175,37.981,83.179
	c24.265,45.442,60.549,78.72,103.057,105.967c28.311,18.147,57.522,34.885,85.943,52.864c23.635,14.951,46.62,30.901,65.412,52.026
	c-5.326,3.624-1.595,7.608-0.541,11.569c6.544,24.594,14.591,48.784,19.204,73.895c9.85,53.616,20.234,107.088,27.219,161.249
	c4.126,31.993,6.417,64.111,9.683,96.125c4.372,42.856-1.839,85.865-4.217,128.701c-0.873,15.729-2.884,32.049-4.76,47.989
	c-2.899,24.636-9.32,48.817-9.713,73.748c-4.695,2.857-5.548,7.935-7.387,12.509c-4.416,10.98-8.815,21.975-13.59,32.801
	c-25.873,58.653-61.006,111.5-102.106,160.407c-7.083,8.429-13.519,18.704-25.03,23.265c-3.511-22.703,1.595-43.633,1.942-64.729
	c0.614-37.38-4.843-74.608-3.404-112.019c0.771-20.038-2.079-39.877-4.745-59.479c-6.533-48.028-14.98-95.803-27.902-142.637
	c-2.674-9.693-2.15-18.141,6.541-25.259c13.329-10.917,21.513-25.827,28.916-40.994c11.486-23.532,22.917-47.112,33.529-71.045
	c26.615-60.027,40.799-122.694,38.364-188.673c-0.177-4.788,1.381-10.201-5.067-14.275c-10.199,16.969-20.294,33.956-30.574,50.831
	c-29.647,48.666-63.191,94.209-106.266,132.081c-3.677,3.233-6.756,7.708-14.04,5.386c-2.784-5.888-6.096-12.548-9.116-19.337
	c-13.416-30.161-26.877-60.218-42.594-89.367c-51.893-96.245-115.623-183.053-196.925-256.781
	c-33.823-30.672-69.452-58.736-107.602-83.629c-10.872-7.094-21.285-15.334-34.098-19.101c-2.446-3.282-4.894-6.552-10.323-5.222
	c1.815,4.707,4.932,6.319,8.425,7.481c2.065,5.998,5.643,11.031,9.776,15.773c52.352,60.067,94.345,127.077,130.433,197.77
	c38.107,74.646,66.494,153.25,88.441,233.985c16.317,60.025,27.345,121.239,35.615,182.987c4.209,31.431,5.843,63.057,9.782,94.493
	c2.032,16.218,0.357,32.899,0.357,52.126c-22.426-25.928-46.91-44.918-74.877-58.957c-64.971-32.614-133.549-44.711-206.233-38.496
	c-44.636,3.817-87.168,13.594-128.252,30.809c-2.927,1.227-7.393,0.966-6.497,7.465c18.498-7.205,36.02-0.554,53.479,2.378
	c29.031,4.875,55.982,16.806,83.166,27.69c42.842,17.154,85.585,34.545,126.231,56.568c26.916,14.584,53.348,29.885,73.804,53.48
	c22.817,26.318,45.46,52.826,72.102,75.484c4.234,3.601,4.889,7.325,4.759,12.946c-1.064,46.129-7.606,91.739-13.22,137.382
	c-1.846,15.011-1.439,30.932-9.813,47.273c-36.522-29.728-77.746-49.174-122.85-60.678c-45.2-11.528-91.097-13.569-137.323-10.879
	c-46.636,2.714-114.286,22.256-130.175,37.373c29.145-2.801,56.565,2.146,83.31,11.479c58.928,20.563,116.05,45.318,172.344,72.288
	c40.942,19.615,73.56,48.742,103.207,82.084c5.681,6.389,7.72,12.538,5.787,21.896c-12.846,62.203-28.97,123.582-45.2,184.938
	c-2.103,7.95-3.138,16.865-9.917,23.323c-2.264-1.583-3.899-2.49-5.253-3.709c-38.42-34.606-83.765-55.076-133.441-68.175
	c-38.022-10.026-76.395-9.856-115.043-9.973c-49.45-0.149-96.063,12.417-141.562,30.353c-3.105,1.224-7.523,1.732-7.207,7.363
	c25.09-1.09,50.011-0.29,73.92,8.125c77.697,27.347,154.484,56.782,224.807,100.607c17.06,10.632,32.37,23.187,42.776,40.832
	c-9.669,3.359-16.496,11.04-24.85,16.414c-56.57,36.385-113.519,71.885-175.341,99.189
	c-57.108,25.222-116.034,44.094-176.805,57.864c-16.978,3.847-34.386,5.206-51.188,9.278
	c-34.443,8.346-69.283,13.371-104.488,16.854c-14.206,1.405-28.48,2.424-42.596,4.095c-36.47,4.317-72.911,7.64-109.661,6.925
	c-14.351-0.279-29.005,1.329-42.986-1.058c-20.271-3.46-40.873-2.322-60.99-6.26c-24.13-19.733-43.086-44.252-63.093-67.835
	c-14.4-16.975-24.681-37.05-40.438-52.955l0.071,0.148c-0.124-3.265-1.466-5.861-4.223-7.679
	c-17.516-32.906-34.858-65.897-48.371-100.726c-2.083-9.699-4.171-19.397-6.246-29.098c-7.651-35.756-7.996-71.332,1.884-106.835
	c2.332-8.379,7.871-15.66,8.071-24.688c3.431-5.169,7.053-10.223,10.259-15.528c11.704-19.367,26.321-35.979,43.644-50.703
	c27.936-23.744,59.614-40.595,93.199-54.462c26.724-11.033,52.456-23.781,70.357-47.691c19.543-26.102,24.556-56.663,25.976-88.216
	c1.174-26.107,1.924-52.251,3.908-78.299c1.464-19.215,5.073-38.102,12.246-56.299c13.118-33.281,34.671-60.181,60.991-83.73
	c14.358-12.846,28.68-25.733,43.018-38.602c1.741-0.611,3.804-0.812,5.175-1.893c24.861-19.598,50.452-38.377,74.215-59.235
	c25.736-22.591,49.061-47.69,62.908-79.916c13.759-32.02,19.888-64.921,11.316-99.488c-0.947-27.873-10.91-53.569-19.653-79.475
	c-13.733-40.688-29.718-80.599-38.96-122.764c-11.882-54.203-2.829-103.915,29.911-148.905
	c18.086-24.853,40.401-45.916,62.939-66.514c21.647-19.783,43.552-39.235,62.841-61.367c25.554-29.32,43.673-62.611,47.116-101.774
	c2.179-24.789,0.764-49.896,0.903-74.86c0.076-13.714,0.378-27.387,2.312-41.019
	C2586.024,1355.323,2602.034,1324.79,2623.879,1296.883z"/>
<path style="fill:#F6E8BB;" d="M755.98,2256.766c-4.528-15.167-3.448-30.949-1.625-45.963
	c4.164-34.303,11.314-68.017,24.642-100.379c6.993-16.98,17.322-31.227,27.899-45.655c8.193-0.413,12.124-7.994,18.793-11.161
	c13.877-6.589,28.219-8.531,43.331-6.827c17.332,1.954,30.337,11.329,42.469,26.454c5.269-12.801,9.683-23.522,14.096-34.243
	c20.881-40.011,43.201-78.98,78.608-108.464c5.342-3.139,10.642-6.352,16.033-9.405c33.639-19.054,69.377-21.381,106.392-13.193
	c15.292,3.383,25.26,15.34,37.518,23.59c19.764,13.301,23.422,13.65,39.541-3.512c20.842-22.191,40.532-45.464,62.785-66.323
	c2.862-2.683,4.444-5.942,4.471-9.905c2.791-0.189,5.781,0.637,8.282-1.666c-3.59-3.482-6.073-1.47-8.374,1.556
	c-20.232,0.539-38.231,10.178-57.685,14.252c-31.609,6.62-63.447,14.444-95.367,15.022c-67.733,1.227-135.793,5.353-203.181-6.597
	c-2.295-2.101-4.975-3.908-6.826-6.345c-29.802-39.242-50.204-82.834-60.877-131.02c-6.88-31.065-1.991-59.174,19.296-83.621
	c18.484-14.936,39.588-19.481,64.499-13.9c-11.114-43.711-18.397-85.794-19.924-128.703c3.736-6.13,2.906-13.077,3.838-19.776
	c5.024-36.12,20.378-66.773,47.905-91.372c15.65-13.985,34.034-21.65,53.666-27.329c9.354,0.133,18.734-0.136,28.055,0.482
	c19.509,1.295,26.254-3.274,30.142-21.846c0.884-4.22,0.989-8.657,1.004-12.996c0.072-21.205,2.227-42.277,5.018-63.224
	c2.716-20.38,7.27-40.479,16.998-58.912c19.154-36.293,45.329-61.936,89.899-62.39c23.166-0.236,43.945-9.026,60.266-25.956
	c28.752-29.825,63.059-50.446,102.164-63.476c16.483-4.099,32.761-8.919,49.69-11.29c8.665-1.214,18.148-0.576,25.581-6.85
	c27.426,0.13,54.86,0.695,82.276,0.229c16.893-0.287,33.271,3.647,50.084,4.323c19.037,0.766,30.502-8.431,39.336-23.05
	c3.502-5.796,5.782-12.376,8.254-18.741c12.06-31.052,37.281-47.089,70.155-49.403c37.051-2.608,70.51,8.522,102.274,24.18
	c37.067,18.272,75.33,24.465,115.823,21.296c3.613,14.617,3.966,29.487,3.7,44.445c-0.673,37.904-4.41,75.473-11.009,112.815
	c-6.936,39.245-16.96,77.539-31.081,114.881c-10.364,27.406-25.562,52.763-35.402,80.035
	c-13.548,37.548-30.056,73.425-47.911,108.959c-20.291,40.38-47.772,75.661-76.792,109.667
	c-22.095,25.891-46.074,50.271-70.344,74.177c-16.336,16.091-34.558,30.281-52.083,45.149
	c-58.097,49.293-123.568,85.52-195.709,109.737c-16.529,5.548-31.45,13.952-46.283,23.115c12.525-0.157,24.612-4.32,36.78-1.649
	c15.772,3.461,30.852,8.207,44.553,17.913c17.422,12.342,36.774,22.354,59.188,18.594c43.285-7.262,85.422-4.035,126.489,11.402
	c11.046,4.152,21.367,12.204,32.572,13.43c12.199,1.335,21.766-11.16,34.238-13.346c2.179,4.933,6.625,7.161,11.106,9.39
	c3.898,1.939,8.033,3.733,8.046,9.125c-3.519,7.092-13.932,5.781-16.827,13.605c2.128,6.038,7.731,7.912,12.273,11.092
	c28.036,19.628,55.932,39.924,79.331,64.691c18.216,19.281,45.595,19.995,66.141,7.338c38.49-23.711,75.98-18.72,108.513,12.372
	c23.303,22.27,38.954,49.606,54.206,77.313c9.925,18.031,21.299,34.799,35.139,50.192c10.71,11.912,25.42,17.759,37.579,27.97
	c-2.964,6.239-4.957,12.934-8.857,18.222c-20.682,28.043-44.281,53.648-67.681,79.402c-10.921,12.019-23.942,21.725-35.933,32.559
	c-32.449,29.32-67.995,54.058-105.74,76.036c-21.052,12.258-43.954,21.143-64.219,34.456
	c-35.058,23.031-71.74,42.741-110.674,58.063c-44,17.316-89.388,29.622-136.165,37.459c-20.837,3.492-41.589,6.36-62.589,8.449
	c-19.093,1.899-37.865,6.513-57.282,6.127c-21.22-0.421-42.497-0.915-63.673,0.141c-23.191,1.157-46.176-1.288-68.739-4.838
	c-15.798-2.485-31.921-2.576-47.68-7.734c-27.677-9.058-55.919-17.139-84.126-23.831c-33.825-8.025-67.593-15.315-100.516-26.899
	c-47.242-16.624-92.181-37.887-133.743-65.509c-49.244-32.727-96.485-68.246-137.73-111.068
	C769.243,2262.888,764.969,2255.856,755.98,2256.766z M1001.546,1618.982c-2.114,10.076,3.112,17.364,3.181,25.556
	c0.292,34.583,11.81,65.727,30.047,94.585c19.185,30.36,63.257,42.941,92.261,11.174c15.993-17.517,25.145-38.269,31.274-60.4
	c8.456-30.53,11.634-61.298,8.283-93.505c-4.26-40.948-13.957-78.237-45.213-107.108c-13.455-12.428-29.04-20.362-47.493-14.533
	c-18.906,5.973-33.77,17.818-44.142,35.441C1009.619,1544.389,1004.16,1582.181,1001.546,1618.982z M1154.614,2090.861
	c0-5.614,0.456-11.272-0.082-16.834c-1.898-19.622-19.326-44.062-37.469-46.242c-32.147-3.863-60.314,5.281-85.688,24.169
	c-25.114,18.694-46.552,40.802-64.044,67.116c-22.695,34.141-36.553,70.474-33.755,111.975
	c2.116,31.386,25.269,47.754,51.112,48.525c41.18,1.23,71.257-20.943,99.058-45.514c18.273-16.15,32.819-36.98,45.422-58.654
	C1144.467,2149.092,1154.254,2121.48,1154.614,2090.861z"/>
<path style="fill:#679D47;" d="M2068.696,3231.335c20.119,3.938,40.72,2.8,60.992,6.259c13.981,2.386,28.635,0.779,42.986,1.058
	c36.751,0.715,73.191-2.608,109.661-6.925c14.116-1.671,28.39-2.69,42.596-4.095c35.205-3.483,70.045-8.508,104.488-16.854
	c16.802-4.072,34.21-5.431,51.188-9.278c60.77-13.771,119.697-32.642,176.805-57.864c61.822-27.304,118.771-62.804,175.341-99.189
	c8.354-5.373,15.18-13.054,24.845-16.41c15.303,9.495,20.885,22.155,12.821,39.285c-0.53,1.126-0.987,2.31-1.289,3.515
	c-8.333,33.24-17.016,66.579-15.683,101.142c1.016,26.347,5.2,52.333,25.333,72.262c28.599,28.308,64.049,34.791,102.004,29.678
	c36.373-4.9,61.921-28.043,83.779-55.434c21.931-27.484,38.732-58.149,51.093-90.984c4.246-11.279,11.362-15.42,22.171-16.087
	c14.398-0.888,28.31-4.533,42.151-8.127c88.068-22.864,157.219-70.391,201.318-152.074c19.924-36.905,36.229-75.231,51.61-114.064
	c1.005-2.538,5.219-6.244-0.232-10.059c-37.828,32.523-79.173,60.12-124.021,82.257c-44.461,21.947-89.939,41.162-141.291,50.841
	c11.361-54.431,20.725-106.336,27.952-158.633c7.064-51.12,13.649-102.316,16.922-153.778c1.157-18.198,6.988-29.624,22.537-39.236
	c44.244-27.352,78.301-65.275,107.142-108.195c46.035-68.507,47.846-145.294,41.55-223.386
	c-2.145-26.611-6.628-53.034-10.042-79.543c0.392-24.931,6.813-49.112,9.713-73.748c1.876-15.939,3.886-32.26,4.76-47.989
	c2.378-42.837,8.589-85.845,4.217-128.701c-3.266-32.014-5.557-64.133-9.683-96.125c-6.985-54.161-17.369-107.632-27.219-161.249
	c-4.614-25.111-12.66-49.302-19.204-73.895c-1.054-3.961-4.785-7.945,0.541-11.569c30.525,28.623,48.266,64.687,59.101,104.283
	c10.051,36.731,13.914,74.458,16.553,112.451c3.702,53.298,4.479,106.925,15.688,159.525
	c10.507,49.306,30.364,94.845,55.473,138.205c25.611,44.228,52.545,87.703,77.611,132.233
	c47.647,84.647,81.825,174.718,104.583,269.077c14.465,59.974,23.647,120.716,27.999,182.389
	c2.907,41.204,2.896,82.365,1.566,123.407c-1.61,49.718-6.391,99.445-22.516,147.127c-19.23,56.865-52.987,103.992-97.065,144.252
	c-53.9,49.232-116.257,85.697-180.094,119.929c-87.443,46.889-177.986,86.951-271.287,120.584
	c-113.363,40.865-229.283,71.729-349.021,87.604c-63.153,8.373-126.484,12.773-190.094,10.857
	c-99.047-2.981-195.919-18.328-287.968-56.788c-53.377-22.302-100.069-55.692-145.328-91.153
	c-25.011-19.596-48.155-41.335-71.684-62.618C2076.277,3240.786,2072.487,3236.061,2068.696,3231.335z"/>
<path style="fill:#F6E8BB;" d="M1912.643,3002.287c13.513,34.829,30.855,67.819,48.37,100.728c-0.283,3.491,0.043,6.645,4.224,7.677
	c0,0-0.071-0.148-0.077-0.144c-2.11,8.521,2.659,15.635,4.938,23.184c14.616,48.415,27.604,97.12,28.453,148.169
	c-27.051,0.524-53.42,4.38-77.307,18.028c-19.469,11.124-38.865,22.448-57.66,34.658c-24.125,15.675-50.929,25.009-78.856,25.909
	c-28.004,0.902-53.818-8.231-69.514-35.353c-23.73-41.003-33.059-44.587-78.784-32.897c-47.828,12.229-96.24,19.411-145.788,17.655
	c-49.004-1.736-94.412-14.891-135.684-41.645c-4.704-3.05-9.433-6.096-13.89-9.487c-21.297-16.205-44.944-19.389-70.805-14.624
	c-17.226,3.173-33.118-3.717-48.095-11.278c-22.347-11.282-38.807-28.832-50.61-50.874c-16.975-31.7-24.396-66.371-31.727-101.082
	c-0.128-0.607-0.082-1.249-0.193-1.861c-5.69-31.383-13.551-36.998-44.356-29.889c-32.551,7.512-60.524-3.213-85.864-21.818
	c-32.688-24.001-49.702-57.779-57.417-97.127c-3.64-18.564-3.767-37.094-3.7-55.765c-0.759-24.106-0.146-48.203,2.397-74.314
	c-17.809,9.382-33.955,9.985-50.375,4.028c-29.987-11.766-42.587-34.71-46.495-65.868c-1.686-13.438,2.704-26.87-2.087-39.855
	c2.551-2.158,2.996-5.129,3.6-8.227c4.368-22.412,9.184-44.723,17.357-66.135c7.699-20.17,15.043-40.545,30.103-56.823
	c2.487-0.03,5.195,0.58,7.429-0.189c28.244-9.715,57.495-14.854,86.744-20.362c11.666-2.197,20.675-0.309,29.347,7.036
	c16.126,13.658,33.776,25.245,51.14,37.214c39.035,26.908,80.222,49.824,123.432,69.496c68.26,31.075,139.703,47.178,214.457,49.683
	c30.578,1.024,60.654-3.37,90.831-7.364c30.1-3.984,59.873-9.824,89.313-16.794c20.419-4.834,38.554-6.438,53.86,10.763
	c1.635,1.838,3.654,3.452,5.759,4.737c33.626,20.523,62.427,46.981,91.249,73.49c18.409,16.932,34.919,35.689,50.493,54.993
	c22.147,27.45,44.019,55.098,60.134,87.151C1872.212,2947.392,1892.061,2975.213,1912.643,3002.287z M1192.505,2823.039
	c-2.572-39.991-9.879-76.794-25.926-111.748c-9.075-19.768-23.495-34.92-39.332-48.887c-8.426-7.431-18.659-11.107-30.391-12.66
	c-28.599-3.786-45.556,13.695-57.426,33.97c-15.9,27.158-18.456,59.081-19.049,90.105c-0.315,16.461,3.697,33.184,7.123,49.501
	c8.061,38.396,22.217,73.323,53.218,100.173c27.943,24.201,64.263,21.142,85.169-8.777
	C1185.644,2886.446,1189.344,2853.99,1192.505,2823.039z"/>
<path style="fill:#F4D4A5;" d="M1912.643,3002.287c-20.582-27.074-40.431-54.895-55.653-85.174
	c-16.115-32.054-37.987-59.702-60.134-87.151c-15.574-19.303-32.084-38.061-50.493-54.993
	c-28.822-26.509-57.623-52.967-91.249-73.49c-2.105-1.285-4.124-2.899-5.759-4.737c-15.305-17.201-33.44-15.597-53.86-10.763
	c-29.44,6.97-59.213,12.81-89.313,16.794c-30.177,3.994-60.253,8.388-90.831,7.364c-74.754-2.505-146.197-18.608-214.457-49.683
	c-43.21-19.672-84.397-42.588-123.432-69.496c-17.363-11.969-35.014-23.556-51.14-37.214c-8.672-7.345-17.681-9.233-29.347-7.036
	c-29.249,5.509-58.5,10.647-86.744,20.362c-2.234,0.768-4.941,0.158-7.427,0.191c3.127-11.044,13.851-16.4,19.268-25.729
	c13.6-12.313,29.018-22.333,45.5-33.074c-24.09-19.606-44.004-40.201-67.827-56.161c-8.817-7.766-17.571-15.604-26.461-23.285
	c-30.507-26.356-61.576-52.136-84.581-85.906c-2.02-2.966-5.341-5.045-8.058-7.536c-5.221-12.487-10.444-24.973-15.662-37.461
	c-5.528-13.23-7.757-27.177-8.991-41.343c8.979-0.91,13.252,6.122,18.28,11.342c41.244,42.822,88.486,78.341,137.73,111.068
	c41.562,27.622,86.501,48.885,133.743,65.509c32.922,11.584,66.691,18.874,100.516,26.899c28.206,6.692,56.449,14.773,84.126,23.831
	c15.759,5.158,31.882,5.249,47.68,7.734c22.562,3.55,45.547,5.995,68.739,4.838c21.177-1.057,42.453-0.563,63.673-0.141
	c19.417,0.386,38.188-4.228,57.282-6.127c21-2.089,41.752-4.957,62.589-8.449c46.777-7.838,92.165-20.143,136.165-37.459
	c38.933-15.323,75.616-35.033,110.674-58.063c20.265-13.313,43.167-22.198,64.219-34.456c37.745-21.978,73.292-46.716,105.74-76.036
	c11.99-10.834,25.012-20.54,35.933-32.559c23.4-25.754,46.999-51.359,67.681-79.402c3.9-5.288,5.892-11.983,8.857-18.222
	c-12.159-10.212-26.869-16.058-37.579-27.97c-13.84-15.394-25.214-32.162-35.139-50.192c-15.252-27.707-30.903-55.044-54.206-77.313
	c-32.534-31.092-70.024-36.083-108.513-12.372c-20.547,12.657-47.925,11.943-66.141-7.338
	c-23.399-24.767-51.296-45.062-79.331-64.691c-4.542-3.18-10.144-5.054-12.273-11.092c2.895-7.824,13.308-6.513,16.826-13.6
	c6.803-0.578,13.039-4.045,20.162-3.362c20.044,1.919,38.069-5.091,55.518-13.666c27.029-13.282,50.296-31.621,70.504-53.895
	c1.673,2.047,3.566,3.155,6.424,2.417c24.469-6.317,46.792-2.28,66.751,13.706c4.849,3.884,10.439,6.839,15.313,10.695
	c30.69,24.276,61.002,49.038,91.972,72.948c29.596,22.849,59.967,44.793,95.78,57.161c16.924,5.845,33.817,11.227,52.298,12.431
	c32.797,2.135,56.21,22.133,75.362,46.955c12.516,16.222,23.266,33.797,34.992,50.638c17.943,25.771,40.523,35.814,67.173,28.495
	c22.13-6.078,43.752-13.98,65.771-20.496c10.693-3.164,20.734-8.838,32.282-8.922c8.572,34.566,2.443,67.468-11.316,99.488
	c-13.847,32.226-37.172,57.325-62.908,79.916c-23.762,20.858-49.354,39.636-74.215,59.235c-1.371,1.08-3.434,1.282-5.176,1.89
	c-48.669-0.101-97.338-0.284-146.007-0.248c-15.476,0.012-15.86,0.492-19.735,16.152c-12.552,50.727-34.293,96.53-68.037,137.084
	c-36.269,43.588-77.191,80.994-127.508,107.565c-54.65,28.858-111.549,51.853-172.089,65.162c-4.82,1.06-9.251,2.25-13.572,7.675
	c10.49,6.964,18.865,15.202,30.663,18.381c22.948,6.185,45.655,11.414,69.421,2.425c10.335-3.909,21.307,2.388,25.684,12.638
	c2.174,5.09,3.257,10.687,4.488,16.134c6.976,30.874,13.08,61.984,26.154,91.117c6.632,14.778,14.767,28.479,26.943,39.447
	c-0.2,9.028-5.739,16.309-8.071,24.688c-9.88,35.503-9.535,71.079-1.884,106.835
	C1908.472,2982.89,1910.56,2992.588,1912.643,3002.287z"/>
<path style="fill:#F6E8BB;" d="M2433.562,2087.606c-11.549,0.084-21.589,5.758-32.282,8.922
	c-22.019,6.515-43.641,14.418-65.771,20.496c-26.65,7.32-49.23-2.724-67.173-28.495c-11.726-16.841-22.476-34.416-34.992-50.638
	c-19.151-24.823-42.565-44.821-75.362-46.955c-18.481-1.203-35.374-6.586-52.298-12.431c-35.813-12.368-66.184-34.312-95.78-57.161
	c-30.97-23.911-61.282-48.673-91.972-72.948c-4.875-3.856-10.464-6.811-15.313-10.695c-19.959-15.986-42.282-20.023-66.751-13.706
	c-2.858,0.738-4.751-0.37-6.424-2.415c12.172-18.45,26.377-35.751,31.163-58.231c4.352-20.44,6.124-40.311-8.694-57.784
	c19.995-25.269,44.003-47.16,60.672-73.467c5.774-1.712,10.282,3.746,13.962-0.116c10.146-10.648,24.411-16.63,33.134-27.952
	c-2.039-6.692-8.842-8.867-9.306-16.23c13.528-16.037,24.5-34.779,36.604-52.758c7.26-10.785,13.33-22.444,22.479-31.908
	c11.938,28.392,30.396,40.702,56.695,37.253c21.699-2.846,42.556-8.3,61.725-19.594c46.854-27.604,81.977-64.086,93.577-119.366
	c5.025-23.944-8.762-52.106-29.592-55.011c-15.276-2.13-31.246-2.864-46.53,0.878c-26.366,6.457-49.91,18.901-70.728,36.334
	c-3.835,3.211-7.071,7.146-12.638,7.161c0.511-3.643,0.578-7.417,1.601-10.91c10.095-34.445,15.16-69.686,17.038-105.45
	c21.839-14.132,42.329-30.376,69.298-34.994c41.828-7.162,77.882-0.158,104.026,36.648c8.748,12.315,19.782,13.897,32.128,4.661
	c20.904-15.637,41.185-32.182,64.124-44.837c30.566-16.862,62.267-24.457,96.574-11.247c10.157,3.912,19.779,8.95,26.209,17.186
	c15.576,19.95,37.036,27.329,60.445,28.363c28.194,1.245,53.324,10.951,78.206,22.558c3.927,1.832,7.666,4.262,12.262,4.111
	c-21.845,27.908-37.855,58.441-42.908,94.046c-1.934,13.631-2.236,27.304-2.312,41.019c-0.139,24.965,1.276,50.072-0.903,74.86
	c-3.443,39.163-21.562,72.454-47.116,101.774c-19.289,22.132-41.195,41.584-62.841,61.367
	c-22.538,20.598-44.854,41.661-62.939,66.514c-32.74,44.99-41.793,94.702-29.911,148.905c9.242,42.165,25.228,82.076,38.96,122.764
	C2422.652,2034.037,2432.615,2059.734,2433.562,2087.606z"/>
<path style="fill:#F4D4A5;" d="M2009.457,1503.135c-9.149,9.464-15.219,21.124-22.479,31.908
	c-12.104,17.979-23.075,36.721-36.604,52.758c0.464,7.364,7.267,9.539,9.306,16.23c-8.723,11.322-22.988,17.304-33.134,27.952
	c-3.68,3.862-8.188-1.596-13.962,0.116c-16.669,26.307-40.677,48.198-60.672,73.466c-4.833,1.934-7.925,5.973-11.27,9.606
	c-13.04,14.162-25.513,28.874-38.999,42.593c-29.626,30.138-58.725,60.835-93.16,85.862c-14.524,10.556-31.223,17.862-44.375,30.357
	c-12.472,2.186-22.039,14.68-34.238,13.346c-11.205-1.226-21.526-9.278-32.572-13.43c-41.066-15.437-83.204-18.664-126.489-11.402
	c-22.414,3.76-41.766-6.252-59.188-18.594c-13.701-9.705-28.781-14.452-44.553-17.913c-12.168-2.67-24.255,1.492-36.78,1.649
	c14.833-9.162,29.754-17.566,46.283-23.115c72.141-24.217,137.613-60.444,195.709-109.737
	c17.524-14.869,35.746-29.059,52.083-45.149c24.27-23.906,48.249-48.285,70.344-74.177c29.021-34.006,56.501-69.287,76.792-109.667
	c17.856-35.534,34.364-71.411,47.911-108.959c9.84-27.272,25.038-52.629,35.402-80.035c14.121-37.342,24.144-75.635,31.081-114.881
	c6.6-37.342,10.336-74.911,11.009-112.815c0.266-14.959-0.087-29.828-3.7-44.445c28.737-11.046,53.455-1.326,76.468,15.372
	c53.864,39.082,84.101,93.391,99.711,156.808c7.881,32.016,11.422,64.609,11.223,97.593c-1.877,35.764-6.942,71.005-17.037,105.45
	c-1.024,3.493-1.091,7.266-1.603,10.908C2045.827,1428.875,2029.128,1466.7,2009.457,1503.135z"/>
<path style="fill:#89BD4F;" d="M1425.001,1045.824c-7.433,6.274-16.916,5.636-25.581,6.85c-16.928,2.371-33.207,7.192-49.692,11.292
	c1.004-2.918,2.246-5.364-2.219-7.179c-15.001-6.098-30.523-10.571-46.148-14.457c-28.878-7.182-58.371-11.606-87.878-14.716
	c-15.961-1.682-31.762-6.257-48.142-4.355c-22.352,2.596-44.646,5.453-62.777,20.452c-29.284,24.224-47.939,55.024-56.695,92.103
	c-8.766,37.122-8.815,75.045-10.774,112.732c-1.098,21.131-3.224,41.921-6.785,62.76c-3.178,18.597-9.512,36.005-16.251,53.367
	c-1.91,4.921-0.524,6.844,4.126,7.609c-19.631,5.679-38.016,13.343-53.666,27.329c-27.528,24.6-42.881,55.252-47.905,91.372
	c-0.932,6.699-0.102,13.646-3.838,19.776c-2.905,1.333-4.889,3.568-6.625,6.223c-27.094,41.449-40.734,86.626-37.951,136.38
	c-21.287,24.447-26.176,52.556-19.296,83.621c10.672,48.186,31.074,91.778,60.877,131.02c1.851,2.437,4.532,4.245,6.826,6.345
	c1.956,6.244,8.608,8.692,11.477,14.199c0.159,8.654,0.017,17.229,1.262,25.937c4.046,28.301,3.479,56.659,0.236,85.111
	c-1.482,13-5.534,26.074-1.997,39.4c-4.413,10.721-8.826,21.442-14.096,34.242c-12.133-15.125-25.138-24.501-42.469-26.454
	c-15.112-1.704-29.454,0.238-43.331,6.827c-6.669,3.167-10.6,10.748-18.793,11.161c6.915-42.298,14.738-84.404,17.598-127.344
	c3.449-51.789-5.069-101.761-19.199-151.087c-11.486-40.098-24.199-79.847-35.557-119.98
	c-11.243-39.724-18.002-80.223-15.535-121.72c2.457-41.328,16.437-78.87,38.329-113.778c21.944-34.991,49.153-65.985,74.107-98.693
	c27.742-36.362,52.962-73.972,64.377-119.282c4.74-18.814,7.727-37.842,9.175-57.004c2.44-32.28,2.892-64.708,5.253-96.995
	c3.831-52.407,15.587-102.291,50.907-143.591c23.165-27.087,52.778-40.635,88.428-41.873c27.648-0.96,54.7,3.654,81.788,7.725
	c36.378,5.467,72.282,12.955,107.536,23.976C1347.155,927.962,1400.481,971.273,1425.001,1045.824z"/>
<path style="fill:#89BD4F;" d="M780.644,2335.569c2.717,2.491,6.038,4.571,8.058,7.536c23.005,33.77,54.074,59.549,84.581,85.906
	c8.89,7.681,17.645,15.519,26.46,23.283c3.965,22.27,7.162,44.721,12.317,66.714c1.793,7.651,0.067,18.056,10.012,22.523
	c-5.417,9.329-16.142,14.686-19.268,25.729c-15.063,16.276-22.407,36.65-30.105,56.821c-8.173,21.412-12.989,43.723-17.357,66.135
	c-0.604,3.098-1.048,6.069-3.6,8.227c-33.63-88.364-56-179.393-65.146-273.609C783.711,2395.129,779.247,2365.552,780.644,2335.569z
	"/>
<path style="fill:#F4D4A5;" d="M1998.551,3281.902c-0.85-51.05-13.837-99.755-28.453-148.169
	c-2.279-7.549-7.047-14.663-4.938-23.184c15.764,15.901,26.044,35.976,40.445,52.95c20.007,23.583,38.963,48.102,63.093,67.835
	c3.789,4.726,7.579,9.451,11.363,14.172C2058.226,3269.59,2034.462,3289.344,1998.551,3281.902z"/>
<path style="fill:#89BD4F;" d="M900.323,2804.167c16.419,5.957,32.566,5.353,50.375-4.028c-2.542,26.111-3.155,50.208-2.397,74.314
	C927.144,2854.548,912.736,2830.038,900.323,2804.167z"/>
<path style="fill:#D6E296;" d="M3373.422,2197.419c3.415,26.509,7.897,52.932,10.042,79.543
	c6.296,78.092,4.485,154.879-41.55,223.386c-28.841,42.92-62.898,80.843-107.142,108.195c-15.548,9.612-21.379,21.037-22.537,39.236
	c-3.272,51.462-9.857,102.657-16.922,153.778c-7.227,52.296-16.59,104.202-27.952,158.633
	c51.352-9.679,96.829-28.894,141.291-50.841c44.849-22.137,86.194-49.734,124.021-82.257c5.451,3.815,1.237,7.521,0.232,10.059
	c-15.381,38.833-31.686,77.16-51.61,114.064c-44.099,81.683-113.25,129.21-201.318,152.074c-13.841,3.593-27.753,7.239-42.151,8.127
	c-10.809,0.667-17.925,4.808-22.171,16.087c-12.361,32.835-29.162,63.5-51.093,90.984c-21.858,27.391-47.406,50.534-83.779,55.434
	c-37.955,5.113-73.405-1.37-102.004-29.678c-20.133-19.929-24.318-45.916-25.333-72.262c-1.333-34.562,7.351-67.901,15.683-101.142
	c0.302-1.205,0.76-2.389,1.289-3.515c8.064-17.13,2.482-29.79-12.821-39.285c-10.402-17.649-25.711-30.204-42.771-40.836
	c-70.323-43.825-147.11-73.26-224.807-100.607c-23.909-8.415-48.83-9.215-73.92-8.125c-0.317-5.63,4.102-6.139,7.207-7.363
	c45.499-17.936,92.112-30.502,141.562-30.353c38.647,0.116,77.021-0.053,115.043,9.973c49.676,13.098,95.02,33.568,133.441,68.175
	c1.354,1.219,2.989,2.126,5.253,3.709c6.778-6.458,7.814-15.373,9.917-23.323c16.229-61.356,32.354-122.735,45.2-184.938
	c1.933-9.357-0.107-15.507-5.787-21.896c-29.647-33.342-62.265-62.469-103.207-82.084c-56.294-26.97-113.415-51.725-172.344-72.288
	c-26.745-9.333-54.165-14.279-83.31-11.479c15.89-15.117,83.539-34.659,130.175-37.373c46.226-2.69,92.123-0.649,137.323,10.879
	c45.104,11.504,86.328,30.95,122.85,60.678c8.374-16.342,7.967-32.262,9.813-47.273c5.614-45.643,12.156-91.253,13.22-137.382
	c0.129-5.621-0.525-9.345-4.759-12.946c-26.641-22.657-49.285-49.166-72.102-75.484c-20.456-23.595-46.888-38.896-73.804-53.48
	c-40.646-22.023-83.389-39.414-126.231-56.568c-27.184-10.885-54.135-22.815-83.166-27.69c-17.459-2.932-34.982-9.583-53.479-2.378
	c-0.896-6.5,3.569-6.239,6.497-7.465c41.084-17.215,83.616-26.991,128.252-30.809c72.684-6.215,141.262,5.882,206.233,38.496
	c27.967,14.039,52.451,33.029,74.877,58.957c0-19.227,1.675-35.908-0.357-52.126c-3.938-31.436-5.572-63.062-9.782-94.493
	c-8.271-61.748-19.299-122.962-35.615-182.987c-21.947-80.735-50.334-159.339-88.441-233.985
	c-36.088-70.693-78.081-137.703-130.433-197.77c-4.133-4.741-7.711-9.775-9.776-15.773c0.613-0.772,1.248-1.527,1.903-2.264
	c12.809,3.773,23.222,12.013,34.094,19.107c38.15,24.893,73.78,52.958,107.602,83.629
	c81.303,73.729,145.033,160.537,196.925,256.781c15.717,29.149,29.178,59.206,42.594,89.367c3.02,6.79,6.332,13.45,9.116,19.337
	c7.284,2.321,10.364-2.154,14.04-5.386c43.074-37.872,76.619-83.415,106.266-132.081c10.28-16.875,20.375-33.862,30.574-50.831
	c6.448,4.074,4.89,9.487,5.067,14.275c2.435,65.979-11.749,128.646-38.364,188.673c-10.612,23.933-22.043,47.513-33.529,71.045
	c-7.403,15.167-15.587,30.078-28.916,40.994c-8.691,7.118-9.215,15.567-6.541,25.259c12.921,46.835,21.368,94.609,27.902,142.637
	c2.666,19.602,5.515,39.441,4.745,59.479c-1.439,37.411,4.018,74.639,3.404,112.019c-0.347,21.097-5.453,42.026-1.942,64.729
	c11.511-4.561,17.946-14.836,25.03-23.265c41.1-48.907,76.234-101.754,102.106-160.407c4.776-10.826,9.175-21.821,13.59-32.801
	C3367.875,2205.354,3368.727,2200.277,3373.422,2197.419z"/>
<path style="fill:#F6E8BB;" d="M1916.352,2841.667c-12.176-10.968-20.31-24.669-26.942-39.447
	c-13.074-29.132-19.177-60.242-26.154-91.117c-1.231-5.446-2.314-11.043-4.488-16.134c-4.377-10.25-15.349-16.547-25.684-12.638
	c-23.766,8.989-46.473,3.76-69.421-2.425c-11.799-3.18-20.173-11.417-30.663-18.381c4.321-5.425,8.753-6.615,13.572-7.675
	c60.54-13.309,117.439-36.304,172.089-65.162c50.317-26.571,91.239-63.977,127.508-107.565
	c33.744-40.554,55.484-86.357,68.037-137.084c3.875-15.66,4.26-16.14,19.735-16.152c48.669-0.036,97.337,0.147,146.007,0.248
	c-14.337,12.871-28.659,25.758-43.017,38.604c-26.319,23.549-47.873,50.45-60.991,83.73c-7.172,18.197-10.782,37.083-12.246,56.299
	c-1.984,26.048-2.734,52.192-3.908,78.299c-1.419,31.553-6.433,62.114-25.976,88.216c-17.902,23.91-43.634,36.658-70.357,47.691
	c-33.585,13.866-65.263,30.718-93.199,54.462c-17.323,14.724-31.94,31.336-43.644,50.703
	C1923.405,2831.444,1919.783,2836.497,1916.352,2841.667z"/>
<path style="fill:#C6E779;" d="M2750.369,1429.631c-3.492-1.162-6.609-2.774-8.425-7.481c5.428-1.329,7.877,1.94,10.323,5.222
	C2751.617,1428.104,2750.983,1428.859,2750.369,1429.631z"/>
<path style="fill:#F4D4A5;" d="M1965.237,3110.692c-4.181-1.032-4.507-4.186-4.224-7.677
	C1963.771,3104.831,1965.113,3107.427,1965.237,3110.692z"/>
<path style="fill:#679D48;" d="M1016.185,1372.283c-4.65-0.765-6.036-2.689-4.126-7.609c6.74-17.362,13.074-34.77,16.251-53.367
	c3.561-20.839,5.687-41.629,6.785-62.76c1.959-37.687,2.008-75.61,10.774-112.732c8.756-37.079,27.411-67.878,56.695-92.103
	c18.131-14.998,40.425-17.856,62.777-20.452c16.38-1.902,32.182,2.673,48.142,4.355c29.507,3.11,58.999,7.534,87.878,14.716
	c15.625,3.886,31.148,8.359,46.148,14.457c4.464,1.815,3.222,4.261,2.219,7.179c-39.103,13.029-73.409,33.65-102.162,63.475
	c-16.321,16.93-37.099,25.72-60.266,25.956c-44.569,0.454-70.744,26.097-89.899,62.39c-9.728,18.433-14.282,38.531-16.998,58.912
	c-2.792,20.947-4.946,42.018-5.018,63.224c-0.015,4.339-0.12,8.776-1.004,12.996c-3.889,18.572-10.634,23.142-30.142,21.846
	C1034.919,1372.146,1025.538,1372.416,1016.185,1372.283z"/>
<path style="fill:#F9F2D8;" d="M1001.546,1618.982c2.614-36.801,8.073-74.593,28.199-108.79
	c10.372-17.623,25.236-29.468,44.142-35.441c18.452-5.829,34.038,2.105,47.493,14.533c31.256,28.871,40.954,66.16,45.213,107.108
	c3.35,32.207,0.172,62.975-8.283,93.505c-6.129,22.13-15.281,42.883-31.274,60.4c-29.004,31.766-73.076,19.186-92.261-11.174
	c-18.237-28.859-29.755-60.003-30.047-94.585C1004.658,1636.347,999.432,1629.058,1001.546,1618.982z"/>
<path style="fill:#F9F2D8;" d="M1154.614,2090.861c-0.36,30.62-10.147,58.231-25.446,84.541
	c-12.603,21.673-27.149,42.504-45.422,58.654c-27.801,24.572-57.879,46.744-99.058,45.514
	c-25.843-0.772-48.996-17.139-51.112-48.525c-2.798-41.501,11.059-77.834,33.755-111.975c17.492-26.314,38.93-48.422,64.044-67.116
	c25.375-18.888,53.542-28.032,85.688-24.169c18.143,2.18,35.571,26.62,37.469,46.242
	C1155.07,2079.589,1154.614,2085.247,1154.614,2090.861z"/>
<path style="fill:#F9F2D8;" d="M1664.108,1873.982c13.152-12.495,29.851-19.801,44.375-30.357
	c34.435-25.027,63.534-55.723,93.16-85.862c13.486-13.719,25.959-28.43,38.999-42.593c3.345-3.633,6.437-7.671,11.27-9.606
	c14.818,17.473,13.046,37.344,8.694,57.784c-4.787,22.479-18.992,39.78-31.163,58.231c-20.207,22.272-43.475,40.612-70.503,53.894
	c-17.449,8.574-35.474,15.585-55.518,13.666c-7.123-0.682-13.359,2.785-20.162,3.362c-0.012-5.397-4.147-7.192-8.046-9.13
	C1670.733,1881.144,1666.287,1878.916,1664.108,1873.982z"/>
<path style="fill:#F4D4A5;" d="M926.084,1888.546c-2.869-5.506-9.521-7.955-11.477-14.199c67.388,11.95,135.448,7.824,203.181,6.597
	c31.92-0.578,63.758-8.402,95.367-15.022c19.454-4.074,37.453-13.714,57.685-14.252l0.093,0.11c-0.027,3.962-1.61,7.221-4.472,9.904
	c-22.252,20.859-41.942,44.133-62.785,66.323c-16.119,17.162-19.777,16.813-39.541,3.512c-12.259-8.25-22.227-20.207-37.518-23.59
	c-37.014-8.187-72.753-5.861-106.392,13.193c-5.391,3.053-10.691,6.266-16.032,9.405
	C975.974,1920.597,949.256,1907.87,926.084,1888.546z"/>
<path style="fill:#679D48;" d="M866.201,1653.362c-2.783-49.754,10.857-94.931,37.951-136.38c1.736-2.655,3.719-4.89,6.625-6.223
	c1.527,42.909,8.81,84.992,19.924,128.703C905.789,1633.882,884.684,1638.427,866.201,1653.362z"/>
<path style="fill:#679D48;" d="M926.084,1888.546c23.172,19.324,49.89,32.051,78.11,41.982
	c-35.408,29.484-57.727,68.453-78.608,108.464c-3.537-13.324,0.515-26.398,1.997-39.399c3.243-28.452,3.809-56.81-0.236-85.111
	C926.101,1905.776,926.243,1897.201,926.084,1888.546z"/>
<path style="fill:#F4D4A5;" d="M1270.841,1851.67c2.301-3.026,4.784-5.038,8.374-1.556c-2.501,2.303-5.491,1.477-8.282,1.666
	C1270.934,1851.781,1270.841,1851.67,1270.841,1851.67z"/>
<path style="fill:#F9F2D8;" d="M1192.505,2823.039c-3.16,30.951-6.86,63.408-26.613,91.677
	c-20.906,29.919-57.227,32.978-85.169,8.777c-31.001-26.85-45.157-61.778-53.218-100.173c-3.426-16.317-7.438-33.04-7.123-49.501
	c0.594-31.024,3.149-62.948,19.049-90.105c11.87-20.275,28.827-37.756,57.426-33.97c11.732,1.553,21.966,5.229,30.391,12.66
	c15.837,13.967,30.256,29.119,39.332,48.887C1182.626,2746.244,1189.932,2783.047,1192.505,2823.039z"/>
<path style="fill:#679D48;" d="M922.072,2541.532c-9.945-4.467-8.219-14.872-10.012-22.523
	c-5.155-21.993-8.352-44.445-12.317-66.714c23.824,15.962,43.738,36.557,67.828,56.163
	C951.09,2519.199,935.672,2529.219,922.072,2541.532z"/>
<path style="fill:#F9F2D8;" d="M2009.457,1503.135c19.671-36.435,36.37-74.259,52.509-112.344c5.569-0.014,8.804-3.949,12.639-7.16
	c20.818-17.433,44.362-29.877,70.728-36.334c15.284-3.743,31.253-3.009,46.53-0.878c20.83,2.905,34.617,31.067,29.592,55.011
	c-11.601,55.28-46.724,91.762-93.577,119.366c-19.169,11.294-40.026,16.748-61.725,19.594
	C2039.854,1543.837,2021.395,1531.527,2009.457,1503.135z"/>
</svg>
