<?xml version="1.0" encoding="utf-8"?>
<!-- Generator: Adobe Illustrator 25.3.1, SVG Export Plug-In . SVG Version: 6.00 Build 0)  -->
<svg version="1.1" id="Layer_1" xmlns="http://www.w3.org/2000/svg" xmlns:xlink="http://www.w3.org/1999/xlink" x="0px" y="0px"
	 viewBox="0 0 2943.2 2583.2" style="enable-background:new 0 0 2943.2 2583.2;" xml:space="preserve">
<style type="text/css">
	.st0{fill:#75B14D;}
	.st1{fill:#F6E8BB;}
	.st2{fill:#679D47;}
	.st3{fill:#F4D4A5;}
	.st4{fill:#89BD4F;}
	.st5{fill:#D6E296;}
	.st6{fill:#C6E779;}
	.st7{fill:#679D48;}
	.st8{fill:#F9F2D8;}
</style>
<path class="st0" d="M1871.1,423.6c24.8-29.3,54.5-52.8,86.6-73.4c33-21.2,67.1-40.7,102.5-57.7c68.4-33,124.3-11.8,170.6,39.8
	c27.4,30.5,44.5,67.3,60.6,104.6c12.1,28,23.6,56.2,38,83.2c24.3,45.4,60.5,78.7,103.1,106c28.3,18.1,57.5,34.9,85.9,52.9
	c23.6,15,46.6,30.9,65.4,52c-5.3,3.6-1.6,7.6-0.5,11.6c6.5,24.6,14.6,48.8,19.2,73.9c9.9,53.6,20.2,107.1,27.2,161.2
	c4.1,32,6.4,64.1,9.7,96.1c4.4,42.9-1.8,85.9-4.2,128.7c-0.9,15.7-2.9,32-4.8,48c-2.9,24.6-9.3,48.8-9.7,73.7
	c-4.7,2.9-5.5,7.9-7.4,12.5c-4.4,11-8.8,22-13.6,32.8c-25.9,58.7-61,111.5-102.1,160.4c-7.1,8.4-13.5,18.7-25,23.3
	c-3.5-22.7,1.6-43.6,1.9-64.7c0.6-37.4-4.8-74.6-3.4-112c0.8-20-2.1-39.9-4.7-59.5c-6.5-48-15-95.8-27.9-142.6
	c-2.7-9.7-2.1-18.1,6.5-25.3c13.3-10.9,21.5-25.8,28.9-41c11.5-23.5,22.9-47.1,33.5-71c26.6-60,40.8-122.7,38.4-188.7
	c-0.2-4.8,1.4-10.2-5.1-14.3c-10.2,17-20.3,34-30.6,50.8c-29.6,48.7-63.2,94.2-106.3,132.1c-3.7,3.2-6.8,7.7-14,5.4
	c-2.8-5.9-6.1-12.5-9.1-19.3c-13.4-30.2-26.9-60.2-42.6-89.4c-51.9-96.2-115.6-183.1-196.9-256.8c-33.8-30.7-69.5-58.7-107.6-83.6
	c-10.9-7.1-21.3-15.3-34.1-19.1c-2.4-3.3-4.9-6.6-10.3-5.2c1.8,4.7,4.9,6.3,8.4,7.5c2.1,6,5.6,11,9.8,15.8
	c52.4,60.1,94.3,127.1,130.4,197.8c38.1,74.6,66.5,153.2,88.4,234c16.3,60,27.3,121.2,35.6,183c4.2,31.4,5.8,63.1,9.8,94.5
	c2,16.2,0.4,32.9,0.4,52.1c-22.4-25.9-46.9-44.9-74.9-59c-65-32.6-133.5-44.7-206.2-38.5c-44.6,3.8-87.2,13.6-128.3,30.8
	c-2.9,1.2-7.4,1-6.5,7.5c18.5-7.2,36-0.6,53.5,2.4c29,4.9,56,16.8,83.2,27.7c42.8,17.2,85.6,34.5,126.2,56.6
	c26.9,14.6,53.3,29.9,73.8,53.5c22.8,26.3,45.5,52.8,72.1,75.5c4.2,3.6,4.9,7.3,4.8,12.9c-1.1,46.1-7.6,91.7-13.2,137.4
	c-1.8,15-1.4,30.9-9.8,47.3c-36.5-29.7-77.7-49.2-122.9-60.7c-45.2-11.5-91.1-13.6-137.3-10.9c-46.6,2.7-114.3,22.3-130.2,37.4
	c29.1-2.8,56.6,2.1,83.3,11.5c58.9,20.6,116,45.3,172.3,72.3c40.9,19.6,73.6,48.7,103.2,82.1c5.7,6.4,7.7,12.5,5.8,21.9
	c-12.8,62.2-29,123.6-45.2,184.9c-2.1,7.9-3.1,16.9-9.9,23.3c-2.3-1.6-3.9-2.5-5.3-3.7c-38.4-34.6-83.8-55.1-133.4-68.2
	c-38-10-76.4-9.9-115-10c-49.4-0.1-96.1,12.4-141.6,30.4c-3.1,1.2-7.5,1.7-7.2,7.4c25.1-1.1,50-0.3,73.9,8.1
	c77.7,27.3,154.5,56.8,224.8,100.6c17.1,10.6,32.4,23.2,42.8,40.8c-9.7,3.4-16.5,11-24.9,16.4c-56.6,36.4-113.5,71.9-175.3,99.2
	c-57.1,25.2-116,44.1-176.8,57.9c-17,3.8-34.4,5.2-51.2,9.3c-34.4,8.3-69.3,13.4-104.5,16.9c-14.2,1.4-28.5,2.4-42.6,4.1
	c-36.5,4.3-72.9,7.6-109.7,6.9c-14.4-0.3-29,1.3-43-1.1c-20.3-3.5-40.9-2.3-61-6.3c-24.1-19.7-43.1-44.3-63.1-67.8
	c-14.4-17-24.7-37.1-40.4-53l0.1,0.1c-0.1-3.3-1.5-5.9-4.2-7.7c-17.5-32.9-34.9-65.9-48.4-100.7c-2.1-9.7-4.2-19.4-6.2-29.1
	c-7.7-35.8-8-71.3,1.9-106.8c2.3-8.4,7.9-15.7,8.1-24.7c3.4-5.2,7.1-10.2,10.3-15.5c11.7-19.4,26.3-36,43.6-50.7
	c27.9-23.7,59.6-40.6,93.2-54.5c26.7-11,52.5-23.8,70.4-47.7c19.5-26.1,24.6-56.7,26-88.2c1.2-26.1,1.9-52.3,3.9-78.3
	c1.5-19.2,5.1-38.1,12.2-56.3c13.1-33.3,34.7-60.2,61-83.7c14.4-12.8,28.7-25.7,43-38.6c1.7-0.6,3.8-0.8,5.2-1.9
	c24.9-19.6,50.5-38.4,74.2-59.2c25.7-22.6,49.1-47.7,62.9-79.9c13.8-32,19.9-64.9,11.3-99.5c-0.9-27.9-10.9-53.6-19.7-79.5
	c-13.7-40.7-29.7-80.6-39-122.8c-11.9-54.2-2.8-103.9,29.9-148.9c18.1-24.9,40.4-45.9,62.9-66.5c21.6-19.8,43.6-39.2,62.8-61.4
	c25.6-29.3,43.7-62.6,47.1-101.8c2.2-24.8,0.8-49.9,0.9-74.9c0.1-13.7,0.4-27.4,2.3-41C1833.2,482,1849.3,451.5,1871.1,423.6z"/>
<path class="st1" d="M3.2,1383.5c-4.5-15.2-3.4-30.9-1.6-46c4.2-34.3,11.3-68,24.6-100.4c7-17,17.3-31.2,27.9-45.7
	c8.2-0.4,12.1-8,18.8-11.2c13.9-6.6,28.2-8.5,43.3-6.8c17.3,2,30.3,11.3,42.5,26.5c5.3-12.8,9.7-23.5,14.1-34.2
	c20.9-40,43.2-79,78.6-108.5c5.3-3.1,10.6-6.4,16-9.4c33.6-19.1,69.4-21.4,106.4-13.2c15.3,3.4,25.3,15.3,37.5,23.6
	c19.8,13.3,23.4,13.7,39.5-3.5c20.8-22.2,40.5-45.5,62.8-66.3c2.9-2.7,4.4-5.9,4.5-9.9c2.8-0.2,5.8,0.6,8.3-1.7
	c-3.6-3.5-6.1-1.5-8.4,1.6c-20.2,0.5-38.2,10.2-57.7,14.3c-31.6,6.6-63.4,14.4-95.4,15c-67.7,1.2-135.8,5.4-203.2-6.6
	c-2.3-2.1-5-3.9-6.8-6.3c-29.8-39.2-50.2-82.8-60.9-131c-6.9-31.1-2-59.2,19.3-83.6c18.5-14.9,39.6-19.5,64.5-13.9
	c-11.1-43.7-18.4-85.8-19.9-128.7c3.7-6.1,2.9-13.1,3.8-19.8c5-36.1,20.4-66.8,47.9-91.4c15.7-14,34-21.7,53.7-27.3
	c9.4,0.1,18.7-0.1,28.1,0.5c19.5,1.3,26.3-3.3,30.1-21.8c0.9-4.2,1-8.7,1-13c0.1-21.2,2.2-42.3,5-63.2c2.7-20.4,7.3-40.5,17-58.9
	c19.2-36.3,45.3-61.9,89.9-62.4c23.2-0.2,43.9-9,60.3-26c28.8-29.8,63.1-50.4,102.2-63.5c16.5-4.1,32.8-8.9,49.7-11.3
	c8.7-1.2,18.1-0.6,25.6-6.8c27.4,0.1,54.9,0.7,82.3,0.2c16.9-0.3,33.3,3.6,50.1,4.3c19,0.8,30.5-8.4,39.3-23.1
	c3.5-5.8,5.8-12.4,8.3-18.7c12.1-31.1,37.3-47.1,70.2-49.4c37.1-2.6,70.5,8.5,102.3,24.2c37.1,18.3,75.3,24.5,115.8,21.3
	c3.6,14.6,4,29.5,3.7,44.4c-0.7,37.9-4.4,75.5-11,112.8c-6.9,39.2-17,77.5-31.1,114.9c-10.4,27.4-25.6,52.8-35.4,80
	c-13.5,37.5-30.1,73.4-47.9,109c-20.3,40.4-47.8,75.7-76.8,109.7c-22.1,25.9-46.1,50.3-70.3,74.2c-16.3,16.1-34.6,30.3-52.1,45.1
	c-58.1,49.3-123.6,85.5-195.7,109.7c-16.5,5.5-31.4,14-46.3,23.1c12.5-0.2,24.6-4.3,36.8-1.6c15.8,3.5,30.9,8.2,44.6,17.9
	c17.4,12.3,36.8,22.4,59.2,18.6c43.3-7.3,85.4-4,126.5,11.4c11,4.2,21.4,12.2,32.6,13.4c12.2,1.3,21.8-11.2,34.2-13.3
	c2.2,4.9,6.6,7.2,11.1,9.4c3.9,1.9,8,3.7,8,9.1c-3.5,7.1-13.9,5.8-16.8,13.6c2.1,6,7.7,7.9,12.3,11.1c28,19.6,55.9,39.9,79.3,64.7
	c18.2,19.3,45.6,20,66.1,7.3c38.5-23.7,76-18.7,108.5,12.4c23.3,22.3,39,49.6,54.2,77.3c9.9,18,21.3,34.8,35.1,50.2
	c10.7,11.9,25.4,17.8,37.6,28c-3,6.2-5,12.9-8.9,18.2c-20.7,28-44.3,53.6-67.7,79.4c-10.9,12-23.9,21.7-35.9,32.6
	c-32.4,29.3-68,54.1-105.7,76c-21.1,12.3-44,21.1-64.2,34.5c-35.1,23-71.7,42.7-110.7,58.1c-44,17.3-89.4,29.6-136.2,37.5
	c-20.8,3.5-41.6,6.4-62.6,8.4c-19.1,1.9-37.9,6.5-57.3,6.1c-21.2-0.4-42.5-0.9-63.7,0.1c-23.2,1.2-46.2-1.3-68.7-4.8
	c-15.8-2.5-31.9-2.6-47.7-7.7c-27.7-9.1-55.9-17.1-84.1-23.8c-33.8-8-67.6-15.3-100.5-26.9c-47.2-16.6-92.2-37.9-133.7-65.5
	c-49.2-32.7-96.5-68.2-137.7-111.1C16.5,1389.6,12.2,1382.6,3.2,1383.5z M248.8,745.7c-2.1,10.1,3.1,17.4,3.2,25.6
	c0.3,34.6,11.8,65.7,30,94.6c19.2,30.4,63.3,42.9,92.3,11.2c16-17.5,25.1-38.3,31.3-60.4c8.5-30.5,11.6-61.3,8.3-93.5
	c-4.3-40.9-14-78.2-45.2-107.1c-13.5-12.4-29-20.4-47.5-14.5c-18.9,6-33.8,17.8-44.1,35.4C256.8,671.1,251.4,708.9,248.8,745.7z
	 M401.8,1217.6c0-5.6,0.5-11.3-0.1-16.8c-1.9-19.6-19.3-44.1-37.5-46.2c-32.1-3.9-60.3,5.3-85.7,24.2c-25.1,18.7-46.6,40.8-64,67.1
	c-22.7,34.1-36.6,70.5-33.8,112c2.1,31.4,25.3,47.8,51.1,48.5c41.2,1.2,71.3-20.9,99.1-45.5c18.3-16.1,32.8-37,45.4-58.7
	C391.7,1275.8,401.5,1248.2,401.8,1217.6z"/>
<path class="st2" d="M1315.9,2358c20.1,3.9,40.7,2.8,61,6.3c14,2.4,28.6,0.8,43,1.1c36.8,0.7,73.2-2.6,109.7-6.9
	c14.1-1.7,28.4-2.7,42.6-4.1c35.2-3.5,70-8.5,104.5-16.9c16.8-4.1,34.2-5.4,51.2-9.3c60.8-13.8,119.7-32.6,176.8-57.9
	c61.8-27.3,118.8-62.8,175.3-99.2c8.4-5.4,15.2-13.1,24.8-16.4c15.3,9.5,20.9,22.2,12.8,39.3c-0.5,1.1-1,2.3-1.3,3.5
	c-8.3,33.2-17,66.6-15.7,101.1c1,26.3,5.2,52.3,25.3,72.3c28.6,28.3,64,34.8,102,29.7c36.4-4.9,61.9-28,83.8-55.4
	c21.9-27.5,38.7-58.1,51.1-91c4.2-11.3,11.4-15.4,22.2-16.1c14.4-0.9,28.3-4.5,42.2-8.1c88.1-22.9,157.2-70.4,201.3-152.1
	c19.9-36.9,36.2-75.2,51.6-114.1c1-2.5,5.2-6.2-0.2-10.1c-37.8,32.5-79.2,60.1-124,82.3c-44.5,21.9-89.9,41.2-141.3,50.8
	c11.4-54.4,20.7-106.3,28-158.6c7.1-51.1,13.6-102.3,16.9-153.8c1.2-18.2,7-29.6,22.5-39.2c44.2-27.4,78.3-65.3,107.1-108.2
	c46-68.5,47.8-145.3,41.6-223.4c-2.1-26.6-6.6-53-10-79.5c0.4-24.9,6.8-49.1,9.7-73.7c1.9-15.9,3.9-32.3,4.8-48
	c2.4-42.8,8.6-85.8,4.2-128.7c-3.3-32-5.6-64.1-9.7-96.1c-7-54.2-17.4-107.6-27.2-161.2c-4.6-25.1-12.7-49.3-19.2-73.9
	c-1.1-4-4.8-7.9,0.5-11.6c30.5,28.6,48.3,64.7,59.1,104.3c10.1,36.7,13.9,74.5,16.6,112.5c3.7,53.3,4.5,106.9,15.7,159.5
	c10.5,49.3,30.4,94.8,55.5,138.2c25.6,44.2,52.5,87.7,77.6,132.2c47.6,84.6,81.8,174.7,104.6,269.1c14.5,60,23.6,120.7,28,182.4
	c2.9,41.2,2.9,82.4,1.6,123.4c-1.6,49.7-6.4,99.4-22.5,147.1c-19.2,56.9-53,104-97.1,144.3c-53.9,49.2-116.3,85.7-180.1,119.9
	c-87.4,46.9-178,87-271.3,120.6c-113.4,40.9-229.3,71.7-349,87.6c-63.2,8.4-126.5,12.8-190.1,10.9c-99-3-195.9-18.3-288-56.8
	c-53.4-22.3-100.1-55.7-145.3-91.2c-25-19.6-48.2-41.3-71.7-62.6C1323.5,2367.5,1319.7,2362.8,1315.9,2358z"/>
<path class="st1" d="M1159.9,2129c13.5,34.8,30.9,67.8,48.4,100.7c-0.3,3.5,0,6.6,4.2,7.7c0,0-0.1-0.1-0.1-0.1
	c-2.1,8.5,2.7,15.6,4.9,23.2c14.6,48.4,27.6,97.1,28.5,148.2c-27.1,0.5-53.4,4.4-77.3,18c-19.5,11.1-38.9,22.4-57.7,34.7
	c-24.1,15.7-50.9,25-78.9,25.9c-28,0.9-53.8-8.2-69.5-35.4c-23.7-41-33.1-44.6-78.8-32.9c-47.8,12.2-96.2,19.4-145.8,17.7
	c-49-1.7-94.4-14.9-135.7-41.6c-4.7-3.1-9.4-6.1-13.9-9.5c-21.3-16.2-44.9-19.4-70.8-14.6c-17.2,3.2-33.1-3.7-48.1-11.3
	c-22.3-11.3-38.8-28.8-50.6-50.9c-17-31.7-24.4-66.4-31.7-101.1c-0.1-0.6-0.1-1.2-0.2-1.9c-5.7-31.4-13.6-37-44.4-29.9
	c-32.6,7.5-60.5-3.2-85.9-21.8c-32.7-24-49.7-57.8-57.4-97.1c-3.6-18.6-3.8-37.1-3.7-55.8c-0.8-24.1-0.1-48.2,2.4-74.3
	c-17.8,9.4-34,10-50.4,4c-30-11.8-42.6-34.7-46.5-65.9c-1.7-13.4,2.7-26.9-2.1-39.9c2.6-2.2,3-5.1,3.6-8.2
	c4.4-22.4,9.2-44.7,17.4-66.1c7.7-20.2,15-40.5,30.1-56.8c2.5,0,5.2,0.6,7.4-0.2c28.2-9.7,57.5-14.9,86.7-20.4
	c11.7-2.2,20.7-0.3,29.3,7c16.1,13.7,33.8,25.2,51.1,37.2c39,26.9,80.2,49.8,123.4,69.5c68.3,31.1,139.7,47.2,214.5,49.7
	c30.6,1,60.7-3.4,90.8-7.4c30.1-4,59.9-9.8,89.3-16.8c20.4-4.8,38.6-6.4,53.9,10.8c1.6,1.8,3.7,3.5,5.8,4.7
	c33.6,20.5,62.4,47,91.2,73.5c18.4,16.9,34.9,35.7,50.5,55c22.1,27.4,44,55.1,60.1,87.2C1119.4,2074.1,1139.3,2101.9,1159.9,2129z
	 M439.7,1949.7c-2.6-40-9.9-76.8-25.9-111.7c-9.1-19.8-23.5-34.9-39.3-48.9c-8.4-7.4-18.7-11.1-30.4-12.7
	c-28.6-3.8-45.6,13.7-57.4,34c-15.9,27.2-18.5,59.1-19,90.1c-0.3,16.5,3.7,33.2,7.1,49.5c8.1,38.4,22.2,73.3,53.2,100.2
	c27.9,24.2,64.3,21.1,85.2-8.8C432.9,2013.2,436.6,1980.7,439.7,1949.7z"/>
<path class="st3" d="M1159.9,2129c-20.6-27.1-40.4-54.9-55.7-85.2c-16.1-32.1-38-59.7-60.1-87.2c-15.6-19.3-32.1-38.1-50.5-55
	c-28.8-26.5-57.6-53-91.2-73.5c-2.1-1.3-4.1-2.9-5.8-4.7c-15.3-17.2-33.4-15.6-53.9-10.8c-29.4,7-59.2,12.8-89.3,16.8
	c-30.2,4-60.3,8.4-90.8,7.4c-74.8-2.5-146.2-18.6-214.5-49.7c-43.2-19.7-84.4-42.6-123.4-69.5c-17.4-12-35-23.6-51.1-37.2
	c-8.7-7.3-17.7-9.2-29.3-7c-29.2,5.5-58.5,10.6-86.7,20.4c-2.2,0.8-4.9,0.2-7.4,0.2c3.1-11,13.9-16.4,19.3-25.7
	c13.6-12.3,29-22.3,45.5-33.1c-24.1-19.6-44-40.2-67.8-56.2c-8.8-7.8-17.6-15.6-26.5-23.3c-30.5-26.4-61.6-52.1-84.6-85.9
	c-2-3-5.3-5-8.1-7.5c-5.2-12.5-10.4-25-15.7-37.5c-5.5-13.2-7.8-27.2-9-41.3c9-0.9,13.3,6.1,18.3,11.3
	c41.2,42.8,88.5,78.3,137.7,111.1c41.6,27.6,86.5,48.9,133.7,65.5c32.9,11.6,66.7,18.9,100.5,26.9c28.2,6.7,56.4,14.8,84.1,23.8
	c15.8,5.2,31.9,5.2,47.7,7.7c22.6,3.6,45.5,6,68.7,4.8c21.2-1.1,42.5-0.6,63.7-0.1c19.4,0.4,38.2-4.2,57.3-6.1
	c21-2.1,41.8-5,62.6-8.4c46.8-7.8,92.2-20.1,136.2-37.5c38.9-15.3,75.6-35,110.7-58.1c20.3-13.3,43.2-22.2,64.2-34.5
	c37.7-22,73.3-46.7,105.7-76c12-10.8,25-20.5,35.9-32.6c23.4-25.8,47-51.4,67.7-79.4c3.9-5.3,5.9-12,8.9-18.2
	c-12.2-10.2-26.9-16.1-37.6-28c-13.8-15.4-25.2-32.2-35.1-50.2c-15.3-27.7-30.9-55-54.2-77.3c-32.5-31.1-70-36.1-108.5-12.4
	c-20.5,12.7-47.9,11.9-66.1-7.3c-23.4-24.8-51.3-45.1-79.3-64.7c-4.5-3.2-10.1-5.1-12.3-11.1c2.9-7.8,13.3-6.5,16.8-13.6
	c6.8-0.6,13-4,20.2-3.4c20,1.9,38.1-5.1,55.5-13.7c27-13.3,50.3-31.6,70.5-53.9c1.7,2,3.6,3.2,6.4,2.4c24.5-6.3,46.8-2.3,66.8,13.7
	c4.8,3.9,10.4,6.8,15.3,10.7c30.7,24.3,61,49,92,72.9c29.6,22.8,60,44.8,95.8,57.2c16.9,5.8,33.8,11.2,52.3,12.4
	c32.8,2.1,56.2,22.1,75.4,47c12.5,16.2,23.3,33.8,35,50.6c17.9,25.8,40.5,35.8,67.2,28.5c22.1-6.1,43.8-14,65.8-20.5
	c10.7-3.2,20.7-8.8,32.3-8.9c8.6,34.6,2.4,67.5-11.3,99.5c-13.8,32.2-37.2,57.3-62.9,79.9c-23.8,20.9-49.4,39.6-74.2,59.2
	c-1.4,1.1-3.4,1.3-5.2,1.9c-48.7-0.1-97.3-0.3-146-0.2c-15.5,0-15.9,0.5-19.7,16.2c-12.6,50.7-34.3,96.5-68,137.1
	c-36.3,43.6-77.2,81-127.5,107.6c-54.7,28.9-111.5,51.9-172.1,65.2c-4.8,1.1-9.3,2.2-13.6,7.7c10.5,7,18.9,15.2,30.7,18.4
	c22.9,6.2,45.7,11.4,69.4,2.4c10.3-3.9,21.3,2.4,25.7,12.6c2.2,5.1,3.3,10.7,4.5,16.1c7,30.9,13.1,62,26.2,91.1
	c6.6,14.8,14.8,28.5,26.9,39.4c-0.2,9-5.7,16.3-8.1,24.7c-9.9,35.5-9.5,71.1-1.9,106.8C1155.7,2109.6,1157.8,2119.3,1159.9,2129z"/>
<path class="st1" d="M1680.8,1214.3c-11.5,0.1-21.6,5.8-32.3,8.9c-22,6.5-43.6,14.4-65.8,20.5c-26.6,7.3-49.2-2.7-67.2-28.5
	c-11.7-16.8-22.5-34.4-35-50.6c-19.2-24.8-42.6-44.8-75.4-47c-18.5-1.2-35.4-6.6-52.3-12.4c-35.8-12.4-66.2-34.3-95.8-57.2
	c-31-23.9-61.3-48.7-92-72.9c-4.9-3.9-10.5-6.8-15.3-10.7c-20-16-42.3-20-66.8-13.7c-2.9,0.7-4.8-0.4-6.4-2.4
	c12.2-18.4,26.4-35.8,31.2-58.2c4.4-20.4,6.1-40.3-8.7-57.8c20-25.3,44-47.2,60.7-73.5c5.8-1.7,10.3,3.7,14-0.1
	c10.1-10.6,24.4-16.6,33.1-28c-2-6.7-8.8-8.9-9.3-16.2c13.5-16,24.5-34.8,36.6-52.8c7.3-10.8,13.3-22.4,22.5-31.9
	c11.9,28.4,30.4,40.7,56.7,37.3c21.7-2.8,42.6-8.3,61.7-19.6c46.9-27.6,82-64.1,93.6-119.4c5-23.9-8.8-52.1-29.6-55
	c-15.3-2.1-31.2-2.9-46.5,0.9c-26.4,6.5-49.9,18.9-70.7,36.3c-3.8,3.2-7.1,7.1-12.6,7.2c0.5-3.6,0.6-7.4,1.6-10.9
	c10.1-34.4,15.2-69.7,17-105.4c21.8-14.1,42.3-30.4,69.3-35c41.8-7.2,77.9-0.2,104,36.6c8.7,12.3,19.8,13.9,32.1,4.7
	c20.9-15.6,41.2-32.2,64.1-44.8c30.6-16.9,62.3-24.5,96.6-11.2c10.2,3.9,19.8,8.9,26.2,17.2c15.6,19.9,37,27.3,60.4,28.4
	c28.2,1.2,53.3,11,78.2,22.6c3.9,1.8,7.7,4.3,12.3,4.1c-21.8,27.9-37.9,58.4-42.9,94c-1.9,13.6-2.2,27.3-2.3,41
	c-0.1,25,1.3,50.1-0.9,74.9c-3.4,39.2-21.6,72.5-47.1,101.8c-19.3,22.1-41.2,41.6-62.8,61.4c-22.5,20.6-44.9,41.7-62.9,66.5
	c-32.7,45-41.8,94.7-29.9,148.9c9.2,42.2,25.2,82.1,39,122.8C1669.9,1160.7,1679.8,1186.4,1680.8,1214.3z"/>
<path class="st3" d="M1256.7,629.8c-9.1,9.5-15.2,21.1-22.5,31.9c-12.1,18-23.1,36.7-36.6,52.8c0.5,7.4,7.3,9.5,9.3,16.2
	c-8.7,11.3-23,17.3-33.1,28c-3.7,3.9-8.2-1.6-14,0.1c-16.7,26.3-40.7,48.2-60.7,73.5c-4.8,1.9-7.9,6-11.3,9.6
	c-13,14.2-25.5,28.9-39,42.6c-29.6,30.1-58.7,60.8-93.2,85.9c-14.5,10.6-31.2,17.9-44.4,30.4c-12.5,2.2-22,14.7-34.2,13.3
	c-11.2-1.2-21.5-9.3-32.6-13.4c-41.1-15.4-83.2-18.7-126.5-11.4c-22.4,3.8-41.8-6.3-59.2-18.6c-13.7-9.7-28.8-14.5-44.6-17.9
	c-12.2-2.7-24.3,1.5-36.8,1.6c14.8-9.2,29.8-17.6,46.3-23.1c72.1-24.2,137.6-60.4,195.7-109.7c17.5-14.9,35.7-29.1,52.1-45.1
	c24.3-23.9,48.2-48.3,70.3-74.2c29-34,56.5-69.3,76.8-109.7c17.9-35.5,34.4-71.4,47.9-109c9.8-27.3,25-52.6,35.4-80
	c14.1-37.3,24.1-75.6,31.1-114.9c6.6-37.3,10.3-74.9,11-112.8c0.3-15-0.1-29.8-3.7-44.4c28.7-11,53.5-1.3,76.5,15.4
	c53.9,39.1,84.1,93.4,99.7,156.8c7.9,32,11.4,64.6,11.2,97.6c-1.9,35.8-6.9,71-17,105.4c-1,3.5-1.1,7.3-1.6,10.9
	C1293,555.6,1276.3,593.4,1256.7,629.8z"/>
<path class="st4" d="M672.2,172.5c-7.4,6.3-16.9,5.6-25.6,6.8c-16.9,2.4-33.2,7.2-49.7,11.3c1-2.9,2.2-5.4-2.2-7.2
	c-15-6.1-30.5-10.6-46.1-14.5c-28.9-7.2-58.4-11.6-87.9-14.7c-16-1.7-31.8-6.3-48.1-4.4c-22.4,2.6-44.6,5.5-62.8,20.5
	c-29.3,24.2-47.9,55-56.7,92.1c-8.8,37.1-8.8,75-10.8,112.7c-1.1,21.1-3.2,41.9-6.8,62.8c-3.2,18.6-9.5,36-16.3,53.4
	c-1.9,4.9-0.5,6.8,4.1,7.6c-19.6,5.7-38,13.3-53.7,27.3c-27.5,24.6-42.9,55.3-47.9,91.4c-0.9,6.7-0.1,13.6-3.8,19.8
	c-2.9,1.3-4.9,3.6-6.6,6.2c-27.1,41.4-40.7,86.6-38,136.4c-21.3,24.4-26.2,52.6-19.3,83.6c10.7,48.2,31.1,91.8,60.9,131
	c1.9,2.4,4.5,4.2,6.8,6.3c2,6.2,8.6,8.7,11.5,14.2c0.2,8.7,0,17.2,1.3,25.9c4,28.3,3.5,56.7,0.2,85.1c-1.5,13-5.5,26.1-2,39.4
	c-4.4,10.7-8.8,21.4-14.1,34.2c-12.1-15.1-25.1-24.5-42.5-26.5c-15.1-1.7-29.5,0.2-43.3,6.8c-6.7,3.2-10.6,10.7-18.8,11.2
	c6.9-42.3,14.7-84.4,17.6-127.3c3.4-51.8-5.1-101.8-19.2-151.1C41,872.9,28.3,833.2,17,793.1C5.7,753.3-1,712.8,1.4,671.3
	c2.5-41.3,16.4-78.9,38.3-113.8c21.9-35,49.2-66,74.1-98.7c27.7-36.4,53-74,64.4-119.3c4.7-18.8,7.7-37.8,9.2-57
	c2.4-32.3,2.9-64.7,5.3-97c3.8-52.4,15.6-102.3,50.9-143.6C266.7,14.9,296.3,1.4,332,0.1c27.6-1,54.7,3.7,81.8,7.7
	c36.4,5.5,72.3,13,107.5,24C594.4,54.7,647.7,98,672.2,172.5z"/>
<path class="st4" d="M27.9,1462.3c2.7,2.5,6,4.6,8.1,7.5c23,33.8,54.1,59.5,84.6,85.9c8.9,7.7,17.6,15.5,26.5,23.3
	c4,22.3,7.2,44.7,12.3,66.7c1.8,7.7,0.1,18.1,10,22.5c-5.4,9.3-16.1,14.7-19.3,25.7c-15.1,16.3-22.4,36.6-30.1,56.8
	c-8.2,21.4-13,43.7-17.4,66.1c-0.6,3.1-1,6.1-3.6,8.2c-33.6-88.4-56-179.4-65.1-273.6C30.9,1521.8,26.5,1492.3,27.9,1462.3z"/>
<path class="st3" d="M1245.8,2408.6c-0.8-51.1-13.8-99.8-28.5-148.2c-2.3-7.5-7-14.7-4.9-23.2c15.8,15.9,26,36,40.4,52.9
	c20,23.6,39,48.1,63.1,67.8c3.8,4.7,7.6,9.5,11.4,14.2C1305.4,2396.3,1281.7,2416,1245.8,2408.6z"/>
<path class="st4" d="M147.5,1930.9c16.4,6,32.6,5.4,50.4-4c-2.5,26.1-3.2,50.2-2.4,74.3C174.4,1981.3,160,1956.7,147.5,1930.9z"/>
<path class="st5" d="M2620.6,1324.1c3.4,26.5,7.9,52.9,10,79.5c6.3,78.1,4.5,154.9-41.6,223.4c-28.8,42.9-62.9,80.8-107.1,108.2
	c-15.5,9.6-21.4,21-22.5,39.2c-3.3,51.5-9.9,102.7-16.9,153.8c-7.2,52.3-16.6,104.2-28,158.6c51.4-9.7,96.8-28.9,141.3-50.8
	c44.8-22.1,86.2-49.7,124-82.3c5.5,3.8,1.2,7.5,0.2,10.1c-15.4,38.8-31.7,77.2-51.6,114.1c-44.1,81.7-113.2,129.2-201.3,152.1
	c-13.8,3.6-27.8,7.2-42.2,8.1c-10.8,0.7-17.9,4.8-22.2,16.1c-12.4,32.8-29.2,63.5-51.1,91c-21.9,27.4-47.4,50.5-83.8,55.4
	c-38,5.1-73.4-1.4-102-29.7c-20.1-19.9-24.3-45.9-25.3-72.3c-1.3-34.6,7.4-67.9,15.7-101.1c0.3-1.2,0.8-2.4,1.3-3.5
	c8.1-17.1,2.5-29.8-12.8-39.3c-10.4-17.6-25.7-30.2-42.8-40.8c-70.3-43.8-147.1-73.3-224.8-100.6c-23.9-8.4-48.8-9.2-73.9-8.1
	c-0.3-5.6,4.1-6.1,7.2-7.4c45.5-17.9,92.1-30.5,141.6-30.4c38.6,0.1,77-0.1,115,10c49.7,13.1,95,33.6,133.4,68.2
	c1.4,1.2,3,2.1,5.3,3.7c6.8-6.5,7.8-15.4,9.9-23.3c16.2-61.4,32.4-122.7,45.2-184.9c1.9-9.4-0.1-15.5-5.8-21.9
	c-29.6-33.3-62.3-62.5-103.2-82.1c-56.3-27-113.4-51.7-172.3-72.3c-26.7-9.3-54.2-14.3-83.3-11.5c15.9-15.1,83.5-34.7,130.2-37.4
	c46.2-2.7,92.1-0.6,137.3,10.9c45.1,11.5,86.3,30.9,122.9,60.7c8.4-16.3,8-32.3,9.8-47.3c5.6-45.6,12.2-91.3,13.2-137.4
	c0.1-5.6-0.5-9.3-4.8-12.9c-26.6-22.7-49.3-49.2-72.1-75.5c-20.5-23.6-46.9-38.9-73.8-53.5c-40.6-22-83.4-39.4-126.2-56.6
	c-27.2-10.9-54.1-22.8-83.2-27.7c-17.5-2.9-35-9.6-53.5-2.4c-0.9-6.5,3.6-6.2,6.5-7.5c41.1-17.2,83.6-27,128.3-30.8
	c72.7-6.2,141.3,5.9,206.2,38.5c28,14,52.5,33,74.9,59c0-19.2,1.7-35.9-0.4-52.1c-3.9-31.4-5.6-63.1-9.8-94.5
	c-8.3-61.7-19.3-123-35.6-183c-21.9-80.7-50.3-159.3-88.4-234c-36.1-70.7-78.1-137.7-130.4-197.8c-4.1-4.7-7.7-9.8-9.8-15.8
	c0.6-0.8,1.2-1.5,1.9-2.3c12.8,3.8,23.2,12,34.1,19.1c38.1,24.9,73.8,53,107.6,83.6c81.3,73.7,145,160.5,196.9,256.8
	c15.7,29.1,29.2,59.2,42.6,89.4c3,6.8,6.3,13.4,9.1,19.3c7.3,2.3,10.4-2.2,14-5.4c43.1-37.9,76.6-83.4,106.3-132.1
	c10.3-16.9,20.4-33.9,30.6-50.8c6.4,4.1,4.9,9.5,5.1,14.3c2.4,66-11.7,128.6-38.4,188.7c-10.6,23.9-22,47.5-33.5,71
	c-7.4,15.2-15.6,30.1-28.9,41c-8.7,7.1-9.2,15.6-6.5,25.3c12.9,46.8,21.4,94.6,27.9,142.6c2.7,19.6,5.5,39.4,4.7,59.5
	c-1.4,37.4,4,74.6,3.4,112c-0.3,21.1-5.5,42-1.9,64.7c11.5-4.6,17.9-14.8,25-23.3c41.1-48.9,76.2-101.8,102.1-160.4
	c4.8-10.8,9.2-21.8,13.6-32.8C2615.1,1332.1,2615.9,1327,2620.6,1324.1z"/>
<path class="st1" d="M1163.6,1968.4c-12.2-11-20.3-24.7-26.9-39.4c-13.1-29.1-19.2-60.2-26.2-91.1c-1.2-5.4-2.3-11-4.5-16.1
	c-4.4-10.2-15.3-16.5-25.7-12.6c-23.8,9-46.5,3.8-69.4-2.4c-11.8-3.2-20.2-11.4-30.7-18.4c4.3-5.4,8.8-6.6,13.6-7.7
	c60.5-13.3,117.4-36.3,172.1-65.2c50.3-26.6,91.2-64,127.5-107.6c33.7-40.6,55.5-86.4,68-137.1c3.9-15.7,4.3-16.1,19.7-16.2
	c48.7,0,97.3,0.1,146,0.2c-14.3,12.9-28.7,25.8-43,38.6c-26.3,23.5-47.9,50.4-61,83.7c-7.2,18.2-10.8,37.1-12.2,56.3
	c-2,26-2.7,52.2-3.9,78.3c-1.4,31.6-6.4,62.1-26,88.2c-17.9,23.9-43.6,36.7-70.4,47.7c-33.6,13.9-65.3,30.7-93.2,54.5
	c-17.3,14.7-31.9,31.3-43.6,50.7C1170.6,1958.1,1167,1963.2,1163.6,1968.4z"/>
<path class="st6" d="M1997.6,556.3c-3.5-1.2-6.6-2.8-8.4-7.5c5.4-1.3,7.9,1.9,10.3,5.2C1998.8,554.8,1998.2,555.6,1997.6,556.3z"/>
<path class="st3" d="M1212.5,2237.4c-4.2-1-4.5-4.2-4.2-7.7C1211,2231.5,1212.3,2234.1,1212.5,2237.4z"/>
<path class="st7" d="M263.4,499c-4.7-0.8-6-2.7-4.1-7.6c6.7-17.4,13.1-34.8,16.3-53.4c3.6-20.8,5.7-41.6,6.8-62.8
	c2-37.7,2-75.6,10.8-112.7c8.8-37.1,27.4-67.9,56.7-92.1c18.1-15,40.4-17.9,62.8-20.5c16.4-1.9,32.2,2.7,48.1,4.4
	c29.5,3.1,59,7.5,87.9,14.7c15.6,3.9,31.1,8.4,46.1,14.5c4.5,1.8,3.2,4.3,2.2,7.2c-39.1,13-73.4,33.7-102.2,63.5
	c-16.3,16.9-37.1,25.7-60.3,26c-44.6,0.5-70.7,26.1-89.9,62.4c-9.7,18.4-14.3,38.5-17,58.9c-2.8,20.9-4.9,42-5,63.2
	c0,4.3-0.1,8.8-1,13c-3.9,18.6-10.6,23.1-30.1,21.8C282.1,498.9,272.8,499.1,263.4,499z"/>
<path class="st8" d="M248.8,745.7c2.6-36.8,8.1-74.6,28.2-108.8c10.4-17.6,25.2-29.5,44.1-35.4c18.5-5.8,34,2.1,47.5,14.5
	c31.3,28.9,41,66.2,45.2,107.1c3.3,32.2,0.2,63-8.3,93.5c-6.1,22.1-15.3,42.9-31.3,60.4c-29,31.8-73.1,19.2-92.3-11.2
	c-18.2-28.9-29.8-60-30-94.6C251.9,763.1,246.7,755.8,248.8,745.7z"/>
<path class="st8" d="M401.8,1217.6c-0.4,30.6-10.1,58.2-25.4,84.5c-12.6,21.7-27.1,42.5-45.4,58.7c-27.8,24.6-57.9,46.7-99.1,45.5
	c-25.8-0.8-49-17.1-51.1-48.5c-2.8-41.5,11.1-77.8,33.8-112c17.5-26.3,38.9-48.4,64-67.1c25.4-18.9,53.5-28,85.7-24.2
	c18.1,2.2,35.6,26.6,37.5,46.2C402.3,1206.3,401.8,1212,401.8,1217.6z"/>
<path class="st8" d="M911.3,1000.7c13.2-12.5,29.9-19.8,44.4-30.4c34.4-25,63.5-55.7,93.2-85.9c13.5-13.7,26-28.4,39-42.6
	c3.3-3.6,6.4-7.7,11.3-9.6c14.8,17.5,13,37.3,8.7,57.8c-4.8,22.5-19,39.8-31.2,58.2c-20.2,22.3-43.5,40.6-70.5,53.9
	c-17.4,8.6-35.5,15.6-55.5,13.7c-7.1-0.7-13.4,2.8-20.2,3.4c0-5.4-4.1-7.2-8-9.1C918,1007.8,913.5,1005.6,911.3,1000.7z"/>
<path class="st3" d="M173.3,1015.3c-2.9-5.5-9.5-8-11.5-14.2c67.4,11.9,135.4,7.8,203.2,6.6c31.9-0.6,63.8-8.4,95.4-15
	c19.5-4.1,37.5-13.7,57.7-14.3l0.1,0.1c0,4-1.6,7.2-4.5,9.9c-22.3,20.9-41.9,44.1-62.8,66.3c-16.1,17.2-19.8,16.8-39.5,3.5
	c-12.3-8.2-22.2-20.2-37.5-23.6c-37-8.2-72.8-5.9-106.4,13.2c-5.4,3.1-10.7,6.3-16,9.4C223.2,1047.3,196.5,1034.6,173.3,1015.3z"/>
<path class="st7" d="M113.4,780.1c-2.8-49.8,10.9-94.9,38-136.4c1.7-2.7,3.7-4.9,6.6-6.2c1.5,42.9,8.8,85,19.9,128.7
	C153,760.6,131.9,765.1,113.4,780.1z"/>
<path class="st7" d="M173.3,1015.3c23.2,19.3,49.9,32.1,78.1,42c-35.4,29.5-57.7,68.5-78.6,108.5c-3.5-13.3,0.5-26.4,2-39.4
	c3.2-28.5,3.8-56.8-0.2-85.1C173.3,1032.5,173.5,1023.9,173.3,1015.3z"/>
<path class="st3" d="M518.1,978.4c2.3-3,4.8-5,8.4-1.6c-2.5,2.3-5.5,1.5-8.3,1.7C518.2,978.5,518.1,978.4,518.1,978.4z"/>
<path class="st8" d="M439.7,1949.7c-3.2,31-6.9,63.4-26.6,91.7c-20.9,29.9-57.2,33-85.2,8.8c-31-26.9-45.2-61.8-53.2-100.2
	c-3.4-16.3-7.4-33-7.1-49.5c0.6-31,3.1-62.9,19-90.1c11.9-20.3,28.8-37.8,57.4-34c11.7,1.6,22,5.2,30.4,12.7
	c15.8,14,30.3,29.1,39.3,48.9C429.8,1872.9,437.2,1909.8,439.7,1949.7z"/>
<path class="st7" d="M169.3,1668.2c-9.9-4.5-8.2-14.9-10-22.5c-5.2-22-8.4-44.4-12.3-66.7c23.8,16,43.7,36.6,67.8,56.2
	C198.3,1645.9,182.9,1655.9,169.3,1668.2z"/>
<path class="st8" d="M1256.7,629.8c19.7-36.4,36.4-74.3,52.5-112.3c5.6,0,8.8-3.9,12.6-7.2c20.8-17.4,44.4-29.9,70.7-36.3
	c15.3-3.7,31.3-3,46.5-0.9c20.8,2.9,34.6,31.1,29.6,55c-11.6,55.3-46.7,91.8-93.6,119.4c-19.2,11.3-40,16.7-61.7,19.6
	C1287.1,670.5,1268.6,658.2,1256.7,629.8z"/>
</svg>
