<?xml version="1.0" encoding="utf-8"?>
<!-- Generator: Adobe Illustrator 25.3.1, SVG Export Plug-In . SVG Version: 6.00 Build 0)  -->
<svg version="1.1" id="Layer_1" xmlns="http://www.w3.org/2000/svg" xmlns:xlink="http://www.w3.org/1999/xlink" x="0px" y="0px"
	 viewBox="0 0 1010.8 2145.9" style="enable-background:new 0 0 1010.8 2145.9;" xml:space="preserve">
<style type="text/css">
	.st0{fill:#D4E4BF;}
	.st1{fill:#C0D89E;}
	.st2{fill:#96BE61;}
	.st3{fill:#A4C777;}
	.st4{fill:#70AD29;}
	.st5{fill:#7DB03A;}
	.st6{fill:#89B84C;}
	.st7{fill:#89B84D;}
	.st8{fill:#60A20F;}
</style>
<g id="cH6xvW_1_">
	<g>
		<path class="st0" d="M505.5,2144.9c-31.4-0.1-62.9-0.2-94.3-0.3c-42.5-39.8-42.8-94-45.3-145.1c-8.1-166.8,3.5-333.4,13.2-499.9
			c5.9-101.9,12.6-203.8,20.6-305.6c13-166.1,21.4-332.5,24.6-499.1c20.4-14.8,49.6-15.2,64.2-39.4c6.7-1.4,7.3-16.7,18.4-8
			c-0.5,11.1-1.3,22.2-1.3,33.3C505.4,1168.8,505.5,1656.9,505.5,2144.9z"/>
		<path class="st1" d="M505.5,2144.9c0-488-0.1-976.1,0-1464.1c0-11.1,0.9-22.2,1.3-33.3c5.7,2.6,11.5,5.2,17.2,7.8
			c12.9,25.5,42.5,24.8,62.2,39.6c2.9,137.4,9.7,274.6,18.7,411.8c10.7,161.3,20.6,322.6,33.1,483.8
			c10.7,137.3,11.3,275.3,6.6,412.9c-1.7,49.8-3.8,102.9-45.4,141.4C568,2144.9,536.8,2144.9,505.5,2144.9z"/>
		<path class="st2" d="M424.3,695c-3.2,166.6-11.6,332.9-24.6,499.1c-8,101.8-14.7,203.7-20.6,305.6
			c-9.6,166.5-21.2,333.1-13.2,499.9c2.5,51.1,2.8,105.4,45.3,145.1c-130.3,8.1-174.4-33.2-180.5-163.9
			c-7.8-166.6,19.1-329.7,43.6-493.3c28.6-190.9,53.9-382.3,64.3-575.2c2.3-43.3,4.3-86.5,6.5-129.8c0-22.4,0.1-44.7,0.1-67.1
			C371.5,708.6,397.9,701.8,424.3,695z"/>
		<path class="st2" d="M599.3,2144.8c41.7-38.5,43.7-91.7,45.4-141.4c4.7-137.6,4.1-275.6-6.6-412.9
			c-12.5-161.2-22.5-322.5-33.1-483.8c-9.1-137.2-15.9-274.4-18.7-411.8c26.5,6.8,53,13.6,79.5,20.4c0,22.4,0.1,44.7,0.1,67.1
			c6.5,221.1,32.1,440.4,63.9,659.1c25.9,177.8,60.3,354.9,50,536.1c-1.3,22.1-3.8,44.4-8.8,65.8c-17.5,75.8-51.3,102.2-128.4,102.3
			C628.1,2145.9,613.7,2145.2,599.3,2144.8z"/>
		<path class="st3" d="M524,655.3c-5.8-2.6-11.5-5.2-17.2-7.8c-11.1-8.7-11.7,6.7-18.4,8c-14.9-4.3-22.9-17.2-33-27.2
			c-103.6-102.2-207-204.6-310.5-306.9c3.9-10.3,13.9-3.2,20.1-6.9c59.2,15.2,120,27.1,167.6,85.3c-4-28.9-6.5-47.1-9-65.4
			c69.1,17.6,117.3,61.5,151.3,120.8c22.4-8.8-6-46.9,29.8-46.9c26.5,4.6,13.3,36.1,30.8,46.3c31.9-56,75.5-96.5,141.8-114.9
			c1.4,19,2.5,34.5,4.2,57.5c45.4-56.6,105.5-68.1,164.3-82.6c6.2,3.7,16.1-3.5,20.1,6.9C786.3,400,707,478.8,626.9,556.8
			C592.9,589.9,562.6,626.9,524,655.3z"/>
		<path class="st4" d="M845.8,314.6c-58.8,14.5-118.9,26.1-164.3,82.6c-1.7-23-2.8-38.5-4.2-57.5c-66.3,18.4-109.9,58.9-141.8,114.9
			c-17.5-10.2-4.4-41.7-30.8-46.3c0.2-136.1,0.3-272.2,0.5-408.4c40.6,33.3,61.6,77.7,72.5,127.9c-8.1,15.5-8.8,30.8,0.5,46.1
			c15.7-1.5,15.7-1.5,44.7-33.9c12.3,20.9,21.4,42,23.5,65.8c10.8,42.1,9.2,83.9,0.1,127.6c87.8-67.4,98.6-173.1,132.3-267.3
			c14.2-7.4,12.6,5,15.1,12.1c20.7,59.7,27.7,119.5-2,180.5c20.7-0.1,32.7-12.7,47.4-18.7c2.2,4.7,4.4,9.4,6.6,14
			c-0.1,13.5-0.1,27-0.2,40.5c-6.7,4-6.4,8.3-0.6,12.8C845.3,309.9,845.5,312.2,845.8,314.6z"/>
		<path class="st5" d="M144.9,321.5c103.5,102.3,206.9,204.7,310.5,306.9c10.1,10,18.1,22.9,33,27.2c-14.5,24.3-43.8,24.6-64.1,39.4
			c-26.4,6.8-52.8,13.6-79.2,20.4c-43.5,2.4-80-9.5-106.7-47.9c14.7-9.6,35.3,0.8,37.8-23.4c-34.3-14.8-54.2-48.3-84.8-69
			c-8.9-24.5-17.8-49-26.7-73.5c8.5-0.1,17.3,0.2,21.1-9.9c25.9,0.8,10.3-11.5,5.1-18.1C155.5,428.7,147.4,376,144.9,321.5z"/>
		<path class="st5" d="M524,655.3c38.5-28.4,68.9-65.4,102.9-98.5c80.1-78,159.3-156.8,238.9-235.3c-2.4,54.5-10.6,107.2-45.8,152
			c-8.7,11-8.1,11.4,5.1,18.3c3.9,10.1,12.6,9.8,21.1,9.9c-8.9,24.5-17.8,49-26.7,73.5c-30.7,21.9-52.3,54.1-85.2,70.5
			c5,23.6,27.2,10,37.6,25.2c-27.3,34.3-63,47.7-106.1,44.7c-26.5-6.8-53-13.6-79.5-20.4C566.6,680.1,537,680.8,524,655.3z"/>
		<path class="st2" d="M505.1,0c-0.2,136.1-0.3,272.2-0.5,408.4c-35.8,0.1-7.4,38.1-29.8,46.9c-33.9-59.3-82.2-103.2-151.3-120.8
			c-7.7-7.7-4.3-17.5-5-26.5c19.8,0,27.1,26.8,51.8,22.6c-16.4-40.4-11.6-82.2-11.5-123.8c14.4-19.4,12.1-46.5,29.7-65.1
			c14.8,9.8,20.9,28.9,41.4,37.1C428.1,107.4,452.6,47.5,505.1,0z"/>
		<path class="st4" d="M191.3,575.1c30.7,20.7,50.5,54.2,84.8,69c-2.5,24.2-23.1,13.9-37.8,23.4c26.7,38.4,63.2,50.3,106.7,47.9
			c0,22.4-0.1,44.7-0.1,67.1c-28.5,8.7-54.9,26.9-87,19.1c-1.9-3.5-4-3.8-6.3-0.3c-17.4,0.5-30.8-8-46.5-19.1
			c16.3-9.6,30.1-17.7,51.1-30.1c-75.7-9-130.1-41.5-174.5-97.3c19.3-9.2,40.6-5.9,54.1-22.6c-62.6-21.1-100-67.7-127.8-123.7
			c-2.9-5.9-18.1-16.8,2.4-21.5C66,526.2,132.1,543.5,191.3,575.1z"/>
		<path class="st4" d="M665.8,715.4c43.2,3,78.8-10.4,106.1-44.7c-10.4-15.2-32.5-1.6-37.6-25.2c32.9-16.4,54.5-48.5,85.2-70.5
			c10.9-5.4,21.8-10.9,32.8-16.1c49.5-23.6,102.9-39.2,148-72c20.5,4.7,5.4,15.6,2.4,21.5c-27.8,56-65.2,102.7-128.1,123.8
			c14.1,15,32.7,15,55,20.6c-43.9,57.5-97.9,89.9-167.8,97.7c7.8,19,30.1,17.7,42.3,32.7c-14.2,10.1-27.6,18.6-45,18.1
			c-2.3-3.5-4.4-3.2-6.3,0.3c-32.1,7.8-58.5-10.4-87-19.1C665.8,760.1,665.8,737.8,665.8,715.4z"/>
		<path class="st4" d="M318.5,308c0.8,9-2.7,18.8,5,26.5c2.5,18.2,5,36.5,9,65.4C285,341.7,224.3,329.8,165,314.6
			c0.3-2.4,0.5-4.8,0.8-7.2c5.9-4.5,6.1-8.8-0.6-12.8c-0.1-13.5-0.1-27-0.2-40.4c2.2-4.7,4.4-9.3,6.6-14
			c14.2,7.1,28.3,14.2,50.6,25.4c-33.1-67.8-26-127.6-5.3-187.3c2.4-7.1,0.8-19.5,15-12.1c-1.8,15,4.9,28.1,9.9,41.4
			C267.2,174.5,292.9,241.2,318.5,308z"/>
		<path class="st6" d="M778.8,66.2c-33.7,94.1-44.5,199.9-132.3,267.3c9.1-43.6,10.6-85.5-0.1-127.6
			c25.7-56.2,61.8-103.4,117.4-133.3C768.6,70.1,773.8,68.3,778.8,66.2z"/>
		<path class="st6" d="M318.5,308c-25.6-66.8-51.3-133.5-76.6-200.4c-5-13.3-11.7-26.4-9.9-41.4c61.8,29.2,107.9,72.6,126.8,140.6
			c-0.1,41.5-4.9,83.3,11.5,123.8C345.6,334.8,338.3,308,318.5,308z"/>
		<path class="st7" d="M191.3,575.1C132.1,543.5,66,526.2,10.5,487c12.3-8.4,26.4-10.2,40.7-11.3c19.4,12.1,40.7,4.3,61.1,5.5
			c20.1,1.2,40.1,0.1,52.3,20.4C173.5,526.1,182.4,550.6,191.3,575.1z"/>
		<path class="st7" d="M1000.3,487c-45.1,32.8-98.4,48.4-148,72c-11,5.2-21.8,10.7-32.8,16.1c8.9-24.5,17.8-49,26.7-73.5
			c10.5-17.5,27.4-19.2,45.7-20.3c22.6-1.4,46,6.4,67.8-5.6C973.9,476.9,988,478.6,1000.3,487z"/>
		<path class="st6" d="M164.6,501.6c-12.2-20.3-32.2-19.2-52.3-20.4c-20.4-1.2-41.7,6.6-61.1-5.5c46.5-8.4,92-9.3,134.5,16
			C181.8,501.8,173.1,501.5,164.6,501.6z"/>
		<path class="st6" d="M959.7,475.7c-21.7,11.9-45.2,4.2-67.8,5.6c-18.2,1.1-35.2,2.8-45.7,20.3c-8.5-0.1-17.2,0.2-21.1-9.9
			C867.6,466.8,913.1,467,959.7,475.7z"/>
		<path class="st8" d="M578.2,174c-9.3-15.3-8.6-30.6-0.5-46.1C577.8,143.3,578,158.6,578.2,174z"/>
		<path class="st8" d="M171.6,240.2c-2.2,4.7-4.4,9.3-6.6,14C167.5,249.7,156.8,238.9,171.6,240.2z"/>
		<path class="st8" d="M845.8,254.2c-2.2-4.7-4.4-9.4-6.6-14C854.1,238.9,843.4,249.7,845.8,254.2z"/>
		<path class="st8" d="M165.2,294.7c6.6,4,6.4,8.2,0.6,12.8C165.6,303.2,165.4,298.9,165.2,294.7z"/>
		<path class="st8" d="M845,307.5c-5.8-4.5-6.1-8.8,0.6-12.8C845.4,299,845.2,303.2,845,307.5z"/>
		<path class="st8" d="M251.7,801.3c2.3-3.5,4.4-3.3,6.3,0.3l-3.2,0.5L251.7,801.3z"/>
		<path class="st8" d="M752.8,801.6c1.9-3.5,4-3.8,6.3-0.3l-3.1,0.8L752.8,801.6z"/>
	</g>
</g>
</svg>
