<?xml version="1.0" encoding="iso-8859-1"?>
<!-- Generator: Adobe Illustrator 25.3.1, SVG Export Plug-In . SVG Version: 6.00 Build 0)  -->
<svg version="1.1" id="Layer_1" xmlns="http://www.w3.org/2000/svg" xmlns:xlink="http://www.w3.org/1999/xlink" x="0px" y="0px"
	 viewBox="0 0 4320 4320" style="enable-background:new 0 0 4320 4320;" xml:space="preserve">
<g id="cH6xvW_1_">
	<g>
		<path style="fill:#D4E4BF;" d="M2160.095,3090.584c-31.442-0.088-62.884-0.176-94.324-0.263
			c-42.505-39.752-42.841-94.032-45.313-145.145c-8.068-166.834,3.506-333.399,13.152-499.885
			c5.905-101.928,12.614-203.829,20.607-305.613c13.048-166.134,21.434-332.46,24.645-499.061
			c20.35-14.832,49.607-15.181,64.16-39.436c6.703-1.359,7.297-16.696,18.382-8.028c-0.461,11.095-1.323,22.191-1.324,33.286
			C2160.037,2114.487,2160.071,2602.535,2160.095,3090.584z"/>
		<path style="fill:#C0D89E;" d="M2160.095,3090.584c-0.024-488.048-0.058-976.096-0.015-1464.145
			c0.001-11.095,0.864-22.191,1.311-33.278c5.739,2.614,11.491,5.219,17.243,7.825c12.921,25.491,42.515,24.803,62.237,39.615
			c2.862,137.407,9.667,274.598,18.726,411.758c10.653,161.282,20.611,322.586,33.111,483.76
			c10.652,137.349,11.26,275.292,6.569,412.931c-1.696,49.775-3.78,102.889-45.433,141.426
			C2222.594,3090.511,2191.344,3090.548,2160.095,3090.584z"/>
		<path style="fill:#96BE61;" d="M2078.86,1640.617c-3.209,166.601-11.596,332.928-24.643,499.061
			c-7.994,101.784-14.702,203.685-20.607,305.613c-9.646,166.485-21.219,333.05-13.152,499.885
			c2.472,51.112,2.808,105.393,45.313,145.145c-130.347,8.131-174.418-33.216-180.538-163.877
			c-7.801-166.56,19.126-329.748,43.597-493.298c28.569-190.943,53.912-382.251,64.252-575.228
			c2.318-43.256,4.327-86.528,6.479-129.793c0.033-22.367,0.067-44.734,0.1-67.102
			C2026.061,1654.221,2052.461,1647.419,2078.86,1640.617z"/>
		<path style="fill:#96BE61;" d="M2253.843,3090.475c41.654-38.537,43.737-91.651,45.433-141.426
			c4.691-137.638,4.083-275.582-6.569-412.931c-12.5-161.174-22.458-322.478-33.111-483.76
			c-9.06-137.159-15.865-274.351-18.73-411.756c26.49,6.808,52.983,13.614,79.477,20.42c0.032,22.367,0.065,44.734,0.097,67.1
			c6.537,221.14,32.059,440.4,63.902,659.125c25.885,177.803,60.32,354.939,49.963,536.116c-1.261,22.062-3.801,44.358-8.772,65.847
			c-17.54,75.829-51.339,102.247-128.365,102.319C2282.727,3091.543,2268.285,3090.845,2253.843,3090.475z"/>
		<path style="fill:#A4C777;" d="M2178.634,1600.986c-5.752-2.606-11.504-5.212-17.243-7.825
			c-11.072-8.676-11.666,6.661-18.382,8.021c-14.921-4.293-22.887-17.193-33.012-27.178
			c-103.614-102.174-207.011-204.568-310.468-306.901c3.941-10.326,13.863-3.171,20.073-6.863
			c59.25,15.165,119.959,27.123,167.551,85.277c-3.989-28.9-6.505-47.135-9.022-65.37c69.074,17.576,117.343,61.455,151.27,120.775
			c22.413-8.803-5.974-46.854,29.843-46.91c26.451,4.564,13.316,36.069,30.824,46.306c31.863-56.019,75.463-96.492,141.764-114.91
			c1.399,18.96,2.544,34.485,4.239,57.451c45.399-56.554,105.526-68.147,164.318-82.626c6.213,3.702,16.147-3.458,20.087,6.878
			c-79.599,78.493-158.882,157.308-238.944,235.326C2247.526,1535.576,2217.174,1572.574,2178.634,1600.986z"/>
		<path style="fill:#70AD29;" d="M2500.39,1260.233c-58.792,14.479-118.919,26.072-164.318,82.626
			c-1.694-22.966-2.84-38.491-4.239-57.451c-66.301,18.418-109.901,58.891-141.764,114.91
			c-17.508-10.237-4.373-41.741-30.819-46.308c0.161-136.125,0.317-272.248,0.472-408.37
			c40.622,33.315,61.643,77.739,72.534,127.904c-8.113,15.451-8.764,30.82,0.51,46.079c15.747-1.49,15.747-1.49,44.729-33.863
			c12.316,20.944,21.365,42.012,23.545,65.777c10.755,42.088,9.213,83.944,0.113,127.577
			c87.816-67.367,98.606-173.121,132.269-267.266c14.196-7.362,12.604,5.05,15.052,12.127
			c20.656,59.713,27.744,119.538-2.048,180.55c20.686-0.099,32.688-12.722,47.368-18.677c2.194,4.678,4.389,9.356,6.583,14.034
			c-0.072,13.484-0.144,26.968-0.216,40.452c-6.668,3.977-6.362,8.263-0.567,12.792
			C2499.859,1255.494,2500.124,1257.864,2500.39,1260.233z"/>
		<path style="fill:#7DB03A;" d="M1799.529,1267.104c103.457,102.333,206.854,204.727,310.468,306.901
			c10.125,9.985,18.092,22.885,33.012,27.178c-14.54,24.254-43.797,24.603-64.147,39.435c-26.402,6.802-52.801,13.604-79.202,20.406
			c-43.52,2.4-80.045-9.472-106.701-47.912c14.7-9.567,35.309,0.816,37.785-23.434c-34.322-14.775-54.157-48.296-84.843-68.969
			c-8.909-24.493-17.818-48.986-26.728-73.479c8.544-0.101,17.264,0.167,21.083-9.945c25.893,0.841,10.256-11.492,5.055-18.114
			C1810.115,1374.366,1801.983,1321.635,1799.529,1267.104z"/>
		<path style="fill:#7DB03A;" d="M2178.634,1600.986c38.541-28.412,68.892-65.41,102.899-98.549
			c80.062-78.018,159.345-156.833,238.944-235.326c-2.431,54.52-10.581,107.246-45.846,151.951
			c-8.691,11.017-8.147,11.446,5.068,18.282c3.888,10.051,12.594,9.786,21.134,9.876c-8.91,24.496-17.821,48.992-26.732,73.488
			c-30.676,21.921-52.326,54.071-85.195,70.459c5.026,23.598,27.184,10.018,37.573,25.171
			c-27.318,34.255-62.96,47.729-106.135,44.685c-26.493-6.806-52.987-13.612-79.477-20.42
			C2221.148,1625.789,2191.554,1626.477,2178.634,1600.986z"/>
		<path style="fill:#96BE61;" d="M2159.722,945.64c-0.156,136.123-0.311,272.245-0.472,408.37
			c-35.823,0.059-7.436,38.109-29.849,46.912c-33.927-59.32-82.196-103.199-151.257-120.772c-7.738-7.688-4.264-17.515-5.041-26.533
			c19.791,0.002,27.072,26.8,51.759,22.567c-16.354-40.415-11.602-82.249-11.492-123.765c14.367-19.436,12.054-46.484,29.677-65.08
			c14.805,9.85,20.868,28.908,41.368,37.091C2082.681,1052.996,2107.154,993.105,2159.722,945.64z"/>
		<path style="fill:#70AD29;" d="M1845.901,1520.708c30.686,20.673,50.521,54.194,84.843,68.969
			c-2.476,24.25-23.084,13.867-37.785,23.434c26.656,38.44,63.181,50.312,106.701,47.912c-0.033,22.367-0.066,44.734-0.1,67.102
			c-28.483,8.72-54.888,26.884-86.996,19.128c-1.943-3.544-4.037-3.776-6.3-0.286c-17.435,0.521-30.827-8.039-46.462-19.103
			c16.272-9.581,30.073-17.707,51.085-30.079c-75.701-9.004-130.137-41.465-174.453-97.313c19.272-9.2,40.598-5.89,54.092-22.609
			c-62.619-21.051-100.026-67.675-127.79-123.682c-2.934-5.918-18.079-16.794,2.39-21.537
			C1720.6,1471.816,1786.74,1489.104,1845.901,1520.708z"/>
		<path style="fill:#70AD29;" d="M2320.344,1661.023c43.175,3.044,78.818-10.43,106.135-44.685
			c-10.388-15.153-32.547-1.573-37.573-25.171c32.869-16.388,54.518-48.538,85.195-70.459c10.915-5.368,21.771-10.859,32.755-16.082
			c49.545-23.56,102.927-39.233,147.996-71.991c20.483,4.704,5.366,15.602,2.429,21.525
			c-27.775,56.008-65.173,102.653-128.139,123.811c14.079,14.984,32.652,15.012,55.033,20.592
			c-43.879,57.545-97.866,89.945-167.775,97.673c7.823,18.993,30.111,17.691,42.331,32.651
			c-14.175,10.054-27.574,18.612-45.015,18.08c-2.261-3.515-4.35-3.232-6.292,0.285c-32.104,7.755-58.503-10.411-86.982-19.13
			C2320.408,1705.756,2320.376,1683.39,2320.344,1661.023z"/>
		<path style="fill:#70AD29;" d="M1973.104,1253.617c0.777,9.018-2.698,18.845,5.041,26.533c2.504,18.233,5.02,36.468,9.009,65.368
			c-47.592-58.154-108.301-70.112-167.551-85.277c0.265-2.388,0.53-4.776,0.795-7.165c5.858-4.521,6.078-8.796-0.561-12.769
			c-0.072-13.481-0.144-26.962-0.216-40.443c2.198-4.674,4.396-9.348,6.595-14.022c14.16,7.102,28.32,14.204,50.647,25.401
			c-33.136-67.769-25.973-127.598-5.327-187.312c2.439-7.055,0.825-19.536,15.048-12.091c-1.836,15.013,4.872,28.116,9.896,41.391
			C1921.796,1120.112,1947.522,1186.837,1973.104,1253.617z"/>
		<path style="fill:#89B84C;" d="M2433.422,1011.847c-33.663,94.145-44.453,199.899-132.269,267.266
			c9.1-43.632,10.642-85.489-0.113-127.577c25.736-56.208,61.775-103.373,117.37-133.27
			C2423.184,1015.699,2428.407,1013.967,2433.422,1011.847z"/>
		<path style="fill:#89B84C;" d="M1973.104,1253.617c-25.582-66.78-51.308-133.505-76.625-200.386
			c-5.025-13.275-11.732-26.377-9.896-41.391c61.809,29.241,107.906,72.645,126.788,140.579
			c-0.109,41.516-4.862,83.349,11.492,123.765C2000.176,1280.417,1992.895,1253.619,1973.104,1253.617z"/>
		<path style="fill:#89B84D;" d="M1845.901,1520.708c-59.161-31.604-125.301-48.892-180.774-88.064
			c12.264-8.397,26.382-10.156,40.657-11.348c19.388,12.143,40.748,4.322,61.131,5.536c20.057,1.194,40.056,0.099,52.258,20.398
			C1828.083,1471.722,1836.992,1496.215,1845.901,1520.708z"/>
		<path style="fill:#89B84D;" d="M2654.852,1432.636c-45.069,32.758-98.45,48.431-147.996,71.991
			c-10.984,5.223-21.84,10.714-32.755,16.082c8.911-24.496,17.822-48.992,26.732-73.488c10.468-17.528,27.428-19.227,45.666-20.338
			c22.595-1.376,46.04,6.352,67.75-5.585C2628.505,1422.495,2642.606,1424.245,2654.852,1432.636z"/>
		<path style="fill:#89B84C;" d="M1819.174,1447.229c-12.202-20.299-32.201-19.204-52.258-20.398
			c-20.383-1.214-41.743,6.607-61.131-5.536c46.458-8.403,92.018-9.255,134.471,15.994
			C1836.437,1447.396,1827.718,1447.128,1819.174,1447.229z"/>
		<path style="fill:#89B84C;" d="M2614.249,1421.298c-21.709,11.937-45.155,4.209-67.75,5.585
			c-18.238,1.111-35.199,2.81-45.666,20.338c-8.54-0.09-17.246,0.175-21.134-9.876
			C2522.21,1412.398,2567.731,1412.672,2614.249,1421.298z"/>
		<path style="fill:#60A20F;" d="M2232.766,1119.622c-9.274-15.259-8.623-30.628-0.51-46.079
			C2232.426,1088.903,2232.596,1104.263,2232.766,1119.622z"/>
		<path style="fill:#60A20F;" d="M1826.215,1185.842c-2.198,4.674-4.397,9.348-6.595,14.022
			C1822.056,1195.301,1811.356,1184.565,1826.215,1185.842z"/>
		<path style="fill:#60A20F;" d="M2500.376,1199.881c-2.194-4.678-4.389-9.356-6.583-14.034
			C2508.651,1184.588,2497.947,1195.313,2500.376,1199.881z"/>
		<path style="fill:#60A20F;" d="M1819.836,1240.307c6.639,3.973,6.419,8.247,0.561,12.769
			C1820.21,1248.82,1820.023,1244.564,1819.836,1240.307z"/>
		<path style="fill:#60A20F;" d="M2499.594,1253.125c-5.795-4.529-6.101-8.815,0.567-12.792
			C2499.971,1244.596,2499.782,1248.86,2499.594,1253.125z"/>
		<path style="fill:#60A20F;" d="M1906.265,1746.967c2.263-3.49,4.357-3.259,6.3,0.286l-3.18,0.522L1906.265,1746.967z"/>
		<path style="fill:#60A20F;" d="M2407.423,1747.253c1.943-3.517,4.032-3.8,6.292-0.285l-3.116,0.807L2407.423,1747.253z"/>
	</g>
</g>
</svg>
