<?xml version="1.0" encoding="utf-8"?>
<!-- Generator: Adobe Illustrator 25.3.1, SVG Export Plug-In . SVG Version: 6.00 Build 0)  -->
<svg version="1.1" id="Layer_1" xmlns="http://www.w3.org/2000/svg" xmlns:xlink="http://www.w3.org/1999/xlink" x="0px" y="0px"
	 viewBox="0 0 1920.8 2203.8" style="enable-background:new 0 0 1920.8 2203.8;" xml:space="preserve">
<style type="text/css">
	.st0{fill:#66BA6A;}
	.st1{fill:#398D3D;}
	.st2{fill:#398D3C;}
	.st3{fill:#F2F1DD;}
	.st4{fill:#E5E4D6;}
	.st5{fill:#E94179;}
</style>
<g>
	<path class="st0" d="M773.2,0c5.7,9.5,15.8,5.2,23.7,6.9c84,17.8,154.7,57.4,208.2,127c63.6,16.1,122.4,43.3,172.9,86.8
		c11.9,10.3,23.2,21.1,33.2,33.4c5.4,6.6,9.3,15.3,19.8,15.3c-0.2,5.2-0.2,10.2,2.9,15c23.6,37,40.3,76.2,46.1,120.7
		c2.6,19.9,0.3,39.9,4.7,60.6c31,16.9,59.5,37.8,84.2,64.2c20.3,21.7,33.8,48.5,54,70.2c9.6,22.5,21.2,43.9,34,64.6
		c19.6,51.5,36.3,103.8,43.5,158.7c-1.4,25.5,8.1,51.2-0.7,76.7c-1,51-22.4,93.9-54.2,132.4c5.3,16.8,8.1,33.3,5.6,49.8
		c-5.2,34.3-12.3,68.1-24.9,100.8c-7.5,19.4-20.2,36.8-22.6,58.1c-9.3,5.9-13,16.1-18.5,24.8c-27.7,44.5-60.8,84.2-102.7,116.3
		c-8.8,6.8-19.6,11.4-25.5,21.8c-28.6,9.9-53.5,28-82,34.8c-3.7,9.5-2.6,17.4-1.1,24.9c9.5,48.9,7.8,96.4-16.8,141.2
		c-2.5,4.5-5.3,9.1-4.9,14.6c-26.2,26.4-49.1,56-77.2,80.5c-28.8,25.2-57.5,50.5-83.6,78.6c-0.5-3.5-1.4-6.9-1.4-10.4
		c-0.2-116.6-0.4-233.1-0.5-349.7c0-1.6,1-3.3,2.2-6.5c60.9-30.5,119.2-67.2,171.5-113c81.8-71.6,140.7-157.5,165.5-264.7
		c1-4.2,1.7-8.6,1.9-12.9c0.3-4.4,1.6-9.2-2.8-14.7c-72.3,150.5-181.1,257-343.6,309.6c0.8-83.4-7.5-162.5-11.5-239.3
		c6.7-10.4,15.1-13.7,22.4-18.4c64.7-41.1,122.9-90.1,173.6-147.5c48.7-55.1,85.5-117.1,106-188.3c3-10.6,5.4-20.6,1.2-36.1
		c-76.8,129.8-175.3,229.3-311.4,292.9c-8.6-82.5-17.7-161.9-29.4-240.6c63.7-51.2,117.6-108.2,154.9-179.1
		c41.7-79.2,60.3-166.9,47.8-225.2c-33.9,129.8-91.8,241.4-212.2,308.8c-8.8-6.6-9.2-12.8-10.4-18.8c-6.9-35.1-13.6-70.2-21.3-105.2
		c-22.1-100.7-49.4-200-84.1-297.2c-2.3-6.3-2.1-15.7-13.3-16.7c16.9,150.7,33.6,300.1,50.2,447.9c-7.4,5.7-12.9,4.2-17.7,3.2
		c-95.1-20.2-183.6-55.5-262.7-113.2c-40.6-29.6-75.4-64.8-108.4-102.2c-0.9-1.4-1.8-2.8-2.8-4.2c-2.9,2.9-1.6,4.4,1.7,5.2
		c3.9,26.8,18.8,48.9,33.3,70.4c68,100.8,163.5,166.7,274,212.6c30.4,12.6,61.7,23,92.5,34.3c5.9,80.9,17.5,159.5,17.2,242.7
		c-163.1-30.2-303.3-95.5-417.7-213.3c18.2,44.3,44.7,81.4,76.6,115c65.9,69.1,146,116.5,233,153.5c37.6,16,76.6,28.6,116.8,41.8
		c0,79.3,10.4,157.3,5,236.9c-76.1-11.2-144.1-37.2-208.2-74.5c-76.2-44.4-143.8-99.7-204.6-163.4c-5.3-5.6-9.4-14.6-22.4-13.6
		c92.3,184.5,240.5,293.9,436,343.1c0.6,5.8,1.1,10,1.5,14.2c5.9,65.6,2.6,131.4,2.8,197.1c0.2,54.3,2,108.7-1.2,163
		c-41.4-34.3-87.6-60.6-136.4-82.8c-18.3-8.3-36.6-16.8-53-28.6c-7.6-5.5-14.9-9.2-23.3-2c-1.2-10.5-4.2-20.2-10-29.3
		c-13.5-21.2-17.9-44.6-17.2-69.6c0.8-28.4,8.9-56.2,6.2-86.7c-22.2-12-45.9-24.5-68.1-39.8c-10.5-7.2-17.5-19.9-31.7-21.6
		c-15.7-19.6-33.5-37.2-53.1-53c-0.5-3.2-2.1-5.3-5.7-5.3l0.3,0.3c-22.6-34.2-48.7-65.6-74.1-97.6c-1.9-4.8-3.1-10.1-5.7-14.4
		c-29.7-49-57.7-98.7-64.8-157.1c-40.7-19.6-69.6-49.5-87.8-89.8c-1.5-1.5-3.1-3-4.6-4.4l0.3,0.4c-5.3-22.6-10.6-45.3-16-67.9
		c-2-103.9,30.7-199.8,69.7-294.2c-19-24.7-32.4-50.6-41.2-79.4c-3.8-12.5,3.3-26.7-7.3-37.4c4.4-132.3,56.9-239.8,164.7-319.5
		C456.1,109.8,528.7,44.5,636.5,13c19.1-5.6,39.6-3.9,57.7-13C720.6,0,746.9,0,773.2,0z"/>
	<path class="st1" d="M267.4,1025c18.2,40.3,47.1,70.2,87.8,89.8c7.1,58.4,35.1,108.1,64.8,157.1c2.6,4.4,3.9,9.6,5.7,14.4
		c-19.4-5.6-37.5-14-55.6-22.8c-62.4-30.2-119.4-68.7-173.4-112c-6-4.8-11.2-13.1-21.9-7.2c77.2,107.1,175.7,185.1,297.4,233.6
		c8.7,3.5,17.3,8.8,27.6,6.1c0,0-0.3-0.3-0.3-0.3c-0.4,4.2,2.6,4.8,5.7,5.3c19.6,15.8,37.3,33.4,53.1,53
		c4.2,31.9,9.4,63.7,12.5,95.7c4.9,51.1,12.5,102,12.4,153.5c-35.8-8.5-70.8-19.7-104.8-33.6c-70.3-28.6-98.4-60.3-119.4-134.1
		c-50.1-10.5-88.9-39.9-119.9-81.1c-30.4-40.4-51.7-85.2-64-132.9c-4-5.6-9.2-7-14-8.9c-71.1-27.9-103.3-82.8-108.1-156.4
		c-2.8-42.4,4.7-83.7,16.4-125.3c-13.4-14.9-29-27.7-39.3-45.2C17.8,953,11,930.6,6,907.4c-1-4.7,1-10.9-6-12.9
		c0-12.3,0-24.6,0-36.8c6.7-2.4,4.7-8.4,5.5-13.2c7.4-47,24.3-89.2,63.7-119.9c8.8-59.9,40.6-104.6,91.4-136.7
		c33.5-21.2,70-35,107.8-45.9c10.6,10.7,3.5,24.9,7.3,37.4c8.7,28.8,22.1,54.6,41.2,79.4c-39,94.4-71.7,190.3-69.7,294.2
		c-29.8-14-57.7-31.3-84.5-50.4c-28-20-55.5-40.9-83.2-61.4c-0.9-3-2.9-4.6-6.1-4.4c-0.6-1.6-0.1-5.1-3.7-2.1
		c1.5,0.6,2.8,1.2,4.1,1.7c-0.8,3.3,0.7,5.5,3.6,7c0.4,6.4,3.8,11.5,7.5,16.4c35,47.1,74.9,89.5,121.9,124.9
		c17.9,13.5,33.5,30.5,56.3,36.2l-0.3-0.4C263,1023.4,264.8,1024.7,267.4,1025z"/>
	<path class="st2" d="M1422.9,600c-20.3-21.6-33.7-48.4-54-70.2c-24.7-26.4-53.2-47.3-84.2-64.2c-4.5-20.7-2.2-40.7-4.7-60.6
		c-5.7-44.5-22.4-83.6-46.1-120.7c-3.1-4.9-3.1-9.8-2.9-15c44.3-26.9,93-39.8,144.2-43.3c73-5,145,0.9,215.8,20.6
		c106.5,29.6,185.4,88.6,215,199.6c107.6,62.2,163.7,286.6,59,406.8c30.7,77.8,40.4,158.5,16.5,240.6
		c-24.1,82.8-75.7,144.8-149.9,186.8c-13,110.2-68.9,219.5-199.1,269.6c-5.9,58.1-39.8,98.8-85.8,131.3
		c-32.4,22.9-67.5,40.3-105.5,51.8c-1.2-126.7,11-252.6,20.1-376.5c5.5-2.6,7-3.4,8.6-4c116.3-45.9,220-110.9,303.8-204.7
		c20-22.4,43.4-43.2,51-74.5c0.9-0.5,1.8-1,1.6-0.9c0.2-0.2-0.6,0.5-1.4,1.2c-36.1,22.9-71.7,46.7-108.5,68.5
		c-67.7,40-137.4,76.1-213,99.1c2.3-21.3,15.1-38.7,22.6-58.1c12.6-32.7,19.6-66.5,24.9-100.8c2.5-16.4-0.4-32.9-5.6-49.8
		c31.8-38.5,53.2-81.4,54.2-132.4c4.5,0.1,8.2-1.5,11.8-4.4c63.5-52,115.6-113.5,154.9-185.6c3.1-5.6,8.9-11.5,1.7-21.8
		c-52.9,49.3-106.1,97.7-167.9,135.2c-7.2-54.9-24-107.2-43.5-158.7c1.3-2.3,3.2-4.4,3.7-6.8c17.8-83.7,37.9-166.8,63.6-248.5
		c0.9-2.9,1.9-6.9-5.4-8.4C1480.7,463.8,1449.4,530.7,1422.9,600z"/>
	<path class="st3" d="M457.9,441.7c33,37.4,67.9,72.7,108.4,102.2c79.1,57.6,167.6,93,262.7,113.2c4.8,1,10.3,2.5,17.7-3.2
		c-16.6-147.8-33.3-297.2-50.2-447.9c11.2,1,11.1,10.4,13.3,16.7c34.7,97.2,62,196.4,84.1,297.2c7.7,34.9,14.4,70.1,21.3,105.2
		c1.2,6.1,1.6,12.2,10.4,18.8c120.5-67.5,178.3-179.1,212.2-308.8c12.6,58.2-6.1,146-47.8,225.2c-37.3,71-91.2,127.9-154.9,179.1
		c11.7,78.7,20.9,158,29.4,240.6c136.1-63.6,234.6-163.1,311.4-292.9c4.3,15.5,1.9,25.5-1.2,36.1c-20.4,71.2-57.3,133.2-106,188.3
		c-50.7,57.4-108.9,106.4-173.6,147.5c-7.3,4.6-15.7,8-22.4,18.4c4,76.8,12.3,155.9,11.5,239.3c162.5-52.7,271.3-159.2,343.6-309.6
		c4.4,5.4,3,10.3,2.8,14.7c-0.3,4.3-1,8.7-1.9,12.9c-24.8,107.2-83.7,193.2-165.5,264.7c-52.3,45.7-110.6,82.5-171.5,113
		c-1.1,3.2-2.2,4.9-2.2,6.5c0.1,116.6,0.2,233.1,0.5,349.7c0,3.5,0.9,6.9,1.4,10.4c-0.4,37.6-1.1,75.2-1.2,112.8
		c-0.2,93.6-0.1,187.3-0.1,280.9c0,9.6,0,19.1,0,30.7c-32.2,0-63.1,0-94.8,0c-4.7-9-2.4-18.8-2.5-28.1
		c-0.2-113.8-0.1-227.5-0.2-341.3c0-10.5-0.7-21-1.1-31.4c3.2-54.3,1.4-108.7,1.2-163c-0.3-65.7,3.1-131.4-2.8-197.1
		c-0.4-4.2-0.9-8.5-1.5-14.2c-195.5-49.2-343.7-158.6-436-343.1c13-1.1,17,8,22.4,13.6c60.8,63.7,128.4,119,204.6,163.4
		c64,37.3,132.1,63.3,208.2,74.5c5.4-79.6-5.1-157.6-5-236.9c-40.3-13.2-79.2-25.8-116.8-41.8c-87-37-167.1-84.4-233-153.5
		c-32-33.5-58.5-70.6-76.6-115c114.4,117.8,254.6,183.1,417.7,213.3c0.3-83.2-11.3-161.7-17.2-242.7c-30.7-11.3-62.1-21.6-92.5-34.3
		c-110.6-45.9-206.1-111.8-274-212.6c-14.5-21.5-29.4-43.5-33.3-70.4L457.9,441.7z"/>
	<path class="st4" d="M1403.8,1241.1c75.6-23.1,145.3-59.1,213-99.1c36.8-21.8,72.4-45.6,108.5-68.5l-0.3-0.3
		c-7.6,31.2-31,52.1-51,74.5c-83.9,93.8-187.5,158.8-303.8,204.7c-1.6,0.6-3.1,1.5-8.6,4c-9.1,124-21.3,249.8-20.1,376.5
		c-1.4,36.7-3.8,73.5-4,110.2c-0.5,110.4-0.2,220.7-0.2,331.1c0,9.4,0,18.9,0,29.6c-33.6,0-64.7,0-95.7,0
		c-5.5-7.4-3.3-15.5-3.3-23.2c-0.1-112.1-0.6-224.3,0.2-336.4c0.4-47.3,3.9-94.5,2.6-141.8c2.3-49.8,4.1-99.6,7.1-149.4
		c3-49.7,9.1-99.2,9.1-149.1c5.8-10.4,16.6-15,25.5-21.8c41.9-32.1,74.9-71.7,102.7-116.3C1390.7,1257.2,1394.5,1247,1403.8,1241.1z
		"/>
	<path class="st4" d="M583.1,1691.1c0.1-51.5-7.5-102.4-12.4-153.5c-3-32-8.3-63.8-12.5-95.7c14.2,1.7,21.2,14.4,31.7,21.6
		c22.2,15.3,45.9,27.8,68.1,39.8c2.7,30.5-5.5,58.2-6.2,86.7c-0.7,25,3.7,48.4,17.2,69.6c5.8,9.1,8.7,18.8,10,29.3
		c-1.9,20.2,2.2,40.1,3.5,60.1c9.9,148.5,13.5,297.2,11.5,446.1c0,2.5,0.7,5.5-5.3,8.7c-28,0-59.1,0-90.8,0c-6-6.2-3.2-14.5-3.2-22
		c-0.3-74.4-0.1-148.8-0.4-223.2C593.9,1869.3,591.3,1780.1,583.1,1691.1z"/>
	<path class="st1" d="M1257.2,1404c0.1,49.9-6,99.4-9.1,149.1c-3,49.8-4.8,99.6-7.1,149.4c-34.8-22-63.1-51.1-88.7-83
		c-0.4-5.5,2.4-10,4.9-14.6c24.7-44.8,26.3-92.3,16.8-141.2c-1.5-7.6-2.6-15.4,1.1-24.9C1203.6,1432,1228.6,1413.9,1257.2,1404z"/>
	<path class="st4" d="M499.8,1384c-10.2,2.7-18.8-2.6-27.6-6.1c-121.7-48.4-220.2-126.5-297.4-233.6c10.7-5.9,15.9,2.5,21.9,7.2
		c54,43.3,111,81.8,173.4,112c18.1,8.7,36.2,17.2,55.6,22.8C451.2,1318.3,477.3,1349.8,499.8,1384z"/>
	<path class="st4" d="M1500.4,823.3c61.7-37.5,115-86,167.9-135.2c7.2,10.3,1.3,16.2-1.7,21.8c-39.4,72.1-91.5,133.6-154.9,185.6
		c-3.6,2.9-7.3,4.5-11.8,4.4C1508.5,874.5,1499,848.9,1500.4,823.3z"/>
	<path class="st4" d="M1422.9,600c26.5-69.3,57.8-136.2,96-199.1c7.2,1.6,6.3,5.6,5.4,8.4c-25.7,81.7-45.8,164.8-63.6,248.5
		c-0.5,2.4-2.5,4.6-3.7,6.8C1444.1,643.9,1432.5,622.5,1422.9,600z"/>
	<path class="st4" d="M263.1,1020.9c-22.9-5.7-38.5-22.7-56.3-36.2c-47-35.4-86.9-77.8-121.9-124.9c-3.7-4.9-7.1-10-7.5-16.4
		c0.7-0.7,1.4-1.5,2.1-2.2c27.7,20.5,55.1,41.4,83.2,61.4c26.7,19.1,54.6,36.4,84.5,50.4C252.5,975.7,257.8,998.3,263.1,1020.9z"/>
	<path class="st5" d="M456.8,442.7c-3.3-0.8-4.6-2.3-1.7-5.2c0.9,1.4,1.9,2.8,2.8,4.2L456.8,442.7z"/>
	<path class="st4" d="M267.4,1025c-2.6-0.3-4.4-1.6-4.6-4.4C264.3,1022,265.9,1023.5,267.4,1025z"/>
	<path class="st4" d="M505.1,1389c-3.1-0.5-6-1.2-5.7-5.3C503,1383.7,504.6,1385.7,505.1,1389z"/>
	<path class="st4" d="M73.9,836.4c-1.3-0.5-2.6-1.1-4.1-1.7c3.6-2.9,3.1,0.5,3.7,2.1L73.9,836.4z"/>
	<path class="st4" d="M73.4,836.8c3.2-0.2,5.2,1.4,6.1,4.4c-0.7,0.7-1.4,1.5-2.1,2.2c-2.9-1.5-4.3-3.7-3.6-7L73.4,836.8z"/>
	<path class="st4" d="M1725.2,1073.5c0.8-0.7,1.5-1.4,1.4-1.2c0.2-0.1-0.7,0.4-1.6,0.9L1725.2,1073.5z"/>
</g>
</svg>
