<?xml version="1.0" encoding="iso-8859-1"?>
<!-- Generator: Adobe Illustrator 25.3.1, SVG Export Plug-In . SVG Version: 6.00 Build 0)  -->
<svg version="1.1" id="Layer_1" xmlns="http://www.w3.org/2000/svg" xmlns:xlink="http://www.w3.org/1999/xlink" x="0px" y="0px"
	 viewBox="0 0 4320 4320" style="enable-background:new 0 0 4320 4320;" xml:space="preserve">
<g>
	<path style="fill:#66BA6A;" d="M1871.656,840.346c5.696,9.546,15.811,5.209,23.683,6.876
		c84.047,17.796,154.669,57.411,208.243,126.98c63.628,16.076,122.391,43.304,172.941,86.805
		c11.94,10.275,23.181,21.14,33.154,33.368c5.354,6.565,9.343,15.255,19.844,15.259c-0.175,5.227-0.199,10.164,2.905,15.035
		c23.6,37.038,40.32,76.156,46.05,120.682c2.56,19.887,0.253,39.93,4.725,60.635c31.028,16.896,59.51,37.838,84.182,64.208
		c20.34,21.74,33.775,48.528,54.027,70.165c9.586,22.46,21.167,43.87,33.978,64.632c19.559,51.508,36.31,103.787,43.513,158.686
		c-1.436,25.546,8.068,51.188-0.676,76.67c-0.957,51.031-22.351,93.926-54.171,132.442c5.259,16.829,8.113,33.339,5.619,49.766
		c-5.208,34.298-12.271,68.094-24.853,100.814c-7.455,19.386-20.237,36.772-22.576,58.113c-9.277,5.912-13.049,16.08-18.467,24.777
		c-27.747,44.539-60.824,84.215-102.679,116.285c-8.849,6.781-19.633,11.449-25.464,21.803
		c-28.596,9.859-53.523,27.986-82.022,34.768c-3.745,9.522-2.618,17.35-1.148,24.936c9.474,48.906,7.847,96.41-16.833,141.22
		c-2.501,4.542-5.277,9.053-4.923,14.587c-26.16,26.442-49.077,55.956-77.239,80.532c-28.836,25.164-57.547,50.509-83.615,78.638
		c-0.501-3.456-1.435-6.912-1.442-10.37c-0.238-116.573-0.395-233.146-0.48-349.719c-0.001-1.632,1.048-3.264,2.155-6.493
		c60.912-30.467,119.229-67.227,171.53-112.975c81.798-71.552,140.686-157.498,165.532-264.703c0.983-4.24,1.682-8.599,1.948-12.938
		c0.268-4.355,1.64-9.241-2.752-14.653c-72.304,150.453-181.141,256.975-343.605,309.634c0.764-83.394-7.489-162.492-11.5-239.278
		c6.697-10.355,15.086-13.73,22.401-18.372c64.741-41.087,122.885-90.061,173.623-147.483
		c48.662-55.073,85.525-117.074,105.964-188.26c3.041-10.593,5.445-20.595,1.161-36.094
		c-76.763,129.82-175.285,229.289-311.368,292.89c-8.561-82.541-17.693-161.911-29.417-240.574
		c63.749-51.184,117.57-108.164,154.913-179.116c41.682-79.196,60.342-166.909,47.788-225.158
		c-33.885,129.779-91.755,241.385-212.232,308.842c-8.764-6.629-9.159-12.757-10.354-18.831
		c-6.903-35.099-13.617-70.246-21.29-105.181c-22.122-100.716-49.423-199.998-84.099-297.162
		c-2.259-6.331-2.148-15.671-13.328-16.707c16.894,150.656,33.649,300.077,50.223,447.875c-7.38,5.668-12.866,4.227-17.693,3.203
		c-95.11-20.178-183.601-55.541-262.73-113.185c-40.57-29.554-75.45-64.797-108.439-102.22c-0.924-1.383-1.848-2.767-2.784-4.169
		c-2.867,2.91-1.554,4.402,1.742,5.232c3.92,26.85,18.838,48.857,33.345,70.365c67.962,100.757,163.469,166.657,274.04,212.552
		c30.399,12.618,61.746,22.951,92.465,34.262c5.87,80.929,17.516,159.473,17.199,242.659
		c-163.068-30.182-303.299-95.475-417.671-213.287c18.19,44.323,44.665,81.436,76.644,114.956
		c65.921,69.099,146.033,116.467,233.024,153.46c37.643,16.008,76.557,28.618,116.814,41.819
		c-0.045,79.278,10.448,157.276,5.03,236.9c-76.091-11.187-144.145-37.215-208.151-74.515
		c-76.206-44.409-143.752-99.674-204.588-163.392c-5.347-5.6-9.398-14.614-22.393-13.553
		c92.318,184.451,240.503,293.871,436.005,343.096c0.62,5.768,1.139,10.002,1.521,14.25c5.897,65.607,2.578,131.366,2.835,197.052
		c0.212,54.327,1.969,108.692-1.227,163.002c-41.386-34.333-87.609-60.597-136.416-82.772
		c-18.279-8.305-36.612-16.833-53.037-28.643c-7.591-5.458-14.882-9.185-23.334-1.97c-1.205-10.48-4.183-20.226-9.951-29.289
		c-13.501-21.215-17.862-44.611-17.193-69.641c0.76-28.438,8.901-56.198,6.235-86.68c-22.175-12.001-45.921-24.503-68.103-39.789
		c-10.504-7.239-17.472-19.908-31.714-21.595c-15.728-19.634-33.473-37.247-53.074-53c-0.504-3.242-2.146-5.276-5.655-5.325
		l0.345,0.333c-22.584-34.157-48.687-65.641-74.11-97.642c-1.881-4.826-3.102-10.052-5.745-14.416
		c-29.679-49.01-57.674-98.694-64.806-157.13c-40.658-19.579-69.644-49.499-87.794-89.795c-1.528-1.476-3.057-2.951-4.585-4.427
		l0.334,0.377c-5.32-22.643-10.639-45.286-15.959-67.93c-1.967-103.92,30.709-199.85,69.708-294.214
		c-19.029-24.749-32.429-50.633-41.154-79.386c-3.783-12.466,3.3-26.667-7.321-37.367c4.438-132.265,56.92-239.774,164.665-319.473
		c23.056-112.784,95.62-178.116,203.469-209.577c19.052-5.558,39.584-3.925,57.747-12.991
		C1819.058,840.346,1845.357,840.346,1871.656,840.346z"/>
	<path style="fill:#398D3D;" d="M1365.854,1865.334c18.15,40.297,47.136,70.216,87.794,89.795
		c7.132,58.436,35.127,108.12,64.806,157.13c2.643,4.364,3.863,9.59,5.745,14.416c-19.354-5.558-37.506-14.019-55.573-22.753
		c-62.427-30.178-119.425-68.719-173.395-111.997c-5.954-4.774-11.17-13.143-21.898-7.228
		c77.192,107.08,175.714,185.112,297.409,233.56c8.742,3.481,17.35,8.778,27.567,6.06c0,0-0.345-0.333-0.346-0.333
		c-0.353,4.153,2.581,4.814,5.655,5.325c19.601,15.753,37.346,33.366,53.074,53c4.238,31.885,9.443,63.677,12.492,95.675
		c4.867,51.086,12.507,101.974,12.39,153.469c-35.793-8.528-70.787-19.713-104.823-33.569
		c-70.347-28.639-98.391-60.252-119.381-134.093c-50.09-10.503-88.935-39.915-119.865-81.109
		c-30.364-40.44-51.665-85.152-64.009-132.887c-3.987-5.614-9.196-7.031-14.005-8.921
		c-71.059-27.916-103.294-82.821-108.115-156.376c-2.78-42.417,4.684-83.732,16.377-125.25
		c-13.366-14.92-29.022-27.672-39.347-45.223c-12.187-20.716-18.963-43.107-23.938-66.288c-1.018-4.744,1.021-10.948-5.999-12.915
		c0-12.277,0-24.554,0-36.831c6.704-2.357,4.749-8.362,5.513-13.189c7.439-47.037,24.289-89.156,63.652-119.876
		c8.842-59.879,40.617-104.58,91.398-136.674c33.516-21.182,70.016-35.007,107.846-45.865c10.621,10.7,3.538,24.901,7.321,37.367
		c8.725,28.752,22.125,54.637,41.154,79.386c-39,94.363-71.675,190.294-69.708,294.214c-29.828-13.999-57.734-31.307-84.469-50.411
		c-28.039-20.035-55.483-40.903-83.187-61.407c-0.923-2.994-2.866-4.584-6.082-4.418c-0.593-1.618-0.103-5.069-3.666-2.119
		c1.507,0.636,2.796,1.179,4.085,1.723c-0.759,3.326,0.674,5.543,3.552,7.03c0.398,6.422,3.792,11.495,7.456,16.422
		c35.038,47.111,74.941,89.475,121.931,124.908c17.871,13.476,33.485,30.479,56.338,36.202l-0.334-0.377
		C1361.462,1863.766,1363.223,1865.001,1365.854,1865.334z"/>
	<path style="fill:#398D3C;" d="M2521.41,1440.359c-20.251-21.637-33.687-48.425-54.027-70.165
		c-24.672-26.37-53.154-47.311-84.182-64.208c-4.472-20.705-2.166-40.748-4.725-60.635c-5.73-44.526-22.45-83.644-46.05-120.682
		c-3.104-4.871-3.08-9.808-2.905-15.035c44.334-26.905,92.955-39.807,144.23-43.325c73.037-5.011,145.044,0.86,215.847,20.566
		c106.491,29.64,185.424,88.613,214.956,199.588c107.598,62.191,163.688,286.586,58.987,406.831
		c30.731,77.767,40.388,158.461,16.508,240.55c-24.099,82.842-75.737,144.753-149.871,186.767
		c-13.002,110.152-68.93,219.535-199.074,269.617c-5.909,58.084-39.815,98.759-85.804,131.29
		c-32.352,22.885-67.476,40.319-105.487,51.765c-1.186-126.707,10.987-252.563,20.135-376.53c5.506-2.585,7.035-3.408,8.639-4.041
		c116.329-45.906,219.982-110.936,303.835-204.739c19.985-22.356,43.395-43.244,51.007-74.46c0.922-0.508,1.844-1.017,1.634-0.901
		c0.19-0.172-0.581,0.526-1.352,1.224c-36.122,22.904-71.694,46.737-108.484,68.51c-67.665,40.045-137.355,76.06-212.983,99.135
		c2.339-21.341,15.121-38.727,22.576-58.113c12.582-32.719,19.646-66.516,24.853-100.814c2.494-16.427-0.36-32.937-5.619-49.766
		c31.82-38.516,53.214-81.411,54.171-132.442c4.539,0.092,8.247-1.504,11.838-4.447c63.481-52.01,115.57-113.542,154.95-185.635
		c3.084-5.646,8.937-11.533,1.748-21.83c-52.904,49.251-106.117,97.713-167.861,135.242
		c-7.204-54.899-23.954-107.178-43.513-158.686c1.279-2.276,3.221-4.41,3.739-6.848c17.783-83.704,37.94-166.793,63.611-248.479
		c0.906-2.885,1.857-6.874-5.354-8.445C2579.179,1304.166,2547.91,1371.082,2521.41,1440.359z"/>
	<path style="fill:#F2F1DD;" d="M1556.357,1282.001c32.988,37.423,67.869,72.666,108.439,102.22
		c79.129,57.644,167.62,93.007,262.73,113.185c4.827,1.024,10.313,2.465,17.693-3.203
		c-16.573-147.797-33.329-297.219-50.223-447.875c11.18,1.036,11.069,10.376,13.328,16.707
		c34.676,97.164,61.977,196.446,84.099,297.162c7.673,34.934,14.387,70.082,21.29,105.181c1.195,6.074,1.591,12.202,10.354,18.831
		c120.478-67.457,178.347-179.063,212.232-308.842c12.554,58.25-6.106,145.962-47.788,225.158
		c-37.343,70.952-91.164,127.932-154.913,179.116c11.723,78.664,20.856,158.033,29.417,240.574
		c136.083-63.6,234.606-163.069,311.368-292.89c4.284,15.499,1.881,25.502-1.161,36.094
		c-20.439,71.187-57.302,133.188-105.964,188.26c-50.738,57.422-108.882,106.396-173.623,147.483
		c-7.315,4.643-15.704,8.018-22.401,18.372c4.011,76.786,12.264,155.885,11.5,239.278
		c162.464-52.66,271.302-159.181,343.605-309.634c4.392,5.412,3.02,10.298,2.752,14.653c-0.267,4.338-0.966,8.697-1.948,12.938
		c-24.846,107.206-83.734,193.151-165.532,264.703c-52.3,45.749-110.617,82.509-171.53,112.975
		c-1.106,3.229-2.156,4.862-2.155,6.493c0.086,116.573,0.242,233.146,0.48,349.719c0.007,3.458,0.94,6.913,1.442,10.37
		c-0.406,37.601-1.094,75.201-1.162,112.803c-0.169,93.635-0.056,187.27-0.056,280.905c0,9.569,0,19.138,0,30.728
		c-32.163,0-63.051,0-94.75,0c-4.688-9.015-2.446-18.772-2.461-28.053c-0.185-113.762-0.092-227.524-0.168-341.286
		c-0.007-10.479-0.685-20.958-1.051-31.437c3.196-54.31,1.439-108.675,1.227-163.002c-0.257-65.685,3.062-131.444-2.835-197.052
		c-0.382-4.247-0.901-8.482-1.521-14.25c-195.502-49.225-343.687-158.645-436.005-343.096c12.995-1.061,17.047,7.953,22.393,13.553
		c60.836,63.718,128.382,118.982,204.588,163.392c64.007,37.301,132.061,63.328,208.151,74.515
		c5.418-79.624-5.075-157.622-5.03-236.9c-40.257-13.201-79.171-25.811-116.814-41.819
		c-86.991-36.993-167.103-84.361-233.024-153.46c-31.978-33.52-58.454-70.633-76.644-114.956
		c114.373,117.812,254.603,183.104,417.671,213.287c0.317-83.186-11.329-161.73-17.199-242.659
		c-30.719-11.311-62.066-21.644-92.465-34.262c-110.57-45.895-206.077-111.795-274.04-212.552
		c-14.508-21.508-29.426-43.515-33.345-70.365L1556.357,1282.001z"/>
	<path style="fill:#E5E4D6;" d="M2502.244,2081.482c75.628-23.075,145.318-59.089,212.983-99.135
		c36.79-21.773,72.362-45.606,108.484-68.51l-0.282-0.323c-7.612,31.215-31.022,52.104-51.007,74.46
		c-83.853,93.802-187.506,158.833-303.835,204.739c-1.604,0.633-3.134,1.456-8.639,4.041
		c-9.148,123.966-21.321,249.823-20.135,376.53c-1.393,36.731-3.809,73.457-3.988,110.194
		c-0.538,110.369-0.204,220.741-0.209,331.113c0,9.427,0,18.853,0,29.586c-33.55,0-64.697,0-95.671,0
		c-5.534-7.37-3.322-15.544-3.331-23.199c-0.14-112.123-0.647-224.251,0.187-336.368c0.352-47.253,3.868-94.48,2.616-141.786
		c2.329-49.799,4.101-99.631,7.144-149.386c3.039-49.695,9.144-99.201,9.073-149.089c5.831-10.354,16.615-15.023,25.464-21.803
		c41.855-32.071,74.932-71.747,102.679-116.285C2489.195,2097.562,2492.968,2087.394,2502.244,2081.482z"/>
	<path style="fill:#E5E4D6;" d="M1681.574,2531.453c0.117-51.494-7.523-102.383-12.39-153.469
		c-3.049-31.998-8.254-63.79-12.492-95.675c14.243,1.687,21.21,14.357,31.714,21.595c22.182,15.286,45.927,27.788,68.103,39.789
		c2.666,30.483-5.475,58.242-6.235,86.68c-0.669,25.031,3.692,48.426,17.193,69.641c5.767,9.063,8.746,18.809,9.951,29.289
		c-1.867,20.226,2.206,40.08,3.542,60.115c9.903,148.531,13.523,297.241,11.453,446.087c-0.034,2.46,0.72,5.452-5.263,8.657
		c-27.962,0-59.121,0-90.803,0c-6.049-6.193-3.151-14.521-3.182-22.024c-0.308-74.414-0.098-148.83-0.422-223.243
		C1692.355,2709.616,1689.722,2620.416,1681.574,2531.453z"/>
	<path style="fill:#398D3D;" d="M2355.634,2244.348c0.071,49.888-6.034,99.394-9.073,149.089
		c-3.043,49.755-4.815,99.588-7.144,149.386c-34.829-22.028-63.076-51.099-88.71-82.964c-0.354-5.534,2.422-10.046,4.923-14.587
		c24.68-44.81,26.307-92.313,16.833-141.22c-1.469-7.586-2.597-15.414,1.148-24.936
		C2302.11,2272.333,2327.037,2254.207,2355.634,2244.348z"/>
	<path style="fill:#E5E4D6;" d="M1598.309,2224.317c-10.217,2.719-18.825-2.579-27.567-6.06
		c-121.695-48.448-220.218-126.48-297.409-233.56c10.728-5.915,15.944,2.454,21.898,7.228
		c53.97,43.277,110.968,81.819,173.395,111.997c18.068,8.734,36.219,17.195,55.573,22.753
		C1549.622,2158.676,1575.724,2190.16,1598.309,2224.317z"/>
	<path style="fill:#E5E4D6;" d="M2598.902,1663.677c61.743-37.53,114.957-85.991,167.861-135.242
		c7.189,10.297,1.336,16.184-1.748,21.83c-39.38,72.093-91.469,133.625-154.95,185.635c-3.592,2.943-7.299,4.539-11.838,4.447
		C2606.97,1714.866,2597.466,1689.223,2598.902,1663.677z"/>
	<path style="fill:#E5E4D6;" d="M2521.41,1440.359c26.499-69.276,57.769-136.193,95.974-199.139c7.211,1.572,6.261,5.56,5.354,8.445
		c-25.671,81.686-45.828,164.775-63.611,248.479c-0.518,2.437-2.461,4.572-3.739,6.848
		C2542.577,1484.229,2530.997,1462.818,2521.41,1440.359z"/>
	<path style="fill:#E5E4D6;" d="M1361.603,1861.284c-22.853-5.722-38.467-22.726-56.338-36.202
		c-46.99-35.433-86.893-77.797-121.931-124.908c-3.664-4.927-7.058-10-7.456-16.422c0.704-0.739,1.407-1.478,2.111-2.216
		c27.704,20.504,55.148,41.372,83.187,61.407c26.735,19.104,54.641,36.411,84.469,50.411
		C1350.964,1815.998,1356.283,1838.641,1361.603,1861.284z"/>
	<path style="fill:#E94179;" d="M1555.315,1283.065c-3.296-0.83-4.609-2.322-1.742-5.232c0.936,1.402,1.86,2.785,2.784,4.169
		L1555.315,1283.065z"/>
	<path style="fill:#E5E4D6;" d="M1365.854,1865.334c-2.631-0.333-4.392-1.568-4.585-4.427
		C1362.797,1862.383,1364.326,1863.858,1365.854,1865.334z"/>
	<path style="fill:#E5E4D6;" d="M1603.618,2229.309c-3.074-0.512-6.008-1.172-5.655-5.325
		C1601.472,2224.033,1603.114,2226.067,1603.618,2229.309z"/>
	<path style="fill:#E5E4D6;" d="M1172.326,1676.723c-1.289-0.544-2.578-1.087-4.085-1.723c3.563-2.95,3.073,0.501,3.666,2.119
		L1172.326,1676.723z"/>
	<path style="fill:#E5E4D6;" d="M1171.906,1677.119c3.217-0.166,5.159,1.424,6.082,4.418c-0.704,0.739-1.408,1.477-2.111,2.216
		c-2.877-1.487-4.311-3.704-3.552-7.03L1171.906,1677.119z"/>
	<path style="fill:#E5E4D6;" d="M2823.711,1913.837c0.771-0.698,1.542-1.396,1.352-1.224c0.21-0.116-0.712,0.393-1.634,0.901
		L2823.711,1913.837z"/>
</g>
</svg>
