<?xml version="1.0" encoding="utf-8"?>
<!-- Generator: Adobe Illustrator 25.3.1, SVG Export Plug-In . SVG Version: 6.00 Build 0)  -->
<svg version="1.1" id="Layer_1" xmlns="http://www.w3.org/2000/svg" xmlns:xlink="http://www.w3.org/1999/xlink" x="0px" y="0px"
	 viewBox="0 0 2605.9 1831.5" style="enable-background:new 0 0 2605.9 1831.5;" xml:space="preserve">
<style type="text/css">
	.st0{fill:#A1B746;}
	.st1{fill:#DAD38D;}
	.st2{fill:#BDCF67;}
	.st3{fill:#F6EBC1;}
	.st4{fill:#FDFAE8;}
	.st5{fill:#F7F0D7;}
	.st6{fill:#5A584F;}
</style>
<g>
	<path class="st0" d="M2602.5,771.2c8.9,43.7,0.5,83.1-29.4,117.2c-4.8,5.5-11.1,9-16.9,13.2c-7.8,5.6-12.2,11.4-9.9,22.8
		c5.6,28.7,7.5,57.9,1,86.8c-7.6,34.1-28.9,55.5-61.9,65.7c-7.8,2.4-15.8,4.1-24,4.8c-13.4,1.1-16.8,4.8-16.4,18.4
		c0.6,23.6-0.8,47-5.9,70.1c-15.7,70.6-68.1,103.9-131.4,108.1c-18.8,1.3-37.8,1.6-56.6-2c-7.8-1.5-18.4,5.5-20.9,13.7
		c-2.4,7.8-3.2,16.1-6.2,23.6c-16.9,42.4-75.9,97.3-136.4,93.6c-35.8-2.2-66.1-16.7-93.1-39c-7.4-6.1-10.4-7.3-17.5,1.2
		c-32.9,38.9-71.5,47.7-119.5,29.4c-34.5-13.2-64-34-91.3-58.3c-10.1-9-10.2-9.2-20.4,0.5c-10.6,10.1-22.9,12.3-36.9,9.6
		c-23.8-4.7-43.3-17.6-61.9-32.3c-43.4-34.2-75-76.4-88.6-130.8c-0.6-2.5-0.6-5.1-1-7.6c-0.8-6.3,2.5-10.6,6.9-14.5
		c8.8-7.8,15.1-17.6,22.1-27.1c11.4-15.6,19.1-32.9,26.3-50.6c6.9,1.5,14,5.3,20.9,2.7c13.7-5.3,28.2-8.7,41-16.5
		c4.8-2.9,8.6-6.8,8.4-11.9c-0.4-9.4,3.7-18,3.5-27.2c-0.8-30.2,6.4-59.4,11.3-88.9c0.9-5.4,1.7-10.3-2.8-14
		c-13-10.4-20.3-25.5-30.8-37.9c-22.9-26.9-44.6-54.9-54.2-90c-1.4-5.2-4-8.1-9.4-8.2c-0.9-8.5-6.6-15.8-6.1-24.6
		c4-0.2,9.2,0.4,8.9-5.5c-0.3-6.4,2.6-11.9,3.5-17.9c3.7-24.1,7.4-48.3,22.4-68.9c3.5-4.8,3.3-10.9-0.5-15.8
		c-6-7.9-9.5-17-12.2-26.2c-4.4-15.2-12.5-28.8-18.5-43.1c-9.3-22.3-19.5-44.3-28.3-66.8c-1.8-4.6-4-9.1-8.6-9.7
		c-4.5-0.6-9.3,1.9-11.6,6.2c-3.8,7-10.7,11.1-14.8,17.4c-5,7.7-13.2,13.3-16.4,22.2c3.2,2.3,4.8,0.9,6.4-0.4
		c3.4-2.9,6.9-4.7,11-1.6c3.8,2.8,2.2,6.1,1,9.6c-1.9,5.8-1.6,12-2.6,18c-2.8,17-3.1,34.5-4.9,51.5c-2.9,26.6,28.3,23,33.3,41.6
		c1,3.6,5.9,3.5,9.5,3.4c0.5,0,1,0.1,1.5,0c8.6-1,13.9,5.3,13.5,11.4c-0.8,12.9,3.8,26-1.7,38.7c-1.4,3.4-3.1,5-6.5,5.2
		c-33-47.6-73.6-87.7-120.1-122c-2.8-2.1-5.2-4.9-7.7-7.4c-4.8-4.7-5.7-8.1,0.7-13.4c10-8.3,21.5-15.8,25.7-29.3
		c6-0.5,9.7-3.9,13.8-8.3c18.7-20.2,37.5-40.3,54.9-61.7c7.7-9.4,17-10.2,23.5-1.9c12.1,15.6,24,31.2,32.3,49.6
		c15.4,33.8,27.6,68.9,41.3,103.4c2.6,6.7,4.4,8.6,12,4.7c11.1-5.7,21.5-12.9,34.3-15.8c12.1-2.7,15.3-9.2,15.3-22.7
		c0-7.7-0.7-15.5,0.2-23c3.3-26.8,3.8-53.8,6.4-80.5c1.9-19.7-1.2-37.7-6.6-56.3c-8.4-28.8-15.4-57.9-26.7-85.8
		c-2.1-5.1-3.2-6.4-9.4-5.6c-16.6,2.2-33.2,3.6-49.7,7c-2.8,0.6-7.5,1.9-8.3-6c10.6,3.7,14.3-7.1,22.8-9.6
		c13.6-4.1,26.7-9.9,40.3-14.3c5.2-1.7,11.1-3.8,11.5-8.8c1-12.8,9.2-24.1,7.2-37.2c-3.4-22.4-16.4-30.6-34.7-22.9
		c-14,5.9-27.9,12.5-40.9,20.5c-13.5,8.3-28.8,14.6-35.9,31.2c-3.1,7.1-9.6,13.2-15.7,18.5c-24.9,21.8-49.4,44-72.8,67.4
		c-3.9,3.9-8.1,7.7-12.6,11.1c-15.1,11.4-27.6,25.7-41.7,38.2c-8.8,7.9-15.9,18.2-25.4,25.9c-8.5,1.8-12.1-6.4-18.5-8.9
		c-25.4-9.9-50.6-20.4-77-27.4c-5.6-1.5-10.2-3.9-14.9-6.7c-8.2-12.4-8.4-26.5-5.6-39.9c12-57.1,42.7-102.6,89.2-137.6
		c1.2-0.9,2.8-1.1,4.2-1.6c4.6,2.3,3.5,5,1,8.5c-15,21.6-22.2,46.3-28.9,71.3c-5.5,20.2-0.5,37.6,14.3,51.4
		c12.7,11.7,27.5,10.8,43.8,5.3c14.1-4.8,29.2-10.3,44.2-8.9c12.4,1.2,21.1-1.8,29.7-10.1c21.9-21.1,43.5-42.8,67.5-61.5
		c14.8-11.5,30.5-21.8,45.3-33.4c23.4-18.3,21.5-28.4-5-40.6c-8.3-3.8-17.6-4.6-27.2-9.3c11.4-4.8,21.3-5.3,31.5-6
		c26.4-1.8,52-8.1,76.9-17.1c10.1-3.6,10.4-6.8,5.1-15.9c-7.3-12.5-17.1-22.5-28.8-30.8c-6.3-4.5-5.8-8.1,2-9.7
		c10.9-2.3,21.6-6.5,32.8-6c21,0.9,17.6-3.9,10-18.9c-1.2-2.3-2.6-4.4-5.1-5.5c-12.2-26.7-29.6-50-47.5-72.8
		c-5.6-7.2-6-12.3,0.2-18.3c6.7-6.4,6.8-12.9,0.9-20c-1.6-1.9-2.3-4.6-3-7c-0.6-2.3-2.1-5.1,0.5-7.1c2.4-1.8,4.9-0.5,7,0.8
		c9.4,6.1,18.9,12.2,28.1,18.7c5.5,3.9,11.2,7.3,17.5,9.4c5.5,1.8,12.2,3.7,9.3-6.8c-2.5-9.1,3.3-8.2,8.6-6.3
		c5.3,1.8,10.1,5.1,15.4,6.8c3.6,1.1,7.1,5.9,11.8-0.4c3.4-4.6,7,1.2,9.7,3.7c17.7,16.6,31.8,35.9,43.6,57c2,3.6,3.2,7.6,7.5,9.2
		c-1.7,8,4.1,13.3,7.2,19.5c5.4,10.8,4.8,9.8,15.4,3.3c15.3-9.4,23.3-14.1,31.4-1c5.6,9.2,10.5,7.3,17.1,2.8
		c2.1-1.4,4.2-3.3,6.5-3.7c18.5-3.6,35-12.3,51.6-20.4c15.9-7.8,33.5-10.8,49.4-18.5c2.7-1.3,6.4-2.7,7.7,1.2
		c1.2,3.5-2.2,5.5-5.2,6.2c-6.8,1.5-11.8,6.1-17.3,9.5c-18,11.5-35.8,23.6-47.9,41.9c-6.1,9.3-3.8,15.2,7.1,16.3
		c11.6,1.2,23,4.9,34.9,3.4c2.7-0.3,6.5-0.9,6.8,3.8c-0.4,0.4-0.7,0.9-1.2,1c-1.4,0.5-2.9,0.8-4.3,1.1
		c-34.7,7.3-66.8,19.5-92.5,45.4c-11.1,11.1-12.4,24-10.5,38c0.5,3.9,3.4,7.4,4.8,11.2c1.1,3.2-0.1,6.1-2.8,8.1
		c-2.7,2-5.8,2.1-8.5,0.1c-2.4-1.8-4.2-4.8-6.8-6.1c-15.2-7.5-29.7-18.3-48.5-10.5c-17.6,7.2-34.2,16.7-48.5,28.6
		c-21.8,18.3-42.7,37.8-60.9,60c-4.2,5.1-5.7,9.2-2.1,15c1.6,2.5,2.5,5.6,3.3,8.5c9.7,33.1,19.1,66.3,30.3,99
		c3.9,11.4,6.1,12.7,17,7.7c8.9-4,18.3-6.1,27.6-8.8c10-2.9,20-1.2,27.5,5c8.2,6.7,17.1,12.8,24.6,20.6c17,17.8,34.8,34.7,51.9,52.3
		c6.5,6.8,12.9,8,21.9,5.3c16.5-5,31.2-14.5,48.2-18.4c6.7-1.5,9.4-6.4,9.5-13.8c0.2-12.2,0.1-24.2,1.8-36.5
		c3.6-24.8,1.7-50.2-6.1-73.9c-3.7-11.4-3.1-24.2-10.8-34.4c-1.4-1.8-1.1-5.4,1.1-7.1c2.5-1.9,4.6,0.3,6.6,1.9
		c7.8,6.4,13.7,15.1,23,19.6c33.2,16.2,66.5,32.2,99.8,48.3c2.8,1.3,5.7,3.2,8.5,0.8c2.9-2.5,1.7-5.8-0.1-8.3
		c-4.9-7.1-2.7-12.8,1.7-19.4c15.6-23.2,16-23.6,43-15.5c2.4,0.7,4.9,1.5,7.3,2.2c20.7,5.5,41,12.8,63.2,16.9
		c0.2-6.9,0.7-12.1-1.2-17.8c-10.4-31.2-17.1-63.4-25.6-95.2c-1.9-7.1-0.3-14.5,6.9-16.8c18.4-5.8,36.7-11.2,56.7-5.4
		c12.3,3.6,23.4,9.4,35.2,13.9c22,8.4,42.7,19.2,59.4,36.4c3.3,3.4,6.7,5.8,11.9,5.9c17,0.2,33,5.5,48.8,11.1
		c23.1,8.3,45.5,6.9,67.6-4c9.9-4.9,19.7-10.4,30.7-13c7.3,4,5.7,11.2,6.3,17.6c-15.7,8.9-33.4,13.1-49.6,21
		c-6,2.9-15.1,5.3-23.7,3.3c-18.7-4.3-38.2-5.1-55.8-13.9c-2.7-1.3-6.6-1.8-8.6,0.9c-2.4,3.2,1,5.5,3,7.6
		c15.2,16.8,27,35.7,33.1,57.6c3.6,12.6,5.7,25.7,8.3,38.6c1.9,9.3,5.1,16.7,15.7,19.9c10.1,3.1,19.5,8.5,29.1,13
		c28.3,13,51.7,32,68.9,58.2c15.9,24.3,23.3,51.9,30.3,79.4c6.9,27.4,10.8,55.6,15.7,83.5c3.2,18.3-0.8,33-20.5,40
		c-6.1,2.2-11.4,6.7-17.2,9.7c-14.6,7.6-29.2,7.7-43.9,0.1c-7.9-4.1-15.8-8.1-23.7-12.2c-0.9,0.5-1.7,1.1-2.6,1.6
		c4.8,10.3,2.4,24.5,11.9,31.2c15.1,10.5,25.1,25.4,36.8,38.6c14.4,16.2,31.4,19.1,50.5,15.3c27-5.4,39.7-26,48.6-49.5
		C2597.6,774.6,2597.8,771.3,2602.5,771.2z M2129.2,552.9c-6.8-21.1-7.3-43.7-15.5-64.4c-4.2-21.9-17.6-35.8-38.3-43.1
		c-35.4-12.5-67.8-31.7-102.6-46.2c-2.4,10.7,3.6,21.3,2.9,32.5c-1.8,28-4.7,55.9-3.4,84c0.5,10.5,2.2,20.3,10.5,27.6
		c3.2,2.8,4.7,6.7,6.8,10.1c11.1,17.7,23.4,34.5,37.7,49.9c16.9,18.1,40,28.1,57.6,45.1c3.4,3.3,6.1,1.9,9.3-0.6
		c12.1-9.3,24.5-18.2,36.5-27.6c4.4-3.5,7.8-7.6,7.7-14.2C2138.5,587.8,2134.3,570.3,2129.2,552.9z M2516.5,608.3
		c-3.6-18.1-10.2-35.3-21.1-50c-18.7-25.1-40.5-47.2-68.4-62.3c-7.1-3.8-15-9.5-22.6-5.9c-8.5,4-4.7,13.9-4.2,21
		c1.1,17.2-4.4,31.1-17.5,42c-9.4,7.9-19.7,14.2-32,16.7c-8.7,1.7-13.8,4.9-9.6,15.5c3.4,8.5,4.3,17.8,3.5,27.1
		c-0.4,4.3,0.6,8.3,4.9,10.4c20,9.6,33.6,26.7,46.5,43.3c22.7,29.1,51.1,50.5,83.1,67.3c30.4,16,57.1-11.2,56.5-35.8
		c-0.6-23.8-5.8-46.3-11.8-68.8c-1-3.8-1.3-8.5-7.1-8.3C2516.6,616.4,2516.5,612.4,2516.5,608.3z M2086.4,764.9
		c0-12.7,1.2-25.6-0.4-38.1c-3.1-25.8-9.4-50.5-29.2-69.7c-17.9-17.3-35.4-35.2-53-52.9c-5.6-5.6-12.3-10.1-16-17.4
		c-6.5-16.7-18.6-30-28.1-44.9c-2.8-4.3-7-4.5-12.2-2.8c-13.5,4.5-26.3,10.6-39.8,15.2c-7.6,2.6-13.8,9.8-12.2,20.5
		c1.9,12.5,2.6,25.2,4.1,37.8c3.4,29.9,4.7,59.9-0.9,89.6c-1.6,8.6-0.9,14.4,5.7,21.3c16.7,17.7,31.1,37.6,47.8,55.3
		c19.9,21,36.5,45.3,60.8,62.1c4.7,3.2,8.7,4.8,14,2.8c11.4-4.3,23-8,34.2-12.6c31.3-12.7,31.2-12.8,31.2-46.8c0-4.6,0-9.2-0.1-13.8
		C2092.2,766.7,2089.7,765.3,2086.4,764.9z M1886.9,659.3c-3.5-29.4-7.1-59.6-10.7-89.7c-1.1-9.6-6.2-16.7-13.1-23.3
		c-15.9-15.2-33.6-28.3-48.2-44.8c-5.1-5.7-10.4-11.5-16.4-16.1c-6.3-4.8-12.4-11.4-21.7-9c-11.3,2.9-22.5,6.2-33.8,9
		c-10,2.5-14.2,8.2-13.4,18.8c2.1,28.6-5.2,56.9-3,85.5c0.3,3.6-1.2,7-1.8,10.5c-2.2,13.6-2.7,26.2,7.4,38.6
		c22.6,27.9,47,54.6,64.9,86.1c5.4,9.5,10.6,9.1,19.6,4.3c16.3-8.6,31.9-20,51.9-19.7c7,0.1,10.5-5.2,12.1-11.8
		C1883.8,685.3,1885.8,672.8,1886.9,659.3z M1882.7,998.1c9.9,11.7,20.8,11.7,31.8,7.7c18.6-6.7,36.9-14,55.2-21.4
		c7.8-3.2,13.2-8.6,16-17.3c1.7-5.5,1.3-11.1,3.2-16.4c10.4-27.8,12-57.3,17.2-86.2c0.9-5.3-2.9-7.6-6.5-10.9
		c-19.7-17.8-38.2-36.8-56.1-56.4c-16.2-17.7-29.2-38-46.8-54.5c-12-11.2-24.7-14.4-40.6-9.2c-11.2,3.7-21.7,8.9-32.6,13.1
		c-12.1,4.6-12.5,5-8,17.9c7.6,21.8,11.9,44.4,12.1,67.1c0.2,21.7-4.2,43.3-11,64.2c-8.2,25.3,6.8,60.8,30.8,74
		c2.4-2.4,0.5-4.6-0.2-7c-4-14.1-10.1-28-11.4-42.4c-1.6-17.5-12.1-36.7,5-53.1c6.9,8.1,12.6,16,16,26.8c4.3,13.5,4.6,35.5,30,28.1
		c24.6,8.6,48.9,6.6,73.2-1.8c8.1-2.8,14.4,1,15.3,9.3c1.5,13.9,1.7,27.5-12.1,36.9c-9.3,6.4-18.3,13.5-29.5,15.6
		C1916.7,985.5,1900.7,991.7,1882.7,998.1z M2116.9,1103.3c6.1-0.3,9.4,0.3,12.2-0.7c19.2-6.7,38.3-13.6,57.3-20.6
		c8-2.9,11.4-9.7,13.5-17.4c6.6-24.4,4.6-48.8,1.3-73.5c-3.4-26.1-10.1-51.8-10.5-78.3c-0.2-11-3.8-20.1-13-27.5
		c-22.3-17.9-48.3-30.1-71.2-47.1c-3.9-2.9-8.6-3.7-13.1-1.5c-18.6,9.4-38.4,15.5-57.8,22.8c-6,2.2-11,6.1-10.8,13.4
		c0.7,36.3-17.3,68.7-22.1,103.9c-0.3,2.2-2.4,4.5-4.2,6.2c-7,7.1-5.3,13.3,1.2,19.7c27.6,27.3,54.6,55.2,82.5,82.1
		C2092.5,1094.8,2104.4,1103.3,2116.9,1103.3z M2290.1,1219.8c7.6-0.5,15.2,0.8,22.8-1.1c47.1-11.3,79-39.5,95.8-85
		c5.9-15.9,10-31.8,9.6-48.9c-0.2-8.4-2.3-14-9.7-19.1c-10.5-7.2-19.9-16-26.1-27.5c-2.8-5.3-5.5-13.6-10.9-13.4
		c-7.9,0.4-6.7,10.1-8.6,15.9c-6.4,18.9-14.9,34.3-36.1,41.6c-15,5.2-29.6,12.9-44.3,19.4c-15.1,6.7-29.1,7.3-43.2-3.1
		c-5.4-4-10-8.8-15.4-12.4c-4-2.7-8.8-7-13.9-3.3c-8.2,6-14.3,14.5-23.1,19.9c-3.3,2-1,5.4,0.2,8.2c4.4,11.4,7.3,23.2,10.2,35
		c3.6,14.2,6.1,28.8,12.8,42.1c3.8,7.5,8.5,14.2,16.6,17.2C2247.3,1213,2267.4,1222.1,2290.1,1219.8z M1628.7,757.5
		c1.9-8.9,3.5-17.8,7.2-25.9c1.5-3.3,0.5-9.5,6.4-9c5.9,0.6,4.1,6.1,4.3,9.8c1.6,22.1,9.5,43.1,18,62.7
		c8.6,19.9,24.5,35.1,50.6,31.6c9.7-1.3,21.2-3.4,28.9,5.6c10.5,12.3,20.6,10.9,33,2.8c9.4-6.1,12.6-3.8,14,6.7
		c4.3,33.3-15,55.1-49,55.3c-12.8,0.1-25.6,0-38.4,0c-5.6,0-9.4,1.7-6.6,8.2c4.2,9.6,14.7,13.9,25,11c19.5-5.5,39.2-10.6,59.4-13.1
		c8.8-1.1,13.4-5.8,15.8-14.1c8.3-28.9,14-57.8,9.2-88.3c-3.4-21.4-11-41.8-21-59.8c-18.1-32.3-43.4-60.1-67.3-88.5
		c-3.7-4.4-7.3-5.4-11.9-3.4c-14.8,6.4-30.3,11.9-43.4,21.4C1633.5,692,1628,723.9,1628.7,757.5z M2329.1,632.3
		c1.8-13.1-3.1-27.7-6-42.6c-6.3-33.6-17.5-65.8-36-94.2c-15.8-24.2-38.1-43.1-64.6-56.6c-34.9-17.7-71.8-29.7-109.3-40.2
		c-10.3-2.9-16.5,2.5-14.1,13c2.1,9,6.7,17,12.9,23.9c6.5,7.2,12.4,15.7,15.8,24c9.2,22.3,15.4,46.4,18.8,69.8
		c3.3,23,9.2,45.7,10.9,69c0.8,10.8,6.7,18.7,16.3,25.6c27.7,20,58.8,34.5,85.3,56.3c5.3,4.3,10.7,5.4,18,0.7
		c8.7-5.6,19.3-8.3,29.1-12.3C2329.1,659.8,2329.1,659.8,2329.1,632.3z M2522.7,918.2c0-18.2-1-30.7-7.3-43.2
		c-11.6-22.8-27.1-42.7-42.5-62.8c-1.9-2.4-2.6-7.7-7.6-5.6c-3.8,1.6-4.1,5.5-4.1,9.2c0.2,14.3-0.2,28.3-4.7,42.2
		c-3.4,10.6-8.1,20.6-11.9,31c-8.8,23.8-38.8,36.9-60.4,27.6c-3.1-1.3-5.5-5.1-9.4-1.8c-3.7,3.1-1.2,6.3-0.3,9.7
		c4.9,19.5,5,39.2,1.8,59c-0.3,2.1-0.4,3.9,0.5,5.8c7.4,15.6,15,31.2,26.1,44.5c5,5.9,9.4,13.6,19,14.1
		c30.5,1.6,54.6-11.1,72.8-34.2C2518,984.3,2521,948.7,2522.7,918.2z M2089.5,1309.3c26,0,41.7-9.9,56.5-21.8
		c12.8-10.2,22.1-23.6,32-36.4c12.7-16.3,25.6-31.9,15.7-55.6c-9.5-22.9-15-47.2-21.4-71.2c-3.3-12.1-7.4-13.3-19-8.8
		c-9,3.5-18.2,6.5-28.1,5.9c-8.1-0.5-12.4,1.8-15.7,10.5c-9.9,26.6-21.7,52.4-32.2,78.8c-4.2,10.5-10.4,17.9-20.9,22.6
		c-21,9.3-42.1,18-65.7,17.2c-6.5-0.2-9.2,2.2-9.2,8.9c0,11.1,6.5,16.7,16.9,11.3c10.1-5.3,16.3-2.7,24.2,3.2
		c4.5,3.4,8.6,7.1,12.9,10.6C2053.1,1298.7,2071.4,1311.1,2089.5,1309.3z M1715.5,997.9c1.7-5.5,3.9-10.2,4.5-15.1
		c0.8-6.7,2.8-12.8,9.5-14.2c8-1.8,11.6,5.5,15.1,10.8c7.2,10.8,9.4,23.7,12.3,35.9c4,17.4,15.2,25.6,31,29.3
		c7.7,1.8,15.7,4.1,20.3,9.9c9.7,12.2,20,12.5,33.5,7c11.1-4.6,13.7-1.3,17.9,10.9c3.1,9.1,3.3,18.4,2.1,27.3
		c-2.5,18.7-8.8,35.6-27.3,45.1c-6.6,3.4-11.6,4.8-17.3-1.7c-4.5-5.1-11.3-5.9-18.3-6.4c-17.8-1.2-32.3-7.7-43-23.7
		c-13.3-19.8-26.2-39.7-38-60.3c-2.8-4.8-7.1-6.8-8.2-1.8c-1.5,7-5.7,15.2-1.6,21.9c6.6,10.8,11.1,22.7,20.4,32.1
		c10,10,18.4,21.7,27.6,32.6c19.4,22.9,43.7,34.7,73.5,32.9c19.5-1.2,39.7-4.5,47.7-26.1c4.9-13.2,7.7-27.4,9.2-41.5
		c2.2-20.2,6.2-40.1,8.1-60.3c0.7-7.8-0.4-11.5-6.8-14.4c-16.4-7.6-28.6-20.7-42.5-31.7c-21.2-16.7-36.1-36.9-45.8-61.6
		c-5.2-13.3-9.3-15.6-22.8-12.7c-16.8,3.7-33.5,8-50.2,12.4c-5.2,1.4-8.1,4.5-9.2,10.6c-2.8,14.5-4.2,29.1-5.5,43.7
		C1711.1,991.7,1710.2,995.1,1715.5,997.9z M2349.9,647.7c-3.3,6.5-2.2,11.7-2.3,16.6c0,7.7-3.3,12.9-10.9,14.4
		c-17.5,3.5-32.4,14.2-49.8,18c-5.7,1.3-7.6,4.1-6.6,9.7c6.2,36.1,9.9,72.5,8.6,109.2c-0.4,11.6,0,21.1,14.4,22.7
		c1.4,0.2,2.8,1.2,4,2.1c21.5,16.2,43.4,31.9,64.3,48.9c16.5,13.3,46.8,12.4,56.2-12.4c9.9-26.1,20.5-52.2,15.4-81.9
		c-3.9-22.8-9.9-44-22.6-63.7c-8-12.4-16-24.9-25.5-36C2381.4,679.1,2368.8,661.6,2349.9,647.7z M2270.7,813.1c1-16-3.4-32.9-5-50
		c-1.7-17.7-8.6-34.7-7.2-52.7c0.6-7.1-3.5-10.1-8.2-13.3c-13.8-9.6-27.1-19.9-41.4-28.5c-17.5-10.5-34.8-21.1-51.8-32.4
		c-5.9-3.9-12.2-5.3-18.1,0.8c-10.7,11.1-23.5,19.4-36.3,27.8c-4.8,3.2-7.6,6.8-6.2,14c7.8,39.3,14.7,78.7,14.5,119.1
		c-0.1,12.7,3.1,23.6,16.4,31.8c17.1,10.5,34.3,21.2,50.3,33.7c8.5,6.7,18.4,12,32,5.4c10.7-5.2,22.1-10,33.6-14.2
		c27.3-10,27.4-10,27.4-38.5C2270.7,815.5,2270.7,814.9,2270.7,813.1z M2359.7,957.7c2.2-12-2.4-23.3-3.9-34.8
		c-1.2-8.8-2.9-19.7-10.5-26.2c-16.2-13.9-33-27-49.6-40.4c-2.6-2.1-6.1-3.3-8.4-1c-11.6,11.7-28.4,13.4-41.6,22.2
		c-8.9,5.9-18.9,9.8-29,13.2c-10.5,3.6-13,7.4-9.4,17.6c1.8,5.2,3.9,10.3,5.3,15.8c4.4,17.8,5.3,36,8.8,53.9
		c4.6,23.6,5.3,47.4,0.3,71.2c-1.4,6.7,0.7,12.8,7,15.5c8.6,3.8,15.4,10,22.8,15.3c6.6,4.7,12.5,5,20,2.9
		c14.8-4.2,27.9-12.4,42.7-16.4c10-2.7,16.5-8.9,22.2-17.4C2355.1,1021.3,2356.9,989.4,2359.7,957.7z M2385.2,506.5
		c-3.4-18.9-6-38.1-10.4-56.8c-8.2-34.5-15.4-69.8-40.1-97.5c-13.9-15.6-27.1-32.1-46.2-41.9c-22.5-11.5-47.2-17.8-69.9-29.1
		c-9.7-4.8-19.8-1.9-27.6,3.6c-6.4,4.6-3.7,13-1.5,19.9c10.1,30.9,15.5,62.9,24.5,94.1c3.3,11.4,7.8,17.2,17.4,22.4
		c19.3,10.5,37.9,22.3,52.4,39.1c15.4,17.8,24.4,39.7,35.6,60.1c2.6,4.6,5.6,9.2,6.9,15c4.5,19.3,11.8,21.9,29,11.9
		c2.7-1.5,5.8-2.3,8.2-4.2C2375.4,533.9,2386.3,523.8,2385.2,506.5z M1951.3,1199.4c4.6,12.7,15.9,17.2,24.9,21.3
		c11,5,21.5,17.1,36.4,8.1c9.6-5.8,20.8-8.1,31.4-11.9c8-2.8,14.1-7.3,17.4-15.7c9.2-23.6,18.7-47.2,28.2-70.7
		c5.4-13.3,5.5-13.1-5.7-19.4c-23.8-13.5-43.1-31.9-60.5-53c-12.9-15.7-27.5-30.2-41.2-45.2c-4.8-5.2-9.9-6.1-16.5-3.5
		c-15.2,5.8-30.4,11.5-46.6,13.9c-5.9,0.9-4.9,5.6-5.1,9.5c-0.3,8.1-0.7,16-2.3,24.2c-5.1,26.3-8.9,52.9-12.9,79.5
		c-0.6,3.9-1.5,8.6,1.4,11.9c8.3,9.6,17.8,18.3,25.2,28.7c1.2,1.7,3.4,2.5,5.3,1.1c1.9-1.4,1.6-3.7,1-5.6c-0.6-1.9-1.6-3.8-2.6-5.5
		c-14.7-23.5-15.7-49.7-14.8-76.1c0.2-5-0.2-13.6,10.2-10.7c4.6,1.3,4.5-2.7,4.8-5.7c0.3-5-1.3-12,4.9-13.1c6.4-1.1,4.3,8,8.4,11
		c1.6,1.1,1.5,4.6,2.1,7.1c5,18.5,14.8,35.3,19.1,54.3c2.2,9.6,7.7,9.8,14.3,2c3.3-3.9,5.5-8.9,9.3-12c18.7-15.6,29.3-16,37.6,2.7
		c4.4,10,8.8,12.3,18.2,7.8c3.1-1.5,6.9-1.6,10.3-2.6c6.7-1.9,8.6,1.5,7.7,7.2c-3.5,23.9-12.6,45.1-32.7,59.6
		c-6.1,4.4-13,13.1-22.7,4.6c-2.9-2.6-5.5,0.1-8,2.1c-10.5,8.4-21.1,7.4-32.3,0.9C1961.7,1203.7,1958.5,1198.8,1951.3,1199.4z
		 M1915.8,1289.2c16.7-8.5,31-19.8,43.4-33.2c6.2-6.6,6.1-13.9-0.3-20.4c-20.8-21-41.8-41.7-62.5-62.8c-5.2-5.3-8.5-4.9-13.9-0.1
		c-13.8,12.6-30.3,18.1-49.2,16.5c-8.1-0.7-16.4-0.4-24.6,0c-8.9,0.3-17.6-0.9-24.8-6c-8-5.7-12-2.5-15.3,4.9
		c-1.7,3.7-3.4,7.4-5.1,11.1c-8.8,19.5-6.4,40.8-9.5,61.2c-2.9,18.8,10.7,24.6,23.8,31.9c-5-15.2-4.3-30.9-7.4-46
		c-4.5-21.5,7.5-36.2,29.5-35.7c3.6,0.1,7,0.7,10.4,1.9c12.6,4.1,23.9,10.9,35.4,17.4c18.4,10.3,36.6,20.3,58.6,10.2
		c7-3.2,14.1-3.3,19.4,3.5c5.3,6.8,7.4,14.1,4,22.8C1924.7,1274.5,1918.2,1280.4,1915.8,1289.2z M1669.5,1144.3
		c3.4-0.6,4.2,0.9,4.9,2.2c3.3,6.9,7.9,13.1,9.2,20.9c2.6,15.3,7.9,29.8,14,44.1c8.1,19,21.5,35.6,26,56.3c0.7,3.2,2.4,6.6,5.7,6.1
		c5-0.7,3.3-5.6,3.4-8.8c0.9-30.7,6.9-60.4,18.9-88.7c2.9-6.9,1.8-10.9-2.9-16.2c-13.7-15.4-29.1-29.3-39.1-47.8
		c-2.9-5.3-7.3-9.7-11.2-14.4c-4.1-5.1-8.3-6.4-15.7-4.9c-12.3,2.4-21.9,11.1-34,12.6c-9.5,1.2-9.6,7.1-7.6,12.9
		c2.7,8.2,6.1,16.1,9,24.3c3.2,8.9,7.2,9.5,15.6,4C1667.5,1145.9,1669.1,1144.7,1669.5,1144.3z"/>
	<path class="st1" d="M394.9,1659.4c-14.5-14-25.2-30.5-33-49c1.3-12-6.7-22.1-7-34c-0.1-4.5-4.3-5-9.3-4.4
		c-17.6,2-35.1,1.6-52.9-0.8c-12.1-1.6-23-8.3-35.5-7.1l0.3,0.1c-1.1-1.1-2.2-2.2-3.3-3.3c-31.3-15.8-49.5-40.6-55.9-75.5
		c-4.1-22.1-4.7-44.3-7.3-66.4c7.7-2.1,7.7-8.5,7.8-14.5c0.1-9.8,2.5-18.8,7-27.6c8.9-17.1,7.5-19.8-11.4-24.8
		c-1.4-0.4-3-0.2-4.6-0.3c-24.2-14.2-42.3-33.4-49.8-61.2c0.8-4.2-1.5-6.1-5.3-6.7c-4.1-11.6-4.2-24.1-5.5-36
		c-2.3-21.7-2.7-43.7,0.7-65.6c3.2-21.2,8.8-41.8,16.6-61.7c3.3-8.4,1.2-10.8-7.5-12.7c-9.3-2-18.5-5.2-27-10.3
		c-40.6-24.5-50.4-73-47.1-113.5c2.2-27,10.4-52.6,20.3-77.7c5-1.6,6.1-6.6,8.5-10.3c9.2-14.3,21.7-25.6,34.2-36.7
		c14.9-13.1,15.5-12.8-1.4-22.9c-1.2-0.7-2.9-0.6-4.4-0.9c-10-10.9-18.1-22.9-21.6-37.6c-3.9-16.5-3-33.3-3.2-50.1
		c-0.7-57.1,29.7-95.6,75.8-123.5c36.9-22.4,78.5-29.6,121-32.3c3.5,0.6,7.2,1.7,9.3-2.6c4.1,0,8.2,0,12.2-0.1
		c3.5,0.1,7,0.5,10.5,0.4c12.3-0.3,12.3-0.3,5.1-12.2c-0.2-3.5,0.2-7.1-0.8-10.4c-4.7-15.5-3.4-30.3,4-44.7
		c12.3-16.9,28.5-28.9,47.9-36.4c41.1-15.9,84.2-14.6,126.8-12.1c33.9,2,68,3.4,101.7,8.4c2.9,1,5.7,2.6,8.7,2.8
		c27.2,2,53.2,9.4,78,19.7c20.5,8.5,41.4,10.3,62.5,11c35.2,1.2,70.5,0.2,105.8,0.7c11,0.1,21-2.3,31.1-6.5
		c27.8-11.4,54.4-25.4,83.4-33.9c13.1-3.8,26.9-4.2,39.7-8.8c22.7-0.1,45.4-0.1,68.1-0.3c5.2,0,10,0.5,14.6,3
		c19.5,6.4,37.9,15,52.7,29.7c11.6,11.6,11.7,11.9,26.1,3c14.8-9.2,30.6-16.2,47.4-20.4c38.3-9.5,76.7-11.3,114,3.3
		c19.7,7.7,39.1,16.5,56,30c30.6,24.5,39.4,79.6,19.9,113.2c-4.7,8.1-2.7,14.9,4.8,17.8c13.9,5.5,25.4,14.8,38.2,21.9
		c24.4,13.6,43.3,33.2,59.7,54c26.5,33.9,41.2,73.6,35.9,117.7c-2.7,23.1-3,48.6-30.7,59.8c15.2,21.8,28.2,43.5,39.2,66.3
		c13.1,27.1,21.3,55.6,22.8,86.1c1.5,31.3-9.1,59.2-23.1,85.7c-11.9,22.5-27.4,43-53.9,50.5c-7.3,2.1-7.5,7.2-5.8,11.7
		c7.5,20.2,9.5,41.3,12.6,62.4c6.8,45.9-4,87.4-25.1,127.8c-11.2,21.4-28.4,32.4-50.9,37.4c-13,2.9-25.2-2.1-37.7-3.5
		c-10.9-1.3-12.5-0.7-13.1,10.2c-0.2,3.6-0.1,7.2,0,10.8c1,35.3-1.9,70.2-14,103.7c-1.6,4.5-3,8.9,2,12.3
		c-14.5,30.7-32.6,58.9-60.4,79c-12.1,8.7-27.6,11.4-42.4,9c-13.4-2.2-27.1-4.1-39.8-10.2c-7.3-3.5-15.4-5.5-23.8-4.7
		c-3-9.5-11.5-11.6-19.2-11.4c-8.5,0.2-4,10.1-7.7,14.7c-1.1,1.3-0.1,4.1-0.7,6c-8.3,27.6-14.2,56.3-35.8,77.8
		c-5.2,5.2-8,11.7-7,19.4c-21,19.1-45.7,31.2-73.1,37.3c-20.3,4.5-40.8,7.6-61.9,7.2c-24.1-0.5-45.8-6.3-65.9-20
		c-13.3-9.1-26.5-19-42.4-23.8c-0.3-4.9-4.3-7.3-6.9-4.3c-4.1,4.8-13.9,8.3-7.6,17.8c-6.9,9.3-13.9,18.5-20.7,27.9
		c-23.4,32.4-56.5,45.9-94.9,48.1c-34.1,1.9-67.1-4.1-98.2-18.6c-45.6-21.2-70.9-58.1-81.9-106.1c0.3-9-2.4-12.3-11.6-7.4
		c-16.8,9.1-34.7,13.8-54,12.8c-3.1-0.2-6.2-0.2-8.1,2.9c-20.5,2.4-38.4-5.4-56.2-14.2c-19.1-9.4-37.9-19.3-52.9-34.9
		C403.3,1662.4,400.1,1658.9,394.9,1659.4z M690.7,617.5c-2.2-13,5.7-22.1,12.1-32c6-9.3,5.3-10.6-5.3-11.9
		c-6.4-0.8-10.5-4.5-11.9-10.3c-5.8-23.4-25.8-34.3-44.5-39.9c-40.4-12-83-14-125.1-16.4c-22.5-1.3-45.1-0.3-67.6-0.3
		c-22.8,0-44.4,5.2-64.9,15.1c-15.6,7.5-23,24.6-19.7,41.7c2.3,11.9,8.1,21.8,13.3,32.2c6.9,13.9,0.5,24.6-14.5,24.8
		c-19.4,0.3-38.7,1.8-58,2.3c-31,0.7-60.8,5.5-89.6,16.4c-42.2,16-74,43.4-84.4,88.7c-6.1,26.5-6.3,54,14.3,76.6
		c11.8,12.9,25.8,23,41.1,31.1c7.6,4,12.7,9.8,12.3,17.7c-0.3,7.1-4.4,14.2-12.5,15.7c-33.5,6.3-54.9,28-70.9,55.8
		c-20.1,35.1-26.4,72.3-13.5,111.6c5.4,16.4,17.1,26.7,32.4,34.3c13.9,6.9,28.2,7.9,43.2,7.8c11.4-0.1,18,8.2,15.2,19.1
		c-1.1,4.3-2.7,8.6-4.9,12.7c-26.6,50.3-37.3,103.2-21.6,159.1c6.6,23.7,20.2,43,43.8,54.2c14.1,6.7,28.5,7.3,43.3,6.8
		c8.7-0.3,15.2,2.1,17,11.5c2.3,11.7-0.6,18.2-10.9,22.1c-21.4,8.2-28,25.9-32.4,46.4c-3.9,18-1,35.4,0.3,53
		c3.2,42.1,27.5,67.9,68.5,76.6c20.8,4.4,40.5,1.1,60.5-2.3c18.4-3.1,27,3,27.8,21.9c0.2,4.6,0.2,9,1.5,13.6
		c11.6,42.3,38.2,72.1,76.3,92.6c31.8,17.1,64.1,21.5,98,6.1c8.5-3.9,15.8-9,22.4-15.5c6.8-6.6,13.7-12.5,24.3-7.5
		c10.2,4.8,11.4,13.5,11.1,23.1c0,1,0,2.1,0,3.1c2.3,38.9,20,69.8,49.2,94.7c29.2,24.9,63.8,30.9,100.4,27.3
		c24.2-2.4,45.8-11,63.8-29.3c17-17.2,27.7-37.7,38.4-58.6c7.4-14.4,14-16.9,29.5-10.8c15.3,6,28.7,15,42.3,24.1
		c30.5,20.6,62.6,34.1,101.4,26.2c46.1-9.4,79.3-33.9,101.3-75.2c12.1-22.7,13.7-47.6,17.6-72c2.2-13.5,7.2-18.4,20.3-15.7
		c9.9,2.1,19.7,4.7,29.2,8.7c17.3,7.3,35,14.1,53.6,17.3c18.4,3.2,36.9,4.1,51.2-11.6c4.4-4.9,8.3-10.2,12.1-15.6
		c24.4-34.8,30.2-75.1,33.2-115.9c1.7-23.4,0.1-47.1,0.5-70.7c0.4-18.5,11.9-25,28.2-17.1c4.6,2.2,9,4.5,13.5,7
		c17,9.5,34.7,10.1,50.5-1.6c10.4-7.8,20-17.1,24.4-30.6c4.1-12.5,8.6-24.6,10.2-38c3.6-30.2,3.9-59.8-5.6-89.1
		c-8.6-26.7-16.3-53.6-27.5-79.3c-2.2-5.1-0.8-8.6,2.6-12.4c9.2-10.1,20.6-9.1,29.4,2.8c14.3,19.2,26,20.3,39.8,1.5
		c18.5-25.2,27.4-54.6,30.7-85.2c2.4-22.7-6.6-44.2-15-64.7c-15-36.6-37.3-68.7-63.7-98.1c-5.4-6-8.1-12.2-4.5-20.8
		c3.6-8.6,10-9.2,17.3-9.2c30.9,0.4,41.6-25.7,37.8-47.2c-10.9-61.1-48.9-101.4-100.6-131c-13.3-7.6-27.5-13.3-41.6-19.5
		c-15.9-7-17.6-14.1-8.2-28.5c3.6-5.6,7.6-10.9,11-16.6c9.1-15.4,15-31.6,7.9-49.4c-5.1-12.8-12.1-24.7-23.5-33.1
		c-12.8-9.5-26.8-16.7-41.6-22.3c-26.3-9.9-53.4-12.2-81.1-6.7c-30.2,5.9-55.9,21.3-80.5,38.7c-11.8,8.3-18.6,7.1-25.9-5.5
		c-1.8-3.1-3.3-6.4-5-9.5c-10.3-19.5-28.2-30.4-48.2-34.2c-22.2-4.3-45.5-6.3-68.1-0.4c-4.9,1.3-10.6,1.1-13.7,7.9
		c-11.2,24.2-27.6,45.1-44.5,65.4c-5.1,6.1-5.2,10.5,0.5,15.6c7.9,6.9,10.6,15.9,10.5,26.1c-0.1,12.4-2.9,15.1-14.6,12.3
		c-5.1-1.2-10.7-3-15-1c-6.4,3-17.5-1.2-19.1,9.2c-1.3,8.7,8.2,9,13.3,12.6c8.7,6.2,11.5,17,3.8,21.6c-9.5,5.7-6.8,9.5-1.8,16
		c9.5,12.4,7.3,18.1-7.6,19.7c-9.6,1-9.5,5.5-6.8,12.4c1.5,3.8,3.8,7.5,4.3,11.4c0.7,5.4,1.9,11.5-4.1,15.3
		c-5.9,3.7-12.1,5.7-18.9,2.9c-1.8-0.8-3.2-2.6-5-3.5c-4-1.9-8.1-6.6-12.5-3.2c-4.4,3.3-1.3,8.2-0.2,12.7c1.9,7.6,6.4,13.9,9,21.1
		c3.8,10.6,1,13.8-9.7,11.9c-13-2.3-14.8-1-16.8,13.6c-1,7.5-4.5,14.3-12.2,12.2c-11.2-3-8.6,3.8-9.3,9.6
		c-1.6,13.4,3.9,26.2,3.1,39.6c-0.8,12.6-1.6,13.4-14.1,9c-0.4,1.5-1.4,3.1-1,4.3c6.7,23.8-0.3,46.2-6.4,68.7
		c-0.9,3.2-1.9,6.3-5.1,6.9c-4.4,0.9-6-2.9-7.6-6.1c-7.1-14.4-7.1-29.6-4-44.8c1-4.7,2.7-9.4-1.1-13c-8.1-7.8-8.8-18-9.6-28.1
		c-0.5-6.4-2.1-11-9.4-11.4c-8.5-0.5-9.9-6.3-9.1-13c1.2-9.6,2.2-19.6,8.5-27.3c5.4-6.6,1.5-8.8-3.8-10.9c-1.9-0.8-4-0.9-5.9-1.7
		c-15.4-6.3-20-17.3-14.8-33.2c1.5-4.6,5-7.7,6.3-12.1c1.9-6.1,5.7-12.6-4-16.3c-5.6-2.1-5.6-8.5-6.8-13.1
		c-1.8-7.1-5.5-13.6-11.6-15.2c-13.2-3.4-12.9-12.5-9.7-21.3c3.2-8.8-0.8-10.3-7.4-12.6c-23-8.1-23.4-10.1-7.4-29.3
		c0.3-0.4,0.7-0.7,1.1-1.1c5.5-6,3.3-10-3.5-12.7c-8.2-3.2-16.1-0.1-24,1.8C699.2,626.6,691.6,627.6,690.7,617.5z"/>
	<path class="st2" d="M2483.8,316.6c-10.9,2.7-20.7,8.1-30.7,13c-22.1,10.9-44.5,12.2-67.6,4c-15.8-5.7-31.8-10.9-48.8-11.1
		c-5.2-0.1-8.6-2.5-11.9-5.9c-16.7-17.2-37.4-28.1-59.4-36.4c-11.8-4.5-22.9-10.4-35.2-13.9c-20-5.8-38.3-0.4-56.7,5.4
		c-7.3,2.3-8.8,9.7-6.9,16.8c8.5,31.7,15.2,64,25.6,95.2c1.9,5.7,1.4,10.9,1.2,17.8c-22.2-4.2-42.5-11.4-63.2-16.9
		c-2.5-0.7-4.9-1.5-7.3-2.2c-27.1-8-27.4-7.7-43,15.5c-4.4,6.6-6.6,12.3-1.7,19.4c1.8,2.5,3,5.8,0.1,8.3c-2.8,2.4-5.7,0.6-8.5-0.8
		c-33.3-16.1-66.6-32.1-99.8-48.3c-9.3-4.5-15.2-13.2-23-19.6c-2-1.6-4-3.9-6.6-1.9c-2.2,1.7-2.5,5.3-1.1,7.1
		c7.8,10.2,7.1,23,10.8,34.4c7.8,23.8,9.7,49.2,6.1,73.9c-1.8,12.3-1.6,24.4-1.8,36.5c-0.1,7.3-2.9,12.2-9.5,13.8
		c-16.9,3.9-31.6,13.5-48.2,18.4c-9,2.7-15.4,1.4-21.9-5.3c-17.1-17.7-34.9-34.6-51.9-52.3c-7.5-7.8-16.4-13.8-24.6-20.6
		c-7.5-6.2-17.5-7.9-27.5-5c-9.3,2.7-18.6,4.8-27.6,8.8c-11,4.9-13.1,3.6-17-7.7c-11.2-32.7-20.6-65.9-30.3-99
		c-0.9-2.9-1.7-6-3.3-8.5c-3.6-5.8-2.1-9.9,2.1-15c18.2-22.1,39.1-41.7,60.9-60c14.3-12,30.9-21.4,48.5-28.6
		c18.8-7.7,33.2,3.1,48.5,10.5c2.6,1.3,4.4,4.3,6.8,6.1c2.7,2.1,5.8,2,8.5-0.1c2.7-2,3.9-4.9,2.8-8.1c-1.4-3.8-4.3-7.3-4.8-11.2
		c-1.9-14-0.6-26.9,10.5-38c25.8-25.9,57.8-38.2,92.5-45.4c1.5-0.3,2.9-0.7,4.3-1.1c0.4-0.1,0.8-0.7,1.2-1c-0.3-4.7-4.1-4.1-6.8-3.8
		c-11.9,1.5-23.3-2.3-34.9-3.4c-10.9-1.1-13.2-7-7.1-16.3c12.1-18.3,29.8-30.5,47.9-41.9c5.5-3.5,10.5-8.1,17.3-9.5
		c3.1-0.7,6.4-2.6,5.2-6.2c-1.3-3.9-5-2.6-7.7-1.2c-15.9,7.7-33.4,10.7-49.4,18.5c-16.6,8.1-33.1,16.8-51.6,20.4
		c-2.3,0.5-4.4,2.3-6.5,3.7c-6.6,4.5-11.5,6.4-17.1-2.8c-8.1-13.1-16.1-8.5-31.4,1c-10.6,6.5-10,7.5-15.4-3.3
		c-3.1-6.2-8.9-11.5-7.2-19.5c10.3-1.8,18.8,3.3,27.7,6.9c13,5.2,19.5,3.5,29.8-6.6c35.1-34.3,74.3-62.4,122.3-75.4
		c24.2-6.6,48.5-6.1,70.2,9.8c8.4,6.2,14.2,14.5,20.4,22.6c0.2,3.8-0.5,6.1-4.7,8.2c-14,7.3-28.1,14.4-38.9,26.5
		c-13.5,15-14.4,23.4-4,41c2.3,4,5.4,8,6.1,12.3c2,11.7,9.6,12.3,19.2,12.2c29.6-0.2,58.8-3.7,88.2-5.9
		c41.3-3.1,77.4-18.7,111.1-41.3c9-6,15.3-14.8,21.3-23.8c3.4-5-1.1-12.9,6.2-16.3c30.5,11.8,37.1,37.1,17.2,65.7
		c-4.1-0.2-7.6,1.1-11.4,3.1c-15.6,8.4-28.9,20.1-44.1,29.2c-27.9,16.9-58.2,26.1-90.2,28.7c-28.2,2.2-56.3,7-84.8,6.6
		c-9.1-0.1-17.8,4-27.1,3.4c-2.9-0.2-3.6,3-3.9,5.6c-11.5-1.1-22.6-5-34.3-4.3c-22.7,1.2-39.5,12.9-54.1,29.5
		c-12.5,14.2-13,31.3,0,44.8c10.3,10.7,23.3,18.3,33.9,28.3c43.2,40.7,98.3,50.6,153.2,60.9c14.1,2.6,19.4-4.2,18.1-18.1
		c-2.1-21.2-5.7-42.2-6.9-63.5c-0.7-12.1-1.7-24.3-2.5-36.4c-0.9-14.9-3.9-17.3-18.8-19.8c-7-1.2-13.8-3-21-3.1
		c-5.5-0.1-11.4-1.6-12.3-8.9c19.2-5.2,39.1-4.6,58.7-5.9c18.3-1.2,36.2-3.8,53.8-8.8c33-9.5,58.5-32.2,87.5-48.8
		c5.5-3.2,6.2-9,6.8-14.7c7.1,10.7,20.5,10,30,16.6c-1.5,2.5-3.8,3.3-6.5,3.1c-12.1-0.9-20,6.1-26.8,14.6c-2.2,2.8-4.1,5.5-7.4,7.3
		c-20.9,11.5-39.9,26.1-62.4,34.9c-4.7,1.8-13.7,4.2-12.5,11.4c1.3,7.6,9.2,10.2,16.5,11.5c3.5,0.6,7.1,0,10.7,0.2
		c28.1,2.2,55.8-4,83.8-3.2c12.1,0.3,23.2,2.9,32.4,11.1c4.7,4.2,10.2,6.1,16.2,7.8c27.6,7.7,56.6-3.6,85.9,9.8
		c-4.5-14.7-1.7-27.6-12.1-36.8c-1-0.9-0.3-3.9-0.4-5.9C2476.5,237.7,2500.2,273.5,2483.8,316.6z M1941.8,426
		c0.8-15.3,0.9-35.3-6.2-54.3c-3.7-9.8-6.8-20.7-20.2-21.9c-5.1-0.5-7.6-4.9-10.9-8c-7.4-7-14.2-14.5-23.1-20
		c-12.6-7.8-24.5-16.7-34.1-28.1c-5.9-7-13-9.5-21.7-8.3c-7.5,1.1-15.5,1.2-22.4,3.9c-7.3,2.9-15.8,7.1-17.1,16.1
		c-2.1,14.6-3.2,29.2,7.2,42.2c13,16.3,23.8,33.8,29.3,54.6c5.2,19.9,7.7,20.6,26.4,12.2c7.7-3.5,11.3-2.7,15.7,4.8
		c6.2,10.3,13,21.1,28,19.9c19.4-1.6,34,5,40.3,24.8c0.8,2.6,2.7,5,5.3,4.6c4.1-0.6,3.3-4.5,3.4-7.4
		C1941.8,451.1,1941.8,440.9,1941.8,426z"/>
	<path class="st2" d="M140,1290.7c7.5,27.8,25.6,47,49.8,61.2c1.4,7.6-9.2,4.7-9.4,10.8c-7.1,2.3-14.2,1.9-21.3,0
		c-3.6-6.9-10.3-6.7-16.7-7.1c-27.8-12.4-41.6-37.2-53.1-62.8c-21.9-48.6-19.2-98.5-3.9-148.4c4.6-14.9,4.6-14.8-9.1-20.4
		c-18-7.4-29.2-22.5-39.2-37.9c-16.8-25.7-32-52.2-35.9-83.8c-3.3-27.1,0.7-53.1,8.6-78.6c11.5-36.9,30.2-70.5,52.8-101.6
		c5.4-7.4,6.2-13.6,4.6-22.2c-14.7-76.8,5.4-143.9,59.2-200.2c25.7-26.9,59-39.8,95.8-43.3c13.2-1.3,13.8-2.1,6.8-12.9
		c-3.9-6-7.6-12.3-12.2-17.7c-10.5-12.2-9.7-25.3-3.9-38.8c9.1-21.2,23.8-38.4,40.8-53.2c25.2-21.8,52.3-41.6,84.2-52.4
		c14-4.8,27.2-14.1,43.3-11.7c-0.8,5.9-4.2,9.9-8.8,13.7c-23.8,19.1-46,39.4-60.5,67.1c-11.5,22-7.6,44.7,12.8,59.2
		c4.7,3.4,9.3,6.3,9.7,12.8c-7.4,14.4-8.7,29.2-4,44.7c1,3.2,0.6,6.9,0.8,10.4c-8.6-0.6-16.3,0.2-15.6,11.9c-4.1,0-8.2,0-12.2,0.1
		c-4.6-4.3-7.7-3.7-9.3,2.6c-42.5,2.8-84.1,9.9-121,32.3c-46,28-76.4,66.4-75.8,123.5c0.2,16.8-0.7,33.6,3.2,50.1
		c3.5,14.6,11.7,26.6,21.6,37.6c0.9,6.3-2.9,10.1-6.6,14.5c-14.1,16.5-24.6,35.2-30.2,56.3c-9.9,25.1-18.2,50.7-20.3,77.7
		c-3.2,40.5,6.6,89.1,47.1,113.5c8.5,5.1,17.7,8.3,27,10.3c8.6,1.9,10.7,4.3,7.5,12.7c-7.8,19.9-13.4,40.5-16.6,61.7
		c-3.3,21.8-2.9,43.9-0.7,65.6c1.2,11.9,1.4,24.4,5.5,36C134.2,1288,135.9,1290.4,140,1290.7z"/>
	<path class="st0" d="M1019.9,467.2c-12.8,4.6-26.6,5-39.7,8.8c-29,8.5-55.6,22.6-83.4,33.9c-10.1,4.1-20.1,6.6-31.1,6.5
		c-35.3-0.5-70.6,0.5-105.8-0.7c-21.1-0.7-42.1-2.5-62.5-11c-24.7-10.3-50.8-17.7-78-19.7c-2.9-0.2-5.8-1.8-8.7-2.8
		c3.9-6.3,11.5-5.8,17.1-9.1c16.4-9.7,18.6-20.9,3.7-32.6c-8.2-6.4-14.7-15.6-25.9-18.1c-3.6-0.8-8.8-3.1-6.1-8.4
		c2.1-4.2,6.1-1.9,9.4-0.3c12.4,6,25.3,10.8,38.9,12.5c10,1.3,20.2,1.7,30.1,4c16.3,3.9,32.8,6.3,49.6,5.9
		c15.1-0.4,17.9-4.2,13.8-18.8c-3.7-12.9-10.5-24.2-17.7-35.3c-2.1-3.3-6.7-6-4.2-10.6c2.8-5.2,8.4-3.2,12.5-2.7
		c8,0.9,16,2.5,23.8,4.7c6,1.6,9.3,0.2,8.7-6c-0.6-6.8,3.1-14.3-2.9-20.4c-2.6-27.7-11.7-53.8-19.8-80.1c-5.4-17.7-6-18,9.3-26.7
		c6.1-3.5,7.7-7.2,6-13.6c-1.7-6.4-2.5-13-0.7-20.5c8.5,0.3,11.5,7.5,15.7,12.5c8.5,10.2,15.6,21.5,25.1,30.9c2.6,2.5,5,5.2,7.9,7.3
		c9,6.6,10.5,6.1,14.4-4.6c0.7-1.9,0.8-4,4.1-5.7c7.1,4.3,14.1,10,20.7,16.3c3.9,3.7,6.7,11.1,14.5,3.3c3.4-3.5,5.5,3.1,7,5.7
		c12.6,21.3,20.4,44.4,25.2,68.7c0.9,4.5,1.8,9,2.7,13.5c-0.1,9.7,3.8,18.7,3.5,28.7c-0.7,24.8,3,27.2,26.7,19.3
		c1.9-0.6,3.6-1.8,5.4-2.8c8.2-4.3,17.1-5.9,26.3-6.2c7.8-0.3,12.9,0.9,12.2,10.6c-0.6,8.6,4.3,13.7,12.8,13.9
		c16.3,0.4,33.1,2.2,49-0.4c29.1-4.7,58.1-1.1,87.1-2.4c5.4-0.2,10.6,0.9,13.2,8.4c-30.5,0.4-57.8,9.7-85,19.1
		C1033.2,446.2,1019.8,450.8,1019.9,467.2z"/>
	<path class="st0" d="M1379.7,1561.4c-4.9-3.4-3.6-7.9-2-12.3c12.1-33.6,15-68.4,14-103.7c-0.1-3.6-0.2-7.2,0-10.8
		c0.6-10.9,2.3-11.5,13.1-10.2c12.5,1.5,24.6,6.4,37.7,3.5c22.6-5,39.7-16,50.9-37.4c21-40.3,31.9-81.9,25.1-127.8
		c-3.1-21.1-5.2-42.2-12.6-62.4c-1.7-4.6-1.5-9.7,5.8-11.7c26.5-7.5,42-28,53.9-50.5c14-26.5,24.6-54.4,23.1-85.7
		c-1.5-30.5-9.7-59-22.8-86.1c-11-22.8-24-44.5-39.2-66.3c27.7-11.2,28-36.7,30.7-59.8c5.2-44.1-9.4-83.8-35.9-117.7
		c-16.3-20.9-35.3-40.4-59.7-54c-12.7-7.1-24.2-16.4-38.2-21.9c-7.5-2.9-9.5-9.8-4.8-17.8c19.5-33.6,10.7-88.7-19.9-113.2
		c-16.8-13.4-36.3-22.3-56-30c-37.3-14.7-75.7-12.8-114-3.3c-16.9,4.2-32.6,11.3-47.4,20.4c-14.4,8.9-14.5,8.6-26.1-3
		c-14.7-14.7-33.1-23.3-52.7-29.7c41.1-22.2,78.5-48.7,104.4-88.8c13.2,8.2,21.4,20.2,25.4,34.9c2.4,9,7.4,13.4,16.8,14.6
		c18.2,2.3,35.3,9.7,53.5,11.8c4.7,2.8,9.3,5.2,14.9,6.7c26.4,6.9,51.6,17.4,77,27.4c6.4,2.5,10,10.7,18.5,8.9
		c9.1,6.1,18.8,11.6,27.4,18.5c20.8,16.5,41.3,33.5,37.2,64.5c-4.2,13.5-15.7,21-25.7,29.3c-6.4,5.3-5.5,8.7-0.7,13.4
		c2.5,2.5,4.9,5.3,7.7,7.4c46.5,34.4,87.1,74.4,120.1,122c5.1,10.2,10.3,20.5,15.4,30.7c-0.5,8.8,5.2,16.1,6.1,24.6
		c0,3.1,0,6.1,0,9.2c0.1,20.9-6.2,38.8-24.4,50.9c-7.7,5.1-5.6,10.7-1.4,16.8c15.4,22.3,26.5,46.6,36.4,71.8
		c5,12.8,5.5,26.4,11,38.8c0.4,26.7,1,53.3-3,79.9c-3.5,7.8-5.2,16.1-6.2,24.6c-7.2,17.7-14.9,35-26.3,50.6
		c-6.9,9.5-13.3,19.2-22.1,27.1c-4.4,3.9-7.7,8.2-6.9,14.5c-8.4-0.5-8.9,5.3-8.7,11.2c0.9,22.6-1.8,45-4.1,67.3
		c-5.6,53.4-12.8,106.6-36.6,155.7c-14.2,29.1-39.2,46.5-67.2,60.2c-8.9,4.4-18.8,4.7-28.6,4c-6.6-0.5-11,1.5-11.2,9
		C1400.4,1513.8,1388.7,1537.2,1379.7,1561.4z"/>
	<path class="st2" d="M761.5,347c6,6,2.2,13.6,2.9,20.4c0.6,6.3-2.7,7.7-8.7,6c-7.8-2.1-15.8-3.8-23.8-4.7
		c-4.1-0.4-9.7-2.5-12.5,2.7c-2.5,4.6,2.2,7.3,4.2,10.6c7.2,11.1,14,22.4,17.7,35.3c4.2,14.5,1.3,18.4-13.8,18.8
		c-16.8,0.4-33.3-2-49.6-5.9c-9.9-2.3-20.1-2.8-30.1-4c-13.6-1.7-26.5-6.5-38.9-12.5c-3.3-1.6-7.3-3.8-9.4,0.3
		c-2.7,5.3,2.5,7.7,6.1,8.4c11.2,2.5,17.8,11.7,25.9,18.1c14.9,11.7,12.7,22.9-3.7,32.6c-5.6,3.3-13.2,2.8-17.1,9.1
		c-33.7-5-67.7-6.4-101.7-8.4c-42.7-2.5-85.8-3.8-126.8,12.1c-19.4,7.5-35.6,19.5-47.9,36.4c-0.4-6.5-4.9-9.4-9.7-12.8
		c-20.4-14.4-24.3-37.2-12.8-59.2c14.5-27.8,36.7-48,60.5-67.1c4.7-3.7,8-7.7,8.8-13.7c18.6-6.6,38.1-6.9,57.3-6.2
		c44.7,1.8,88.1,10.3,129.3,28c5.3,2.3,8.4,0.6,11.7-3.5c26.2-31.8,61.9-43.8,101.2-46.7C707.9,339.3,735,340.4,761.5,347z"/>
	<path class="st2" d="M1699.9,126.1c2.5,1.1,3.9,3.2,5.1,5.5c7.6,15,11,19.8-10,18.9c-11.2-0.5-21.9,3.7-32.8,6
		c-7.9,1.6-8.3,5.2-2,9.7c11.7,8.4,21.5,18.4,28.8,30.8c5.3,9.1,5,12.3-5.1,15.9c-24.9,8.9-50.5,15.3-76.9,17.1
		c-10.2,0.7-20.1,1.2-31.5,6c9.6,4.7,18.9,5.5,27.2,9.3c26.5,12.2,28.3,22.3,5,40.6c-14.8,11.6-30.5,21.9-45.3,33.4
		c-24.1,18.8-45.6,40.4-67.5,61.5c-8.6,8.3-17.3,11.3-29.7,10.1c-15-1.4-30.1,4.1-44.2,8.9c-16.3,5.5-31.1,6.4-43.8-5.3
		c-14.8-13.7-19.8-31.2-14.3-51.4c6.8-25,13.9-49.7,28.9-71.3c2.5-3.5,3.6-6.2-1-8.5c9.9-10.2,22.9-15.1,35.6-20.2
		c35.5-14.1,72.6-20.1,110.8-19c6.9,0.2,12.8,0.1,15.7-8.4c13.1-38.8,42.2-61.4,78.8-75.9C1653.4,131.1,1676,125.3,1699.9,126.1z"/>
	<path class="st2" d="M2602.5,771.2c-4.7,0.1-4.9,3.4-6.2,7c-9,23.5-21.6,44.1-48.6,49.5c-19.1,3.9-36.1,0.9-50.5-15.3
		c-11.7-13.2-21.6-28-36.8-38.6c-9.6-6.7-7.1-20.9-11.9-31.2c0.9-0.5,1.7-1.1,2.6-1.6c7.9,4.1,15.8,8.1,23.7,12.2
		c14.7,7.6,29.3,7.5,43.9-0.1c5.9-3.1,11.1-7.6,17.2-9.7c19.7-7,23.7-21.7,20.5-40c-4.9-27.9-8.8-56.1-15.7-83.5
		c-6.9-27.5-14.3-55.1-30.3-79.4c-17.2-26.3-40.6-45.2-68.9-58.2c-9.7-4.4-19.1-9.8-29.1-13c-10.5-3.3-13.8-10.6-15.7-19.9
		c-2.6-12.9-4.7-25.9-8.3-38.6c-6.2-21.9-17.9-40.8-33.1-57.6c-2-2.2-5.4-4.4-3-7.6c2-2.7,5.9-2.2,8.6-0.9
		c17.6,8.8,37.1,9.6,55.8,13.9c8.5,1.9,17.7-0.4,23.7-3.3c16.2-7.9,33.9-12.1,49.6-21c43.9,33.7,75.3,75.8,87.7,130.8
		c10.1,44.6,9,88.2-10.2,130.4c-2.8,6.1-2,11.5-0.1,17.7c11.6,38.1,22.8,76.4,30.2,115.5C2600.2,742.7,2603.6,756.7,2602.5,771.2z
		 M2571.7,505.7c0,0-0.1,0-0.1,0c0-6.7,1.8-14-0.3-19.8c-8.4-22.5-10.2-46.7-19.5-68.9c-4.5-10.6-9.9-19.3-19.8-26.1
		c-11.2-7.6-21.9-15.9-28.4-29.2c-6.8-13.9-18.3-14.1-28.8-2.4c-6.8,7.6-12.9,15.8-19.9,23.1c-14.3,14.9-28.7,15.4-44,1.6
		c-3.9-3.5-7.8-6.6-12.6-8.5c-2.9-1.1-6.2-1.8-8.7,0.4c-3.1,2.9-0.1,5.9,1.3,8.2c6.8,11.3,13.4,23,22.3,32.8
		c16,17.7,34.5,28.6,59.5,18.9c2.8-1.1,5.8-2.2,8.8-2.6c8.9-1.1,16.5,0.2,23.5,7.6c12,12.6,23.5,25.5,33.2,39.9
		c9.3,13.8,18.9,27.7,23.2,44.3c0.6,2.2,1.7,5.3,4.8,5.2c3.7-0.1,5.4-3,5.6-6.1C2572,518,2571.7,511.8,2571.7,505.7z"/>
	<path class="st2" d="M2284.4,63.1c-7.3,3.4-2.8,11.3-6.2,16.3c-6,9-12.3,17.8-21.3,23.8c-33.7,22.6-69.8,38.2-111.1,41.3
		c-29.4,2.2-58.7,5.7-88.2,5.9c-9.6,0.1-17.2-0.5-19.2-12.2c-0.7-4.3-3.8-8.3-6.1-12.3c-10.4-17.6-9.5-26,4-41
		c10.8-12.1,24.9-19.3,38.9-26.5c4.2-2.2,4.9-4.5,4.7-8.2c44.3-6.9,88.5-15.6,133.7-13.2C2239.8,38.4,2265.8,41,2284.4,63.1z"/>
	<path class="st2" d="M1207,381.1c-25.8,40.1-63.3,66.6-104.4,88.8c-4.6-2.5-9.4-3.1-14.6-3c-22.7,0.2-45.4,0.2-68.1,0.3
		c-0.1-16.4,13.3-21,24.6-25c27.2-9.4,54.5-18.8,85-19.1c-2.5-7.5-7.8-8.7-13.2-8.4c-29,1.3-58-2.3-87.1,2.4
		c-16,2.6-32.7,0.8-49,0.4c-8.5-0.2-13.4-5.4-12.8-13.9c0.7-9.6-4.5-10.8-12.2-10.6c-9.3,0.3-18.1,1.9-26.3,6.2
		c-1.8,0.9-3.5,2.1-5.4,2.8c-23.7,7.9-27.4,5.5-26.7-19.3c0.3-9.9-3.6-19-3.5-28.7c19.6,3.7,36.8,12,50.5,26.6
		c10,10.7,22,11.5,34.5,7c31.7-11.6,63.8-21.3,97.1-26.6c35-5.5,70-7.9,104.2,4.2C1189.7,368.8,1200.1,372.2,1207,381.1z"/>
	<path class="st2" d="M2449.6,219.2c0.1,2-0.6,5,0.4,5.9c10.5,9.1,7.7,22.1,12.1,36.8c-29.3-13.4-58.3-2.1-85.9-9.8
		c-6.1-1.7-11.5-3.6-16.2-7.8c-9.2-8.2-20.3-10.8-32.4-11.1c-28-0.8-55.7,5.4-83.8,3.2c-3.6-0.3-7.2,0.4-10.7-0.2
		c-7.2-1.2-15.2-3.9-16.5-11.5c-1.2-7.2,7.7-9.6,12.5-11.4c22.5-8.8,41.5-23.5,62.4-34.9c3.3-1.8,5.2-4.5,7.4-7.3
		c6.8-8.5,14.7-15.5,26.8-14.6c2.7,0.2,5-0.6,6.5-3.1c38,7,71.1,24,99.8,49.6C2437.9,208.3,2446.9,210.4,2449.6,219.2z"/>
	<path class="st0" d="M2040.2,205.6c0.3-2.6,1-5.8,3.9-5.6c9.3,0.6,18-3.5,27.1-3.4c28.5,0.4,56.5-4.4,84.8-6.6
		c32-2.6,62.2-11.7,90.2-28.7c15.1-9.2,28.5-20.8,44.1-29.2c3.8-2.1,7.3-3.3,11.4-3.1c0.2,2.6,0.4,5.2,0.6,7.9
		c-0.6,5.7-1.3,11.5-6.8,14.7c-28.9,16.7-54.5,39.3-87.5,48.8c-17.6,5.1-35.5,7.6-53.8,8.8c-19.6,1.3-39.5,0.7-58.7,5.9
		C2076.3,216,2058.7,207.9,2040.2,205.6z"/>
	<path class="st0" d="M257.1,1564.2c12.5-1.3,23.4,5.5,35.5,7.1c17.8,2.4,35.3,2.8,52.9,0.8c5-0.6,9.2-0.1,9.3,4.4
		c0.3,11.9,8.4,22,7,34c-1.7-2.5-3.5-4.9-5.2-7.5c-3.2-5.1-6.6-6.5-12.5-3.2c-21.6,12.1-41.8,5.6-60.1-7.3
		C273.5,1585.1,262.5,1577,257.1,1564.2z"/>
	<path class="st2" d="M1142.8,1740.9c-1-7.7,1.8-14.1,7-19.4c21.6-21.5,27.4-50.2,35.8-77.8c0.6-1.9-0.4-4.6,0.7-6
		c3.7-4.5-0.8-14.5,7.7-14.7c7.7-0.2,16.2,1.9,19.2,11.4c-8.4,36.6-27.8,67.1-53.2,94.2C1155.1,1734,1149.5,1738.2,1142.8,1740.9z"
		/>
	<path class="st0" d="M394.9,1659.4c5.2-0.5,8.4,2.9,11.6,6.3c15,15.6,33.8,25.5,52.9,34.9c17.8,8.8,35.7,16.5,56.2,14.2
		c7.7,5.1,13,11.9,15.5,21c-6.2,0.4-11.6,0.8-17.1,1.2c-22.9,0.9-42.5-8.8-60.7-21C430.6,1700.7,409.5,1683.3,394.9,1659.4z"/>
	<path class="st2" d="M514,1736.9c5.5-0.4,10.9-0.7,17.1-1.2c-2.5-9.2-7.8-15.9-15.5-21c1.9-3.1,5.1-3.1,8.1-2.9
		c19.3,1,37.2-3.7,54-12.8c9.2-4.9,11.9-1.6,11.6,7.4c-3.1,0.8-4.8,2.8-6.7,5.5c-13.5,19.7-34.1,26.1-56.3,29
		C521.8,1741.6,516.9,1741.9,514,1736.9z"/>
	<path class="st2" d="M180.4,1362.8c0.2-6.2,10.9-3.2,9.4-10.8c1.5,0.1,3.1-0.1,4.6,0.3c18.9,5,20.2,7.7,11.4,24.8
		c-4.5,8.7-6.9,17.8-7,27.6c-0.1,6.1-0.2,12.4-7.8,14.5c-1.7-18.7-1.3-37.4,0.8-56.2C188,1359.2,184.1,1364.9,180.4,1362.8z"/>
	<path class="st2" d="M885,1755.2c-6.3-9.5,3.5-13,7.6-17.8c2.6-3,6.6-0.6,6.9,4.3C896.8,1748.5,889.9,1750.8,885,1755.2z"/>
	<path class="st2" d="M142.5,1355.7c6.4,0.4,13.1,0.2,16.7,7.1C152.7,1362.6,146.5,1361.7,142.5,1355.7z"/>
	<path class="st0" d="M254.2,1561c1.1,1.1,2.2,2.2,3.3,3.3C255.6,1563.9,254.5,1562.9,254.2,1561z"/>
	<path class="st2" d="M1477.6,568.3c4.1-31-16.4-48-37.2-64.5c-8.6-6.8-18.2-12.3-27.4-18.5c9.5-7.7,16.6-18,25.4-25.9
		c14.1-12.6,26.6-26.8,41.7-38.2c4.5-3.4,8.7-7.1,12.6-11.1c23.4-23.4,47.8-45.7,72.8-67.4c6.1-5.3,12.7-11.3,15.7-18.5
		c7.1-16.6,22.4-22.9,35.9-31.2c12.9-8,26.9-14.6,40.9-20.5c18.3-7.7,31.2,0.5,34.7,22.9c2,13.1-6.3,24.5-7.2,37.2
		c-0.4,5-6.3,7.1-11.5,8.8c-13.5,4.4-26.6,10.3-40.3,14.3c-8.5,2.5-12.2,13.3-22.8,9.6c0.8,7.9,5.5,6.5,8.3,6
		c16.4-3.4,33.1-4.7,49.7-7c6.3-0.8,7.4,0.4,9.4,5.6c11.3,27.9,18.3,57,26.7,85.8c5.4,18.6,8.5,36.6,6.6,56.3
		c-2.6,26.8-3.1,53.7-6.4,80.5c-0.9,7.6-0.2,15.3-0.2,23c-0.1,13.5-3.2,20-15.3,22.7c-12.8,2.9-23.2,10-34.3,15.8
		c-7.6,3.9-9.4,2-12-4.7c-13.6-34.5-25.9-69.5-41.3-103.4c-8.4-18.4-20.2-34-32.3-49.6c-6.5-8.3-15.8-7.5-23.5,1.9
		c-17.4,21.3-36.2,41.4-54.9,61.7C1487.3,564.4,1483.6,567.8,1477.6,568.3z"/>
	<path class="st2" d="M1886.9,659.3c-1,13.6-3,26-6.2,38.3c-1.7,6.6-5.1,11.9-12.1,11.8c-20-0.3-35.5,11.1-51.9,19.7
		c-9,4.8-14.2,5.2-19.6-4.3c-17.8-31.5-42.2-58.2-64.9-86.1c-10.1-12.4-9.5-25-7.4-38.6c0.5-3.5,2-6.9,1.8-10.5
		c-2.2-28.6,5.1-56.9,3-85.5c-0.8-10.6,3.5-16.3,13.4-18.8c11.3-2.8,22.5-6.1,33.8-9c9.3-2.4,15.4,4.2,21.7,9
		c6,4.6,11.3,10.4,16.4,16.1c14.6,16.5,32.3,29.6,48.2,44.8c6.9,6.6,11.9,13.7,13.1,23.3C1879.8,599.7,1883.4,629.9,1886.9,659.3z"
		/>
	<path class="st2" d="M1882.7,998.1c18-6.3,34-12.6,51-15.8c11.2-2.1,20.1-9.2,29.5-15.6c13.9-9.5,13.7-23,12.1-36.9
		c-0.9-8.4-7.2-12.2-15.3-9.3c-24.3,8.4-48.6,10.4-73.2,1.8c-25.4,7.3-25.6-14.6-30-28.1c-3.5-10.8-9.2-18.7-16-26.8
		c-17.1,16.5-6.6,35.6-5,53.1c1.3,14.4,7.4,28.3,11.4,42.4c0.7,2.3,2.6,4.5,0.2,7c-24-13.1-39.1-48.7-30.9-74
		c6.8-20.9,11.2-42.5,11-64.2c-0.2-22.7-4.6-45.3-12.1-67.1c-4.5-12.9-4-13.3,8-17.9c10.9-4.1,21.4-9.4,32.6-13.1
		c15.9-5.2,28.6-2,40.6,9.2c17.6,16.4,30.7,36.7,46.8,54.5c17.9,19.7,36.5,38.6,56.1,56.4c3.6,3.3,7.5,5.6,6.5,10.9
		c-5.2,28.8-6.8,58.4-17.2,86.2c-2,5.2-1.5,10.9-3.2,16.4c-2.7,8.7-8.2,14.2-16,17.3c-18.3,7.4-36.6,14.7-55.2,21.4
		C1903.5,1009.7,1892.6,1009.8,1882.7,998.1z"/>
	<path class="st2" d="M2116.9,1103.3c-12.5,0-24.3-8.5-34.5-18.4c-27.9-26.9-55-54.8-82.5-82.1c-6.5-6.5-8.2-12.6-1.2-19.7
		c1.7-1.8,3.9-4,4.2-6.2c4.8-35.2,22.8-67.5,22.1-103.9c-0.1-7.3,4.8-11.1,10.8-13.4c19.4-7.3,39.2-13.4,57.8-22.8
		c4.5-2.3,9.2-1.4,13.1,1.5c22.9,17,48.9,29.2,71.2,47.1c9.2,7.4,12.8,16.5,13,27.5c0.4,26.5,7.1,52.2,10.5,78.3
		c3.2,24.7,5.2,49.1-1.3,73.5c-2.1,7.7-5.5,14.5-13.5,17.4c-19,7-38.1,13.9-57.3,20.6C2126.3,1103.6,2123,1103,2116.9,1103.3z
		 M2190.7,1011.2c0-5,0.4-9.2-0.1-13.2c-3.7-30.4-13.8-58.9-24.4-87.4c-1.4-3.7-4.1-5.3-6.8-7.7c-14.3-13-32.4-18.8-49.2-27
		c-8.1-4-16.9-3.7-25.5-3.2c-13.6,0.9-21.9,9.9-23.1,23.8c-1.6,18.5,3.1,36.4,3.7,54.8c0.2,6.7,4.1,13.7,7.7,19.7
		c6.7,11.4,21.8,14.6,32.4,6.7c6-4.5,8.5-2.5,11.9,2.7c4.4,6.8,9.5,15.1,19.3,11c9.6-4,12.7,0.9,16.3,7.9c7.2,14,8.6,30.2,16.2,44.1
		c1.3,2.5,0.3,6.5,4.4,6.9c4.8,0.6,8.8-2.9,9.5-6.4C2185,1032.6,2193.5,1022.7,2190.7,1011.2z"/>
	<path class="st2" d="M2290.1,1219.8c-22.7,2.3-42.9-6.8-63.3-14.3c-8.1-3-12.8-9.6-16.6-17.2c-6.7-13.3-9.3-27.9-12.8-42.1
		c-2.9-11.8-5.8-23.6-10.2-35c-1.1-2.9-3.5-6.2-0.2-8.2c8.9-5.4,14.9-14,23.1-19.9c5.2-3.7,9.9,0.6,13.9,3.3
		c5.4,3.7,10,8.5,15.4,12.4c14.1,10.4,28.2,9.7,43.2,3.1c14.8-6.5,29.3-14.2,44.3-19.4c21.2-7.3,29.7-22.7,36.1-41.6
		c2-5.8,0.7-15.6,8.6-15.9c5.4-0.3,8.1,8.1,10.9,13.4c6.2,11.6,15.6,20.4,26.1,27.5c7.4,5.1,9.5,10.7,9.7,19.1
		c0.4,17.1-3.8,33.1-9.6,48.9c-16.8,45.5-48.7,73.7-95.8,85C2305.3,1220.6,2297.7,1219.2,2290.1,1219.8z"/>
	<path class="st2" d="M1628.7,757.5c-0.7-33.6,4.7-65.5,34.3-86.8c13.1-9.5,28.5-15,43.4-21.4c4.6-2,8.1-1,11.9,3.4
		c24,28.4,49.3,56.1,67.3,88.5c10,18,17.7,38.4,21,59.8c4.8,30.4-0.9,59.4-9.2,88.3c-2.4,8.3-7,13-15.8,14.1
		c-20.2,2.4-39.9,7.6-59.4,13.1c-10.4,2.9-20.8-1.4-25-11c-2.9-6.5,0.9-8.2,6.6-8.2c12.8,0,25.6,0,38.4,0c33.9-0.1,53.3-22,49-55.3
		c-1.4-10.4-4.6-12.7-14-6.7c-12.4,8-22.5,9.5-33-2.8c-7.7-9-19.2-6.9-28.9-5.6c-26.1,3.5-42-11.8-50.6-31.6
		c-8.5-19.7-16.4-40.6-18-62.7c-0.3-3.8,1.6-9.3-4.3-9.8c-5.9-0.6-4.9,5.7-6.4,9C1632.2,739.7,1630.6,748.6,1628.7,757.5z"/>
	<path class="st2" d="M2329.1,632.3c0,27.5,0,27.5-22.9,36.7c-9.8,3.9-20.4,6.6-29.1,12.3c-7.2,4.7-12.7,3.7-18-0.7
		c-26.4-21.8-57.6-36.3-85.3-56.3c-9.7-7-15.5-14.8-16.3-25.6c-1.8-23.3-7.7-46-10.9-69c-3.3-23.5-9.5-47.6-18.8-69.8
		c-3.4-8.3-9.4-16.8-15.8-24c-6.2-6.9-10.8-14.9-12.9-23.9c-2.5-10.5,3.8-15.9,14.1-13c37.5,10.5,74.4,22.4,109.3,40.2
		c26.5,13.5,48.8,32.3,64.6,56.6c18.5,28.4,29.6,60.5,36,94.2C2326,604.6,2330.9,619.2,2329.1,632.3z M2166,445.3c-2,0-4.1,0-6.1,0
		c-15.4,0.3-17.7,2.9-11.9,17.1c5.7,14,12.2,27.8,19.5,41c8.1,14.6,15.1,29.7,22.4,44.7c3.3,6.9,0.9,18.7,11.4,19.2
		c8.1,0.4,16.7-3.7,24.2-8c1.3-0.7,2.3-2,3.4-3.1c3.7-4,7.1-3,10.4,0.6c6.7,7.5,13,15.3,20.2,22.3c14.1,13.7,27.5,28.6,46.5,36
		c2.8,1.1,5.9,3.2,8.6,1.1c3.3-2.6,2.3-6.4,1.2-9.9c-4.6-15.5-10.3-30.8-13.5-46.6c-3.3-16.6-9.7-32-15.8-47.4
		c-6.2-15.7-25-21.8-30.8-38.6c-1-2.8-6.3-6.6-11.4-6.8c-3.1-0.2-5.8-1.1-8.6-2.7C2214.2,452,2190.1,448.4,2166,445.3z"/>
	<path class="st2" d="M2522.7,918.2c-1.7,30.6-4.7,66.1-27.8,95.4c-18.2,23.1-42.4,35.9-72.8,34.2c-9.6-0.5-14.1-8.2-19-14.1
		c-11.1-13.2-18.8-28.8-26.1-44.5c-0.9-2-0.8-3.7-0.5-5.8c3.1-19.8,3.1-39.5-1.8-59c-0.8-3.4-3.4-6.6,0.3-9.7
		c3.9-3.3,6.2,0.5,9.4,1.8c21.6,9.2,51.6-3.8,60.4-27.6c3.8-10.4,8.4-20.4,11.9-31c4.5-13.9,4.9-28,4.7-42.2
		c-0.1-3.7,0.3-7.6,4.1-9.2c5-2.2,5.7,3.2,7.6,5.6c15.3,20.1,30.9,40,42.5,62.8C2521.7,887.5,2522.8,900,2522.7,918.2z"/>
	<path class="st2" d="M2089.5,1309.3c-18.2,1.8-36.4-10.6-53.8-24.8c-4.3-3.5-8.4-7.2-12.9-10.6c-7.9-5.9-14.2-8.4-24.2-3.2
		c-10.4,5.4-16.9-0.3-16.9-11.3c0-6.7,2.7-9.1,9.2-8.9c23.6,0.7,44.6-8,65.7-17.2c10.6-4.7,16.8-12.1,20.9-22.6
		c10.5-26.4,22.3-52.2,32.2-78.8c3.2-8.7,7.6-11,15.7-10.5c9.8,0.6,19.1-2.5,28.1-5.9c11.6-4.4,15.7-3.3,19,8.8
		c6.4,24,11.9,48.4,21.4,71.2c9.9,23.7-3.1,39.4-15.7,55.6c-9.9,12.8-19.3,26.1-32,36.4C2131.3,1299.4,2115.5,1309.3,2089.5,1309.3z
		"/>
	<path class="st2" d="M2086.4,764.9c3.4,0.4,5.9,1.8,5.9,5.6c0.1,4.6,0.1,9.2,0.1,13.8c0,34,0.1,34.1-31.2,46.8
		c-11.3,4.6-22.8,8.3-34.2,12.6c-5.4,2-9.4,0.4-14-2.8c-24.3-16.8-40.9-41.1-60.8-62.1c-16.7-17.7-31.1-37.6-47.8-55.3
		c-6.6-7-7.3-12.7-5.7-21.3c5.6-29.8,4.3-59.7,0.9-89.6c-1.4-12.6-2.1-25.3-4.1-37.8c-1.7-10.7,4.5-17.9,12.2-20.5
		c13.5-4.6,26.3-10.7,39.8-15.2c5.2-1.7,9.4-1.5,12.2,2.8c9.5,14.9,21.6,28.2,28.1,44.9c-12.8-2.3-22.1-12.1-34.6-15.5
		c-12.7-3.6-23.5,0.5-32.3,7.9c-8.4,7-2.5,15.9,1.2,23.8c0.6,1.4,0.8,2.9,1.2,4.4c9.6,32.6,18.7,65.3,33.4,96.1
		c5.2,10.8,10.4,11.9,18.8,3c1.7-1.9,3-4.1,4.8-5.9c8.1-8.3,15.8-8.5,18.8,2c6,21.1,20.1,34.6,36.3,47.3c5.1,4,8.5,10.1,10.8,16.4
		c3.4,9,6.1,18.4,10,27.2c1.7,3.8,0.6,10.3,6.5,11.1c5.9,0.8,9-4.5,12-8.3C2081.9,787,2083.6,775.7,2086.4,764.9z"/>
	<path class="st2" d="M1715.5,997.9c-5.3-2.8-4.4-6.3-4.1-9c1.3-14.6,2.8-29.2,5.5-43.7c1.2-6.1,4.1-9.3,9.2-10.6
		c16.7-4.4,33.4-8.7,50.2-12.4c13.5-3,17.7-0.6,22.8,12.7c9.7,24.8,24.5,44.9,45.8,61.6c13.9,11,26.1,24.1,42.5,31.7
		c6.4,3,7.5,6.7,6.8,14.4c-1.9,20.2-5.9,40.1-8.1,60.3c-1.5,14-4.3,28.3-9.2,41.5c-8,21.5-28.1,24.9-47.7,26.1
		c-29.9,1.8-54.1-10-73.5-32.9c-9.2-10.9-17.6-22.6-27.6-32.6c-9.4-9.4-13.8-21.4-20.4-32.1c-4.1-6.6,0.1-14.9,1.6-21.9
		c1.1-5,5.4-3,8.2,1.8c11.8,20.6,24.7,40.6,38,60.3c10.7,16,25.2,22.5,43,23.7c7,0.5,13.7,1.3,18.3,6.4c5.8,6.5,10.8,5.1,17.3,1.7
		c18.5-9.5,24.8-26.4,27.3-45.1c1.2-8.9,1-18.1-2.1-27.3c-4.1-12.2-6.8-15.5-17.9-10.9c-13.5,5.6-23.8,5.3-33.5-7
		c-4.6-5.8-12.6-8.1-20.3-9.9c-15.8-3.7-27-11.9-31-29.3c-2.8-12.2-5.1-25.1-12.3-35.9c-3.5-5.3-7.2-12.5-15.1-10.8
		c-6.7,1.5-8.7,7.6-9.5,14.2C1719.4,987.7,1717.2,992.4,1715.5,997.9z"/>
	<path class="st2" d="M2516.6,620.5c5.8-0.2,6.1,4.5,7.1,8.3c6,22.6,11.2,45,11.8,68.8c0.6,24.6-26.1,51.8-56.5,35.8
		c-32-16.8-60.4-38.1-83.1-67.3c-12.9-16.6-26.5-33.7-46.5-43.3c-4.3-2.1-5.3-6.1-4.9-10.4c0.8-9.3-0.1-18.6-3.5-27.1
		c-4.2-10.6,1-13.8,9.6-15.5c12.3-2.4,22.5-8.8,32-16.7c13.1-10.9,18.6-24.8,17.5-42c-0.5-7.1-4.2-17,4.2-21
		c7.6-3.6,15.5,2.1,22.6,5.9c28,15.1,49.8,37.2,68.4,62.3c10.9,14.7,17.6,31.9,21.1,50c-7.5-0.4-8.2-7.1-10.2-11.9
		c-16.4-37.4-47-61.6-78.9-84.5c-6.6-4.7-11.7-2-12.1,6.1c-0.4,7.6-0.9,15.4,0,23c1.7,13.4-5.6,21-15.6,27.2c-4.8,2.9-10,5.1-15,7.6
		c-3.9,1.9-6.5,4.2-6.5,9.2c0,9.6,11,25.6,20.4,25.9c14.5,0.4,29.3,3.1,43.3-5c11.7-6.8,14.2-5.5,22.5,5.9c3,4.1,6.2,10.3,11.6,8.2
		c11.5-4.6,12.7,3.7,15.8,10.5c6.1,13.5,15,25.2,24,36.8c1.7,2.3,4,5.6,7.4,4.3c3.9-1.5,1.8-4.9,1.3-7.8
		C2521.7,649.3,2519.2,634.9,2516.6,620.5z"/>
	<path class="st2" d="M2349.9,647.7c18.9,13.9,31.6,31.4,45.4,47.6c9.5,11.1,17.5,23.6,25.5,36c12.7,19.7,18.7,40.8,22.6,63.7
		c5.1,29.7-5.6,55.8-15.4,81.9c-9.4,24.8-39.7,25.7-56.2,12.4c-20.9-16.9-42.8-32.7-64.3-48.9c-1.2-0.9-2.6-2-4-2.1
		c-14.4-1.6-14.8-11.1-14.4-22.7c1.2-36.7-2.4-73-8.6-109.2c-1-5.6,0.9-8.4,6.6-9.7c17.3-3.8,32.2-14.5,49.8-18
		c7.6-1.5,10.9-6.7,10.9-14.4C2347.6,659.4,2346.6,654.2,2349.9,647.7z M2426.6,811.3c3.8-3.3,3.8-5.3,3.9-7.3
		c1.3-29.5-10.5-54.9-24-80.2c-9.1-17.2-22.3-28.5-39.6-36.2c-4.2-1.9-7.3-3.7-10.3,1.2c-8.3,13.9-21.3,15.4-35.9,15
		c-21.6-0.7-28.5,9.5-23.8,31.1c4.2,19.2,14.9,35.6,21.2,53.9c1.4,4,2.7,9.9,8.7,9.1c4.9-0.7,4.8-5.9,6.1-9.6
		c4.8-13.5,5.8-27.7,8.5-41.6c0.9-5,1.4-11.1,7.7-11.6c5.7-0.5,4.9,5.9,6.2,9.2c4.6,12.1,12.3,20.8,25.6,20.6
		c12.4-0.3,17.8,6.7,23.8,15.7C2411.5,790.7,2416.9,802.4,2426.6,811.3z"/>
	<path class="st2" d="M2270.7,813.1c0,1.9,0,2.4,0,2.9c0,28.5,0,28.4-27.4,38.5c-11.4,4.2-22.9,9-33.6,14.2
		c-13.6,6.6-23.5,1.3-32-5.4c-16-12.6-33.2-23.2-50.3-33.7c-13.3-8.2-16.4-19.1-16.4-31.8c0.2-40.4-6.7-79.8-14.5-119.1
		c-1.4-7.2,1.4-10.8,6.2-14c12.8-8.4,25.6-16.7,36.3-27.8c5.9-6.1,12.2-4.7,18.1-0.8c17,11.3,34.3,21.9,51.8,32.4
		c14.3,8.6,27.6,19,41.4,28.5c4.7,3.2,8.8,6.2,8.2,13.3c-1.4,18,5.5,35,7.2,52.7C2267.3,780.1,2271.6,797,2270.7,813.1z
		 M2258.4,789.6c-0.9-23.8-6.5-47.2-6.4-71.2c0-7.5-6-12.1-12.1-14.6c-19.9-8.6-35.6-23.7-54.2-34c-25.8-14.3-37.5-19.8-60.2,1.6
		c-2.2,2.1-4.9,4-7.7,4.9c-12.1,3.8-11.5,11.9-8.3,21.6c6.7,20.1,14,40,22.1,59.6c1.1,2.7,0.7,6.5,4.7,7c4.2,0.6,6.7-2.1,8.2-5.5
		c3.1-7,5.9-14.1,9.1-21c2.5-5.3,5.9-9.2,11.2-2.8c7.6,9.1,17.8,9.3,27.9,7.8c20.4-2.8,29.9,2.2,36.2,21.8c5.2,16.4,9.5,33,14,49.6
		c1,3.7,1.6,7.7,5.8,7.8c5.2,0.2,5.6-4.4,6.7-8.5C2257.7,805.8,2259,797.9,2258.4,789.6z"/>
	<path class="st2" d="M2359.7,957.7c-2.8,31.7-4.7,63.6-23.4,91.4c-5.7,8.5-12.2,14.6-22.2,17.4c-14.8,4-27.9,12.3-42.7,16.4
		c-7.5,2.1-13.4,1.8-20-2.9c-7.4-5.3-14.2-11.5-22.8-15.3c-6.2-2.7-8.4-8.9-7-15.5c5-23.8,4.3-47.5-0.3-71.2
		c-3.5-17.9-4.3-36.1-8.8-53.9c-1.4-5.5-3.5-10.5-5.3-15.8c-3.5-10.3-1-14,9.4-17.6c10-3.5,20.1-7.3,29-13.2
		c13.1-8.8,29.9-10.5,41.6-22.2c2.3-2.3,5.8-1.1,8.4,1c16.6,13.4,33.4,26.5,49.6,40.4c7.6,6.5,9.3,17.4,10.5,26.2
		C2357.3,934.4,2362,945.8,2359.7,957.7z M2347.6,973.6c0.7-6.1-1.4-15.5-3.4-25c-2.1-10.4-12-15.4-14.7-24.5
		c-4.4-15.2-15.4-22.5-28.6-28.9c-15.2-7.4-30.1-2.6-44.7,0.4c-18.2,3.7-26.7,19.4-22.4,37.3c1.8,7.5,6.2,13.8,8.8,20.9
		c5.8,16,8.4,17.1,22,7.9c1.7-1.1,3.3-2.4,4.9-3.6c9.9-7.5,12.1-7.7,18.9,3.2c4.4,7.1,11.7,14.2,17.2,13.9
		c19.6-1.1,20.3,14,25.8,25.5c0.4,0.9,0.5,2,0.7,3c0.7,3.2,2.2,6.1,5.7,6.2c4.5,0.2,5.2-3.7,6.7-7.1
		C2348.4,994.5,2347.3,985.8,2347.6,973.6z"/>
	<path class="st2" d="M2385.2,506.5c1.1,17.3-9.8,27.4-21.5,36.8c-2.3,1.9-5.5,2.6-8.2,4.2c-17.2,10-24.5,7.4-29-11.9
		c-1.4-5.8-4.4-10.4-6.9-15c-11.3-20.4-20.2-42.2-35.6-60.1c-14.5-16.8-33.1-28.7-52.4-39.1c-9.6-5.2-14.1-11-17.4-22.4
		c-9-31.2-14.4-63.3-24.5-94.1c-2.3-6.9-5-15.3,1.5-19.9c7.8-5.5,17.9-8.5,27.6-3.6c22.6,11.3,47.3,17.7,69.9,29.1
		c19.1,9.7,32.4,26.3,46.2,41.9c24.7,27.7,31.9,62.9,40.1,97.5C2379.2,468.4,2381.8,487.6,2385.2,506.5z M2357.3,456.4
		c2.9-1.7,2.3-4.4,2.5-6.9c2.9-25.8-10.6-47.5-19.6-69.7c-16.7-41-52.7-60-93.1-72c-3.3-1-7.1-0.6-10.6-0.9
		c-6.7-0.6-8.6,2.7-9.1,9.1c-0.6,8.4,1.9,16.2,3.5,24.1c3.1,14.9,7.6,29.7,15,43.1c8.3,14.9,15.6,16.4,30,6.4c4-2.8,6.6-2.2,8.9,1.4
		c6.5,10.3,13.5,19.4,27.7,17.7c2.6-0.3,4.7,1.8,6.2,4c8.8,13.1,21.7,23,29.5,36.9C2350.1,453.1,2352.5,456.8,2357.3,456.4z"/>
	<path class="st2" d="M2086.4,764.9c-2.8,10.8-4.5,22.1-11.6,31.2c-3,3.8-6.1,9.2-12,8.3c-5.9-0.8-4.8-7.2-6.5-11.1
		c-3.9-8.8-6.6-18.1-10-27.2c-2.4-6.2-5.8-12.4-10.8-16.4c-16.2-12.7-30.3-26.2-36.3-47.3c-3-10.5-10.7-10.3-18.8-2
		c-1.8,1.8-3.1,4.1-4.8,5.9c-8.4,8.9-13.6,7.8-18.8-3c-14.8-30.8-23.9-63.5-33.4-96.1c-0.4-1.5-0.6-3-1.2-4.4
		c-3.6-7.9-9.6-16.8-1.2-23.8c8.9-7.4,19.6-11.4,32.3-7.9c12.4,3.5,21.8,13.3,34.6,15.5c3.7,7.3,10.5,11.8,16,17.4
		c17.6,17.7,35,35.5,53,52.9c19.8,19.1,26,43.9,29.2,69.7C2087.5,739.3,2086.3,752.2,2086.4,764.9z"/>
	<path class="st2" d="M1951.3,1199.4c7.2-0.6,10.3,4.3,14.4,6.7c11.2,6.5,21.8,7.5,32.3-0.9c2.4-1.9,5-4.7,8-2.1
		c9.7,8.6,16.6-0.2,22.7-4.6c20.1-14.5,29.3-35.7,32.7-59.6c0.8-5.7-1.1-9.1-7.7-7.2c-3.4,1-7.2,1.1-10.3,2.6
		c-9.4,4.5-13.7,2.1-18.2-7.8c-8.3-18.7-18.9-18.3-37.6-2.7c-3.8,3.2-6.1,8.1-9.3,12c-6.5,7.8-12.1,7.6-14.3-2
		c-4.3-18.9-14-35.7-19.1-54.3c-0.7-2.4-0.6-5.9-2.1-7.1c-4.2-3-2.1-12.1-8.4-11c-6.2,1-4.6,8.1-4.9,13.1c-0.2,3-0.2,7-4.8,5.7
		c-10.5-3-10.1,5.7-10.2,10.7c-1,26.4,0.1,52.7,14.8,76.1c1.1,1.7,2,3.6,2.6,5.5c0.6,1.9,1,4.2-1,5.6c-2,1.4-4.1,0.6-5.3-1.1
		c-7.4-10.5-16.9-19.1-25.2-28.7c-2.9-3.3-2-8-1.4-11.9c4-26.5,7.7-53.1,12.9-79.5c1.6-8.2,2-16.1,2.3-24.2c0.2-4-0.8-8.6,5.1-9.5
		c16.2-2.5,31.4-8.1,46.6-13.9c6.7-2.6,11.8-1.7,16.5,3.5c13.7,15.1,28.3,29.5,41.2,45.2c17.3,21.1,36.6,39.5,60.5,53
		c11.2,6.3,11.1,6.2,5.7,19.4c-9.5,23.5-19.1,47-28.2,70.7c-3.3,8.4-9.4,12.8-17.4,15.7c-10.5,3.8-21.8,6.1-31.4,11.9
		c-14.9,9-25.4-3.2-36.4-8.1C1967.2,1216.6,1955.9,1212.1,1951.3,1199.4z"/>
	<path class="st2" d="M1612.8,1087.6c1-8.4,2.7-16.7,6.2-24.6c3.6,0,7.1,0.3,10.6,0c23.4-1.9,37.3-17,35.3-38.6
		c-0.7-7-1.9-14-3.8-20.7c-3.2-11.6-26.5-23.5-39.2-20.5c-5.4-12.4-6-26-11-38.8c-9.9-25.2-21-49.5-36.4-71.8
		c-4.2-6.1-6.2-11.7,1.4-16.8c18.2-12.1,24.6-29.9,24.4-50.9c0-3.1,0-6.1,0-9.2c5.5,0,8,3,9.4,8.2c9.5,35.1,31.2,63.1,54.2,90
		c10.6,12.4,17.9,27.4,30.8,37.9c4.6,3.7,3.7,8.6,2.8,14c-4.9,29.5-12,58.7-11.3,88.9c0.2,9.2-3.9,17.8-3.5,27.2
		c0.2,5.1-3.6,9-8.4,11.9c-12.8,7.8-27.3,11.2-41,16.5C1626.8,1093,1619.8,1089.1,1612.8,1087.6z"/>
	<path class="st2" d="M2129.2,552.9c5.1,17.4,9.3,34.9,9.4,53.2c0,6.6-3.3,10.7-7.7,14.2c-12,9.4-24.4,18.3-36.5,27.6
		c-3.2,2.5-5.9,3.8-9.3,0.6c-17.7-17-40.8-27-57.6-45.1c-14.3-15.4-26.5-32.2-37.7-49.9c-2.2-3.4-3.6-7.3-6.8-10.1
		c-8.4-7.3-10.1-17.1-10.5-27.6c-1.3-28.1,1.6-56.1,3.4-84c0.7-11.3-5.3-21.8-2.9-32.5c34.8,14.4,67.2,33.7,102.6,46.2
		c20.7,7.3,34,21.2,38.3,43.1c-10-6.5-20.8-12.2-29.9-19.8c-24.7-20.4-53.4-28.6-84.6-29.3c-10.9-0.3-12.5,3.7-7.7,13.3
		c10.7,21.6,19.4,43.2,9.8,68c-3.6,9.3,1.9,15.8,11.9,16.7c6.1,0.6,12-1.1,18-2.4c17.6-3.9,21-0.5,27.9,16.3
		c4.1,10.1,6.3,24.9,20.6,25.5c11.4,0.5,17.8,4.4,22.5,14c3.3,6.7,9.2,9.4,16.6,7.9c8.5-1.8,6.8-8.7,7.4-14.6
		C2127.4,573.7,2123.1,562.8,2129.2,552.9z"/>
	<path class="st2" d="M1594.5,771.2c-5.1-10.2-10.3-20.5-15.4-30.7c3.4-0.2,5-1.9,6.5-5.2c5.4-12.7,0.9-25.8,1.7-38.7
		c0.4-6.2-4.9-12.5-13.5-11.4c-0.5,0.1-1,0-1.5,0c-3.6,0.1-8.5,0.2-9.5-3.4c-5-18.6-36.2-15-33.3-41.6c1.8-17.1,2.1-34.5,4.9-51.5
		c1-6,0.7-12.2,2.6-18c1.2-3.5,2.7-6.9-1-9.6c-4.1-3-7.6-1.3-11,1.6c-1.5,1.3-3.2,2.7-6.4,0.4c3.2-8.8,11.3-14.5,16.4-22.2
		c4.1-6.3,11.1-10.4,14.8-17.4c2.3-4.2,7.1-6.7,11.6-6.2c4.7,0.6,6.8,5,8.6,9.7c8.7,22.6,19,44.6,28.3,66.8
		c6,14.4,14.2,28,18.5,43.1c2.7,9.2,6.2,18.3,12.2,26.2c3.8,4.9,4,10.9,0.5,15.8c-15,20.6-18.7,44.8-22.4,68.9
		c-0.9,6-3.8,11.6-3.5,17.9C1603.7,771.6,1598.5,771,1594.5,771.2z"/>
	<path class="st2" d="M2129.2,552.9c-6.2,9.9-1.8,20.8-2.9,31.2c-0.6,6,1.1,12.9-7.4,14.6c-7.5,1.5-13.4-1.2-16.6-7.9
		c-4.7-9.6-11.1-13.5-22.5-14c-14.2-0.6-16.4-15.4-20.6-25.5c-6.8-16.8-10.2-20.2-27.9-16.3c-6,1.3-11.9,3-18,2.4
		c-10-1-15.5-7.5-11.9-16.7c9.6-24.8,0.9-46.5-9.8-68c-4.8-9.6-3.2-13.5,7.7-13.3c31.2,0.7,59.9,8.9,84.6,29.3
		c9.2,7.6,19.9,13.2,29.9,19.8C2121.9,509.3,2122.4,531.9,2129.2,552.9z"/>
	<path class="st2" d="M1915.8,1289.2c2.4-8.7,8.8-14.7,12-22.7c3.4-8.8,1.3-16-4-22.8c-5.3-6.8-12.3-6.8-19.4-3.5
		c-22,10.1-40.2,0.1-58.6-10.2c-11.5-6.4-22.7-13.2-35.4-17.4c-3.5-1.1-6.8-1.8-10.4-1.9c-21.9-0.5-33.9,14.2-29.5,35.7
		c3.1,15.1,2.4,30.9,7.4,46c-13.1-7.3-26.7-13.1-23.8-31.9c3.1-20.4,0.7-41.7,9.5-61.2c1.7-3.7,3.4-7.4,5.1-11.1
		c3.3-7.3,7.3-10.5,15.3-4.9c7.2,5.1,15.9,6.4,24.8,6c8.2-0.3,16.4-0.7,24.6,0c18.9,1.6,35.4-4,49.2-16.5c5.4-4.9,8.7-5.2,13.9,0.1
		c20.7,21.1,41.7,41.8,62.5,62.8c6.5,6.5,6.5,13.8,0.3,20.4C1946.8,1269.4,1932.5,1280.6,1915.8,1289.2z"/>
	<path class="st2" d="M2516.6,620.5c2.6,14.4,5.1,28.8,7.8,43.2c0.5,2.9,2.6,6.3-1.3,7.8c-3.4,1.3-5.6-2-7.4-4.3
		c-8.9-11.7-17.9-23.4-24-36.8c-3.1-6.8-4.3-15.1-15.8-10.5c-5.4,2.1-8.5-4-11.6-8.2c-8.3-11.3-10.8-12.7-22.5-5.9
		c-14,8.2-28.8,5.5-43.3,5c-9.4-0.3-20.4-16.3-20.4-25.9c0-5,2.6-7.3,6.5-9.2c5-2.4,10.2-4.7,15-7.6c10-6.1,17.3-13.8,15.6-27.2
		c-0.9-7.5-0.5-15.3,0-23c0.5-8.1,5.6-10.8,12.1-6.1c31.9,22.9,62.5,47,78.9,84.5c2.1,4.7,2.8,11.4,10.2,11.9
		C2516.5,612.4,2516.6,616.4,2516.6,620.5z"/>
	<path class="st2" d="M1669.5,1144.3c-0.4,0.3-2,1.5-3.6,2.6c-8.4,5.5-12.4,4.8-15.6-4c-2.9-8.1-6.3-16.1-9-24.3
		c-2-5.9-1.9-11.8,7.6-12.9c12.1-1.5,21.7-10.2,34-12.6c7.4-1.4,11.6-0.1,15.7,4.9c3.8,4.7,8.3,9.1,11.2,14.4
		c10,18.5,25.4,32.5,39.1,47.8c4.7,5.3,5.8,9.3,2.9,16.2c-12,28.3-18.1,57.9-18.9,88.7c-0.1,3.2,1.7,8.1-3.4,8.8
		c-3.3,0.5-5-2.9-5.7-6.1c-4.5-20.7-17.9-37.3-26-56.3c-6.1-14.2-11.4-28.7-14-44.1c-1.3-7.8-5.9-14-9.2-20.9
		C1673.8,1145.2,1672.9,1143.7,1669.5,1144.3z"/>
	<path class="st3" d="M706.1,626.7c7.9-1.8,15.7-5,24-1.8c6.7,2.6,9,6.6,3.5,12.7c-0.3,0.4-0.7,0.7-1.1,1.1
		c-15.9,19.2-15.5,21.2,7.4,29.3c6.6,2.3,10.6,3.8,7.4,12.6c-3.2,8.8-3.4,17.9,9.7,21.3c6.1,1.6,9.8,8.1,11.6,15.2
		c1.2,4.6,1.2,11,6.8,13.1c9.7,3.7,5.9,10.2,4,16.3c-1.3,4.4-4.8,7.6-6.3,12.1c-5.2,15.9-0.6,26.9,14.8,33.2c1.9,0.8,4,0.9,5.9,1.7
		c5.3,2.2,9.2,4.3,3.8,10.9c-6.3,7.8-7.3,17.8-8.5,27.3c-0.8,6.7,0.6,12.5,9.1,13c7.3,0.4,9,5,9.4,11.4c0.7,10.1,1.5,20.2,9.6,28.1
		c3.7,3.6,2,8.3,1.1,13c-3.1,15.3-3.1,30.4,4,44.8c1.6,3.3,3.2,7,7.6,6.1c3.2-0.6,4.2-3.8,5.1-6.9c6.1-22.5,13.1-44.9,6.4-68.7
		c-0.3-1.2,0.6-2.9,1-4.3c12.4,4.3,13.3,3.6,14.1-9c0.8-13.4-4.7-26.1-3.1-39.6c0.7-5.8-1.9-12.6,9.3-9.6
		c7.8,2.1,11.2-4.7,12.2-12.2c1.9-14.7,3.7-16,16.8-13.6c10.7,1.9,13.5-1.3,9.7-11.9c-2.6-7.2-7-13.6-9-21.1
		c-1.2-4.5-4.2-9.4,0.2-12.7c4.4-3.3,8.5,1.4,12.5,3.2c1.8,0.9,3.2,2.7,5,3.5c6.8,2.8,13,0.8,18.9-2.9c6-3.8,4.8-9.9,4.1-15.3
		c-0.5-3.9-2.8-7.6-4.3-11.4c-2.7-6.8-2.8-11.4,6.8-12.4c14.9-1.6,17-7.3,7.6-19.7c-5-6.6-7.7-10.3,1.8-16
		c7.6-4.6,4.9-15.4-3.8-21.6c-5.1-3.6-14.7-3.9-13.3-12.6c1.6-10.5,12.6-6.2,19.1-9.2c4.3-2,9.9-0.3,15,1
		c11.6,2.8,14.5,0.1,14.6-12.3c0.1-10.1-2.7-19.1-10.5-26.1c-5.7-5-5.6-9.5-0.5-15.6c17-20.3,33.4-41.2,44.5-65.4
		c3.1-6.7,8.8-6.6,13.7-7.9c22.7-5.8,45.9-3.8,68.1,0.4c20,3.9,37.9,14.7,48.2,34.2c1.7,3.2,3.2,6.4,5,9.5
		c7.2,12.6,14.1,13.8,25.9,5.5c24.6-17.4,50.3-32.8,80.5-38.7c27.7-5.4,54.7-3.1,81.1,6.7c14.8,5.6,28.9,12.8,41.6,22.3
		c11.4,8.5,18.4,20.3,23.5,33.1c7.1,17.8,1.1,34-7.9,49.4c-3.4,5.7-7.4,11-11,16.6c-9.3,14.4-7.7,21.5,8.2,28.5
		c14,6.2,28.3,11.9,41.6,19.5c51.7,29.6,89.7,69.9,100.6,131c3.8,21.5-6.9,47.6-37.8,47.2c-7.3-0.1-13.7,0.6-17.3,9.2
		c-3.6,8.6-0.9,14.8,4.5,20.8c26.4,29.4,48.7,61.5,63.7,98.1c8.4,20.6,17.4,42.1,15,64.7c-3.2,30.6-12.2,60-30.7,85.2
		c-13.8,18.7-25.6,17.7-39.8-1.5c-8.8-11.9-20.2-12.8-29.4-2.8c-3.4,3.8-4.8,7.2-2.6,12.4c11.2,25.7,19,52.7,27.5,79.3
		c9.4,29.3,9.2,58.9,5.6,89.1c-1.6,13.5-6.2,25.5-10.2,38c-4.4,13.5-14,22.9-24.4,30.6c-15.8,11.7-33.4,11.2-50.5,1.6
		c-4.4-2.5-8.9-4.8-13.5-7c-16.3-7.9-27.8-1.3-28.2,17.1c-0.5,23.6,1.2,47.2-0.5,70.7c-3,40.7-8.8,81.1-33.2,115.9
		c-3.8,5.4-7.7,10.8-12.1,15.6c-14.3,15.7-32.9,14.7-51.2,11.6c-18.6-3.2-36.3-10-53.6-17.3c-9.5-4-19.3-6.7-29.2-8.7
		c-13.1-2.7-18.1,2.2-20.3,15.7c-3.9,24.5-5.5,49.3-17.6,72c-22.1,41.3-55.3,65.8-101.3,75.2c-38.8,7.9-70.9-5.6-101.4-26.2
		c-13.5-9.2-27-18.1-42.3-24.1c-15.4-6.1-22.1-3.6-29.5,10.8c-10.7,20.9-21.4,41.4-38.4,58.6c-18,18.3-39.6,26.9-63.8,29.3
		c-36.6,3.6-71.2-2.4-100.4-27.3c-29.2-25-46.9-55.8-49.2-94.7c-0.1-1,0-2,0-3.1c0.2-9.6-1-18.3-11.1-23.1
		c-10.6-5.1-17.5,0.9-24.3,7.5c-6.6,6.4-13.9,11.6-22.4,15.5c-33.9,15.4-66.2,11-98-6.1c-38.1-20.5-64.7-50.3-76.3-92.6
		c-1.3-4.6-1.3-9.1-1.5-13.6c-0.8-18.9-9.5-25-27.8-21.9c-19.9,3.4-39.6,6.6-60.5,2.3c-41-8.6-65.3-34.4-68.5-76.6
		c-1.3-17.7-4.2-35.1-0.3-53c4.4-20.4,11-38.1,32.4-46.4c10.3-4,13.1-10.5,10.9-22.1c-1.8-9.4-8.3-11.8-17-11.5
		c-14.8,0.5-29.3-0.1-43.3-6.8c-23.6-11.2-37.2-30.5-43.8-54.2c-15.7-55.8-4.9-108.7,21.6-159.1c2.2-4.1,3.8-8.5,4.9-12.7
		c2.8-10.8-3.7-19.2-15.2-19.1c-15,0.1-29.3-0.9-43.2-7.8c-15.3-7.6-27-17.9-32.4-34.3c-12.9-39.3-6.6-76.5,13.5-111.6
		c16-27.9,37.4-49.6,70.9-55.8c8.1-1.5,12.1-8.7,12.5-15.7c0.4-7.9-4.7-13.7-12.3-17.7c-15.3-8.1-29.4-18.2-41.1-31.1
		c-20.6-22.6-20.4-50-14.3-76.6c10.4-45.3,42.1-72.8,84.4-88.7c28.8-10.9,58.6-15.6,89.6-16.4c19.3-0.5,38.6-2,58-2.3
		c15-0.2,21.4-10.9,14.5-24.8c-5.2-10.5-11-20.3-13.3-32.2c-3.3-17.1,4.1-34.3,19.7-41.7c20.5-9.8,42.1-15,64.9-15.1
		c22.5,0,45.1-1,67.6,0.3c42.1,2.4,84.7,4.4,125.1,16.4c18.7,5.6,38.7,16.5,44.5,39.9c1.5,5.8,5.5,9.5,11.9,10.3
		c10.6,1.3,11.3,2.6,5.3,11.9c-6.3,9.9-14.2,19-12.1,32c-2-0.1-4.4,0.4-6.1-0.5c-9.1-4.6-17.5-11.7-27.1-14
		c-24.1-5.8-46.3-16.6-71.4-20.8c-44.7-7.4-89.2-7.6-134-8c-8.2-0.1-10.5,3.1-10.5,10.8c-0.1,27.1-0.5,53.8,11,79.6
		c6.6,14.7,1.7,20.4-14.3,20.4c-9.2,0-18.8,1.2-27.6-0.8c-17.5-4-35.1-5.8-53-5.4c-14.3,0.3-28.7,0.1-43,0.1
		c-23.8-0.1-43.5,10.5-60.5,25.5c-15.1,13.5-22,31.5-25.7,52c-5.9,32.3,3.7,59,22.6,83.9c18.2,24.1,42,43,61.4,66.1
		c3.2,3.8,3.8,7,2,10.9c-1.7,3.8-5.6,5.5-9,4.1c-15.7-6.1-31.1,1.3-46.8,0.9c-16-0.5-30.4,8.5-38.1,21.9
		c-23.3,40.2-14.4,89,31.4,110.8c19,9.1,38.4,18.2,55.3,31.4c12.1,9.5,12.1,15.2-0.7,24.1c-20.8,14.4-36.2,33.1-44.5,57.2
		c-7.6,22-11.7,44.8-5.8,67.5c9.5,37,37.2,60.4,74.9,64.4c28.3,3,56.5,7.7,85.1,6.4c3.3-0.1,7.4-1.5,9.2,3.2
		c-0.5,3.3-2.7,5.7-5.3,7.2c-17.5,9.4-33.5,20.6-48.9,33.2c-24.8,20.3-42.7,44-52,75c-8.7,29.1,8.9,57.4,32.7,67.3
		c16.3,6.8,34.6,10.7,53.2,10.9c23.1,0.3,45.6-2.1,68-8c19.6-5.2,23.3-1.4,18.9,18.2c-1.5,6.6-2.3,13.3,1.6,19.3
		c7.4,11.2,12.2,23.7,23.6,32.6c18.2,14.3,36.8,24.8,60.8,24c10.3-0.3,19.5-3.4,29.3-5.8c22.6-5.6,42.2-16.7,61.2-29.1
		c18-11.8,31.5-28.6,46.7-43.4c2.6-2.5,5-5.6,9.2-4.1c4.6,1.7,3.7,6.2,2.9,9.3c-5.7,22.7-6.8,46.1-10.8,69
		c-6.1,35.4,2.5,66.9,47.9,78.5c18.8,4.8,37.1,1.7,55.6,2.2c4,0.1,6.3-2.9,9.5-4.5c30.1-15.5,43.3-44.6,57.6-72.4
		c7.6-14.8,13.4-30.5,24.9-42.9c3.3,0.2,7.1-0.8,9.2,3.1c0,2.6,0.9,4.9,2.4,7.1c19.4,27.2,43.8,46.9,76.1,58.3
		c24.3,8.6,46.7,6.9,68.9-2.7c27.3-11.8,35.7-38.4,42.6-63.8c5.1-19,3.4-39.4,4-59.3c0.6-19-4.6-37.5-3.4-56.4
		c1.2-3,3.4-5.7,3.1-9.2c11.3-0.9,16.9,8.5,24.4,14c25.8,18.8,52.3,34.1,86,32.4c23.1-1.2,39.6-12.1,46-34.4
		c6.8-23.9,10.3-48.5,12.7-73.3c1.9-19.7-4.2-38.3-8.8-56.9c-2.9-11.9-4.9-25.1-15.6-33.9c-2.5-2-4.3-5.3-2.4-8.1
		c3.1-4.4,6.8-0.5,9.3,1c15.5,9.4,33,13.3,49.9,18.7c13.2,4.2,28.1,5.8,40.5,4c27.4-4,47.2-23.5,55.3-49.1
		c11-34.9,16.5-71.5,13-108.4c-2.3-24.9-9.4-47.9-33.6-61.6c-4.1-2.3-11.1-3.7-11.3-11.3c4.4-2.9,9.1-1.3,13.5-1.9
		c8.7-1.1,19.1-10.3,19.1-18.9c0.2-25,2.7-49.6,5.4-74.4c2.7-25.3,3.5-51.5-4.4-77.4c-6.9-22.6-21.9-37-40.8-46.4
		c-19.7-9.8-20.8-7.7-12-28c1-2.3,2.8-4.2,3.8-6.6c5.5-13.1,10.9-26.1,11.5-40.7c1.1-25.3-9.4-46-22.7-66.5
		c-19.8-30.5-49-46.6-82.4-55.1c-25.1-6.4-51.1-8.2-77.3-7.1c-20.6,0.8-40.2,5.5-59.4,12.2c-13.2,4.6-16.9,4.7-24.4-6.8
		c-6.6-10.1-15.2-18.1-24-25.7c-8.8-7.6-18.6-12.9-32.1-7.8c-23.7,8.9-23.3,31.3-15.4,49.9c8.1,18.9,18.5,37.2,31.2,53.6
		c4.7,6.1,5.5,13.1,7.5,19.7c2.5,8.4-0.6,11-10.1,10.4c-15.9-0.9-31.1,8.4-32,20.8c-0.9,12.7-2.5,26.2,0.6,38.2
		c3.4,12.8-1.7,15.6-11.4,19.5c-12.1,4.9-26.4,8.1-32,21.7c-3.7,9-9.1,16.9-14,25c-3.3,5.6-4.8,10.5-5.2,16.7
		c-1.2,19.1-6.1,37.3-18.5,52.1c-13.3,15.9-23.1,33.5-27.3,53.5c-6.6,31.5-7.6,64.1-26.9,92.4c-9.2,13.5-19.9,26.8-25.6,42.7
		c-0.7,2-2.5,3.3-4.8,3.1c-3.2-0.3-4.2-2.5-4.3-5.3c-0.1-4.1-0.4-8.2-0.1-12.3c1.2-12.4-1-24.5-3.7-36.3c-1.3-5.8-1-13.7-9.4-16.2
		c-10.1-3-15.4-11.2-20-19.9c-4.1-7.6-7.2-15.6-13.3-22.2c-27.1-29.3-40.9-65.4-48.3-103.6c-5.6-28.9-20.8-50.2-41.6-68.9
		c-2.7-2.5-5.5-5.4-8.5-0.3c-7.6-4.6-12.4-11.9-18.1-18.4c-0.4-9.8-7.2-19.8,0.7-29.4c6.6-8.1,9.3-18,13.8-27.1
		c6.8-13.6,4.3-25.8-3.3-37.6c-4.4-6.8-9.7-13.1-15.2-19.1c-13.8-15-13.4-21.1-3.3-38.8C703,656.1,712.9,643.1,706.1,626.7z"/>
	<path class="st3" d="M706.1,626.7c6.7,16.4-3.2,29.4-10.3,41.9c-10.1,17.7-10.5,23.8,3.3,38.8c5.5,6,10.8,12.3,15.2,19.1
		c7.6,11.7,10.1,24,3.3,37.6c-4.5,9.1-7.2,19-13.8,27.1c-7.8,9.6-1.1,19.6-0.7,29.4c-5.7-0.9-5.8-9.3-12.3-9.2
		c-0.2-7.8-6.1-12.1-11.3-15.6c-16.4-10.9-33.9-20.2-52.5-27c-32.4-11.9-66.4-18.1-99.6-27c-30.9-8.3-62.2-15.6-93.8-19
		c-29.9-3.2-60.5-2.8-90.5-0.2C315.7,725,301,734.6,294,766c-3.7,16.8-0.8,32.5,6.3,47.1c11.2,22.9,20.7,46.2,25.9,71.1
		c2.1,10,5.4,20.2,10.6,28c13.2,20,29.7,37.6,51.6,49c48.4,25.2,100.6,35.2,154.3,37.1c41.9,1.5,84,0.5,126,0.2
		c15.3-0.1,30.2,4.7,45.7,3.3c18.3-1.7,33-6.9,39.3-26.9c5.7-18.1,4.9-36.2,4.5-54.5c-0.1-3.9-3.6-4.5-6.6-5.2
		c0.1-1.7,0.2-3.5,0.3-5.2c4-2.3,3.9-4.6,0-6.9c-5-4.8-6.2-11.4-8.5-17.5c-6-16.1-11.5-32.4-22.1-46.3c3-5,5.8-2.1,8.5,0.3
		c20.8,18.8,36.1,40.1,41.6,68.9c7.3,38.1,21.2,74.3,48.3,103.6c6.1,6.6,9.2,14.6,13.3,22.2c4.6,8.7,9.9,16.9,20,19.9
		c8.4,2.5,8,10.4,9.4,16.2c2.7,11.8,4.9,24,3.7,36.3c-0.4,4.1-0.1,8.2,0.1,12.3c0.1,2.8,1.2,5,4.3,5.3c2.3,0.2,4-1,4.8-3.1
		c5.7-15.9,16.3-29.2,25.6-42.7c19.3-28.3,20.4-60.9,26.9-92.4c4.2-20.1,13.9-37.6,27.3-53.5c12.4-14.8,17.3-33.1,18.5-52.1
		c0.4-6.2,1.8-11.2,5.2-16.7c4.8-8.1,10.2-16,14-25c5.6-13.5,19.9-16.8,32-21.7c9.7-3.9,14.8-6.7,11.4-19.5
		c-3.2-12-1.5-25.5-0.6-38.2c0.8-12.4,16.1-21.7,32-20.8c9.5,0.5,12.6-2,10.1-10.4c-2-6.6-2.7-13.6-7.5-19.7
		c-12.7-16.4-23.1-34.6-31.2-53.6c-7.9-18.6-8.3-41,15.4-49.9c13.5-5.1,23.3,0.1,32.1,7.8c8.8,7.6,17.4,15.6,24,25.7
		c7.5,11.6,11.2,11.4,24.4,6.8c19.2-6.7,38.8-11.4,59.4-12.2c26.2-1,52.2,0.7,77.3,7.1c33.4,8.6,62.6,24.6,82.4,55.1
		c13.3,20.6,23.8,41.2,22.7,66.5c-0.6,14.7-6,27.6-11.5,40.7c-1,2.3-2.8,4.3-3.8,6.6c-8.7,20.2-7.7,18.2,12,28
		c18.9,9.4,33.8,23.8,40.8,46.4c8,25.9,7.1,52.1,4.4,77.4c-2.7,24.8-5.2,49.5-5.4,74.4c-0.1,8.6-10.4,17.9-19.1,18.9
		c-4.4,0.5-9.1-1-13.5,1.9c0.2,7.6,7.2,9,11.3,11.3c24.2,13.7,31.3,36.6,33.6,61.6c3.5,36.9-2,73.6-13,108.4
		c-8.1,25.6-27.8,45.1-55.3,49.1c-12.3,1.8-27.2,0.2-40.5-4c-17-5.4-34.4-9.3-49.9-18.7c-2.5-1.5-6.2-5.4-9.3-1
		c-1.9,2.8-0.1,6.1,2.4,8.1c10.7,8.8,12.6,22,15.6,33.9c4.6,18.6,10.7,37.2,8.8,56.9c-2.4,24.7-5.8,49.3-12.7,73.3
		c-6.4,22.3-22.9,33.2-46,34.4c-33.7,1.7-60.2-13.6-86-32.4c-7.5-5.5-13.2-14.9-24.4-14c7.5-18.1,2.6-36.2-5.3-51.6
		c-16.6-32.5-34.6-64.6-61.4-90.4c-7.4-7.2-13-15.8-16.8-25.3c-3.4-8.6-8.2-16.2-13.4-23.8c-8-11.9-18.1-22-26.9-33.1
		c-21-26.6-46.7-45.2-78.7-57.3c-25.5-9.7-45.5-1.8-62.9,14.3c-19.1,17.8-27.5,42.8-32.1,67.5c-3,16.1-6.1,32.5-8.4,48.8
		c-3.5,25.2-6.5,50.6-7,75.6c-0.6,32.8-7.6,64.6-11.5,96.8c-2.8,23.4-6.2,46.6-4.2,69.8c1.9,21.6,7.4,42.9,24.9,59
		c22.8,21,47.4,16.8,60.2-11.3c2.7-6,4.5-12.4,6.9-18.6c2.5-6.2,4.9-12.4,9.3-17.5c2.4-2.7,6.5-6.2,8.8-2c4.4,8,14.1,12.2,15.5,22.2
		c-11.5,12.5-17.3,28.2-24.9,42.9c-14.4,27.8-27.6,56.9-57.6,72.4c-3.1,1.6-5.5,4.6-9.5,4.5c-18.5-0.5-36.8,2.6-55.6-2.2
		c-45.4-11.6-54-43.1-47.9-78.5c4-23,5.1-46.4,10.8-69c0.8-3.1,1.6-7.5-2.9-9.3c-4.2-1.6-6.6,1.6-9.2,4.1
		c-15.3,14.8-28.7,31.6-46.7,43.4c-19.1,12.4-38.6,23.5-61.2,29.1c-9.8,2.4-18.9,5.5-29.3,5.8c-24,0.7-42.6-9.8-60.8-24
		c-11.4-9-16.2-21.5-23.6-32.6c-3.9-5.9-3.1-12.6-1.6-19.3c4.4-19.6,0.7-23.4-18.9-18.2c-22.3,5.9-44.9,8.3-68,8
		c-18.6-0.2-36.9-4.1-53.2-10.9c-23.9-9.9-41.4-38.3-32.7-67.3c9.3-31,27.2-54.7,52-75c15.5-12.6,31.5-23.8,48.9-33.2
		c2.6-1.4,4.8-3.8,5.3-7.2c-1.8-4.7-6-3.3-9.2-3.2c-28.6,1.2-56.8-3.4-85.1-6.4c-37.7-4-65.4-27.4-74.9-64.4
		c-5.8-22.7-1.8-45.5,5.8-67.5c8.3-24.1,23.7-42.8,44.5-57.2c12.8-8.9,12.8-14.6,0.7-24.1c-16.9-13.2-36.3-22.4-55.3-31.4
		c-45.8-21.8-54.7-70.5-31.4-110.8c7.8-13.4,22.1-22.4,38.1-21.9c15.7,0.5,31.1-6.9,46.8-0.9c3.4,1.3,7.3-0.4,9-4.1
		c1.8-3.9,1.3-7.1-2-10.9c-19.4-23-43.1-42-61.4-66.1c-18.9-24.9-28.4-51.6-22.6-83.9c3.7-20.4,10.6-38.5,25.7-52
		c16.9-15,36.7-25.6,60.5-25.5c14.3,0,28.7,0.3,43-0.1c17.9-0.4,35.4,1.4,53,5.4c8.8,2,18.3,0.8,27.6,0.8c16,0,20.8-5.6,14.3-20.4
		c-11.5-25.7-11.1-52.5-11-79.6c0-7.8,2.3-10.9,10.5-10.8c44.8,0.3,89.4,0.5,134,8c25,4.2,47.3,14.9,71.4,20.8
		c9.6,2.3,18,9.4,27.1,14c1.7,0.9,4,0.4,6.1,0.5C691.6,627.6,699.2,626.6,706.1,626.7z M1292.2,994.4c8.3-2.4,14-2.9,19.9,0.1
		c14.6,7.4,30.6,10.7,46.6,13c19.5,2.8,36.8-9.6,38.6-28.4c1.7-18.2,3.4-37.2-3.3-54.6c-6.6-17.1-14.9-35.2-35.6-38.6
		c-11.5-1.9-17.8-7.8-24.9-15.3c-6.1-6.4-11.7-15.6-21.3-16.1c-20-0.9-38.8-6.9-57.8-12.2c-27.3-7.5-54.3-16.3-81.7-23.7
		c-32.5-8.8-65.3-15.7-99.3-13.7c-5.6,0.3-11,0.5-16.4,2.8c-22.4,9.8-27.5,26.2-23.9,56.6c0.7,6,1.8,12,2,18.1
		c0.2,5.6-1.7,8.5-7.8,8.7c-13,0.3-23.1,7-31.4,16.2c-17.6,19.6-24.4,42.6-19.9,68.8c0.4,2.5,0.8,5.3,0.1,7.6
		c-10,29.2,3.1,53.3,21,72.7c27.2,29.5,52.5,60.8,82.6,87.9c30.4,27.4,62.2,51.2,101.3,63.7c32.9,10.5,66.6,17.6,101.5,11.7
		c22.1-3.7,31.4-14.2,32.2-37.1c0.4-11.3,0.3-22.5,0-33.8c-0.2-6.8,1.2-10.8,8.7-13.6c13.1-4.9,20.2-15.1,19.1-29.9
		c-0.2-2.5-0.4-5.3,0.3-7.6c5.3-15.9-1.8-29.8-7.7-43.4C1325.4,1032.2,1309,1014.5,1292.2,994.4z M623.3,1069.5
		c-25.5-3.4-53.5,1.4-80.6,7.3c-27.9,6-55.2,15.9-81.2,28.7c-19.5,9.6-40.1,17.2-57.1,31.5c-16.8,14-28.1,31.1-29.9,53
		c-1.2,14.8,0,29.7-0.3,44.5c-0.3,20,11.3,33.2,27.8,39.6c14.7,5.7,23,15.7,30.4,28c3,5,3,8.8-1.5,13.5
		c-10.8,11.3-15.1,25-13.7,40.7c0.5,6.1,0,12.3,0.1,18.4c0.3,14.5,4.3,19.7,19,20c13.1,0.3,26.3,1,39.6-1.8
		c10.2-2.2,20.7-4.8,31.7-4.2c14.5,0.8,13.9,0.4,17.6,14.3c8.6,32.6,24.5,41.9,54.2,37.1c17.1-2.7,33.2-11.7,46.5-24.5
		c18.1-17.4,31.8-38.1,46.7-57.9c6.5-8.6,13.3-16.8,15.6-27.7c4.9-23.7,20.5-40.2,37.8-55.5c22.3-19.6,44.7-40,58.6-66
		c13.4-25.1,25.9-51.6,28.8-81c1.4-14.5,1.2-30.1-9.1-40.5c-11.5-11.6-28.1-16.5-44.6-16.3c-6.6,0.1-12.8-0.2-19.3-0.7
		c-21.3-1.6-42.7-7.1-63.9-3.5C659.5,1069.6,642.8,1068.5,623.3,1069.5z"/>
	<path class="st2" d="M85.3,906.5c5.6-21.2,16.1-39.8,30.2-56.3c3.7-4.4,7.5-8.2,6.6-14.5c1.5,0.3,3.2,0.2,4.4,0.9
		c16.9,10.1,16.4,9.8,1.4,22.9c-12.5,11-25,22.3-34.2,36.7C91.5,899.9,90.3,904.9,85.3,906.5z"/>
	<path class="st2" d="M315.6,589.4c-0.7-11.7,7-12.4,15.6-11.9c7.2,11.9,7.2,12-5.1,12.2C322.6,589.8,319.1,589.5,315.6,589.4z"/>
	<path class="st2" d="M294.1,592.1c1.6-6.3,4.7-7,9.3-2.6C301.3,593.8,297.6,592.7,294.1,592.1z"/>
	<path class="st2" d="M140,1290.7c-4.2-0.3-5.8-2.7-5.3-6.7C138.6,1284.6,140.8,1286.5,140,1290.7z"/>
	<path class="st2" d="M2040.2,205.6c18.5,2.4,36.1,10.4,55.2,9.4c1,7.3,6.8,8.8,12.3,8.9c7.3,0.1,14,1.9,21,3.1
		c14.9,2.5,17.9,5,18.8,19.8c0.8,12.2,1.8,24.3,2.5,36.4c1.2,21.4,4.9,42.3,6.9,63.5c1.4,13.9-4,20.7-18.1,18.1
		c-54.9-10.2-110.1-20.2-153.2-60.9c-10.6-10-23.6-17.6-33.9-28.3c-13-13.6-12.5-30.6,0-44.8c14.6-16.6,31.3-28.3,54.1-29.5
		C2017.6,200.6,2028.7,204.5,2040.2,205.6z"/>
	<path class="st2" d="M1941.8,426c0,14.8,0.1,25.1,0,35.3c0,2.9,0.8,6.8-3.4,7.4c-2.6,0.4-4.5-2.1-5.3-4.6
		c-6.3-19.8-20.9-26.4-40.3-24.8c-15,1.2-21.9-9.6-28-19.9c-4.5-7.5-8-8.3-15.7-4.8c-18.7,8.5-21.2,7.7-26.4-12.2
		c-5.4-20.8-16.3-38.3-29.3-54.6c-10.4-13-9.3-27.6-7.2-42.2c1.3-9.1,9.7-13.2,17.1-16.1c6.9-2.8,14.9-2.8,22.4-3.9
		c8.7-1.3,15.7,1.3,21.7,8.3c9.7,11.3,21.5,20.3,34.1,28.1c8.9,5.5,15.7,13,23.1,20c3.3,3.1,5.8,7.5,10.9,8
		c13.4,1.2,16.5,12.1,20.2,21.9C1942.6,390.8,1942.6,410.7,1941.8,426z"/>
	<path class="st2" d="M1622,983.2c12.7-3,36,8.9,39.2,20.5c1.8,6.8,3.1,13.8,3.8,20.7c2,21.6-11.9,36.7-35.3,38.6
		c-3.5,0.3-7.1,0-10.6,0C1623,1036.6,1622.4,1009.9,1622,983.2z"/>
	<path class="st2" d="M2571.7,505.7c0,6.1,0.3,12.3-0.1,18.4c-0.2,3.1-1.9,6.1-5.6,6.1c-3.1,0.1-4.2-3-4.8-5.2
		c-4.3-16.6-13.9-30.4-23.2-44.3c-9.7-14.4-21.2-27.3-33.2-39.9c-7-7.3-14.6-8.7-23.5-7.6c-3,0.4-5.9,1.5-8.8,2.6
		c-24.9,9.7-43.5-1.3-59.5-18.9c-8.9-9.8-15.4-21.4-22.3-32.8c-1.4-2.3-4.4-5.3-1.3-8.2c2.5-2.3,5.8-1.5,8.7-0.4
		c4.8,1.8,8.8,5,12.6,8.5c15.3,13.7,29.6,13.3,44-1.6c7.1-7.3,13.2-15.5,19.9-23.1c10.4-11.8,22-11.5,28.8,2.4
		c6.5,13.2,17.2,21.5,28.4,29.2c9.9,6.8,15.3,15.5,19.8,26.1c9.4,22.2,11.2,46.4,19.5,68.9c2.2,5.8,0.3,13.2,0.3,19.8
		C2571.6,505.7,2571.7,505.7,2571.7,505.7z"/>
	<path class="st2" d="M2190.7,1011.2c2.8,11.5-5.7,21.4-7.8,32.8c-0.7,3.5-4.7,6.9-9.5,6.4c-4.1-0.5-3.1-4.5-4.4-6.9
		c-7.6-13.9-8.9-30-16.2-44.1c-3.6-7-6.7-11.9-16.3-7.9c-9.8,4.1-14.9-4.2-19.3-11c-3.4-5.3-5.9-7.2-11.9-2.7
		c-10.6,7.9-25.6,4.7-32.4-6.7c-3.6-6-7.4-13-7.7-19.7c-0.6-18.3-5.4-36.3-3.7-54.8c1.2-13.9,9.4-22.9,23.1-23.8
		c8.6-0.6,17.4-0.8,25.5,3.2c16.8,8.2,35,14,49.2,27c2.6,2.4,5.4,4,6.8,7.7c10.6,28.4,20.7,57,24.4,87.4
		C2191.1,1002,2190.7,1006.2,2190.7,1011.2z"/>
	<path class="st2" d="M2166,445.3c24.2,3,48.2,6.6,69.8,18.9c2.8,1.6,5.5,2.5,8.6,2.7c5,0.3,10.4,4,11.4,6.8
		c5.8,16.7,24.6,22.9,30.8,38.6c6.1,15.5,12.5,30.8,15.8,47.4c3.2,15.8,8.9,31.1,13.5,46.6c1,3.5,2.1,7.3-1.2,9.9
		c-2.7,2.1-5.8,0-8.6-1.1c-19.1-7.4-32.4-22.3-46.5-36c-7.2-7-13.5-14.8-20.2-22.3c-3.2-3.6-6.6-4.6-10.4-0.6
		c-1,1.1-2.1,2.4-3.4,3.1c-7.6,4.3-16.1,8.4-24.2,8c-10.5-0.5-8.1-12.4-11.4-19.2c-7.3-15-14.3-30.1-22.4-44.7
		c-7.3-13.2-13.8-27-19.5-41c-5.8-14.3-3.6-16.9,11.9-17.1C2161.9,445.3,2163.9,445.3,2166,445.3z"/>
	<path class="st2" d="M2426.6,811.3c-9.7-8.9-15.2-20.5-21.9-30.9c-5.9-9.1-11.3-16-23.8-15.7c-13.3,0.3-21-8.4-25.6-20.6
		c-1.2-3.3-0.5-9.7-6.2-9.2c-6.3,0.5-6.8,6.6-7.7,11.6c-2.6,13.9-3.6,28.2-8.5,41.6c-1.3,3.8-1.2,9-6.1,9.6
		c-6.1,0.8-7.4-5.1-8.7-9.1c-6.3-18.2-17-34.7-21.2-53.9c-4.7-21.6,2.2-31.8,23.8-31.1c14.6,0.5,27.7-1.1,35.9-15
		c2.9-4.9,6.1-3,10.3-1.2c17.3,7.7,30.4,19,39.6,36.2c13.5,25.3,25.3,50.6,24,80.2C2430.4,805.9,2430.4,808,2426.6,811.3z"/>
	<path class="st2" d="M2258.4,789.6c0.6,8.3-0.7,16.2-2.9,24.1c-1.1,4.1-1.5,8.7-6.7,8.5c-4.2-0.1-4.9-4.1-5.8-7.8
		c-4.4-16.6-8.7-33.3-14-49.6c-6.3-19.6-15.8-24.6-36.2-21.8c-10.1,1.4-20.3,1.2-27.9-7.8c-5.3-6.4-8.8-2.5-11.2,2.8
		c-3.2,6.9-6,14-9.1,21c-1.5,3.4-3.9,6.1-8.2,5.5c-4-0.6-3.6-4.3-4.7-7c-8.1-19.6-15.4-39.5-22.1-59.6c-3.2-9.7-3.8-17.8,8.3-21.6
		c2.8-0.9,5.5-2.8,7.7-4.9c22.7-21.4,34.4-15.9,60.2-1.6c18.6,10.3,34.3,25.5,54.2,34c6,2.6,12.1,7.2,12.1,14.6
		C2252,742.4,2257.6,765.8,2258.4,789.6z"/>
	<path class="st2" d="M2347.6,973.6c-0.3,12.2,0.7,20.9-3,29.2c-1.5,3.3-2.2,7.2-6.7,7.1c-3.5-0.1-5-3-5.7-6.2c-0.2-1-0.3-2.1-0.7-3
		c-5.5-11.5-6.2-26.7-25.8-25.5c-5.5,0.3-12.8-6.9-17.2-13.9c-6.8-10.9-9-10.8-18.9-3.2c-1.6,1.2-3.3,2.4-4.9,3.6
		c-13.7,9.3-16.2,8.2-22-7.9c-2.6-7.1-7-13.4-8.8-20.9c-4.3-18,4.2-33.6,22.4-37.3c14.6-2.9,29.4-7.7,44.7-0.4
		c13.2,6.4,24.2,13.7,28.6,28.9c2.6,9.1,12.6,14.1,14.7,24.5C2346.2,958.1,2348.3,967.4,2347.6,973.6z"/>
	<path class="st2" d="M2357.3,456.4c-4.8,0.3-7.2-3.4-9.1-6.8c-7.8-14-20.7-23.8-29.5-36.9c-1.5-2.2-3.6-4.3-6.2-4
		c-14.2,1.7-21.2-7.4-27.7-17.7c-2.3-3.6-5-4.2-8.9-1.4c-14.4,10-21.7,8.5-30-6.4c-7.4-13.5-11.9-28.2-15-43.1
		c-1.6-7.9-4.1-15.7-3.5-24.1c0.5-6.4,2.4-9.6,9.1-9.1c3.5,0.3,7.3-0.1,10.6,0.9c40.4,11.9,76.4,30.9,93.1,72
		c9,22.1,22.6,43.8,19.6,69.7C2359.5,452,2360.2,454.7,2357.3,456.4z"/>
	<path class="st4" d="M912.1,1545.6c-1.4-9.9-11.1-14.1-15.5-22.2c-2.3-4.2-6.4-0.7-8.8,2c-4.5,5.1-6.9,11.3-9.3,17.5
		c-2.4,6.1-4.2,12.6-6.9,18.6c-12.8,28.1-37.4,32.3-60.2,11.3c-17.5-16.1-23-37.4-24.9-59c-2-23.2,1.4-46.4,4.2-69.8
		c3.9-32.1,10.9-63.9,11.5-96.8c0.5-25,3.5-50.4,7-75.6c2.3-16.3,5.4-32.8,8.4-48.8c4.5-24.7,12.9-49.7,32.1-67.5
		c17.4-16.1,37.4-23.9,62.9-14.3c31.9,12.1,57.6,30.8,78.7,57.3c8.8,11.1,18.9,21.3,26.9,33.1c5.1,7.6,10,15.2,13.4,23.8
		c3.8,9.5,9.4,18.2,16.8,25.3c26.8,25.8,44.8,57.9,61.4,90.4c7.9,15.4,12.7,33.5,5.3,51.6c0.3,3.5-1.9,6.2-3.1,9.2
		c-7.8,3.2-13.8,10.2-22.6,11.3c-8.9,1.1-12,6.3-11.2,14.9c1.9,20.5-1.3,40.6-6.4,60.2c-11,42.2-49.4,61.5-87.5,33.6
		c-6.6-4.8-13.2-9.6-18.5-15.8c-5.2-6.1-9.7-6.5-14.8-0.1c-7.5,9.5-17.7,13.1-29.6,12.7C919.3,1544.8,915.5,1545.8,912.1,1545.6z
		 M970.6,1314.2c-0.5-41.6-7.2-76-16.1-109.8c-4.8-18.2-22.4-33.6-40.2-33.9c-25.4-0.4-34.6,8.7-42.2,31.2
		c-7.3,21.5-9.2,43.7-8.3,66.1c0.3,9,2.1,18.1,3,27.2c2,19.6,5.1,39.1,10.6,58.3c6.7,23.5,48.9,34.6,69.6,17.4
		C966.9,1354.1,973.7,1333,970.6,1314.2z"/>
	<path class="st1" d="M690.9,811.4c6.5-0.1,6.6,8.2,12.3,9.2c5.7,6.5,10.5,13.8,18.1,18.4c10.5,13.9,16.1,30.2,22.1,46.3
		c2.3,6.1,3.5,12.7,8.5,17.5c0,2.3,0,4.6,0,6.9c-0.1,1.7-0.2,3.5-0.3,5.2c-7.1,15.6-15.9,29.4-33.2,35.7
		c-22.9,8.3-46.9,11.2-70.6,9.7c-13.9-0.9-28.3-2.7-42.4-4.4c-46.7-5.7-91.5-18.4-136.7-30.7C415.4,910.9,384,847.3,387,805
		c2-28.6,20.6-52.2,49.9-54.9c23.4-2.1,46.9,0.2,70,4.8c20.4,4,40.9,8,60.9,13.8c27.8,8.1,56.7,12.4,83.6,23.8
		C664.9,798.2,676.3,808.1,690.9,811.4z M648.1,943.7c17.6,0.9,34.8-1.5,51.4-7c19.8-6.5,31.5-24.9,27-44
		c-9.3-39.5-30.5-69.2-69.3-85.7c-33.6-14.2-69.1-21.5-104.1-30.5c-24.8-6.3-49.7-11.9-75.5-11.3c-27.8,0.6-44.2,15.2-49.9,42.5
		c-2.1,10-0.5,19.5,1.7,28.8c7.3,31,21.6,59,51.9,71.9C534.2,931,590.5,941.2,648.1,943.7z"/>
	<path class="st5" d="M921.3,1548.7c11.8,0.4,22-3.2,29.6-12.7c5.1-6.4,9.6-6,14.8,0.1c5.3,6.2,11.9,11,18.5,15.8
		c38.1,27.8,76.6,8.6,87.5-33.6c5.1-19.6,8.2-39.7,6.4-60.2c-0.8-8.5,2.3-13.8,11.2-14.9c8.9-1.1,14.8-8.1,22.6-11.3
		c-1.2,18.9,4,37.4,3.4,56.4c-0.6,19.9,1.1,40.3-4,59.3c-6.8,25.4-15.3,52-42.6,63.8c-22.2,9.6-44.6,11.2-68.9,2.7
		c-32.3-11.4-56.6-31.1-76.1-58.3C922.2,1553.6,921.4,1551.3,921.3,1548.7z"/>
	<path class="st3" d="M1292.2,994.4c16.8,20.1,33.2,37.7,42.9,59.9c6,13.7,13.1,27.5,7.7,43.4c-0.8,2.3-0.5,5.1-0.3,7.6
		c1.1,14.8-6,25-19.1,29.9c-7.5,2.8-8.9,6.8-8.7,13.6c0.3,11.3,0.4,22.5,0,33.8c-0.8,22.9-10.1,33.4-32.2,37.1
		c-35,5.9-68.6-1.2-101.5-11.7c-39.1-12.5-70.8-36.3-101.3-63.7c-30.1-27.1-55.4-58.4-82.6-87.9c-17.9-19.4-31-43.5-21-72.7
		c0.8-2.3,0.4-5.1-0.1-7.6c-4.5-26.2,2.3-49.1,19.9-68.8c8.3-9.3,18.4-16,31.4-16.2c6.1-0.1,8-3.1,7.8-8.7c-0.2-6.1-1.3-12.1-2-18.1
		c-3.7-30.4,1.4-46.8,23.9-56.6c5.4-2.4,10.8-2.5,16.4-2.8c34-2,66.8,4.9,99.3,13.7c27.4,7.4,54.4,16.2,81.7,23.7
		c19,5.2,37.7,11.3,57.8,12.2c9.6,0.4,15.2,9.6,21.3,16.1c7.1,7.5,13.4,13.5,24.9,15.3c20.7,3.4,29,21.5,35.6,38.6
		c6.8,17.4,5,36.4,3.3,54.6c-1.8,18.8-19.1,31.2-38.6,28.4c-15.9-2.3-31.9-5.6-46.6-13C1306.1,991.6,1300.5,992,1292.2,994.4z
		 M1055.4,943.5c-23.2-3.8-39.3,11.2-53.9,26.9c-8.4,9-11.8,21.4-7.5,34.3c7.8,23.3,22.1,42.5,40.3,58.2
		c36.7,31.8,77.7,57.2,121.2,78.9c28.1,14,52.9,13.1,77.8-7.1c24.2-19.7,31.9-57.5,15.2-83.9c-12.1-19.1-30.6-30.9-48.7-43.2
		c-27.4-18.7-57.3-32.7-86.2-48.7C1096.3,949.2,1077.5,942.2,1055.4,943.5z"/>
	<path class="st4" d="M623.3,1069.5c19.5-1.1,36.2,0,53.1-2.9c21.2-3.7,42.6,1.8,63.9,3.5c6.5,0.5,12.7,0.8,19.3,0.7
		c16.5-0.2,33.1,4.7,44.6,16.3c10.3,10.4,10.5,25.9,9.1,40.5c-2.8,29.4-15.3,55.8-28.8,81c-13.9,26.1-36.3,46.4-58.6,66
		c-17.3,15.3-32.9,31.8-37.8,55.5c-2.3,10.9-9.1,19.1-15.6,27.7c-14.9,19.8-28.6,40.5-46.7,57.9c-13.4,12.9-29.4,21.8-46.5,24.5
		c-29.7,4.8-45.6-4.5-54.2-37.1c-3.7-13.9-3.1-13.6-17.6-14.3c-10.9-0.6-21.5,2.1-31.7,4.2c-13.4,2.8-26.5,2.1-39.6,1.8
		c-14.7-0.4-18.7-5.5-19-20c-0.1-6.1,0.4-12.3-0.1-18.4c-1.4-15.6,2.9-29.4,13.7-40.7c4.5-4.7,4.5-8.5,1.5-13.5
		c-7.4-12.3-15.7-22.2-30.4-28c-16.5-6.4-28.1-19.6-27.8-39.6c0.2-14.8-0.9-29.8,0.3-44.5c1.8-21.9,13.1-39,29.9-53
		c17.1-14.3,37.6-21.8,57.1-31.5c26-12.8,53.3-22.8,81.2-28.7C569.8,1071,597.8,1066.2,623.3,1069.5z M448.3,1212.9
		c0,4.4-0.2,9,0.1,13.6c0.1,2,1,3.9,1.5,5.9c8,30.9,30.3,48.4,57.7,60.9c18.8,8.6,37.4,7.5,56.1-0.8c11.1-5,22.2-9.9,33.4-14.9
		c35.1-15.6,67.2-36.3,97.7-59.2c18.7-14.1,35.1-31.2,44.8-53.5c8.2-19,5.5-43.7-7.7-55.3c-9.1-8.1-18.9-15.6-28.9-22.5
		c-5.3-3.6-11.7-7.4-17.8-7.8c-25-1.8-49.6-1.2-73.5,9.4c-27.9,12.4-55.7,24.8-82.6,39.3c-21.5,11.6-43.6,22.5-60.9,40.2
		C456.2,1180.3,446.2,1194,448.3,1212.9z"/>
	<path class="st4" d="M690.9,811.4c-14.6-3.3-26-13.2-39.6-19c-26.9-11.4-55.8-15.7-83.6-23.8c-20-5.8-40.5-9.8-60.9-13.8
		c-23.1-4.6-46.5-6.9-70-4.8c-29.3,2.7-47.9,26.2-49.9,54.9c-2.9,42.3,28.5,106,81.6,120.4c45.2,12.3,90,25,136.7,30.7
		c14.1,1.7,28.4,3.5,42.4,4.4c23.7,1.5,47.7-1.4,70.6-9.7c17.3-6.3,26.2-20,33.2-35.7c3,0.7,6.5,1.3,6.6,5.2
		c0.4,18.3,1.2,36.5-4.5,54.5c-6.3,20.1-21,25.2-39.3,26.9c-15.5,1.5-30.3-3.4-45.7-3.3c-42,0.3-84,1.3-126-0.2
		c-53.7-1.9-106-11.9-154.3-37.1c-21.9-11.4-38.4-29-51.6-49c-5.2-7.8-8.5-18-10.6-28c-5.1-24.9-14.7-48.2-25.9-71.1
		c-7.1-14.6-10-30.3-6.3-47.1c7-31.5,21.7-41,49.2-43.4c30-2.6,60.6-3,90.5,0.2c31.6,3.4,62.9,10.7,93.8,19
		c33.2,8.9,67.2,15.2,99.6,27c18.6,6.8,36.1,16.1,52.5,27C684.8,799.3,690.8,803.7,690.9,811.4z"/>
	<path class="st4" d="M751.9,909.8c0-2.3,0-4.6,0-6.9C755.8,905.2,755.8,907.5,751.9,909.8z"/>
	<path class="st1" d="M970.6,1314.2c3.2,18.8-3.6,40-23.7,56.5c-20.8,17.1-63,6.1-69.6-17.4c-5.4-19.2-8.6-38.6-10.6-58.3
		c-0.9-9.1-2.7-18.2-3-27.2c-0.8-22.4,1-44.6,8.3-66.1c7.6-22.4,16.8-31.6,42.2-31.2c17.9,0.3,35.5,15.7,40.2,33.9
		C963.3,1238.2,970.1,1272.6,970.6,1314.2z M874.5,1252.5c-0.2,29.9,2.5,53.1,8.3,76c3.3,12.9,11.3,20.1,23.3,23.8
		c28.6,8.9,51.9-9.2,55.2-38.2c3.6-32.7-3.7-65-10.6-96.9c-1.3-6-3.9-11.5-7.1-16.8c-8.9-14.5-22.8-18.7-38.3-17.1
		c-13.9,1.4-20.2,12.1-24.9,24.2C874,1224.1,874.8,1241.5,874.5,1252.5z"/>
	<path class="st6" d="M648.1,943.7c-57.6-2.5-113.8-12.7-166.8-35.3c-30.2-12.9-44.5-40.9-51.9-71.9c-2.2-9.3-3.8-18.8-1.7-28.8
		c5.7-27.3,22.1-41.9,49.9-42.5c25.7-0.6,50.7,5,75.5,11.3c35.1,8.9,70.5,16.2,104.1,30.5c38.8,16.4,60,46.2,69.3,85.7
		c4.5,19.1-7.2,37.5-27,44C682.8,942.2,665.7,944.5,648.1,943.7z M547.2,872.1c7.5,0.4,14.5-1.1,21.1-3.9
		c14.2-6.1,18.6-19.5,11.1-32.9c-12.6-22.5-52.4-35.8-75.9-25.4c-15.6,6.9-19.8,20.8-10.5,35.1C505.8,864.5,526,869.3,547.2,872.1z"
		/>
	<path class="st1" d="M1055.4,943.5c22-1.3,40.9,5.7,58.2,15.3c28.9,16,58.8,30,86.2,48.7c18.1,12.4,36.6,24.1,48.7,43.2
		c16.7,26.3,9,64.1-15.2,83.9c-24.9,20.3-49.7,21.1-77.8,7.1c-43.5-21.7-84.5-47.1-121.2-78.9c-18.1-15.7-32.5-34.9-40.3-58.2
		c-4.3-12.8-0.9-25.3,7.5-34.3C1016.1,954.7,1032.2,939.7,1055.4,943.5z M1229.4,1070.1c1.8-19.8-9.8-34.5-24.9-46.7
		c-30-24.2-64.9-40.5-98.9-58c-14-7.2-29.4-11.6-45.8-10.7c-20.4,1.1-34.5,12.9-44.6,28.5c-10.6,16.4-2.9,32.6,7.1,46.9
		c6.7,9.6,14.4,18.6,23.4,26.3c31.9,27.6,67.9,48.5,105.9,66.8C1189.6,1141.4,1232.1,1103.5,1229.4,1070.1z"/>
	<path class="st1" d="M448.3,1212.9c-2.2-18.9,7.9-32.5,19.8-44.7c17.3-17.7,39.5-28.6,60.9-40.2c26.9-14.5,54.7-26.9,82.6-39.3
		c23.9-10.6,48.5-11.3,73.5-9.4c6.1,0.5,12.5,4.2,17.8,7.8c10.1,6.9,19.8,14.4,28.9,22.5c13.2,11.7,15.9,36.3,7.7,55.3
		c-9.7,22.3-26,39.5-44.8,53.5c-30.5,22.9-62.6,43.6-97.7,59.2c-11.1,4.9-22.2,9.9-33.4,14.9c-18.7,8.3-37.3,9.4-56.1,0.8
		c-27.4-12.6-49.6-30.1-57.7-60.9c-0.5-2-1.4-3.9-1.5-5.9C448.2,1221.9,448.3,1217.3,448.3,1212.9z M478.6,1202.5
		c-2.5,38.4,52.5,85.9,94.6,67.8c34.9-15.1,68.8-31.6,99.7-53.7c19.7-14.1,37.6-30.1,48-52.7c7.1-15.4,6-30.3-4.9-43.2
		c-20.7-24.3-46.7-37.4-78.9-28.5c-48.2,13.3-92,36.7-133.2,64.6C487.7,1167.6,477.9,1182.8,478.6,1202.5z"/>
	<path class="st6" d="M874.5,1252.5c0.3-11-0.6-28.4,5.9-45.1c4.7-12.1,11-22.8,24.9-24.2c15.5-1.6,29.4,2.6,38.3,17.1
		c3.2,5.3,5.9,10.9,7.1,16.8c6.9,31.9,14.3,64.2,10.6,96.9c-3.2,29-26.5,47.1-55.2,38.2c-12.1-3.8-20.1-11-23.3-23.8
		C877,1305.6,874.3,1282.4,874.5,1252.5z M942.6,1290.8c0.1-11.4-1.5-17.3-6-22.5c-6.3-7.4-14.6-7.7-21.2-0.8
		c-9.6,9.9-11.1,31.7-3.1,43c7.4,10.3,17.9,10.4,24.9-0.2C941.3,1304.2,943.3,1297.4,942.6,1290.8z"/>
	<path class="st3" d="M547.2,872.1c-21.1-2.8-41.3-7.6-54.1-27.1c-9.3-14.3-5.1-28.2,10.5-35.1c23.5-10.4,63.3,2.9,75.9,25.4
		c7.5,13.4,3.1,26.8-11.1,32.9C561.7,871,554.6,872.5,547.2,872.1z"/>
	<path class="st6" d="M1229.4,1070.1c2.6,33.4-39.8,71.4-77.8,53.1c-38-18.3-74-39.2-105.9-66.8c-9-7.7-16.6-16.7-23.4-26.3
		c-10-14.3-17.7-30.5-7.1-46.9c10.1-15.6,24.2-27.5,44.6-28.5c16.4-0.9,31.8,3.5,45.8,10.7c34,17.5,68.8,33.8,98.9,58
		C1219.7,1035.6,1231.2,1050.3,1229.4,1070.1z M1163.6,1078.3c17.5,0.6,26.6-11.8,19.7-28.1c-7.5-17.7-21.6-27.5-40.2-31.5
		c-8.9-1.9-16.5-0.2-22,6.6c-5.4,6.5-4,14.5-1.3,21.8C1125.2,1062.4,1147,1077.7,1163.6,1078.3z"/>
	<path class="st6" d="M478.6,1202.5c-0.7-19.7,9.2-34.9,25.2-45.7c41.2-27.9,85-51.4,133.2-64.6c32.2-8.9,58.2,4.2,78.9,28.5
		c10.9,12.8,12,27.8,4.9,43.2c-10.4,22.6-28.3,38.6-48,52.7c-30.9,22.1-64.7,38.7-99.7,53.7C531,1288.4,476,1240.9,478.6,1202.5z
		 M556.3,1219.2c19.4-0.1,39.1-12.8,45.9-29.2c7.5-18.2-1.9-33.4-21.7-34c-19.4-0.6-34.6,8-45.4,23.8c-6,8.9-8.1,19.1-2.1,28.9
		C538.4,1217.5,547.4,1219.6,556.3,1219.2z"/>
	<path class="st1" d="M942.6,1290.8c0.6,6.6-1.4,13.4-5.4,19.6c-6.9,10.5-17.5,10.5-24.9,0.2c-8-11.3-6.5-33.1,3.1-43
		c6.6-6.9,14.9-6.6,21.2,0.8C941.1,1273.5,942.7,1279.4,942.6,1290.8z"/>
	<path class="st1" d="M1163.6,1078.3c-16.6-0.6-38.4-15.9-43.9-31.2c-2.6-7.3-4-15.3,1.3-21.8c5.6-6.8,13.1-8.5,22-6.6
		c18.7,4,32.7,13.9,40.2,31.5C1190.2,1066.5,1181.1,1078.9,1163.6,1078.3z"/>
	<path class="st3" d="M556.3,1219.2c-8.9,0.4-17.9-1.6-23.3-10.4c-6-9.8-3.9-20,2.1-28.9c10.8-15.8,26-24.5,45.4-23.8
		c19.8,0.6,29.2,15.8,21.7,34C595.4,1206.4,575.7,1219.1,556.3,1219.2z"/>
</g>
<g>
	<path class="st2" d="M1859.2,830.8c-18.9,22.8-39,48.8-36.6,78.3c0.7,9.1,3.6,17.9,7.1,26.4c12.2,30.1,35.5,59.9,67.9,62.9
		c13.1,1.2,26.3-2.2,38.7-6.9c19.8-7.5,39.6-19.6,48-39.1c2.7-6.3,4-13.1,4.6-19.9c2.8-33.1-15.9-68.6-47.3-79.4"/>
</g>
<g>
	<path class="st2" d="M1755.6,948.1c-10.8-6.3-25.4-0.3-32.9,9.8s-9.5,23-11.4,35.4c-2.1,14.1-4.2,28.1-6.3,42.2
		c-1.1,7-2.1,14.5,0.9,21c2.2,4.9,6.4,8.4,10.2,12.2c21.3,21.4,32,53.3,58.1,68.6c13.1,7.6,28.4,10,43.4,12.3
		c13.1,2,27.8,3.6,38.2-4.6c9.4-7.3,12.1-20.2,14.2-31.9c3.6-20.6,7-42.9-2.6-61.4c-4.9-9.6-12.8-17.2-20.6-24.6
		c-15.5-14.8-30.9-29.6-46.4-44.3c-9.4-9-19-18.1-30.5-24.3s-25.3-9.2-37.7-5.1"/>
</g>
<g>
	<path class="st2" d="M1649.6,714.1c-7.1,0.2-12.2,6.8-15.2,13.2c-9.3,19.7-8.2,43.1-1.6,63.9c6.6,20.8,18.3,39.6,29.8,58.1
		c8.2,13.1,16.4,26.3,24.6,39.4c2.5,4,5.1,8.2,9,10.9c4.1,2.8,9.2,3.8,14.1,4.3c14.5,1.4,29.1-1.1,43.5-3.6
		c12.2-2.1,25.4-4.7,33.8-13.9c2.8-3,4.8-6.7,6.5-10.5c7.6-17.6,5.7-38.3-1.8-55.9s-20.2-32.6-34-46
		c-33.9-32.9-78.1-58.3-125.3-58.3"/>
</g>
<g>
	<g>
		<path class="st2" d="M1934.7,1060.5c-0.4,0.1-0.7,0.2-1.1,0.2c-0.4,0.1,0.3,0-0.2,0c-0.2,0-0.4,0-0.6,0c-0.3,0-0.6,0-1,0
			c-0.2,0-0.4,0-0.6,0c-0.1,0-0.5-0.1-0.4,0c0.2,0-0.3-0.1-0.3-0.1c-0.2,0-0.4-0.1-0.5-0.1c-0.3-0.1-0.6-0.2-0.9-0.3
			c-0.2-0.1-0.3-0.1-0.5-0.2c-0.3-0.1,0.2,0.1-0.2-0.1c-0.3-0.2-0.7-0.3-1-0.5c-0.7-0.4-1.7-0.2-2.1,0.5c-0.4,0.7-0.2,1.6,0.5,2.1
			c2.8,1.6,6.3,2.1,9.5,1.3c0.8-0.2,1.3-1.1,1-1.8C1936.3,1060.7,1935.5,1060.3,1934.7,1060.5L1934.7,1060.5z"/>
	</g>
</g>
<g>
	<path class="st2" d="M1531.7,550.8c-23.1,19.8-45.4,40.7-66.6,62.5c-3.5,3.6-7.2,8-6.5,12.9c0.6,3.9,3.9,6.8,6.9,9.4
		c35.7,30.3,68.4,64.1,97.5,100.9c5.3,6.7,13.4,14.2,21,10.3c3.2-1.6,5.1-4.9,6.7-8.1c13.3-27.4,13-59.8,5.2-89.3
		s-22.3-56.6-36.7-83.4c-4.4-8.2-11.2-17.7-20.5-16.3"/>
</g>
<g>
	<path class="st2" d="M1648.2,1105.4c-10.5-4.2-20.6,6.4-26.9,15.8c-10.9,16.1-21.7,32.1-32.6,48.2c-1.7,2.5-3.4,5.1-4,8
		c-0.7,3.3,0.1,6.7,1.1,10c7.9,27.8,25.5,52.8,49.3,69.2c23.8,16.4,53.8,23.8,82.3,19.7c1.9-0.3,3.9-0.6,5.6-1.7
		c3.3-2.2,4.1-6.7,4.4-10.7c5.2-58.2-14.2-120.6-59.5-157.5"/>
</g>
<g>
	<path class="st2" d="M1937.9,1049.8c-4.6,0-8.5,3.3-11.5,6.8c-16,18.1-22.4,43.8-19.2,67.7c3.2,24,15.4,46.3,32,63.9
		c16.8,17.8,40,31.6,64.4,29.7c18.7-1.4,36-12.3,47-27.5c11-15.2,15.9-34.3,15.4-53c-0.1-4.6-0.6-9.3-2.8-13.3
		c-2.7-4.8-7.7-7.9-12.4-10.7c-24.3-14.6-48.7-29.3-73-43.9c-17.8-10.7-37.8-21.8-58-17.4"/>
</g>
<g>
	<path class="st2" d="M1786.9,1198.2c-9,4.1-15.1,12.9-18.1,22.2c-3,9.4-3.2,19.4-3.1,29.2c0.2,13.9,1.6,29.1,11.6,38.7
		c8.3,8,20.6,10,32.1,11.2c13.5,1.4,27,2.3,40.6,2.7c16.4,0.4,33.1,0,48.7-5.2c15.6-5.2,30-15.9,36.2-31.1s2.4-34.9-11.2-44.1
		c-7-4.8-15.6-6.3-24-7.8c-36-6.4-72.3-12.8-108.7-11.2"/>
</g>
<g>
	<g>
		<path class="st0" d="M1860.2,262.5c11.4,14,22.9,27.9,34.1,42c2.7,3.4,5.4,6.9,8.1,10.3c0.8,1-1-1.3,0.1,0.1
			c0.3,0.4,0.6,0.7,0.8,1.1c0.7,0.9,1.4,1.8,2.1,2.7c1.3,1.7,2.6,3.4,3.9,5.2c5.2,7,10.3,14.1,15.1,21.4
			c5.4,8.2,10.5,16.6,15.3,25.2c1.9,3.4,6.9,4.8,10.3,2.7c3.5-2.3,4.7-6.6,2.7-10.3c-8.4-15.4-18.2-30.1-28.6-44.2
			c-10.7-14.5-22-28.5-33.4-42.5c-6.6-8.1-13.3-16.3-19.9-24.4c-1.1-1.4-3.6-2.2-5.3-2.2c-1.8,0-4,0.8-5.3,2.2
			c-1.3,1.4-2.3,3.3-2.2,5.3C1858.1,259.3,1858.8,260.9,1860.2,262.5L1860.2,262.5z"/>
	</g>
</g>
<g>
	<g>
		<path class="st0" d="M1965.9,163.9c1.6,0.1,3.3,0.3,4.9,0.5c-0.7-0.1-1.3-0.2-2-0.3c7.2,1,14.2,3.1,21,5.9
			c-0.6-0.3-1.2-0.5-1.8-0.8c11.6,4.9,22.4,11.7,33.1,18.2c11.2,6.8,22.5,13.4,34.9,17.7c7.1,2.5,14.5,4,22,4.5
			c3.9,0.3,7.7-3.6,7.5-7.5c-0.2-4.3-3.3-7.2-7.5-7.5c-1.5-0.1-3-0.2-4.5-0.4c0.7,0.1,1.3,0.2,2,0.3c-7.2-1-14.3-3.1-21-5.9
			c0.6,0.3,1.2,0.5,1.8,0.8c-11.7-4.9-22.5-11.7-33.3-18.3c-11.2-6.8-22.6-13.4-35.1-17.7c-7.1-2.5-14.5-4-22-4.4
			c-3.9-0.2-7.7,3.6-7.5,7.5C1958.6,160.7,1961.7,163.7,1965.9,163.9L1965.9,163.9z"/>
	</g>
</g>
<g>
	<g>
		<path class="st0" d="M2103.1,214c0.9,0.4,1.9,0.7,2.8,1.1c-0.6-0.3-1.2-0.5-1.8-0.8c5.6,2.4,10.9,5.1,16.1,8.3
			c2.5,1.5,4.9,3.1,7.2,4.8c0.6,0.4,1.2,0.9,1.8,1.3c0.3,0.2,0.6,0.5,0.9,0.7c-1.9-1.4-0.7-0.6-0.3-0.2c1.2,0.9,2.4,1.9,3.5,2.9
			c4.5,3.8,8.7,8,12.6,12.4c1,1.1,2,2.3,2.9,3.5c0.4,0.5,0.8,1,1.2,1.5c0.2,0.3,0.5,0.6,0.7,0.9c-1.6-2-0.4-0.5,0,0
			c1.8,2.4,3.5,4.9,5.2,7.4c3.6,5.6,6.7,11.5,9.3,17.7c-0.3-0.6-0.5-1.2-0.8-1.8c0.5,1.2,1,2.3,1.4,3.5c0.7,1.9,1.7,3.4,3.4,4.5
			c1.6,0.9,4,1.3,5.8,0.8c3.6-1.2,6.7-5.3,5.2-9.2c-5.1-13.3-12.2-25.4-21.3-36.4c-8.7-10.5-19.1-19.5-30.6-26.8
			c-6.7-4.2-13.9-7.7-21.3-10.6c-1.7-0.7-4.3-0.1-5.8,0.8c-1.6,0.9-3,2.7-3.4,4.5c-0.4,1.9-0.3,4.1,0.8,5.8
			C2099.7,212.3,2101.2,213.3,2103.1,214L2103.1,214z"/>
	</g>
</g>
<g>
	<g>
		<path class="st0" d="M2102.4,382.2c1.7-24.6,1.9-49.3,0.5-73.9c-0.7-12.3-1.8-24.6-3.2-36.8c-1.4-12-3-24.1-5.5-36
			c-2.5-11.9-6.5-24-14-33.8c-1.2-1.6-2.4-2.9-4.5-3.4c-1.8-0.5-4.2-0.3-5.8,0.8c-1.6,1-3,2.6-3.4,4.5c-0.4,1.8-0.4,4.2,0.8,5.8
			c3.1,4.1,5.6,8.5,7.6,13.2c-0.3-0.6-0.5-1.2-0.8-1.8c5.8,13.8,7.7,29,9.7,43.8c-0.1-0.7-0.2-1.3-0.3-2c4.1,30.9,5.8,62.1,5.1,93.3
			c-0.2,8.8-0.6,17.6-1.3,26.4c-0.3,3.9,3.6,7.7,7.5,7.5C2099.2,389.5,2102.1,386.4,2102.4,382.2L2102.4,382.2z"/>
	</g>
</g>
<g>
	<g>
		<path class="st0" d="M1565.3,497.5c0.3-4,0.7-8.1,1.2-12.1c-0.1,0.7-0.2,1.3-0.3,2c1.9-13.8,5.2-27.5,9.8-40.6
			c1.3-3.8,2.8-7.5,4.3-11.1c-0.3,0.6-0.5,1.2-0.8,1.8c4.2-9.9,9.2-19.6,14.9-28.7c2.8-4.5,5.7-8.8,8.8-13.1
			c0.8-1.1,1.6-2.2,2.4-3.2c0.7-1-0.4,0.5-0.4,0.6c0.2-0.3,0.5-0.6,0.7-1c0.4-0.5,0.8-1.1,1.3-1.6c1.7-2.1,3.4-4.2,5.2-6.2
			c4-4.6,8.2-9,12.6-13.2c2.8-2.7,2.9-7.9,0-10.6c-3-2.8-7.6-2.9-10.6,0c-14.5,13.9-26.9,29.9-36.9,47.3
			c-9.9,17.4-17.4,36.2-22.1,55.6c-2.7,11.2-4.4,22.7-5.2,34.2c-0.3,3.9,3.6,7.7,7.5,7.5C1562.1,504.8,1565,501.7,1565.3,497.5
			L1565.3,497.5z"/>
	</g>
</g>
<g>
	<g>
		<path class="st0" d="M1578.3,315.9c-6.1,10.5-5.3,23.7,0.5,34.2c5.8,10.5,16.9,17.4,28.6,19.2c7.1,1.1,14.2,0.8,21.2-1.2
			c3.8-1.1,6.5-5.4,5.2-9.2c-1.2-3.9-5.2-6.4-9.2-5.2c-1.9,0.5-3.7,0.9-5.7,1.2c0.7-0.1,1.3-0.2,2-0.3c-3.7,0.5-7.4,0.5-11.2,0
			c0.7,0.1,1.3,0.2,2,0.3c-3.3-0.5-6.5-1.3-9.6-2.6c0.6,0.3,1.2,0.5,1.8,0.8c-1.9-0.8-3.7-1.7-5.4-2.9c-0.4-0.3-0.8-0.6-1.2-0.9
			c-1.1-0.8,1.4,1.1,0.3,0.2c-0.8-0.6-1.5-1.3-2.2-2c-0.7-0.7-1.3-1.4-1.9-2.1c-0.9-1.1,1.1,1.5,0.3,0.4c-0.3-0.4-0.6-0.8-0.8-1.2
			c-1.1-1.6-1.9-3.3-2.7-5c0.3,0.6,0.5,1.2,0.8,1.8c-1-2.4-1.7-4.9-2.1-7.5c0.1,0.7,0.2,1.3,0.3,2c-0.3-2.4-0.3-4.9,0-7.4
			c-0.1,0.7-0.2,1.3-0.3,2c0.3-2.1,0.8-4.1,1.6-6.1c-0.3,0.6-0.5,1.2-0.8,1.8c0.4-1,0.9-1.9,1.4-2.8c2-3.4,0.9-8.4-2.7-10.3
			C1585,311.3,1580.4,312.2,1578.3,315.9L1578.3,315.9z"/>
	</g>
</g>
<g>
	<g>
		<path class="st0" d="M1595.4,822.6c3.9,0,7.7-3.4,7.5-7.5c-0.2-4.1-3.3-7.5-7.5-7.5c-3.9,0-7.7,3.4-7.5,7.5
			C1588.1,819.2,1591.2,822.6,1595.4,822.6L1595.4,822.6z"/>
	</g>
</g>
<g>
	<g>
		<path class="st0" d="M1454.6,619.1c3.9,0,7.7-3.4,7.5-7.5c-0.2-4.1-3.3-7.5-7.5-7.5c-3.9,0-7.7,3.4-7.5,7.5
			C1447.3,615.6,1450.4,619.1,1454.6,619.1L1454.6,619.1z"/>
	</g>
</g>
</svg>
