<?xml version="1.0" encoding="iso-8859-1"?>
<!-- Generator: Adobe Illustrator 25.3.1, SVG Export Plug-In . SVG Version: 6.00 Build 0)  -->
<svg version="1.1" id="Layer_1" xmlns="http://www.w3.org/2000/svg" xmlns:xlink="http://www.w3.org/1999/xlink" x="0px" y="0px"
	 viewBox="0 0 14400 14400" style="enable-background:new 0 0 14400 14400;" xml:space="preserve">
<path style="fill:#513A2A;" d="M7227.234,8057.912c-112.182-1.806-223.502-9.861-332.658-37.409
	c-41.715-10.527-82.255-24.334-119.212-47.069c-40.135-24.691-64.059-58.276-59.563-107.706c2.353-25.866,2.6-52.049,6.787-77.6
	c25.12-153.295,90.446-287.657,192.243-404.726c96.435-110.904,213.088-193.516,348.448-249.948
	c37.381-15.584,76.306-26.636,117.086-27.149c16.565-0.208,33.958,2.011,49.596,7.243c20.358,6.81,24.383,22.441,11.94,39.895
	c-10.152,14.241-22.05,27.254-33.369,40.647c-54.213,64.148-55.338,112.482,1.99,173.674
	c37.19,39.697,79.058,75.092,119.629,111.523c63.811,57.301,121.03,119.718,159.962,197.153
	c34.025,67.674,48.18,139.628,47.273,214.955c-0.367,30.509-14.297,54.938-38.89,70.515c-26.662,16.888-55.023,32.377-84.584,43.153
	c-80.629,29.391-165.297,39.911-250.355,46.366C7318.213,8054.869,7272.682,8055.831,7227.234,8057.912z M7348.811,7962.772
	c0.153,0.839,0.305,1.679,0.458,2.519c58.985-9.052,118.381-16.079,176.801-27.919c34.66-7.025,68.145-20.675,101.436-33.258
	c16.054-6.068,20.676-21.356,14.528-35.099c-6.6-14.753-20.714-19.697-37.584-13.05c-12.073,4.757-23.883,10.282-36.172,14.377
	c-56.396,18.791-114.868,27.095-173.686,33.336c-20.01,2.123-40.16,2.942-60.162,5.124c-16.604,1.811-27.758,13.614-27.482,27.577
	c0.302,15.274,12.573,26.019,30.186,26.381C7341.023,7962.841,7344.917,7962.772,7348.811,7962.772z M7163.15,7965.545
	c0.001,0.265,0.003,0.529,0.004,0.794c14.938,0,29.878,0.199,44.812-0.049c19.5-0.324,31.12-10.648,31.08-27.15
	c-0.038-15.448-11.092-25.957-29.599-26.91c-30.48-1.568-60.982-2.809-91.49-3.688c-17.848-0.515-30.269,10.021-31.115,25.232
	c-0.871,15.663,9.937,27.238,27.688,28.753C7130.705,7963.908,7146.941,7964.568,7163.15,7965.545z"/>
<path style="fill:#513A2A;" d="M7381.69,7048.663c4.284-7.415,7.879-14.053,11.853-20.456
	c84.311-135.859,199.954-238.066,338.876-315.205c56.53-31.389,114.895-58.611,179.644-67.381c21.52-2.915,44.37-2.545,65.712,1.31
	c31.747,5.734,37.809,24.888,18.422,50.123c-8.7,11.325-18.703,21.64-27.663,32.776c-8.136,10.112-16.423,20.237-23.318,31.191
	c-25.857,41.077-26.053,82.139,4.928,119.461c27.252,32.83,58.917,62.073,89.379,92.145
	c46.671,46.072,96.902,88.897,140.381,137.764c77.75,87.387,113.731,192.207,116.379,309.037
	c0.743,32.803-11.54,57.977-36.277,77.985c-34.584,27.973-75.289,43.353-117.386,55.225
	c-91.929,25.925-186.272,35.549-281.295,38.876c-47.395,1.659-94.89,0.312-142.335,0.802c-10.747,0.111-17.812-3.143-24.043-12.48
	c-38.597-57.829-88.75-105.017-140.375-150.828c-29.117-25.837-57.97-51.984-86.496-78.471
	c-9.485-8.807-18.256-18.586-26.192-28.821c-25.534-32.935-24.381-54.833,3.064-86.525c13.172-15.211,26.685-30.258,38.454-46.53
	c37.949-52.473,19.115-109.652-42.911-129.077C7422.748,7054.027,7403.707,7052.616,7381.69,7048.663z M7926.552,7498.504
	c14.41-1.521,29.299-2.811,44.11-4.705c69.027-8.827,137.871-18.881,202.478-46.511c15.948-6.82,31.309-15.919,45.268-26.233
	c13.485-9.964,14.207-26.036,4.583-37.94c-9.051-11.194-22.655-11.855-36.837-4.978c-25.537,12.385-51.043,25.692-77.958,34.204
	c-58.45,18.486-119.229,25.667-180.122,31.252c-7.088,0.65-14.377,1.051-21.124,3.068c-13.022,3.894-20.55,15.751-19.09,28.177
	c1.516,12.897,10.983,22.152,24.601,23.59C7916.951,7498.903,7921.534,7498.504,7926.552,7498.504z"/>
<path style="fill:#513A2A;" d="M7032.517,7201.755c-164.977,123.302-280.896,279.166-341.037,475.455
	c-43.183,0-85.373,1.252-127.463-0.258c-89.771-3.222-179.018-11.751-266.326-34.308c-46.101-11.91-90.676-27.56-130.093-55.509
	c-32.787-23.249-48.79-54.028-47.913-94.605c2.172-100.466,26.909-195.554,69.414-285.848
	c103.961-220.844,274.618-369.922,499.78-458.955c36.471-14.421,74.854-22.29,114.472-19.126
	c11.426,0.912,23.398,3.397,33.692,8.213c17.979,8.411,21.065,21.749,9.63,38.142c-8.518,12.211-18.971,23.055-28.173,34.812
	c-10.392,13.279-21.629,26.133-30.238,40.524c-21.195,35.431-23.248,72.659,1.717,106.293c20.761,27.971,44.845,53.87,69.886,78.185
	c48.462,47.057,98.759,92.22,147.979,138.506C7016.258,7181.191,7023.097,7190.781,7032.517,7201.755z M6575.404,7588.271
	c7.106,0,20.079,0,33.053-0.001c1.297,0,2.596,0.015,3.893-0.024c18.902-0.577,29.992-9.647,30.878-25.248
	c0.925-16.293-10.503-27.906-29.608-28.848c-30.447-1.501-60.919-2.558-91.391-3.459c-17.599-0.52-30.214,9.976-31.23,25.186
	c-0.998,14.933,10.282,26.834,28.046,28.525C6535.826,7585.998,6552.688,7586.752,6575.404,7588.271z"/>
<path style="fill:#FFFFFF;" d="M7348.811,7962.772c-3.893,0-7.788,0.068-11.679-0.012c-17.612-0.362-29.883-11.107-30.186-26.381
	c-0.276-13.963,10.878-25.766,27.482-27.577c20.002-2.182,40.152-3,60.162-5.124c58.818-6.241,117.29-14.546,173.686-33.336
	c12.29-4.095,24.099-9.621,36.172-14.377c16.87-6.647,30.984-1.704,37.584,13.05c6.148,13.742,1.526,29.031-14.528,35.099
	c-33.291,12.583-66.776,26.233-101.436,33.258c-58.42,11.841-117.816,18.868-176.801,27.919
	C7349.116,7964.452,7348.963,7963.612,7348.811,7962.772z"/>
<path style="fill:#FFFFFF;" d="M7163.15,7965.545c-16.209-0.978-32.445-1.638-48.62-3.018c-17.75-1.515-28.559-13.091-27.688-28.753
	c0.846-15.211,13.267-25.747,31.115-25.232c30.507,0.879,61.01,2.12,91.49,3.688c18.506,0.953,29.561,11.462,29.599,26.91
	c0.041,16.502-11.579,26.826-31.08,27.15c-14.933,0.249-29.874,0.049-44.812,0.049
	C7163.153,7966.075,7163.151,7965.81,7163.15,7965.545z"/>
<path style="fill:#FFFFFF;" d="M7926.552,7498.504c-5.019,0-9.601,0.399-14.091-0.075c-13.618-1.438-23.084-10.693-24.601-23.59
	c-1.46-12.426,6.067-24.283,19.09-28.177c6.747-2.017,14.036-2.418,21.124-3.068c60.893-5.584,121.671-12.766,180.122-31.252
	c26.914-8.512,52.42-21.819,77.958-34.204c14.182-6.877,27.787-6.217,36.837,4.978c9.624,11.904,8.902,27.976-4.583,37.94
	c-13.959,10.314-29.319,19.413-45.268,26.233c-64.607,27.63-133.451,37.684-202.478,46.511
	C7955.851,7495.693,7940.962,7496.982,7926.552,7498.504z"/>
<path style="fill:#FFFFFF;" d="M6575.404,7588.271c-22.717-1.519-39.578-2.272-56.359-3.87
	c-17.765-1.69-29.044-13.592-28.046-28.525c1.017-15.21,13.631-25.706,31.23-25.186c30.472,0.901,60.944,1.958,91.391,3.459
	c19.105,0.942,30.533,12.554,29.608,28.848c-0.886,15.601-11.976,24.671-30.878,25.248c-1.297,0.04-2.595,0.024-3.893,0.024
	C6595.483,7588.271,6582.51,7588.271,6575.404,7588.271z"/>
</svg>
