<?xml version="1.0" encoding="utf-8"?>
<!-- Generator: Adobe Illustrator 25.3.1, SVG Export Plug-In . SVG Version: 6.00 Build 0)  -->
<svg version="1.1" id="Layer_1" xmlns="http://www.w3.org/2000/svg" xmlns:xlink="http://www.w3.org/1999/xlink" x="0px" y="0px"
	 viewBox="0 0 1238.3 804.5" style="enable-background:new 0 0 1238.3 804.5;" xml:space="preserve">
<style type="text/css">
	.st0{fill:#513A2A;}
	.st1{fill:#FFFFFF;}
</style>
<path class="st0" d="M630.1,804.5c-63.8-1-127.1-5.6-189.2-21.3c-23.7-6-46.8-13.8-67.8-26.8c-22.8-14-36.4-33.2-33.9-61.3
	c1.3-14.7,1.5-29.6,3.9-44.1c14.3-87.2,51.5-163.6,109.4-230.2c54.9-63.1,121.2-110.1,198.2-142.2c21.3-8.9,43.4-15.2,66.6-15.4
	c9.4-0.1,19.3,1.1,28.2,4.1c11.6,3.9,13.9,12.8,6.8,22.7c-5.8,8.1-12.5,15.5-19,23.1c-30.8,36.5-31.5,64,1.1,98.8
	c21.2,22.6,45,42.7,68.1,63.4c36.3,32.6,68.9,68.1,91,112.2c19.4,38.5,27.4,79.4,26.9,122.3c-0.2,17.4-8.1,31.3-22.1,40.1
	c-15.2,9.6-31.3,18.4-48.1,24.5c-45.9,16.7-94,22.7-142.4,26.4C681.8,802.8,655.9,803.3,630.1,804.5z M699.3,750.4
	c0.1,0.5,0.2,1,0.3,1.4c33.6-5.1,67.3-9.1,100.6-15.9c19.7-4,38.8-11.8,57.7-18.9c9.1-3.5,11.8-12.1,8.3-20
	c-3.8-8.4-11.8-11.2-21.4-7.4c-6.9,2.7-13.6,5.8-20.6,8.2c-32.1,10.7-65.3,15.4-98.8,19c-11.4,1.2-22.8,1.7-34.2,2.9
	c-9.4,1-15.8,7.7-15.6,15.7c0.2,8.7,7.2,14.8,17.2,15C694.8,750.4,697,750.4,699.3,750.4z M593.6,752c0,0.2,0,0.3,0,0.5
	c8.5,0,17,0.1,25.5,0c11.1-0.2,17.7-6.1,17.7-15.4c0-8.8-6.3-14.8-16.8-15.3c-17.3-0.9-34.7-1.6-52-2.1
	c-10.2-0.3-17.2,5.7-17.7,14.4c-0.5,8.9,5.7,15.5,15.8,16.4C575.2,751.1,584.4,751.4,593.6,752z"/>
<path class="st0" d="M718,230.4c2.4-4.2,4.5-8,6.7-11.6c48-77.3,113.8-135.4,192.8-179.3c32.2-17.9,65.4-33.3,102.2-38.3
	c12.2-1.7,25.2-1.4,37.4,0.7c18.1,3.3,21.5,14.2,10.5,28.5c-4.9,6.4-10.6,12.3-15.7,18.6c-4.6,5.8-9.3,11.5-13.3,17.7
	c-14.7,23.4-14.8,46.7,2.8,68c15.5,18.7,33.5,35.3,50.8,52.4c26.6,26.2,55.1,50.6,79.9,78.4c44.2,49.7,64.7,109.3,66.2,175.8
	c0.4,18.7-6.6,33-20.6,44.4c-19.7,15.9-42.8,24.7-66.8,31.4c-52.3,14.7-106,20.2-160,22.1c-27,0.9-54,0.2-81,0.5
	c-6.1,0.1-10.1-1.8-13.7-7.1c-22-32.9-50.5-59.7-79.9-85.8c-16.6-14.7-33-29.6-49.2-44.6c-5.4-5-10.4-10.6-14.9-16.4
	c-14.5-18.7-13.9-31.2,1.7-49.2c7.5-8.7,15.2-17.2,21.9-26.5c21.6-29.9,10.9-62.4-24.4-73.4C741.3,233.4,730.5,232.6,718,230.4z
	 M1027.9,486.3c8.2-0.9,16.7-1.6,25.1-2.7c39.3-5,78.4-10.7,115.2-26.5c9.1-3.9,17.8-9.1,25.8-14.9c7.7-5.7,8.1-14.8,2.6-21.6
	c-5.1-6.4-12.9-6.7-21-2.8c-14.5,7-29,14.6-44.3,19.5c-33.3,10.5-67.8,14.6-102.5,17.8c-4,0.4-8.2,0.6-12,1.7
	c-7.4,2.2-11.7,9-10.9,16c0.9,7.3,6.2,12.6,14,13.4C1022.5,486.5,1025.1,486.3,1027.9,486.3z"/>
<path class="st0" d="M519.3,317.5c-93.9,70.1-159.8,158.8-194,270.5c-24.6,0-48.6,0.7-72.5-0.1c-51.1-1.8-101.8-6.7-151.5-19.5
	c-26.2-6.8-51.6-15.7-74-31.6C8.6,523.5-0.5,506,0,482.9c1.2-57.2,15.3-111.2,39.5-162.6C98.7,194.6,195.7,109.8,323.8,59.2
	c20.7-8.2,42.6-12.7,65.1-10.9c6.5,0.5,13.3,1.9,19.2,4.7c10.2,4.8,12,12.4,5.5,21.7c-4.8,6.9-10.8,13.1-16,19.8
	c-5.9,7.6-12.3,14.9-17.2,23.1c-12.1,20.2-13.2,41.3,1,60.5c11.8,15.9,25.5,30.6,39.8,44.5c27.6,26.8,56.2,52.5,84.2,78.8
	C510.1,305.8,514,311.2,519.3,317.5z M259.3,537.4c4,0,11.4,0,18.8,0c0.7,0,1.5,0,2.2,0c10.8-0.3,17.1-5.5,17.6-14.4
	c0.5-9.3-6-15.9-16.8-16.4c-17.3-0.9-34.7-1.5-52-2c-10-0.3-17.2,5.7-17.8,14.3c-0.6,8.5,5.8,15.3,16,16.2
	C236.8,536.1,246.4,536.5,259.3,537.4z"/>
<path class="st1" d="M699.3,750.4c-2.2,0-4.4,0-6.6,0c-10-0.2-17-6.3-17.2-15c-0.2-7.9,6.2-14.7,15.6-15.7
	c11.4-1.2,22.8-1.7,34.2-2.9c33.5-3.6,66.7-8.3,98.8-19c7-2.3,13.7-5.5,20.6-8.2c9.6-3.8,17.6-1,21.4,7.4c3.5,7.8,0.9,16.5-8.3,20
	c-18.9,7.2-38,14.9-57.7,18.9c-33.2,6.7-67,10.7-100.6,15.9C699.4,751.4,699.3,750.9,699.3,750.4z"/>
<path class="st1" d="M593.6,752c-9.2-0.6-18.5-0.9-27.7-1.7c-10.1-0.9-16.2-7.4-15.8-16.4c0.5-8.7,7.5-14.6,17.7-14.4
	c17.4,0.5,34.7,1.2,52,2.1c10.5,0.5,16.8,6.5,16.8,15.3c0,9.4-6.6,15.3-17.7,15.4c-8.5,0.1-17,0-25.5,0
	C593.6,752.3,593.6,752.1,593.6,752z"/>
<path class="st1" d="M1027.9,486.3c-2.9,0-5.5,0.2-8,0c-7.7-0.8-13.1-6.1-14-13.4c-0.8-7.1,3.5-13.8,10.9-16c3.8-1.1,8-1.4,12-1.7
	c34.6-3.2,69.2-7.3,102.5-17.8c15.3-4.8,29.8-12.4,44.3-19.5c8.1-3.9,15.8-3.5,21,2.8c5.5,6.8,5.1,15.9-2.6,21.6
	c-7.9,5.9-16.7,11-25.8,14.9c-36.8,15.7-75.9,21.4-115.2,26.5C1044.6,484.7,1036.1,485.4,1027.9,486.3z"/>
<path class="st1" d="M259.3,537.4c-12.9-0.9-22.5-1.3-32.1-2.2c-10.1-1-16.5-7.7-16-16.2c0.6-8.7,7.8-14.6,17.8-14.3
	c17.3,0.5,34.7,1.1,52,2c10.9,0.5,17.4,7.1,16.8,16.4c-0.5,8.9-6.8,14-17.6,14.4c-0.7,0-1.5,0-2.2,0
	C270.7,537.4,263.3,537.4,259.3,537.4z"/>
</svg>
