<?xml version="1.0" encoding="iso-8859-1"?>
<!-- Generator: Adobe Illustrator 25.3.1, SVG Export Plug-In . SVG Version: 6.00 Build 0)  -->
<svg version="1.1" id="Layer_1" xmlns="http://www.w3.org/2000/svg" xmlns:xlink="http://www.w3.org/1999/xlink" x="0px" y="0px"
	 viewBox="0 0 14400 14400" style="enable-background:new 0 0 14400 14400;" xml:space="preserve">
<path style="fill:#F7991D;" d="M8088.566,7660.471c0,384.507-254.453,742.156-672.181,943.599
	c-35.341,16.963-71.389,33.22-108.85,48.063c-65.734,26.152-133.588,47.356-203.562,65.026c-12.723,3.534-26.152,6.361-39.582,9.188
	c-126.52,28.273-257.281,42.409-389.455,42.409c-781.031,0-1413.63-496.185-1413.63-1108.286
	c0-573.227,556.97-1051.741,1285.697-1104.045c42.409-2.827,84.818-4.241,127.934-4.241
	C7455.967,6552.184,8088.566,7048.369,8088.566,7660.471z"/>
<path style="fill:#00A653;" d="M6674.936,6986.875c-28.979,0-53.011-21.204-53.011-48.063c0-3.534,0.707-7.068,1.414-9.895
	c43.823-181.652,65.734-366.837,65.734-552.729c0-166.102-18.377-332.203-53.718-495.478c-5.655-26.152,12.723-50.891,41.702-56.545
	c28.979-4.948,56.545,12.016,62.2,37.461c36.754,168.929,55.131,341.392,55.838,513.854c0,192.96-22.618,384.507-68.562,573.227
	C6721.586,6971.326,6699.674,6986.875,6674.936,6986.875z"/>
<path style="fill:#E37626;" d="M6547.002,6556.425c-4.948,5.654-10.602,11.309-16.257,16.963
	c-138.536,140.656-411.366,221.233-725.899,212.751C6018.305,6655.379,6276.292,6575.509,6547.002,6556.425z"/>
<path style="fill:#00A653;" d="M6530.039,6446.162c105.315-122.986,146.311-276.365,146.311-276.365
	c25.445-97.541,29.686-199.322,10.602-298.276c-113.09-1.414-224.767,20.498-326.548,64.32
	c-131.468,56.545-209.924,135.002-272.831,200.029c-152.672,156.913-320.188,335.737-497.598,534.352
	C5991.446,6739.49,6361.11,6644.07,6530.039,6446.162z"/>
<path style="fill:#00A653;" d="M5850.083,6686.479c-36.754-3.534-63.613-32.513-60.079-65.734
	c1.414-12.016,6.361-23.325,14.843-32.513c149.845-166.102,292.622-316.653,424.089-452.362
	c62.907-65.027,140.656-142.777,272.831-200.029c59.373-25.445,122.279-43.823,187.306-54.425c-0.707-3.534-1.414-7.068-1.414-9.896
	c-113.09-1.414-224.767,20.498-326.549,64.32c-131.467,56.545-209.924,135.001-272.831,200.029
	c-152.672,156.913-320.187,335.737-497.598,534.352c107.436,18.377,217.699,25.445,327.255,20.498
	C5895.319,6690.013,5872.701,6688.6,5850.083,6686.479z"/>
<path style="fill:#00A653;" d="M6297.497,6379.721c-28.979,0-53.011-21.204-53.011-48.063c0-10.602,3.534-20.498,10.603-28.979
	l389.455-460.137c17.67-21.204,50.891-24.738,74.216-9.188c23.325,15.55,27.565,45.943,9.895,67.147l0,0l-389.455,460.137
	C6330.01,6373.36,6314.46,6379.721,6297.497,6379.721z"/>
<ellipse style="fill:#E37626;" cx="5791.417" cy="7243.364" rx="53.011" ry="53.331"/>
<ellipse style="fill:#E37626;" cx="5932.78" cy="7463.017" rx="53.011" ry="53.331"/>
<ellipse style="fill:#E37626;" cx="5579.373" cy="7745.944" rx="53.011" ry="53.331"/>
<ellipse style="fill:#E37626;" cx="5642.986" cy="7463.017" rx="53.011" ry="53.331"/>
<ellipse style="fill:#E37626;" cx="5855.03" cy="7738.713" rx="53.011" ry="53.331"/>
<ellipse style="fill:#E37626;" cx="6049.404" cy="7686.286" rx="53.011" ry="53.331"/>
<ellipse style="fill:#E37626;" cx="5996.394" cy="7958.366" rx="53.011" ry="53.331"/>
<ellipse style="fill:#E37626;" cx="5749.008" cy="7958.366" rx="53.011" ry="53.331"/>
<path style="fill:#FDC475;" d="M8635.642,7340.283c243.852,508.2,16.964,1123.836-507.494,1375.463
	c-524.457,251.626-1147.161,43.822-1391.012-464.378L8635.642,7340.283z"/>
<path style="fill:#FAA827;" d="M8458.23,7425.101c197.202,411.367,12.017,911.084-414.193,1115.355
	c-426.21,204.27-931.583,36.754-1129.491-374.612L8458.23,7425.101z"/>
<path style="fill:#F7991D;" d="M7416.385,8604.069c-35.341,16.963-71.389,33.22-108.85,48.063
	c-65.734,26.152-133.588,47.356-203.562,65.026c-429.037-120.158-714.59-438.932-714.59-795.874h212.044
	C6600.72,8286.002,6955.542,8583.571,7416.385,8604.069z"/>
<path style="fill:#FAA827;" d="M8635.642,7340.283c243.852,508.2,16.964,1123.836-507.494,1375.463
	c-524.457,251.626-1147.161,43.822-1391.012-464.378l177.411-84.818c197.201,411.367,703.281,579.588,1129.491,374.612
	s611.396-703.988,414.193-1115.354L8635.642,7340.283z"/>
<path style="fill:#E37626;" d="M8094.307,8660.734L8094.307,8660.734c-27.966,12.85-60.468,2.268-73.317-24.942l0,0
	l-297.048-627.354c-12.849-26.455-0.756-58.956,26.455-71.806l0,0c27.966-12.849,60.468-2.267,73.317,24.943l0,0l297.048,627.354
	C8133.61,8615.384,8122.273,8647.886,8094.307,8660.734z M8569.735,8134.665c-13.605,6.047-28.723,7.559-42.328,3.023
	l-676.484-226.754c-28.722-9.826-43.083-40.06-32.501-68.782c10.582-27.966,42.327-43.083,70.293-34.013l676.484,225.999
	c28.722,9.826,43.083,40.06,32.501,68.782C8593.166,8116.524,8582.584,8127.862,8569.735,8134.665z M7393.636,8711.376
	c-27.211,13.605-60.468,2.268-73.317-24.187c-6.047-12.85-6.803-27.967-1.512-41.572l249.43-674.972
	c10.582-27.966,42.328-43.083,70.293-34.013c27.966,9.07,43.083,40.06,32.501,68.782l-249.43,674.973
	C7417.823,8693.992,7407.241,8705.33,7393.636,8711.376z M6675.643,7012.321c-79.164,0-157.62-15.407-230.422-45.366
	c-26.859-11.127-39.582-40.23-27.566-65.909c11.309-25.679,42.409-37.663,69.975-26.535l0,0
	c67.854,28.247,142.07,40.23,216.286,35.951c54.425-3.424,108.85-15.408,159.033-35.951c26.859-11.128,57.959,0.856,69.975,26.535
	c11.31,25.679-0.707,54.782-27.565,65.909l0,0c-61.493,25.679-127.227,40.23-194.375,44.51
	C6698.968,7012.321,6686.952,7012.321,6675.643,7012.321z"/>
<path style="fill:#E0E0E2;" d="M7873.695,7706.414c48.063,99.661,3.534,221.233-99.661,270.71
	c-103.195,49.477-225.474,8.482-273.538-91.179L7873.695,7706.414z"/>
</svg>
