<?xml version="1.0" encoding="utf-8"?>
<!-- Generator: Adobe Illustrator 25.3.1, SVG Export Plug-In . SVG Version: 6.00 Build 0)  -->
<svg version="1.1" id="Layer_1" xmlns="http://www.w3.org/2000/svg" xmlns:xlink="http://www.w3.org/1999/xlink" x="0px" y="0px"
	 viewBox="0 0 1975.4 1706.3" style="enable-background:new 0 0 1975.4 1706.3;" xml:space="preserve">
<style type="text/css">
	.st0{fill:#F7991D;}
	.st1{fill:#00A653;}
	.st2{fill:#E37626;}
	.st3{fill:#FDC475;}
	.st4{fill:#FAA827;}
	.st5{fill:#E0E0E2;}
</style>
<path class="st0" d="M1608.4,1045.1c0,218.7-144.8,422.2-382.4,536.8c-20.1,9.6-40.6,18.9-61.9,27.3c-37.4,14.9-76,26.9-115.8,37
	c-7.2,2-14.9,3.6-22.5,5.2c-72,16.1-146.4,24.1-221.6,24.1C359.9,1675.6,0,1393.4,0,1045.1C0,719,316.9,446.8,731.4,417.1
	c24.1-1.6,48.3-2.4,72.8-2.4C1248.5,414.7,1608.4,696.9,1608.4,1045.1z"/>
<path class="st1" d="M804.2,661.9c-16.5,0-30.2-12.1-30.2-27.3c0-2,0.4-4,0.8-5.6c24.9-103.3,37.4-208.7,37.4-314.4
	c0-94.5-10.5-189-30.6-281.9c-3.2-14.9,7.2-29,23.7-32.2c16.5-2.8,32.2,6.8,35.4,21.3c20.9,96.1,31.4,194.2,31.8,292.3
	c0,109.8-12.9,218.7-39,326.1C830.7,653.1,818.3,661.9,804.2,661.9z"/>
<path class="st2" d="M731.4,417.1c-2.8,3.2-6,6.4-9.2,9.6c-78.8,80-234,125.9-413,121C430.6,473.4,577.4,427.9,731.4,417.1z"/>
<path class="st1" d="M721.8,354.3c59.9-70,83.2-157.2,83.2-157.2c14.5-55.5,16.9-113.4,6-169.7C746.7,26.6,683.2,39.1,625.3,64
	c-74.8,32.2-119.4,76.8-155.2,113.8c-86.9,89.3-182.2,191-283.1,304C415.4,521.2,625.7,466.9,721.8,354.3z"/>
<path class="st1" d="M334.9,491c-20.9-2-36.2-18.5-34.2-37.4c0.8-6.8,3.6-13.3,8.4-18.5c85.2-94.5,166.5-180.1,241.3-257.3
	c35.8-37,80-81.2,155.2-113.8c33.8-14.5,69.6-24.9,106.6-31c-0.4-2-0.8-4-0.8-5.6C747.1,26.6,683.6,39.1,625.7,64
	c-74.8,32.2-119.4,76.8-155.2,113.8c-86.9,89.3-182.2,191-283.1,304c61.1,10.5,123.8,14.5,186.2,11.7
	C360.7,493.1,347.8,492.3,334.9,491z"/>
<path class="st1" d="M589.5,316.5c-16.5,0-30.2-12.1-30.2-27.3c0-6,2-11.7,6-16.5L786.9,10.9c10.1-12.1,29-14.1,42.2-5.2
	c13.3,8.8,15.7,26.1,5.6,38.2l0,0L613.2,305.7C608,312.9,599.1,316.5,589.5,316.5z"/>
<ellipse class="st2" cx="301.6" cy="807.9" rx="30.2" ry="30.3"/>
<ellipse class="st2" cx="382" cy="932.8" rx="30.2" ry="30.3"/>
<ellipse class="st2" cx="180.9" cy="1093.8" rx="30.2" ry="30.3"/>
<ellipse class="st2" cx="217.1" cy="932.8" rx="30.2" ry="30.3"/>
<ellipse class="st2" cx="337.8" cy="1089.7" rx="30.2" ry="30.3"/>
<ellipse class="st2" cx="448.3" cy="1059.8" rx="30.2" ry="30.3"/>
<ellipse class="st2" cx="418.2" cy="1214.6" rx="30.2" ry="30.3"/>
<ellipse class="st2" cx="277.4" cy="1214.6" rx="30.2" ry="30.3"/>
<path class="st3" d="M1919.6,863c138.7,289.1,9.7,639.3-288.7,782.5c-298.4,143.1-652.6,24.9-791.3-264.2L1919.6,863z"/>
<path class="st4" d="M1818.7,911.2c112.2,234,6.8,518.3-235.6,634.5c-242.5,116.2-530,20.9-642.6-213.1L1818.7,911.2z"/>
<path class="st0" d="M1226,1581.9c-20.1,9.7-40.6,18.9-61.9,27.3c-37.4,14.9-76,26.9-115.8,37c-244.1-68.4-406.5-249.7-406.5-452.8
	h120.6C762,1401,963.8,1570.3,1226,1581.9z"/>
<path class="st4" d="M1919.6,863c138.7,289.1,9.7,639.3-288.7,782.5c-298.4,143.1-652.6,24.9-791.3-264.2l100.9-48.3
	c112.2,234,400.1,329.7,642.6,213.1s347.8-400.5,235.6-634.5L1919.6,863z"/>
<path class="st2" d="M1611.7,1614.2L1611.7,1614.2c-15.9,7.3-34.4,1.3-41.7-14.2l0,0l-169-356.9c-7.3-15.1-0.4-33.5,15.1-40.8l0,0
	c15.9-7.3,34.4-1.3,41.7,14.2l0,0l169,356.9C1634,1588.4,1627.6,1606.9,1611.7,1614.2z M1882.1,1314.9c-7.7,3.4-16.3,4.3-24.1,1.7
	l-384.8-129c-16.3-5.6-24.5-22.8-18.5-39.1c6-15.9,24.1-24.5,40-19.3l384.8,128.6c16.3,5.6,24.5,22.8,18.5,39.1
	C1895.5,1304.6,1889.4,1311,1882.1,1314.9z M1213.1,1643c-15.5,7.7-34.4,1.3-41.7-13.8c-3.4-7.3-3.9-15.9-0.9-23.7l141.9-384
	c6-15.9,24.1-24.5,40-19.3c15.9,5.2,24.5,22.8,18.5,39.1l-141.9,384C1226.8,1633.1,1220.8,1639.6,1213.1,1643z M804.6,676.4
	c-45,0-89.7-8.8-131.1-25.8c-15.3-6.3-22.5-22.9-15.7-37.5c6.4-14.6,24.1-21.4,39.8-15.1l0,0c38.6,16.1,80.8,22.9,123,20.5
	c31-1.9,61.9-8.8,90.5-20.5c15.3-6.3,33,0.5,39.8,15.1c6.4,14.6-0.4,31.2-15.7,37.5l0,0c-35,14.6-72.4,22.9-110.6,25.3
	C817.9,676.4,811,676.4,804.6,676.4z"/>
<path class="st5" d="M1486.2,1071.3c27.3,56.7,2,125.9-56.7,154c-58.7,28.1-128.3,4.8-155.6-51.9L1486.2,1071.3z"/>
</svg>
