<?xml version="1.0" encoding="iso-8859-1"?>
<!-- Generator: Adobe Illustrator 25.3.1, SVG Export Plug-In . SVG Version: 6.00 Build 0)  -->
<svg version="1.1" id="Layer_1" xmlns="http://www.w3.org/2000/svg" xmlns:xlink="http://www.w3.org/1999/xlink" x="0px" y="0px"
	 viewBox="0 0 14400 14400" style="enable-background:new 0 0 14400 14400;" xml:space="preserve">
<g>
	<path style="fill-rule:evenodd;clip-rule:evenodd;fill:#FFB300;" d="M8627.212,5797.352
		c-146.626-146.626-434.623-116.35-781.92,51.294c-283.243,136.867-611.024,366.063-933.3,663.318
		c-67.308-258.472-230.197-483.915-527.702-629.54c-109.344-53.546-250.965-94.081-385.331-114.598
		c267.479,159.637,456.141,342.043,521.197,543.216c225.443,699.349-826.959,1076.923-696.847,1742.494
		c-5.004,19.016-9.508,37.532-13.512,55.798c-113.848,112.597-247.962,244.96-92.079,397.091l217.937,217.937
		c131.613,125.357,274.986-11.26,371.569-107.843c16.264-3.252,32.528-7.006,49.292-11.259
		c833.214,144.373,1351.909-1596.87,2300.722-163.891c-20.017-114.599-47.54-227.945-93.58-339.291
		c-134.365-324.028-372.069-509.937-651.308-589.005c297.505-322.526,526.952-650.558,663.819-934.051
		C8743.562,6231.975,8774.088,5943.978,8627.212,5797.352L8627.212,5797.352L8627.212,5797.352z"/>
	<path style="fill-rule:evenodd;clip-rule:evenodd;fill:#5E990B;" d="M6911.991,6511.964
		c-67.308-258.472-230.197-483.915-527.702-629.54c-109.344-53.546-250.965-94.081-385.331-114.598
		c267.479,159.637,456.141,342.043,521.197,543.216c225.443,699.349-826.959,1076.923-696.847,1742.494
		c-5.004,19.016-9.508,37.532-13.512,55.798c-113.848,112.597-247.962,244.96-92.079,397.091l217.937,217.937
		c79.568,75.815,163.39,55.798,238.455,7.006c-80.319,49.793-152.631,57.049-214.434,11.51l762.654-1052.402
		c120.103-59.551,248.713-109.344,380.577-145.875c-134.115,37.032-264.727,87.825-386.832,148.877
		C6931.008,7284.877,6993.562,6891.54,6911.991,6511.964L6911.991,6511.964z M8531.88,8032.268
		c-2.502-5.004-5.004-10.009-7.756-15.013C8526.876,8022.51,8529.378,8027.264,8531.88,8032.268L8531.88,8032.268z
		 M8514.865,7998.989c-1.251-2.502-2.752-5.004-4.003-7.506C8512.113,7993.985,8513.614,7996.487,8514.865,7998.989
		L8514.865,7998.989z M8497.101,7966.962c-2.002-3.503-4.254-7.006-6.256-10.509
		C8493.097,7960.206,8495.099,7963.459,8497.101,7966.962L8497.101,7966.962z M8478.584,7936.186
		c-2.502-4.003-5.004-7.757-7.506-11.76C8473.58,7928.429,8476.082,7932.182,8478.584,7936.186L8478.584,7936.186z
		 M8459.568,7906.41c-3.253-4.754-6.506-9.508-9.759-14.262C8452.812,7897.152,8456.315,7901.656,8459.568,7906.41L8459.568,7906.41
		z M8439.551,7877.886c-3.753-5.004-7.506-10.009-11.26-15.013C8432.045,7867.877,8435.798,7872.881,8439.551,7877.886
		L8439.551,7877.886z M8418.783,7850.362c-3.503-4.504-7.256-9.008-11.01-13.512
		C8411.527,7841.354,8415.28,7845.858,8418.783,7850.362L8418.783,7850.362z M8397.515,7823.839
		c-3.002-3.753-6.255-7.256-9.258-10.759C8391.26,7816.583,8394.513,7820.336,8397.515,7823.839L8397.515,7823.839z
		 M8375.496,7798.567c-3.503-4.003-7.256-7.756-10.759-11.51C8368.24,7790.811,8371.993,7794.564,8375.496,7798.567
		L8375.496,7798.567z M8352.977,7774.297c-4.003-4.004-8.007-8.007-12.01-12.011
		C8344.97,7766.29,8348.974,7770.293,8352.977,7774.297L8352.977,7774.297z M8329.707,7751.027
		c-4.004-4.004-8.257-7.757-12.261-11.51C8321.45,7743.27,8325.453,7747.023,8329.707,7751.027L8329.707,7751.027z
		 M8305.937,7729.008c-4.004-3.753-8.257-7.256-12.261-10.759C8297.68,7721.751,8301.683,7725.254,8305.937,7729.008
		L8305.937,7729.008z M8281.415,7707.74c-4.504-3.753-9.007-7.256-13.511-10.759
		C8272.408,7700.483,8276.911,7703.986,8281.415,7707.74L8281.415,7707.74z M8256.394,7687.723
		c-4.503-3.503-9.007-6.756-13.511-10.259C8247.387,7680.967,8251.891,7684.219,8256.394,7687.723L8256.394,7687.723z
		 M8230.622,7668.456c-4.254-3.003-8.758-6.005-13.011-9.008C8222.114,7662.201,8226.368,7665.203,8230.622,7668.456
		L8230.622,7668.456z M8204.85,7650.19c-4.754-3.253-9.508-6.255-14.262-9.258C8195.092,7644.185,8200.096,7647.188,8204.85,7650.19
		L8204.85,7650.19z M8178.077,7633.176c-4.754-3.003-9.508-5.755-14.513-8.758
		C8168.569,7627.421,8173.323,7630.173,8178.077,7633.176L8178.077,7633.176z M8151.054,7616.912
		c-5.254-3.003-10.759-6.005-16.264-9.008C8140.294,7610.907,8145.799,7613.909,8151.054,7616.912L8151.054,7616.912z
		 M8123.53,7601.649c-5.254-2.752-10.759-5.505-16.264-8.257C8112.771,7596.144,8118.275,7598.896,8123.53,7601.649
		L8123.53,7601.649z M8095.506,7587.387c-5.254-2.502-10.259-5.004-15.513-7.256
		C8084.997,7582.382,8090.251,7584.884,8095.506,7587.387L8095.506,7587.387z M8066.981,7574.125
		c-5.504-2.502-11.009-4.754-16.264-7.006C8055.972,7569.371,8061.477,7571.623,8066.981,7574.125L8066.981,7574.125z
		 M8038.207,7561.614c-5.505-2.252-11.26-4.504-17.015-6.756C8026.697,7557.11,8032.452,7559.112,8038.207,7561.614
		L8038.207,7561.614z M8008.932,7550.104c-6.005-2.252-12.261-4.504-18.266-6.506
		C7996.671,7545.601,8002.927,7547.853,8008.932,7550.104L8008.932,7550.104z M7979.407,7539.345
		c-6.005-2.002-12.261-4.003-18.266-6.005C7967.146,7535.342,7973.151,7537.344,7979.407,7539.345L7979.407,7539.345z
		 M7949.131,7529.587c-6.756-2.002-13.262-4.003-20.018-5.755C7935.869,7525.583,7942.625,7527.585,7949.131,7529.587
		L7949.131,7529.587z M7919.105,7520.83c-7.256-2.002-14.262-3.753-21.519-5.755
		C7904.592,7516.826,7911.849,7518.828,7919.105,7520.83L7919.105,7520.83z M7888.329,7512.823
		c-7.006-1.752-14.012-3.253-21.269-5.004C7874.316,7509.319,7881.323,7511.071,7888.329,7512.823L7888.329,7512.823z
		 M7857.302,7505.566c-7.256-1.501-14.513-3.003-21.769-4.504C7842.79,7502.564,7850.046,7503.815,7857.302,7505.566
		L7857.302,7505.566z M7826.025,7499.061c-7.256-1.251-14.512-2.502-21.769-3.753
		C7811.513,7496.559,7818.769,7497.81,7826.025,7499.061L7826.025,7499.061z M7794.498,7493.556
		c-7.506-1.251-15.263-2.252-23.02-3.503C7779.235,7491.304,7786.741,7492.305,7794.498,7493.556L7794.498,7493.556z
		 M7762.721,7488.802c-7.756-1-15.764-2.001-23.771-3.002C7746.957,7486.8,7754.964,7487.801,7762.721,7488.802L7762.721,7488.802z
		 M7730.693,7484.798c-8.257-1.001-16.264-1.751-24.521-2.502C7714.429,7483.297,7722.436,7484.048,7730.693,7484.798
		L7730.693,7484.798z M7698.666,7481.796c-8.257-0.75-16.765-1.251-25.021-1.751
		C7681.901,7480.545,7690.159,7481.045,7698.666,7481.796L7698.666,7481.796z M7666.138,7479.294
		c-8.257-0.5-16.764-1.001-25.271-1.251C7649.374,7478.543,7657.631,7478.793,7666.138,7479.294L7666.138,7479.294z
		 M7633.36,7477.792c-8.507-0.25-17.015-0.5-25.522-0.75C7616.345,7477.042,7624.853,7477.292,7633.36,7477.792L7633.36,7477.792z
		 M7600.582,7476.792c-8.758-0.25-17.265-0.25-26.022-0.25C7583.317,7476.542,7592.074,7476.792,7600.582,7476.792
		L7600.582,7476.792z M7567.804,7476.542c-9.008,0-18.016,0.25-27.023,0.5C7549.788,7476.792,7558.796,7476.792,7567.804,7476.542
		L7567.804,7476.542z M7534.775,7477.292c-9.758,0.25-19.767,0.751-29.525,1.251
		C7515.008,7477.792,7525.017,7477.542,7534.775,7477.292L7534.775,7477.292z M7501.997,7478.543
		c-9.508,0.5-18.766,1.001-28.274,1.751C7483.231,7479.544,7492.489,7479.043,7501.997,7478.543L7501.997,7478.543z
		 M7468.218,7480.545c-9.258,0.75-18.516,1.501-27.523,2.252C7449.953,7481.796,7459.21,7481.045,7468.218,7480.545
		L7468.218,7480.545z M7434.94,7483.047c-9.508,0.75-19.267,1.751-28.775,2.752
		C7415.673,7485.049,7425.432,7484.048,7434.94,7483.047L7434.94,7483.047z M7401.912,7486.55
		c-10.009,1.001-19.767,2.252-29.776,3.503C7382.145,7488.802,7391.903,7487.551,7401.912,7486.55L7401.912,7486.55z
		 M7368.383,7490.553c-10.259,1.251-20.518,2.752-30.776,4.254C7348.115,7493.306,7358.124,7491.805,7368.383,7490.553
		L7368.383,7490.553z M7335.104,7495.057c-10.509,1.501-20.768,3.253-31.277,5.004
		C7314.336,7498.31,7324.845,7496.559,7335.104,7495.057L7335.104,7495.057z M7301.826,7500.312
		c-10.759,1.751-21.519,3.753-32.278,5.755C7280.307,7504.065,7291.066,7502.063,7301.826,7500.312L7301.826,7500.312z
		 M7268.547,7506.067c-10.759,2.001-21.518,4.003-32.027,6.255C7247.279,7510.32,7257.788,7508.068,7268.547,7506.067
		L7268.547,7506.067z M7235.269,7512.823c-10.759,2.251-21.268,4.503-31.777,6.755
		C7214,7517.076,7224.509,7514.824,7235.269,7512.823L7235.269,7512.823z M7201.99,7519.829
		c-10.509,2.252-21.018,4.754-31.277,7.256C7180.972,7524.583,7191.481,7522.081,7201.99,7519.829L7201.99,7519.829z
		 M7168.461,7527.585c-10.759,2.502-21.519,5.254-32.528,8.007C7146.943,7532.84,7157.702,7530.087,7168.461,7527.585
		L7168.461,7527.585z M7135.683,7535.842c-11.009,2.752-21.769,5.755-32.778,8.757
		C7113.915,7541.597,7124.674,7538.595,7135.683,7535.842L7135.683,7535.842z"/>
	<path style="fill-rule:evenodd;clip-rule:evenodd;fill:#FFD33A;" d="M7901.84,6788.702
		c-77.817,86.574-161.139,175.901-248.963,266.729c-40.285-37.783-80.82-77.567-121.104-118.352
		c-54.297-55.047-107.843-111.846-158.386-168.145c91.579-88.326,181.405-171.897,268.48-250.214
		c50.293,57.549,103.839,115.099,158.135,170.646C7833.782,6723.396,7867.811,6756.674,7901.84,6788.702L7901.84,6788.702
		L7901.84,6788.702z"/>
	<path style="fill-rule:evenodd;clip-rule:evenodd;fill:#FFD33A;" d="M8195.092,6444.156
		c-65.307,82.07-138.619,169.396-218.688,260.474c-32.277-30.276-64.555-61.803-96.333-94.331
		c-53.295-54.046-105.34-110.345-154.382-166.143c90.828-79.568,177.652-152.38,259.473-217.186
		c40.285,47.291,82.321,93.08,125.607,136.867C8138.293,6391.361,8166.317,6418.384,8195.092,6444.156L8195.092,6444.156
		L8195.092,6444.156z"/>
	<path style="fill-rule:evenodd;clip-rule:evenodd;fill:#FFD33A;" d="M8130.036,6116.125
		c226.694-166.893,380.577-256.47,408.35-228.946c27.523,27.524-61.803,181.656-228.946,408.35
		c-14.513,19.517-29.525,39.534-45.039,60.052c-25.021-23.02-49.792-46.54-74.063-71.061
		c-40.285-40.535-79.068-82.821-116.35-126.608C8093.004,6143.398,8111.52,6129.387,8130.036,6116.125L8130.036,6116.125
		L8130.036,6116.125z"/>
	<path style="fill-rule:evenodd;clip-rule:evenodd;fill:#FFD33A;" d="M7512.256,6172.924
		c101.587-69.31,200.422-129.611,295.003-179.904c33.779,49.793,69.56,98.835,106.591,146.626
		c-82.321,65.556-169.896,138.869-261.224,218.688C7599.581,6293.527,7551.79,6230.723,7512.256,6172.924L7512.256,6172.924
		L7512.256,6172.924z"/>
	<path style="fill-rule:evenodd;clip-rule:evenodd;fill:#FFD33A;" d="M7877.819,7385.463
		c-30.025,33.279-60.552,66.557-92.079,99.835c-128.861-21.268-263.977-22.269-400.343-5.755
		c69.56-66.057,140.37-134.866,211.431-205.927c20.518-20.518,40.785-41.035,61.052-61.302
		C7736.448,7281.625,7811.763,7341.676,7877.819,7385.463L7877.819,7385.463L7877.819,7385.463z"/>
	<path style="fill-rule:evenodd;clip-rule:evenodd;fill:#FFD33A;" d="M8179.078,7014.896
		c-68.559,93.831-144.374,189.413-226.444,285.245c-63.554-40.535-137.868-99.335-216.185-168.395
		c87.825-90.828,171.146-180.404,249.213-267.229C8052.219,6922.566,8117.775,6974.111,8179.078,7014.896L8179.078,7014.896
		L8179.078,7014.896z"/>
	<path style="fill-rule:evenodd;clip-rule:evenodd;fill:#FFD33A;" d="M8427.541,6624.811
		c-51.545,95.582-112.847,195.918-183.407,298.506c-57.8-38.283-120.104-87.075-183.908-142.623
		c80.569-91.829,154.633-179.904,220.689-262.975C8328.456,6556.252,8377.248,6592.033,8427.541,6624.811L8427.541,6624.811
		L8427.541,6624.811z"/>
	<path style="fill-rule:evenodd;clip-rule:evenodd;fill:#FFD33A;" d="M8608.946,6017.541
		c14.513,125.858-32.528,302.009-130.362,506.434c-44.037-29.275-87.074-60.802-128.86-94.831
		c17.516-22.77,34.029-45.039,50.043-66.808C8498.352,6228.972,8569.913,6111.621,8608.946,6017.541L8608.946,6017.541
		L8608.946,6017.541z"/>
	<path style="fill-rule:evenodd;clip-rule:evenodd;fill:#FFD33A;" d="M7908.346,5941.976
		c202.173-95.832,376.322-141.371,500.679-126.358c-94.08,39.033-211.932,110.595-346.046,209.429
		c-19.767,14.513-39.784,29.525-60.302,45.289C7969.898,6028.55,7938.372,5985.763,7908.346,5941.976L7908.346,5941.976
		L7908.346,5941.976z"/>
	<path style="fill-rule:evenodd;clip-rule:evenodd;fill:#FFD33A;" d="M7574.56,7135.75c-19.017,19.266-38.033,38.533-57.299,57.799
		c-78.067,78.067-155.383,153.131-231.448,224.943c-45.039-42.536-90.328-87.075-134.866-132.614
		c-47.541-48.542-94.832-99.085-140.37-150.128c70.56-74.814,144.624-150.879,221.439-227.695
		c20.518-20.518,41.035-40.785,61.553-61.052c51.044,56.548,104.59,113.597,159.137,168.895
		C7492.739,7057.182,7533.774,7097.466,7574.56,7135.75L7574.56,7135.75L7574.56,7135.75z"/>
	<path style="fill-rule:evenodd;clip-rule:evenodd;fill:#FFD33A;" d="M7129.178,6467.927
		c97.834-83.822,195.668-160.888,291.5-230.448c41.786,60.802,92.329,127.109,148.377,195.167
		c-87.575,78.567-177.902,162.639-269.731,251.215C7232.767,6606.295,7174.216,6532.232,7129.178,6467.927L7129.178,6467.927
		L7129.178,6467.927z"/>
	<path style="fill-rule:evenodd;clip-rule:evenodd;fill:#FFD33A;" d="M6937.513,6640.825
		c35.531-33.779,71.061-66.557,106.842-98.334c47.291,66.307,107.092,141.622,174.149,219.938
		c-22.269,21.769-44.288,43.788-66.557,66.057c-76.315,76.315-149.878,151.88-220.189,226.444
		C6952.526,6914.31,6956.029,6774.439,6937.513,6640.825L6937.513,6640.825L6937.513,6640.825z"/>
	<path style="fill-rule:evenodd;clip-rule:evenodd;fill:#FFD33A;" d="M7061.119,7551.355
		c-112.596,36.031-222.941,80.569-330.784,134.365c64.556-132.113,118.352-273.234,156.885-416.857
		c15.263-16.764,30.776-33.528,46.29-50.543c43.538,48.291,89.827,97.333,137.118,146.125
		c44.038,45.289,88.826,89.327,132.864,130.862c-8.257,7.506-16.514,15.013-24.521,22.52
		C7139.437,7527.585,7100.153,7538.845,7061.119,7551.355L7061.119,7551.355L7061.119,7551.355z"/>
	<path style="fill-rule:evenodd;clip-rule:evenodd;fill:#537918;" d="M6341.002,8609.013c5.004-1.252,10.259-2.503,15.513-3.754
		c833.214,144.374,1351.909-1596.869,2300.722-163.891c-146.625-1069.166-1092.687-1168.251-1934.909-750.894l-762.654,1052.402
		c93.831,69.06,211.181,16.765,344.796-120.854L6341.002,8609.013L6341.002,8609.013z"/>
</g>
</svg>
