<?xml version="1.0" encoding="utf-8"?>
<!-- Generator: Adobe Illustrator 25.3.1, SVG Export Plug-In . SVG Version: 6.00 Build 0)  -->
<svg version="1.1" id="Layer_1" xmlns="http://www.w3.org/2000/svg" xmlns:xlink="http://www.w3.org/1999/xlink" x="0px" y="0px"
	 viewBox="0 0 1749.1 1747.4" style="enable-background:new 0 0 1749.1 1747.4;" xml:space="preserve">
<style type="text/css">
	.st0{fill-rule:evenodd;clip-rule:evenodd;fill:#FFB300;}
	.st1{fill-rule:evenodd;clip-rule:evenodd;fill:#5E990B;}
	.st2{fill-rule:evenodd;clip-rule:evenodd;fill:#FFD33A;}
	.st3{fill-rule:evenodd;clip-rule:evenodd;fill:#537918;}
</style>
<g>
	<path class="st0" d="M1695.4,53.6c-83.4-83.4-247.3-66.2-444.8,29.2C1089.5,160.6,903,291,719.7,460.1
		c-38.3-147-131-275.3-300.2-358.1c-62.2-30.5-142.8-53.5-219.2-65.2c152.2,90.8,259.5,194.6,296.5,309
		C625,743.7,26.3,958.5,100.3,1337.1c-2.8,10.8-5.4,21.4-7.7,31.7c-64.8,64.1-141.1,139.4-52.4,225.9l124,124
		c74.9,71.3,156.4-6.4,211.4-61.4c9.3-1.8,18.5-4,28-6.4c474,82.1,769.1-908.4,1308.9-93.2c-11.4-65.2-27-129.7-53.2-193
		c-76.4-184.3-211.7-290.1-370.5-335.1c169.2-183.5,299.8-370.1,377.6-531.4C1761.6,300.8,1779,137,1695.4,53.6L1695.4,53.6
		L1695.4,53.6z"/>
	<path class="st1" d="M719.7,460.1c-38.3-147-131-275.3-300.2-358.1c-62.2-30.5-142.8-53.5-219.2-65.2
		c152.2,90.8,259.5,194.6,296.5,309C625,743.7,26.3,958.5,100.3,1337.1c-2.8,10.8-5.4,21.4-7.7,31.7
		c-64.8,64.1-141.1,139.4-52.4,225.9l124,124c45.3,43.1,93,31.7,135.7,4c-45.7,28.3-86.8,32.5-122,6.5l433.9-598.7
		c68.3-33.9,141.5-62.2,216.5-83c-76.3,21.1-150.6,50-220.1,84.7C730.5,899.8,766.1,676,719.7,460.1L719.7,460.1z M1641.2,1325
		c-1.4-2.8-2.8-5.7-4.4-8.5C1638.3,1319.4,1639.8,1322.1,1641.2,1325L1641.2,1325z M1631.5,1306.1c-0.7-1.4-1.6-2.8-2.3-4.3
		C1629.9,1303.2,1630.8,1304.6,1631.5,1306.1L1631.5,1306.1z M1621.4,1287.8c-1.1-2-2.4-4-3.6-6
		C1619.1,1284,1620.3,1285.9,1621.4,1287.8L1621.4,1287.8z M1610.9,1270.3c-1.4-2.3-2.8-4.4-4.3-6.7
		C1608,1265.9,1609.4,1268.1,1610.9,1270.3L1610.9,1270.3z M1600.1,1253.4c-1.9-2.7-3.7-5.4-5.6-8.1
		C1596.2,1248.1,1598.2,1250.7,1600.1,1253.4L1600.1,1253.4z M1588.7,1237.2c-2.1-2.8-4.3-5.7-6.4-8.5
		C1584.4,1231.5,1586.5,1234.3,1588.7,1237.2L1588.7,1237.2z M1576.9,1221.5c-2-2.6-4.1-5.1-6.3-7.7
		C1572.7,1216.4,1574.9,1218.9,1576.9,1221.5L1576.9,1221.5z M1564.8,1206.4c-1.7-2.1-3.6-4.1-5.3-6.1
		C1561.2,1202.3,1563,1204.4,1564.8,1206.4L1564.8,1206.4z M1552.2,1192c-2-2.3-4.1-4.4-6.1-6.5
		C1548.1,1187.6,1550.2,1189.8,1552.2,1192L1552.2,1192z M1539.4,1178.2c-2.3-2.3-4.6-4.6-6.8-6.8
		C1534.9,1173.7,1537.1,1176,1539.4,1178.2L1539.4,1178.2z M1526.2,1165c-2.3-2.3-4.7-4.4-7-6.5
		C1521.5,1160.6,1523.8,1162.7,1526.2,1165L1526.2,1165z M1512.7,1152.5c-2.3-2.1-4.7-4.1-7-6.1
		C1508,1148.3,1510.2,1150.3,1512.7,1152.5L1512.7,1152.5z M1498.7,1140.4c-2.6-2.1-5.1-4.1-7.7-6.1
		C1493.6,1136.2,1496.1,1138.2,1498.7,1140.4L1498.7,1140.4z M1484.5,1129c-2.6-2-5.1-3.8-7.7-5.8
		C1479.3,1125.1,1481.9,1127,1484.5,1129L1484.5,1129z M1469.8,1118c-2.4-1.7-5-3.4-7.4-5.1C1465,1114.5,1467.4,1116.2,1469.8,1118
		L1469.8,1118z M1455.1,1107.6c-2.7-1.9-5.4-3.6-8.1-5.3C1449.6,1104.2,1452.4,1105.9,1455.1,1107.6L1455.1,1107.6z M1439.9,1098
		c-2.7-1.7-5.4-3.3-8.3-5C1434.5,1094.7,1437.2,1096.2,1439.9,1098L1439.9,1098z M1424.5,1088.7c-3-1.7-6.1-3.4-9.3-5.1
		C1418.4,1085.3,1421.6,1087,1424.5,1088.7L1424.5,1088.7z M1408.9,1080c-3-1.6-6.1-3.1-9.3-4.7
		C1402.8,1076.9,1405.9,1078.5,1408.9,1080L1408.9,1080z M1392.9,1071.9c-3-1.4-5.8-2.8-8.8-4.1
		C1387,1069.1,1390,1070.5,1392.9,1071.9L1392.9,1071.9z M1376.7,1064.4c-3.1-1.4-6.3-2.7-9.3-4
		C1370.5,1061.7,1373.6,1062.9,1376.7,1064.4L1376.7,1064.4z M1360.3,1057.2c-3.1-1.3-6.4-2.6-9.7-3.8
		C1353.8,1054.7,1357.1,1055.8,1360.3,1057.2L1360.3,1057.2z M1343.7,1050.7c-3.4-1.3-7-2.6-10.4-3.7
		C1336.7,1048.1,1340.3,1049.4,1343.7,1050.7L1343.7,1050.7z M1326.9,1044.6c-3.4-1.1-7-2.3-10.4-3.4
		C1319.9,1042.3,1323.3,1043.4,1326.9,1044.6L1326.9,1044.6z M1309.7,1039c-3.8-1.1-7.5-2.3-11.4-3.3
		C1302.1,1036.7,1306,1037.9,1309.7,1039L1309.7,1039z M1292.6,1034c-4.1-1.1-8.1-2.1-12.2-3.3
		C1284.3,1031.8,1288.5,1032.9,1292.6,1034L1292.6,1034z M1275.1,1029.5c-4-1-8-1.9-12.1-2.8
		C1267.1,1027.5,1271.1,1028.5,1275.1,1029.5L1275.1,1029.5z M1257.4,1025.4c-4.1-0.9-8.3-1.7-12.4-2.6
		C1249.2,1023.7,1253.3,1024.4,1257.4,1025.4L1257.4,1025.4z M1239.6,1021.7c-4.1-0.7-8.3-1.4-12.4-2.1
		C1231.4,1020.2,1235.5,1020.9,1239.6,1021.7L1239.6,1021.7z M1221.7,1018.5c-4.3-0.7-8.7-1.3-13.1-2
		C1213,1017.2,1217.3,1017.8,1221.7,1018.5L1221.7,1018.5z M1203.6,1015.8c-4.4-0.6-9-1.1-13.5-1.7
		C1194.7,1014.7,1199.2,1015.3,1203.6,1015.8L1203.6,1015.8z M1185.4,1013.5c-4.7-0.6-9.3-1-13.9-1.4
		C1176.2,1012.7,1180.7,1013.1,1185.4,1013.5L1185.4,1013.5z M1167.2,1011.8c-4.7-0.4-9.5-0.7-14.2-1
		C1157.6,1011.1,1162.3,1011.4,1167.2,1011.8L1167.2,1011.8z M1148.7,1010.4c-4.7-0.3-9.5-0.6-14.4-0.7
		C1139.1,1010,1143.8,1010.1,1148.7,1010.4L1148.7,1010.4z M1130,1009.6c-4.8-0.1-9.7-0.3-14.5-0.4
		C1120.4,1009.1,1125.2,1009.3,1130,1009.6L1130,1009.6z M1111.4,1009c-5-0.1-9.8-0.1-14.8-0.1
		C1101.6,1008.8,1106.5,1009,1111.4,1009L1111.4,1009z M1092.7,1008.8c-5.1,0-10.2,0.1-15.4,0.3
		C1082.5,1009,1087.6,1009,1092.7,1008.8L1092.7,1008.8z M1073.9,1009.3c-5.6,0.1-11.2,0.4-16.8,0.7
		C1062.7,1009.6,1068.4,1009.4,1073.9,1009.3L1073.9,1009.3z M1055.3,1010c-5.4,0.3-10.7,0.6-16.1,1
		C1044.6,1010.6,1049.9,1010.3,1055.3,1010L1055.3,1010z M1036.1,1011.1c-5.3,0.4-10.5,0.9-15.7,1.3
		C1025.7,1011.8,1031,1011.4,1036.1,1011.1L1036.1,1011.1z M1017.2,1012.6c-5.4,0.4-11,1-16.4,1.6
		C1006.2,1013.7,1011.7,1013.1,1017.2,1012.6L1017.2,1012.6z M998.4,1014.5c-5.7,0.6-11.2,1.3-16.9,2
		C987.1,1015.8,992.7,1015.1,998.4,1014.5L998.4,1014.5z M979.3,1016.8c-5.8,0.7-11.7,1.6-17.5,2.4
		C967.8,1018.4,973.5,1017.5,979.3,1016.8L979.3,1016.8z M960.4,1019.4c-6,0.9-11.8,1.9-17.8,2.8
		C948.5,1021.2,954.5,1020.2,960.4,1019.4L960.4,1019.4z M941.4,1022.4c-6.1,1-12.2,2.1-18.4,3.3
		C929.2,1024.5,935.3,1023.4,941.4,1022.4L941.4,1022.4z M922.5,1025.6c-6.1,1.1-12.2,2.3-18.2,3.6
		C910.4,1028.1,916.4,1026.8,922.5,1025.6L922.5,1025.6z M903.6,1029.5c-6.1,1.3-12.1,2.6-18.1,3.8
		C891.5,1031.9,897.4,1030.6,903.6,1029.5L903.6,1029.5z M884.6,1033.5c-6,1.3-12,2.7-17.8,4.1
		C872.7,1036.2,878.7,1034.8,884.6,1033.5L884.6,1033.5z M865.6,1037.9c-6.1,1.4-12.2,3-18.5,4.6
		C853.3,1040.9,859.4,1039.3,865.6,1037.9L865.6,1037.9z M846.9,1042.6c-6.3,1.6-12.4,3.3-18.6,5
		C834.5,1045.9,840.6,1044.2,846.9,1042.6L846.9,1042.6z"/>
	<path class="st2" d="M1282.8,617.5c-44.3,49.3-91.7,100.1-141.6,151.7c-22.9-21.5-46-44.1-68.9-67.3
		c-30.9-31.3-61.4-63.6-90.1-95.7c52.1-50.2,103.2-97.8,152.7-142.3c28.6,32.7,59.1,65.5,90,97.1
		C1244.1,580.4,1263.4,599.3,1282.8,617.5L1282.8,617.5L1282.8,617.5z"/>
	<path class="st2" d="M1449.6,421.5c-37.2,46.7-78.9,96.4-124.4,148.2c-18.4-17.2-36.7-35.2-54.8-53.7
		c-30.3-30.7-59.9-62.8-87.8-94.5c51.7-45.3,101.1-86.7,147.6-123.6c22.9,26.9,46.8,53,71.5,77.9
		C1417.3,391.5,1433.2,406.9,1449.6,421.5L1449.6,421.5L1449.6,421.5z"/>
	<path class="st2" d="M1412.6,234.9c129-94.9,216.5-145.9,232.3-130.2c15.7,15.7-35.2,103.3-130.2,232.3
		c-8.3,11.1-16.8,22.5-25.6,34.2c-14.2-13.1-28.3-26.5-42.1-40.4c-22.9-23.1-45-47.1-66.2-72
		C1391.5,250.4,1402.1,242.5,1412.6,234.9L1412.6,234.9L1412.6,234.9z"/>
	<path class="st2" d="M1061.1,267.2c57.8-39.4,114-73.7,167.8-102.3c19.2,28.3,39.6,56.2,60.6,83.4c-46.8,37.3-96.7,79-148.6,124.4
		C1110.8,335.8,1083.6,300.1,1061.1,267.2L1061.1,267.2L1061.1,267.2z"/>
	<path class="st2" d="M1269.1,957c-17.1,18.9-34.4,37.9-52.4,56.8c-73.3-12.1-150.2-12.7-227.8-3.3c39.6-37.6,79.9-76.7,120.3-117.1
		c11.7-11.7,23.2-23.3,34.7-34.9C1188.7,898,1231.5,932.1,1269.1,957L1269.1,957L1269.1,957z"/>
	<path class="st2" d="M1440.5,746.2c-39,53.4-82.1,107.8-128.8,162.3c-36.2-23.1-78.4-56.5-123-95.8c50-51.7,97.4-102.6,141.8-152
		C1368.3,693.7,1405.6,723,1440.5,746.2L1440.5,746.2L1440.5,746.2z"/>
	<path class="st2" d="M1581.8,524.3c-29.3,54.4-64.2,111.5-104.3,169.8c-32.9-21.8-68.3-49.5-104.6-81.1
		c45.8-52.2,88-102.3,125.5-149.6C1525.5,485.3,1553.2,505.7,1581.8,524.3L1581.8,524.3L1581.8,524.3z"/>
	<path class="st2" d="M1685,178.8c8.3,71.6-18.5,171.8-74.2,288.1c-25.1-16.7-49.5-34.6-73.3-53.9c10-13,19.4-25.6,28.5-38
		C1622.1,299.1,1662.8,232.4,1685,178.8L1685,178.8L1685,178.8z"/>
	<path class="st2" d="M1286.5,135.9c115-54.5,214.1-80.4,284.8-71.9c-53.5,22.2-120.6,62.9-196.9,119.1
		c-11.2,8.3-22.6,16.8-34.3,25.8C1321.5,185.1,1303.6,160.8,1286.5,135.9L1286.5,135.9L1286.5,135.9z"/>
	<path class="st2" d="M1096.6,815c-10.8,11-21.6,21.9-32.6,32.9c-44.4,44.4-88.4,87.1-131.7,128c-25.6-24.2-51.4-49.5-76.7-75.4
		c-27-27.6-53.9-56.4-79.9-85.4c40.1-42.6,82.3-85.8,126-129.5c11.7-11.7,23.3-23.2,35-34.7c29,32.2,59.5,64.6,90.5,96.1
		C1050,770.3,1073.4,793.2,1096.6,815L1096.6,815L1096.6,815z"/>
	<path class="st2" d="M843.2,435.1c55.7-47.7,111.3-91.5,165.8-131.1c23.8,34.6,52.5,72.3,84.4,111
		c-49.8,44.7-101.2,92.5-153.4,142.9C902.1,513.8,868.8,471.6,843.2,435.1L843.2,435.1L843.2,435.1z"/>
	<path class="st2" d="M734.2,533.4c20.2-19.2,40.4-37.9,60.8-55.9c26.9,37.7,60.9,80.6,99.1,125.1c-12.7,12.4-25.2,24.9-37.9,37.6
		c-43.4,43.4-85.3,86.4-125.3,128.8C742.7,689,744.7,609.4,734.2,533.4L734.2,533.4L734.2,533.4z"/>
	<path class="st2" d="M804.5,1051.4c-64.1,20.5-126.8,45.8-188.2,76.4c36.7-75.2,67.3-155.4,89.3-237.1c8.7-9.5,17.5-19.1,26.3-28.8
		c24.8,27.5,51.1,55.4,78,83.1c25.1,25.8,50.5,50.8,75.6,74.4c-4.7,4.3-9.4,8.5-13.9,12.8C849,1037.9,826.7,1044.3,804.5,1051.4
		L804.5,1051.4L804.5,1051.4z"/>
	<path class="st3" d="M394.8,1653.1c2.8-0.7,5.8-1.4,8.8-2.1c474,82.1,769.1-908.4,1308.9-93.2
		c-83.4-608.2-621.6-664.6-1100.7-427.2l-433.9,598.7c53.4,39.3,120.1,9.5,196.2-68.8L394.8,1653.1L394.8,1653.1z"/>
</g>
</svg>
