<?xml version="1.0" encoding="iso-8859-1"?>
<!-- Generator: Adobe Illustrator 25.3.1, SVG Export Plug-In . SVG Version: 6.00 Build 0)  -->
<svg version="1.1" id="Layer_1" xmlns="http://www.w3.org/2000/svg" xmlns:xlink="http://www.w3.org/1999/xlink" x="0px" y="0px"
	 viewBox="0 0 14400 14400" style="enable-background:new 0 0 14400 14400;" xml:space="preserve">
<g>
	<path style="fill:#5EAC24;" d="M7678.126,7825.901c20.922,149.964-10.233,287.137-103.808,407.484
		c-88.294,113.558-204.979,179.756-347.396,200.627c-5.5,0.806-12.823-2.436-15.849,5.661c-35.329,0-70.658,0-105.987,0
		c-19.423-11.366-41.964-9.579-62.911-14.471c-214.222-50.029-373.019-221.662-404.512-438.452
		c-40.311-277.479,146.259-539.67,420.597-591.208c5.121-0.962,10.017-3.119,15.018-4.719c26.701-2.015,53.402-4.031,80.104-6.046
		c97.686,1.435,189.392,24.532,273.801,74.769c52.653,31.336,97.41,71.826,138.269,117.002
		c40.689,51.805,70.793,109.513,95.133,170.436C7666.431,7773.291,7672.279,7799.596,7678.126,7825.901z M6770.086,8127.232
		c15.447,36.357,40.378,66.408,67.615,93.777c91.487,91.932,201.831,138.954,332.725,135.024
		c146.557-4.399,262.964-67.077,348.959-184.227c74.019-100.833,98.742-215.11,77.642-338.108
		c-12.372-72.12-40.461-138.219-88.64-194.604c-4.104-8.944-10.491-16.215-17.133-23.288
		c-101.456-108.037-225.041-159.218-374.007-146.552c-106.222,9.031-196.619,52.247-271.945,126.357
		c-73.363,72.178-116.382,160.045-128.799,262.63C6704.929,7953.846,6721.476,8043.689,6770.086,8127.232z"/>
	<path style="fill:#5EAC24;" d="M8509.409,7369.644c-10.742,18.591-10.024,40.108-14.882,60.162
		c-50.474,208.35-224.786,366.657-437.071,396.393c-90.067,12.616-177.525,3.126-262.579-28.942
		c0.905-2.383,1.238-6.353,2.798-6.915c34.082-12.258,62.914-34.499,95.364-49.802c49.313,12.947,98.914,12.71,149.283,6.209
		c95.165-12.282,177.945-51.318,246.06-117.523c118.15-114.835,161.893-255.139,129.968-416.925
		c-12.891-65.327-39.4-125.79-83.609-177.118c-70.161-94.345-164.703-148.716-279.551-168.639
		c-54.039-9.375-108.289-9.862-161.89,4.522c-33.092-17.6-66.185-35.2-99.278-52.801c28.887-18.273,62.241-23.017,94.47-31.169
		c30.217-4.614,60.584-6.278,91.169-6.204c24.425,0.06,48.903,2.702,73.304-0.612c1.852,3.102,4.172,5.598,7.986,6.159
		c72.85,10.713,141.07,33.974,202.501,75.269c5.592,3.759,11.091,4.811,17.331,4.583c0.509,8.498,7.934,11.119,13.333,15.204
		c117.918,89.226,188.728,206.436,210.113,353.033c0.531,3.637,1.15,6.806,5.179,7.983
		C8509.409,7284.889,8509.409,7327.267,8509.409,7369.644z"/>
	<path style="fill:#4DA045;" d="M5901.771,6755.764c-57.05-80.351-97.333-167.87-104.618-267.066
		c-10.975-149.441,79.731-271.334,228.469-310.781c99.578-26.41,197.823-15.075,295.05,12.677
		c81.865,23.367,159.009,58.153,230.787,103.641c142.47,90.287,298.106,137.875,465.755,149.619
		c155.13,10.868,308.629,4.238,459.189-38.32c83.71-23.662,161.647-60.087,235.614-105.707
		c94.433-58.243,194.492-103.475,304.122-124.588c65.254-12.567,130.923-18.814,196.838-3.675
		c1.396,46.666-0.52,93.154-13.629,138.232c-30.042,103.299-87.227,191.055-158.655,270.008
		c-57.433,63.483-122.611,118.485-193.565,166.195c-29.647,19.935-57.31,43.39-90.91,57.167c-5.166-0.937-10.444-1.472-15.482-2.87
		c-81.952-22.753-164.991-26.592-248.313-10.739c-110.628,21.048-204.839,73.456-282.188,155.261
		c-12.119,12.817-24.831,16.88-41.857,16.915c-74.911,0.155-149.532-3.469-224.216-9.669
		c-71.974-5.975-142.961-16.619-213.285-32.569c-136.097-30.869-262.607-85.493-382.064-156.524
		c-94.693-56.306-188.066-114.707-261.529-199.305c-9.51-10.951-24.166-18.789-40.642-12.999
		c-15.997,5.621-26.723,16.377-30.096,33.752c-3.28,16.903,5.871,27.979,16.254,39.383
		c66.537,73.082,146.064,129.535,229.536,181.22c95.419,59.082,194.71,110.182,300.558,147.925
		c119.825,42.728,243.225,68.169,370.066,79.095c25.833,2.225,52.759-1.033,77.942,8.466c-121.162-1.397-242.417,6.857-363.445-8.95
		c-45.831-5.986-92.067-10.282-137.47-18.55c-87.024-15.847-172.506-38.597-254.392-72.535
		c-55.865-23.153-111.56-46.717-164.384-76.867c-59.455-33.935-117.927-69.275-174.637-107.564
		C5911.422,6752.566,5906.897,6747.031,5901.771,6755.764z M7108.004,6701.985c81.857,1.226,154.664-2.98,227.591-9.348
		c82.528-7.206,163.807-20.805,243.902-40.546c142.855-35.208,276.112-94.287,402.603-168.928
		c16.675-9.84,33.425-19.798,48.903-31.356c19.311-14.419,23.781-36.367,12.871-53.366c-12.93-20.147-32.106-25.044-55.16-13.722
		c-6.304,3.096-12.198,7.045-18.195,10.742c-103.819,64.01-212.657,117.495-328.994,154.77
		c-150.17,48.116-305.091,67.294-461.982,71.656c-58.923,1.638-117.936-0.037-177.024-2.856
		c-86.325-4.118-171.902-12.892-256.386-29.434c-121.34-23.759-237.596-63.735-348.371-119.218
		c-50.489-25.288-98.84-54.188-146.982-83.548c-23.127-14.104-48.938-9.187-60.501,10.735c-11.38,19.607-4.653,43.362,16.33,56.661
		c71.521,45.329,145.614,85.704,223.069,120.245c159.203,70.998,326.958,106.788,499.525,121.479
		C6991.413,6701.248,7054.021,6706.056,7108.004,6701.985z"/>
	<path style="fill:#75C144;" d="M7010.901,7040.51c-25.183-9.499-52.109-6.241-77.942-8.466
		c-126.841-10.926-250.241-36.368-370.066-79.095c-105.848-37.744-205.138-88.844-300.558-147.925
		c-83.472-51.685-163-108.138-229.536-181.22c-10.383-11.404-19.534-22.48-16.254-39.383c3.373-17.375,14.099-28.131,30.096-33.752
		c16.476-5.79,31.132,2.048,40.642,12.999c73.462,84.598,166.835,142.999,261.529,199.305
		c119.457,71.031,245.968,125.655,382.064,156.524c70.324,15.951,141.312,26.594,213.285,32.569
		c74.684,6.2,149.305,9.825,224.216,9.669c17.027-0.035,29.738-4.098,41.857-16.915c77.35-81.806,171.561-134.213,282.188-155.261
		c83.323-15.853,166.361-12.015,248.313,10.739c5.038,1.398,10.316,1.934,15.482,2.87c11.984,6.578,24.33,12.249,37.804,15.099
		c33.093,17.601,66.186,35.201,99.278,52.801c18.653,15.812,37.972,30.909,55.843,47.56
		c76.413,71.198,128.435,157.244,153.879,258.667c19.244,76.708,20.088,154.024,5.534,231.786
		c-8.099,43.272-25.107,83.565-38.873,124.961l0.037-0.109c-2.836,0.747-4.465,2.555-4.822,5.48
		c-29.721,55.867-66.17,106.669-112.089,150.544c-18.932,18.088-42.096,31.077-59.769,50.583
		c-32.45,15.303-61.283,37.544-95.364,49.802c-1.56,0.562-1.894,4.532-2.798,6.915c-36.072,2.872-68.468,20.484-103.909,25.915
		c-4.318,0.662-8.563,1.808-12.842,2.73c-5.848-26.306-11.695-52.611-17.542-78.916c14.559-3.185,29.264-5.821,43.654-9.643
		c102.542-27.233,185.324-84.245,248.126-169.121c54.79-74.048,82.675-157.946,85.672-250.322
		c1.703-52.499-5.855-103.645-22.478-152.892c-16.03-47.493-36.652-93.336-72.539-130.206c-9.31-21.876-28.3-35.648-44.618-51.189
		c-110.523-105.26-243.254-143.291-391.214-115.104c-210.896,40.176-363.317,227.69-360.149,442.887
		c0.365,24.77,4.217,48.93,6.343,73.382c-26.701,2.015-53.402,4.031-80.104,6.046c-5.622-27.983-6.803-56.244-5.307-84.672
		c-4.075-94.098,24.245-180.339,68.649-265.642C7091.644,7040.51,7051.272,7040.51,7010.901,7040.51z"/>
	<path style="fill:#3B8337;" d="M7010.901,7040.51c40.372,0,80.743,0,125.72,0c-44.404,85.302-72.724,171.543-68.649,265.642
		c-165.716-6.106-329.043-26.346-487.135-79.589c-130.814-44.056-251.745-107.511-366.41-183.547
		c-78.631-52.142-155.952-106.117-221.538-174.697c-33.423-34.948-66.47-70.411-91.117-112.555c5.125-8.733,9.651-3.198,14.802,0.28
		c56.709,38.289,115.182,73.63,174.637,107.564c52.824,30.15,108.519,53.714,164.384,76.867
		c81.885,33.938,167.367,56.688,254.392,72.535c45.403,8.268,91.64,12.564,137.47,18.55
		C6768.484,7047.367,6889.739,7039.113,7010.901,7040.51z"/>
	<path style="fill:#3B8337;" d="M7794.022,6818.266c-13.474-2.85-25.82-8.521-37.804-15.099
		c33.601-13.777,61.263-37.232,90.91-57.167c70.954-47.71,136.132-102.712,193.565-166.195
		c71.428-78.953,128.613-166.709,158.655-270.008c13.109-45.079,15.025-91.567,13.629-138.232
		c127.265,14.343,239.72,114.71,259.832,237.443c11.008,67.176,1.257,131.183-21.031,194.18
		c-35.864,101.37-95.485,187.422-170.994,263.103c-6.24,0.228-11.739-0.824-17.331-4.583
		c-61.431-41.295-129.651-64.556-202.501-75.269c-3.814-0.561-6.134-3.057-7.986-6.159c3.934-6.348,10.82-8.872,16.653-12.708
		c60.644-39.891,116.287-85.725,166.065-138.644c24.648-26.204,27.552-51.155,7.36-68.99c-21.45-18.945-44.067-13.953-67.204,14.415
		c-6.666,8.174-13.674,16.208-21.406,23.353c-53.21,49.17-111.229,91.873-172.532,130.537
		c-31.121,19.628-64.976,34.986-93.41,58.853C7856.264,6795.249,7822.909,6799.993,7794.022,6818.266z"/>
	<path style="fill:#B6E892;" d="M6770.086,8127.232c-48.61-83.543-65.157-173.386-53.584-268.99
		c12.417-102.585,55.436-190.452,128.799-262.63c75.327-74.11,165.724-117.326,271.945-126.357
		c148.967-12.666,272.552,38.516,374.007,146.552c6.642,7.072,13.029,14.344,17.133,23.288c-2.497,10.953,4.272,20.398,4.824,31.05
		c6.371,122.986-23.412,235.508-98.385,334.193c-26.991,35.526-54.894,71.115-96.703,91.461
		c-27.847-58.038-78.677-82.737-138.071-94.686c-16.945-3.409-22.226,2.76-19.536,19.938c8.041,51.357,29.154,95.22,71.745,127.022
		c-7.731,9.137-18.891,12.064-29.379,16.205c-65.527,25.869-133.582,35.676-203.731,31.687
		c-45.641-2.595-90.085-10.878-133.302-26.438C6832.868,8157.652,6802.551,8140.078,6770.086,8127.232z M7296.982,7947.303
		c39.282,3.771,72.284-15.032,104.404-35.353c15.741-9.959,15.301-19.269-0.261-30.66c-25.124-18.39-52.904-33.062-83.325-38.269
		c-38.355-6.566-75.79-0.372-106.045,27.004c-16.656,15.07-16.315,32.391-0.473,48.184
		C7234.613,7941.467,7263.785,7949.038,7296.982,7947.303z M7179.646,7699.27c-0.658-33.355-6.031-63.256-29.942-86.409
		c-15.116-14.637-31.094-14.403-46.649-0.63c-12.336,10.923-19.768,24.904-24.224,40.236
		c-16.989,58.44,0.985,109.028,36.239,155.392c7.92,10.417,16.113,9.485,22.942-1.175
		C7159.455,7773.204,7179.806,7739.252,7179.646,7699.27z M7063.172,7937.095c-1.071-25.8-9.425-47.273-18.841-67.896
		c-19.057-41.737-52.172-68.148-96.398-79.513c-30.428-7.819-54.322,17.602-45.923,47.691c3.523,12.623,7.905,24.747,14.547,36.462
		c28.405,50.101,76.542,66.971,128.275,78.083C7058.266,7954.807,7065.227,7949.088,7063.172,7937.095z"/>
	<path style="fill:#91DC5A;" d="M7153.381,7384.778c-2.126-24.452-5.978-48.613-6.343-73.382
		c-3.167-215.197,149.254-402.71,360.149-442.887c147.96-28.187,280.691,9.844,391.214,115.104
		c16.318,15.541,35.308,29.313,44.618,51.189c-1.772,15.045,4.694,28.986,5.215,44.061c2.576,74.63-10.275,146.233-37.989,215.303
		c-24.533,61.144-63.047,113.488-108.882,159.585c-35.167,35.367-76.822,63.961-122.115,85.54
		c-36.125,17.21-72.198,36.099-113.797,37.257c-40.858-45.176-85.615-85.666-138.269-117.002
		C7342.773,7409.31,7251.067,7386.213,7153.381,7384.778z M7550.859,7426.366c-0.253,24.069,3.948,42.222,10.889,59.214
		c8.316,20.357,17.959,43.483,44.708,41.96c25.092-1.428,36.048-22.771,44.032-43.76c23.715-62.343,0.38-114.865-35.35-164.649
		c-6.224-8.672-13.333-9.355-19.024-0.884C7572.93,7352.757,7552.699,7388.613,7550.859,7426.366z M7714.681,7092.075
		c-1.852-15.123-3.425-31.911-9.635-47.484c-8.522-21.373-17.01-44.052-45.201-45.737c-19.833-1.185-36.024,16.311-46.432,47.582
		c-19.894,59.769,2.139,110.244,35.153,158.181c6.606,9.593,15.076,9.193,21.678,0.219
		C7694.631,7171.684,7712.27,7135.713,7714.681,7092.075z M7430.691,7285.279c50.117,0.873,84.892-19.84,118.644-42.699
		c11.201-7.586,8.444-15.696-1.687-22.917c-20.936-14.924-42.913-27.868-67.74-35.077c-38.929-11.303-76.998-9.304-112.224,11.814
		c-33.133,19.863-33.143,50.135-0.496,70.614C7388.6,7280.446,7412.627,7285.605,7430.691,7285.279z"/>
	<path style="fill:#91DC5A;" d="M7318.123,8095.798c41.809-20.346,69.712-55.935,96.703-91.461
		c74.973-98.685,104.756-211.207,98.385-334.193c-0.552-10.652-7.321-20.097-4.824-31.05
		c48.179,56.385,76.268,122.484,88.64,194.604c21.1,122.999-3.623,237.275-77.642,338.108
		c-85.995,117.149-202.403,179.827-348.959,184.227c-130.895,3.93-241.238-43.093-332.725-135.024
		c-27.237-27.369-52.168-57.42-67.615-93.777c32.465,12.846,62.782,30.42,95.763,42.294c43.217,15.56,87.661,23.844,133.302,26.438
		c70.149,3.989,138.204-5.818,203.731-31.687c10.489-4.141,21.648-7.068,29.379-16.205c17.843,6.351,34.428,16.667,54.393,16.211
		c23.623-0.539,34.946-11.811,36.161-35.056C7323.422,8117.599,7318.65,8107.069,7318.123,8095.798z"/>
	<path style="fill:#B6E892;" d="M7565.451,7576.549c41.6-1.158,77.672-20.046,113.797-37.257
		c45.293-21.579,86.949-50.173,122.115-85.54c45.835-46.097,84.349-98.442,108.882-159.585
		c27.713-69.07,40.564-140.673,37.989-215.303c-0.521-15.075-6.987-29.016-5.215-44.061c35.887,36.869,56.509,82.712,72.539,130.206
		c16.623,49.247,24.18,100.393,22.478,152.892c-2.997,92.376-30.882,176.274-85.672,250.322
		c-62.802,84.876-145.584,141.888-248.126,169.121c-14.39,3.822-29.095,6.458-43.654,9.643
		C7636.244,7686.062,7606.14,7628.354,7565.451,7576.549z"/>
	<path style="fill:#91DC5A;" d="M7893.04,7740.541c17.673-19.506,40.837-32.495,59.769-50.583
		c45.919-43.875,82.369-94.678,112.089-150.544c1.607-1.827,3.214-3.653,4.822-5.48l-0.037,0.109
		c9.361,1.149,17.073-3.148,24.703-7.577c56.028-32.523,103.486-74.748,143.089-125.955
		c70.163-90.72,100.663-194.578,102.062-307.99c0.236-19.189-8.032-37.806-4.796-57.337
		c44.209,51.329,70.719,111.791,83.609,177.118c31.925,161.786-11.817,302.089-129.968,416.925
		c-68.115,66.205-150.896,105.241-246.06,117.523C7991.954,7753.25,7942.353,7753.488,7893.04,7740.541z"/>
	<path style="fill:#B6E892;" d="M8334.741,7035.184c-3.236,19.531,5.032,38.148,4.796,57.337
		c-1.398,113.412-31.898,217.27-102.062,307.99c-39.604,51.207-87.061,93.432-143.089,125.955
		c-7.63,4.429-15.342,8.726-24.703,7.577c13.766-41.396,30.773-81.689,38.873-124.961c14.554-77.762,13.71-155.078-5.534-231.786
		c-25.444-101.423-77.466-187.469-153.879-258.667c-17.871-16.651-37.19-31.748-55.843-47.56
		c53.601-14.384,107.852-13.896,161.89-4.522C8170.038,6886.468,8264.58,6940.839,8334.741,7035.184z M8281.883,7216.338
		c0.673-24.794-3.666-51.173-21.231-74.08c-16.324-21.288-39.476-22.702-58.371-3.475c-7.591,7.724-12.28,16.835-16.269,26.812
		c-24.347,60.891-3.773,113.281,29.802,163.622c7.879,11.813,16.01,10.836,22.737,0.977
		C8261.421,7296.678,8283.999,7262.784,8281.883,7216.338z"/>
	<path style="fill:#75C144;" d="M7888.493,6787.097c28.435-23.867,62.289-39.225,93.41-58.853
		c61.302-38.664,119.322-81.367,172.532-130.537c7.732-7.145,14.74-15.179,21.406-23.353c23.136-28.368,45.753-33.36,67.204-14.415
		c20.191,17.834,17.288,42.786-7.36,68.99c-49.778,52.918-105.421,98.753-166.065,138.644c-5.833,3.836-12.719,6.36-16.653,12.708
		c-24.401,3.314-48.879,0.672-73.304,0.612C7949.077,6780.819,7918.71,6782.483,7888.493,6787.097z"/>
	<path style="fill:#75C144;" d="M7108.004,6701.985c-53.983,4.071-116.591-0.737-178.8-6.033
		c-172.567-14.69-340.322-50.481-499.525-121.479c-77.455-34.542-151.548-74.917-223.069-120.245
		c-20.983-13.299-27.71-37.054-16.33-56.661c11.563-19.922,37.374-24.84,60.501-10.735c48.142,29.36,96.493,58.26,146.982,83.548
		c110.774,55.483,227.031,95.459,348.371,119.218c84.484,16.542,170.061,25.315,256.386,29.434
		c59.089,2.819,118.102,4.494,177.024,2.856c156.892-4.361,311.812-23.54,461.982-71.656
		c116.337-37.275,225.175-90.76,328.994-154.77c5.997-3.697,11.891-7.646,18.195-10.742c23.053-11.323,42.229-6.426,55.16,13.722
		c10.91,17,6.44,38.947-12.871,53.366c-15.479,11.558-32.229,21.516-48.903,31.356c-126.491,74.641-259.748,133.72-402.603,168.928
		c-80.095,19.741-161.374,33.34-243.902,40.546C7262.668,6699.004,7189.861,6703.21,7108.004,6701.985z"/>
	<path style="fill:#B6E892;" d="M8069.72,7533.933c-1.607,1.827-3.214,3.654-4.822,5.48
		C8065.255,7536.487,8066.884,7534.679,8069.72,7533.933z"/>
	<path style="fill:#E3F4C2;" d="M7318.123,8095.798c0.527,11.271,5.299,21.8,4.692,33.431
		c-1.214,23.246-12.538,34.517-36.161,35.056c-19.965,0.455-36.55-9.861-54.393-16.211c-42.591-31.802-63.705-75.665-71.745-127.022
		c-2.689-17.179,2.591-23.347,19.536-19.938C7239.446,8013.061,7290.276,8037.76,7318.123,8095.798z"/>
	<path style="fill:#E3F4C2;" d="M7296.982,7947.303c-33.197,1.735-62.369-5.836-85.699-29.094
		c-15.842-15.793-16.183-33.113,0.473-48.184c30.255-27.376,67.69-33.57,106.045-27.004c30.421,5.208,58.201,19.879,83.325,38.269
		c15.562,11.391,16.001,20.701,0.261,30.66C7369.266,7932.271,7336.264,7951.075,7296.982,7947.303z"/>
	<path style="fill:#E3F4C2;" d="M7179.646,7699.27c0.16,39.983-20.19,73.935-41.635,107.413
		c-6.829,10.66-15.021,11.592-22.942,1.175c-35.253-46.364-53.228-96.951-36.239-155.392c4.457-15.332,11.888-29.313,24.224-40.236
		c15.555-13.772,31.533-14.006,46.649,0.63C7173.615,7636.014,7178.988,7665.915,7179.646,7699.27z"/>
	<path style="fill:#E3F4C2;" d="M7063.172,7937.095c2.054,11.994-4.906,17.712-18.34,14.827
		c-51.732-11.111-99.87-27.981-128.275-78.083c-6.642-11.716-11.024-23.84-14.547-36.462c-8.399-30.09,15.495-55.511,45.923-47.691
		c44.226,11.365,77.341,37.776,96.398,79.513C7053.747,7889.822,7062.102,7911.294,7063.172,7937.095z"/>
	<path style="fill:#E3F4C2;" d="M7550.859,7426.366c1.84-37.753,22.071-73.609,45.255-108.119
		c5.691-8.471,12.801-7.788,19.024,0.884c35.73,49.784,59.064,102.307,35.35,164.649c-7.984,20.989-18.94,42.332-44.032,43.76
		c-26.749,1.522-36.393-21.604-44.708-41.96C7554.807,7468.588,7550.605,7450.436,7550.859,7426.366z"/>
	<path style="fill:#E3F4C2;" d="M7714.681,7092.075c-2.411,43.639-20.049,79.609-44.437,112.76
		c-6.602,8.975-15.072,9.374-21.678-0.219c-33.015-47.937-55.047-98.412-35.153-158.181c10.408-31.271,26.599-48.767,46.432-47.582
		c28.19,1.685,36.678,24.364,45.201,45.737C7711.256,7060.164,7712.829,7076.952,7714.681,7092.075z"/>
	<path style="fill:#E3F4C2;" d="M7430.691,7285.279c-18.064,0.326-42.092-4.833-63.503-18.265
		c-32.646-20.479-32.637-50.751,0.496-70.614c35.226-21.118,73.294-23.117,112.224-11.814c24.828,7.208,46.805,20.152,67.74,35.077
		c10.131,7.222,12.888,15.331,1.687,22.917C7515.583,7265.438,7480.809,7286.152,7430.691,7285.279z"/>
	<path style="fill:#E3F4C2;" d="M8281.883,7216.338c2.116,46.446-20.462,80.339-43.332,113.857
		c-6.728,9.859-14.858,10.836-22.737-0.977c-33.576-50.34-54.149-102.73-29.802-163.622c3.989-9.977,8.678-19.088,16.269-26.812
		c18.896-19.227,42.047-17.813,58.371,3.475C8278.217,7165.166,8282.556,7191.544,8281.883,7216.338z"/>
</g>
</svg>
