<?xml version="1.0" encoding="utf-8"?>
<!-- Generator: Adobe Illustrator 25.3.1, SVG Export Plug-In . SVG Version: 6.00 Build 0)  -->
<svg version="1.1" id="Layer_1" xmlns="http://www.w3.org/2000/svg" xmlns:xlink="http://www.w3.org/1999/xlink" x="0px" y="0px"
	 viewBox="0 0 1543.5 1295.4" style="enable-background:new 0 0 1543.5 1295.4;" xml:space="preserve">
<style type="text/css">
	.st0{fill:#5EAC24;}
	.st1{fill:#4DA045;}
	.st2{fill:#75C144;}
	.st3{fill:#3B8337;}
	.st4{fill:#B6E892;}
	.st5{fill:#91DC5A;}
	.st6{fill:#E3F4C2;}
</style>
<g>
	<path class="st0" d="M1070.6,946.2c11.9,85.3-5.8,163.3-59.1,231.8c-50.2,64.6-116.6,102.3-197.6,114.1c-3.1,0.5-7.3-1.4-9,3.2
		c-20.1,0-40.2,0-60.3,0c-11-6.5-23.9-5.4-35.8-8.2c-121.9-28.5-212.2-126.1-230.1-249.4c-22.9-157.9,83.2-307,239.3-336.3
		c2.9-0.5,5.7-1.8,8.5-2.7c15.2-1.1,30.4-2.3,45.6-3.4c55.6,0.8,107.7,14,155.8,42.5c30,17.8,55.4,40.9,78.7,66.6
		c23.1,29.5,40.3,62.3,54.1,97C1063.9,916.3,1067.2,931.2,1070.6,946.2z M554,1117.6c8.8,20.7,23,37.8,38.5,53.3
		c52,52.3,114.8,79,189.3,76.8c83.4-2.5,149.6-38.2,198.5-104.8c42.1-57.4,56.2-122.4,44.2-192.3c-7-41-23-78.6-50.4-110.7
		c-2.3-5.1-6-9.2-9.7-13.2c-57.7-61.5-128-90.6-212.8-83.4c-60.4,5.1-111.9,29.7-154.7,71.9c-41.7,41.1-66.2,91-73.3,149.4
		C516.9,1019,526.3,1070.1,554,1117.6z"/>
	<path class="st0" d="M1543.5,686.6c-6.1,10.6-5.7,22.8-8.5,34.2c-28.7,118.5-127.9,208.6-248.6,225.5c-51.2,7.2-101,1.8-149.4-16.5
		c0.5-1.4,0.7-3.6,1.6-3.9c19.4-7,35.8-19.6,54.3-28.3c28.1,7.4,56.3,7.2,84.9,3.5c54.1-7,101.2-29.2,140-66.9
		c67.2-65.3,92.1-145.1,73.9-237.2c-7.3-37.2-22.4-71.6-47.6-100.8c-39.9-53.7-93.7-84.6-159-95.9c-30.7-5.3-61.6-5.6-92.1,2.6
		c-18.8-10-37.7-20-56.5-30c16.4-10.4,35.4-13.1,53.7-17.7c17.2-2.6,34.5-3.6,51.9-3.5c13.9,0,27.8,1.5,41.7-0.3
		c1.1,1.8,2.4,3.2,4.5,3.5c41.4,6.1,80.3,19.3,115.2,42.8c3.2,2.1,6.3,2.7,9.9,2.6c0.3,4.8,4.5,6.3,7.6,8.6
		c67.1,50.8,107.4,117.4,119.5,200.8c0.3,2.1,0.7,3.9,2.9,4.5C1543.5,638.4,1543.5,662.5,1543.5,686.6z"/>
	<path class="st1" d="M60,337.4C27.6,291.7,4.7,241.9,0.5,185.5c-6.2-85,45.4-154.4,130-176.8c56.6-15,112.5-8.6,167.9,7.2
		c46.6,13.3,90.5,33.1,131.3,59c81,51.4,169.6,78.4,265,85.1c88.3,6.2,175.6,2.4,261.2-21.8c47.6-13.5,92-34.2,134-60.1
		c53.7-33.1,110.6-58.9,173-70.9c37.1-7.1,74.5-10.7,112-2.1c0.8,26.5-0.3,53-7.8,78.6c-17.1,58.8-49.6,108.7-90.3,153.6
		c-32.7,36.1-69.8,67.4-110.1,94.5c-16.9,11.3-32.6,24.7-51.7,32.5c-2.9-0.5-5.9-0.8-8.8-1.6c-46.6-12.9-93.9-15.1-141.3-6.1
		c-62.9,12-116.5,41.8-160.5,88.3c-6.9,7.3-14.1,9.6-23.8,9.6c-42.6,0.1-85.1-2-127.6-5.5c-40.9-3.4-81.3-9.5-121.3-18.5
		c-77.4-17.6-149.4-48.6-217.4-89c-53.9-32-107-65.3-148.8-113.4c-5.4-6.2-13.7-10.7-23.1-7.4c-9.1,3.2-15.2,9.3-17.1,19.2
		c-1.9,9.6,3.3,15.9,9.2,22.4c37.9,41.6,83.1,73.7,130.6,103.1c54.3,33.6,110.8,62.7,171,84.2c68.2,24.3,138.4,38.8,210.5,45
		c14.7,1.3,30-0.6,44.3,4.8c-68.9-0.8-137.9,3.9-206.8-5.1c-26.1-3.4-52.4-5.8-78.2-10.6c-49.5-9-98.1-22-144.7-41.3
		c-31.8-13.2-63.5-26.6-93.5-43.7c-33.8-19.3-67.1-39.4-99.3-61.2C65.5,335.6,62.9,332.4,60,337.4z M746.2,306.8
		c46.6,0.7,88-1.7,129.5-5.3c46.9-4.1,93.2-11.8,138.8-23.1c81.3-20,157.1-53.6,229-96.1c9.5-5.6,19-11.3,27.8-17.8
		c11-8.2,13.5-20.7,7.3-30.4c-7.4-11.5-18.3-14.2-31.4-7.8c-3.6,1.8-6.9,4-10.4,6.1c-59.1,36.4-121,66.8-187.2,88
		c-85.4,27.4-173.6,38.3-262.8,40.8c-33.5,0.9-67.1,0-100.7-1.6c-49.1-2.3-97.8-7.3-145.9-16.7c-69-13.5-135.2-36.3-198.2-67.8
		c-28.7-14.4-56.2-30.8-83.6-47.5c-13.2-8-27.8-5.2-34.4,6.1c-6.5,11.2-2.6,24.7,9.3,32.2c40.7,25.8,82.8,48.8,126.9,68.4
		c90.6,40.4,186,60.8,284.2,69.1C679.9,306.4,715.5,309.1,746.2,306.8z"/>
	<path class="st2" d="M691,499.4c-14.3-5.4-29.6-3.6-44.3-4.8c-72.2-6.2-142.4-20.7-210.5-45c-60.2-21.5-116.7-50.5-171-84.2
		c-47.5-29.4-92.7-61.5-130.6-103.1c-5.9-6.5-11.1-12.8-9.2-22.4c1.9-9.9,8-16,17.1-19.2c9.4-3.3,17.7,1.2,23.1,7.4
		c41.8,48.1,94.9,81.4,148.8,113.4c68,40.4,139.9,71.5,217.4,89c40,9.1,80.4,15.1,121.3,18.5c42.5,3.5,84.9,5.6,127.6,5.5
		c9.7,0,16.9-2.3,23.8-9.6c44-46.5,97.6-76.4,160.5-88.3c47.4-9,94.6-6.8,141.3,6.1c2.9,0.8,5.9,1.1,8.8,1.6
		c6.8,3.7,13.8,7,21.5,8.6c18.8,10,37.7,20,56.5,30c10.6,9,21.6,17.6,31.8,27.1c43.5,40.5,73.1,89.5,87.5,147.2
		c10.9,43.6,11.4,87.6,3.1,131.9c-4.6,24.6-14.3,47.5-22.1,71.1l0-0.1c-1.6,0.4-2.5,1.5-2.7,3.1c-16.9,31.8-37.6,60.7-63.8,85.6
		c-10.8,10.3-23.9,17.7-34,28.8c-18.5,8.7-34.9,21.4-54.3,28.3c-0.9,0.3-1.1,2.6-1.6,3.9c-20.5,1.6-39,11.7-59.1,14.7
		c-2.5,0.4-4.9,1-7.3,1.6c-3.3-15-6.7-29.9-10-44.9c8.3-1.8,16.6-3.3,24.8-5.5c58.3-15.5,105.4-47.9,141.2-96.2
		c31.2-42.1,47-89.9,48.7-142.4c1-29.9-3.3-59-12.8-87c-9.1-27-20.9-53.1-41.3-74.1c-5.3-12.4-16.1-20.3-25.4-29.1
		c-62.9-59.9-138.4-81.5-222.6-65.5c-120,22.9-206.7,129.5-204.9,252c0.2,14.1,2.4,27.8,3.6,41.7c-15.2,1.1-30.4,2.3-45.6,3.4
		c-3.2-15.9-3.9-32-3-48.2c-2.3-53.5,13.8-102.6,39.1-151.1C736.9,499.4,714,499.4,691,499.4z"/>
	<path class="st3" d="M691,499.4c23,0,45.9,0,71.5,0c-25.3,48.5-41.4,97.6-39.1,151.1c-94.3-3.5-187.2-15-277.1-45.3
		c-74.4-25.1-143.2-61.2-208.4-104.4c-44.7-29.7-88.7-60.4-126-99.4c-19-19.9-37.8-40.1-51.8-64c2.9-5,5.5-1.8,8.4,0.2
		c32.3,21.8,65.5,41.9,99.3,61.2c30.1,17.2,61.7,30.6,93.5,43.7c46.6,19.3,95.2,32.2,144.7,41.3c25.8,4.7,52.1,7.1,78.2,10.6
		C553.1,503.3,622.1,498.6,691,499.4z"/>
	<path class="st3" d="M1136.5,373c-7.7-1.6-14.7-4.8-21.5-8.6c19.1-7.8,34.9-21.2,51.7-32.5c40.4-27.1,77.4-58.4,110.1-94.5
		c40.6-44.9,73.2-94.8,90.3-153.6c7.5-25.6,8.5-52.1,7.8-78.6c72.4,8.2,136.4,65.3,147.8,135.1c6.3,38.2,0.7,74.6-12,110.5
		c-20.4,57.7-54.3,106.6-97.3,149.7c-3.6,0.1-6.7-0.5-9.9-2.6c-34.9-23.5-73.8-36.7-115.2-42.8c-2.2-0.3-3.5-1.7-4.5-3.5
		c2.2-3.6,6.2-5,9.5-7.2c34.5-22.7,66.2-48.8,94.5-78.9c14-14.9,15.7-29.1,4.2-39.2c-12.2-10.8-25.1-7.9-38.2,8.2
		c-3.8,4.7-7.8,9.2-12.2,13.3c-30.3,28-63.3,52.3-98.2,74.3c-17.7,11.2-37,19.9-53.1,33.5C1171.9,359.9,1152.9,362.6,1136.5,373z"/>
	<path class="st4" d="M554,1117.6c-27.7-47.5-37.1-98.6-30.5-153c7.1-58.4,31.5-108.3,73.3-149.4c42.9-42.2,94.3-66.7,154.7-71.9
		c84.7-7.2,155.1,21.9,212.8,83.4c3.8,4,7.4,8.2,9.7,13.2c-1.4,6.2,2.4,11.6,2.7,17.7c3.6,70-13.3,134-56,190.1
		c-15.4,20.2-31.2,40.5-55,52c-15.8-33-44.8-47.1-78.5-53.9c-9.6-1.9-12.6,1.6-11.1,11.3c4.6,29.2,16.6,54.2,40.8,72.3
		c-4.4,5.2-10.7,6.9-16.7,9.2c-37.3,14.7-76,20.3-115.9,18c-26-1.5-51.2-6.2-75.8-15C589.7,1134.9,572.5,1124.9,554,1117.6z
		 M853.7,1015.2c22.3,2.1,41.1-8.6,59.4-20.1c9-5.7,8.7-11-0.1-17.4c-14.3-10.5-30.1-18.8-47.4-21.8c-21.8-3.7-43.1-0.2-60.3,15.4
		c-9.5,8.6-9.3,18.4-0.3,27.4C818.3,1011.9,834.9,1016.2,853.7,1015.2z M787,874.1c-0.4-19-3.4-36-17-49.2
		c-8.6-8.3-17.7-8.2-26.5-0.4c-7,6.2-11.2,14.2-13.8,22.9c-9.7,33.2,0.6,62,20.6,88.4c4.5,5.9,9.2,5.4,13.1-0.7
		C775.5,916.2,787.1,896.9,787,874.1z M720.7,1009.4c-0.6-14.7-5.4-26.9-10.7-38.6c-10.8-23.7-29.7-38.8-54.8-45.2
		c-17.3-4.4-30.9,10-26.1,27.1c2,7.2,4.5,14.1,8.3,20.7c16.2,28.5,43.5,38.1,73,44.4C717.9,1019.5,721.9,1016.3,720.7,1009.4z"/>
	<path class="st5" d="M772.1,695.2c-1.2-13.9-3.4-27.7-3.6-41.7c-1.8-122.4,84.9-229.1,204.9-252c84.2-16,159.7,5.6,222.6,65.5
		c9.3,8.8,20.1,16.7,25.4,29.1c-1,8.6,2.7,16.5,3,25.1c1.5,42.5-5.8,83.2-21.6,122.5c-14,34.8-35.9,64.6-61.9,90.8
		c-20,20.1-43.7,36.4-69.5,48.7c-20.6,9.8-41.1,20.5-64.7,21.2c-23.2-25.7-48.7-48.7-78.7-66.6C879.8,709.2,827.6,696,772.1,695.2z
		 M998.2,718.9c-0.1,13.7,2.2,24,6.2,33.7c4.7,11.6,10.2,24.7,25.4,23.9c14.3-0.8,20.5-13,25-24.9c13.5-35.5,0.2-65.3-20.1-93.7
		c-3.5-4.9-7.6-5.3-10.8-0.5C1010.7,677,999.2,697.4,998.2,718.9z M1091.4,528.7c-1.1-8.6-1.9-18.2-5.5-27
		c-4.8-12.2-9.7-25.1-25.7-26c-11.3-0.7-20.5,9.3-26.4,27.1c-11.3,34,1.2,62.7,20,90c3.8,5.5,8.6,5.2,12.3,0.1
		C1080,574,1090,553.5,1091.4,528.7z M929.8,638.6c28.5,0.5,48.3-11.3,67.5-24.3c6.4-4.3,4.8-8.9-1-13c-11.9-8.5-24.4-15.9-38.5-20
		c-22.1-6.4-43.8-5.3-63.8,6.7c-18.8,11.3-18.9,28.5-0.3,40.2C905.9,635.9,919.5,638.8,929.8,638.6z"/>
	<path class="st5" d="M865.8,1099.7c23.8-11.6,39.7-31.8,55-52c42.7-56.1,59.6-120.2,56-190.1c-0.3-6.1-4.2-11.4-2.7-17.7
		c27.4,32.1,43.4,69.7,50.4,110.7c12,70-2.1,135-44.2,192.3c-48.9,66.6-115.1,102.3-198.5,104.8c-74.5,2.2-137.2-24.5-189.3-76.8
		c-15.5-15.6-29.7-32.7-38.5-53.3c18.5,7.3,35.7,17.3,54.5,24.1c24.6,8.9,49.9,13.6,75.8,15c39.9,2.3,78.6-3.3,115.9-18
		c6-2.4,12.3-4,16.7-9.2c10.2,3.6,19.6,9.5,30.9,9.2c13.4-0.3,19.9-6.7,20.6-19.9C868.8,1112.1,866.1,1106.1,865.8,1099.7z"/>
	<path class="st4" d="M1006.5,804.3c23.7-0.7,44.2-11.4,64.7-21.2c25.8-12.3,49.5-28.5,69.5-48.7c26.1-26.2,48-56,61.9-90.8
		c15.8-39.3,23.1-80,21.6-122.5c-0.3-8.6-4-16.5-3-25.1c20.4,21,32.1,47.1,41.3,74.1c9.5,28,13.8,57.1,12.8,87
		c-1.7,52.6-17.6,100.3-48.7,142.4c-35.7,48.3-82.8,80.7-141.2,96.2c-8.2,2.2-16.6,3.7-24.8,5.5
		C1046.7,866.6,1029.6,833.8,1006.5,804.3z"/>
	<path class="st5" d="M1192.8,897.6c10.1-11.1,23.2-18.5,34-28.8c26.1-25,46.9-53.9,63.8-85.6c0.9-1,1.8-2.1,2.7-3.1l0,0.1
		c5.3,0.7,9.7-1.8,14.1-4.3c31.9-18.5,58.9-42.5,81.4-71.7c39.9-51.6,57.3-110.7,58.1-175.2c0.1-10.9-4.6-21.5-2.7-32.6
		c25.2,29.2,40.2,63.6,47.6,100.8c18.2,92-6.7,171.9-73.9,237.2c-38.8,37.7-85.8,59.9-140,66.9
		C1249.1,904.9,1220.9,905,1192.8,897.6z"/>
	<path class="st4" d="M1444.1,496.4c-1.8,11.1,2.9,21.7,2.7,32.6c-0.8,64.5-18.1,123.6-58.1,175.2c-22.5,29.1-49.5,53.2-81.4,71.7
		c-4.3,2.5-8.7,5-14.1,4.3c7.8-23.5,17.5-46.5,22.1-71.1c8.3-44.2,7.8-88.2-3.1-131.9c-14.5-57.7-44.1-106.6-87.5-147.2
		c-10.2-9.5-21.2-18.1-31.8-27.1c30.5-8.2,61.4-7.9,92.1-2.6C1350.4,411.7,1404.2,442.7,1444.1,496.4z M1414,599.4
		c0.4-14.1-2.1-29.1-12.1-42.1c-9.3-12.1-22.5-12.9-33.2-2c-4.3,4.4-7,9.6-9.3,15.3c-13.9,34.6-2.1,64.4,17,93.1
		c4.5,6.7,9.1,6.2,12.9,0.6C1402.4,645.1,1415.2,625.8,1414,599.4z"/>
	<path class="st2" d="M1190.2,355.2c16.2-13.6,35.4-22.3,53.1-33.5c34.9-22,67.9-46.3,98.2-74.3c4.4-4.1,8.4-8.6,12.2-13.3
		c13.2-16.1,26-19,38.2-8.2c11.5,10.1,9.8,24.3-4.2,39.2c-28.3,30.1-60,56.2-94.5,78.9c-3.3,2.2-7.2,3.6-9.5,7.2
		c-13.9,1.9-27.8,0.4-41.7,0.3C1224.7,351.6,1207.4,352.6,1190.2,355.2z"/>
	<path class="st2" d="M746.2,306.8c-30.7,2.3-66.3-0.4-101.7-3.4c-98.2-8.4-193.6-28.7-284.2-69.1c-44.1-19.7-86.2-42.6-126.9-68.4
		c-11.9-7.6-15.8-21.1-9.3-32.2c6.6-11.3,21.3-14.1,34.4-6.1c27.4,16.7,54.9,33.1,83.6,47.5c63,31.6,129.2,54.3,198.2,67.8
		c48.1,9.4,96.7,14.4,145.9,16.7c33.6,1.6,67.2,2.6,100.7,1.6c89.3-2.5,177.4-13.4,262.8-40.8c66.2-21.2,128.1-51.6,187.2-88
		c3.4-2.1,6.8-4.3,10.4-6.1c13.1-6.4,24-3.7,31.4,7.8c6.2,9.7,3.7,22.2-7.3,30.4c-8.8,6.6-18.3,12.2-27.8,17.8
		c-72,42.5-147.8,76.1-229,96.1c-45.6,11.2-91.8,19-138.8,23.1C834.2,305.1,792.8,307.5,746.2,306.8z"/>
	<path class="st4" d="M1293.3,780.1c-0.9,1-1.8,2.1-2.7,3.1C1290.8,781.5,1291.7,780.5,1293.3,780.1z"/>
	<path class="st6" d="M865.8,1099.7c0.3,6.4,3,12.4,2.7,19c-0.7,13.2-7.1,19.6-20.6,19.9c-11.4,0.3-20.8-5.6-30.9-9.2
		c-24.2-18.1-36.2-43-40.8-72.3c-1.5-9.8,1.5-13.3,11.1-11.3C821,1052.7,849.9,1066.7,865.8,1099.7z"/>
	<path class="st6" d="M853.7,1015.2c-18.9,1-35.5-3.3-48.8-16.6c-9-9-9.2-18.8,0.3-27.4c17.2-15.6,38.5-19.1,60.3-15.4
		c17.3,3,33.1,11.3,47.4,21.8c8.9,6.5,9.1,11.8,0.1,17.4C894.9,1006.7,876.1,1017.4,853.7,1015.2z"/>
	<path class="st6" d="M787,874.1c0.1,22.7-11.5,42.1-23.7,61.1c-3.9,6.1-8.5,6.6-13.1,0.7c-20.1-26.4-30.3-55.2-20.6-88.4
		c2.5-8.7,6.8-16.7,13.8-22.9c8.8-7.8,17.9-8,26.5,0.4C783.6,838.2,786.6,855.2,787,874.1z"/>
	<path class="st6" d="M720.7,1009.4c1.2,6.8-2.8,10.1-10.4,8.4c-29.4-6.3-56.8-15.9-73-44.4c-3.8-6.7-6.3-13.6-8.3-20.7
		c-4.8-17.1,8.8-31.6,26.1-27.1c25.2,6.5,44,21.5,54.8,45.2C715.4,982.5,720.1,994.8,720.7,1009.4z"/>
	<path class="st6" d="M998.2,718.9c1-21.5,12.6-41.9,25.7-61.5c3.2-4.8,7.3-4.4,10.8,0.5c20.3,28.3,33.6,58.2,20.1,93.7
		c-4.5,11.9-10.8,24.1-25,24.9c-15.2,0.9-20.7-12.3-25.4-23.9C1000.4,742.9,998,732.6,998.2,718.9z"/>
	<path class="st6" d="M1091.4,528.7c-1.4,24.8-11.4,45.3-25.3,64.1c-3.8,5.1-8.6,5.3-12.3-0.1c-18.8-27.3-31.3-56-20-90
		c5.9-17.8,15.1-27.7,26.4-27.1c16,1,20.9,13.9,25.7,26C1089.4,510.6,1090.3,520.1,1091.4,528.7z"/>
	<path class="st6" d="M929.8,638.6c-10.3,0.2-23.9-2.7-36.1-10.4c-18.6-11.7-18.6-28.9,0.3-40.2c20-12,41.7-13.2,63.8-6.7
		c14.1,4.1,26.6,11.5,38.5,20c5.8,4.1,7.3,8.7,1,13C978.1,627.3,958.3,639.1,929.8,638.6z"/>
	<path class="st6" d="M1414,599.4c1.2,26.4-11.6,45.7-24.7,64.8c-3.8,5.6-8.5,6.2-12.9-0.6c-19.1-28.6-30.8-58.4-17-93.1
		c2.3-5.7,4.9-10.9,9.3-15.3c10.8-10.9,23.9-10.1,33.2,2C1412,570.3,1414.4,585.3,1414,599.4z"/>
</g>
</svg>
