<?xml version="1.0" encoding="iso-8859-1"?>
<!-- Generator: Adobe Illustrator 25.3.1, SVG Export Plug-In . SVG Version: 6.00 Build 0)  -->
<svg version="1.1" id="Layer_1" xmlns="http://www.w3.org/2000/svg" xmlns:xlink="http://www.w3.org/1999/xlink" x="0px" y="0px"
	 viewBox="0 0 4320 4320" style="enable-background:new 0 0 4320 4320;" xml:space="preserve">
<path style="fill:#5F228E;" d="M3766.347,1873.095c-44.074,113.91-108.836,215.906-182.898,312.018
	c-191.329,248.294-420.229,455.96-684.108,624.678c-260.985,166.868-541.717,285.602-848.021,339.229
	c-355.586,62.256-703.086,35.636-1036.047-109.045c-167.845-72.933-313.486-180.844-419.891-332.149
	c-144.936-206.096-199.184-431.187-113.376-676.17c62.093-177.277,193.688-286.276,365.563-351.14
	c148.607-56.082,303.167-65.429,459.792-57.413c141.23,7.227,280.737,29.467,420.467,49.45
	c190.839,27.292,381.739,43.033,574.059,14.312c197.797-29.54,385.993-84.774,552.578-200.103
	c9.38-6.494,18.165-13.849,27.225-20.819c6.056,2.06,12.114,4.135,18.172,6.211c-18.36,27.876-59.875,28.211-72.629,62.972
	c-10.741,1.949-21.421,1.557-30.999,6.865c-38.025,21.072-75.138,43.419-115.277,61.107c-35.789,15.771-72.274,30.533-109.23,40.625
	c-71.607,19.555-143.126,40.134-217.108,51.117c-85.021,12.621-170.21,21.678-255.947,26.416
	c-71.625,3.958-142.586-5.795-213.54-12.288c-47.187-4.319-95.146-7.062-141.31-16.336
	c-74.448-14.957-149.964-22.045-224.756-32.819c-102.829-14.813-206.771-24.303-311.714-20.608
	c-60.842,2.142-121.197,5.182-181.641,12.218c-76.878,8.95-148.083,35.432-219.375,63.436
	c-72.03,28.295-128.766,78.448-185.915,127.33c-24.072,20.59-38.891,52.528-58.382,77.256
	c-22.965,29.134-39.608,60.616-54.562,92.34c-29.339,62.24-40.888,129.383-45.435,198.692
	c-4.891,74.553,1.734,146.789,20.53,218.546c1.746,6.664,3.954,11.985,8.656,17.401c41.872,48.231,87.784,92.307,134.127,136.206
	c65.559,62.101,136.167,117.615,214.734,161.269c65.921,36.627,135.747,63.545,209.66,84.604
	c65.117,18.552,129.71,28.246,195.631,34.393c54.617,5.093,109.682,6.482,164.618,0.674c44.583-4.713,89.781-5.501,133.818-13.147
	c137.365-23.851,272.103-58.849,404.762-101.796c166.48-53.897,331.431-111.827,492.391-180.888
	c115.352-49.493,225.754-108.111,330.238-177.331c59.705-39.554,113.994-86.389,168.355-133.349
	c69.372-59.927,125.024-130.83,179.76-202.902c47.443-62.469,82.72-132.335,119.331-201.516
	c12.903-24.381,17.617-52.627,36.12-74.017c-3.731,30.307-7.462,60.613-11.846,96.231
	c109.446-42.349,220.063-67.184,298.187-160.464c73.183-87.38,135.865-178.927,165.449-290.859
	c24.807,91.207,14.705,179.557-12.838,266.973c-27.445,87.102-73.936,165.093-121.403,242.657
	c15.944,10.267,27.999,5.221,39.894,3.295C3683.004,1928.232,3723.902,1899.015,3766.347,1873.095z"/>
<path style="fill:#459B09;" d="M3766.347,1873.095c-42.446,25.92-83.343,55.137-134.131,63.362
	c-11.895,1.926-23.95,6.972-39.894-3.295c47.468-77.564,93.958-155.555,121.403-242.657
	c27.543-87.416,37.646-175.766,12.838-266.973c-29.583,111.932-92.266,203.479-165.449,290.859
	c-78.124,93.281-188.741,118.115-298.187,160.464c4.385-35.617,8.115-65.924,11.843-96.228
	c8.145-45.473,7.813-91.667,11.583-137.513c6.837-83.137,11.295-166.443,21.276-249.359c4.775-39.67,13.989-78.564,20.938-118.383
	c-14.842-0.582-23.391,6.686-31.196,13.078c-44.668,36.58-92.769,68.201-141.494,98.857c-78.343,49.29-156.788,98.9-256.015,86.846
	c-6.058-2.076-12.115-4.151-18.172-6.211c-8.599-10.534-2.865-14.907,7.411-17.781c59.789-16.72,99.066-59.734,136.278-105.777
	c91.212-112.857,199.039-202.16,342.818-240.04c47.608-12.543,96.141-15.618,146.423-13.37
	c15.296-57.948,24.886-115.053,21.906-174.169c-2.997-59.472-3.66-118.974,2.428-178.433
	c7.942-77.567,36.859-104.252,115.451-104.575c1.92-0.008,3.841-0.014,5.761,0.009c98.748,1.206,127.853,40.528,98.834,134.821
	c-26.793,87.06-38.895,175.86-35.344,266.939c1.605,41.184,3.074,82.476-4.154,124.808c17.389,12.937,35.758,25.017,52.325,39.204
	c67.759,58.027,105.314,133.246,121.308,219.818c22.52,121.891,5.872,238.675-47.577,350.418
	C3826.196,1808.298,3793.877,1838.854,3766.347,1873.095z"/>
<path style="fill:#652D8F;" d="M3297.373,1286.451c-44.669,36.58-92.769,68.201-141.495,98.857
	c-78.342,49.289-156.788,98.9-256.015,86.846c-18.36,27.876-59.875,28.211-72.629,62.972c-10.742,1.949-21.421,1.557-30.999,6.865
	c-38.026,21.072-75.138,43.419-115.278,61.107c-35.789,15.771-72.274,30.533-109.23,40.625
	c-71.606,19.554-143.126,40.134-217.107,51.116c-85.022,12.621-170.211,21.678-255.947,26.416
	c-71.625,3.958-142.586-5.795-213.54-12.288c-47.187-4.318-95.146-7.063-141.31-16.336
	c-74.448-14.957-149.964-22.045-224.756-32.818c-102.829-14.813-206.771-24.303-311.714-20.608
	c-60.842,2.142-121.197,5.182-181.641,12.218c-76.878,8.95-148.083,35.432-219.375,63.436
	c-72.03,28.295-128.765,78.448-185.914,127.331c-24.072,20.59-38.891,52.528-58.382,77.256
	c-22.964,29.134-39.607,60.616-54.561,92.339c-29.339,62.24-40.888,129.383-45.435,198.692
	c-4.891,74.553,1.734,146.789,20.53,218.546c1.746,6.664,3.954,11.984,8.656,17.401c41.872,48.231,87.783,92.307,134.127,136.206
	c65.559,62.101,136.166,117.615,214.733,161.27c65.921,36.627,135.747,63.545,209.66,84.603
	c65.116,18.552,129.71,28.246,195.631,34.393c54.618,5.092,109.682,6.481,164.618,0.673c44.583-4.714,89.781-5.501,133.817-13.147
	c137.365-23.851,272.103-58.85,404.762-101.796c166.48-53.897,331.432-111.827,492.391-180.888
	c115.352-49.493,225.754-108.111,330.238-177.331c59.704-39.554,113.994-86.389,168.354-133.349
	c69.373-59.928,125.025-130.831,179.761-202.902c47.443-62.469,82.72-132.336,119.331-201.516
	c12.903-24.381,17.617-52.627,36.116-74.014c8.145-45.473,7.813-91.666,11.583-137.513c6.837-83.137,11.295-166.443,21.276-249.359
	c4.775-39.67,13.989-78.565,20.939-118.383C3313.727,1272.791,3305.177,1280.06,3297.373,1286.451z"/>
<path style="fill:#5F228E;" d="M615.705,1877.067c-1.941,1.941-3.882,3.882-5.823,5.824
	C611.823,1880.951,613.764,1879.009,615.705,1877.067z"/>
<path style="fill:#6B3198;" d="M635.572,2361.012c-33.712-79.121-32.478-160.646-6.59-240.559
	c63.108-194.813,265.243-311.726,463.217-283.324c99.831,14.322,184.682,64.305,248.109,145.414
	c28.441,36.37,23.885,88.103-8.867,115.291c-33.118,27.491-82.374,23.125-114.242-13.762
	c-142.005-164.37-355.489-77.893-421.009,53.464c-26.755,53.641-26.089,109.889-18.107,168.026
	c8.979,65.39-43.019,105.558-106.075,86.542C654.407,2386.797,645.488,2374.828,635.572,2361.012z"/>
</svg>
