<?xml version="1.0" encoding="utf-8"?>
<!-- Generator: Adobe Illustrator 25.3.1, SVG Export Plug-In . SVG Version: 6.00 Build 0)  -->
<svg version="1.1" id="Layer_1" xmlns="http://www.w3.org/2000/svg" xmlns:xlink="http://www.w3.org/1999/xlink" x="0px" y="0px"
	 viewBox="0 0 3461.9 2548.8" style="enable-background:new 0 0 3461.9 2548.8;" xml:space="preserve">
<style type="text/css">
	.st0{fill:#5F228E;}
	.st1{fill:#459B09;}
	.st2{fill:#652D8F;}
	.st3{fill:#6B3198;}
</style>
<path class="st0" d="M3325.3,1241.3c-44.1,113.9-108.8,215.9-182.9,312c-191.3,248.3-420.2,456-684.1,624.7
	c-261,166.9-541.7,285.6-848,339.2c-355.6,62.3-703.1,35.6-1036-109c-167.8-72.9-313.5-180.8-419.9-332.1
	C9.4,1869.9-44.8,1644.8,41,1399.9c62.1-177.3,193.7-286.3,365.6-351.1c148.6-56.1,303.2-65.4,459.8-57.4
	c141.2,7.2,280.7,29.5,420.5,49.5c190.8,27.3,381.7,43,574.1,14.3c197.8-29.5,386-84.8,552.6-200.1c9.4-6.5,18.2-13.8,27.2-20.8
	c6.1,2.1,12.1,4.1,18.2,6.2c-18.4,27.9-59.9,28.2-72.6,63c-10.7,1.9-21.4,1.6-31,6.9c-38,21.1-75.1,43.4-115.3,61.1
	c-35.8,15.8-72.3,30.5-109.2,40.6c-71.6,19.6-143.1,40.1-217.1,51.1c-85,12.6-170.2,21.7-255.9,26.4c-71.6,4-142.6-5.8-213.5-12.3
	c-47.2-4.3-95.1-7.1-141.3-16.3c-74.4-15-150-22-224.8-32.8c-102.8-14.8-206.8-24.3-311.7-20.6c-60.8,2.1-121.2,5.2-181.6,12.2
	c-76.9,9-148.1,35.4-219.4,63.4c-72,28.3-128.8,78.4-185.9,127.3c-24.1,20.6-38.9,52.5-58.4,77.3c-23,29.1-39.6,60.6-54.6,92.3
	c-29.3,62.2-40.9,129.4-45.4,198.7c-4.9,74.6,1.7,146.8,20.5,218.5c1.7,6.7,4,12,8.7,17.4c41.9,48.2,87.8,92.3,134.1,136.2
	c65.6,62.1,136.2,117.6,214.7,161.3c65.9,36.6,135.7,63.5,209.7,84.6c65.1,18.6,129.7,28.2,195.6,34.4c54.6,5.1,109.7,6.5,164.6,0.7
	c44.6-4.7,89.8-5.5,133.8-13.1c137.4-23.9,272.1-58.8,404.8-101.8c166.5-53.9,331.4-111.8,492.4-180.9
	c115.4-49.5,225.8-108.1,330.2-177.3c59.7-39.6,114-86.4,168.4-133.3c69.4-59.9,125-130.8,179.8-202.9
	c47.4-62.5,82.7-132.3,119.3-201.5c12.9-24.4,17.6-52.6,36.1-74c-3.7,30.3-7.5,60.6-11.8,96.2c109.4-42.3,220.1-67.2,298.2-160.5
	c73.2-87.4,135.9-178.9,165.4-290.9c24.8,91.2,14.7,179.6-12.8,267c-27.4,87.1-73.9,165.1-121.4,242.7c15.9,10.3,28,5.2,39.9,3.3
	C3242,1296.4,3282.9,1267.2,3325.3,1241.3z"/>
<path class="st1" d="M3325.3,1241.3c-42.4,25.9-83.3,55.1-134.1,63.4c-11.9,1.9-23.9,7-39.9-3.3c47.5-77.6,94-155.6,121.4-242.7
	c27.5-87.4,37.6-175.8,12.8-267c-29.6,111.9-92.3,203.5-165.4,290.9c-78.1,93.3-188.7,118.1-298.2,160.5
	c4.4-35.6,8.1-65.9,11.8-96.2c8.1-45.5,7.8-91.7,11.6-137.5c6.8-83.1,11.3-166.4,21.3-249.4c4.8-39.7,14-78.6,20.9-118.4
	c-14.8-0.6-23.4,6.7-31.2,13.1c-44.7,36.6-92.8,68.2-141.5,98.9c-78.3,49.3-156.8,98.9-256,86.8c-6.1-2.1-12.1-4.2-18.2-6.2
	c-8.6-10.5-2.9-14.9,7.4-17.8c59.8-16.7,99.1-59.7,136.3-105.8c91.2-112.9,199-202.2,342.8-240c47.6-12.5,96.1-15.6,146.4-13.4
	c15.3-57.9,24.9-115.1,21.9-174.2c-3-59.5-3.7-119,2.4-178.4C3105.9,27,3134.8,0.3,3213.4,0c1.9,0,3.8,0,5.8,0
	c98.7,1.2,127.9,40.5,98.8,134.8c-26.8,87.1-38.9,175.9-35.3,266.9c1.6,41.2,3.1,82.5-4.2,124.8c17.4,12.9,35.8,25,52.3,39.2
	c67.8,58,105.3,133.2,121.3,219.8c22.5,121.9,5.9,238.7-47.6,350.4C3385.2,1176.5,3352.8,1207.1,3325.3,1241.3z"/>
<path class="st2" d="M2856.3,654.7c-44.7,36.6-92.8,68.2-141.5,98.9c-78.3,49.3-156.8,98.9-256,86.8c-18.4,27.9-59.9,28.2-72.6,63
	c-10.7,1.9-21.4,1.6-31,6.9c-38,21.1-75.1,43.4-115.3,61.1c-35.8,15.8-72.3,30.5-109.2,40.6c-71.6,19.6-143.1,40.1-217.1,51.1
	c-85,12.6-170.2,21.7-255.9,26.4c-71.6,4-142.6-5.8-213.5-12.3c-47.2-4.3-95.1-7.1-141.3-16.3c-74.4-15-150-22-224.8-32.8
	c-102.8-14.8-206.8-24.3-311.7-20.6c-60.8,2.1-121.2,5.2-181.6,12.2c-76.9,9-148.1,35.4-219.4,63.4c-72,28.3-128.8,78.4-185.9,127.3
	c-24.1,20.6-38.9,52.5-58.4,77.3c-23,29.1-39.6,60.6-54.6,92.3c-29.3,62.2-40.9,129.4-45.4,198.7c-4.9,74.6,1.7,146.8,20.5,218.5
	c1.7,6.7,4,12,8.7,17.4c41.9,48.2,87.8,92.3,134.1,136.2c65.6,62.1,136.2,117.6,214.7,161.3c65.9,36.6,135.7,63.5,209.7,84.6
	c65.1,18.6,129.7,28.2,195.6,34.4c54.6,5.1,109.7,6.5,164.6,0.7c44.6-4.7,89.8-5.5,133.8-13.1c137.4-23.9,272.1-58.9,404.8-101.8
	c166.5-53.9,331.4-111.8,492.4-180.9c115.4-49.5,225.8-108.1,330.2-177.3c59.7-39.6,114-86.4,168.4-133.3
	c69.4-59.9,125-130.8,179.8-202.9c47.4-62.5,82.7-132.3,119.3-201.5c12.9-24.4,17.6-52.6,36.1-74c8.1-45.5,7.8-91.7,11.6-137.5
	c6.8-83.1,11.3-166.4,21.3-249.4c4.8-39.7,14-78.6,20.9-118.4C2872.7,641,2864.1,648.3,2856.3,654.7z"/>
<path class="st0" d="M174.7,1245.3c-1.9,1.9-3.9,3.9-5.8,5.8C170.8,1249.2,172.7,1247.2,174.7,1245.3z"/>
<path class="st3" d="M194.5,1729.2c-33.7-79.1-32.5-160.6-6.6-240.6c63.1-194.8,265.2-311.7,463.2-283.3
	c99.8,14.3,184.7,64.3,248.1,145.4c28.4,36.4,23.9,88.1-8.9,115.3c-33.1,27.5-82.4,23.1-114.2-13.8c-142-164.4-355.5-77.9-421,53.5
	c-26.8,53.6-26.1,109.9-18.1,168c9,65.4-43,105.6-106.1,86.5C213.4,1755,204.5,1743,194.5,1729.2z"/>
</svg>
