<?xml version="1.0" encoding="iso-8859-1"?>
<!-- Generator: Adobe Illustrator 25.3.1, SVG Export Plug-In . SVG Version: 6.00 Build 0)  -->
<svg version="1.1" id="Layer_1" xmlns="http://www.w3.org/2000/svg" xmlns:xlink="http://www.w3.org/1999/xlink" x="0px" y="0px"
	 viewBox="0 0 14400 14400" style="enable-background:new 0 0 14400 14400;" xml:space="preserve">
<circle style="fill:#744EAA;" cx="8485.776" cy="8028.366" r="415.247"/>
<path style="fill:#67449E;" d="M8532.831,8432.779c-223.35-51.988-362.264-275.201-310.269-498.551
	c38.965-167.382,174.086-287.332,333.364-315.058c-215.13-37.072-424.428,99.709-474.557,315.058
	c-51.988,223.35,86.919,446.556,310.27,498.551c55.968,13.029,111.922,14.06,165.179,4.789
	C8548.832,8436.189,8540.832,8434.646,8532.831,8432.779z"/>
<path style="fill:#93603E;" d="M6568.606,6365.154c10.326,2.401,20.44,5.249,30.389,8.377c4.069-17.379,9.297-34.169,15.376-50.465
	c-417.065-474.125-935.775-648.56-1124.042-694.167c-39.864-9.654-78.363,18.271-81.629,58.994l-20.426,254.562
	c-2.792,34.814,27.164,64.016,61.8,60.002c432.009-50.054,832.491,169.969,1085.077,356.459
	C6546.293,6360.563,6557.442,6362.553,6568.606,6365.154z"/>
<path style="fill:#7F573C;" d="M6408.709,6118.338c-249.917-160.507-592.962-311.635-958.629-269.273
	c-21.497,2.491-41.175-7.829-52.359-24.323l-9.448,117.713c-2.792,34.814,27.164,64.016,61.8,60.002
	c432.009-50.054,832.491,169.969,1085.077,356.459c11.136,1.653,22.292,3.644,33.449,6.237c10.333,2.401,20.44,5.249,30.389,8.371
	c4.069-17.379,9.297-34.169,15.376-50.465C6547.823,6247.414,6478.682,6179.425,6408.709,6118.338z"/>
<path style="fill:#3BBC56;" d="M5958.044,7155.029c52.873-64.448,124.163-111.544,203.939-134.791
	c12.913,15.191-140.527-136.499-88.209-361.27c36.763-157.934,159.8-273.252,307.668-307.902
	c-194.766-64.304-473.205-81.437-764.722,95.125c-25.305,15.328-30.505,49.93-10.436,71.667
	c40.866,44.276,115.085,115.51,215.089,173.866c26.21,15.294,29.764,51.274,7.108,71.46
	c-82.651,73.649-159.279,171.025-221.395,299.538c-12.872,26.629,1.633,58.513,30.293,65.814
	C5701.019,7144.737,5829.429,7166.186,5958.044,7155.029z"/>
<path style="fill:#30AA44;" d="M5787.211,7128.531c-28.66-7.293-43.165-39.185-30.292-65.813
	c62.115-128.513,138.743-225.889,221.394-299.531c22.656-20.186,19.102-56.167-7.108-71.46
	c-100.003-58.356-174.223-129.59-215.089-173.866c-20.069-21.737-14.868-56.338,10.437-71.667
	c142.544-86.336,281.932-126.276,409.971-137.117c-165.125-14.107-359.369,15.727-559.802,137.117
	c-25.304,15.328-30.505,49.93-10.436,71.667c40.866,44.276,115.085,115.51,215.089,173.866c26.21,15.301,29.765,51.274,7.108,71.46
	c-82.651,73.649-159.279,171.025-221.395,299.531c-12.872,26.629,1.633,58.513,30.293,65.813
	c63.495,16.172,191.465,37.545,319.799,26.554C5886.583,7149.746,5825.278,7138.226,5787.211,7128.531z"/>
<path style="fill:#3BBC56;" d="M7093.676,6066.117c23.479,5.461,45.971,12.906,67.44,21.984
	c52.846-81.958,133.109-142.009,224.976-170.449c23.507-163.965-27.185-328.925-51.501-405.161
	c-8.988-28.179-41.676-40.763-67.495-26.333c-124.595,69.635-217.25,151.903-285.863,238.781
	c-18.807,23.815-54.932,22.402-71.756-2.848c-64.195-96.36-139.704-166.222-186.326-204.392
	c-22.896-18.738-57.121-11.5-70.919,14.67c-161.351,306.049-118.035,586.369-39.857,777.628
	C6687.952,6126.661,6894.258,6019.7,7093.676,6066.117z"/>
<path style="fill:#30AA44;" d="M6777.835,5566.201c-20.426-19.527-39.171-35.809-54.685-48.503
	c-22.889-18.738-57.121-11.5-70.918,14.67c-161.351,306.042-118.036,586.369-39.857,777.628
	c22.278-54.054,55.995-101.396,97.479-140.197C6669.667,6001.133,6669.385,5791.369,6777.835,5566.201z"/>
<circle style="fill:#744EAA;" cx="7498.158" cy="6303.292" r="415.247"/>
<path style="fill:#67449E;" d="M7545.206,6707.719c-223.35-51.988-362.264-275.201-310.269-498.551
	c38.965-167.382,174.085-287.332,333.364-315.058c-215.13-37.072-424.428,99.708-474.557,315.058
	c-51.988,223.35,86.919,446.556,310.269,498.551c55.968,13.03,111.922,14.059,165.18,4.789
	C7561.199,6711.129,7553.206,6709.579,7545.206,6707.719z"/>
<circle style="fill:#744EAA;" cx="7041.742" cy="7651.68" r="415.247"/>
<path style="fill:#67449E;" d="M7088.832,8056.093c-223.35-51.988-362.264-275.201-310.269-498.544
	c38.965-167.382,174.085-287.332,333.364-315.058c-215.13-37.072-424.428,99.709-474.557,315.058
	c-51.988,223.35,86.919,446.556,310.269,498.544c55.968,13.03,111.922,14.059,165.18,4.789
	C7104.832,8059.503,7096.832,8057.952,7088.832,8056.093z"/>
<circle style="fill:#744EAA;" cx="6261.815" cy="7412.905" r="415.247"/>
<path style="fill:#67449E;" d="M6308.898,7817.298c-223.35-51.988-362.264-275.201-310.269-498.551
	c38.965-167.382,174.085-287.332,333.364-315.059c-215.13-37.071-424.428,99.709-474.557,315.059
	c-51.988,223.35,86.919,446.556,310.269,498.551c55.968,13.029,111.922,14.059,165.18,4.789
	C6324.892,7820.708,6316.898,7819.158,6308.898,7817.298z"/>
<circle style="fill:#553788;" cx="6988.499" cy="6450.262" r="415.247"/>
<path style="fill:#462E7A;" d="M7035.718,6854.682c-223.35-51.988-362.264-275.201-310.269-498.55
	c38.958-167.355,174.044-287.291,333.282-315.045c-215.164-37.133-424.524,99.661-474.66,315.045
	c-51.988,223.35,86.919,446.555,310.269,498.551c55.996,13.036,111.984,14.059,165.262,4.769
	C7051.643,6858.078,7043.684,6856.534,7035.718,6854.682z"/>
<circle style="fill:#9266CC;" cx="7580.15" cy="6855.148" r="412.091"/>
<path style="fill:#7B54BA;" d="M7628.083,7256.501c-221.682-51.604-359.554-273.142-307.957-494.825
	c38.629-165.941,172.487-284.903,330.338-312.602c-213.765-37.216-421.903,98.625-471.716,312.602
	c-51.604,221.683,86.274,443.221,307.957,494.825c55.741,12.975,111.469,13.949,164.493,4.645
	C7643.494,7259.809,7635.796,7258.299,7628.083,7256.501z"/>
<circle style="fill:#9266CC;" cx="8216.332" cy="7428.892" r="412.091"/>
<path style="fill:#7B54BA;" d="M8264.259,7830.259c-221.683-51.604-359.554-273.143-307.957-494.825
	c38.629-165.941,172.487-284.903,330.339-312.602c-213.765-37.216-421.903,98.625-471.716,312.602
	c-51.604,221.683,86.274,443.221,307.957,494.825c55.742,12.975,111.47,13.949,164.493,4.646
	C8279.669,7833.566,8271.971,7832.057,8264.259,7830.259z"/>
<circle style="fill:#9266CC;" cx="7817.003" cy="7974.162" r="412.091"/>
<path style="fill:#7B54BA;" d="M7864.95,8375.535c-221.682-51.604-359.554-273.142-307.957-494.825
	c38.629-165.941,172.487-284.903,330.338-312.602c-213.765-37.216-421.903,98.625-471.716,312.602
	c-51.604,221.683,86.274,443.221,307.957,494.825c55.741,12.975,111.469,13.949,164.493,4.646
	C7880.361,8378.836,7872.655,8377.326,7864.95,8375.535z"/>
<circle style="fill:#9266CC;" cx="6461" cy="6752.435" r="412.091"/>
<path style="fill:#7B54BA;" d="M6508.919,7153.788c-221.683-51.604-359.554-273.143-307.957-494.825
	c38.629-165.941,172.487-284.902,330.339-312.602c-213.765-37.216-421.903,98.625-471.716,312.602
	c-51.604,221.683,86.274,443.221,307.957,494.825c55.741,12.975,111.469,13.949,164.493,4.645
	C6524.33,7157.095,6516.625,7155.585,6508.919,7153.788z"/>
<circle style="fill:#AA8DD8;" cx="6959.201" cy="7158.145" r="412.091"/>
<path style="fill:#987FC9;" d="M7005.405,7559.504c-221.683-51.604-359.561-273.142-307.957-494.825
	c38.629-165.941,172.48-284.903,330.332-312.602c-213.765-37.216-421.903,98.625-471.709,312.602
	c-51.604,221.682,86.274,443.221,307.957,494.825c55.741,12.975,111.462,13.949,164.486,4.645
	C7020.815,7562.812,7013.11,7561.302,7005.405,7559.504z"/>
<circle style="fill:#AA8DD8;" cx="7602.45" cy="7428.892" r="412.091"/>
<path style="fill:#987FC9;" d="M7648.599,7830.259c-221.683-51.604-359.561-273.143-307.957-494.825
	c38.629-165.941,172.48-284.903,330.332-312.602c-213.764-37.216-421.902,98.625-471.709,312.602
	c-51.604,221.683,86.274,443.221,307.957,494.825c55.741,12.975,111.462,13.949,164.486,4.646
	C7664.009,7833.566,7656.311,7832.057,7648.599,7830.259z"/>
</svg>
