<?xml version="1.0" encoding="utf-8"?>
<!-- Generator: Adobe Illustrator 25.3.1, SVG Export Plug-In . SVG Version: 6.00 Build 0)  -->
<svg version="1.1" id="Layer_1" xmlns="http://www.w3.org/2000/svg" xmlns:xlink="http://www.w3.org/1999/xlink" x="0px" y="0px"
	 viewBox="0 0 1867.8 1747.7" style="enable-background:new 0 0 1867.8 1747.7;" xml:space="preserve">
<style type="text/css">
	.st0{fill:#88C962;}
	.st1{fill:#68B44B;}
	.st2{fill:#4EA23F;}
	.st3{fill:#59A84B;}
	.st4{fill:#4A983A;}
</style>
<path class="st0" d="M1597.1,403.4c114.8-2.6,205.5,93.9,214.1,225.4c4.4,67.7-1.1,133.7-21.8,198.4c-1.8,5.7-4.9,10.5,2,16.9
	c92.3,84.4,102.7,190,21.5,288.7c-32.6,39.7-49.8,70.7-49.5,128.5c0.6,117.3-81.3,200.8-167.1,271.7
	c-217.1,179.4-474,226.3-746.6,212.3c-60.9-3.1-121.4-15.7-182-23.9c2.8-11.4,12.9-9.5,20.6-10.7c131.2-20.4,254.3-63.7,368.8-130.7
	c91.8-53.7,173.4-120.2,242.7-201c19-22.2,37.5-32.1,68.4-23.5c53.6,14.9,108.7,12.4,163.3,1.7c4.2-0.8,8.4-1.7,12.4-3.3
	c12.4-4.9,21.2-12.9,18.7-27.4c-2.8-15.6-15.3-18.5-27.9-16.2c-36,6.5-72.2,8.4-108.6,7.5c-11.4-0.3-22.8-0.8-33.9-3.7
	c-21.1-5.4-25.1-13.8-13.1-31.9c16.5-25,34-49.3,49.6-74.9c76-125.3,132.7-258.7,165.7-401.7c1.9-8.3,4.1-16.7,3.3-25.3
	c-1-10-5-18.2-15.6-20.6c-11.2-2.5-19.3,2.8-24.7,12.5c-3.9,7-5,14.8-6.7,22.5c-14.9,65.5-35.1,129.4-59.2,192
	c-2.3,6-4.5,12.1-7.7,17.6c-8.7,15.4-16.2,16.3-27.3,2.4c-17.7-22-28.1-47.9-37.7-74.1c-2.7-7.4-5-14.9-7.4-22.3
	c-4.6-14.1-13.7-22.6-28.9-18.3c-15.5,4.4-18,17.2-14.6,31c11.3,45.6,30,88.2,60.3,124.1c18.7,22.1,18.9,40.8,6,65.6
	c-68,129.9-157.1,242.8-268.7,337.7c-28.3,24.1-36.8,22.1-56.4-9.6c-38.9-62.5-66.1-129.4-76-202.8c-3.4-24.9-13.1-35.8-28-33.5
	c-14.6,2.2-20.5,14.6-17.3,40.3c6,48.5,19.5,95,39.1,139.7c13.8,31.3,30,61.5,49,90.1c16,24,14.7,32.3-10.2,48.6
	c-78,51.1-161.1,91.4-250.9,117.7c-68.5,20.1-138,36.1-207.7,51c-13.3,2.8-26.6,5.2-40.1,0.6c-30.7-11.5-61.3-23-92-34.5
	c4-14.8,16.7-10.7,26-10.5c34.2,0.7,66.5-6.5,97.6-20.1c50.8-22.1,85.4-60.6,110.3-109c10.3-19.8,17.7-40.6,23.2-62.3
	c26-101.9,21.2-204.8,11.5-308c-6.2-66.7,1.3-130.8,34.4-190.4c17.1-30.7,41.1-54.2,71.9-70.9c56.1-26.6,110.8-11.9,167.3,10.1
	c13.1-71.6,33-137.7,78.6-192.7c55-54.5,118.9-61.4,189-35.3c6,2.2,11.8,5,17.7,7.4c12.2,5.1,20.3,2.1,24.9-10.9
	c6.2-17.4,13.1-34.6,20.5-51.5c15.1-23.2,24.6-49.5,39.4-72.9c29-46.2,62.9-88,109.8-117.4c20.1-12.6,41.7-21.8,65.2-25.2
	C1574.3,396.8,1586.7,394.4,1597.1,403.4z"/>
<path class="st1" d="M714.8,1521C670,1609,598.7,1654,499.4,1654c-8.1,0-16.3,2.6-24.4,4c-171.7-78.3-318.5-181.6-373.9-375.4
	c-7.6-26.4-6.2-54.3,10.5-78.2c9.4-13.5-2.6-15.5-8.8-20.6c-78.3-64-116.2-144.5-98.5-246.5c5.8-33.4,22.6-63.2,51.7-80.6
	c22.1-13.1,22.3-25.9,16.5-47.5c-19-70.9-18.3-142.5-0.3-213.6C98.4,493.1,154,419.3,266.1,402.7c42.1-14.3,80.3-1,115.6,20
	c48,28.5,78.7,73.1,104.5,121.4c19.2,35.8,34.8,73.2,49.5,111c11.1,28.4,11.3,28.3,39.9,17.2c4-1.5,7.9-3.2,12-4.5
	c58.3-22.6,113.3-16.7,165.1,18.5c49.5,44.7,79.5,101.4,99.1,164c4.1,13.1,11.7,26.5,4.5,41.1c-78.2,43.3-120.3,156.7-106.8,256.2
	c14.2,104.4,20,210.4-14,313.6c-13.5,7-21.3-3.6-29.8-10.2c-80.2-63.3-146.4-139.6-204.4-223.3c-25.6-37-48.1-75.9-70.7-114.7
	c-12.3-21.2-12.6-38.5,3.3-58.4c28-34.9,45.6-75.5,58.1-118.4c2-6.9,4.1-13.8,3.9-21c-0.3-10.3-5.5-17.6-15.4-20.9
	c-10.3-3.5-18.2,0.7-24.2,8.8c-5.7,7.6-7.5,16.9-10.2,25.7c-7.5,24.7-18,48.1-31.2,70.3c-5,8.4-9.7,19.2-21.5,18.3
	c-10.9-0.9-13.3-11.9-16.8-20.2c-26.9-63.9-49.4-129.2-65.7-196.7c-2-8.3-3.4-16.9-8.5-24c-5.5-7.7-13.1-11-22.4-9.2
	c-9.7,1.9-14.4,8.6-15.8,17.9c-1.9,12.3,1.2,24.1,4.1,35.9c40.5,164.8,111.3,315.6,209.2,454c22.6,32,17.8,43.8-21.2,46
	c-36.2,2-72.7,3.7-108.9-2.9c-4.2-0.8-8.4-1.4-12.7-1.8c-17.3-1.5-29.9,5.7-31.1,18.7c-1.7,17.8,10.5,23.5,24.9,26.1
	c57.4,10.6,115.2,14,171.8-1.7c25.8-7.1,43.3-2.2,60.4,17.3c43.3,49.5,92.5,92.9,144.4,133.1C709.2,1512.9,712.3,1516.7,714.8,1521z
	"/>
<path class="st2" d="M586.4,673.4c-30.2,21.7-47.3,17.9-60.3-21.2c-23-68.9-53.8-134.6-104.4-189.2c-42.5-45.7-94.8-63.2-155.5-60.4
	c18.3-144.9,93.3-242,206.9-265.6c20.6-4.3,45.2-8.9,63.1-1.5c36.3,14.8,49.1-3.2,68-28.9c76.5-103.7,205.4-132.1,321-74.3
	c3.4,1.7,7.9,1.2,11.9,1.7c47.3,32,69.9,78.7,79.6,133.2c11.7,65.2-4.1,127.4-20.4,189.5c-12.2,46.5-12.4,45.2,26.5,71.1
	c74.1,49.4,103.8,120.4,95.2,207.7c-2.4,24.5-4.6,49.8-17.9,72c-43.7,58.7-67.3,125.5-76.1,200.2c-55.9-23.2-110.1-41.4-167.7-16.3
	c-15.9-76.4-51.6-142.7-103.4-200.6c5.5-10.4,16.4-10.4,25.8-12.6c34.8-8,69.2-17.5,100.9-34.6c6.3-3.4,12.7-6.6,17.7-11.9
	c7.1-7.6,8.9-16.3,4.3-25.6c-4.3-8.7-12.4-11.1-21.7-10.5c-10.3,0.8-19.1,5.5-28,10c-57.5,29-120.1,34.8-182.8,39.2
	c-19.5,1.4-26.5-7.7-23.9-28.7c3-24.8,8.5-49.2,14.2-73.5c28-118.2,70.6-230.3,138.7-331.8c6-8.9,11.9-17.9,11.8-29.3
	c0-8.4-2.6-15.4-10.6-19.5c-8-4.2-15.2-2.1-21.8,3.2c-8.5,6.8-14.6,15.6-20.6,24.4c-41.6,61.1-72.7,127.5-98.6,196.5
	c-14.6,38.8-20,40.1-48.3,9.5c-14.5-15.7-27.5-32.7-39.4-50.6c-4.3-6.5-8.6-13.2-14.8-18.1c-7.4-5.9-15.6-7.3-24-3
	c-8.7,4.4-11,12.5-10.2,21.8c0.9,9.6,5.8,17.5,11,25.2c21.6,32.1,45.4,62.3,74,88.3c15.5,14.1,19.9,29.3,14.1,49.7
	c-13.9,48.8-23,98.6-28.1,149.1C592.1,663.8,590.7,669.1,586.4,673.4z"/>
<path class="st1" d="M1100.1,707.5c7.5-56.7,22.7-112.7,1.4-170.2c-20.5-55.3-57.1-94.6-109.8-118.6c-13.7-6.3-15.7-11.8-12.1-25.5
	c21.1-80.9,47.3-161.2,26.6-246.9c-10.9-45.2-41.3-77.7-69-112.3c92.6-71.2,261.2-25.8,333.3,91c10.4,16.8,17.4,20.2,37.1,13.7
	c114.2-37.4,239.8,50.2,276,191.3c6.2,24,9.2,48.9,13.7,73.4c-88.9-2.7-141.1,53.6-188.5,117.5c-5.9,7.9-11.9,15.9-17.8,23.8
	c-11.7,0.1-14.9-9.7-19.1-17.4c-9.5-17.6-18.3-35.5-29.1-52.2c-8.6-13.3-7.1-24.9,2.2-37.3c19.5-25.7,34-54.3,45.6-84.3
	c3.1-8,6.1-16.1,6-24.8c-0.1-11.1-5.5-19.3-15.8-23.1c-11.3-4.2-19.2,1.8-25.2,10.8c-4.8,7.2-7.3,15.5-9.8,23.6
	c-5.5,17.9-13.9,34.3-24.2,49.8c-13,19.4-21.2,20-35.6,1.7c-23-29.1-46.8-57.4-73.5-83.2c-9.3-8.9-19-17.2-29.9-24.1
	c-10.3-6.5-21.5-10.2-30.9,0.5c-9.7,11.1-6.1,22.8,2.7,32.7c14.7,16.5,31.1,31.4,46.5,47.2c63.8,65.6,110.9,142.5,149.3,224.9
	c3.5,7.5,8.9,15.2,2.8,24c-7.9,22.7-14.8,46-24.2,68.1c-7.4,17.3-20.3,4.8-28.8,0.8C1227.8,649.1,1160.8,652,1100.1,707.5z"/>
<path class="st3" d="M567,1692.5c175.3-33.9,348.6-73.3,499.3-177.1c16-11,18.1-17.4,6.4-34.6c-49.9-73.4-82.7-154-92.4-243
	c-2.1-19.8-0.4-39.2,24.7-41.6c26.1-2.5,32.4,18,34.6,37.5c9,78.2,39.6,147.8,81.1,213.7c10.4,16.5,18.8,17.1,32.9,5.1
	c118.5-100.3,213.1-219.3,282.4-358.4c6.6-13.3,4.2-21.8-4.7-32.2c-35.5-41.2-57.9-89.3-71.1-141.9c-4.6-18.4,2.2-31.7,19.9-36.2
	c17.8-4.5,31.7,1.4,37.4,21.7c10.8,39.2,25.5,76.7,54.6,110.7c32.2-75.5,56.4-151,73.1-228.9c4.7-21.8,11.9-40.9,37.7-35.8
	c26.6,5.3,24.7,26.8,19.8,47.8c-40.3,174.9-111.8,335.9-215.7,482.3c-4.3,6.1-7.8,12.7-13.4,21.9c52.7,11.6,101.8,10.2,151,1.1
	c19.7-3.6,40.9-7,46.1,19.5c5,25.4-11.7,34.5-34.3,38.9c-62.4,12.2-124.6,13.5-185.7-5c-20.6-6.2-28.7,6.7-38.6,17.9
	c-170.7,194.4-385.1,307.1-640.5,343.3c-1.3,0.2-2.4,1.4-3.6,2.1C634.2,1711.8,600.6,1702.2,567,1692.5z"/>
<path class="st4" d="M714.8,1521c-51.8-27.2-93.5-68.3-131-110.7c-32.4-36.7-59.3-55.4-110.2-40.2c-50,15-103,6-154.3-3.6
	c-19-3.6-27.3-17-23.4-34.4c4-18,17.4-27.2,36.9-23.3c45.8,9.1,91.6,8.9,137.9,3.6c23-2.6,17.5-12.2,8.6-24.5
	C374.4,1144,300.6,985.7,259.7,812.3c-4.9-20.6-11.9-45.8,17.8-52.6c30.3-6.9,34.3,17.2,39.9,40.1C335.6,873.6,360,945.3,393,1018
	c27.6-32.8,40.4-68.6,51.1-105.2c5.5-18.7,14.8-31.8,35.8-27c22.8,5.2,27.4,20.5,21.4,42.5c-14,51.6-36.4,98.8-69.4,140.8
	c-5.8,7.3-9.6,13.1-4.6,22.7c73.7,140.2,167.9,263.8,292.7,362.7c4.3,3.4,10.3,4.5,15.5,6.6C728.6,1481.1,721.7,1501.1,714.8,1521z"
	/>
<path class="st4" d="M1352.8,613.6c-44.2-109.3-109.3-204.1-196.1-283.9c-15.4-14.1-28-29.9-11.8-49.2c16.9-20.1,33.7-7.9,50,4.8
	c41.8,32.8,73.7,74.6,107.9,117.7c22.2-22.9,32.5-50.2,41.4-78.4c5.9-18.8,17-34.3,38.6-26.5c20.1,7.3,26.8,24.5,17.7,45.4
	c-8.2,18.9-12,42.1-25.4,56c-54,56.3-14.1,99.6,15.8,145.2C1378.1,567.7,1365.4,590.6,1352.8,613.6z"/>
<path class="st4" d="M586.4,673.4c5-38.6,1.5-80.9,16.7-115c29.3-65.7-5.2-103.2-45.4-143.6c-15.3-15.4-27.5-34.5-38.8-53.2
	c-9.6-15.9-10.7-34.4,8-44.8c16.3-9.1,31.4-3.7,41.9,12.9c19.3,30.8,41.1,59.6,70.9,85.2c31.5-82.8,64.8-163.3,115.9-234.8
	c12.1-16.9,24.2-41.5,50-23.5c24.8,17.2,11.2,38.3-1.7,57.4c-82.2,122-126.1,258.6-153,401.7c-3.2,17.1,2.3,25.6,21.3,23.4
	c65.6-7.5,131.5-12.7,190.9-46.2c17-9.6,36.4-10.8,46.1,9.6c9,19-0.6,33.1-19.1,43.3c-43,23.8-90.1,34.4-137.3,44.9
	C699.9,660.7,644.7,651.9,586.4,673.4z"/>
</svg>
