<?xml version="1.0" encoding="iso-8859-1"?>
<!-- Generator: Adobe Illustrator 25.3.1, SVG Export Plug-In . SVG Version: 6.00 Build 0)  -->
<svg version="1.1" id="Layer_1" xmlns="http://www.w3.org/2000/svg" xmlns:xlink="http://www.w3.org/1999/xlink" x="0px" y="0px"
	 viewBox="0 0 14400 14400" style="enable-background:new 0 0 14400 14400;" xml:space="preserve">
<path style="fill:#88C962;" d="M8365.36,6432.056c201.771-4.656,361.252,165.044,376.324,396.244
	c7.758,119.012-1.999,235.106-38.287,348.82c-3.21,10.057-8.678,18.506,3.504,29.645c162.229,148.327,180.513,333.97,37.864,507.438
	c-57.324,69.71-87.566,124.194-87.065,225.922c1.016,206.119-142.926,353.005-293.684,477.577
	c-381.683,315.39-833.222,397.804-1312.384,373.179c-107.1-5.504-213.35-27.564-319.991-42.002
	c4.867-20.035,22.674-16.731,36.259-18.84c230.619-35.791,446.972-111.945,648.35-229.806
	c161.394-94.46,304.761-211.358,426.61-353.401c33.479-39.028,65.949-56.342,120.236-41.27c94.247,26.166,191.099,21.875,287.003,3
	c7.382-1.454,14.778-2.992,21.795-5.753c21.818-8.584,37.299-22.646,32.786-48.09c-4.862-27.41-26.867-32.473-49.087-28.43
	c-63.268,11.51-126.851,14.843-190.934,13.113c-20.118-0.543-40.106-1.479-59.675-6.488c-37.086-9.494-44.177-24.221-23.087-56.121
	c29.027-43.907,59.799-86.629,87.141-131.699c133.667-220.337,233.277-454.665,291.295-706.177
	c3.381-14.658,7.283-29.296,5.76-44.55c-1.754-17.557-8.826-32.074-27.367-36.208c-19.742-4.401-33.952,5.009-43.416,22
	c-6.818,12.24-8.761,26.061-11.812,39.491c-26.153,115.148-61.677,227.412-103.998,337.579c-4.046,10.531-7.95,21.19-13.51,31.015
	c-15.295,27.027-28.502,28.627-48.005,4.306c-31.028-38.692-49.337-84.132-66.193-130.177c-4.743-12.955-8.724-26.166-13-39.277
	c-8.079-24.764-24.023-39.727-50.737-32.219c-27.313,7.676-31.707,30.263-25.668,54.526
	c19.935,80.102,52.673,155.083,106.014,218.057c32.884,38.822,33.308,71.786,10.498,115.332
	c-119.585,228.3-276.12,426.783-472.403,593.626c-49.785,42.318-64.621,38.769-99.193-16.841
	c-68.312-109.878-116.138-227.419-133.595-356.491c-5.917-43.75-23.104-62.941-49.162-58.941
	c-25.705,3.945-35.989,25.718-30.397,70.875c10.549,85.189,34.195,167.067,68.655,245.482
	c24.213,55.099,52.656,108.184,86.165,158.427c28.191,42.269,25.756,56.824-17.914,85.427
	c-137.132,89.818-283.134,160.696-440.974,206.896c-120.451,35.256-242.539,63.406-365.144,89.642
	c-23.331,4.992-46.824,9.199-70.436,1.14c-53.887-20.205-107.774-40.409-161.662-60.614c7.022-26.027,29.331-18.863,45.691-18.507
	c60.13,1.308,116.845-11.394,171.62-35.258c89.322-38.915,150.114-106.549,193.866-191.522
	c18.046-34.788,31.071-71.426,40.858-109.425c45.738-179.087,37.253-360.064,20.273-541.33
	c-10.979-117.207,2.216-229.904,60.465-334.61c30.045-54.006,72.324-95.343,126.451-124.579
	c98.698-46.782,194.685-20.939,294.102,17.792c23.112-125.814,57.954-241.998,138.192-338.816
	c96.688-95.809,209.07-107.903,332.239-61.995c10.541,3.929,20.74,8.713,31.126,13.036c21.411,8.911,35.626,3.677,43.723-19.184
	c10.845-30.621,23.095-60.746,36.022-90.551c26.57-40.8,43.305-86.965,69.266-128.183c51.037-81.285,110.513-154.61,193.025-206.445
	c35.382-22.228,73.244-38.258,114.666-44.351C8325.203,6420.435,8346.914,6416.132,8365.36,6432.056z"/>
<path style="fill:#68B44B;" d="M6814.436,8396.627c-78.917,154.54-204.229,233.636-378.657,233.718
	c-14.313,0.007-28.625,4.607-42.938,7.073c-301.801-137.602-559.855-319.277-657.265-659.818
	c-13.282-46.434-10.866-95.458,18.458-137.416c16.527-23.648-4.489-27.208-15.466-36.185
	c-137.641-112.552-204.326-253.96-173.126-433.263c10.225-58.758,39.723-111.157,90.965-141.611
	c38.78-23.048,39.286-45.47,29.062-83.541c-33.46-124.595-32.157-250.555-0.467-375.419
	c45.799-180.455,143.543-310.141,340.651-339.384c74.085-25.198,141.111-1.78,203.273,35.079
	c84.411,50.052,138.271,128.52,183.623,213.364c33.666,62.981,61.108,128.687,86.991,195.139
	c19.438,49.904,19.832,49.748,70.084,30.264c6.993-2.712,13.944-5.54,21.167-7.924c102.453-39.674,199.225-29.408,290.166,32.441
	c87.012,78.542,139.713,178.159,174.235,288.348c7.208,23.008,20.564,46.568,7.823,72.247
	c-137.518,76.103-211.502,275.446-187.648,450.298c25.041,183.547,35.202,369.834-24.602,551.186
	c-23.682,12.353-37.482-6.3-52.296-17.992c-141.034-111.311-257.43-245.322-359.262-392.541
	c-44.979-65.025-84.533-133.385-124.276-201.699c-21.635-37.187-22.2-67.588,5.878-102.633
	c49.151-61.348,80.144-132.789,102.155-208.067c3.523-12.05,7.248-24.238,6.82-36.862c-0.612-18.083-9.717-30.871-27.1-36.715
	c-18.047-6.067-31.913,1.187-42.624,15.407c-10.047,13.337-13.271,29.694-17.969,45.211
	c-13.162,43.472-31.605,84.592-54.782,123.507c-8.781,14.744-17.05,33.821-37.816,32.204c-19.213-1.497-23.444-20.855-29.596-35.49
	c-47.209-112.309-86.806-227.197-115.466-345.713c-3.537-14.627-5.974-29.625-14.98-42.238
	c-9.673-13.546-22.988-19.284-39.322-16.115c-16.986,3.295-25.238,15.1-27.77,31.45c-3.354,21.661,2.051,42.371,7.144,63.101
	c71.178,289.721,195.695,554.849,367.777,798.081c39.736,56.165,31.23,77.059-37.195,80.853
	c-63.699,3.533-127.843,6.536-191.347-5.161c-7.397-1.362-14.853-2.525-22.346-3.172c-30.384-2.62-52.515,9.969-54.718,32.794
	c-3.014,31.224,18.452,41.249,43.751,45.924c100.876,18.641,202.48,24.56,302.051-2.972c45.379-12.547,76.19-3.869,106.122,30.334
	c76.156,87.024,162.576,163.262,253.866,234.042C6804.563,8382.263,6809.887,8389.06,6814.436,8396.627z"/>
<path style="fill:#4EA23F;" d="M6588.659,6906.677c-53.139,38.126-83.115,31.478-106.081-37.187
	c-40.508-121.114-94.484-236.634-183.588-332.548c-74.675-80.383-166.563-111.076-273.327-106.157
	c32.205-254.651,164.003-425.385,363.729-466.818c36.133-7.496,79.411-15.563,110.975-2.707
	c63.864,26.013,86.268-5.685,119.575-50.861c134.422-182.329,361.059-232.246,564.202-130.614
	c5.978,2.991,13.931,2.033,20.962,2.917c83.22,56.229,122.852,138.4,139.994,234.227c20.491,114.549-7.26,224.027-35.793,333.064
	c-21.371,81.666-21.725,79.507,46.514,124.961c130.286,86.784,182.417,211.578,167.27,365.016
	c-4.255,43.096-8.154,87.588-31.495,126.534c-76.849,103.261-118.262,220.531-133.719,351.86
	c-98.277-40.866-193.513-72.698-294.864-28.621c-28.015-134.307-90.65-250.771-181.686-352.602
	c9.743-18.364,28.756-18.361,45.397-22.204c61.246-14.142,121.557-30.797,177.297-60.906c11.042-5.964,22.287-11.6,31.046-20.898
	c12.502-13.272,15.708-28.715,7.611-44.958c-7.627-15.301-21.878-19.57-38.112-18.38c-18.032,1.321-33.601,9.72-49.244,17.608
	c-101.082,50.974-211.076,61.114-321.268,68.865c-34.248,2.409-46.546-13.596-42.018-50.392
	c5.361-43.552,14.928-86.517,25.022-129.187c49.149-207.765,124.074-404.871,243.741-583.233
	c10.491-15.636,20.895-31.429,20.791-51.464c-0.077-14.824-4.651-27.073-18.587-34.304c-14.106-7.32-26.646-3.695-38.343,5.578
	c-14.975,11.871-25.615,27.406-36.201,42.969c-73.085,107.445-127.726,224.188-173.361,345.38
	c-25.68,68.198-35.133,70.497-84.853,16.697c-25.552-27.65-48.42-57.528-69.231-88.954c-7.607-11.487-15.138-23.118-26.101-31.879
	c-12.954-10.353-27.458-12.795-42.155-5.332c-15.295,7.767-19.407,22.023-17.973,38.237c1.496,16.908,10.216,30.779,19.323,44.329
	c37.883,56.369,79.837,109.526,130.157,155.292c27.221,24.757,34.959,51.479,24.764,87.379
	c-24.349,85.738-40.513,173.265-49.321,262.046C6598.692,6889.702,6596.143,6899.135,6588.659,6906.677z"/>
<path style="fill:#68B44B;" d="M7491.595,6966.504c13.214-99.585,39.963-198.142,2.485-299.246
	c-36.059-97.275-100.371-166.209-193.093-208.489c-24.143-11.009-27.564-20.769-21.283-44.819
	c37.132-142.173,83.098-283.388,46.753-433.924c-19.194-79.499-72.634-136.659-121.35-197.324
	c162.741-125.145,459.106-45.314,585.951,159.992c18.25,29.54,30.595,35.453,65.22,24.099
	c200.665-65.796,421.56,88.258,485.087,336.317c10.822,42.259,16.135,85.929,23.994,128.946
	c-156.309-4.676-248.002,94.301-331.417,206.577c-10.377,13.969-20.848,27.868-31.275,41.799
	c-20.506,0.097-26.224-17.119-33.501-30.632c-16.624-30.869-32.197-62.348-51.236-91.806c-15.082-23.335-12.473-43.838,3.912-65.492
	c34.226-45.23,59.693-95.457,80.123-148.235c5.412-13.981,10.677-28.271,10.576-43.583c-0.129-19.589-9.597-33.844-27.801-40.561
	c-19.931-7.354-33.664,3.165-44.244,18.948c-8.472,12.639-12.841,27.159-17.232,41.501c-9.628,31.442-24.454,60.312-42.612,87.511
	c-22.804,34.157-37.178,35.139-62.6,3.007c-40.429-51.101-82.214-100.91-129.172-146.233c-16.287-15.72-33.468-30.278-52.519-42.401
	c-18.066-11.496-37.851-17.909-54.376,0.945c-17.121,19.535-10.795,40.031,4.801,57.525c25.839,28.986,54.605,55.168,81.669,82.992
	c112.219,115.366,194.876,250.408,262.422,395.403c6.102,13.099,15.668,26.698,4.885,42.154
	c-13.969,39.985-25.969,80.81-42.538,119.687c-12.969,30.433-35.626,8.419-50.557,1.492
	C7716.048,6863.908,7598.293,6869.06,7491.595,6966.504z"/>
<path style="fill:#59A84B;" d="M6554.502,8698.032c308.206-59.593,612.848-128.829,877.661-311.377
	c28.071-19.352,31.817-30.57,11.233-60.846c-87.74-129.051-145.445-270.659-162.394-427.111
	c-3.776-34.857-0.768-68.823,43.436-73.116c45.918-4.459,56.913,31.569,60.862,65.935
	c15.804,137.508,69.564,259.825,142.513,375.606c18.222,28.922,33.004,30.067,57.833,9.034
	c208.227-176.395,374.559-385.451,496.345-630.006c11.679-23.451,7.444-38.354-8.335-56.663
	c-62.48-72.497-101.847-156.941-125.043-249.374c-8.128-32.387,3.823-55.746,34.944-63.614c31.333-7.922,55.806,2.387,65.708,38.154
	c19.071,68.882,44.827,134.869,95.939,194.621c56.548-132.8,99.148-265.512,128.526-402.353
	c8.219-38.282,20.976-71.919,66.271-62.907c46.833,9.318,43.346,47.12,34.835,84.106
	c-70.755,307.511-196.515,590.363-379.123,847.851c-7.577,10.684-13.724,22.381-23.476,38.45
	c92.678,20.47,178.903,17.885,265.381,1.911c34.589-6.389,71.828-12.275,80.967,34.253c8.778,44.688-20.568,60.579-60.324,68.374
	c-109.738,21.516-218.97,23.75-326.502-8.702c-36.182-10.919-50.515,11.791-67.77,31.447
	c-300.024,341.782-676.934,539.754-1125.936,603.433c-2.268,0.321-4.28,2.454-6.411,3.74
	C6672.596,8731.93,6613.549,8714.98,6554.502,8698.032z"/>
<path style="fill:#4A983A;" d="M6814.436,8396.627c-91.021-47.894-164.386-120.136-230.297-194.632
	c-57.012-64.438-104.165-97.463-193.648-70.708c-87.894,26.28-181.065,10.526-271.228-6.338
	c-33.407-6.249-47.923-29.889-41.177-60.499c6.985-31.696,30.625-47.781,64.844-40.999c80.473,15.952,161.092,15.677,242.394,6.407
	c40.362-4.602,30.831-21.384,15.056-43.022c-184.407-252.953-314.15-531.219-385.921-836.087
	c-8.541-36.281-20.925-80.526,31.372-92.386c53.286-12.084,60.228,30.147,70.154,70.532
	c31.863,129.641,74.771,255.704,132.703,383.521c48.563-57.635,70.974-120.621,89.861-184.91
	c9.654-32.862,25.966-55.869,62.871-47.491c40.03,9.089,48.132,36.002,37.617,74.689c-24.639,90.649-63.938,173.633-121.937,247.433
	c-10.142,12.905-16.925,22.99-8.058,39.852c129.573,246.403,295.081,463.752,514.468,637.575
	c7.478,5.924,18.114,7.862,27.268,11.658C6838.656,8326.357,6826.546,8361.492,6814.436,8396.627z"/>
<path style="fill:#4A983A;" d="M7935.764,6801.477c-77.627-192.057-192.06-358.762-344.661-498.961
	c-27.015-24.82-49.232-52.553-20.709-86.469c29.692-35.307,59.321-13.917,87.816,8.43
	c73.499,57.643,129.638,131.129,189.694,206.898c38.961-40.239,57.138-88.245,72.747-137.852
	c10.389-33.018,29.831-60.326,67.822-46.637c35.399,12.755,47.073,42.987,31.141,79.885c-14.377,33.296-21.116,73.984-44.663,98.507
	c-94.948,98.885-24.868,175.091,27.724,255.156C7980.367,6720.781,7958.065,6761.129,7935.764,6801.477z"/>
<path style="fill:#4A983A;" d="M6588.659,6906.677c8.754-67.839,2.703-142.292,29.423-202.104
	c51.584-115.466-9.084-181.382-79.718-252.338c-26.97-27.093-48.372-60.582-68.289-93.583
	c-16.879-27.968-18.789-60.396,14.043-78.665c28.637-15.934,55.282-6.527,73.647,22.731
	c33.942,54.075,72.178,104.708,124.682,149.717c55.406-145.518,113.93-287.1,203.68-412.747
	c21.204-29.686,42.477-72.887,87.865-41.381c43.526,30.213,19.637,67.391-2.911,100.835
	c-144.556,214.411-221.732,454.522-268.864,706.052c-5.64,30.098,4.043,44.914,37.383,41.081
	c115.249-13.249,231.181-22.266,335.654-81.132c29.798-16.79,63.902-18.988,80.955,16.871c15.878,33.39-1.035,58.237-33.509,76.16
	c-75.656,41.756-158.361,60.469-241.367,78.96C6788.206,6884.378,6691.203,6868.907,6588.659,6906.677z"/>
</svg>
