<?xml version="1.0" encoding="iso-8859-1"?>
<!-- Generator: Adobe Illustrator 25.3.1, SVG Export Plug-In . SVG Version: 6.00 Build 0)  -->
<svg version="1.1" id="Layer_1" xmlns="http://www.w3.org/2000/svg" xmlns:xlink="http://www.w3.org/1999/xlink" x="0px" y="0px"
	 viewBox="0 0 14400 14400" style="enable-background:new 0 0 14400 14400;" xml:space="preserve">
<g>
	<path style="fill:#387531;" d="M5930.809,6541.851c-17.183,24.602-64.362,34.348-88.805,53.927
		c-30.576,24.49-55.418,55.936-73.292,90.728c-35.643,69.381-44.054,154.532-11.266,226.625
		c28.04,61.652,80.5,114.443,86.914,181.868c5.134,53.974-20.631,105.333-36.34,157.225s-18.303,116.141,22.221,152.16
		c38.8,34.486,104.643,30.845,135.421,72.646c38.328,52.055-5.442,137.346,37.473,185.689
		c39.706,44.728,120.251,19.693,166.007,58.209c70.439,59.293-14.411,181.917,26.482,264.41
		c30.089,60.698,112.058,70.193,179.605,65.003c67.548-5.19,144.158-14.202,194.934,30.647
		c56.664,50.05,71.166,158.496,146.72,161.214c39.989,1.439,75.941-32.381,115.642-27.368
		c79.938,10.094,77.82,150.692,155.527,171.989c73.87,20.245,148.543-89.036,214.478-50.059
		c27.478,16.243,42.084,55.25,73.915,57.63c38.998,2.916,74.411-53.608,107.055-32.075c17.509,11.55,16.667,37.124,25.761,56.025
		c15.531,32.282,58.413,40.737,93.788,35.085c35.375-5.651,69.315-21.155,105.138-20.89c57.792,0.428,118.419,41.133,169.232,13.599
		c40.76-22.088,53.793-79.627,96.376-97.958c39.453-16.982,88.484,7.126,126.733-12.417c35.428-18.101,45.123-64.859,74.795-91.361
		c35.319-31.545,90.243-27.778,131.074-51.766c111.244-65.352,36.658-258.375,124.723-352.668
		c29.607-31.702,77.836-52.971,83.228-96.013c4.146-33.096-20.048-61.993-35.115-91.75c-32.004-63.207-21.552-145.429,25.25-198.618
		c32.165-36.555,79.666-60.656,100.54-104.646c35.215-74.211-20.304-172.866,26.209-240.57
		c26.629-38.762,80.944-55.856,97.408-99.907c9.19-24.591,4.076-51.937-1.145-77.666c-12.556-61.881-25.112-123.762-37.668-185.643
		c-5.397-26.597-10.728-54.631-2.28-80.421c7.12-21.741,23.169-39.148,36.134-57.997c59.444-86.42,48.789-214.198-24.148-289.579
		c-31.252-32.299-73.135-57.039-90.324-98.565c-11.653-28.151-9.959-59.766-8.856-90.213c2.647-73.085,0.513-147.846-24.12-216.706
		s-74.984-131.71-144.054-155.751c-57.764-20.106-128.83-14.736-170.613-59.401c-16.221-17.34-26.02-40.764-45.357-54.543
		c-46.112-32.859-108.414,8.19-145.732,50.773s-83.385,94.129-138.743,82.232c-22.761-4.892-41.613-20.165-60.477-33.809
		c-50.731-36.691-107.871-64.498-168.048-81.779c-21.581-6.197-44.756-11.028-66.25-4.536
		c-56.96,17.206-69.827,100.297-124.997,122.584c-41.401,16.724-87.551-8.05-132.188-6.907
		c-57.022,1.46-106.954,45.078-163.994,44.768c-38.801-0.211-74.55-20.823-112.891-26.78c-38.341-5.957-87.356,13.12-88.798,51.894
		c-0.78,20.994,12.857,39.332,21.712,58.383c41.089,88.398-47.587,205.759-143.847,190.379
		c-31.081-4.966-60.727-20.776-92.131-18.658c-13.886,0.937-27.655,5.398-41.468,3.699c-23.407-2.878-40.69-22.17-59.198-36.787
		c-85.059-67.177-207.998-40.526-312.178-10.621c-74.675,21.436-158.601,50.739-188.719,122.354
		c-19.052,45.303-11.761,99.089-34.397,142.711c-14.037,27.051-38.061,48.146-62.217,66.062
		c-43.555,32.302-125.934,105.542-74.088,165.458"/>
</g>
<g>
	<g>
		<path style="fill:#5B8E3F;" d="M6067.198,7324.204c44.68,0.31,89.337,2.816,133.769,7.532c12.524,1.329,25.028,2.838,37.51,4.512
			c-3.323-0.447-6.646-0.893-9.969-1.34c41.308,5.568,82.358,13.013,122.98,22.355c11.397,2.621,22.758,5.394,34.084,8.307
			c13.026,3.35,26.909-0.067,36.486-9.644c9.41-9.41,13.27-23.626,9.644-36.485c-10.187-36.127-18.048-72.878-24.04-109.927
			c-1.685-10.415-3.22-20.854-4.629-31.309c0.447,3.323,0.893,6.646,1.34,9.969c-5.586-41.653-9.094-83.559-11.312-125.519
			c-2.218-41.963-3.159-83.983-3.63-125.999c-0.266-23.708-0.382-47.416-0.49-71.125c-0.044-9.643-4.152-19.685-10.984-26.517
			c-3.396-3.657-7.419-6.241-12.068-7.754c-4.469-2.348-9.285-3.424-14.448-3.229c-9.699,0.435-19.757,3.62-26.517,10.983
			c-6.718,7.318-11.03,16.373-10.983,26.517c0.14,30.492,0.291,60.984,0.759,91.474c0.468,30.519,1.253,61.036,2.663,91.526
			c1.413,30.563,3.455,61.103,6.443,91.554c3.262,33.236,7.564,66.417,13.194,99.337c5.115,29.904,11.47,59.604,19.337,88.908
			c0.991,3.689,2.007,7.372,3.043,11.049c15.376-15.376,30.753-30.753,46.129-46.129c-41.965-10.794-84.438-19.587-127.245-26.315
			c-45.814-7.2-91.957-12.473-138.252-15.282c-24.245-1.471-48.526-2.281-72.815-2.449c-9.573-0.066-19.762,4.229-26.516,10.983
			c-3.657,3.397-6.242,7.42-7.754,12.069c-2.348,4.469-3.424,9.285-3.23,14.448c0.435,9.699,3.62,19.757,10.984,26.517
			C6048.048,7319.982,6057.014,7324.133,6067.198,7324.204L6067.198,7324.204z"/>
	</g>
</g>
<g>
	<g>
		<path style="fill:#5B8E3F;" d="M6289.582,7594.765c47.992-1.454,95.997-2.448,144.008-2.975
			c48.01-0.527,96.026-0.59,144.038-0.188c27.149,0.228,54.298,0.605,81.443,1.127c5.163,0.195,9.979-0.881,14.448-3.229
			c4.649-1.512,8.672-4.097,12.069-7.754c6.594-7.183,11.348-16.494,10.983-26.517c-1.421-39.082-1.554-78.208-0.381-117.299
			c1.165-38.811,3.61-77.583,7.328-116.232c2.113-21.967,4.642-43.893,7.571-65.765c-0.447,3.323-0.893,6.646-1.34,9.969
			c4.501-33.5,9.948-66.87,16.359-100.057c1.801-9.325,3.681-18.635,5.631-27.93c1.562-4.984,1.786-9.969,0.669-14.954
			c-0.226-4.991-1.709-9.638-4.45-13.942c-2.357-4.37-5.576-7.877-9.659-10.521c-3.622-3.314-7.873-5.552-12.752-6.712
			c-9.6-2.187-20.375-1.713-28.896,3.78c-7.924,5.108-15.233,12.876-17.234,22.411c-5.764,27.476-10.883,55.085-15.333,82.805
			c-4.915,30.61-9.091,61.355-12.563,92.162c-3.145,27.897-5.625,55.869-7.438,83.884c-1.804,27.875-2.947,55.793-3.428,83.723
			c-0.483,28.069-0.296,56.15,0.563,84.21c0.107,3.49,0.225,6.98,0.352,10.469c12.5-12.5,25-25,37.5-37.5
			c-48.005-0.924-96.018-1.39-144.032-1.388c-48.014,0.001-96.027,0.468-144.032,1.399c-27.146,0.526-54.288,1.203-81.426,2.025
			c-9.796,0.296-19.512,3.979-26.517,10.983c-3.657,3.396-6.242,7.419-7.754,12.068c-2.348,4.469-3.424,9.285-3.229,14.448
			c0.434,9.698,3.62,19.757,10.983,26.516C6270.273,7590.398,6279.535,7595.069,6289.582,7594.765L6289.582,7594.765z"/>
	</g>
</g>
<g>
	<g>
		<path style="fill:#5B8E3F;" d="M6479.655,7846.066c60.904-3.266,121.809-6.532,182.714-9.797
			c60.594-3.25,121.188-6.499,181.782-9.748c34.181-1.833,68.362-3.666,102.543-5.499c9.492-0.509,19.852-3.723,26.517-10.983
			c6.575-7.162,11.395-16.514,10.983-26.517c-2.208-53.687-3.759-107.401-4.643-161.127c-0.884-53.725-1.105-107.461-0.661-161.192
			c0.249-30.126,0.708-60.251,1.373-90.372c0.195-5.163-0.882-9.979-3.23-14.448c-1.512-4.649-4.097-8.672-7.753-12.069
			c-3.397-3.657-7.419-6.241-12.069-7.754c-4.469-2.348-9.285-3.424-14.448-3.229c-9.698,0.435-19.757,3.62-26.517,10.983
			c-6.819,7.429-10.758,16.282-10.983,26.517c-1.185,53.72-1.712,107.454-1.573,161.186s0.943,107.463,2.411,161.176
			c0.823,30.116,1.856,60.227,3.094,90.329c12.5-12.5,25-25,37.5-37.5c-60.905,3.266-121.809,6.532-182.714,9.798
			c-60.594,3.249-121.188,6.498-181.782,9.748c-34.181,1.833-68.362,3.666-102.543,5.499c-5.163-0.195-9.979,0.882-14.448,3.229
			c-4.649,1.513-8.672,4.097-12.068,7.754c-3.657,3.396-6.242,7.419-7.754,12.068c-2.348,4.469-3.424,9.285-3.229,14.448
			c0.434,9.698,3.62,19.757,10.983,26.517C6460.247,7841.608,6469.705,7846.6,6479.655,7846.066L6479.655,7846.066z"/>
	</g>
</g>
<g>
	<g>
		<path style="fill:#5B8E3F;" d="M6711.966,6491.845c-0.11-0.688-0.212-1.376-0.307-2.066c0.446,3.323,0.893,6.646,1.339,9.969
			c-1.033-7.895-0.827-15.854,0.226-23.735c-0.446,3.323-0.893,6.646-1.339,9.969c2.292-16.566,8.06-32.363,13.803-47.984
			c6.018-16.37,12.035-32.739,18.053-49.109c11.972-32.567,23.944-65.134,35.916-97.701c6.778-18.437,13.556-36.875,20.333-55.312
			c1.562-4.985,1.786-9.969,0.669-14.954c-0.226-4.991-1.709-9.638-4.45-13.942c-2.356-4.37-5.576-7.877-9.659-10.521
			c-3.622-3.314-7.873-5.552-12.752-6.712c-3.323-0.447-6.646-0.893-9.969-1.34c-6.769,0.021-13.078,1.728-18.927,5.12
			c-2.53,1.955-5.06,3.909-7.59,5.863c-4.647,4.679-7.862,10.195-9.644,16.548c-6.651,18.092-13.302,36.185-19.953,54.278
			c-6.651,18.093-13.302,36.186-19.953,54.278c-6.651,18.092-13.302,36.185-19.953,54.278
			c-6.575,17.884-13.432,35.693-19.626,53.713c-2.997,8.719-5.695,17.568-7.465,26.625c-0.433,2.215-0.804,4.44-1.118,6.675
			c-0.753,5.357-1.589,10.744-2.012,16.148c-0.356,4.55-0.393,9.129-0.03,13.68c0.432,5.413,1.234,10.81,2.088,16.168
			c1.161,4.88,3.398,9.131,6.712,12.753c2.644,4.082,6.151,7.302,10.521,9.658c4.304,2.74,8.952,4.224,13.942,4.45
			c4.984,1.116,9.969,0.893,14.954-0.67c2.986-1.26,5.972-2.52,8.958-3.78c5.635-3.334,10.12-7.818,13.454-13.453
			c1.26-2.986,2.52-5.972,3.78-8.958C6713.751,6505.137,6713.751,6498.491,6711.966,6491.845L6711.966,6491.845z"/>
	</g>
</g>
<g>
	<g>
		<path style="fill:#5B8E3F;" d="M6946.558,6375.502c-4.943,32.902-11.495,65.558-19.638,97.817
			c-8.099,32.089-17.762,63.783-28.945,94.931c-6.272,17.47-13.025,34.765-20.239,51.867c1.26-2.986,2.52-5.972,3.78-8.958
			c-5.452,12.904-11.167,25.696-17.143,38.366c-2.74,4.304-4.224,8.952-4.45,13.942c-1.116,4.984-0.893,9.969,0.67,14.954
			c1.16,4.88,3.397,9.131,6.712,12.753c2.644,4.082,6.151,7.302,10.521,9.658c2.986,1.26,5.972,2.52,8.958,3.78
			c6.646,1.786,13.292,1.786,19.938,0c2.986-1.26,5.972-2.52,8.958-3.78c5.635-3.334,10.12-7.818,13.453-13.453
			c9.562-20.271,18.441-40.869,26.841-61.646c7.252-17.939,13.992-36.084,20.208-54.408c6.217-18.323,11.913-36.823,17.078-55.471
			c5.165-18.647,9.798-37.441,13.892-56.353c4.075-18.825,7.615-37.767,10.61-56.794c0.381-2.422,0.753-4.845,1.117-7.269
			c1.563-4.985,1.786-9.969,0.67-14.954c-0.227-4.991-1.71-9.638-4.45-13.942c-2.356-4.37-5.576-7.877-9.659-10.521
			c-3.622-3.314-7.873-5.552-12.752-6.712c-3.323-0.446-6.646-0.893-9.969-1.339c-6.769,0.021-13.078,1.728-18.927,5.12
			c-2.53,1.954-5.06,3.909-7.589,5.863C6951.554,6363.634,6948.339,6369.149,6946.558,6375.502L6946.558,6375.502z"/>
	</g>
</g>
<g>
	<g>
		<path style="fill:#5B8E3F;" d="M7170.651,6726.576c-1.141,11.942-2.492,23.864-4.085,35.754c0.447-3.323,0.893-6.646,1.34-9.969
			c-1.63,12.125-3.508,24.216-5.656,36.261c-2.345,13.154-5.009,26.25-7.991,39.275c-3.239,14.142-6.854,28.197-10.835,42.147
			c-4.307,15.088-9.042,30.054-14.188,44.877c-5.55,15.993-11.577,31.821-18.047,47.464c-0.839,2.029-1.686,4.055-2.54,6.078
			c1.26-2.986,2.52-5.972,3.78-8.958c-3.143,7.438-6.383,14.834-9.718,22.188c-2.741,4.305-4.224,8.952-4.45,13.943
			c-1.116,4.984-0.893,9.969,0.67,14.953c1.16,4.88,3.397,9.131,6.712,12.753c2.644,4.083,6.151,7.302,10.521,9.658
			c2.986,1.26,5.972,2.521,8.958,3.781c6.646,1.786,13.292,1.786,19.938,0c2.986-1.26,5.972-2.521,8.958-3.781
			c5.635-3.333,10.119-7.818,13.453-13.453c10.671-23.533,20.604-47.443,29.467-71.718c7.084-19.402,13.471-39.059,19.114-58.929
			c5.093-17.936,9.578-36.044,13.44-54.285c3.461-16.347,6.419-32.8,8.892-49.325c2.669-17.843,4.975-35.752,6.777-53.705
			c0.167-1.669,0.331-3.339,0.49-5.009c0.194-5.163-0.882-9.979-3.23-14.448c-1.512-4.649-4.097-8.672-7.754-12.068
			c-3.396-3.657-7.419-6.242-12.068-7.754c-4.469-2.348-9.285-3.425-14.448-3.23c-3.323,0.447-6.646,0.893-9.969,1.34
			c-6.353,1.782-11.869,4.996-16.547,9.644c-1.955,2.53-3.909,5.06-5.864,7.589
			C7172.378,6713.498,7170.672,6719.807,7170.651,6726.576L7170.651,6726.576z"/>
	</g>
</g>
<g>
	<g>
		<path style="fill:#5B8E3F;" d="M7362.645,6950.511c-5.808,25.191-12.012,50.291-18.62,75.285
			c-6.577,24.877-13.55,49.65-20.915,74.305c-7.399,24.771-15.194,49.423-23.381,73.945c-8.187,24.521-16.765,48.912-25.731,73.16
			c-8.925,24.135-18.233,48.127-27.922,71.966c-1.222,3.007-2.451,6.012-3.685,9.015c-1.563,4.984-1.786,9.969-0.67,14.954
			c0.226,4.991,1.709,9.638,4.45,13.942c2.356,4.37,5.576,7.877,9.658,10.521c3.622,3.314,7.873,5.552,12.753,6.712
			c3.323,0.447,6.646,0.893,9.969,1.34c6.769-0.021,13.078-1.728,18.927-5.12c2.53-1.955,5.06-3.909,7.589-5.864
			c4.647-4.679,7.862-10.195,9.644-16.547c9.827-23.912,19.277-47.978,28.337-72.19c9.018-24.1,17.652-48.344,25.899-72.718
			c8.285-24.489,16.179-49.109,23.678-73.85s14.602-49.602,21.306-74.569c6.673-24.852,12.951-49.81,18.829-74.861
			c0.741-3.161,1.476-6.323,2.206-9.486c1.563-4.984,1.786-9.969,0.67-14.954c-0.227-4.991-1.71-9.638-4.45-13.942
			c-2.356-4.37-5.576-7.877-9.658-10.521c-3.622-3.314-7.873-5.552-12.753-6.712c-3.323-0.447-6.646-0.893-9.969-1.34
			c-6.769,0.021-13.078,1.728-18.927,5.12c-2.53,1.955-5.06,3.909-7.589,5.864
			C7367.641,6938.643,7364.427,6944.159,7362.645,6950.511L7362.645,6950.511z"/>
	</g>
</g>
<g>
	<g>
		<path style="fill:#5B8E3F;" d="M7302.619,6141.61c8.915,3.329,17.76,6.843,26.53,10.539c-2.986-1.26-5.972-2.521-8.958-3.78
			c21.244,8.968,42.035,19.001,62.268,30.062c20.168,11.026,39.782,23.065,58.742,36.06c10.688,7.325,21.164,14.956,31.42,22.874
			c-2.53-1.955-5.06-3.909-7.589-5.864c7.876,6.089,15.621,12.347,23.226,18.772c3.397,3.657,7.419,6.242,12.069,7.754
			c4.469,2.348,9.285,3.424,14.448,3.229c5.163,0.195,9.979-0.881,14.448-3.229c4.649-1.512,8.672-4.097,12.069-7.754
			c1.955-2.53,3.909-5.06,5.864-7.589c3.392-5.849,5.099-12.158,5.12-18.927c-0.446-3.323-0.893-6.646-1.339-9.969
			c-1.782-6.353-4.997-11.869-9.644-16.547c-14.068-11.885-28.609-23.239-43.439-34.156c-12.379-9.113-25.067-17.808-38.032-26.067
			c-12.965-8.259-26.208-16.082-39.699-23.452c-13.49-7.369-27.229-14.285-41.185-20.73c-16.757-7.738-33.798-14.93-51.037-21.527
			c-1.778-0.68-3.558-1.353-5.341-2.018c-4.984-1.563-9.969-1.786-14.954-0.67c-4.99,0.226-9.638,1.709-13.942,4.45
			c-4.37,2.356-7.877,5.576-10.521,9.658c-3.314,3.622-5.552,7.873-6.712,12.753c-0.446,3.323-0.893,6.646-1.339,9.969
			c0.021,6.769,1.728,13.078,5.12,18.927c1.955,2.53,3.909,5.06,5.864,7.589C7290.75,6136.614,7296.267,6139.829,7302.619,6141.61
			L7302.619,6141.61z"/>
	</g>
</g>
<g>
	<g>
		<path style="fill:#5B8E3F;" d="M7574.59,6251.11c21.46-19.044,43.422-37.522,65.864-55.399
			c6.289-5.009,12.615-9.971,18.977-14.887c-2.53,1.955-5.06,3.909-7.589,5.864c16.47-12.719,33.181-25.125,50.128-37.201
			c4.75-3.385,9.52-6.743,14.306-10.077c4.37-2.356,7.877-5.576,10.521-9.658c3.314-3.622,5.552-7.873,6.712-12.753
			c1.563-4.984,1.786-9.969,0.67-14.954c-0.227-4.99-1.71-9.638-4.45-13.942c-1.955-2.53-3.909-5.06-5.864-7.589
			c-4.679-4.647-10.195-7.862-16.547-9.644c-3.323-0.446-6.646-0.893-9.969-1.339c-6.769,0.021-13.078,1.728-18.927,5.12
			c-20.374,14.192-40.424,28.847-60.125,43.96c-22.053,16.918-43.823,34.183-65.082,52.091
			c-10.67,8.989-21.223,18.117-31.658,27.377c-3.657,3.397-6.242,7.419-7.754,12.069c-2.348,4.469-3.425,9.285-3.23,14.448
			c-0.195,5.163,0.882,9.979,3.23,14.448c1.512,4.649,4.097,8.672,7.754,12.068c2.53,1.955,5.06,3.909,7.589,5.864
			c5.849,3.392,12.158,5.099,18.927,5.12c3.323-0.446,6.646-0.893,9.969-1.339C7564.396,6258.972,7569.912,6255.757,7574.59,6251.11
			L7574.59,6251.11z"/>
	</g>
</g>
<g>
	<g>
		<path style="fill:#5B8E3F;" d="M7371.494,6396.29c13.269,2.097,26.237,5.828,38.615,11.045c-2.986-1.26-5.972-2.521-8.958-3.78
			c13.138,5.576,25.537,12.8,36.842,21.514c-2.53-1.955-5.06-3.909-7.589-5.864c2.763,2.142,5.458,4.367,8.084,6.675
			c3.396,3.657,7.419,6.242,12.068,7.754c4.469,2.348,9.285,3.424,14.448,3.229c5.163,0.195,9.979-0.882,14.448-3.229
			c4.649-1.512,8.672-4.097,12.068-7.754c1.955-2.53,3.909-5.06,5.864-7.589c3.392-5.849,5.099-12.158,5.12-18.927
			c-0.446-3.323-0.893-6.646-1.339-9.969c-1.782-6.353-4.996-11.869-9.644-16.548c-6.906-6.073-14.226-11.735-21.751-17.015
			c-5.035-3.534-10.269-6.785-15.665-9.737c-8.138-4.452-16.65-8.02-25.218-11.567c-5.619-2.326-11.365-4.346-17.205-6.043
			c-6.647-1.932-13.412-3.435-20.249-4.516c-4.985-1.563-9.969-1.786-14.954-0.67c-4.991,0.227-9.638,1.71-13.942,4.45
			c-4.37,2.356-7.877,5.576-10.521,9.659c-3.314,3.622-5.552,7.873-6.712,12.752c-0.447,3.323-0.893,6.646-1.34,9.969
			c0.021,6.769,1.728,13.078,5.12,18.927c1.955,2.53,3.909,5.06,5.863,7.59C7359.625,6391.293,7365.141,6394.508,7371.494,6396.29
			L7371.494,6396.29z"/>
	</g>
</g>
<g>
	<g>
		<path style="fill:#5B8E3F;" d="M7921.78,6297.588c21.549,19.515,43.098,39.03,64.647,58.545
			c21.382,19.364,42.764,38.728,64.146,58.091c5.429,4.917,10.858,9.833,16.287,14.75c6.257,5.666,12.38,11.455,19.063,16.618
			c1.674,1.293,3.473,2.867,5.358,4.004c1.886,1.137,4.204,1.917,6.129,2.729c1.961,0.828,3.887,1.842,5.97,2.344
			c0.171,0.029,0.342,0.057,0.513,0.086c3.323,0.446,6.646,0.893,9.969,1.339c0.557,0.041,1.051,0.051,1.61,0.026
			c2.415-0.106,7.896-0.958,10.243-1.377c0.364-0.065,0.722-0.127,1.079-0.228c3.625-1.022,7.271-2.744,10.512-4.373
			c1.449-0.729,2.752-1.65,4.048-2.62c5.774-4.322,11.523-8.677,17.286-13.016c23.137-17.421,46.275-34.843,69.413-52.264
			c23.137-17.422,46.274-34.843,69.412-52.265c2.881-2.169,5.762-4.338,8.643-6.508c4.37-2.356,7.878-5.576,10.521-9.658
			c3.314-3.622,5.552-7.873,6.712-12.753c1.563-4.984,1.786-9.969,0.67-14.954c-0.227-4.99-1.71-9.638-4.45-13.942
			c-1.954-2.53-3.909-5.06-5.863-7.589c-4.679-4.647-10.195-7.862-16.548-9.644c-3.322-0.446-6.646-0.893-9.969-1.339
			c-6.769,0.021-13.078,1.728-18.927,5.12c-22.058,16.608-44.114,33.216-66.172,49.824c-22.057,16.608-44.114,33.216-66.171,49.824
			c-6.122,4.609-12.244,9.219-18.366,13.829c-3.151,2.373-6.302,4.745-9.453,7.118c-2.85,2.146-5.65,4.657-8.892,6.197
			c2.986-1.26,5.972-2.521,8.958-3.78c-0.873,0.363-1.72,0.61-2.655,0.738c3.323-0.447,6.646-0.893,9.969-1.34
			c-0.555,0.033-1.057,0.026-1.61-0.026c3.323,0.446,6.646,0.893,9.969,1.339c-0.697-0.116-1.342-0.293-2.004-0.539
			c2.986,1.26,5.972,2.52,8.958,3.78c-1.165-0.506-2.197-1.155-3.214-1.912c2.53,1.955,5.06,3.909,7.59,5.864
			c-5.355-4.188-10.23-9.123-15.268-13.686c-5.262-4.765-10.524-9.53-15.786-14.296c-10.357-9.379-20.714-18.759-31.071-28.138
			c-20.964-18.985-41.929-37.971-62.893-56.957c-11.777-10.666-23.553-21.331-35.33-31.996c-3.397-3.657-7.419-6.242-12.069-7.754
			c-4.469-2.348-9.285-3.425-14.448-3.23c-5.163-0.195-9.979,0.882-14.448,3.23c-4.649,1.512-8.672,4.097-12.068,7.754
			c-1.955,2.53-3.909,5.06-5.864,7.589c-3.392,5.849-5.099,12.158-5.12,18.927c0.446,3.323,0.893,6.646,1.339,9.969
			C7913.918,6287.393,7917.133,6292.909,7921.78,6297.588L7921.78,6297.588z"/>
	</g>
</g>
<g>
	<g>
		<path style="fill:#5B8E3F;" d="M7835.021,6584.2c32.537,36.952,64.155,74.71,94.8,113.245
			c8.638,10.862,17.197,21.787,25.682,32.769c-1.955-2.53-3.909-5.06-5.864-7.589c18.78,24.324,37.186,48.936,55.198,73.834
			c9.704,13.414,18.802,28.051,31.413,38.964c4.419,3.825,9.045,7.521,13.966,10.687c5.028,3.235,10.84,5.514,16.376,7.544
			c10.737,3.938,23.977,3.854,34.933,0.869c11.934-3.252,22.437-10.422,31.031-19.155c4.876-4.955,9.451-10.224,14.196-15.305
			c9.953-10.659,20.072-21.162,30.352-31.504c20.342-20.465,41.315-40.303,62.877-59.478c24.114-21.443,48.97-42.048,74.493-61.792
			c-2.53,1.955-5.06,3.909-7.59,5.864c30.449-23.523,61.847-45.801,94.112-66.763c8.149-5.294,14.609-12.881,17.233-22.411
			c1.562-4.984,1.786-9.969,0.67-14.954c-0.227-4.99-1.71-9.638-4.45-13.942c-5.162-8.007-12.85-15.056-22.411-17.233
			c-9.579-2.182-20.405-1.736-28.896,3.78c-43.016,27.946-84.42,58.312-124.349,90.508c-37.679,30.382-73.791,62.708-108.14,96.81
			c-9.688,9.618-19.236,19.377-28.639,29.275c-4.702,4.949-9.367,9.932-13.996,14.949c-4.352,4.716-8.512,9.718-13.534,13.748
			c2.53-1.954,5.06-3.909,7.589-5.863c-2.019,1.547-4.132,2.866-6.46,3.897c2.986-1.26,5.972-2.52,8.958-3.78
			c-1.92,0.769-3.859,1.313-5.904,1.628c3.323-0.447,6.646-0.893,9.969-1.339c-2.169,0.263-4.304,0.248-6.47-0.029
			c3.323,0.446,6.646,0.893,9.969,1.339c-2.417-0.38-4.719-1.057-6.983-1.979c2.986,1.26,5.972,2.52,8.958,3.78
			c-3.577-1.55-6.831-3.608-9.915-5.982c2.53,1.954,5.06,3.909,7.589,5.863c-5.851-4.632-10.861-10.177-15.437-16.05
			c1.955,2.53,3.909,5.06,5.864,7.589c-11.812-15.349-22.749-31.417-34.299-46.97c-13.53-18.22-27.308-36.249-41.198-54.195
			c-24.269-31.357-49.173-62.222-74.692-92.571c-14.46-17.198-29.121-34.227-43.97-51.09c-3.396-3.657-7.419-6.241-12.068-7.753
			c-4.469-2.348-9.285-3.425-14.448-3.23c-5.163-0.195-9.979,0.882-14.448,3.23c-4.649,1.512-8.672,4.097-12.069,7.753
			c-6.56,7.146-11.431,16.529-10.983,26.517c0.447,3.323,0.893,6.646,1.34,9.969
			C7827.158,6574.005,7830.373,6579.521,7835.021,6584.2L7835.021,6584.2z"/>
	</g>
</g>
<g>
	<g>
		<path style="fill:#5B8E3F;" d="M7810.04,7096.044c32.181,35.305,64.362,70.611,96.543,105.917
			c31.921,35.021,63.843,70.041,95.764,105.062c18.167,19.93,36.333,39.861,54.5,59.792c2.53,1.955,5.06,3.909,7.59,5.864
			c4.304,2.74,8.952,4.224,13.942,4.45c3.323,0.893,6.646,0.893,9.969,0c4.99-0.226,9.638-1.709,13.942-4.45
			c45.956-30.616,90.957-62.66,134.903-96.097c46.21-35.158,91.448-71.566,135.376-109.541
			c23.601-20.401,46.832-41.226,69.696-62.449c6.887-6.393,10.983-17.266,10.983-26.517c0-9.197-4.086-20.184-10.983-26.517
			c-7.146-6.56-16.529-11.431-26.517-10.983c-10.157,0.455-18.986,3.993-26.517,10.983
			c-45.465,42.203-92.404,82.812-140.728,121.708c-13.688,11.017-27.486,21.894-41.389,32.638c2.53-1.955,5.061-3.909,7.59-5.863
			c-38.03,29.366-76.85,57.707-116.424,84.957c-11.223,7.728-22.506,15.366-33.846,22.92c15.148,1.955,30.295,3.909,45.443,5.864
			c-32.181-35.305-64.362-70.611-96.543-105.916c-31.921-35.021-63.843-70.042-95.764-105.062
			c-18.167-19.93-36.333-39.861-54.5-59.792c-6.294-6.905-17.353-10.983-26.517-10.983c-9.197,0-20.184,4.085-26.517,10.983
			c-6.56,7.146-11.431,16.529-10.983,26.517C7799.514,7079.734,7803.098,7088.429,7810.04,7096.044L7810.04,7096.044z"/>
	</g>
</g>
<g>
	<g>
		<path style="fill:#5B8E3F;" d="M7839.701,7594.42c20.346,23.694,41.455,46.731,63.3,69.051
			c21.844,22.32,44.417,43.927,67.669,64.776c23.252,20.849,47.185,40.939,71.749,60.225c3.732,2.931,7.413,5.941,11.272,8.701
			c3.91,2.795,9.043,4.848,13.393,6.124c8.049,2.362,15.601,1.949,23.67,0.224c2.346-0.501,4.382-1.571,6.63-2.52
			c2.279-0.962,4.667-1.812,6.817-3.072c7.244-4.249,14.106-9.328,21.096-13.982c14.261-9.495,28.521-18.99,42.782-28.485
			c28.312-18.851,56.623-37.702,84.935-56.552c3.565-2.374,7.13-4.748,10.695-7.122c4.37-2.356,7.877-5.576,10.521-9.658
			c3.314-3.622,5.552-7.873,6.712-12.753c1.563-4.984,1.786-9.969,0.67-14.954c-0.227-4.99-1.71-9.638-4.45-13.942
			c-1.954-2.53-3.909-5.06-5.863-7.589c-4.68-4.647-10.195-7.862-16.548-9.644c-3.323-0.446-6.646-0.893-9.969-1.339
			c-6.77,0.021-13.078,1.728-18.927,5.12c-21.076,14.033-42.153,28.066-63.229,42.1c-21.077,14.033-42.153,28.066-63.229,42.1
			c-5.977,3.98-11.954,7.959-17.931,11.939c-2.936,1.955-5.872,3.91-8.808,5.865c-2.8,1.864-5.551,3.972-8.649,5.32
			c2.986-1.26,5.972-2.52,8.958-3.78c-0.814,0.308-1.608,0.535-2.465,0.685c3.323-0.447,6.646-0.893,9.969-1.34
			c-0.656,0.064-1.25,0.076-1.907,0.032c3.323,0.446,6.646,0.893,9.969,1.339c-0.833-0.122-1.598-0.322-2.388-0.61
			c2.986,1.26,5.972,2.52,8.958,3.78c-1.767-0.76-3.315-1.836-4.836-3c2.53,1.955,5.06,3.909,7.59,5.864
			c-29.173-22.702-57.385-46.675-84.66-71.621c-27.298-24.966-53.631-50.987-78.919-77.985
			c-14.181-15.14-28.029-30.589-41.542-46.328c-3.396-3.657-7.419-6.241-12.068-7.753c-4.469-2.348-9.285-3.425-14.448-3.23
			c-5.163-0.195-9.979,0.882-14.448,3.23c-4.649,1.512-8.672,4.097-12.069,7.753c-6.56,7.147-11.431,16.529-10.983,26.517
			c0.447,3.323,0.893,6.646,1.34,9.969C7831.839,7584.226,7835.054,7589.741,7839.701,7594.42L7839.701,7594.42z"/>
	</g>
</g>
<g>
	<g>
		<path style="fill:#5B8E3F;" d="M6853.262,8062.514c44.883-0.039,89.766-0.077,134.649-0.115s89.767-0.077,134.649-0.115
			c25.124-0.021,50.247-0.043,75.37-0.064c5.163,0.194,9.979-0.882,14.448-3.23c4.649-1.512,8.672-4.097,12.069-7.754
			c6.534-7.118,11.496-16.557,10.983-26.516c-2.04-39.632-2.657-79.334-1.827-119.009c0.823-39.399,3.062-78.769,6.71-118.007
			c2.066-22.227,4.589-44.409,7.551-66.534c-0.447,3.323-0.893,6.646-1.34,9.969c4.222-31.409,9.335-62.697,15.359-93.812
			c1.729-8.928,3.534-17.842,5.41-26.74c1.563-4.984,1.786-9.969,0.67-14.954c-0.227-4.991-1.71-9.638-4.45-13.942
			c-2.356-4.37-5.576-7.877-9.659-10.521c-3.622-3.314-7.873-5.552-12.752-6.712c-3.323-0.447-6.646-0.893-9.969-1.34
			c-6.769,0.021-13.078,1.728-18.927,5.12c-7.928,5.111-15.224,12.875-17.233,22.411c-5.74,27.235-10.797,54.613-15.148,82.105
			c-4.832,30.524-8.916,61.188-12.207,91.916c-2.95,27.539-5.207,55.151-6.765,82.803c-1.566,27.789-2.428,55.618-2.583,83.451
			c-0.155,27.833,0.397,55.669,1.66,83.474c0.156,3.441,0.324,6.882,0.501,10.322c12.5-12.5,25-25,37.5-37.5
			c-44.883,0.038-89.767,0.076-134.649,0.114c-44.883,0.039-89.767,0.077-134.65,0.115c-25.123,0.021-50.247,0.043-75.37,0.064
			c-5.163-0.195-9.979,0.882-14.448,3.229c-4.649,1.512-8.672,4.097-12.068,7.754c-3.657,3.396-6.242,7.419-7.754,12.068
			c-2.348,4.469-3.424,9.285-3.229,14.448c0.434,9.698,3.62,19.757,10.983,26.517
			C6834.079,8058.263,6843.104,8062.522,6853.262,8062.514L6853.262,8062.514z"/>
	</g>
</g>
<g>
	<g>
		<path style="fill:#5B8E3F;" d="M7119.579,8244.432c36.84-0.439,73.688-0.156,110.517,0.86c36.71,1.015,73.4,2.753,110.042,5.216
			c20.685,1.391,41.354,3.015,62.002,4.863c3.323-0.446,6.646-0.894,9.969-1.34c4.88-1.16,9.131-3.397,12.753-6.712
			c2.817-1.667,5.06-3.909,6.727-6.727c3.314-3.622,5.552-7.873,6.712-12.753c5.499-38.783,12.705-77.32,21.613-115.465
			c8.855-37.923,19.381-75.456,31.54-112.453c6.857-20.865,14.238-41.556,22.121-62.055c1.563-4.984,1.786-9.969,0.67-14.953
			c-0.226-4.991-1.709-9.638-4.45-13.942c-2.356-4.37-5.576-7.877-9.658-10.521c-3.622-3.314-7.873-5.552-12.753-6.712
			c-3.323-0.446-6.646-0.893-9.969-1.339c-6.769,0.021-13.078,1.728-18.927,5.12c-2.53,1.955-5.06,3.909-7.589,5.864
			c-4.647,4.679-7.862,10.195-9.644,16.547c-14.06,36.561-26.508,73.737-37.279,111.398c-10.708,37.442-19.768,75.356-27.14,113.595
			c-4.157,21.565-7.772,43.234-10.855,64.979c12.054-9.178,24.107-18.354,36.161-27.531c-36.696-3.286-73.456-5.853-110.253-7.687
			c-36.679-1.828-73.393-2.93-110.115-3.308c-20.73-0.213-41.463-0.192-62.193,0.055c-5.163-0.195-9.979,0.881-14.448,3.229
			c-4.649,1.512-8.672,4.097-12.068,7.754c-3.657,3.396-6.241,7.419-7.754,12.068c-2.348,4.469-3.424,9.285-3.229,14.448
			c0.446,3.323,0.893,6.646,1.339,9.969c1.782,6.353,4.997,11.868,9.644,16.548c2.53,1.954,5.06,3.909,7.59,5.863
			C7106.5,8242.704,7112.81,8244.41,7119.579,8244.432L7119.579,8244.432z"/>
	</g>
</g>
<path style="fill:#93B353;" d="M6188.924,7143.955c0,0-29.412,1.744-15.578,26.163
	c13.833,24.419,1031.816,813.182,1497.246,1386.591c0,0,55.852,137.767,245.747,126.597c0,0,25.263,1.34,43.885,24.101
	c18.622,22.761,45.521,57.937,45.521,57.937s2.069,10.346,26.899,0s130.357-64.145,130.357-64.145s16.553-8.276,8.277-28.968
	c-8.277-20.691-43.453-88.974-43.453-88.974s-12.415-12.415,0-45.521c12.415-33.106,28.968-76.56,16.554-302.098
	c-12.415-225.539,40.686-1119.43,10.699-1993.819c0,0,4.526-47.527-34.317-29.952c-24.546,11.106-88.888,1670.314-105.015,1944.47
	c0,0-10.751,193.522-96.761,134.39c-86.01-59.132-104.105-180.571-148.62-144.803s113.412,185.201,60.233,242.708
	c-53.178,57.509-74.634,84.31-194.439-45.986C7516.355,8212.348,6620.401,7374.779,6188.924,7143.955z"/>
<g>
	<g>
		<path style="fill:#2D5D26;" d="M7798.373,8052.644c14.255-28.964,9.424-61.664-8.481-88.036
			c-15.024-22.129-36.443-36.583-54.987-55.301c-2.065-2.084-4.071-4.226-5.994-6.441c-0.719-0.828-2.184-3.418-3.122-3.752
			c0.588,0.209,4.371,6.189,1.423,1.669c-1.626-2.494-3.254-4.949-4.695-7.56c-0.637-1.154-1.246-2.321-1.83-3.502
			c-3.182-6.436,0.995,3.136,0.001,0.336c-1.984-5.587-3.783-11.127-5.022-16.938c-0.618-2.9-0.898-5.901-1.565-8.783
			c0.141,0.609,0.873,7.902,0.383,2.43c-0.179-2.001-0.386-3.995-0.53-6c-1.918-26.708,0.94-53.774,2.465-80.438
			c1.708-29.879,3.417-59.758,5.126-89.637c0.831-14.536,1.663-29.071,2.494-43.607c0.401-7.008,0.764-14.02,1.218-21.025
			c0.211-3.25,0.448-6.498,0.763-9.739c0.143-1.473-0.075-4.105,0.596-5.386c-0.173,1.364-0.345,2.728-0.518,4.092
			c0.224-1.421,0.473-2.838,0.747-4.25c0.551-2.817,1.203-5.616,2.001-8.374c0.499-1.723,1.183-3.402,1.667-5.124
			c1.235-4.394-3.539,6.935-0.38,0.776c2.854-5.567,5.845-10.952,9.274-16.194c6.987-10.677,14.753-20.834,20.655-32.188
			c12.379-23.815,19.073-49.553,20.642-76.314c1.397-23.825-2.055-48.89-10.146-71.359c-9.126-25.342-22.841-46.632-40.773-66.643
			c-7.425-8.286-15.179-16.268-22.672-24.49c-3.616-3.967-7.178-7.985-10.598-12.123c-0.747-0.903-1.478-1.817-2.219-2.725
			c-3.221-3.94,1.523,1.924,1.721,2.263c-1.545-2.641-3.718-5.063-5.409-7.626c-2.568-3.893-4.714-7.93-6.888-12.045
			c-2.731-5.172,2.131,6.293,0.978,2.458c-0.371-1.234-0.918-2.432-1.318-3.66c-0.798-2.451-1.311-4.938-1.918-7.434
			c-1.224-5.024,0.673,4.06,0.466,3.837c-0.255-0.275-0.196-2.499-0.22-3.059c-0.08-1.92-0.57-6,0.274-7.771
			c0.027-0.058-1.644,8.695-0.361,3.621c0.27-1.068,0.483-2.145,0.774-3.208c0.372-1.357,0.875-2.667,1.278-4.012
			c1.084-3.609-3.443,6.779-0.896,2.162c1.34-2.43,2.599-4.835,4.139-7.153c0.607-0.913,1.333-1.79,1.9-2.721
			c-4.072,6.683-3.355,4.162-1.856,2.417c3.704-4.311,7.529-8.456,11.552-12.472c7.306-7.292,14.838-14.35,21.325-22.406
			c16.802-20.864,27.059-46.266,24.089-73.46c-5.352-49.014-37.969-87.073-60.87-128.859c-2.593-4.732-5.069-9.531-7.344-14.425
			c-0.497-1.068-0.966-2.147-1.46-3.216c-2.158-4.659,1.021,2.312,1.123,2.693c-0.736-2.768-2.131-5.502-3.021-8.24
			c-1.437-4.425-2.606-8.934-3.506-13.499c-0.529-2.688-1.067-11.173-0.224,0.005c-0.193-2.556-0.557-5.097-0.717-7.659
			c-0.288-4.607-0.321-9.23-0.112-13.841c0.093-2.052,0.233-4.103,0.421-6.148c0.117-1.279,0.305-2.555,0.409-3.834
			c0.278-3.442-1.524,8.953-0.251,2.258c1.797-9.447,4.072-18.662,7.471-27.678c0.367-0.973,0.762-1.934,1.129-2.905
			c1.751-4.626-1.348,3.125-1.369,3.209c0.61-2.34,2.227-4.912,3.302-7.071c2.206-4.429,4.623-8.751,7.242-12.949
			c2.345-3.759,5.116-7.229,7.493-10.952c-5.633,8.821-0.841,1.125,0.91-0.936c1.68-1.977,3.41-3.912,5.189-5.799
			c3.194-3.388,6.547-6.627,10.049-9.695c1.553-1.361,3.158-2.656,4.744-3.977c3.761-3.135-2.653,2.022-2.711,2.086
			c0.976-1.07,2.55-1.874,3.752-2.711c3.79-2.642,7.716-5.092,11.762-7.324c2.021-1.114,4.072-2.172,6.15-3.176
			c1.155-0.558,2.325-1.079,3.487-1.621c4.936-2.302-7.321,2.764-1.84,0.812c8.849-3.151,17.67-5.631,26.995-6.924
			c7.234-1.003,15.331-8.504,18.825-14.476c3.951-6.752,5.625-16.703,3.176-24.273c-2.467-7.622-7.19-14.976-14.476-18.825
			c-8.022-4.239-15.378-4.409-24.273-3.175c-45.419,6.297-84.332,36.304-109.78,73.289c-25.736,37.404-35.837,84.181-27.931,128.765
			c8.13,45.847,40.873,82.623,62.034,122.728c1.225,2.322,2.417,4.661,3.561,7.023c0.654,1.351,4.146,9.512,1.959,4.024
			c-2.19-5.496,0.989,2.623,1.487,4.006c0.919,2.555,1.761,5.139,2.5,7.752c0.722,2.552,1.351,5.133,1.861,7.736
			c0.141,0.721,0.7,2.499,0.549,3.089c-0.029,0.113-0.849-8.854-0.526-3.744c0.146,2.317,0.351,4.608,0.359,6.935
			c0.012,3.495-2.065,11.94,0.419,1.622c-0.487,2.023-0.715,4.112-1.223,6.139c-0.612,2.439-2.113,5.213-2.441,7.662
			c0.051-0.383,3.467-7.4,1.196-2.934c-0.518,1.019-1.003,2.051-1.544,3.058c-1.48,2.756-3.225,5.274-4.945,7.878
			c-2.142,3.244,4.354-5.304,1.839-2.327c-0.917,1.085-1.805,2.194-2.737,3.267c-1.5,1.726-3.052,3.407-4.628,5.063
			c-3.965,4.168-8.118,8.151-12.204,12.2c-19.756,19.576-35.023,41.603-36.46,70.258c-1.378,27.499,13.093,51.637,29.402,72.401
			c13.802,17.572,30.287,32.771,44.529,49.962c0.721,0.871,1.405,1.803,2.156,2.643c-5.349-5.983-2.818-3.744-1.62-2.082
			c1.583,2.195,3.147,4.396,4.627,6.663c3.117,4.773,5.944,9.733,8.474,14.842c0.666,1.344,1.308,2.7,1.932,4.063
			c1.144,2.498,1.26,5.812-0.673-1.744c0.584,2.282,1.771,4.501,2.56,6.732c2.003,5.666,3.669,11.449,5.006,17.307
			c0.535,2.345,1.015,4.704,1.442,7.072c0.267,1.48,0.482,2.969,0.735,4.452c0.741,4.343-0.87-8.548-0.301-2.109
			c0.505,5.709,0.956,11.381,0.978,17.119c0.02,5.416-0.235,10.829-0.767,16.218c-0.146,1.484-0.441,2.994-0.505,4.48
			c0.018-0.405,1.282-8.215,0.347-3.022c-0.533,2.957-1.053,5.91-1.709,8.843c-1.18,5.27-2.64,10.478-4.382,15.589
			c-0.872,2.558-1.86,5.065-2.826,7.588c-1.539,4.02,3.497-7.453,0.69-1.735c-0.794,1.617-1.526,3.263-2.337,4.873
			c-5.402,10.729-12.464,20.392-19.161,30.321c-8.525,12.64-15.896,26.303-19.798,41.138c-3.926,14.929-4.844,30.672-5.724,46.029
			c-1.735,30.283-3.464,60.565-5.195,90.848c-1.709,29.879-3.433,59.757-5.126,89.637c-1.52,26.817-2.189,54.168,4.558,80.421
			c7.354,28.618,24.688,51.396,46.586,70.577c9.174,8.036,18.729,15.705,27.194,24.51c1.933,2.01,3.705,4.136,5.534,6.238
			c2.819,3.239-4.467-6.6-0.935-1.138c0.684,1.057,1.437,2.07,2.123,3.126c1.542,2.372,2.972,4.815,4.278,7.324
			c0.591,1.136,1.159,3.364,2.046,4.207c-0.58-1.367-1.159-2.734-1.738-4.101c0.446,1.143,0.863,2.297,1.248,3.462
			c0.761,2.309,1.299,4.647,1.878,7.003c1.284,5.217-0.231-2.881-0.309-3.092c0.445,1.216,0.233,3.095,0.249,4.394
			c0.014,1.131,0.364,3.377-0.147,4.368c0.021-0.041,1.737-8.421,0.358-3.196c-0.288,1.091-0.654,2.283-0.884,3.399
			c-1.286,6.252,3.328-6.735,0.456-0.9c-7.266,14.764-4.472,34.765,11.3,43.098
			C7769.473,8071.446,7790.604,8068.428,7798.373,8052.644L7798.373,8052.644z"/>
	</g>
</g>
<g>
	<g>
		<path style="fill:#2D5D26;" d="M6923.729,6165.768c35.096,0.614,70.36-2.498,105.292,2.184c-2.792-0.375-5.583-0.75-8.374-1.125
			c14.897,2.075,29.471,5.715,43.376,11.499c-2.508-1.059-5.016-2.117-7.524-3.176c10.422,4.411,20.311,9.946,29.283,16.861
			c-2.125-1.642-4.25-3.284-6.375-4.925c6.629,5.197,12.631,11.08,17.811,17.73c-1.642-2.125-3.284-4.25-4.925-6.375
			c4.731,6.201,8.609,12.917,11.646,20.099c-1.058-2.508-2.117-5.017-3.175-7.525c4.514,10.916,7.068,22.46,8.659,34.135
			c-0.375-2.792-0.75-5.583-1.125-8.374c5.815,43.962-0.925,91.073,20.879,131.575c12.401,23.035,34.128,39.376,58.811,47.218
			c20.718,6.583,43.387,6.656,64.894,5.514c21.793-1.157,43.857-3.831,65.626-0.992c-2.792-0.375-5.583-0.75-8.374-1.125
			c7.529,1.031,14.921,2.792,21.941,5.74c-2.508-1.059-5.016-2.117-7.524-3.176c4.735,2.047,9.185,4.6,13.299,7.715
			c-2.125-1.642-4.25-3.284-6.375-4.926c4.006,3.11,7.582,6.669,10.733,10.644c-1.642-2.125-3.284-4.25-4.926-6.375
			c3.312,4.299,6.01,8.959,8.171,13.934c-1.059-2.508-2.117-5.017-3.176-7.525c3.287,7.813,5.155,16.057,6.281,24.438
			c-0.375-2.792-0.75-5.583-1.125-8.374c2.325,18.127,1.413,36.449,2.36,54.659c1.164,22.373,4.766,45.091,16.322,64.683
			c5.317,9.015,12.22,17.728,20.38,24.359c4.892,3.976,9.904,7.944,15.368,11.129c5.639,3.287,11.728,5.731,17.759,8.182
			c7.542,3.065,15.486,5.072,23.518,6.343c11.139,1.762,22.293,2.968,33.573,2.996c22.368,0.056,44.815-3.219,66.752-7.343
			c7.391-1.389,15.149-8.195,18.825-14.476c3.951-6.752,5.625-16.703,3.176-24.273c-2.467-7.622-7.19-14.976-14.477-18.825
			c-7.842-4.143-15.549-4.815-24.272-3.175c-7.378,1.387-14.784,2.615-22.223,3.622c2.791-0.375,5.583-0.75,8.374-1.125
			c-19.235,2.556-38.835,3.721-58.138,1.194c2.791,0.375,5.583,0.75,8.374,1.125c-9.656-1.321-19.152-3.606-28.147-7.4
			c2.508,1.059,5.017,2.117,7.525,3.175c-5.807-2.511-11.29-5.624-16.333-9.45c2.125,1.642,4.25,3.284,6.375,4.926
			c-4.456-3.459-8.444-7.404-11.944-11.829c1.642,2.125,3.284,4.25,4.926,6.375c-3.696-4.786-6.722-9.975-9.117-15.526
			c1.059,2.508,2.117,5.017,3.175,7.525c-3.361-8.035-5.324-16.493-6.516-25.102c0.375,2.792,0.75,5.583,1.125,8.374
			c-2.597-19.625-1.374-39.465-2.683-59.172c-0.779-11.722-2.091-23.738-5.37-35.059c-1.942-6.707-4.701-13.286-7.777-19.528
			c-3.125-6.341-7.429-11.855-11.846-17.354c-13.071-16.271-33.564-27.079-53.886-30.95c-19.844-3.78-39.595-3.55-59.645-2.3
			c-19.919,1.241-40.059,3.111-59.948,0.496c2.792,0.375,5.583,0.75,8.374,1.125c-8.067-1.112-15.985-3.018-23.508-6.17
			c2.508,1.058,5.017,2.117,7.524,3.175c-5.444-2.345-10.546-5.305-15.243-8.925c2.125,1.642,4.25,3.284,6.375,4.925
			c-4.386-3.462-8.316-7.389-11.755-11.794c1.642,2.125,3.283,4.25,4.925,6.375c-3.853-5.051-6.952-10.564-9.427-16.41
			c1.058,2.508,2.117,5.017,3.175,7.525c-3.965-9.599-6.19-19.758-7.612-30.018c0.375,2.791,0.75,5.583,1.125,8.374
			c-2.664-19.826-2.522-39.882-3.851-59.812c-0.833-12.5-2.218-25.046-4.574-37.352c-2.309-12.059-6.367-23.339-11.479-34.506
			c-5.424-11.85-13.587-22.767-22.682-32.036c-9.31-9.489-20.401-17.736-32.005-24.218c-11.862-6.625-24.743-11.9-37.765-15.763
			c-14.251-4.229-29.049-6.342-43.807-7.856c-32.266-3.31-64.735-0.64-97.083-1.206c-7.987-0.14-16.66,3.612-22.274,9.226
			c-5.463,5.463-9.578,14.427-9.226,22.274C6893.005,6151.582,6906.067,6165.458,6923.729,6165.768L6923.729,6165.768z"/>
	</g>
</g>
<path style="fill:#93B353;" d="M6733.056,6652.988c0,0-218.97-325.414-252.424-389.28s349.744,364.95,349.744,364.95"/>
<path style="fill:#93B353;" d="M7523.781,6336.143l-53.4-394.808c0,0,13.863-39.536,38.193,0s94.725,351.931,94.725,351.931"/>
<polygon style="fill:#93B353;" points="7204.077,7212.362 7304.26,7366.941 7254.169,7388.875 7171.621,7272.941 "/>
<g>
	<g>
		<path style="fill:#2D5D26;" d="M5988.901,6512.352c3.442-2.945,6.929-5.826,10.457-8.668c3.989-3.214-3.312,2.459,0.778-0.623
			c1.607-1.21,3.222-2.41,4.848-3.594c7.318-5.329,14.842-10.372,22.548-15.123c14.97-9.229,30.637-17.444,46.829-24.321
			c-4.735,2.011,0.016,0.023,0.838-0.297c1.876-0.729,3.742-1.481,5.623-2.199c4.231-1.614,8.492-3.146,12.78-4.601
			c8.576-2.91,17.258-5.5,26.027-7.76c8.281-2.135,16.635-3.977,25.046-5.52c3.958-0.726,7.93-1.367,11.907-1.974
			c6.336-0.967,1.938-0.245,0.596-0.089c2.998-0.349,5.994-0.695,8.998-0.985c16.764-1.617,33.713-2.157,50.529-1.089
			c3.514,0.223,7.021,0.519,10.522,0.893c1.778,0.19,7.771,1.124,0.825,0.038c1.747,0.273,3.492,0.537,5.234,0.836
			c7.799,1.34,15.528,3.116,23.109,5.39c3.332,1,6.637,2.099,9.899,3.309c1.621,0.601,3.229,1.232,4.833,1.877
			c-5.983-2.409-1.655-0.7-0.446-0.069c6.836,3.569,13.342,7.201,19.745,11.515c6.595,4.443-2.854-2.921,0.577,0.498
			c1.182,1.178,2.542,2.202,3.766,3.344c2.791,2.602,5.272,5.411,7.87,8.197c1.06,1.138,3.091,4.664-0.188-0.367
			c0.938,1.44,1.979,2.809,2.917,4.252c2.61,4.017,4.889,8.238,7.044,12.512c8.233,16.327,14.956,32.319,26.45,46.765
			c10.676,13.416,24.957,22.494,40.721,28.753c24.198,9.61,51.537,8.85,77.016,6.407c25.363-2.432,50.576-6.483,76.121-4.694
			c7.928,0.555-6.061-1.438,1.585,0.215c2.886,0.625,5.764,1.182,8.604,2.002c1.978,0.571,5.316,2.574,7.319,2.51
			c-4.124,0.132-5.306-2.586-2.259-0.797c1.672,0.982,3.407,1.81,5.059,2.837c0.435,0.271,3.181,2.203,3.25,2.163
			c-1.13,0.656-5.054-4.486-1.693-1.251c2.062,1.984,4.073,3.982,6.09,6.013c5.098,5.135-1.469-3.549,0.223,0.29
			c0.623,1.412,1.759,2.7,2.549,4.045c0.808,1.377,1.511,2.81,2.291,4.201c0.553,1.065,1.077,2.146,1.571,3.24
			c-1.408-3.471-1.687-4.123-0.836-1.957c9.8,28.634,12.4,59.758,27.226,86.606c13.053,23.639,36.837,42.387,63.61,47.488
			c47.956,9.136,94.132-11.749,138.687-26.488c10.717-3.545,21.528-6.868,32.532-9.405c5.019-1.157,10.39-1.549,15.321-2.929
			c-0.401,0.112-8.261,0.831-3.073,0.446c1.167-0.087,2.332-0.241,3.499-0.337c2.865-0.235,5.738-0.382,8.613-0.403
			c2.248-0.017,4.497,0.031,6.74,0.167c1.097,0.067,2.216,0.224,3.316,0.26c5.147,0.169-3.342-0.107-3.472-0.501
			c0.188,0.567,12.588,3.219,14.141,3.701c5.592,1.734-5.578-3.113-2.277-0.925c0.898,0.596,1.979,0.983,2.931,1.502
			c2.226,1.213,4.255,2.658,6.408,3.983c4.104,2.527-5.355-5.045,0.417,0.549c0.785,0.761,6.112,7.116,6.682,7.047
			c-0.393,0.047-4.482-6.437-1.361-1.725c0.725,1.095,1.494,2.154,2.209,3.256c1.444,2.226,2.79,4.515,4.06,6.844
			c1.291,2.366,2.496,4.78,3.639,7.221c0.423,0.903,3.734,6.059,0.9,1.861c-2.679-3.967,0.254,0.704,0.752,1.983
			c4.42,11.359,7.952,23.034,11.852,34.575c9.042,26.763,20.148,52.977,43.907,69.846c13.507,9.59,30.375,13.729,46.788,13.766
			c8.281,0.019,16.503-1.229,24.777-1.375c-0.461,0.008,9.489,0.089,4.884-0.172c-3.795-0.216,2.404,0.715,3.185,0.752
			c4.193,0.198-2.597-2.36-0.342-0.372c1.216,1.072,7.237,2.958,2.703,1.356c-6.096-2.154,6.449,4.723,0.996,1.228
			c-3.303-2.117-0.469-0.418,0.656,1.641c0.293,0.538,1.48,3.419,1.724,3.506c-0.806-0.288-2.365-7.293-1.03-1.908
			c0.329,1.327,0.815,2.637,1.168,3.958c0.483,1.808,3.128,8.963,2.163,10.517c0.13-0.209-0.867-8.03-0.237-1.724
			c0.151,1.514,0.324,3.024,0.466,4.539c0.29,3.081,0.517,6.167,0.73,9.254c0.486,7.016,0.841,14.043,1.455,21.05
			c1.773,20.258,5.701,38.282,14.286,56.812c7.78,16.793,18.815,31.925,29.112,47.222c23.122,34.351,46.244,68.702,69.366,103.053
			c5.384,7.999,10.864,15.941,16.118,24.026c2.501,3.849,4.942,7.749,7.096,11.805c0.943,1.775,1.915,3.594,2.696,5.442
			c-1.73-4.092-0.059,0.52,0.452,2.362c0.241,0.869,1.384,6.992,0.882,3.127c-0.586-4.511-0.032,4.645-0.048,4.399
			c0.1,1.492-0.937,5.918,0.252-0.03c-0.368,1.839-0.732,3.653-1.203,5.474c-0.945,3.654-2.142,7.293-3.63,10.764
			c2.192-5.112,0.087-0.483-0.387,0.415c-1.377,2.606-2.656,5.256-4.061,7.85c-9.164,16.918-18.872,32.941-25.938,50.937
			c-7.064,17.993-10.687,37.388-11.749,56.657c-2.162,39.222,10.429,77.953,35.827,107.857
			c23.314,27.451,57.93,44.026,93.525,47.053c32.082,2.729,63.264-10.401,88.535-29.236c12.852-9.579,24.902-20.031,36.909-30.628
			c5.144-4.54,10.299-9.069,15.585-13.444c1.232-1.02,2.477-2.026,3.717-3.036c0.81-0.659,4.939-3.745,1.507-1.217
			c-4.003,2.948,2.294-1.629,2.515-1.787c1.594-1.14,3.205-2.255,4.835-3.342c5.508-3.671,11.241-6.752,17.112-9.779
			c1.672-0.862,5.236-1.574-1.178,0.443c1.458-0.458,2.887-1.091,4.334-1.579c3.703-1.247,7.465-2.052,11.242-3.005
			c1.408-0.355,5.12-0.342-0.345-0.062c1.912-0.098,3.806-0.306,5.721-0.357c3.814-0.103,7.628,0.063,11.424,0.439
			c-6.35-0.629-0.108,0.113,1.521,0.462c1.875,0.402,3.732,0.86,5.58,1.371c1.853,0.513,3.685,1.079,5.505,1.697
			c1.372,0.451,2.729,0.941,4.074,1.468c-2.62-1.154-2.912-1.264-0.874-0.329c3.426,1.834,6.902,3.447,10.242,5.456
			c1.661,0.999,3.292,2.039,4.9,3.122c1.167,0.787,6.166,4.626,1.793,1.111c6.349,5.104,11.989,10.974,17.151,17.26
			c-4.21-5.127,1.71,2.708,2.68,4.225c1.875,2.933,3.628,5.947,5.249,9.028c0.811,1.541,1.525,3.135,2.341,4.672
			c3.872,7.298-1.2-3.881,0.454,0.876c1.292,3.717,2.701,7.36,3.805,11.144c1.101,3.773,2.027,7.594,2.79,11.449
			c0.339,1.714,0.592,3.443,0.916,5.159c0.882,4.67-0.282-5.328-0.134-0.581c0.262,8.381,0.551,16.419,0.056,24.812
			c-0.096,1.621-1.169,5.861,0.145-0.602c-0.346,1.704-0.581,3.432-0.924,5.138c-0.687,3.412-1.521,6.796-2.507,10.134
			c-0.988,3.347-2.147,6.628-3.396,9.886c2.395-6.25,0.128-0.489-0.634,1.074c-1.01,2.07-2.067,4.117-3.183,6.132
			c-1.775,3.208-3.674,6.347-5.677,9.418c-1.25,1.917-2.547,3.802-3.875,5.667c-0.5,0.702-3.924,5.353-1.64,2.328
			c2.287-3.027-1.265,1.545-1.812,2.213c-1.461,1.781-2.947,3.541-4.458,5.281c-2.731,3.148-5.54,6.228-8.393,9.266
			c-11.214,11.942-23.165,23.157-34.672,34.809c-23.699,23.996-43.944,49.558-54.468,82.024
			c-9.882,30.486-10.062,64.459,4.017,93.601c14.599,30.221,45.712,45.855,77.871,48.74c26.593,2.386,53.748-5.357,79.332-11.68
			c6.003-1.484,12.013-2.95,18.062-4.238c2.766-0.589,5.539-1.146,8.322-1.646c1.366-0.245,2.74-0.447,4.104-0.696
			c6.768-1.237-6.559,0.537-0.298,0.044c5.494-0.432,10.932-0.843,16.449-0.53c1.236,0.07,2.472,0.245,3.706,0.298
			c4.042,0.173-6.669-1.737-2.95-0.327c2.443,0.926,6.047,1.876,8.651,2.369c3.707,0.702-5.578-3.365-2.589-1.066
			c1.134,0.872,2.729,1.422,3.958,2.179c0.615,0.379,2.581,2.024,3.055,2.047c-0.898-0.043-5.516-5.129-1.983-1.331
			c0.979,1.052,4.27,5.659,5.408,5.746c-2.44-0.187-3.59-5.457-1.595-1.809c0.833,1.523,1.771,3.255,2.704,4.717
			c3.055,4.788-1.561-2.779-1.061-2.665c0.184,0.042,0.992,2.838,1.101,3.316c0.335,1.467,0.625,5.778,1.509,6.801
			c-2.644-3.056-0.44-7.283-0.51-2.248c-0.017,1.186,0.088,2.379,0.086,3.567c-0.003,1.782-1.247,11.331-0.122,5.856
			c1.201-5.846-0.609,3.139-0.836,4.247c-0.591,2.891-1.288,5.759-2.053,8.608c-1.597,5.949-3.51,11.809-5.542,17.621
			c-3.996,11.428-8.505,22.669-12.579,34.069c-9.303,26.039-15.519,53.292-9.977,80.883c5.595,27.852,26.414,49.416,50.16,63.381
			c19.501,11.469,41.274,18.21,61.379,28.451c4.441,2.263,8.805,4.701,12.942,7.486c0.923,0.621,1.798,1.345,2.746,1.922
			c3.258,1.981-5.069-4.645-2.51-1.901c1.583,1.698,3.491,3.266,5.168,4.896c0.312,0.303,1.892,2.354,2.026,2.333
			c-0.836,0.128-4.152-6.905-2.225-2.676c0.44,0.965,2.121,5.026,2.919,5.338c-4.484-1.755-1.975-6.936-1.538-3.188
			c0.091,0.785,0.523,2.24,0.811,3.062c1.892,5.404,0.053-6.507-0.288-2.662c-0.123,1.39,0.138,2.957,0.142,4.36
			c0.048,16.476,14.455,32.264,31.5,31.5c17.026-0.763,31.551-13.841,31.5-31.5c-0.086-29.605-16.931-52.53-41.324-67.737
			c-19.167-11.949-41.167-18.531-61.292-28.602c-4.848-2.426-9.616-5.028-14.186-7.949c-2.096-1.339-4.074-2.828-6.138-4.208
			c-3.517-2.352,5.933,5.305,1.366,0.944c-1.087-1.038-2.25-1.996-3.333-3.042c-1.057-1.022-5.227-4.276-5.445-5.916
			c-0.024-0.187,4.319,6.955,1.748,2.078c-0.546-1.036-1.313-2.027-1.9-3.034c-0.656-1.124-1.201-2.292-1.841-3.42
			c-2.658-4.68,1.116,1.669,0.91,2.295c0.402-1.224-2.135-7.42-2.546-8.958c-1.336-4.991,0.427,2.148,0.275,2.867
			c0.274-1.301-0.289-3.289-0.347-4.659c-0.121-2.842-0.08-5.686,0.099-8.524c0.081-1.284,0.229-2.56,0.326-3.841
			c0.302-3.97,1.524,0.012-0.347,2.559c1.45-1.975,1.37-7.262,1.977-9.813c2.844-11.95,7.029-23.538,11.314-35.032
			c9.118-24.455,19.017-48.931,20.01-75.388c1.138-30.323-13.958-59.287-39.866-75.245c-25.589-15.762-56.622-13.292-84.763-7.626
			c-12.553,2.527-24.916,5.899-37.365,8.872c-6.431,1.536-12.884,2.988-19.391,4.168c-1.422,0.258-2.854,0.469-4.274,0.735
			c-4.873,0.913,1.771,0.204,2.002-0.204c-0.646,1.139-8.82,0.867-10.479,0.951c-2.738,0.14-5.481,0.194-8.222,0.129
			c-1.542-0.037-11.421-0.585-5.833-0.246c5.397,0.328-3.219-0.81-4.555-1.165c-1.594-0.424-3.139-0.989-4.723-1.44
			c-5.275-1.502,3.961,2.648,1.097,0.514c-1.09-0.812-7.937-3.162-8.189-4.754c-0.013-0.085,5.718,5.251,1.298,0.947
			c-1.008-0.982-2.061-1.888-3.046-2.901c0.164,0.168-2.87-2.879-2.781-3.088c0.229-0.535,3.674,5.716,1.24,1.418
			c-0.834-1.473-1.738-2.969-2.629-4.409c-3.584-5.79-0.001,0.981,0.12,0.989c-0.836-0.055-2.706-8.38-2.85-8.965
			c-0.335-1.361-0.464-2.829-0.9-4.152c-1.398-4.25,0.465,8.023,0.071,0.903c-0.163-2.938-0.406-5.85-0.406-8.796
			c0-2.419-0.872-9.202,0.62-11.247c-0.209,0.288-1.383,7.752-0.182,1.559c0.293-1.516,0.542-3.037,0.855-4.548
			c0.711-3.428,1.573-6.825,2.565-10.182c0.89-3.012,1.944-5.945,2.975-8.909c0.634-1.821,3.046-6.736-0.07-0.089
			c0.829-1.768,1.629-3.546,2.5-5.295c2.931-5.892,6.386-11.373,10.041-16.83c2.959-4.42,0.106-0.242-0.524,0.55
			c1.158-1.455,2.328-2.9,3.517-4.33c2.979-3.583,6.065-7.079,9.217-10.511c11.413-12.427,23.707-23.997,35.608-35.946
			c25.124-25.225,48.271-53.148,59.214-87.604c21.886-68.909-9.601-153.36-75.83-185.434
			c-36.464-17.659-75.257-18.358-111.913-1.161c-27.252,12.785-49.18,35.08-71.732,54.485c-2.751,2.367-5.521,4.71-8.333,7.006
			c-1.243,1.014-2.506,2.002-3.75,3.014c0.788-0.641,5.297-3.895,0.679-0.555c-5.747,4.156-11.564,8.171-17.766,11.63
			c-1.359,0.758-2.734,1.495-4.121,2.202c-0.333,0.169-7.114,3.745-2.573,1.377c3.854-2.009-0.54,0.224-1.643,0.604
			c-1.848,0.637-3.677,1.304-5.55,1.868c-3.165,0.953-6.365,1.671-9.601,2.327c-5.93,1.202-0.37-0.075,0.752-0.1
			c-2.557,0.056-5.082,0.333-7.646,0.336c-3.407,0.004-6.781-0.292-10.171-0.579c7.833,0.663-3.276-0.922-5.419-1.489
			c-3.328-0.881-6.493-2.145-9.779-3.128c-4.7-1.406,6.382,3.428-0.785-0.35c-1.909-1.006-3.861-1.919-5.753-2.961
			c-3.428-1.889-6.653-4.023-9.922-6.162c-1.137-0.744-4.542-3.677,0.13,0.242c-1.332-1.118-2.675-2.207-3.979-3.361
			c-2.599-2.301-5.094-4.724-7.467-7.258c-1.482-1.583-2.822-3.3-4.298-4.882c-2.468-2.646,2.611,4.046-0.59-0.854
			c-2.135-3.27-4.25-6.498-6.107-9.941c-0.913-1.693-1.655-3.493-2.604-5.16c-2.611-4.591,1.994,6.455-0.861-2.076
			c-1.258-3.759-2.542-7.481-3.542-11.321c-0.497-1.911-0.952-3.84-1.356-5.774c-0.118-0.562-1.593-10.019-0.781-3.346
			c-1.021-8.387-1.15-16.906-0.606-25.331c0.129-1.995,0.388-3.984,0.508-5.977c0.306-5.08-1.002,4.419,0.084-0.559
			c1.072-4.917,1.875-9.841,3.173-14.713c1.164-4.369,2.511-8.686,4.04-12.94c0.678-1.887,1.389-3.771,2.147-5.625
			c-0.527,1.289-2.277,4.794,0.435-0.736c3.917-7.987,8.322-15.676,12.756-23.386c9.406-16.354,19.045-33.8,21.9-52.679
			c3.533-23.359-1.386-44.688-13.254-65.076c-9.933-17.062-21.839-33.133-32.858-49.504
			c-23.278-34.583-46.805-69.014-69.823-103.771c-4.979-7.518-9.835-15.144-13.979-23.161c-0.966-1.869-1.909-3.763-2.786-5.677
			c1.943,4.242-0.199-0.473-0.446-1.204c-1.588-4.701-3.02-9.362-3.988-14.234c-0.288-1.449-0.5-2.905-0.771-4.356
			c-1.368-7.314,0.317,5.349,0.085,0.521c-0.166-3.456-0.677-6.938-0.935-10.391c-0.524-7.014-0.869-14.04-1.423-21.051
			c-2.498-31.631-9.82-66.979-41.132-82.592c-20.992-10.468-41.075-6.93-63.373-6.958c-2.038-0.003-4.117-0.032-6.142-0.237
			c4.891,0.496,1.48,0.196,0.439-0.17c-1.083-0.38-2.458-0.76-3.604-1.036c-5.954-1.432,4.746,3.046,1.695,0.799
			c-1.572-1.157-4.215-2.688-5.987-3.516c-3.377-1.578,5.554,5.546,1.675,1.204c-0.947-1.06-2.087-1.973-3.067-3.009
			c-0.353-0.373-2.643-3.318-2.86-3.262c0.524-0.134,4.452,6.695,1.759,2.133c-1.227-2.079-2.636-4.042-3.83-6.147
			c-1.23-2.169-2.37-4.39-3.447-6.638c-0.69-1.44-1.278-2.939-1.99-4.367c-1.724-3.457,2.511,6.545,0.556,1.183
			c-4.24-11.632-8.052-23.382-12.033-35.104c-8.663-25.508-19.497-52.588-40.72-70.382c-20.589-17.263-45.754-25.654-72.642-24.808
			c-47.857,1.506-91.17,24.209-136.628,36.366c-5.354,1.432-10.752,2.719-16.198,3.754c-1.423,0.271-5.701,1.782-7.035,1.191
			c1.126,0.5,7.562-0.714,3.175-0.458c-1.708,0.1-3.417,0.342-5.127,0.457c-4.73,0.317-9.365,0.15-14.091,0.005
			c-7.21-0.221,7.39,1.629,0.419,0.135c-2.584-0.554-5.143-1.057-7.679-1.817c-1.254-0.376-2.477-0.864-3.729-1.237
			c-3.258-0.97-0.09-1.97,3.154,1.376c-1.212-1.25-4.087-2.031-5.644-2.952c-1.512-0.895-3.793-3.262-5.423-3.617
			c4.642,1.011,4.883,4.297,1.823,1.18c-1.014-1.032-2.127-1.972-3.142-3.009c-0.493-0.503-5.003-5.134-1.9-1.811
			c2.8,2.999-0.496-0.701-1.099-1.663c-1.93-3.079-3.577-6.198-5.296-9.396c-0.809-1.504-1.795-5.354,0.294,0.873
			c-0.516-1.537-1.154-3.043-1.687-4.575c-1.351-3.888-2.51-7.841-3.579-11.815c-8.539-31.759-13.033-63.77-35.709-89.386
			c-20.34-22.977-51.046-31.667-80.732-32.637c-26.056-0.852-51.895,4.148-77.802,6.039c-6.099,0.445-12.214,0.741-18.332,0.724
			c-2.795-0.008-5.587-0.073-8.378-0.222c-1.714-0.092-3.423-0.274-5.136-0.366c-5.848-0.311,5.175,1.162,1.338,0.265
			c-5.487-1.283-10.824-2.38-16.234-4.009c-5.19-1.563,1.842,0.418,2.132,1.003c-0.17-0.343-2.886-1.38-3.486-1.693
			c-0.642-0.335-8.064-5.301-8.303-5.159c1.431-0.851,5.276,4.924,0.945,0.458c-1.046-1.078-2.176-2.076-3.213-3.167
			c-0.574-0.604-4.343-5.167-2.104-2.237c2.675,3.5-2.559-4.052-2.387-3.777c-4.551-7.309-8.105-15.179-11.739-22.966
			c-7.556-16.195-16.314-31.314-28.873-44.244c-23.769-24.47-57.117-38.974-90.276-45.128
			c-73.123-13.573-149.937,1.205-216.98,31.687c-33.229,15.108-63.605,35.42-91.31,59.124c-12.566,10.751-11.872,33.65,0,44.548
			C5957.733,6524.634,5975.498,6523.82,5988.901,6512.352L5988.901,6512.352z"/>
	</g>
</g>
<g>
	<g>
		<path style="fill:#2D5D26;" d="M7779.637,6820.191c16.223-40.147,8.097-90.784-16.841-125.688
			c-13.174-18.438-29.87-34.631-50.696-44.169c-19.118-8.755-38.795-13.779-59.377-17.64c-20.201-3.789-40.837-6.906-59.912-14.895
			c2.508,1.059,5.016,2.117,7.524,3.175c-6.853-2.957-13.337-6.55-19.281-11.079c2.125,1.642,4.25,3.284,6.375,4.925
			c-4.698-3.7-8.865-7.869-12.537-12.59c1.642,2.125,3.284,4.25,4.925,6.375c-3.493-4.662-6.36-9.635-8.661-14.987
			c1.058,2.508,2.117,5.017,3.175,7.525c-2.811-6.859-4.58-13.988-5.638-21.316c0.375,2.792,0.75,5.583,1.125,8.374
			c-3.188-24.041,0.794-48.253,2.214-72.272c1.62-27.398-0.603-57.143-16.052-80.747c-10.296-15.731-24.051-26.333-38.719-37.648
			c2.125,1.642,4.25,3.284,6.375,4.925c-7.762-5.999-15.499-12.106-21.611-19.852c1.642,2.125,3.284,4.25,4.925,6.375
			c-2.518-3.34-4.621-6.854-6.275-10.7c1.059,2.508,2.117,5.017,3.176,7.525c-1.275-3.231-2.143-6.472-2.686-9.904
			c0.375,2.792,0.75,5.583,1.125,8.374c-0.497-4.112-0.472-8.141-0.007-12.255c-0.375,2.792-0.75,5.583-1.125,8.374
			c0.824-5.756,2.439-11.22,4.667-16.585c-1.059,2.508-2.117,5.017-3.175,7.525c2.944-6.685,6.679-12.86,11.08-18.685
			c-1.642,2.125-3.284,4.25-4.925,6.375c5.782-7.452,12.424-14.075,19.832-19.909c-2.125,1.642-4.25,3.284-6.375,4.925
			c8.194-6.301,17.082-11.491,26.561-15.609c-2.508,1.059-5.017,2.117-7.525,3.175c10.373-4.374,21.188-7.367,32.335-8.938
			c-2.792,0.375-5.583,0.75-8.374,1.125c10.689-1.387,21.426-1.431,32.114-0.015c-2.792-0.375-5.583-0.75-8.374-1.125
			c9.666,1.397,18.958,4.004,27.975,7.747c-2.508-1.058-5.017-2.117-7.525-3.175c15.697,6.737,30.049,16.124,45.576,23.206
			c17.375,7.925,35.372,13.922,54.768,13.013c19.876-0.933,38.94-7.267,53.666-21.021c14.907-13.923,22.143-35.542,20.702-55.655
			c-1.391-19.411-8.214-37.503-10.98-56.626c0.375,2.792,0.75,5.583,1.125,8.374c-0.737-5.701-0.975-11.36-0.348-17.084
			c-0.375,2.792-0.75,5.583-1.125,8.374c0.689-5.12,2.051-10.009,4.044-14.774c-1.059,2.508-2.117,5.017-3.176,7.525
			c2.508-5.704,5.784-10.946,9.535-15.91c-1.642,2.125-3.284,4.25-4.926,6.375c18.309-23.688,44.487-40.289,59.348-66.878
			c8.577-15.346,13.511-33.58,11.6-51.214c-1.942-17.922-7.996-34.389-17.601-49.674c-9.682-15.407-21.636-29.301-32.761-43.663
			c1.642,2.125,3.283,4.25,4.925,6.375c-9.049-11.733-17.756-23.875-23.625-37.559c1.059,2.508,2.117,5.017,3.175,7.525
			c-2.6-6.269-4.512-12.723-5.504-19.443c0.375,2.791,0.75,5.583,1.125,8.374c-0.767-5.872-0.834-11.722-0.147-17.604
			c-0.375,2.792-0.75,5.583-1.125,8.374c0.808-5.988,2.382-11.745,4.696-17.325c-1.059,2.508-2.117,5.017-3.175,7.525
			c2.559-5.896,5.843-11.362,9.716-16.486c-1.642,2.125-3.284,4.25-4.926,6.375c5.604-7.214,12.182-13.498,19.375-19.11
			c-2.125,1.642-4.25,3.283-6.375,4.925c11.498-8.798,24.227-15.737,37.527-21.401c-2.508,1.059-5.017,2.117-7.525,3.176
			c15.832-6.626,32.357-11.436,49.245-14.475c7.366-1.325,15.179-8.246,18.826-14.476c3.951-6.752,5.625-16.703,3.175-24.272
			c-2.466-7.622-7.19-14.976-14.476-18.826c-7.872-4.159-15.519-4.75-24.272-3.175c-21.384,3.847-41.775,10.784-61.547,19.738
			c-18.597,8.421-36.495,19.994-50.853,34.585c-14.871,15.112-26.867,34.699-30.083,55.907c-2.11,13.911-2.007,26.613,1.075,40.464
			c2.295,10.317,6.678,20.344,11.594,29.654c10.298,19.5,25.238,36.268,38.668,53.613c-1.642-2.125-3.284-4.25-4.925-6.375
			c8.518,11.051,16.786,22.48,22.262,35.393c-1.058-2.508-2.117-5.017-3.175-7.525c2.274,5.561,3.943,11.281,4.775,17.237
			c-0.375-2.792-0.75-5.583-1.125-8.374c0.607,5.011,0.59,9.979-0.059,14.986c0.375-2.792,0.75-5.583,1.125-8.374
			c-0.72,4.808-1.99,9.424-3.81,13.931c1.059-2.508,2.117-5.017,3.176-7.524c-2.615,6.154-6.105,11.787-10.135,17.109
			c1.642-2.125,3.284-4.25,4.925-6.375c-12.826,16.567-29.778,29.243-43.402,45.083c-9.753,11.34-17.096,22.625-22.507,36.541
			c-5.993,15.413-5.36,31.787-2.975,47.822c2.181,14.667,7.332,28.708,9.332,43.409c-0.375-2.792-0.75-5.583-1.125-8.374
			c0.595,4.977,0.769,9.903,0.206,14.892c0.375-2.792,0.75-5.583,1.125-8.374c-0.514,3.583-1.398,6.984-2.743,10.346
			c1.059-2.508,2.117-5.017,3.175-7.525c-1.243,2.803-2.702,5.373-4.515,7.844c1.642-2.125,3.284-4.25,4.925-6.375
			c-1.988,2.523-4.202,4.727-6.719,6.723c2.125-1.642,4.25-3.284,6.375-4.925c-2.903,2.157-5.989,3.902-9.303,5.344
			c2.508-1.058,5.017-2.117,7.525-3.175c-4.624,1.871-9.384,3.053-14.323,3.722c2.792-0.375,5.583-0.75,8.374-1.125
			c-5.954,0.685-11.874,0.606-17.819-0.136c2.792,0.375,5.583,0.75,8.374,1.125c-7.503-1.069-14.583-3.303-21.586-6.17
			c2.508,1.059,5.017,2.117,7.524,3.175c-24.549-10.403-46.379-26.556-72.452-33.468c-24.507-6.497-50.666-6.176-75.214-0.095
			c-51.176,12.678-100.964,55.423-104.69,110.646c-1.317,19.515,6.604,37.208,18.494,52.062c8.38,10.469,19.54,18.26,30.07,26.384
			c-2.125-1.642-4.25-3.284-6.375-4.926c7.91,6.113,15.756,12.346,22.055,20.175c-1.642-2.125-3.284-4.25-4.925-6.375
			c3.524,4.565,6.406,9.459,8.716,14.743c-1.059-2.508-2.117-5.017-3.176-7.525c2.809,6.745,4.567,13.766,5.617,20.986
			c-0.375-2.792-0.75-5.583-1.125-8.374c5.678,42.55-9.94,85.395,2.396,127.582c7.344,25.115,23.78,46.294,46.232,59.711
			c18.589,11.108,40.04,16.51,61.098,20.566c22.343,4.304,45.16,7.527,66.319,16.292c-2.508-1.059-5.017-2.117-7.525-3.175
			c7.803,3.325,15.102,7.431,21.872,12.55c-2.125-1.642-4.25-3.284-6.375-4.925c7.025,5.458,13.244,11.751,18.704,18.771
			c-1.642-2.125-3.284-4.25-4.926-6.375c5.659,7.456,10.333,15.515,14.052,24.102c-1.058-2.508-2.117-5.016-3.175-7.524
			c3.957,9.425,6.671,19.241,8.073,29.368c-0.375-2.791-0.75-5.583-1.125-8.374c1.171,9.252,1.215,18.532,0.016,27.784
			c0.375-2.792,0.75-5.583,1.125-8.374c-1.14,7.988-3.186,15.736-6.21,23.219c-2.858,7.073-0.5,17.991,3.176,24.272
			c3.824,6.534,11.315,12.766,18.825,14.476c8.063,1.837,17.115,1.439,24.272-3.175
			C7772.492,6834.291,7776.391,6828.226,7779.637,6820.191L7779.637,6820.191z"/>
	</g>
</g>
</svg>
