<?xml version="1.0" encoding="utf-8"?>
<!-- Generator: Adobe Illustrator 25.3.1, SVG Export Plug-In . SVG Version: 6.00 Build 0)  -->
<svg version="1.1" id="Layer_1" xmlns="http://www.w3.org/2000/svg" xmlns:xlink="http://www.w3.org/1999/xlink" x="0px" y="0px"
	 viewBox="0 0 1664.1 1786.2" style="enable-background:new 0 0 1664.1 1786.2;" xml:space="preserve">
<style type="text/css">
	.st0{fill:#387531;}
	.st1{fill:#5B8E3F;}
	.st2{fill:#93B353;}
	.st3{fill:#2D5D26;}
</style>
<g>
	<path class="st0" d="M110.3,518.7c-9.8,14-36.6,19.5-50.5,30.7c-17.4,13.9-31.5,31.8-41.7,51.6C-2.2,640.5-7,688.9,11.7,729.9
		c16,35.1,45.8,65.1,49.4,103.5c2.9,30.7-11.7,59.9-20.7,89.4c-8.9,29.5-10.4,66.1,12.6,86.6c22.1,19.6,59.5,17.5,77,41.3
		c21.8,29.6-3.1,78.1,21.3,105.6c22.6,25.4,68.4,11.2,94.4,33.1c40.1,33.7-8.2,103.5,15.1,150.4c17.1,34.5,63.7,39.9,102.2,37
		c38.4-3,82-8.1,110.9,17.4c32.2,28.5,40.5,90.2,83.5,91.7c22.7,0.8,43.2-18.4,65.8-15.6c45.5,5.7,44.3,85.7,88.5,97.8
		c42,11.5,84.5-50.7,122-28.5c15.6,9.2,23.9,31.4,42,32.8c22.2,1.7,42.3-30.5,60.9-18.2c10,6.6,9.5,21.1,14.7,31.9
		c8.8,18.4,33.2,23.2,53.4,20c20.1-3.2,39.4-12,59.8-11.9c32.9,0.2,67.4,23.4,96.3,7.7c23.2-12.6,30.6-45.3,54.8-55.7
		c22.4-9.7,50.3,4.1,72.1-7.1c20.2-10.3,25.7-36.9,42.6-52c20.1-17.9,51.3-15.8,74.6-29.4c63.3-37.2,20.9-147,71-200.6
		c16.8-18,44.3-30.1,47.3-54.6c2.4-18.8-11.4-35.3-20-52.2c-18.2-36-12.3-82.7,14.4-113c18.3-20.8,45.3-34.5,57.2-59.5
		c20-42.2-11.6-98.3,14.9-136.9c15.1-22.1,46-31.8,55.4-56.8c5.2-14,2.3-29.5-0.7-44.2c-7.1-35.2-14.3-70.4-21.4-105.6
		c-3.1-15.1-6.1-31.1-1.3-45.8c4.1-12.4,13.2-22.3,20.6-33c33.8-49.2,27.8-121.9-13.7-164.7c-17.8-18.4-41.6-32.4-51.4-56.1
		c-6.6-16-5.7-34-5-51.3c1.5-41.6,0.3-84.1-13.7-123.3c-14-39.2-42.7-74.9-82-88.6c-32.9-11.4-73.3-8.4-97.1-33.8
		c-9.2-9.9-14.8-23.2-25.8-31c-26.2-18.7-61.7,4.7-82.9,28.9c-21.2,24.2-47.4,53.5-78.9,46.8c-12.9-2.8-23.7-11.5-34.4-19.2
		c-28.9-20.9-61.4-36.7-95.6-46.5c-12.3-3.5-25.5-6.3-37.7-2.6c-32.4,9.8-39.7,57.1-71.1,69.7c-23.6,9.5-49.8-4.6-75.2-3.9
		c-32.4,0.8-60.8,25.6-93.3,25.5c-22.1-0.1-42.4-11.8-64.2-15.2c-21.8-3.4-49.7,7.5-50.5,29.5c-0.4,11.9,7.3,22.4,12.4,33.2
		c23.4,50.3-27.1,117.1-81.8,108.3c-17.7-2.8-34.5-11.8-52.4-10.6c-7.9,0.5-15.7,3.1-23.6,2.1c-13.3-1.6-23.1-12.6-33.7-20.9
		c-48.4-38.2-118.3-23.1-177.6-6c-42.5,12.2-90.2,28.9-107.4,69.6c-10.8,25.8-6.7,56.4-19.6,81.2c-8,15.4-21.7,27.4-35.4,37.6
		c-24.8,18.4-71.6,60-42.1,94.1"/>
</g>
<g>
	<g>
		<path class="st1" d="M187.9,963.8c25.4,0.2,50.8,1.6,76.1,4.3c7.1,0.8,14.2,1.6,21.3,2.6c-1.9-0.3-3.8-0.5-5.7-0.8
			c23.5,3.2,46.9,7.4,70,12.7c6.5,1.5,12.9,3.1,19.4,4.7c7.4,1.9,15.3,0,20.8-5.5c5.4-5.4,7.5-13.4,5.5-20.8
			c-5.8-20.6-10.3-41.5-13.7-62.5c-1-5.9-1.8-11.9-2.6-17.8c0.3,1.9,0.5,3.8,0.8,5.7c-3.2-23.7-5.2-47.5-6.4-71.4
			c-1.3-23.9-1.8-47.8-2.1-71.7c-0.2-13.5-0.2-27-0.3-40.5c0-5.5-2.4-11.2-6.2-15.1c-1.9-2.1-4.2-3.6-6.9-4.4
			c-2.5-1.3-5.3-1.9-8.2-1.8c-5.5,0.2-11.2,2.1-15.1,6.2c-3.8,4.2-6.3,9.3-6.2,15.1c0.1,17.3,0.2,34.7,0.4,52
			c0.3,17.4,0.7,34.7,1.5,52.1c0.8,17.4,2,34.8,3.7,52.1c1.9,18.9,4.3,37.8,7.5,56.5c2.9,17,6.5,33.9,11,50.6
			c0.6,2.1,1.1,4.2,1.7,6.3c8.7-8.7,17.5-17.5,26.2-26.2c-23.9-6.1-48-11.1-72.4-15c-26.1-4.1-52.3-7.1-78.6-8.7
			c-13.8-0.8-27.6-1.3-41.4-1.4c-5.4,0-11.2,2.4-15.1,6.2c-2.1,1.9-3.6,4.2-4.4,6.9c-1.3,2.5-1.9,5.3-1.8,8.2
			c0.2,5.5,2.1,11.2,6.2,15.1C177,961.4,182.1,963.7,187.9,963.8L187.9,963.8z"/>
	</g>
</g>
<g>
	<g>
		<path class="st1" d="M314.4,1117.7c27.3-0.8,54.6-1.4,81.9-1.7c27.3-0.3,54.6-0.3,81.9-0.1c15.4,0.1,30.9,0.3,46.3,0.6
			c2.9,0.1,5.7-0.5,8.2-1.8c2.6-0.9,4.9-2.3,6.9-4.4c3.8-4.1,6.5-9.4,6.2-15.1c-0.8-22.2-0.9-44.5-0.2-66.7
			c0.7-22.1,2.1-44.1,4.2-66.1c1.2-12.5,2.6-25,4.3-37.4c-0.3,1.9-0.5,3.8-0.8,5.7c2.6-19.1,5.7-38,9.3-56.9
			c1-5.3,2.1-10.6,3.2-15.9c0.9-2.8,1-5.7,0.4-8.5c-0.1-2.8-1-5.5-2.5-7.9c-1.3-2.5-3.2-4.5-5.5-6c-2.1-1.9-4.5-3.2-7.3-3.8
			c-5.5-1.2-11.6-1-16.4,2.2c-4.5,2.9-8.7,7.3-9.8,12.7c-3.3,15.6-6.2,31.3-8.7,47.1c-2.8,17.4-5.2,34.9-7.1,52.4
			c-1.8,15.9-3.2,31.8-4.2,47.7c-1,15.9-1.7,31.7-2,47.6c-0.3,16-0.2,31.9,0.3,47.9c0.1,2,0.1,4,0.2,6c7.1-7.1,14.2-14.2,21.3-21.3
			c-27.3-0.5-54.6-0.8-81.9-0.8c-27.3,0-54.6,0.3-81.9,0.8c-15.4,0.3-30.9,0.7-46.3,1.2c-5.6,0.2-11.1,2.3-15.1,6.2
			c-2.1,1.9-3.6,4.2-4.4,6.9c-1.3,2.5-1.9,5.3-1.8,8.2c0.2,5.5,2.1,11.2,6.2,15.1C303.4,1115.2,308.7,1117.9,314.4,1117.7
			L314.4,1117.7z"/>
	</g>
</g>
<g>
	<g>
		<path class="st1" d="M422.5,1260.7c34.6-1.9,69.3-3.7,103.9-5.6c34.5-1.8,68.9-3.7,103.4-5.5c19.4-1,38.9-2.1,58.3-3.1
			c5.4-0.3,11.3-2.1,15.1-6.2c3.7-4.1,6.5-9.4,6.2-15.1c-1.3-30.5-2.1-61.1-2.6-91.7c-0.5-30.6-0.6-61.1-0.4-91.7
			c0.1-17.1,0.4-34.3,0.8-51.4c0.1-2.9-0.5-5.7-1.8-8.2c-0.9-2.6-2.3-4.9-4.4-6.9c-1.9-2.1-4.2-3.6-6.9-4.4
			c-2.5-1.3-5.3-1.9-8.2-1.8c-5.5,0.2-11.2,2.1-15.1,6.2c-3.9,4.2-6.1,9.3-6.2,15.1c-0.7,30.6-1,61.1-0.9,91.7
			c0.1,30.6,0.5,61.1,1.4,91.7c0.5,17.1,1.1,34.3,1.8,51.4c7.1-7.1,14.2-14.2,21.3-21.3c-34.6,1.9-69.3,3.7-103.9,5.6
			c-34.5,1.8-68.9,3.7-103.4,5.5c-19.4,1-38.9,2.1-58.3,3.1c-2.9-0.1-5.7,0.5-8.2,1.8c-2.6,0.9-4.9,2.3-6.9,4.4
			c-2.1,1.9-3.6,4.2-4.4,6.9c-1.3,2.5-1.9,5.3-1.8,8.2c0.2,5.5,2.1,11.2,6.2,15.1C411.5,1258.1,416.9,1261,422.5,1260.7
			L422.5,1260.7z"/>
	</g>
</g>
<g>
	<g>
		<path class="st1" d="M554.7,490.3c-0.1-0.4-0.1-0.8-0.2-1.2c0.3,1.9,0.5,3.8,0.8,5.7c-0.6-4.5-0.5-9,0.1-13.5
			c-0.3,1.9-0.5,3.8-0.8,5.7c1.3-9.4,4.6-18.4,7.9-27.3c3.4-9.3,6.8-18.6,10.3-27.9c6.8-18.5,13.6-37.1,20.4-55.6
			c3.9-10.5,7.7-21,11.6-31.5c0.9-2.8,1-5.7,0.4-8.5c-0.1-2.8-1-5.5-2.5-7.9c-1.3-2.5-3.2-4.5-5.5-6c-2.1-1.9-4.5-3.2-7.3-3.8
			c-1.9-0.3-3.8-0.5-5.7-0.8c-3.9,0-7.4,1-10.8,2.9c-1.4,1.1-2.9,2.2-4.3,3.3c-2.6,2.7-4.5,5.8-5.5,9.4
			c-3.8,10.3-7.6,20.6-11.4,30.9c-3.8,10.3-7.6,20.6-11.4,30.9c-3.8,10.3-7.6,20.6-11.4,30.9c-3.7,10.2-7.6,20.3-11.2,30.6
			c-1.7,5-3.2,10-4.2,15.1c-0.2,1.3-0.5,2.5-0.6,3.8c-0.4,3-0.9,6.1-1.1,9.2c-0.2,2.6-0.2,5.2,0,7.8c0.2,3.1,0.7,6.1,1.2,9.2
			c0.7,2.8,1.9,5.2,3.8,7.3c1.5,2.3,3.5,4.2,6,5.5c2.4,1.6,5.1,2.4,7.9,2.5c2.8,0.6,5.7,0.5,8.5-0.4c1.7-0.7,3.4-1.4,5.1-2.2
			c3.2-1.9,5.8-4.4,7.7-7.7c0.7-1.7,1.4-3.4,2.2-5.1C555.7,497.8,555.7,494,554.7,490.3L554.7,490.3z"/>
	</g>
</g>
<g>
	<g>
		<path class="st1" d="M688.2,424.1c-2.8,18.7-6.5,37.3-11.2,55.6c-4.6,18.3-10.1,36.3-16.5,54c-3.6,9.9-7.4,19.8-11.5,29.5
			c0.7-1.7,1.4-3.4,2.2-5.1c-3.1,7.3-6.4,14.6-9.8,21.8c-1.6,2.4-2.4,5.1-2.5,7.9c-0.6,2.8-0.5,5.7,0.4,8.5c0.7,2.8,1.9,5.2,3.8,7.3
			c1.5,2.3,3.5,4.2,6,5.5c1.7,0.7,3.4,1.4,5.1,2.2c3.8,1,7.6,1,11.3,0c1.7-0.7,3.4-1.4,5.1-2.2c3.2-1.9,5.8-4.4,7.7-7.7
			c5.4-11.5,10.5-23.2,15.3-35.1c4.1-10.2,8-20.5,11.5-31c3.5-10.4,6.8-20.9,9.7-31.6c2.9-10.6,5.6-21.3,7.9-32.1
			c2.3-10.7,4.3-21.5,6-32.3c0.2-1.4,0.4-2.8,0.6-4.1c0.9-2.8,1-5.7,0.4-8.5c-0.1-2.8-1-5.5-2.5-7.9c-1.3-2.5-3.2-4.5-5.5-6
			c-2.1-1.9-4.5-3.2-7.3-3.8c-1.9-0.3-3.8-0.5-5.7-0.8c-3.9,0-7.4,1-10.8,2.9c-1.4,1.1-2.9,2.2-4.3,3.3
			C691,417.3,689.2,420.5,688.2,424.1L688.2,424.1z"/>
	</g>
</g>
<g>
	<g>
		<path class="st1" d="M815.6,623.8c-0.6,6.8-1.4,13.6-2.3,20.3c0.3-1.9,0.5-3.8,0.8-5.7c-0.9,6.9-2,13.8-3.2,20.6
			c-1.3,7.5-2.8,14.9-4.5,22.3c-1.8,8-3.9,16-6.2,24c-2.5,8.6-5.1,17.1-8.1,25.5c-3.2,9.1-6.6,18.1-10.3,27c-0.5,1.2-1,2.3-1.4,3.5
			c0.7-1.7,1.4-3.4,2.2-5.1c-1.8,4.2-3.6,8.4-5.5,12.6c-1.6,2.4-2.4,5.1-2.5,7.9c-0.6,2.8-0.5,5.7,0.4,8.5c0.7,2.8,1.9,5.2,3.8,7.3
			c1.5,2.3,3.5,4.2,6,5.5c1.7,0.7,3.4,1.4,5.1,2.2c3.8,1,7.6,1,11.3,0c1.7-0.7,3.4-1.4,5.1-2.2c3.2-1.9,5.8-4.4,7.7-7.7
			c6.1-13.4,11.7-27,16.8-40.8c4-11,7.7-22.2,10.9-33.5c2.9-10.2,5.4-20.5,7.6-30.9c2-9.3,3.7-18.7,5.1-28.1
			c1.5-10.2,2.8-20.3,3.9-30.6c0.1-0.9,0.2-1.9,0.3-2.8c0.1-2.9-0.5-5.7-1.8-8.2c-0.9-2.6-2.3-4.9-4.4-6.9c-1.9-2.1-4.2-3.6-6.9-4.4
			c-2.5-1.3-5.3-1.9-8.2-1.8c-1.9,0.3-3.8,0.5-5.7,0.8c-3.6,1-6.8,2.8-9.4,5.5c-1.1,1.4-2.2,2.9-3.3,4.3
			C816.6,616.4,815.7,619.9,815.6,623.8L815.6,623.8z"/>
	</g>
</g>
<g>
	<g>
		<path class="st1" d="M924.9,751.2c-3.3,14.3-6.8,28.6-10.6,42.8c-3.7,14.2-7.7,28.2-11.9,42.3c-4.2,14.1-8.6,28.1-13.3,42.1
			c-4.7,13.9-9.5,27.8-14.6,41.6c-5.1,13.7-10.4,27.4-15.9,40.9c-0.7,1.7-1.4,3.4-2.1,5.1c-0.9,2.8-1,5.7-0.4,8.5
			c0.1,2.8,1,5.5,2.5,7.9c1.3,2.5,3.2,4.5,5.5,6c2.1,1.9,4.5,3.2,7.3,3.8c1.9,0.3,3.8,0.5,5.7,0.8c3.9,0,7.4-1,10.8-2.9
			c1.4-1.1,2.9-2.2,4.3-3.3c2.6-2.7,4.5-5.8,5.5-9.4c5.6-13.6,11-27.3,16.1-41.1c5.1-13.7,10-27.5,14.7-41.4
			c4.7-13.9,9.2-27.9,13.5-42c4.3-14.1,8.3-28.2,12.1-42.4c3.8-14.1,7.4-28.3,10.7-42.6c0.4-1.8,0.8-3.6,1.3-5.4
			c0.9-2.8,1-5.7,0.4-8.5c-0.1-2.8-1-5.5-2.5-7.9c-1.3-2.5-3.2-4.5-5.5-6c-2.1-1.9-4.5-3.2-7.3-3.8c-1.9-0.3-3.8-0.5-5.7-0.8
			c-3.9,0-7.4,1-10.8,2.9c-1.4,1.1-2.9,2.2-4.3,3.3C927.7,744.4,925.9,747.6,924.9,751.2L924.9,751.2z"/>
	</g>
</g>
<g>
	<g>
		<path class="st1" d="M890.7,291c5.1,1.9,10.1,3.9,15.1,6c-1.7-0.7-3.4-1.4-5.1-2.2c12.1,5.1,23.9,10.8,35.4,17.1
			c11.5,6.3,22.6,13.1,33.4,20.5c6.1,4.2,12,8.5,17.9,13c-1.4-1.1-2.9-2.2-4.3-3.3c4.5,3.5,8.9,7,13.2,10.7c1.9,2.1,4.2,3.6,6.9,4.4
			c2.5,1.3,5.3,1.9,8.2,1.8c2.9,0.1,5.7-0.5,8.2-1.8c2.6-0.9,4.9-2.3,6.9-4.4c1.1-1.4,2.2-2.9,3.3-4.3c1.9-3.3,2.9-6.9,2.9-10.8
			c-0.3-1.9-0.5-3.8-0.8-5.7c-1-3.6-2.8-6.8-5.5-9.4c-8-6.8-16.3-13.2-24.7-19.4c-7-5.2-14.3-10.1-21.6-14.8
			c-7.4-4.7-14.9-9.1-22.6-13.3c-7.7-4.2-15.5-8.1-23.4-11.8c-9.5-4.4-19.2-8.5-29-12.2c-1-0.4-2-0.8-3-1.1c-2.8-0.9-5.7-1-8.5-0.4
			c-2.8,0.1-5.5,1-7.9,2.5c-2.5,1.3-4.5,3.2-6,5.5c-1.9,2.1-3.2,4.5-3.8,7.3c-0.3,1.9-0.5,3.8-0.8,5.7c0,3.9,1,7.4,2.9,10.8
			c1.1,1.4,2.2,2.9,3.3,4.3C884,288.2,887.1,290,890.7,291L890.7,291z"/>
	</g>
</g>
<g>
	<g>
		<path class="st1" d="M1045.4,353.3c12.2-10.8,24.7-21.3,37.5-31.5c3.6-2.8,7.2-5.7,10.8-8.5c-1.4,1.1-2.9,2.2-4.3,3.3
			c9.4-7.2,18.9-14.3,28.5-21.2c2.7-1.9,5.4-3.8,8.1-5.7c2.5-1.3,4.5-3.2,6-5.5c1.9-2.1,3.2-4.5,3.8-7.3c0.9-2.8,1-5.7,0.4-8.5
			c-0.1-2.8-1-5.5-2.5-7.9c-1.1-1.4-2.2-2.9-3.3-4.3c-2.7-2.6-5.8-4.5-9.4-5.5c-1.9-0.3-3.8-0.5-5.7-0.8c-3.9,0-7.4,1-10.8,2.9
			c-11.6,8.1-23,16.4-34.2,25c-12.5,9.6-24.9,19.4-37,29.6c-6.1,5.1-12.1,10.3-18,15.6c-2.1,1.9-3.6,4.2-4.4,6.9
			c-1.3,2.5-1.9,5.3-1.8,8.2c-0.1,2.9,0.5,5.7,1.8,8.2c0.9,2.6,2.3,4.9,4.4,6.9c1.4,1.1,2.9,2.2,4.3,3.3c3.3,1.9,6.9,2.9,10.8,2.9
			c1.9-0.3,3.8-0.5,5.7-0.8C1039.6,357.8,1042.8,356,1045.4,353.3L1045.4,353.3z"/>
	</g>
</g>
<g>
	<g>
		<path class="st1" d="M929.9,435.9c7.5,1.2,14.9,3.3,22,6.3c-1.7-0.7-3.4-1.4-5.1-2.2c7.5,3.2,14.5,7.3,21,12.2
			c-1.4-1.1-2.9-2.2-4.3-3.3c1.6,1.2,3.1,2.5,4.6,3.8c1.9,2.1,4.2,3.6,6.9,4.4c2.5,1.3,5.3,1.9,8.2,1.8c2.9,0.1,5.7-0.5,8.2-1.8
			c2.6-0.9,4.9-2.3,6.9-4.4c1.1-1.4,2.2-2.9,3.3-4.3c1.9-3.3,2.9-6.9,2.9-10.8c-0.3-1.9-0.5-3.8-0.8-5.7c-1-3.6-2.8-6.8-5.5-9.4
			c-3.9-3.5-8.1-6.7-12.4-9.7c-2.9-2-5.8-3.9-8.9-5.5c-4.6-2.5-9.5-4.6-14.3-6.6c-3.2-1.3-6.5-2.5-9.8-3.4c-3.8-1.1-7.6-2-11.5-2.6
			c-2.8-0.9-5.7-1-8.5-0.4c-2.8,0.1-5.5,1-7.9,2.5c-2.5,1.3-4.5,3.2-6,5.5c-1.9,2.1-3.2,4.5-3.8,7.3c-0.3,1.9-0.5,3.8-0.8,5.7
			c0,3.9,1,7.4,2.9,10.8c1.1,1.4,2.2,2.9,3.3,4.3C923.2,433.1,926.3,434.9,929.9,435.9L929.9,435.9z"/>
	</g>
</g>
<g>
	<g>
		<path class="st1" d="M1243,379.7c12.3,11.1,24.5,22.2,36.8,33.3c12.2,11,24.3,22,36.5,33c3.1,2.8,6.2,5.6,9.3,8.4
			c3.6,3.2,7,6.5,10.8,9.5c1,0.7,2,1.6,3,2.3c1.1,0.6,2.4,1.1,3.5,1.6c1.1,0.5,2.2,1,3.4,1.3c0.1,0,0.2,0,0.3,0
			c1.9,0.3,3.8,0.5,5.7,0.8c0.3,0,0.6,0,0.9,0c1.4-0.1,4.5-0.5,5.8-0.8c0.2,0,0.4-0.1,0.6-0.1c2.1-0.6,4.1-1.6,6-2.5
			c0.8-0.4,1.6-0.9,2.3-1.5c3.3-2.5,6.6-4.9,9.8-7.4c13.2-9.9,26.3-19.8,39.5-29.7c13.2-9.9,26.3-19.8,39.5-29.7
			c1.6-1.2,3.3-2.5,4.9-3.7c2.5-1.3,4.5-3.2,6-5.5c1.9-2.1,3.2-4.5,3.8-7.3c0.9-2.8,1-5.7,0.4-8.5c-0.1-2.8-1-5.5-2.5-7.9
			c-1.1-1.4-2.2-2.9-3.3-4.3c-2.7-2.6-5.8-4.5-9.4-5.5c-1.9-0.3-3.8-0.5-5.7-0.8c-3.9,0-7.4,1-10.8,2.9
			c-12.5,9.4-25.1,18.9-37.6,28.3c-12.5,9.4-25.1,18.9-37.6,28.3c-3.5,2.6-7,5.2-10.4,7.9c-1.8,1.4-3.6,2.7-5.4,4
			c-1.6,1.2-3.2,2.6-5.1,3.5c1.7-0.7,3.4-1.4,5.1-2.2c-0.5,0.2-1,0.3-1.5,0.4c1.9-0.3,3.8-0.5,5.7-0.8c-0.3,0-0.6,0-0.9,0
			c1.9,0.3,3.8,0.5,5.7,0.8c-0.4-0.1-0.8-0.2-1.1-0.3c1.7,0.7,3.4,1.4,5.1,2.2c-0.7-0.3-1.2-0.7-1.8-1.1c1.4,1.1,2.9,2.2,4.3,3.3
			c-3-2.4-5.8-5.2-8.7-7.8c-3-2.7-6-5.4-9-8.1c-5.9-5.3-11.8-10.7-17.7-16c-11.9-10.8-23.9-21.6-35.8-32.4
			c-6.7-6.1-13.4-12.1-20.1-18.2c-1.9-2.1-4.2-3.6-6.9-4.4c-2.5-1.3-5.3-1.9-8.2-1.8c-2.9-0.1-5.7,0.5-8.2,1.8
			c-2.6,0.9-4.9,2.3-6.9,4.4c-1.1,1.4-2.2,2.9-3.3,4.3c-1.9,3.3-2.9,6.9-2.9,10.8c0.3,1.9,0.5,3.8,0.8,5.7
			C1238.5,373.9,1240.3,377.1,1243,379.7L1243,379.7z"/>
	</g>
</g>
<g>
	<g>
		<path class="st1" d="M1193.6,542.8c18.5,21,36.5,42.5,53.9,64.4c4.9,6.2,9.8,12.4,14.6,18.6c-1.1-1.4-2.2-2.9-3.3-4.3
			c10.7,13.8,21.2,27.8,31.4,42c5.5,7.6,10.7,16,17.9,22.2c2.5,2.2,5.1,4.3,7.9,6.1c2.9,1.8,6.2,3.1,9.3,4.3
			c6.1,2.2,13.6,2.2,19.9,0.5c6.8-1.8,12.8-5.9,17.7-10.9c2.8-2.8,5.4-5.8,8.1-8.7c5.7-6.1,11.4-12,17.3-17.9
			c11.6-11.6,23.5-22.9,35.8-33.8c13.7-12.2,27.9-23.9,42.4-35.2c-1.4,1.1-2.9,2.2-4.3,3.3c17.3-13.4,35.2-26.1,53.5-38
			c4.6-3,8.3-7.3,9.8-12.7c0.9-2.8,1-5.7,0.4-8.5c-0.1-2.8-1-5.5-2.5-7.9c-2.9-4.6-7.3-8.6-12.7-9.8c-5.4-1.2-11.6-1-16.4,2.2
			c-24.5,15.9-48,33.2-70.7,51.5c-21.4,17.3-42,35.7-61.5,55.1c-5.5,5.5-10.9,11-16.3,16.7c-2.7,2.8-5.3,5.7-8,8.5
			c-2.5,2.7-4.8,5.5-7.7,7.8c1.4-1.1,2.9-2.2,4.3-3.3c-1.1,0.9-2.4,1.6-3.7,2.2c1.7-0.7,3.4-1.4,5.1-2.2c-1.1,0.4-2.2,0.7-3.4,0.9
			c1.9-0.3,3.8-0.5,5.7-0.8c-1.2,0.1-2.4,0.1-3.7,0c1.9,0.3,3.8,0.5,5.7,0.8c-1.4-0.2-2.7-0.6-4-1.1c1.7,0.7,3.4,1.4,5.1,2.2
			c-2-0.9-3.9-2.1-5.6-3.4c1.4,1.1,2.9,2.2,4.3,3.3c-3.3-2.6-6.2-5.8-8.8-9.1c1.1,1.4,2.2,2.9,3.3,4.3c-6.7-8.7-12.9-17.9-19.5-26.7
			c-7.7-10.4-15.5-20.6-23.4-30.8c-13.8-17.8-28-35.4-42.5-52.7c-8.2-9.8-16.6-19.5-25-29.1c-1.9-2.1-4.2-3.6-6.9-4.4
			c-2.5-1.3-5.3-1.9-8.2-1.8c-2.9-0.1-5.7,0.5-8.2,1.8c-2.6,0.9-4.9,2.3-6.9,4.4c-3.7,4.1-6.5,9.4-6.2,15.1c0.3,1.9,0.5,3.8,0.8,5.7
			C1189.1,537,1191,540.1,1193.6,542.8L1193.6,542.8z"/>
	</g>
</g>
<g>
	<g>
		<path class="st1" d="M1179.4,834c18.3,20.1,36.6,40.2,54.9,60.3c18.2,19.9,36.3,39.8,54.5,59.8c10.3,11.3,20.7,22.7,31,34
			c1.4,1.1,2.9,2.2,4.3,3.3c2.4,1.6,5.1,2.4,7.9,2.5c1.9,0.5,3.8,0.5,5.7,0c2.8-0.1,5.5-1,7.9-2.5c26.1-17.4,51.7-35.6,76.7-54.7
			c26.3-20,52-40.7,77-62.3c13.4-11.6,26.6-23.5,39.6-35.5c3.9-3.6,6.2-9.8,6.2-15.1c0-5.2-2.3-11.5-6.2-15.1
			c-4.1-3.7-9.4-6.5-15.1-6.2c-5.8,0.3-10.8,2.3-15.1,6.2c-25.9,24-52.6,47.1-80.1,69.2c-7.8,6.3-15.6,12.5-23.5,18.6
			c1.4-1.1,2.9-2.2,4.3-3.3c-21.6,16.7-43.7,32.8-66.2,48.3c-6.4,4.4-12.8,8.7-19.3,13c8.6,1.1,17.2,2.2,25.9,3.3
			c-18.3-20.1-36.6-40.2-54.9-60.3c-18.2-19.9-36.3-39.8-54.5-59.8c-10.3-11.3-20.7-22.7-31-34c-3.6-3.9-9.9-6.2-15.1-6.2
			c-5.2,0-11.5,2.3-15.1,6.2c-3.7,4.1-6.5,9.4-6.2,15.1C1173.4,824.7,1175.4,829.7,1179.4,834L1179.4,834z"/>
	</g>
</g>
<g>
	<g>
		<path class="st1" d="M1196.3,1117.5c11.6,13.5,23.6,26.6,36,39.3c12.4,12.7,25.3,25,38.5,36.9s26.8,23.3,40.8,34.3
			c2.1,1.7,4.2,3.4,6.4,4.9c2.2,1.6,5.1,2.8,7.6,3.5c4.6,1.3,8.9,1.1,13.5,0.1c1.3-0.3,2.5-0.9,3.8-1.4c1.3-0.5,2.7-1,3.9-1.7
			c4.1-2.4,8-5.3,12-8c8.1-5.4,16.2-10.8,24.3-16.2c16.1-10.7,32.2-21.4,48.3-32.2c2-1.4,4.1-2.7,6.1-4.1c2.5-1.3,4.5-3.2,6-5.5
			c1.9-2.1,3.2-4.5,3.8-7.3c0.9-2.8,1-5.7,0.4-8.5c-0.1-2.8-1-5.5-2.5-7.9c-1.1-1.4-2.2-2.9-3.3-4.3c-2.7-2.6-5.8-4.5-9.4-5.5
			c-1.9-0.3-3.8-0.5-5.7-0.8c-3.9,0-7.4,1-10.8,2.9c-12,8-24,16-36,24c-12,8-24,16-36,24c-3.4,2.3-6.8,4.5-10.2,6.8
			c-1.7,1.1-3.3,2.2-5,3.3c-1.6,1.1-3.2,2.3-4.9,3c1.7-0.7,3.4-1.4,5.1-2.2c-0.5,0.2-0.9,0.3-1.4,0.4c1.9-0.3,3.8-0.5,5.7-0.8
			c-0.4,0-0.7,0-1.1,0c1.9,0.3,3.8,0.5,5.7,0.8c-0.5-0.1-0.9-0.2-1.4-0.3c1.7,0.7,3.4,1.4,5.1,2.2c-1-0.4-1.9-1-2.8-1.7
			c1.4,1.1,2.9,2.2,4.3,3.3c-16.6-12.9-32.6-26.6-48.2-40.7c-15.5-14.2-30.5-29-44.9-44.4c-8.1-8.6-15.9-17.4-23.6-26.4
			c-1.9-2.1-4.2-3.6-6.9-4.4c-2.5-1.3-5.3-1.9-8.2-1.8c-2.9-0.1-5.7,0.5-8.2,1.8c-2.6,0.9-4.9,2.3-6.9,4.4
			c-3.7,4.1-6.5,9.4-6.2,15.1c0.3,1.9,0.5,3.8,0.8,5.7C1191.8,1111.7,1193.6,1114.8,1196.3,1117.5L1196.3,1117.5z"/>
	</g>
</g>
<g>
	<g>
		<path class="st1" d="M635.1,1383.8c25.5,0,51.1,0,76.6-0.1c25.5,0,51.1,0,76.6-0.1c14.3,0,28.6,0,42.9,0c2.9,0.1,5.7-0.5,8.2-1.8
			c2.6-0.9,4.9-2.3,6.9-4.4c3.7-4,6.5-9.4,6.2-15.1c-1.2-22.5-1.5-45.1-1-67.7c0.5-22.4,1.7-44.8,3.8-67.1
			c1.2-12.6,2.6-25.3,4.3-37.9c-0.3,1.9-0.5,3.8-0.8,5.7c2.4-17.9,5.3-35.7,8.7-53.4c1-5.1,2-10.1,3.1-15.2c0.9-2.8,1-5.7,0.4-8.5
			c-0.1-2.8-1-5.5-2.5-7.9c-1.3-2.5-3.2-4.5-5.5-6c-2.1-1.9-4.5-3.2-7.3-3.8c-1.9-0.3-3.8-0.5-5.7-0.8c-3.9,0-7.4,1-10.8,2.9
			c-4.5,2.9-8.7,7.3-9.8,12.7c-3.3,15.5-6.1,31.1-8.6,46.7c-2.7,17.4-5.1,34.8-6.9,52.3c-1.7,15.7-3,31.4-3.8,47.1
			c-0.9,15.8-1.4,31.6-1.5,47.5s0.2,31.7,0.9,47.5c0.1,2,0.2,3.9,0.3,5.9c7.1-7.1,14.2-14.2,21.3-21.3c-25.5,0-51.1,0-76.6,0.1
			c-25.5,0-51.1,0-76.6,0.1c-14.3,0-28.6,0-42.9,0c-2.9-0.1-5.7,0.5-8.2,1.8c-2.6,0.9-4.9,2.3-6.9,4.4c-2.1,1.9-3.6,4.2-4.4,6.9
			c-1.3,2.5-1.9,5.3-1.8,8.2c0.2,5.5,2.1,11.2,6.2,15.1C624.2,1381.4,629.3,1383.8,635.1,1383.8L635.1,1383.8z"/>
	</g>
</g>
<g>
	<g>
		<path class="st1" d="M786.6,1487.3c21-0.2,41.9-0.1,62.9,0.5c20.9,0.6,41.8,1.6,62.6,3c11.8,0.8,23.5,1.7,35.3,2.8
			c1.9-0.3,3.8-0.5,5.7-0.8c2.8-0.7,5.2-1.9,7.3-3.8c1.6-0.9,2.9-2.2,3.8-3.8c1.9-2.1,3.2-4.5,3.8-7.3c3.1-22.1,7.2-44,12.3-65.7
			c5-21.6,11-42.9,17.9-64c3.9-11.9,8.1-23.6,12.6-35.3c0.9-2.8,1-5.7,0.4-8.5c-0.1-2.8-1-5.5-2.5-7.9c-1.3-2.5-3.2-4.5-5.5-6
			c-2.1-1.9-4.5-3.2-7.3-3.8c-1.9-0.3-3.8-0.5-5.7-0.8c-3.9,0-7.4,1-10.8,2.9c-1.4,1.1-2.9,2.2-4.3,3.3c-2.6,2.7-4.5,5.8-5.5,9.4
			c-8,20.8-15.1,41.9-21.2,63.4c-6.1,21.3-11.2,42.9-15.4,64.6c-2.4,12.3-4.4,24.6-6.2,37c6.9-5.2,13.7-10.4,20.6-15.7
			c-20.9-1.9-41.8-3.3-62.7-4.4c-20.9-1-41.8-1.7-62.6-1.9c-11.8-0.1-23.6-0.1-35.4,0c-2.9-0.1-5.7,0.5-8.2,1.8
			c-2.6,0.9-4.9,2.3-6.9,4.4c-2.1,1.9-3.6,4.2-4.4,6.9c-1.3,2.5-1.9,5.3-1.8,8.2c0.3,1.9,0.5,3.8,0.8,5.7c1,3.6,2.8,6.8,5.5,9.4
			c1.4,1.1,2.9,2.2,4.3,3.3C779.2,1486.3,782.7,1487.3,786.6,1487.3L786.6,1487.3z"/>
	</g>
</g>
<path class="st2" d="M257.2,861.2c0,0-16.7,1-8.9,14.9c7.9,13.9,587,462.6,851.8,788.8c0,0,31.8,78.4,139.8,72c0,0,14.4,0.8,25,13.7
	c10.6,12.9,25.9,33,25.9,33s1.2,5.9,15.3,0c14.1-5.9,74.2-36.5,74.2-36.5s9.4-4.7,4.7-16.5c-4.7-11.8-24.7-50.6-24.7-50.6
	s-7.1-7.1,0-25.9s16.5-43.6,9.4-171.9c-7.1-128.3,23.1-636.8,6.1-1134.3c0,0,2.6-27-19.5-17c-14,6.3-50.6,950.2-59.7,1106.2
	c0,0-6.1,110.1-55,76.5c-48.9-33.6-59.2-102.7-84.5-82.4c-25.3,20.3,64.5,105.4,34.3,138.1c-30.3,32.7-42.5,48-110.6-26.2
	C1012.3,1469,502.6,992.6,257.2,861.2z"/>
<g>
	<g>
		<path class="st3" d="M1172.8,1378.2c8.1-16.5,5.4-35.1-4.8-50.1c-8.5-12.6-20.7-20.8-31.3-31.5c-1.2-1.2-2.3-2.4-3.4-3.7
			c-0.4-0.5-1.2-1.9-1.8-2.1c0.3,0.1,2.5,3.5,0.8,0.9c-0.9-1.4-1.9-2.8-2.7-4.3c-0.4-0.7-0.7-1.3-1-2c-1.8-3.7,0.6,1.8,0,0.2
			c-1.1-3.2-2.2-6.3-2.9-9.6c-0.4-1.6-0.5-3.4-0.9-5c0.1,0.3,0.5,4.5,0.2,1.4c-0.1-1.1-0.2-2.3-0.3-3.4c-1.1-15.2,0.5-30.6,1.4-45.8
			c1-17,1.9-34,2.9-51c0.5-8.3,0.9-16.5,1.4-24.8c0.2-4,0.4-8,0.7-12c0.1-1.8,0.3-3.7,0.4-5.5c0.1-0.8,0-2.3,0.3-3.1
			c-0.1,0.8-0.2,1.6-0.3,2.3c0.1-0.8,0.3-1.6,0.4-2.4c0.3-1.6,0.7-3.2,1.1-4.8c0.3-1,0.7-1.9,0.9-2.9c0.7-2.5-2,3.9-0.2,0.4
			c1.6-3.2,3.3-6.2,5.3-9.2c4-6.1,8.4-11.9,11.8-18.3c7-13.5,10.9-28.2,11.7-43.4c0.8-13.6-1.2-27.8-5.8-40.6
			c-5.2-14.4-13-26.5-23.2-37.9c-4.2-4.7-8.6-9.3-12.9-13.9c-2.1-2.3-4.1-4.5-6-6.9c-0.4-0.5-0.8-1-1.3-1.6c-1.8-2.2,0.9,1.1,1,1.3
			c-0.9-1.5-2.1-2.9-3.1-4.3c-1.5-2.2-2.7-4.5-3.9-6.9c-1.6-2.9,1.2,3.6,0.6,1.4c-0.2-0.7-0.5-1.4-0.7-2.1c-0.5-1.4-0.7-2.8-1.1-4.2
			c-0.7-2.9,0.4,2.3,0.3,2.2c-0.1-0.2-0.1-1.4-0.1-1.7c0-1.1-0.3-3.4,0.2-4.4c0,0-0.9,4.9-0.2,2.1c0.2-0.6,0.3-1.2,0.4-1.8
			c0.2-0.8,0.5-1.5,0.7-2.3c0.6-2.1-2,3.9-0.5,1.2c0.8-1.4,1.5-2.8,2.4-4.1c0.3-0.5,0.8-1,1.1-1.5c-2.3,3.8-1.9,2.4-1.1,1.4
			c2.1-2.5,4.3-4.8,6.6-7.1c4.2-4.1,8.4-8.2,12.1-12.7c9.6-11.9,15.4-26.3,13.7-41.8c-3-27.9-21.6-49.5-34.6-73.3
			c-1.5-2.7-2.9-5.4-4.2-8.2c-0.3-0.6-0.5-1.2-0.8-1.8c-1.2-2.7,0.6,1.3,0.6,1.5c-0.4-1.6-1.2-3.1-1.7-4.7c-0.8-2.5-1.5-5.1-2-7.7
			c-0.3-1.5-0.6-6.4-0.1,0c-0.1-1.5-0.3-2.9-0.4-4.4c-0.2-2.6-0.2-5.3-0.1-7.9c0.1-1.2,0.1-2.3,0.2-3.5c0.1-0.7,0.2-1.5,0.2-2.2
			c0.2-2-0.9,5.1-0.1,1.3c1-5.4,2.3-10.6,4.3-15.7c0.2-0.6,0.4-1.1,0.6-1.7c1-2.6-0.8,1.8-0.8,1.8c0.3-1.3,1.3-2.8,1.9-4
			c1.3-2.5,2.6-5,4.1-7.4c1.3-2.1,2.9-4.1,4.3-6.2c-3.2,5-0.5,0.6,0.5-0.5c1-1.1,1.9-2.2,3-3.3c1.8-1.9,3.7-3.8,5.7-5.5
			c0.9-0.8,1.8-1.5,2.7-2.3c2.1-1.8-1.5,1.2-1.5,1.2c0.6-0.6,1.5-1.1,2.1-1.5c2.2-1.5,4.4-2.9,6.7-4.2c1.1-0.6,2.3-1.2,3.5-1.8
			c0.7-0.3,1.3-0.6,2-0.9c2.8-1.3-4.2,1.6-1,0.5c5-1.8,10.1-3.2,15.4-3.9c4.1-0.6,8.7-4.8,10.7-8.2c2.2-3.8,3.2-9.5,1.8-13.8
			c-1.4-4.3-4.1-8.5-8.2-10.7c-4.6-2.4-8.7-2.5-13.8-1.8c-25.8,3.6-48,20.7-62.5,41.7c-14.6,21.3-20.4,47.9-15.9,73.3
			c4.6,26.1,23.3,47,35.3,69.8c0.7,1.3,1.4,2.7,2,4c0.4,0.8,2.4,5.4,1.1,2.3c-1.2-3.1,0.6,1.5,0.8,2.3c0.5,1.5,1,2.9,1.4,4.4
			c0.4,1.5,0.8,2.9,1.1,4.4c0.1,0.4,0.4,1.4,0.3,1.8c0,0.1-0.5-5-0.3-2.1c0.1,1.3,0.2,2.6,0.2,3.9c0,2-1.2,6.8,0.2,0.9
			c-0.3,1.2-0.4,2.3-0.7,3.5c-0.3,1.4-1.2,3-1.4,4.4c0-0.2,2-4.2,0.7-1.7c-0.3,0.6-0.6,1.2-0.9,1.7c-0.8,1.6-1.8,3-2.8,4.5
			c-1.2,1.8,2.5-3,1-1.3c-0.5,0.6-1,1.2-1.6,1.9c-0.9,1-1.7,1.9-2.6,2.9c-2.3,2.4-4.6,4.6-6.9,6.9c-11.2,11.1-19.9,23.7-20.7,40
			c-0.8,15.6,7.4,29.4,16.7,41.2c7.9,10,17.2,18.6,25.3,28.4c0.4,0.5,0.8,1,1.2,1.5c-3-3.4-1.6-2.1-0.9-1.2c0.9,1.2,1.8,2.5,2.6,3.8
			c1.8,2.7,3.4,5.5,4.8,8.4c0.4,0.8,0.7,1.5,1.1,2.3c0.7,1.4,0.7,3.3-0.4-1c0.3,1.3,1,2.6,1.5,3.8c1.1,3.2,2.1,6.5,2.8,9.8
			c0.3,1.3,0.6,2.7,0.8,4c0.2,0.8,0.3,1.7,0.4,2.5c0.4,2.5-0.5-4.9-0.2-1.2c0.3,3.2,0.5,6.5,0.6,9.7c0,3.1-0.1,6.2-0.4,9.2
			c-0.1,0.8-0.3,1.7-0.3,2.5c0-0.2,0.7-4.7,0.2-1.7c-0.3,1.7-0.6,3.4-1,5c-0.7,3-1.5,6-2.5,8.9c-0.5,1.5-1.1,2.9-1.6,4.3
			c-0.9,2.3,2-4.2,0.4-1c-0.5,0.9-0.9,1.9-1.3,2.8c-3.1,6.1-7.1,11.6-10.9,17.2c-4.8,7.2-9,15-11.3,23.4c-2.2,8.5-2.8,17.4-3.3,26.2
			c-1,17.2-2,34.5-3,51.7c-1,17-2,34-2.9,51c-0.9,15.3-1.2,30.8,2.6,45.8c4.2,16.3,14,29.2,26.5,40.2c5.2,4.6,10.7,8.9,15.5,13.9
			c1.1,1.1,2.1,2.4,3.1,3.5c1.6,1.8-2.5-3.8-0.5-0.6c0.4,0.6,0.8,1.2,1.2,1.8c0.9,1.3,1.7,2.7,2.4,4.2c0.3,0.6,0.7,1.9,1.2,2.4
			c-0.3-0.8-0.7-1.6-1-2.3c0.3,0.7,0.5,1.3,0.7,2c0.4,1.3,0.7,2.6,1.1,4c0.7,3-0.1-1.6-0.2-1.8c0.3,0.7,0.1,1.8,0.1,2.5
			c0,0.6,0.2,1.9-0.1,2.5c0,0,1-4.8,0.2-1.8c-0.2,0.6-0.4,1.3-0.5,1.9c-0.7,3.6,1.9-3.8,0.3-0.5c-4.1,8.4-2.5,19.8,6.4,24.5
			C1156.3,1388.9,1168.3,1387.2,1172.8,1378.2L1172.8,1378.2z"/>
	</g>
</g>
<g>
	<g>
		<path class="st3" d="M675.2,304.8c20,0.3,40-1.4,59.9,1.2c-1.6-0.2-3.2-0.4-4.8-0.6c8.5,1.2,16.8,3.3,24.7,6.5
			c-1.4-0.6-2.9-1.2-4.3-1.8c5.9,2.5,11.6,5.7,16.7,9.6c-1.2-0.9-2.4-1.9-3.6-2.8c3.8,3,7.2,6.3,10.1,10.1c-0.9-1.2-1.9-2.4-2.8-3.6
			c2.7,3.5,4.9,7.3,6.6,11.4c-0.6-1.4-1.2-2.9-1.8-4.3c2.6,6.2,4,12.8,4.9,19.4c-0.2-1.6-0.4-3.2-0.6-4.8c3.3,25-0.5,51.8,11.9,74.9
			c7.1,13.1,19.4,22.4,33.5,26.9c11.8,3.7,24.7,3.8,36.9,3.1c12.4-0.7,24.9-2.2,37.3-0.6c-1.6-0.2-3.2-0.4-4.8-0.6
			c4.3,0.6,8.5,1.6,12.5,3.3c-1.4-0.6-2.9-1.2-4.3-1.8c2.7,1.2,5.2,2.6,7.6,4.4c-1.2-0.9-2.4-1.9-3.6-2.8c2.3,1.8,4.3,3.8,6.1,6.1
			c-0.9-1.2-1.9-2.4-2.8-3.6c1.9,2.4,3.4,5.1,4.6,7.9c-0.6-1.4-1.2-2.9-1.8-4.3c1.9,4.4,2.9,9.1,3.6,13.9c-0.2-1.6-0.4-3.2-0.6-4.8
			c1.3,10.3,0.8,20.7,1.3,31.1c0.7,12.7,2.7,25.7,9.3,36.8c3,5.1,7,10.1,11.6,13.9c2.8,2.3,5.6,4.5,8.7,6.3
			c3.2,1.9,6.7,3.3,10.1,4.7c4.3,1.7,8.8,2.9,13.4,3.6c6.3,1,12.7,1.7,19.1,1.7c12.7,0,25.5-1.8,38-4.2c4.2-0.8,8.6-4.7,10.7-8.2
			c2.2-3.8,3.2-9.5,1.8-13.8c-1.4-4.3-4.1-8.5-8.2-10.7c-4.5-2.4-8.8-2.7-13.8-1.8c-4.2,0.8-8.4,1.5-12.6,2.1
			c1.6-0.2,3.2-0.4,4.8-0.6c-10.9,1.5-22.1,2.1-33.1,0.7c1.6,0.2,3.2,0.4,4.8,0.6c-5.5-0.8-10.9-2.1-16-4.2c1.4,0.6,2.9,1.2,4.3,1.8
			c-3.3-1.4-6.4-3.2-9.3-5.4c1.2,0.9,2.4,1.9,3.6,2.8c-2.5-2-4.8-4.2-6.8-6.7c0.9,1.2,1.9,2.4,2.8,3.6c-2.1-2.7-3.8-5.7-5.2-8.8
			c0.6,1.4,1.2,2.9,1.8,4.3c-1.9-4.6-3-9.4-3.7-14.3c0.2,1.6,0.4,3.2,0.6,4.8c-1.5-11.2-0.8-22.5-1.5-33.7
			c-0.4-6.7-1.2-13.5-3.1-19.9c-1.1-3.8-2.7-7.6-4.4-11.1c-1.8-3.6-4.2-6.7-6.7-9.9c-7.4-9.3-19.1-15.4-30.7-17.6
			c-11.3-2.2-22.5-2-33.9-1.3c-11.3,0.7-22.8,1.8-34.1,0.3c1.6,0.2,3.2,0.4,4.8,0.6c-4.6-0.6-9.1-1.7-13.4-3.5
			c1.4,0.6,2.9,1.2,4.3,1.8c-3.1-1.3-6-3-8.7-5.1c1.2,0.9,2.4,1.9,3.6,2.8c-2.5-2-4.7-4.2-6.7-6.7c0.9,1.2,1.9,2.4,2.8,3.6
			c-2.2-2.9-4-6-5.4-9.3c0.6,1.4,1.2,2.9,1.8,4.3c-2.3-5.5-3.5-11.2-4.3-17.1c0.2,1.6,0.4,3.2,0.6,4.8c-1.5-11.3-1.4-22.7-2.2-34
			c-0.5-7.1-1.3-14.2-2.6-21.2c-1.3-6.9-3.6-13.3-6.5-19.6c-3.1-6.7-7.7-13-12.9-18.2c-5.3-5.4-11.6-10.1-18.2-13.8
			c-6.7-3.8-14.1-6.8-21.5-9c-8.1-2.4-16.5-3.6-24.9-4.5c-18.4-1.9-36.8-0.4-55.2-0.7c-4.5-0.1-9.5,2.1-12.7,5.2
			c-3.1,3.1-5.4,8.2-5.2,12.7C657.7,296.7,665.1,304.6,675.2,304.8L675.2,304.8z"/>
	</g>
</g>
<path class="st2" d="M566.7,581.9c0,0-124.6-185.1-143.6-221.5c-19-36.3,199,207.6,199,207.6"/>
<path class="st2" d="M1016.5,401.7l-30.4-224.6c0,0,7.9-22.5,21.7,0s53.9,200.2,53.9,200.2"/>
<polygon class="st2" points="834.7,900.2 891.7,988.1 863.2,1000.6 816.2,934.6 "/>
<g>
	<g>
		<path class="st3" d="M143.4,501.9c2-1.7,3.9-3.3,5.9-4.9c2.3-1.8-1.9,1.4,0.4-0.4c0.9-0.7,1.8-1.4,2.8-2c4.2-3,8.4-5.9,12.8-8.6
			c8.5-5.3,17.4-9.9,26.6-13.8c-2.7,1.1,0,0,0.5-0.2c1.1-0.4,2.1-0.8,3.2-1.3c2.4-0.9,4.8-1.8,7.3-2.6c4.9-1.7,9.8-3.1,14.8-4.4
			c4.7-1.2,9.5-2.3,14.2-3.1c2.3-0.4,4.5-0.8,6.8-1.1c3.6-0.5,1.1-0.1,0.3-0.1c1.7-0.2,3.4-0.4,5.1-0.6c9.5-0.9,19.2-1.2,28.7-0.6
			c2,0.1,4,0.3,6,0.5c1,0.1,4.4,0.6,0.5,0c1,0.2,2,0.3,3,0.5c4.4,0.8,8.8,1.8,13.1,3.1c1.9,0.6,3.8,1.2,5.6,1.9
			c0.9,0.3,1.8,0.7,2.7,1.1c-3.4-1.4-0.9-0.4-0.3,0c3.9,2,7.6,4.1,11.2,6.6c3.8,2.5-1.6-1.7,0.3,0.3c0.7,0.7,1.4,1.3,2.1,1.9
			c1.6,1.5,3,3.1,4.5,4.7c0.6,0.6,1.8,2.7-0.1-0.2c0.5,0.8,1.1,1.6,1.7,2.4c1.5,2.3,2.8,4.7,4,7.1c4.7,9.3,8.5,18.4,15,26.6
			c6.1,7.6,14.2,12.8,23.2,16.4c13.8,5.5,29.3,5,43.8,3.6c14.4-1.4,28.8-3.7,43.3-2.7c4.5,0.3-3.4-0.8,0.9,0.1
			c1.6,0.4,3.3,0.7,4.9,1.1c1.1,0.3,3,1.5,4.2,1.4c-2.3,0.1-3-1.5-1.3-0.5c1,0.6,1.9,1,2.9,1.6c0.2,0.2,1.8,1.3,1.8,1.2
			c-0.6,0.4-2.9-2.6-1-0.7c1.2,1.1,2.3,2.3,3.5,3.4c2.9,2.9-0.8-2,0.1,0.2c0.4,0.8,1,1.5,1.4,2.3c0.5,0.8,0.9,1.6,1.3,2.4
			c0.3,0.6,0.6,1.2,0.9,1.8c-0.8-2-1-2.3-0.5-1.1c5.6,16.3,7.1,34,15.5,49.3c7.4,13.4,21,24.1,36.2,27c27.3,5.2,53.6-6.7,78.9-15.1
			c6.1-2,12.2-3.9,18.5-5.4c2.9-0.7,5.9-0.9,8.7-1.7c-0.2,0.1-4.7,0.5-1.7,0.3c0.7,0,1.3-0.1,2-0.2c1.6-0.1,3.3-0.2,4.9-0.2
			c1.3,0,2.6,0,3.8,0.1c0.6,0,1.3,0.1,1.9,0.1c2.9,0.1-1.9-0.1-2-0.3c0.1,0.3,7.2,1.8,8,2.1c3.2,1-3.2-1.8-1.3-0.5
			c0.5,0.3,1.1,0.6,1.7,0.9c1.3,0.7,2.4,1.5,3.6,2.3c2.3,1.4-3-2.9,0.2,0.3c0.4,0.4,3.5,4,3.8,4c-0.2,0-2.5-3.7-0.8-1
			c0.4,0.6,0.9,1.2,1.3,1.9c0.8,1.3,1.6,2.6,2.3,3.9c0.7,1.3,1.4,2.7,2.1,4.1c0.2,0.5,2.1,3.4,0.5,1.1c-1.5-2.3,0.1,0.4,0.4,1.1
			c2.5,6.5,4.5,13.1,6.7,19.7c5.1,15.2,11.5,30.1,25,39.7c7.7,5.5,17.3,7.8,26.6,7.8c4.7,0,9.4-0.7,14.1-0.8c-0.3,0,5.4,0.1,2.8-0.1
			c-2.2-0.1,1.4,0.4,1.8,0.4c2.4,0.1-1.5-1.3-0.2-0.2c0.7,0.6,4.1,1.7,1.5,0.8c-3.5-1.2,3.7,2.7,0.6,0.7c-1.9-1.2-0.3-0.2,0.4,0.9
			c0.2,0.3,0.8,1.9,1,2c-0.5-0.2-1.3-4.1-0.6-1.1c0.2,0.8,0.5,1.5,0.7,2.3c0.3,1,1.8,5.1,1.2,6c0.1-0.1-0.5-4.6-0.1-1
			c0.1,0.9,0.2,1.7,0.3,2.6c0.2,1.8,0.3,3.5,0.4,5.3c0.3,4,0.5,8,0.8,12c1,11.5,3.2,21.8,8.1,32.3c4.4,9.6,10.7,18.2,16.6,26.9
			c13.2,19.5,26.3,39.1,39.5,58.6c3.1,4.6,6.2,9.1,9.2,13.7c1.4,2.2,2.8,4.4,4,6.7c0.5,1,1.1,2,1.5,3.1c-1-2.3,0,0.3,0.3,1.3
			c0.1,0.5,0.8,4,0.5,1.8c-0.3-2.6,0,2.6,0,2.5c0.1,0.8-0.5,3.4,0.1,0c-0.2,1-0.4,2.1-0.7,3.1c-0.5,2.1-1.2,4.1-2.1,6.1
			c1.2-2.9,0-0.3-0.2,0.2c-0.8,1.5-1.5,3-2.3,4.5c-5.2,9.6-10.7,18.7-14.8,29c-4,10.2-6.1,21.3-6.7,32.2
			c-1.2,22.3,5.9,44.3,20.4,61.4c13.3,15.6,33,25,53.2,26.8c18.3,1.6,36-5.9,50.4-16.6c7.3-5.4,14.2-11.4,21-17.4
			c2.9-2.6,5.9-5.2,8.9-7.6c0.7-0.6,1.4-1.2,2.1-1.7c0.5-0.4,2.8-2.1,0.9-0.7c-2.3,1.7,1.3-0.9,1.4-1c0.9-0.6,1.8-1.3,2.8-1.9
			c3.1-2.1,6.4-3.8,9.7-5.6c1-0.5,3-0.9-0.7,0.3c0.8-0.3,1.6-0.6,2.5-0.9c2.1-0.7,4.2-1.2,6.4-1.7c0.8-0.2,2.9-0.2-0.2,0
			c1.1-0.1,2.2-0.2,3.3-0.2c2.2-0.1,4.3,0,6.5,0.2c-3.6-0.4-0.1,0.1,0.9,0.3c1.1,0.2,2.1,0.5,3.2,0.8c1.1,0.3,2.1,0.6,3.1,1
			c0.8,0.3,1.6,0.5,2.3,0.8c-1.5-0.7-1.7-0.7-0.5-0.2c1.9,1,3.9,2,5.8,3.1c0.9,0.6,1.9,1.2,2.8,1.8c0.7,0.4,3.5,2.6,1,0.6
			c3.6,2.9,6.8,6.2,9.8,9.8c-2.4-2.9,1,1.5,1.5,2.4c1.1,1.7,2.1,3.4,3,5.1c0.5,0.9,0.9,1.8,1.3,2.7c2.2,4.2-0.7-2.2,0.3,0.5
			c0.7,2.1,1.5,4.2,2.2,6.3c0.6,2.1,1.2,4.3,1.6,6.5c0.2,1,0.3,2,0.5,2.9c0.5,2.7-0.2-3-0.1-0.3c0.1,4.8,0.3,9.3,0,14.1
			c-0.1,0.9-0.7,3.3,0.1-0.3c-0.2,1-0.3,2-0.5,2.9c-0.4,1.9-0.9,3.9-1.4,5.8c-0.6,1.9-1.2,3.8-1.9,5.6c1.4-3.6,0.1-0.3-0.4,0.6
			c-0.6,1.2-1.2,2.3-1.8,3.5c-1,1.8-2.1,3.6-3.2,5.4c-0.7,1.1-1.4,2.2-2.2,3.2c-0.3,0.4-2.2,3-0.9,1.3c1.3-1.7-0.7,0.9-1,1.3
			c-0.8,1-1.7,2-2.5,3c-1.6,1.8-3.2,3.5-4.8,5.3c-6.4,6.8-13.2,13.2-19.7,19.8c-13.5,13.7-25,28.2-31,46.7
			c-5.6,17.3-5.7,36.7,2.3,53.2c8.3,17.2,26,26.1,44.3,27.7c15.1,1.4,30.6-3,45.1-6.6c3.4-0.8,6.8-1.7,10.3-2.4
			c1.6-0.3,3.2-0.7,4.7-0.9c0.8-0.1,1.6-0.3,2.3-0.4c3.9-0.7-3.7,0.3-0.2,0c3.1-0.2,6.2-0.5,9.4-0.3c0.7,0,1.4,0.1,2.1,0.2
			c2.3,0.1-3.8-1-1.7-0.2c1.4,0.5,3.4,1.1,4.9,1.3c2.1,0.4-3.2-1.9-1.5-0.6c0.6,0.5,1.6,0.8,2.3,1.2c0.3,0.2,1.5,1.2,1.7,1.2
			c-0.5,0-3.1-2.9-1.1-0.8c0.6,0.6,2.4,3.2,3.1,3.3c-1.4-0.1-2-3.1-0.9-1c0.5,0.9,1,1.9,1.5,2.7c1.7,2.7-0.9-1.6-0.6-1.5
			c0.1,0,0.6,1.6,0.6,1.9c0.2,0.8,0.4,3.3,0.9,3.9c-1.5-1.7-0.3-4.1-0.3-1.3c0,0.7,0,1.4,0,2c0,1-0.7,6.4-0.1,3.3
			c0.7-3.3-0.3,1.8-0.5,2.4c-0.3,1.6-0.7,3.3-1.2,4.9c-0.9,3.4-2,6.7-3.2,10c-2.3,6.5-4.8,12.9-7.2,19.4c-5.3,14.8-8.8,30.3-5.7,46
			c3.2,15.8,15,28.1,28.5,36.1c11.1,6.5,23.5,10.4,34.9,16.2c2.5,1.3,5,2.7,7.4,4.3c0.5,0.4,1,0.8,1.6,1.1c1.9,1.1-2.9-2.6-1.4-1.1
			c0.9,1,2,1.9,2.9,2.8c0.2,0.2,1.1,1.3,1.2,1.3c-0.5,0.1-2.4-3.9-1.3-1.5c0.3,0.5,1.2,2.9,1.7,3c-2.6-1-1.1-3.9-0.9-1.8
			c0.1,0.4,0.3,1.3,0.5,1.7c1.1,3.1,0-3.7-0.2-1.5c-0.1,0.8,0.1,1.7,0.1,2.5c0,9.4,8.2,18.4,17.9,17.9c9.7-0.4,17.9-7.9,17.9-17.9
			c0-16.8-9.6-29.9-23.5-38.5c-10.9-6.8-23.4-10.5-34.9-16.3c-2.8-1.4-5.5-2.9-8.1-4.5c-1.2-0.8-2.3-1.6-3.5-2.4
			c-2-1.3,3.4,3,0.8,0.5c-0.6-0.6-1.3-1.1-1.9-1.7c-0.6-0.6-3-2.4-3.1-3.4c0-0.1,2.5,4,1,1.2c-0.3-0.6-0.7-1.2-1.1-1.7
			c-0.4-0.6-0.7-1.3-1-1.9c-1.5-2.7,0.6,0.9,0.5,1.3c0.2-0.7-1.2-4.2-1.4-5.1c-0.8-2.8,0.2,1.2,0.2,1.6c0.2-0.7-0.2-1.9-0.2-2.7
			c-0.1-1.6,0-3.2,0.1-4.8c0-0.7,0.1-1.5,0.2-2.2c0.2-2.3,0.9,0-0.2,1.5c0.8-1.1,0.8-4.1,1.1-5.6c1.6-6.8,4-13.4,6.4-19.9
			c5.2-13.9,10.8-27.8,11.4-42.9c0.6-17.3-7.9-33.7-22.7-42.8c-14.6-9-32.2-7.6-48.2-4.3c-7.1,1.4-14.2,3.4-21.3,5
			c-3.7,0.9-7.3,1.7-11,2.4c-0.8,0.1-1.6,0.3-2.4,0.4c-2.8,0.5,1,0.1,1.1-0.1c-0.4,0.6-5,0.5-6,0.5c-1.6,0.1-3.1,0.1-4.7,0.1
			c-0.9,0-6.5-0.3-3.3-0.1c3.1,0.2-1.8-0.5-2.6-0.7c-0.9-0.2-1.8-0.6-2.7-0.8c-3-0.9,2.3,1.5,0.6,0.3c-0.6-0.5-4.5-1.8-4.7-2.7
			c0,0,3.3,3,0.7,0.5c-0.6-0.6-1.2-1.1-1.7-1.7c0.1,0.1-1.6-1.6-1.6-1.8c0.1-0.3,2.1,3.3,0.7,0.8c-0.5-0.8-1-1.7-1.5-2.5
			c-2-3.3,0,0.6,0.1,0.6c-0.5,0-1.5-4.8-1.6-5.1c-0.2-0.8-0.3-1.6-0.5-2.4c-0.8-2.4,0.3,4.6,0,0.5c-0.1-1.7-0.2-3.3-0.2-5
			c0-1.4-0.5-5.2,0.4-6.4c-0.1,0.2-0.8,4.4-0.1,0.9c0.2-0.9,0.3-1.7,0.5-2.6c0.4-2,0.9-3.9,1.5-5.8c0.5-1.7,1.1-3.4,1.7-5.1
			c0.4-1,1.7-3.8,0-0.1c0.5-1,0.9-2,1.4-3c1.7-3.4,3.6-6.5,5.7-9.6c1.7-2.5,0.1-0.1-0.3,0.3c0.7-0.8,1.3-1.6,2-2.5
			c1.7-2,3.5-4,5.2-6c6.5-7.1,13.5-13.7,20.3-20.4c14.3-14.4,27.5-30.2,33.7-49.8c12.5-39.2-5.5-87.2-43.1-105.5
			c-20.7-10-42.8-10.4-63.7-0.7c-15.5,7.3-28,20-40.8,31c-1.6,1.3-3.1,2.7-4.7,4c-0.7,0.6-1.4,1.1-2.1,1.7c0.4-0.4,3-2.2,0.4-0.3
			c-3.3,2.4-6.6,4.6-10.1,6.6c-0.8,0.4-1.6,0.9-2.3,1.3c-0.2,0.1-4,2.1-1.5,0.8c2.2-1.1-0.3,0.1-0.9,0.3c-1.1,0.4-2.1,0.7-3.2,1.1
			c-1.8,0.5-3.6,1-5.5,1.3c-3.4,0.7-0.2,0,0.4-0.1c-1.5,0-2.9,0.2-4.3,0.2c-1.9,0-3.9-0.2-5.8-0.3c4.5,0.4-1.9-0.5-3.1-0.8
			c-1.9-0.5-3.7-1.2-5.6-1.8c-2.7-0.8,3.6,2-0.4-0.2c-1.1-0.6-2.2-1.1-3.3-1.7c-2-1.1-3.8-2.3-5.6-3.5c-0.6-0.4-2.6-2.1,0.1,0.1
			c-0.8-0.6-1.5-1.3-2.3-1.9c-1.5-1.3-2.9-2.7-4.2-4.1c-0.8-0.9-1.6-1.9-2.4-2.8c-1.4-1.5,1.5,2.3-0.3-0.5c-1.2-1.9-2.4-3.7-3.5-5.7
			c-0.5-1-0.9-2-1.5-2.9c-1.5-2.6,1.1,3.7-0.5-1.2c-0.7-2.1-1.4-4.3-2-6.4c-0.3-1.1-0.5-2.2-0.8-3.3c-0.1-0.3-0.9-5.7-0.4-1.9
			c-0.6-4.8-0.7-9.6-0.3-14.4c0.1-1.1,0.2-2.3,0.3-3.4c0.2-2.9-0.6,2.5,0-0.3c0.6-2.8,1.1-5.6,1.8-8.4c0.7-2.5,1.4-4.9,2.3-7.4
			c0.4-1.1,0.8-2.1,1.2-3.2c-0.3,0.7-1.3,2.7,0.2-0.4c2.2-4.5,4.7-8.9,7.3-13.3c5.4-9.3,10.8-19.2,12.5-30c2-13.3-0.8-25.4-7.5-37
			c-5.7-9.7-12.4-18.8-18.7-28.2c-13.2-19.7-26.6-39.3-39.7-59c-2.8-4.3-5.6-8.6-8-13.2c-0.5-1.1-1.1-2.1-1.6-3.2
			c1.1,2.4-0.1-0.3-0.3-0.7c-0.9-2.7-1.7-5.3-2.3-8.1c-0.2-0.8-0.3-1.7-0.4-2.5c-0.8-4.2,0.2,3,0,0.3c-0.1-2-0.4-3.9-0.5-5.9
			c-0.3-4-0.5-8-0.8-12c-1.4-18-5.6-38.1-23.4-47c-11.9-6-23.4-3.9-36.1-4c-1.2,0-2.3,0-3.5-0.1c2.8,0.3,0.8,0.1,0.2-0.1
			c-0.6-0.2-1.4-0.4-2.1-0.6c-3.4-0.8,2.7,1.7,1,0.5c-0.9-0.7-2.4-1.5-3.4-2c-1.9-0.9,3.2,3.2,1,0.7c-0.5-0.6-1.2-1.1-1.7-1.7
			c-0.2-0.2-1.5-1.9-1.6-1.9c0.3-0.1,2.5,3.8,1,1.2c-0.7-1.2-1.5-2.3-2.2-3.5c-0.7-1.2-1.3-2.5-2-3.8c-0.4-0.8-0.7-1.7-1.1-2.5
			c-1-2,1.4,3.7,0.3,0.7c-2.4-6.6-4.6-13.3-6.8-20c-4.9-14.5-11.1-29.9-23.2-40c-11.7-9.8-26-14.6-41.3-14.1
			c-27.2,0.9-51.9,13.8-77.7,20.7c-3,0.8-6.1,1.5-9.2,2.1c-0.8,0.2-3.2,1-4,0.7c0.6,0.3,4.3-0.4,1.8-0.3c-1,0.1-1.9,0.2-2.9,0.3
			c-2.7,0.2-5.3,0.1-8,0c-4.1-0.1,4.2,0.9,0.2,0.1c-1.5-0.3-2.9-0.6-4.4-1c-0.7-0.2-1.4-0.5-2.1-0.7c-1.9-0.6-0.1-1.1,1.8,0.8
			c-0.7-0.7-2.3-1.2-3.2-1.7c-0.9-0.5-2.2-1.9-3.1-2.1c2.6,0.6,2.8,2.4,1,0.7c-0.6-0.6-1.2-1.1-1.8-1.7c-0.3-0.3-2.8-2.9-1.1-1
			c1.6,1.7-0.3-0.4-0.6-0.9c-1.1-1.8-2-3.5-3-5.3c-0.5-0.9-1-3,0.2,0.5c-0.3-0.9-0.7-1.7-1-2.6c-0.8-2.2-1.4-4.5-2-6.7
			c-4.9-18.1-7.4-36.3-20.3-50.9c-11.6-13.1-29-18-45.9-18.6c-14.8-0.5-29.5,2.4-44.3,3.4c-3.5,0.3-6.9,0.4-10.4,0.4
			c-1.6,0-3.2,0-4.8-0.1c-1-0.1-1.9-0.2-2.9-0.2c-3.3-0.2,2.9,0.7,0.8,0.2c-3.1-0.7-6.2-1.4-9.2-2.3c-3-0.9,1,0.2,1.2,0.6
			c-0.1-0.2-1.6-0.8-2-1c-0.4-0.2-4.6-3-4.7-2.9c0.8-0.5,3,2.8,0.5,0.3c-0.6-0.6-1.2-1.2-1.8-1.8c-0.3-0.3-2.5-2.9-1.2-1.3
			c1.5,2-1.5-2.3-1.4-2.1c-2.6-4.2-4.6-8.6-6.7-13.1c-4.3-9.2-9.3-17.8-16.4-25.2c-13.5-13.9-32.5-22.2-51.4-25.7
			c-41.6-7.7-85.3,0.7-123.4,18c-18.9,8.6-36.2,20.1-51.9,33.6c-7.1,6.1-6.8,19.1,0,25.3C125.6,508.9,135.7,508.5,143.4,501.9
			L143.4,501.9z"/>
	</g>
</g>
<g>
	<g>
		<path class="st3" d="M1162.1,677.1c9.2-22.8,4.6-51.6-9.6-71.5c-7.5-10.5-17-19.7-28.8-25.1c-10.9-5-22.1-7.8-33.8-10
			c-11.5-2.2-23.2-3.9-34.1-8.5c1.4,0.6,2.9,1.2,4.3,1.8c-3.9-1.7-7.6-3.7-11-6.3c1.2,0.9,2.4,1.9,3.6,2.8c-2.7-2.1-5-4.5-7.1-7.2
			c0.9,1.2,1.9,2.4,2.8,3.6c-2-2.7-3.6-5.5-4.9-8.5c0.6,1.4,1.2,2.9,1.8,4.3c-1.6-3.9-2.6-8-3.2-12.1c0.2,1.6,0.4,3.2,0.6,4.8
			c-1.8-13.7,0.5-27.5,1.3-41.1c0.9-15.6-0.3-32.5-9.1-45.9c-5.9-8.9-13.7-15-22-21.4c1.2,0.9,2.4,1.9,3.6,2.8
			c-4.4-3.4-8.8-6.9-12.3-11.3c0.9,1.2,1.9,2.4,2.8,3.6c-1.4-1.9-2.6-3.9-3.6-6.1c0.6,1.4,1.2,2.9,1.8,4.3c-0.7-1.8-1.2-3.7-1.5-5.6
			c0.2,1.6,0.4,3.2,0.6,4.8c-0.3-2.3-0.3-4.6,0-7c-0.2,1.6-0.4,3.2-0.6,4.8c0.5-3.3,1.4-6.4,2.7-9.4c-0.6,1.4-1.2,2.9-1.8,4.3
			c1.7-3.8,3.8-7.3,6.3-10.6c-0.9,1.2-1.9,2.4-2.8,3.6c3.3-4.2,7.1-8,11.3-11.3c-1.2,0.9-2.4,1.9-3.6,2.8c4.7-3.6,9.7-6.5,15.1-8.9
			c-1.4,0.6-2.9,1.2-4.3,1.8c5.9-2.5,12.1-4.2,18.4-5.1c-1.6,0.2-3.2,0.4-4.8,0.6c6.1-0.8,12.2-0.8,18.3,0c-1.6-0.2-3.2-0.4-4.8-0.6
			c5.5,0.8,10.8,2.3,15.9,4.4c-1.4-0.6-2.9-1.2-4.3-1.8c8.9,3.8,17.1,9.2,25.9,13.2c9.9,4.5,20.1,7.9,31.2,7.4
			c11.3-0.5,22.2-4.1,30.5-12c8.5-7.9,12.6-20.2,11.8-31.7c-0.8-11-4.7-21.3-6.2-32.2c0.2,1.6,0.4,3.2,0.6,4.8
			c-0.4-3.2-0.6-6.5-0.2-9.7c-0.2,1.6-0.4,3.2-0.6,4.8c0.4-2.9,1.2-5.7,2.3-8.4c-0.6,1.4-1.2,2.9-1.8,4.3c1.4-3.2,3.3-6.2,5.4-9.1
			c-0.9,1.2-1.9,2.4-2.8,3.6c10.4-13.5,25.3-22.9,33.8-38c4.9-8.7,7.7-19.1,6.6-29.1c-1.1-10.2-4.5-19.6-10-28.3
			c-5.5-8.8-12.3-16.7-18.6-24.8c0.9,1.2,1.9,2.4,2.8,3.6c-5.1-6.7-10.1-13.6-13.4-21.4c0.6,1.4,1.2,2.9,1.8,4.3
			c-1.5-3.6-2.6-7.2-3.1-11.1c0.2,1.6,0.4,3.2,0.6,4.8c-0.4-3.3-0.5-6.7-0.1-10c-0.2,1.6-0.4,3.2-0.6,4.8c0.5-3.4,1.4-6.7,2.7-9.9
			c-0.6,1.4-1.2,2.9-1.8,4.3c1.5-3.4,3.3-6.5,5.5-9.4c-0.9,1.2-1.9,2.4-2.8,3.6c3.2-4.1,6.9-7.7,11-10.9c-1.2,0.9-2.4,1.9-3.6,2.8
			c6.5-5,13.8-9,21.3-12.2c-1.4,0.6-2.9,1.2-4.3,1.8c9-3.8,18.4-6.5,28-8.2c4.2-0.8,8.6-4.7,10.7-8.2c2.2-3.8,3.2-9.5,1.8-13.8
			c-1.4-4.3-4.1-8.5-8.2-10.7c-4.5-2.4-8.8-2.7-13.8-1.8c-12.2,2.2-23.8,6.1-35,11.2c-10.6,4.8-20.8,11.4-28.9,19.7
			c-8.5,8.6-15.3,19.7-17.1,31.8c-1.2,7.9-1.1,15.1,0.6,23c1.3,5.9,3.8,11.6,6.6,16.9c5.9,11.1,14.4,20.6,22,30.5
			c-0.9-1.2-1.9-2.4-2.8-3.6c4.8,6.3,9.5,12.8,12.7,20.1c-0.6-1.4-1.2-2.9-1.8-4.3c1.3,3.2,2.2,6.4,2.7,9.8
			c-0.2-1.6-0.4-3.2-0.6-4.8c0.3,2.9,0.3,5.7,0,8.5c0.2-1.6,0.4-3.2,0.6-4.8c-0.4,2.7-1.1,5.4-2.2,7.9c0.6-1.4,1.2-2.9,1.8-4.3
			c-1.5,3.5-3.5,6.7-5.8,9.7c0.9-1.2,1.9-2.4,2.8-3.6c-7.3,9.4-16.9,16.6-24.7,25.6c-5.5,6.5-9.7,12.9-12.8,20.8
			c-3.4,8.8-3,18.1-1.7,27.2c1.2,8.3,4.2,16.3,5.3,24.7c-0.2-1.6-0.4-3.2-0.6-4.8c0.3,2.8,0.4,5.6,0.1,8.5c0.2-1.6,0.4-3.2,0.6-4.8
			c-0.3,2-0.8,4-1.6,5.9c0.6-1.4,1.2-2.9,1.8-4.3c-0.7,1.6-1.5,3.1-2.6,4.5c0.9-1.2,1.9-2.4,2.8-3.6c-1.1,1.4-2.4,2.7-3.8,3.8
			c1.2-0.9,2.4-1.9,3.6-2.8c-1.7,1.2-3.4,2.2-5.3,3c1.4-0.6,2.9-1.2,4.3-1.8c-2.6,1.1-5.3,1.7-8.1,2.1c1.6-0.2,3.2-0.4,4.8-0.6
			c-3.4,0.4-6.8,0.3-10.1-0.1c1.6,0.2,3.2,0.4,4.8,0.6c-4.3-0.6-8.3-1.9-12.3-3.5c1.4,0.6,2.9,1.2,4.3,1.8
			c-14-5.9-26.4-15.1-41.2-19c-13.9-3.7-28.8-3.5-42.8-0.1c-29.1,7.2-57.4,31.5-59.6,62.9c-0.7,11.1,3.8,21.2,10.5,29.6
			c4.8,6,11.1,10.4,17.1,15c-1.2-0.9-2.4-1.9-3.6-2.8c4.5,3.5,9,7,12.5,11.5c-0.9-1.2-1.9-2.4-2.8-3.6c2,2.6,3.6,5.4,5,8.4
			c-0.6-1.4-1.2-2.9-1.8-4.3c1.6,3.8,2.6,7.8,3.2,11.9c-0.2-1.6-0.4-3.2-0.6-4.8c3.2,24.2-5.7,48.6,1.4,72.6
			c4.2,14.3,13.5,26.3,26.3,34c10.6,6.3,22.8,9.4,34.8,11.7c12.7,2.4,25.7,4.3,37.7,9.3c-1.4-0.6-2.9-1.2-4.3-1.8
			c4.4,1.9,8.6,4.2,12.4,7.1c-1.2-0.9-2.4-1.9-3.6-2.8c4,3.1,7.5,6.7,10.6,10.7c-0.9-1.2-1.9-2.4-2.8-3.6c3.2,4.2,5.9,8.8,8,13.7
			c-0.6-1.4-1.2-2.9-1.8-4.3c2.3,5.4,3.8,10.9,4.6,16.7c-0.2-1.6-0.4-3.2-0.6-4.8c0.7,5.3,0.7,10.5,0,15.8c0.2-1.6,0.4-3.2,0.6-4.8
			c-0.6,4.5-1.8,9-3.5,13.2c-1.6,4-0.3,10.2,1.8,13.8c2.2,3.7,6.4,7.3,10.7,8.2c4.6,1,9.7,0.8,13.8-1.8
			C1158,685.1,1160.2,681.6,1162.1,677.1L1162.1,677.1z"/>
	</g>
</g>
</svg>
