<?xml version="1.0" encoding="iso-8859-1"?>
<!-- Generator: Adobe Illustrator 25.3.1, SVG Export Plug-In . SVG Version: 6.00 Build 0)  -->
<svg version="1.1" id="Layer_1" xmlns="http://www.w3.org/2000/svg" xmlns:xlink="http://www.w3.org/1999/xlink" x="0px" y="0px"
	 viewBox="0 0 4320 4320" style="enable-background:new 0 0 4320 4320;" xml:space="preserve">
<g>
	<path style="fill:#FCC70B;" d="M1288.189,2379.485c0.181-239.713,43.494-464.48,222.943-641.863
		c12.281-12.14,24.339-25.812,39.166-33.857c97.846-53.085,157.219-142.3,218.782-229.631
		c58.661-15.549,117.322-31.099,175.982-46.649c22.117,10.505,33.547,32.315,50.432,48.345c41.859,39.74,60.856,39.22,96.361-5.809
		c5.131-6.507,11.52-12.028,17.38-17.954c17.918-18.12,33.029-15.594,46.821,5.455c24.787,37.828,34.534,81.099,44.218,124.031
		c21.289,94.39,30.802,191.884,85.613,276.351c31.659,48.788,59.024,100.338,81.804,154.211
		c19.578,46.301,23.681,96.289,37.14,143.994c-2.132,1.316-4.129,2.956-6.414,3.902c-224.972,93.24-355.792,260.603-394.264,500.703
		c-48.107,7.888-96.65,10.029-145.151,7.417c-95.166-5.125-180.58-34.573-237.838-115.387
		C1539.26,2437.141,1434.265,2369.84,1288.189,2379.485z M1456.193,2079.778c1.726,19.251,2.66,37.121,5.026,54.799
		c12.575,93.988,30.3,186.019,102,256.531c31.438,30.917,67.717,32.323,117.707,5.713c36.196-19.268,39.137-50.816,32.66-85.615
		c-10.72-57.598-12.682-114.902-3.582-173.192c13.063-83.681,50.793-159.533,72.466-240.327
		c17.049-63.557,1.544-106.821-44.232-134.55c-49.362-29.901-98.066-24.65-146.111,17.45
		C1501.422,1860.07,1464.222,1963.911,1456.193,2079.778z"/>
	<path style="fill:#FCC70B;" d="M1288.189,2379.485c146.076-9.645,251.071,57.656,332.975,173.258
		c57.257,80.815,142.672,110.263,237.838,115.387c48.501,2.612,97.045,0.47,145.152-7.417
		c-12.042,105.829,0.077,208.631,38.615,308.121c11.386,23.555,22.344,47.329,34.25,70.618
		c22.715,44.433,55.597,81.837,85.123,121.553c-116.692,103.946-200.942,109.702-317.004,20.855
		c-19.822-15.174-37.627-32.957-56.912-48.869c-9.728-8.026-20.011-15.884-31.184-21.579
		c-290.102-147.875-455.889-377.967-469.528-708.884C1287.197,2394.869,1287.94,2387.167,1288.189,2379.485z"/>
	<path style="fill:#608C3D;" d="M1944.551,1426.336c-1.462,0.607-2.939,1.234-4.433,1.879c-22.816,9.85-48.117,13.336-72.006,19.668
		c-33.01,8.75-66.021,17.501-99.031,26.251c-66.44,10.705-132.762,20.945-200.306,24.018
		c-153.721,6.994-276.985-49.828-374.235-168.309c-92.931-113.219-162.442-239.522-216.532-374.949
		c258.416,59.507,504.411,153.913,743.528,266.916c82.868,39.162,162.251,85.031,234.267,142.632
		c3.169,2.535,13.909,18.462,16.778,0.505c2.315-14.485,7.935-30.024,1.047-45.159c11.608-11.431,8.498-27.236,11.561-41.004
		c19.602-88.09,51.365-171.76,97.399-248.973c16.103-27.01,42.55-4.017,64.099,1.516
		c-62.943,121.804-110.484,248.196-115.373,387.295c-10.071,3.459-19.453,5.157-30.739,1.759
		C1979.906,1414.158,1963.443,1418.499,1944.551,1426.336z"/>
	<path style="fill:#527234;" d="M1973.628,1319.787c6.888,15.135,1.268,30.675-1.047,45.159c-2.87,17.957-13.609,2.03-16.778-0.505
		c-72.015-57.601-151.398-103.47-234.267-142.632c-239.117-113.003-485.112-207.409-743.528-266.916
		c-3.614-6.668-9.397-12.661,3.642-16.982c163.79-54.283,329.412-97.015,504.344-89.003
		c104.468,4.785,189.795,47.731,260.875,122.791C1843.707,1073.957,1914.184,1193.243,1973.628,1319.787z"/>
	<path style="fill:#FCC70B;" d="M1945.063,1427.485c16.977-14.084,36.637-12.787,55.513-7.103c11.286,3.398,20.668,1.7,30.739-1.758
		c25.299-0.542,22.396-24.019,31.006-38.134c66.229,13.23,121.694,49.281,159.952,100.998
		c72.028,97.369,158.988,176.714,252.007,253.331c121.942,100.44,191.948,236.612,227.937,390.046
		c-13.261-1.152-26.504-2.614-39.788-3.407c-88.114-5.263-173.961,6.516-257.596,34.651c-13.459-47.705-17.562-97.693-37.14-143.994
		c-22.78-53.873-50.145-105.423-81.804-154.211c-54.812-84.467-64.324-181.961-85.613-276.351
		c-9.683-42.932-19.43-86.203-44.218-124.031c-13.792-21.049-28.903-23.575-46.821-5.455c-5.86,5.926-12.249,11.447-17.38,17.954
		c-35.505,45.029-54.502,45.549-96.361,5.809C1978.61,1459.8,1967.18,1437.99,1945.063,1427.485z"/>
	<path style="fill:#F9D80F;" d="M2162.142,3161.005c-29.526-39.716-62.407-77.12-85.123-121.553
		c-11.906-23.289-22.864-47.063-34.251-70.618c10.759-12.934,21.519-25.868,32.279-38.803c1.674,3.442,3.601,6.786,4.984,10.341
		c159.765,410.651,678.842,504.076,973.764,175.239c186.631-208.093,186.141-559.448-1.051-752.863
		c-0.191-11.344-7.999-18.159-15-25.557c-32.509-34.353-70.661-61.759-109.053-88.88c15.378-5.003,30.757-10.006,46.135-15.01
		c146.345,102.99,234.721,243.753,256.934,420.287c43.582,346.369-176.916,642.39-521.25,697.301
		c-205.051,32.699-383.563-31.229-532.596-176.195C2172.933,3169.848,2167.412,3165.555,2162.142,3161.005z"/>
	<path style="fill:#F9D80F;" d="M2075.047,2930.031c-10.76,12.935-21.519,25.869-32.279,38.803
		c-38.537-99.49-50.657-202.292-38.615-308.121c38.472-240.1,169.291-407.463,394.264-500.703c2.285-0.947,4.282-2.586,6.414-3.902
		c83.635-28.135,169.482-39.914,257.596-34.651c13.283,0.793,26.526,2.255,39.788,3.407
		c99.228,15.133,191.28,48.306,272.612,108.437c-15.378,5.003-30.756,10.007-46.135,15.01
		c-125.169-73.751-259.877-102.408-402.941-76.341c-206.098,37.552-352.726,153.127-436.749,346.198
		c-1.112,2.599-2.224,5.198-3.336,7.797c-1.418,3.833-2.836,7.665-4.253,11.498c-4.833,14.159-9.665,28.319-14.497,42.478
		c-0.504,2.468-1.008,4.936-1.512,7.405c-0.874,2.661-1.748,5.322-2.621,7.983c-0.453,2.46-0.906,4.92-1.359,7.38
		c-2.125,9.092-4.249,18.183-6.374,27.275c-0.301,2.512-0.601,5.024-0.902,7.535c-1.014,5.19-2.029,10.381-3.043,15.572
		c-0.369,3.763-0.738,7.525-1.107,11.288c-0.977,7.784-1.953,15.569-2.93,23.353c-0.345,6.302-0.69,12.605-1.035,18.907
		c-0.953,7.477-2.636,14.943-2.747,22.432C2042.267,2797.871,2054.335,2864.644,2075.047,2930.031z"/>
	<path style="fill:#608C3D;" d="M2060.869,1380.639c0.093,0.658,0.152,1.319,0.161,1.986c0.035,2.556-0.668,5.063-1.482,7.487
		c-2.651,7.902-7.038,19.505-14.015,24.539c-1.376,0.993-14.244,4.662-14.219,3.973c4.889-139.101,52.43-265.493,115.373-387.296
		c21.35,5.866,26.28,14.598,13.159,36.085c-28.506,46.682-51.528,96.637-68.675,148.572c-8.538,25.861-15.631,52.194-21.336,78.823
		c-5.093,23.772-15.718,55.911-10.284,79.915C2059.998,1376.691,2060.588,1378.648,2060.869,1380.639z"/>
	<path style="fill:#FCC70B;" d="M1456.193,2079.778c8.03-115.868,45.229-219.708,135.934-299.192
		c48.045-42.101,96.749-47.351,146.111-17.45c45.776,27.729,61.281,70.993,44.232,134.55
		c-21.673,80.794-59.403,156.646-72.466,240.327c-9.1,58.291-7.138,115.594,3.582,173.192c6.477,34.799,3.536,66.347-32.66,85.615
		c-49.991,26.61-86.269,25.204-117.707-5.713c-71.7-70.513-89.425-162.544-102-256.531
		C1458.853,2116.899,1457.919,2099.029,1456.193,2079.778z"/>
	<path style="fill:#F8F0D2;" d="M2075.047,2930.031c-20.712-65.387-32.78-132.16-31.762-200.961
		c0.111-7.489,1.794-14.955,2.748-22.431c8.591,10.645,2.893,23.094,4.298,34.643c2.949,24.224,2.9,49.769,30.414,61.854
		c3.425,53.755,13.302,105.456,46.756,149.891c19.313,25.653,43.3,33.954,74.28,23.055c44.302-15.586,86.476-35.811,127.442-58.366
		c72.99-40.186,146.03-80.608,206.321-139.562c15.495-15.151,26.633-31.794,0.156-47.783c1.042-9.806,9.985-10.807,16.403-14.136
		c29.312-15.205,58.83-30.014,88.273-44.965c9.384,11.8,23.821,11.954,31.639,3.732c9.54-10.032-10.264-8.373-11.626-16.291
		c-1.014-5.896-3.12-11.604-4.74-17.395c24.157,29.1,56.784,27.532,89.736,24.784c-2.932,1.207-5.793,3.226-8.809,3.493
		c-26.474,2.346-52.934,13.267-52.541,40.396c0.413,28.496,33.11,27.804,54.178,32.428
		c114.281,25.083,230.288,25.872,346.529,21.624c37.18-1.359,66.138-14.069,70.416-55.573
		c7.033-68.226-6.978-131.585-49.463-186.795c-18.632-24.213-43.117-33.642-73.237-23.466
		c-102.85,34.749-197.532,85.376-286.297,147.479c-2.049-2.345-4.099-4.69-6.149-7.035c39.631-32.441,79.261-64.882,118.892-97.323
		c47.074-18.332,83.457-52.422,121.336-83.869c31.082-25.803,64.67-50.682,72.505-94.712
		c187.19,193.416,187.68,544.772,1.049,752.865c-294.923,328.837-814,235.412-973.764-175.239
		C2078.648,2936.817,2076.72,2933.473,2075.047,2930.031z M2531.889,2807.302c0,0,0.203-0.241,0.203-0.241
		c-4.671,1.36-10.109,1.613-13.9,4.241c-100.226,69.489-188.759,151.534-264.543,247.212c-17.265,21.797-15.047,44.988-1.516,66.367
		c36.743,58.055,90.384,93.497,156.549,109.522c37.869,9.172,65.107-3.379,81.753-41.273c46.96-106.9,78.096-218.092,94.72-333.445
		c1.761-12.217-0.521-25.018-0.927-37.548c-9.985,5.335-19.911,10.785-29.987,15.942c-3.347,1.713-7.079,2.674-10.634,3.978
		c0.082-12.066,12.31-13.388,18.235-20.323c12.563-14.703,30.059-26.263,30.5-48.134c0.052-2.604-7.608-7.929-11.337-7.624
		c-23.428,1.913-36.592,17.342-45.668,37.345C2534.188,2804.647,2533.039,2805.975,2531.889,2807.302z M2745.37,2816.318
		c-11.128,2.662-22.13,6.443-33.415,7.708c-14.694,1.647-13.195,6.675-5.751,15.995c71.626,89.672,152.641,169.662,243.751,239.583
		c32.453,24.906,60.423,15.278,85.851-8.976c46.182-44.047,73.901-98.369,80.263-162.03c2.548-25.489-2.044-52.479-28.758-64.368
		c-121.819-54.222-249.128-86.641-382.894-90.297c-13.569-0.371-31.058-0.403-34.425,20.051
		c-18.169,8.964-15.12,18.533-1.324,29.278C2692.008,2821.439,2718.843,2817.659,2745.37,2816.318z M2582.453,3091.191
		c0,31.371-1.611,62.847,0.413,94.087c2.456,37.915,4.161,78.247,54.024,87.288c66.525,12.062,128.958,0.181,185.968-35.795
		c25.276-15.95,43.375-38.845,31.669-71.071c-44.996-123.863-106.866-238.517-193.463-338.461
		c-28.512-32.907-44.786-28.038-56.659,14.235C2581.468,2923.141,2582.625,3007.444,2582.453,3091.191z"/>
	<path style="fill:#F8F0D2;" d="M2080.745,2803.136c-27.514-12.086-27.465-37.631-30.414-61.854
		c-1.406-11.549,4.292-23.998-4.298-34.643c0.344-6.303,0.689-12.605,1.034-18.908c11.904-6.413,8.384-14.761,2.93-23.353
		c0.369-3.763,0.738-7.525,1.107-11.288c9.547-3.522,8.529-9.11,3.043-15.572c0.301-2.512,0.601-5.024,0.901-7.535
		c9.301-7.414,12.501-16.254,6.374-27.275c0.453-2.46,0.906-4.92,1.358-7.38c5.02-1.299,8.431-3.126,2.621-7.982
		c0.504-2.468,1.009-4.936,1.512-7.405c11.404-11.916,16.072-26.132,14.498-42.478c1.418-3.833,2.836-7.666,4.253-11.498
		c4.625-1.096,8.706-2.424,3.336-7.797c84.023-193.071,230.651-308.646,436.749-346.198
		c143.064-26.067,277.773,2.591,402.941,76.341c38.392,27.121,76.544,54.527,109.053,88.88c7.001,7.398,14.808,14.213,15,25.557
		c-7.833,44.028-41.422,68.907-72.503,94.71c-37.879,31.447-74.262,65.538-121.335,83.869
		c38.587-39.271,77.25-78.465,115.732-117.837c27.992-28.639,25.212-58.212,1.408-87.582
		c-38.099-47.009-87.474-76.652-145.899-90.473c-41.793-9.887-72.857,2.581-92.08,44.553
		c-37.776,82.482-66.468,167.833-86.647,256.07c-9.392,41.068-20.064,82.365-11.045,125.209
		c-29.444,14.951-58.961,29.76-88.273,44.965c-6.418,3.329-15.362,4.331-16.403,14.136
		c-117.458-31.909-237.161-30.781-357.194-23.979C2099.822,2710.85,2085.806,2725.02,2080.745,2803.136z M2497.221,2710.929
		c20.731-2.981,45.961,4.374,56.416-14.846c11.183-20.557-9.676-37.467-19.669-54.787c-0.956-1.657-2.21-3.153-3.408-4.658
		c-72.8-91.464-157.534-170.26-251.637-239.455c-31.459-23.132-59.646-18.903-87.126,4.536
		c-44.906,38.302-74.248,86.753-86.55,144.279c-7.642,35.737-5.985,70.202,35.938,86.491
		C2256.269,2677.203,2375.952,2700.782,2497.221,2710.929z M2646.995,2359.514c0-28.88,0.415-57.768-0.105-86.639
		c-0.654-36.295-13.036-64.65-53.701-69.955c-67.05-8.747-128.897,5.983-184.311,44.779c-28.229,19.763-38.987,46.533-26.894,80.655
		c40.799,115.117,95.953,222.553,171.286,319.036c10.4,13.32,22.352,31.327,41.204,27.263c19.11-4.12,21.36-25.919,25.526-42.163
		C2642.962,2542.971,2647.212,2451.366,2646.995,2359.514z"/>
	<path style="fill:#F4E7B8;" d="M2081.412,2537.463c1.574,16.346-3.094,30.562-14.498,42.478
		C2071.748,2565.781,2076.58,2551.622,2081.412,2537.463z"/>
	<path style="fill:#F4E7B8;" d="M2061.423,2602.708c6.127,11.02,2.927,19.86-6.374,27.275
		C2057.174,2620.891,2059.298,2611.8,2061.423,2602.708z"/>
	<path style="fill:#F4E7B8;" d="M2049.997,2664.378c5.454,8.591,8.973,16.94-2.93,23.353
		C2048.044,2679.947,2049.02,2672.162,2049.997,2664.378z"/>
	<path style="fill:#F4E7B8;" d="M2054.147,2637.518c5.486,6.461,6.503,12.049-3.044,15.572
		C2052.119,2647.899,2053.133,2642.708,2054.147,2637.518z"/>
	<path style="fill:#F4E7B8;" d="M2089.002,2518.168c5.369,5.373,1.288,6.701-3.336,7.797
		C2086.778,2523.366,2087.89,2520.767,2089.002,2518.168z"/>
	<path style="fill:#F4E7B8;" d="M2065.403,2587.345c5.81,4.856,2.398,6.684-2.621,7.982
		C2063.655,2592.667,2064.529,2590.006,2065.403,2587.345z"/>
	<path style="fill:#F9D80F;" d="M2582.453,3091.191c0.172-83.747-0.985-168.05,21.953-249.718
		c11.873-42.272,28.147-47.141,56.659-14.235c86.597,99.944,148.468,214.598,193.463,338.461
		c11.706,32.226-6.393,55.121-31.669,71.071c-57.01,35.976-119.443,47.857-185.968,35.795
		c-49.863-9.041-51.568-49.374-54.024-87.288C2580.842,3154.038,2582.453,3122.562,2582.453,3091.191z"/>
	<path style="fill:#F9D80F;" d="M2080.745,2803.136c5.06-78.116,19.077-92.286,97.761-96.745
		c120.033-6.802,239.736-7.93,357.194,23.979c26.477,15.99,15.338,32.633-0.157,47.784
		c-60.292,58.954-133.331,99.375-206.321,139.562c-40.966,22.555-83.14,42.78-127.442,58.366
		c-30.98,10.899-54.966,2.598-74.28-23.055C2094.047,2908.592,2084.171,2856.891,2080.745,2803.136z"/>
	<path style="fill:#F9D80F;" d="M2746.163,2645.686c88.766-62.104,183.448-112.731,286.298-147.48
		c30.119-10.176,54.604-0.747,73.237,23.466c42.485,55.21,56.495,118.569,49.463,186.795c-4.278,41.504-33.237,54.214-70.416,55.573
		c-116.24,4.248-232.247,3.459-346.529-21.624c-21.068-4.624-53.766-3.932-54.178-32.428c-0.393-27.129,26.067-38.05,52.541-40.396
		c3.016-0.267,5.876-2.287,8.803-3.497c5.099-1.893,10.203-3.782,15.307-5.671
		C2755.846,2655.512,2751.005,2650.599,2746.163,2645.686z"/>
	<path style="fill:#F9D80F;" d="M2640.377,2671.269c-9.019-42.844,1.653-84.141,11.045-125.209
		c20.179-88.237,48.87-173.588,86.647-256.07c19.223-41.972,50.287-54.44,92.08-44.553c58.425,13.821,107.8,43.464,145.899,90.473
		c23.803,29.37,26.583,58.944-1.408,87.582c-38.482,39.372-77.145,78.567-115.732,117.837
		c-39.632,32.441-79.262,64.882-118.893,97.323c-11.712-4.212-23.147-9.681-35.201-12.345
		c-18.692-4.132-39.169-10.734-49.163,15.009c1.62,5.792,3.726,11.5,4.74,17.395c1.362,7.918,21.166,6.259,11.626,16.291
		C2664.198,2683.223,2649.76,2683.069,2640.377,2671.269z"/>
	<path style="fill:#F9D80F;" d="M2543.607,2842.057c3.556-1.305,7.288-2.265,10.635-3.979c10.076-5.157,20.002-10.606,29.987-15.942
		c0.406,12.53,2.688,25.33,0.927,37.548c-16.624,115.353-47.761,226.545-94.72,333.445c-16.646,37.895-43.884,50.445-81.753,41.273
		c-66.165-16.025-119.805-51.466-156.549-109.522c-13.531-21.379-15.749-44.57,1.516-66.367
		c75.784-95.678,164.317-177.724,264.543-247.212c3.792-2.629,9.229-2.881,13.901-4.241c-2.403,7.819-4.734,15.661-7.224,23.452
		c-5.171,16.176-5.206,16.165,3.333,19.256c2.681-1.281,5.362-2.561,8.042-3.842
		C2538.698,2844.636,2541.152,2843.346,2543.607,2842.057z"/>
	<path style="fill:#F9D80F;" d="M2669.995,2773.984c3.367-20.454,20.856-20.422,34.425-20.051
		c133.766,3.656,261.075,36.076,382.894,90.297c26.713,11.89,31.305,38.879,28.758,64.368
		c-6.363,63.661-34.081,117.983-80.263,162.03c-25.429,24.253-53.398,33.881-85.851,8.976
		c-91.11-69.921-172.125-149.911-243.751-239.583c-7.444-9.319-8.943-14.347,5.751-15.995c11.284-1.265,22.287-5.046,33.409-7.712
		c5.156-2.283,10.318-4.562,15.479-6.841c-1.889-2.2-3.357-5.145-5.73-6.488C2728.585,2787.975,2703.706,2767.933,2669.995,2773.984
		z"/>
	<path style="fill:#F6F6F6;" d="M2655.65,2641.315c9.994-25.743,30.471-19.141,49.163-15.009
		c12.054,2.664,23.489,8.133,35.201,12.345c2.05,2.345,4.1,4.69,6.149,7.035c4.841,4.913,9.683,9.826,14.524,14.739
		c-5.104,1.889-10.208,3.778-15.307,5.671C2712.434,2668.847,2679.807,2670.415,2655.65,2641.315z"/>
	<path style="fill:#F6F6F6;" d="M2669.995,2773.984c33.711-6.051,58.591,13.99,85.119,29.001c2.374,1.343,3.842,4.287,5.73,6.488
		c-5.162,2.279-10.323,4.558-15.479,6.841c-26.522,1.344-53.357,5.125-76.695-13.052
		C2654.875,2792.517,2651.825,2782.948,2669.995,2773.984z"/>
	<path style="fill:#F6F6F6;" d="M2528.201,2849.769c-8.538-3.091-8.503-3.08-3.333-19.257c2.49-7.791,4.822-15.633,7.224-23.452
		c0,0-0.204,0.241-0.203,0.241c1.149-1.327,2.299-2.655,3.448-3.982c9.075-20.003,22.24-35.433,45.667-37.345
		c3.729-0.304,11.39,5.021,11.337,7.624c-0.44,21.871-17.937,33.431-30.5,48.134c-5.926,6.935-18.154,8.257-18.236,20.323
		c-2.455,1.29-4.909,2.58-7.364,3.87C2533.562,2847.207,2530.881,2848.488,2528.201,2849.769z"/>
	<path style="fill:#F9D80F;" d="M2535.337,2803.32c-1.149,1.327-2.298,2.655-3.448,3.982
		C2533.039,2805.975,2534.188,2804.647,2535.337,2803.32z"/>
	<path style="fill:#F9D80F;" d="M2497.221,2710.929c-121.27-10.147-240.952-33.726-356.035-78.441
		c-41.923-16.289-43.58-50.754-35.938-86.491c12.302-57.525,41.644-105.977,86.55-144.279c27.48-23.439,55.667-27.668,87.126-4.536
		c94.103,69.195,178.838,147.991,251.637,239.455c1.198,1.505,2.452,3.001,3.408,4.658c9.993,17.321,30.853,34.23,19.669,54.787
		C2543.182,2715.303,2517.952,2707.948,2497.221,2710.929z"/>
	<path style="fill:#F9D80F;" d="M2646.995,2359.514c0.217,91.852-4.032,183.457-26.994,272.977
		c-4.167,16.244-6.417,38.043-25.526,42.163c-18.853,4.064-30.805-13.943-41.204-27.263
		c-75.333-96.483-130.487-203.919-171.286-319.036c-12.094-34.122-1.335-60.892,26.894-80.655
		c55.414-38.796,117.261-53.526,184.311-44.779c40.665,5.305,53.047,33.659,53.701,69.955
		C2647.41,2301.746,2646.995,2330.634,2646.995,2359.514z M2609.755,2622.172c-2.075-26.955-31.19-42.669-57.432-60.496
		c-4.894-3.325-9.446-0.578-8.163,5.469c6.123,28.859,4.39,60.729,30.094,82.394c7.133,6.011,15.232,10.04,24.623,5.615
		C2608.299,2650.715,2610.195,2642.026,2609.755,2622.172z"/>
	<path style="fill:#F4E7B8;" d="M2528.201,2849.769c2.68-1.281,5.361-2.562,8.042-3.843
		C2533.563,2847.208,2530.882,2848.488,2528.201,2849.769z"/>
	<path style="fill:#F6F6F6;" d="M2609.755,2622.172c0.44,19.853-1.456,28.543-10.877,32.981c-9.39,4.424-17.49,0.396-24.623-5.615
		c-25.704-21.664-23.972-53.535-30.094-82.394c-1.283-6.047,3.269-8.794,8.163-5.469
		C2578.565,2579.503,2607.68,2595.218,2609.755,2622.172z"/>
</g>
<path style="fill:#F9D80F;" d="M1659.578,2565.392c-73.361-24.712-127.415-74.351-165.626-139.594
	c-93.152-159.05-50.71-364.901,86.905-480.956c69.395-58.522,153.789-85.626,246.276-79.695
	c41.472,2.66,73.515,36.694,72.178,74.985c-1.351,38.718-33.775,69.209-77.646,68.543
	c-195.492-2.967-265.184,192.291-216.125,314.97c20.033,50.097,58.237,83.325,102.09,112.767
	c49.325,33.115,45.191,92.111-5.342,123.106C1688.185,2568.17,1674.801,2566.998,1659.578,2565.392z"/>
<circle style="fill:#F8F0D2;" cx="2619.34" cy="2740.849" r="569.217"/>
<g>
	<g>
		<path style="fill:#F9D80F;" d="M2590.265,2810.463c3.624,6.423,2.161,11.558,2.166,16.446
			c0.104,123.094,0.097,246.187,0.076,369.28c-0.006,34.613-12.847,44.089-49.734,39.05
			c-56.087-7.662-108.228-25.662-157.508-51.495c-22.366-11.725-27.112-30.331-13.349-50.731
			c69.279-102.69,138.646-205.328,208.005-307.971C2583.071,2820.379,2586.437,2815.847,2590.265,2810.463z"/>
		<path style="fill:#F9D80F;" d="M2646.33,2814.508c14.434,21.919,28.528,43.085,42.376,64.395
			c55.039,84.693,110.025,169.416,164.976,254.16c16.829,25.953,10.978,45.035-17.76,59.207
			c-47.358,23.356-97.984,37.077-150.446,45.168c-18.871,2.91-35.249-8.803-40.409-27.298c-1.436-5.148-1.291-10.249-1.292-15.396
			c-0.032-122.54-0.043-245.079,0.059-367.619C2643.836,2823.452,2642.203,2819.403,2646.33,2814.508z"/>
		<path style="fill:#F9D80F;" d="M2694.706,2792.099c21.012,3.368,37.262,16.347,55.38,25.259
			c56.167,27.625,111.504,56.749,167.237,85.162c36.442,18.579,73.098,36.788,109.496,55.442
			c26.868,13.771,31.625,30.76,15.343,55.535c-22.581,34.36-50.352,64.866-80.031,93.871c-3.358,3.281-7.336,6.061-11.287,8.729
			c-20.094,13.573-39.731,10.734-53.072-9.073c-24.823-36.854-48.841-74.191-73.065-111.403
			c-42.075-64.633-84.043-129.328-126.093-193.975c-1.909-2.935-4.399-5.574-4.134-9.337L2694.706,2792.099z"/>
		<path style="fill:#F9D80F;" d="M2537.603,2792.692c-0.411,7.333-5.449,12.76-9.274,18.441
			c-64.649,96.029-129.514,191.929-194.346,287.848c-1.311,1.939-2.825,3.754-4.209,5.65c-14.323,19.618-32.413,21.905-50.464,5.657
			c-31.436-28.297-58.662-59.909-81.79-94.637c-2.593-3.893-5.417-7.665-7.755-11.689c-10.436-17.956-6.035-35.572,12.506-45.99
			c16.207-9.106,33.074-17.181,49.761-25.512c92.063-45.96,184.155-91.868,276.273-137.728c2.625-1.307,5.663-1.876,8.509-2.79
			L2537.603,2792.692z"/>
		<path style="fill:#F9D80F;" d="M2741.531,2755.188c4.353-2.062,9.122-0.957,13.645-0.96c109.86-0.081,219.733,0.776,329.573-0.602
			c30.702-0.385,46.746,19.593,40.49,46.464c-7.299,31.346-13.107,62.97-23.924,93.486c-9.106,25.69-27.728,33.11-52.454,20.54
			c-100.839-51.266-201.57-102.721-302.301-154.176C2744.634,2758.956,2741.803,2758.515,2741.531,2755.188z"/>
		<path style="fill:#F9D80F;" d="M2491.251,2757.65c-24.548,12.443-49.032,24.998-73.655,37.307
			c-76.924,38.454-153.911,76.798-230.851,115.223c-22.625,11.299-41.377,5.816-49.845-16.588
			c-12.051-31.884-20.452-64.848-24.355-98.511c-3.176-27.388,10.79-40.816,39.996-40.83c108.536-0.054,217.071-0.021,325.607-0.02
			c4.148,0,8.296,0,12.444,0C2490.812,2755.37,2491.031,2756.51,2491.251,2757.65z"/>
	</g>
	<g>
		<path style="fill:#F9D80F;" d="M2648.415,2671.235c-3.624-6.423-2.161-11.558-2.165-16.446
			c-0.104-123.094-0.097-246.187-0.076-369.28c0.006-34.613,12.847-44.089,49.734-39.049
			c56.087,7.662,108.228,25.662,157.508,51.495c22.366,11.725,27.112,30.331,13.349,50.731
			c-69.279,102.69-138.647,205.328-208.006,307.971C2655.608,2661.318,2652.243,2665.851,2648.415,2671.235z"/>
		<path style="fill:#F9D80F;" d="M2592.35,2667.189c-14.433-21.919-28.528-43.085-42.376-64.395
			c-55.039-84.693-110.025-169.416-164.976-254.16c-16.829-25.953-10.978-45.035,17.76-59.207
			c47.358-23.356,97.984-37.077,150.446-45.168c18.871-2.91,35.25,8.803,40.409,27.298c1.436,5.148,1.291,10.249,1.292,15.396
			c0.032,122.54,0.043,245.079-0.059,367.619C2594.844,2658.245,2596.477,2662.295,2592.35,2667.189z"/>
		<path style="fill:#F9D80F;" d="M2543.973,2689.598c-21.012-3.368-37.262-16.347-55.38-25.259
			c-56.167-27.625-111.504-56.749-167.237-85.162c-36.443-18.579-73.098-36.788-109.496-55.442
			c-26.869-13.771-31.625-30.76-15.343-55.535c22.581-34.36,50.352-64.866,80.03-93.871c3.358-3.281,7.336-6.061,11.287-8.729
			c20.094-13.573,39.731-10.734,53.072,9.073c24.823,36.854,48.841,74.191,73.065,111.403
			c42.075,64.633,84.043,129.328,126.094,193.975c1.909,2.935,4.399,5.574,4.134,9.337L2543.973,2689.598z"/>
		<path style="fill:#F9D80F;" d="M2701.077,2689.006c0.411-7.333,5.449-12.76,9.274-18.441
			c64.648-96.029,129.513-191.929,194.346-287.848c1.311-1.939,2.825-3.754,4.209-5.65c14.323-19.618,32.413-21.905,50.464-5.657
			c31.436,28.297,58.662,59.909,81.79,94.637c2.593,3.893,5.417,7.665,7.755,11.689c10.436,17.956,6.035,35.572-12.506,45.99
			c-16.208,9.106-33.074,17.181-49.761,25.512c-92.063,45.96-184.155,91.868-276.273,137.728c-2.625,1.307-5.663,1.876-8.509,2.79
			L2701.077,2689.006z"/>
		<path style="fill:#F9D80F;" d="M2497.148,2726.51c-4.353,2.062-9.122,0.957-13.645,0.96
			c-109.86,0.081-219.733-0.776-329.573,0.602c-30.702,0.385-46.746-19.593-40.489-46.463c7.299-31.347,13.107-62.97,23.924-93.486
			c9.106-25.69,27.728-33.11,52.454-20.54c100.839,51.266,201.57,102.721,302.301,154.176
			C2494.046,2722.741,2496.877,2723.182,2497.148,2726.51z"/>
		<path style="fill:#F9D80F;" d="M2747.428,2724.047c24.548-12.443,49.032-24.998,73.655-37.307
			c76.924-38.454,153.911-76.798,230.851-115.223c22.625-11.299,41.376-5.816,49.845,16.588
			c12.051,31.884,20.452,64.848,24.355,98.511c3.176,27.388-10.79,40.816-39.996,40.83c-108.536,0.054-217.071,0.021-325.607,0.02
			c-4.148,0-8.296,0-12.444,0C2747.868,2726.327,2747.648,2725.187,2747.428,2724.047z"/>
	</g>
</g>
</svg>
