<?xml version="1.0" encoding="utf-8"?>
<!-- Generator: Adobe Illustrator 25.3.1, SVG Export Plug-In . SVG Version: 6.00 Build 0)  -->
<svg version="1.1" id="Layer_1" xmlns="http://www.w3.org/2000/svg" xmlns:xlink="http://www.w3.org/1999/xlink" x="0px" y="0px"
	 viewBox="0 0 2263.7 2511.3" style="enable-background:new 0 0 2263.7 2511.3;" xml:space="preserve">
<style type="text/css">
	.st0{fill:#FCC70B;}
	.st1{fill:#608C3D;}
	.st2{fill:#527234;}
	.st3{fill:#F9D80F;}
	.st4{fill:#F8F0D2;}
	.st5{fill:#F4E7B8;}
	.st6{fill:#F6F6F6;}
</style>
<g>
	<path class="st0" d="M314.6,1531.5c0.2-239.7,43.5-464.5,222.9-641.9c12.3-12.1,24.3-25.8,39.2-33.9
		c97.8-53.1,157.2-142.3,218.8-229.6c58.7-15.5,117.3-31.1,176-46.6c22.1,10.5,33.5,32.3,50.4,48.3c41.9,39.7,60.9,39.2,96.4-5.8
		c5.1-6.5,11.5-12,17.4-18c17.9-18.1,33-15.6,46.8,5.5c24.8,37.8,34.5,81.1,44.2,124c21.3,94.4,30.8,191.9,85.6,276.4
		c31.7,48.8,59,100.3,81.8,154.2c19.6,46.3,23.7,96.3,37.1,144c-2.1,1.3-4.1,3-6.4,3.9c-225,93.2-355.8,260.6-394.3,500.7
		c-48.1,7.9-96.7,10-145.2,7.4c-95.2-5.1-180.6-34.6-237.8-115.4C565.7,1589.2,460.7,1521.9,314.6,1531.5z M482.6,1231.8
		c1.7,19.3,2.7,37.1,5,54.8c12.6,94,30.3,186,102,256.5c31.4,30.9,67.7,32.3,117.7,5.7c36.2-19.3,39.1-50.8,32.7-85.6
		c-10.7-57.6-12.7-114.9-3.6-173.2c13.1-83.7,50.8-159.5,72.5-240.3c17-63.6,1.5-106.8-44.2-134.6c-49.4-29.9-98.1-24.7-146.1,17.4
		C527.9,1012.1,490.7,1116,482.6,1231.8z"/>
	<path class="st0" d="M314.6,1531.5c146.1-9.6,251.1,57.7,333,173.3c57.3,80.8,142.7,110.3,237.8,115.4c48.5,2.6,97,0.5,145.2-7.4
		c-12,105.8,0.1,208.6,38.6,308.1c11.4,23.6,22.3,47.3,34.3,70.6c22.7,44.4,55.6,81.8,85.1,121.6c-116.7,103.9-200.9,109.7-317,20.9
		c-19.8-15.2-37.6-33-56.9-48.9c-9.7-8-20-15.9-31.2-21.6c-290.1-147.9-455.9-378-469.5-708.9
		C313.6,1546.9,314.4,1539.2,314.6,1531.5z"/>
	<path class="st1" d="M971,578.4c-1.5,0.6-2.9,1.2-4.4,1.9c-22.8,9.8-48.1,13.3-72,19.7c-33,8.8-66,17.5-99,26.3
		c-66.4,10.7-132.8,20.9-200.3,24c-153.7,7-277-49.8-374.2-168.3C128,368.7,58.5,242.4,4.4,107C262.9,166.5,508.9,260.9,748,373.9
		c82.9,39.2,162.3,85,234.3,142.6c3.2,2.5,13.9,18.5,16.8,0.5c2.3-14.5,7.9-30,1-45.2c11.6-11.4,8.5-27.2,11.6-41
		c19.6-88.1,51.4-171.8,97.4-249c16.1-27,42.6-4,64.1,1.5c-62.9,121.8-110.5,248.2-115.4,387.3c-10.1,3.5-19.5,5.2-30.7,1.8
		C1006.3,566.2,989.9,570.6,971,578.4z"/>
	<path class="st2" d="M1000.1,471.8c6.9,15.1,1.3,30.7-1,45.2c-2.9,18-13.6,2-16.8-0.5C910.2,458.9,830.8,413,748,373.9
		C508.9,260.9,262.9,166.5,4.4,107c-3.6-6.7-9.4-12.7,3.6-17C171.9,35.7,337.5-7,512.4,1c104.5,4.8,189.8,47.7,260.9,122.8
		C870.1,226,940.6,345.3,1000.1,471.8z"/>
	<path class="st0" d="M971.5,579.5c17-14.1,36.6-12.8,55.5-7.1c11.3,3.4,20.7,1.7,30.7-1.8c25.3-0.5,22.4-24,31-38.1
		c66.2,13.2,121.7,49.3,160,101c72,97.4,159,176.7,252,253.3c121.9,100.4,191.9,236.6,227.9,390c-13.3-1.2-26.5-2.6-39.8-3.4
		c-88.1-5.3-174,6.5-257.6,34.7c-13.5-47.7-17.6-97.7-37.1-144c-22.8-53.9-50.1-105.4-81.8-154.2c-54.8-84.5-64.3-182-85.6-276.4
		c-9.7-42.9-19.4-86.2-44.2-124c-13.8-21-28.9-23.6-46.8-5.5c-5.9,5.9-12.2,11.4-17.4,18c-35.5,45-54.5,45.5-96.4,5.8
		C1005.1,611.9,993.6,590.1,971.5,579.5z"/>
	<path class="st3" d="M1188.6,2313.1c-29.5-39.7-62.4-77.1-85.1-121.6c-11.9-23.3-22.9-47.1-34.3-70.6
		c10.8-12.9,21.5-25.9,32.3-38.8c1.7,3.4,3.6,6.8,5,10.3c159.8,410.7,678.8,504.1,973.8,175.2c186.6-208.1,186.1-559.4-1.1-752.9
		c-0.2-11.3-8-18.2-15-25.6c-32.5-34.4-70.7-61.8-109.1-88.9c15.4-5,30.8-10,46.1-15c146.3,103,234.7,243.8,256.9,420.3
		C2301.8,2152,2081.3,2448,1737,2503c-205.1,32.7-383.6-31.2-532.6-176.2C1199.4,2321.9,1193.9,2317.6,1188.6,2313.1z"/>
	<path class="st3" d="M1101.5,2082.1c-10.8,12.9-21.5,25.9-32.3,38.8c-38.5-99.5-50.7-202.3-38.6-308.1
		c38.5-240.1,169.3-407.5,394.3-500.7c2.3-0.9,4.3-2.6,6.4-3.9c83.6-28.1,169.5-39.9,257.6-34.7c13.3,0.8,26.5,2.3,39.8,3.4
		c99.2,15.1,191.3,48.3,272.6,108.4c-15.4,5-30.8,10-46.1,15c-125.2-73.8-259.9-102.4-402.9-76.3
		c-206.1,37.6-352.7,153.1-436.7,346.2c-1.1,2.6-2.2,5.2-3.3,7.8c-1.4,3.8-2.8,7.7-4.3,11.5c-4.8,14.2-9.7,28.3-14.5,42.5
		c-0.5,2.5-1,4.9-1.5,7.4c-0.9,2.7-1.7,5.3-2.6,8c-0.5,2.5-0.9,4.9-1.4,7.4c-2.1,9.1-4.2,18.2-6.4,27.3c-0.3,2.5-0.6,5-0.9,7.5
		c-1,5.2-2,10.4-3,15.6c-0.4,3.8-0.7,7.5-1.1,11.3c-1,7.8-2,15.6-2.9,23.4c-0.3,6.3-0.7,12.6-1,18.9c-1,7.5-2.6,14.9-2.7,22.4
		C1068.7,1949.9,1080.8,2016.7,1101.5,2082.1z"/>
	<path class="st1" d="M1087.3,532.7c0.1,0.7,0.2,1.3,0.2,2c0,2.6-0.7,5.1-1.5,7.5c-2.7,7.9-7,19.5-14,24.5c-1.4,1-14.2,4.7-14.2,4
		c4.9-139.1,52.4-265.5,115.4-387.3c21.4,5.9,26.3,14.6,13.2,36.1c-28.5,46.7-51.5,96.6-68.7,148.6c-8.5,25.9-15.6,52.2-21.3,78.8
		c-5.1,23.8-15.7,55.9-10.3,79.9C1086.4,528.8,1087,530.7,1087.3,532.7z"/>
	<path class="st0" d="M482.6,1231.8c8-115.9,45.2-219.7,135.9-299.2c48-42.1,96.7-47.4,146.1-17.4c45.8,27.7,61.3,71,44.2,134.6
		c-21.7,80.8-59.4,156.6-72.5,240.3c-9.1,58.3-7.1,115.6,3.6,173.2c6.5,34.8,3.5,66.3-32.7,85.6c-50,26.6-86.3,25.2-117.7-5.7
		c-71.7-70.5-89.4-162.5-102-256.5C485.3,1269,484.4,1251.1,482.6,1231.8z"/>
	<path class="st4" d="M1101.5,2082.1c-20.7-65.4-32.8-132.2-31.8-201c0.1-7.5,1.8-15,2.7-22.4c8.6,10.6,2.9,23.1,4.3,34.6
		c2.9,24.2,2.9,49.8,30.4,61.9c3.4,53.8,13.3,105.5,46.8,149.9c19.3,25.7,43.3,34,74.3,23.1c44.3-15.6,86.5-35.8,127.4-58.4
		c73-40.2,146-80.6,206.3-139.6c15.5-15.2,26.6-31.8,0.2-47.8c1-9.8,10-10.8,16.4-14.1c29.3-15.2,58.8-30,88.3-45
		c9.4,11.8,23.8,12,31.6,3.7c9.5-10-10.3-8.4-11.6-16.3c-1-5.9-3.1-11.6-4.7-17.4c24.2,29.1,56.8,27.5,89.7,24.8
		c-2.9,1.2-5.8,3.2-8.8,3.5c-26.5,2.3-52.9,13.3-52.5,40.4c0.4,28.5,33.1,27.8,54.2,32.4c114.3,25.1,230.3,25.9,346.5,21.6
		c37.2-1.4,66.1-14.1,70.4-55.6c7-68.2-7-131.6-49.5-186.8c-18.6-24.2-43.1-33.6-73.2-23.5c-102.9,34.7-197.5,85.4-286.3,147.5
		c-2-2.3-4.1-4.7-6.1-7c39.6-32.4,79.3-64.9,118.9-97.3c47.1-18.3,83.5-52.4,121.3-83.9c31.1-25.8,64.7-50.7,72.5-94.7
		c187.2,193.4,187.7,544.8,1,752.9c-294.9,328.8-814,235.4-973.8-175.2C1105.1,2088.9,1103.2,2085.5,1101.5,2082.1z M1558.3,1959.4
		l0.2-0.2c-4.7,1.4-10.1,1.6-13.9,4.2c-100.2,69.5-188.8,151.5-264.5,247.2c-17.3,21.8-15,45-1.5,66.4
		c36.7,58.1,90.4,93.5,156.5,109.5c37.9,9.2,65.1-3.4,81.8-41.3c47-106.9,78.1-218.1,94.7-333.4c1.8-12.2-0.5-25-0.9-37.5
		c-10,5.3-19.9,10.8-30,15.9c-3.3,1.7-7.1,2.7-10.6,4c0.1-12.1,12.3-13.4,18.2-20.3c12.6-14.7,30.1-26.3,30.5-48.1
		c0.1-2.6-7.6-7.9-11.3-7.6c-23.4,1.9-36.6,17.3-45.7,37.3C1560.6,1956.7,1559.5,1958,1558.3,1959.4z M1771.8,1968.4
		c-11.1,2.7-22.1,6.4-33.4,7.7c-14.7,1.6-13.2,6.7-5.8,16c71.6,89.7,152.6,169.7,243.8,239.6c32.5,24.9,60.4,15.3,85.9-9
		c46.2-44,73.9-98.4,80.3-162c2.5-25.5-2-52.5-28.8-64.4c-121.8-54.2-249.1-86.6-382.9-90.3c-13.6-0.4-31.1-0.4-34.4,20.1
		c-18.2,9-15.1,18.5-1.3,29.3C1718.4,1973.5,1745.3,1969.7,1771.8,1968.4z M1608.9,2243.3c0,31.4-1.6,62.8,0.4,94.1
		c2.5,37.9,4.2,78.2,54,87.3c66.5,12.1,129,0.2,186-35.8c25.3-15.9,43.4-38.8,31.7-71.1c-45-123.9-106.9-238.5-193.5-338.5
		c-28.5-32.9-44.8-28-56.7,14.2C1607.9,2075.2,1609.1,2159.5,1608.9,2243.3z"/>
	<path class="st4" d="M1107.2,1955.2c-27.5-12.1-27.5-37.6-30.4-61.9c-1.4-11.5,4.3-24-4.3-34.6c0.3-6.3,0.7-12.6,1-18.9
		c11.9-6.4,8.4-14.8,2.9-23.4c0.4-3.8,0.7-7.5,1.1-11.3c9.5-3.5,8.5-9.1,3-15.6c0.3-2.5,0.6-5,0.9-7.5c9.3-7.4,12.5-16.3,6.4-27.3
		c0.5-2.5,0.9-4.9,1.4-7.4c5-1.3,8.4-3.1,2.6-8c0.5-2.5,1-4.9,1.5-7.4c11.4-11.9,16.1-26.1,14.5-42.5c1.4-3.8,2.8-7.7,4.3-11.5
		c4.6-1.1,8.7-2.4,3.3-7.8c84-193.1,230.7-308.6,436.7-346.2c143.1-26.1,277.8,2.6,402.9,76.3c38.4,27.1,76.5,54.5,109.1,88.9
		c7,7.4,14.8,14.2,15,25.6c-7.8,44-41.4,68.9-72.5,94.7c-37.9,31.4-74.3,65.5-121.3,83.9c38.6-39.3,77.2-78.5,115.7-117.8
		c28-28.6,25.2-58.2,1.4-87.6c-38.1-47-87.5-76.7-145.9-90.5c-41.8-9.9-72.9,2.6-92.1,44.6c-37.8,82.5-66.5,167.8-86.6,256.1
		c-9.4,41.1-20.1,82.4-11,125.2c-29.4,15-59,29.8-88.3,45c-6.4,3.3-15.4,4.3-16.4,14.1c-117.5-31.9-237.2-30.8-357.2-24
		C1126.3,1862.9,1112.2,1877.1,1107.2,1955.2z M1523.7,1863c20.7-3,46,4.4,56.4-14.8c11.2-20.6-9.7-37.5-19.7-54.8
		c-1-1.7-2.2-3.2-3.4-4.7c-72.8-91.5-157.5-170.3-251.6-239.5c-31.5-23.1-59.6-18.9-87.1,4.5c-44.9,38.3-74.2,86.8-86.6,144.3
		c-7.6,35.7-6,70.2,35.9,86.5C1282.7,1829.3,1402.4,1852.8,1523.7,1863z M1673.4,1511.6c0-28.9,0.4-57.8-0.1-86.6
		c-0.7-36.3-13-64.6-53.7-70c-67.1-8.7-128.9,6-184.3,44.8c-28.2,19.8-39,46.5-26.9,80.7c40.8,115.1,96,222.6,171.3,319
		c10.4,13.3,22.4,31.3,41.2,27.3c19.1-4.1,21.4-25.9,25.5-42.2C1669.4,1695,1673.7,1603.4,1673.4,1511.6z"/>
	<path class="st5" d="M1107.9,1689.5c1.6,16.3-3.1,30.6-14.5,42.5C1098.2,1717.8,1103,1703.7,1107.9,1689.5z"/>
	<path class="st5" d="M1087.9,1754.8c6.1,11,2.9,19.9-6.4,27.3C1083.6,1773,1085.7,1763.9,1087.9,1754.8z"/>
	<path class="st5" d="M1076.4,1816.4c5.5,8.6,9,16.9-2.9,23.4C1074.5,1832,1075.5,1824.2,1076.4,1816.4z"/>
	<path class="st5" d="M1080.6,1789.6c5.5,6.5,6.5,12-3,15.6C1078.6,1800,1079.6,1794.8,1080.6,1789.6z"/>
	<path class="st5" d="M1115.4,1670.2c5.4,5.4,1.3,6.7-3.3,7.8C1113.2,1675.4,1114.3,1672.8,1115.4,1670.2z"/>
	<path class="st5" d="M1091.8,1739.4c5.8,4.9,2.4,6.7-2.6,8C1090.1,1744.7,1091,1742.1,1091.8,1739.4z"/>
	<path class="st3" d="M1608.9,2243.3c0.2-83.7-1-168.1,22-249.7c11.9-42.3,28.1-47.1,56.7-14.2c86.6,99.9,148.5,214.6,193.5,338.5
		c11.7,32.2-6.4,55.1-31.7,71.1c-57,36-119.4,47.9-186,35.8c-49.9-9-51.6-49.4-54-87.3C1607.3,2306.1,1608.9,2274.6,1608.9,2243.3z"
		/>
	<path class="st3" d="M1107.2,1955.2c5.1-78.1,19.1-92.3,97.8-96.7c120-6.8,239.7-7.9,357.2,24c26.5,16,15.3,32.6-0.2,47.8
		c-60.3,59-133.3,99.4-206.3,139.6c-41,22.6-83.1,42.8-127.4,58.4c-31,10.9-55,2.6-74.3-23.1
		C1120.5,2060.7,1110.6,2009,1107.2,1955.2z"/>
	<path class="st3" d="M1772.6,1797.7c88.8-62.1,183.4-112.7,286.3-147.5c30.1-10.2,54.6-0.7,73.2,23.5
		c42.5,55.2,56.5,118.6,49.5,186.8c-4.3,41.5-33.2,54.2-70.4,55.6c-116.2,4.2-232.2,3.5-346.5-21.6c-21.1-4.6-53.8-3.9-54.2-32.4
		c-0.4-27.1,26.1-38.1,52.5-40.4c3-0.3,5.9-2.3,8.8-3.5c5.1-1.9,10.2-3.8,15.3-5.7C1782.3,1807.6,1777.4,1802.7,1772.6,1797.7z"/>
	<path class="st3" d="M1666.8,1823.3c-9-42.8,1.7-84.1,11-125.2c20.2-88.2,48.9-173.6,86.6-256.1c19.2-42,50.3-54.4,92.1-44.6
		c58.4,13.8,107.8,43.5,145.9,90.5c23.8,29.4,26.6,58.9-1.4,87.6c-38.5,39.4-77.1,78.6-115.7,117.8c-39.6,32.4-79.3,64.9-118.9,97.3
		c-11.7-4.2-23.1-9.7-35.2-12.3c-18.7-4.1-39.2-10.7-49.2,15c1.6,5.8,3.7,11.5,4.7,17.4c1.4,7.9,21.2,6.3,11.6,16.3
		C1690.6,1835.3,1676.2,1835.1,1666.8,1823.3z"/>
	<path class="st3" d="M1570,1994.1c3.6-1.3,7.3-2.3,10.6-4c10.1-5.2,20-10.6,30-15.9c0.4,12.5,2.7,25.3,0.9,37.5
		c-16.6,115.4-47.8,226.5-94.7,333.4c-16.6,37.9-43.9,50.4-81.8,41.3c-66.2-16-119.8-51.5-156.5-109.5
		c-13.5-21.4-15.7-44.6,1.5-66.4c75.8-95.7,164.3-177.7,264.5-247.2c3.8-2.6,9.2-2.9,13.9-4.2c-2.4,7.8-4.7,15.7-7.2,23.5
		c-5.2,16.2-5.2,16.2,3.3,19.3c2.7-1.3,5.4-2.6,8-3.8C1565.1,1996.7,1567.6,1995.4,1570,1994.1z"/>
	<path class="st3" d="M1696.4,1926c3.4-20.5,20.9-20.4,34.4-20.1c133.8,3.7,261.1,36.1,382.9,90.3c26.7,11.9,31.3,38.9,28.8,64.4
		c-6.4,63.7-34.1,118-80.3,162c-25.4,24.3-53.4,33.9-85.9,9c-91.1-69.9-172.1-149.9-243.8-239.6c-7.4-9.3-8.9-14.3,5.8-16
		c11.3-1.3,22.3-5,33.4-7.7c5.2-2.3,10.3-4.6,15.5-6.8c-1.9-2.2-3.4-5.1-5.7-6.5C1755,1940,1730.1,1920,1696.4,1926z"/>
	<path class="st6" d="M1682.1,1793.4c10-25.7,30.5-19.1,49.2-15c12.1,2.7,23.5,8.1,35.2,12.3c2.1,2.3,4.1,4.7,6.1,7
		c4.8,4.9,9.7,9.8,14.5,14.7c-5.1,1.9-10.2,3.8-15.3,5.7C1738.9,1820.9,1706.2,1822.5,1682.1,1793.4z"/>
	<path class="st6" d="M1696.4,1926c33.7-6.1,58.6,14,85.1,29c2.4,1.3,3.8,4.3,5.7,6.5c-5.2,2.3-10.3,4.6-15.5,6.8
		c-26.5,1.3-53.4,5.1-76.7-13.1C1681.3,1944.6,1678.3,1935,1696.4,1926z"/>
	<path class="st6" d="M1554.6,2001.8c-8.5-3.1-8.5-3.1-3.3-19.3c2.5-7.8,4.8-15.6,7.2-23.5c0,0-0.2,0.2-0.2,0.2
		c1.1-1.3,2.3-2.7,3.4-4c9.1-20,22.2-35.4,45.7-37.3c3.7-0.3,11.4,5,11.3,7.6c-0.4,21.9-17.9,33.4-30.5,48.1
		c-5.9,6.9-18.2,8.3-18.2,20.3c-2.5,1.3-4.9,2.6-7.4,3.9C1560,1999.3,1557.3,2000.5,1554.6,2001.8z"/>
	<path class="st3" d="M1561.8,1955.4c-1.1,1.3-2.3,2.7-3.4,4C1559.5,1958,1560.6,1956.7,1561.8,1955.4z"/>
	<path class="st3" d="M1523.7,1863c-121.3-10.1-241-33.7-356-78.4c-41.9-16.3-43.6-50.8-35.9-86.5c12.3-57.5,41.6-106,86.6-144.3
		c27.5-23.4,55.7-27.7,87.1-4.5c94.1,69.2,178.8,148,251.6,239.5c1.2,1.5,2.5,3,3.4,4.7c10,17.3,30.9,34.2,19.7,54.8
		C1569.6,1867.4,1544.4,1860,1523.7,1863z"/>
	<path class="st3" d="M1673.4,1511.6c0.2,91.9-4,183.5-27,273c-4.2,16.2-6.4,38-25.5,42.2c-18.9,4.1-30.8-13.9-41.2-27.3
		c-75.3-96.5-130.5-203.9-171.3-319c-12.1-34.1-1.3-60.9,26.9-80.7c55.4-38.8,117.3-53.5,184.3-44.8c40.7,5.3,53,33.7,53.7,70
		C1673.9,1453.8,1673.4,1482.7,1673.4,1511.6z M1636.2,1774.2c-2.1-27-31.2-42.7-57.4-60.5c-4.9-3.3-9.4-0.6-8.2,5.5
		c6.1,28.9,4.4,60.7,30.1,82.4c7.1,6,15.2,10,24.6,5.6C1634.7,1802.8,1636.6,1794.1,1636.2,1774.2z"/>
	<path class="st5" d="M1554.6,2001.8c2.7-1.3,5.4-2.6,8-3.8C1560,1999.3,1557.3,2000.5,1554.6,2001.8z"/>
	<path class="st6" d="M1636.2,1774.2c0.4,19.9-1.5,28.5-10.9,33c-9.4,4.4-17.5,0.4-24.6-5.6c-25.7-21.7-24-53.5-30.1-82.4
		c-1.3-6,3.3-8.8,8.2-5.5C1605,1731.6,1634.1,1747.3,1636.2,1774.2z"/>
</g>
<path class="st3" d="M686,1717.5c-73.4-24.7-127.4-74.4-165.6-139.6c-93.2-159.1-50.7-364.9,86.9-481
	c69.4-58.5,153.8-85.6,246.3-79.7c41.5,2.7,73.5,36.7,72.2,75c-1.4,38.7-33.8,69.2-77.6,68.5c-195.5-3-265.2,192.3-216.1,315
	c20,50.1,58.2,83.3,102.1,112.8c49.3,33.1,45.2,92.1-5.3,123.1C714.6,1720.2,701.2,1719.1,686,1717.5z"/>
<circle class="st4" cx="1645.8" cy="1892.9" r="569.2"/>
<g>
	<g>
		<path class="st3" d="M1616.7,1962.5c3.6,6.4,2.2,11.6,2.2,16.4c0.1,123.1,0.1,246.2,0.1,369.3c0,34.6-12.8,44.1-49.7,39.1
			c-56.1-7.7-108.2-25.7-157.5-51.5c-22.4-11.7-27.1-30.3-13.3-50.7c69.3-102.7,138.6-205.3,208-308
			C1609.5,1972.4,1612.9,1967.9,1616.7,1962.5z"/>
		<path class="st3" d="M1672.8,1966.6c14.4,21.9,28.5,43.1,42.4,64.4c55,84.7,110,169.4,165,254.2c16.8,26,11,45-17.8,59.2
			c-47.4,23.4-98,37.1-150.4,45.2c-18.9,2.9-35.2-8.8-40.4-27.3c-1.4-5.1-1.3-10.2-1.3-15.4c0-122.5,0-245.1,0.1-367.6
			C1670.3,1975.5,1668.6,1971.5,1672.8,1966.6z"/>
		<path class="st3" d="M1721.1,1944.2c21,3.4,37.3,16.3,55.4,25.3c56.2,27.6,111.5,56.7,167.2,85.2c36.4,18.6,73.1,36.8,109.5,55.4
			c26.9,13.8,31.6,30.8,15.3,55.5c-22.6,34.4-50.4,64.9-80,93.9c-3.4,3.3-7.3,6.1-11.3,8.7c-20.1,13.6-39.7,10.7-53.1-9.1
			c-24.8-36.9-48.8-74.2-73.1-111.4c-42.1-64.6-84-129.3-126.1-194c-1.9-2.9-4.4-5.6-4.1-9.3L1721.1,1944.2z"/>
		<path class="st3" d="M1564,1944.8c-0.4,7.3-5.4,12.8-9.3,18.4c-64.6,96-129.5,191.9-194.3,287.8c-1.3,1.9-2.8,3.8-4.2,5.6
			c-14.3,19.6-32.4,21.9-50.5,5.7c-31.4-28.3-58.7-59.9-81.8-94.6c-2.6-3.9-5.4-7.7-7.8-11.7c-10.4-18-6-35.6,12.5-46
			c16.2-9.1,33.1-17.2,49.8-25.5c92.1-46,184.2-91.9,276.3-137.7c2.6-1.3,5.7-1.9,8.5-2.8L1564,1944.8z"/>
		<path class="st3" d="M1768,1907.2c4.4-2.1,9.1-1,13.6-1c109.9-0.1,219.7,0.8,329.6-0.6c30.7-0.4,46.7,19.6,40.5,46.5
			c-7.3,31.3-13.1,63-23.9,93.5c-9.1,25.7-27.7,33.1-52.5,20.5c-100.8-51.3-201.6-102.7-302.3-154.2
			C1771.1,1911,1768.2,1910.6,1768,1907.2z"/>
		<path class="st3" d="M1517.7,1909.7c-24.5,12.4-49,25-73.7,37.3c-76.9,38.5-153.9,76.8-230.9,115.2c-22.6,11.3-41.4,5.8-49.8-16.6
			c-12.1-31.9-20.5-64.8-24.4-98.5c-3.2-27.4,10.8-40.8,40-40.8c108.5-0.1,217.1,0,325.6,0c4.1,0,8.3,0,12.4,0
			C1517.3,1907.4,1517.5,1908.6,1517.7,1909.7z"/>
	</g>
	<g>
		<path class="st3" d="M1674.9,1823.3c-3.6-6.4-2.2-11.6-2.2-16.4c-0.1-123.1-0.1-246.2-0.1-369.3c0-34.6,12.8-44.1,49.7-39
			c56.1,7.7,108.2,25.7,157.5,51.5c22.4,11.7,27.1,30.3,13.3,50.7c-69.3,102.7-138.6,205.3-208,308
			C1682,1813.4,1678.7,1817.9,1674.9,1823.3z"/>
		<path class="st3" d="M1618.8,1819.2c-14.4-21.9-28.5-43.1-42.4-64.4c-55-84.7-110-169.4-165-254.2c-16.8-26-11-45,17.8-59.2
			c47.4-23.4,98-37.1,150.4-45.2c18.9-2.9,35.2,8.8,40.4,27.3c1.4,5.1,1.3,10.2,1.3,15.4c0,122.5,0,245.1-0.1,367.6
			C1621.3,1810.3,1622.9,1814.4,1618.8,1819.2z"/>
		<path class="st3" d="M1570.4,1841.7c-21-3.4-37.3-16.3-55.4-25.3c-56.2-27.6-111.5-56.7-167.2-85.2
			c-36.4-18.6-73.1-36.8-109.5-55.4c-26.9-13.8-31.6-30.8-15.3-55.5c22.6-34.4,50.4-64.9,80-93.9c3.4-3.3,7.3-6.1,11.3-8.7
			c20.1-13.6,39.7-10.7,53.1,9.1c24.8,36.9,48.8,74.2,73.1,111.4c42.1,64.6,84,129.3,126.1,194c1.9,2.9,4.4,5.6,4.1,9.3
			L1570.4,1841.7z"/>
		<path class="st3" d="M1727.5,1841.1c0.4-7.3,5.4-12.8,9.3-18.4c64.6-96,129.5-191.9,194.3-287.8c1.3-1.9,2.8-3.8,4.2-5.6
			c14.3-19.6,32.4-21.9,50.5-5.7c31.4,28.3,58.7,59.9,81.8,94.6c2.6,3.9,5.4,7.7,7.8,11.7c10.4,18,6,35.6-12.5,46
			c-16.2,9.1-33.1,17.2-49.8,25.5c-92.1,46-184.2,91.9-276.3,137.7c-2.6,1.3-5.7,1.9-8.5,2.8L1727.5,1841.1z"/>
		<path class="st3" d="M1523.6,1878.6c-4.4,2.1-9.1,1-13.6,1c-109.9,0.1-219.7-0.8-329.6,0.6c-30.7,0.4-46.7-19.6-40.5-46.5
			c7.3-31.3,13.1-63,23.9-93.5c9.1-25.7,27.7-33.1,52.5-20.5c100.8,51.3,201.6,102.7,302.3,154.2
			C1520.5,1874.8,1523.3,1875.2,1523.6,1878.6z"/>
		<path class="st3" d="M1773.9,1876.1c24.5-12.4,49-25,73.7-37.3c76.9-38.5,153.9-76.8,230.9-115.2c22.6-11.3,41.4-5.8,49.8,16.6
			c12.1,31.9,20.5,64.8,24.4,98.5c3.2,27.4-10.8,40.8-40,40.8c-108.5,0.1-217.1,0-325.6,0c-4.1,0-8.3,0-12.4,0
			C1774.3,1878.4,1774.1,1877.2,1773.9,1876.1z"/>
	</g>
</g>
</svg>
