<?xml version="1.0" encoding="utf-8"?>
<!-- Generator: Adobe Illustrator 25.3.1, SVG Export Plug-In . SVG Version: 6.00 Build 0)  -->
<svg version="1.1" id="Layer_1" xmlns="http://www.w3.org/2000/svg" xmlns:xlink="http://www.w3.org/1999/xlink" x="0px" y="0px"
	 viewBox="0 0 2186.6 2186.5" style="enable-background:new 0 0 2186.6 2186.5;" xml:space="preserve">
<style type="text/css">
	.st0{fill:#D3E057;}
	.st1{fill:#BFC933;}
	.st2{fill:#C0CA35;}
	.st3{fill:#AFB42C;}
</style>
<path class="st0" d="M1325,885c-95.1-143.1-69.5-345.2,58.4-461.8c191.2-174.3,469.5-181.8,667.9-15.8
	c79.7,66.7,124.2,153.9,134.6,257.8c-29,123.3-112.4,202-220.9,252.9c-197.3,92.6-397.1,92.5-595.4-1.6
	C1352.7,908.5,1338,898.1,1325,885z"/>
<path class="st0" d="M59.3,603.9C-48.2,437.6-6.2,220.3,158.1,92.8c225.2-174.7,563.4-93,675.8,163.7c15.9,36.4,27,74.5,27.3,114.8
	c-2.6,62.5-34.8,111.1-73.9,156.1c-67,77-152.9,123.4-250.3,149c-149.1,39.2-293.8,26.3-433.2-41C87.1,627.2,72.7,616.4,59.3,603.9z
	"/>
<path class="st1" d="M1206.1,1391.5c-87.3,24.1-166.6,62.5-231.2,128c-45.8,46.5-78.1,100.4-96.1,163.1c-2.2,7.6-7,14.4-10.5,21.5
	c-29.4,22.3-65.5,22.9-99.1,25.4c-115.7,8.4-230,2.2-338.5-45.7c-28-12.4-55.8-24.8-78.6-45.8l1.1-0.1c-0.8-3.3-3.4-5.1-5.6-7.3
	c-91.9-131.7-76.3-312.1,38.2-442.4c190.7-216.8,571.2-204.1,746.6,25C1172.6,1266.1,1198.2,1325.2,1206.1,1391.5z"/>
<path class="st2" d="M1325,885c62.6,31.1,125.1,62.3,194.7,75.9c199.1,38.9,383.8,9.5,546-118c52.7-41.4,88.2-97.7,108.8-162.2
	c2.2-6.9,1.8-14.4,11.2-15.4c10.9,163.9-88.2,315.3-253.5,387.3c-214.3,93.3-470.7,29.4-597.2-149
	C1331.1,897.8,1328.3,891.2,1325,885z"/>
<path class="st2" d="M927.8,1984.8c17-2,27.5,11.5,41.1,17.7c117.4,53.2,238.8,77.8,368.7,63.4c117.9-13.1,224.2-50.4,317.9-123.4
	c51.7-40.3,88.4-91.5,111.1-152.9c5.2-14.1,10.9-28.1,16.3-42.2c12.8,163.7-61.9,282.3-196,365.3c-209.6,129.6-490.2,84-640.3-100.3
	C939.5,2003.8,934,1994,927.8,1984.8z"/>
<path class="st2" d="M59.3,603.9c57.3,27.5,113.8,56.7,177,69.8c174,36,336.7,12.1,482-94c67.6-49.4,118.8-113.2,137.2-198.2
	c0.8-3.6,3.8-6.8,5.8-10.2c12.3,87.6-11.6,166.9-58.3,239.7C640.8,863.9,249.7,873.9,74.3,630.1C68.5,622,64.3,612.7,59.3,603.9z"/>
<path class="st3" d="M352,1638c40.6,17.4,80.3,37.4,121.9,51.8c123.5,42.7,249.5,43,376.4,16.7c5.9-1.2,12-1.6,17.9-2.3
	c-0.4,40.9-0.9,81.7-1.3,122.6c-192.3,44.8-401.5-26.6-506.3-173C357.2,1648.9,354.9,1643.3,352,1638z"/>
<path class="st3" d="M347.5,1630.7c1.9,2.4,3.7,4.8,5.6,7.3C351.2,1635.5,349.4,1633.1,347.5,1630.7z"/>
<path class="st0" d="M927.8,1984.8c-45.4-38.1-63.5-139.7-68.8-195.6c-12-125.5,63.1-249.9,163-321.3c61-43.6,126.2-72.4,200.4-80.7
	c158.4-17.6,304.3,4,428.7,110.9c75.8,65.1,121.9,148.2,131.8,249.2c-10.8,83.6-54.9,148.3-119,198.9
	c-136.3,107.6-293.2,143.6-464.2,128.8c-58.3-5.1-114.3-18.5-169.2-37.9C993.9,2024.4,957.9,2010.2,927.8,1984.8z"/>
</svg>
