<?xml version="1.0" encoding="iso-8859-1"?>
<!-- Generator: Adobe Illustrator 25.3.1, SVG Export Plug-In . SVG Version: 6.00 Build 0)  -->
<svg version="1.1" id="Layer_1" xmlns="http://www.w3.org/2000/svg" xmlns:xlink="http://www.w3.org/1999/xlink" x="0px" y="0px"
	 viewBox="0 0 4320 4320" style="enable-background:new 0 0 4320 4320;" xml:space="preserve">
<path style="fill:#D3E057;" d="M2282.732,1685.237c-95.061-143.075-69.511-345.237,58.364-461.807
	c191.247-174.34,469.473-181.77,667.885-15.806c79.708,66.672,124.169,153.888,134.559,257.816
	c-28.971,123.26-112.408,201.999-220.882,252.884c-197.322,92.564-397.098,92.456-595.352-1.57
	C2310.479,1708.773,2295.789,1698.29,2282.732,1685.237z"/>
<path style="fill:#D3E057;" d="M1017.036,1404.172c-107.464-166.354-65.421-383.685,98.882-511.152
	c225.211-174.719,563.408-92.987,675.788,163.662c15.944,36.413,26.979,74.484,27.314,114.85
	c-2.563,62.478-34.784,111.098-73.928,156.078c-67.008,77-152.928,123.406-250.26,148.973
	c-149.093,39.163-293.82,26.344-433.203-41.034C1044.871,1427.447,1030.516,1416.596,1017.036,1404.172z"/>
<path style="fill:#BFC933;" d="M2163.87,2191.731c-87.345,24.109-166.597,62.473-231.22,128.008
	c-45.837,46.483-78.131,100.379-96.07,163.109c-2.161,7.558-6.957,14.363-10.532,21.516c-29.444,22.286-65.505,22.924-99.144,25.354
	c-115.672,8.356-229.996,2.189-338.501-45.726c-28.047-12.385-55.754-24.787-78.635-45.785l1.105-0.065
	c-0.767-3.275-3.405-5.104-5.614-7.264c-91.917-131.682-76.347-312.126,38.171-442.362
	c190.662-216.831,571.238-204.102,746.578,25.039C2130.409,2066.354,2155.996,2125.397,2163.87,2191.731z"/>
<path style="fill:#C0CA35;" d="M2282.732,1685.237c62.614,31.14,125.088,62.278,194.694,75.877
	c199.062,38.89,383.817,9.525,546.04-118.034c52.664-41.41,88.175-97.72,108.831-162.194c2.208-6.891,1.821-14.353,11.243-15.446
	c10.948,163.888-88.17,315.342-253.453,387.28c-214.296,93.27-470.706,29.351-597.207-149
	C2288.841,1698.025,2286.086,1691.419,2282.732,1685.237z"/>
<path style="fill:#C0CA35;" d="M1885.54,2785.048c17.048-1.982,27.528,11.528,41.087,17.672
	c117.436,53.217,238.772,77.767,368.738,63.359c117.865-13.067,224.248-50.442,317.85-123.427
	c51.702-40.313,88.424-91.473,111.105-152.885c5.222-14.138,10.853-28.125,16.294-42.181
	c12.763,163.662-61.882,282.338-196.025,365.287c-209.613,129.617-490.17,83.997-640.295-100.281
	C1897.305,2804.011,1891.759,2794.256,1885.54,2785.048z"/>
<path style="fill:#C0CA35;" d="M1017.036,1404.172c57.326,27.485,113.815,56.691,176.999,69.764
	c173.964,35.995,336.707,12.148,481.993-94.049c67.644-49.444,118.751-113.194,137.153-198.189
	c0.788-3.639,3.841-6.788,5.839-10.165c12.32,87.598-11.605,166.902-58.268,239.654
	c-162.226,252.924-553.323,262.934-728.641,19.118C1026.27,1422.18,1022.025,1412.908,1017.036,1404.172z"/>
<path style="fill:#AFB42C;" d="M1309.767,2438.208c40.572,17.41,80.262,37.376,121.883,51.75
	c123.522,42.657,249.524,42.996,376.434,16.729c5.887-1.219,11.954-1.57,17.95-2.323c-0.435,40.874-0.882,81.746-1.331,122.618
	c-192.274,44.84-401.532-26.62-506.274-173.015C1314.966,2449.125,1312.629,2443.479,1309.767,2438.208z"/>
<path style="fill:#AFB42C;" d="M1305.258,2430.879c1.87,2.417,3.741,4.835,5.613,7.258
	C1309,2435.721,1307.129,2433.3,1305.258,2430.879z"/>
<path style="fill:#D3E057;" d="M1885.54,2785.048c-45.356-38.099-63.482-139.743-68.811-195.554
	c-11.985-125.513,63.149-249.903,163.013-321.331c60.985-43.62,126.167-72.442,200.391-80.691
	c158.415-17.606,304.26,4.009,428.719,110.866c75.798,65.078,121.866,148.182,131.762,249.249
	c-10.797,83.58-54.869,148.298-119.016,198.944c-136.304,107.616-293.239,143.649-464.248,128.84
	c-58.319-5.05-114.345-18.539-169.209-37.887C1951.644,2824.613,1915.717,2810.395,1885.54,2785.048z"/>
</svg>
