<?xml version="1.0" encoding="utf-8"?>
<!-- Generator: Adobe Illustrator 25.3.1, SVG Export Plug-In . SVG Version: 6.00 Build 0)  -->
<svg version="1.1" id="Layer_1" xmlns="http://www.w3.org/2000/svg" xmlns:xlink="http://www.w3.org/1999/xlink" x="0px" y="0px"
	 viewBox="0 0 1800.2 1641.1" style="enable-background:new 0 0 1800.2 1641.1;" xml:space="preserve">
<style type="text/css">
	.st0{fill:#689F38;}
	.st1{fill:#7BB242;}
	.st2{fill:#8BC34B;}
	.st3{fill:#DAEBC5;}
	.st4{fill:#568C31;}
</style>
<path class="st0" d="M495.1,1378.6c-61.6-13-118.1-38.7-172.4-69.7c-7.3-4.1-13.6-10.1-22.1-11.7c-79.2,60-146.2,62.4-201.9,7.3
	C70,1276,56,1241.1,57.5,1200.9c1.5-39.4,19.8-71.7,48.3-98.6c-11-19.8-21.8-38-31.5-56.8C16.4,933.1-7.8,813.1,2.2,687.6
	c17.1-213.1,111.4-387,276.2-522.4C380.3,81.4,497.2,29.1,627.3,9C793-16.6,948.9,12,1093,99.8c3,1.8,6.1,3.5,11.2,6.4
	c33.2-36.4,74.8-53.9,124.9-47.1c31.3,4.2,58.1,18.2,79.6,41.2c27,28.8,40.2,63.1,37.9,102.8c-2.2,38.8-20.4,70.1-48.8,96.6
	c24.3,39.1,45.1,78.5,61,120.3c39.9,104.6,52.3,212.6,40.4,323.8c-3.4,31.8-11,62.8-15.5,94.3c-7.8,0.5-15.5,1.3-23.3,1.3
	c-327.6,1.4-655.3-2.6-982.9,2.2c-18.6-6.9-37.9-2.3-56.8-2.9c-20.1-0.7-21.1,1.3-21.5,21.9c-1.2,56.1,8.5,110.7,21.3,164.9
	c26.5,112,73.4,214.5,141.9,307.2C473.5,1347.7,488.2,1360.5,495.1,1378.6z M242.7,518.9c21.8-0.4,40-19.4,39.4-41.2
	c-0.5-17.8-22.9-39.7-40.5-39.6c-23.2,0.1-41.1,19-40.3,42.4C201.9,503.1,219.4,519.3,242.7,518.9z M721.9,518.9
	c22.5,0.4,40.4-16.6,41.4-39.2c0.8-18.3-22-41.8-40.6-41.7c-22.3,0.1-40.2,18.1-40.2,40.4C682.4,501.6,698.9,518.5,721.9,518.9z
	 M401.3,357.5c0.2-20.9-17.4-38.1-39.6-38.7c-21.2-0.6-40.9,18.5-41.3,39.9c-0.3,17.8,21.6,40.4,39.6,40.9
	C382.2,400.3,401.1,381,401.3,357.5z M842.4,399.6c22.3-0.2,40.6-19.9,40.1-43.2c-0.4-20.8-18.8-37.8-40.7-37.6
	c-21.1,0.2-40.6,20.1-40.1,41.1C802.1,377.8,824.6,399.8,842.4,399.6z M842.7,80.2c-21.6-0.1-41,17.1-41,36.3
	c0,22.8,17.3,40.2,40,40.4c23,0.2,41.4-17.4,40.9-39.2C882.1,97,864.4,80.3,842.7,80.2z M639.9,359.6c0.1-22.8-17.1-41-38.6-40.8
	c-21,0.1-37.9,17.9-38.1,39.9c-0.2,23.1,16.3,40.2,39.4,40.9C621.9,400.2,639.8,381,639.9,359.6z M1121.1,360
	c0.1-23-16.7-41.2-38.2-41.2c-21-0.1-38.1,17.5-38.5,39.5c-0.4,23.8,17.7,42,41.1,41.3C1104.1,399.1,1121,380.3,1121.1,360z
	 M362.4,561.5c-21.9-0.2-41.3,16.1-42,35.3c-0.8,22.6,16.5,40.8,39,41.4c23.1,0.5,41.8-16.5,41.8-38.3
	C401.4,579.1,383.8,561.7,362.4,561.5z M639.9,118.5c0-25.8-13-38.5-39.2-38.3c-24.7,0.2-37.4,13-37.5,37.9
	c-0.1,21.7,16.3,38.6,37.6,38.8C626.9,157.1,639.9,144.3,639.9,118.5z M723,276.2c22.3,0,41.1-18.4,40.2-39.2
	c-0.9-20.8-19.4-37.7-40.9-37.5c-22,0.2-39.6,17.1-39.8,38C682.3,259,700.3,276.2,723,276.2z M520.6,478.3
	c-0.1-21.3-17.9-40.5-38.3-39.9c-16.8,0.5-41.9,16-38.9,40.9c2.6,22.1,18.5,40.3,40,39.7C504.2,518.3,520.7,500.3,520.6,478.3z
	 M120.7,638.2c25.6-0.1,38.2-13.3,37.9-39.6c-0.3-24.5-13.2-37.1-38.3-37.1c-25.8,0-38.6,13-38.4,39.1
	C82.1,621.9,99,638.3,120.7,638.2z M240.9,757.4c24.5,5.2,40.3-21.5,40.8-38.4c0.6-20.4-18.6-38.2-39.9-38.3
	c-22-0.1-40,16.4-40.6,37.2C200.6,739.5,218.5,757.4,240.9,757.4z M482.6,276.2c24.3-0.1,37.7-12.7,38-35.6
	c0.3-23.5-16.3-41.1-38.5-41.1c-25.8,0-38.5,13.2-38.2,39.7C444.2,263.8,457.3,276.3,482.6,276.2z M964.4,199.5
	c-25.5-0.3-38.8,12.1-39.3,36.4c-0.5,26.6,12,40.1,37.6,40.3c25.5,0.2,39.2-12.7,39.1-36.6C1001.7,217.1,985.5,199.7,964.4,199.5z"
	/>
<path class="st1" d="M242.7,518.9c-23.2,0.4-40.7-15.8-41.5-38.4c-0.8-23.5,17.1-42.3,40.3-42.4c17.7-0.1,40,21.8,40.5,39.6
	C282.6,499.5,264.5,518.5,242.7,518.9z"/>
<path class="st1" d="M721.9,518.9c-23-0.4-39.4-17.3-39.4-40.5c0-22.3,17.9-40.2,40.2-40.4c18.6-0.1,41.4,23.3,40.6,41.7
	C762.3,502.4,744.4,519.3,721.9,518.9z"/>
<path class="st1" d="M401.3,357.5c-0.2,23.5-19.1,42.7-41.3,42.1c-18-0.5-39.9-23.1-39.6-40.9c0.3-21.4,20.1-40.5,41.3-39.9
	C383.9,319.4,401.5,336.6,401.3,357.5z"/>
<path class="st1" d="M842.4,399.6c-17.8,0.2-40.3-21.8-40.7-39.8c-0.5-20.9,19-40.9,40.1-41.1c22-0.2,40.4,16.8,40.7,37.6
	C883,379.8,864.8,399.4,842.4,399.6z"/>
<path class="st1" d="M842.7,80.2c21.6,0.1,39.4,16.8,39.9,37.4c0.5,21.8-17.9,39.4-40.9,39.2c-22.7-0.2-40-17.6-40-40.4
	C801.7,97.4,821.2,80.2,842.7,80.2z"/>
<path class="st1" d="M639.9,359.6c-0.1,21.4-17.9,40.6-37.3,40c-23.1-0.7-39.6-17.9-39.4-40.9c0.2-22,17.1-39.8,38.1-39.9
	C622.8,318.6,639.9,336.8,639.9,359.6z"/>
<path class="st1" d="M1121.1,360c-0.1,20.3-17,39.1-35.6,39.6c-23.4,0.6-41.5-17.5-41.1-41.3c0.3-22,17.5-39.6,38.5-39.5
	C1104.4,318.8,1121.2,337,1121.1,360z"/>
<path class="st1" d="M362.4,561.5c21.3,0.2,38.9,17.6,38.9,38.4c0,21.7-18.7,38.8-41.8,38.3c-22.6-0.5-39.8-18.8-39-41.4
	C321.1,577.6,340.5,561.3,362.4,561.5z"/>
<path class="st1" d="M639.9,118.5c0,25.8-13,38.6-39.1,38.4c-21.3-0.2-37.7-17.1-37.6-38.8c0.1-24.9,12.8-37.7,37.5-37.9
	C626.8,80,639.9,92.7,639.9,118.5z"/>
<path class="st1" d="M723,276.2c-22.7,0-40.7-17.2-40.6-38.7c0.2-20.9,17.8-37.8,39.8-38c21.5-0.2,40,16.7,40.9,37.5
	C764.1,257.8,745.3,276.2,723,276.2z"/>
<path class="st1" d="M520.6,478.3c0.1,22-16.4,40-37.2,40.6c-21.5,0.6-37.4-17.6-40-39.7c-2.9-24.8,22.1-40.4,38.9-40.9
	C502.7,437.8,520.5,457,520.6,478.3z"/>
<path class="st1" d="M120.7,638.2c-21.7,0.1-38.6-16.3-38.8-37.6c-0.2-26.1,12.6-39.1,38.4-39.1c25,0,38,12.5,38.3,37.1
	C159,624.9,146.3,638.1,120.7,638.2z"/>
<path class="st1" d="M240.9,757.4c-22.4-0.1-40.4-17.9-39.7-39.5c0.6-20.8,18.6-37.3,40.6-37.2c21.3,0.1,40.5,17.8,39.9,38.3
	C281.3,736,265.4,762.7,240.9,757.4z"/>
<path class="st1" d="M482.6,276.2c-25.3,0.1-38.4-12.4-38.7-37c-0.4-26.4,12.3-39.6,38.2-39.7c22.2,0,38.8,17.6,38.5,41.1
	C520.3,263.5,506.9,276.1,482.6,276.2z"/>
<path class="st1" d="M964.4,199.5c21.1,0.2,37.3,17.6,37.4,40.1c0.1,23.9-13.6,36.8-39.1,36.6c-25.6-0.2-38.1-13.6-37.6-40.3
	C925.6,211.6,939,199.2,964.4,199.5z"/>
<path class="st2" d="M1016.8,950.2c4.2,7.9,2.5,14.2,2.5,20.3c0.1,151.7,0.1,303.4,0.1,455.1c0,42.7-14.9,54.3-57.8,48.1
	c-65.2-9.4-125.8-31.6-183.2-63.5c-26-14.5-31.5-37.4-15.5-62.5c80.6-126.6,161.2-253.1,241.9-379.6
	C1008.5,962.5,1012.4,956.9,1016.8,950.2z"/>
<path class="st2" d="M1082,955.2c16.8,27,33.2,53.1,49.3,79.4c64,104.4,127.9,208.8,191.8,313.3c19.6,32,12.8,55.5-20.7,73
	c-55.1,28.8-113.9,45.7-174.9,55.7c-21.9,3.6-41-10.8-47-33.6c-1.7-6.3-1.5-12.6-1.5-19c0-151,0-302.1,0.1-453.1
	C1079.1,966.2,1077.2,961.3,1082,955.2z"/>
<path class="st2" d="M1138.3,927.6c24.4,4.2,43.3,20.1,64.4,31.1c65.3,34,129.7,69.9,194.5,105c42.4,22.9,85,45.3,127.3,68.3
	c31.2,17,36.8,37.9,17.8,68.4c-26.3,42.3-58.5,79.9-93.1,115.7c-3.9,4-8.5,7.5-13.1,10.8c-23.4,16.7-46.2,13.2-61.7-11.2
	c-28.9-45.4-56.8-91.4-85-137.3c-48.9-79.7-97.7-159.4-146.6-239.1c-2.2-3.6-5.1-6.9-4.8-11.5L1138.3,927.6z"/>
<path class="st2" d="M955.6,928.3c-0.5,9-6.3,15.7-10.8,22.7c-75.2,118.4-150.6,236.6-226,354.8c-1.5,2.4-3.3,4.6-4.9,7
	c-16.7,24.2-37.7,27-58.7,7c-36.6-34.9-68.2-73.8-95.1-116.6c-3-4.8-6.3-9.4-9-14.4c-12.1-22.1-7-43.8,14.5-56.7
	c18.8-11.2,38.5-21.2,57.9-31.4c107.1-56.6,214.1-113.2,321.3-169.7c3.1-1.6,6.6-2.3,9.9-3.4L955.6,928.3z"/>
<path class="st2" d="M1192.7,882.1c5.1-2.5,10.6-1.2,15.9-1.2c127.7-0.1,255.5,1,383.2-0.7c35.7-0.5,54.4,24.1,47.1,57.3
	c-8.5,38.6-15.2,77.6-27.8,115.2c-10.6,31.7-32.2,40.8-61,25.3c-117.3-63.2-234.4-126.6-351.5-190
	C1196.3,886.8,1193,886.2,1192.7,882.1z"/>
<path class="st2" d="M901.7,885.1c-28.5,15.3-57,30.8-85.6,46c-89.4,47.4-179,94.7-268.4,142c-26.3,13.9-48.1,7.2-58-20.4
	c-14-39.3-23.8-79.9-28.3-121.4c-3.7-33.8,12.5-50.3,46.5-50.3c126.2-0.1,252.4,0,378.6,0c4.8,0,9.6,0,14.5,0
	C901.2,882.3,901.4,883.7,901.7,885.1z"/>
<path class="st2" d="M954.7,927.4c0.7-0.8,1.5-1.7,2.2-2.5c2.5,2.3,0.3,2.7-1.3,3.4L954.7,927.4z"/>
<path class="st2" d="M1138,927.9c-0.9-0.6-1.8-1.3-2.7-1.9c2.6-2.3,2.6,0,3,1.7L1138,927.9z"/>
<path class="st3" d="M1720.1,838.7l-536.5-0.3c-33-0.1-66-0.2-99-0.1l-707.2-0.4l0.2,4.2c-0.1-0.2-0.2-0.4-0.2-0.5
	c0.2,7,0.6,13.9,0.9,20.8l0,0.1h0c3.1,58.1,11,115.6,27.3,171.8c56.6,195.9,168.7,349.5,348,450.1c79.4,44.5,165.4,69.5,256.8,74.6
	c175.5,10,327.5-47,458-162.3c132.3-117,209.7-265.2,240.6-438.4c6.9-38.4,10.2-77.1,11-116.1c0,0-0.1,0-0.1,0L1720.1,838.7z
	 M489.7,1052.7c-14-39.3-23.8-79.9-28.3-121.4c-3.7-33.8,12.5-50.3,46.5-50.3c126.2-0.1,252.4,0,378.6,0c4.8,0,9.6,0,14.5,0
	c0.3,1.4,0.5,2.8,0.8,4.2c-28.5,15.3-57,30.8-85.6,46c-89.4,47.4-179,94.7-268.4,142C521.3,1087.1,499.5,1080.3,489.7,1052.7z
	 M718.8,1305.8c-1.5,2.4-3.3,4.6-4.9,7c-16.7,24.2-37.7,27-58.7,7c-36.6-34.9-68.2-73.8-95.1-116.6c-3-4.8-6.3-9.4-9-14.4
	c-12.1-22.1-7-43.8,14.5-56.7c18.8-11.2,38.5-21.2,57.9-31.4c107.1-56.6,214.1-113.2,321.3-169.7c3.1-1.6,6.6-2.3,9.9-3.4
	c0.7-0.8,1.5-1.7,2.2-2.5c2.5,2.3,0.3,2.7-1.3,3.4c-0.5,9-6.3,15.7-10.8,22.7C869.6,1069.4,794.2,1187.6,718.8,1305.8z
	 M1019.4,1425.6c0,42.7-14.9,54.3-57.8,48.1c-65.2-9.4-125.8-31.6-183.2-63.5c-26-14.5-31.5-37.4-15.5-62.5
	c80.6-126.6,161.2-253.1,241.9-379.6c3.7-5.7,7.6-11.3,12-18c4.2,7.9,2.5,14.2,2.5,20.3C1019.5,1122.2,1019.5,1273.9,1019.4,1425.6z
	 M1302.5,1420.8c-55.1,28.8-113.9,45.7-174.9,55.7c-21.9,3.6-41-10.8-47-33.6c-1.7-6.3-1.5-12.6-1.5-19c0-151,0-302.1,0.1-453.1
	c0-4.5-1.9-9.5,2.9-15.6c16.8,27,33.2,53.1,49.3,79.4c64,104.4,127.9,208.8,191.8,313.3C1342.7,1379.8,1335.9,1403.3,1302.5,1420.8z
	 M1542.3,1200.5c-26.3,42.3-58.5,79.9-93.1,115.7c-3.9,4-8.5,7.5-13.1,10.8c-23.4,16.7-46.2,13.2-61.7-11.2
	c-28.9-45.4-56.8-91.4-85-137.3c-48.9-79.7-97.7-159.4-146.6-239.1c-2.2-3.6-5.1-6.9-4.8-11.5c-0.9-0.6-1.8-1.3-2.7-1.9
	c2.6-2.3,2.6,0,3,1.7c24.4,4.2,43.3,20.1,64.4,31.1c65.3,34,129.7,69.9,194.5,105c42.4,22.9,85,45.3,127.3,68.3
	C1555.7,1149,1561.2,1169.9,1542.3,1200.5z M1638.9,937.4c-8.5,38.6-15.2,77.6-27.8,115.2c-10.6,31.7-32.2,40.8-61,25.3
	c-117.3-63.2-234.4-126.6-351.5-190c-2.2-1.2-5.5-1.8-5.8-5.9c5.1-2.5,10.6-1.2,15.9-1.2c127.7-0.1,255.5,1,383.2-0.7
	C1627.5,879.7,1646.2,904.3,1638.9,937.4z"/>
<path class="st4" d="M1800.2,844.8c0-1.5,0-3,0-4.5c0,0,0,0,0,0v-1.6h-80.1v3.6c-0.8,39-4.2,77.7-11,116.1
	c-31,173.2-108.3,321.3-240.6,438.4c-130.5,115.4-282.5,172.3-458,162.3c-91.4-5.2-177.4-30.1-256.8-74.6
	c-179.3-100.6-291.4-254.1-348-450.1c-18.2-63-25.9-127.5-28.2-192.8v-3.7h-18.9c-4.4-0.3-8.9-0.2-13.3,0H299v19.1h0.2
	c0,1.1-0.1,2.3-0.1,3.6c-1.2,56.1,8.5,110.7,21.3,164.9c26.5,112,73.4,214.5,141.9,307.2c11.2,15.1,25.8,27.9,32.8,46
	c7.8,3.9,13.1,10.7,18.9,17c35.5,38.8,73.9,74.5,116.6,105.4c155.6,112.7,328.8,160.3,519.4,132.3c183.1-26.9,332-117.9,451.2-257.7
	c99.8-116.9,160.5-252.7,187.3-403.7c7.3-40.8,11.1-82.1,11.6-126.2h0V844.8z"/>
</svg>
