<?xml version="1.0" encoding="iso-8859-1"?>
<!-- Generator: Adobe Illustrator 25.3.1, SVG Export Plug-In . SVG Version: 6.00 Build 0)  -->
<svg version="1.1" id="Layer_1" xmlns="http://www.w3.org/2000/svg" xmlns:xlink="http://www.w3.org/1999/xlink" x="0px" y="0px"
	 viewBox="0 0 14400 14400" style="enable-background:new 0 0 14400 14400;" xml:space="preserve">
<path style="fill:#689F38;" d="M6510.131,8313.48c-108.259-22.938-207.548-68.002-303.033-122.563
	c-12.763-7.293-23.981-17.746-38.785-20.568c-139.274,105.429-256.982,109.733-354.927,12.85
	c-50.557-50.009-75.141-111.52-72.514-182.076c2.577-69.199,34.72-126.096,84.854-173.247
	c-19.334-34.754-38.319-66.757-55.317-99.784c-101.769-197.73-144.413-408.745-126.722-629.338
	c30.039-374.572,195.764-680.213,485.559-918.317c179.126-147.176,384.546-239.106,613.244-274.467
	c291.172-45.021,565.355,5.344,818.51,159.517c5.314,3.236,10.793,6.203,19.662,11.28c58.282-63.939,131.452-94.668,219.495-82.867
	c54.998,7.372,102.074,31.906,139.943,72.38c47.375,50.635,70.606,111,66.575,180.622c-3.944,68.115-35.909,123.173-85.741,169.835
	c42.724,68.704,79.242,138.041,107.254,211.462c70.15,183.871,91.856,373.679,70.935,569.185
	c-5.983,55.914-19.287,110.323-27.164,165.755c-13.65,0.811-27.298,2.279-40.952,2.336
	c-575.922,2.403-1151.866-4.638-1727.775,3.896c-32.706-12.148-66.573-4.022-99.851-5.141c-35.264-1.185-37.053,2.27-37.836,38.49
	c-2.131,98.527,14.953,194.555,37.472,289.871c46.522,196.909,128.939,377.021,249.454,540.003
	C6472.078,8259.11,6497.878,8281.63,6510.131,8313.48z M6066.336,6802.298c38.366-0.665,70.275-34.068,69.228-72.471
	c-0.855-31.374-40.167-69.813-71.254-69.675c-40.727,0.182-72.223,33.329-70.861,74.578
	C5994.761,6774.488,6025.523,6803.005,6066.336,6802.298z M6908.684,6802.298c39.557,0.665,71.028-29.11,72.803-68.879
	c1.439-32.255-38.716-73.483-71.358-73.265c-39.216,0.263-70.716,31.867-70.745,70.979
	C6839.354,6771.936,6868.26,6801.619,6908.684,6802.298z M6345.265,6518.634c0.337-36.727-30.672-67.06-69.604-68.086
	c-37.216-0.98-71.936,32.606-72.534,70.166c-0.499,31.316,37.888,70.958,69.606,71.884
	C6311.689,6593.734,6344.886,6559.881,6345.265,6518.634z M7120.657,6592.613c39.235-0.391,71.285-34.902,70.552-75.966
	c-0.654-36.597-32.974-66.448-71.594-66.124c-37.132,0.312-71.378,35.352-70.54,72.177
	C7049.794,6554.311,7089.331,6592.925,7120.657,6592.613z M7121.128,6031.18c-37.89-0.13-72.029,30.104-72.066,63.823
	c-0.044,40.027,30.325,70.689,70.302,70.981c40.467,0.295,72.687-30.637,71.848-68.977
	C7190.416,6060.654,7159.174,6031.311,7121.128,6031.18z M6764.563,6522.251c0.103-40.117-30.065-72.025-67.862-71.777
	c-36.869,0.241-66.6,31.396-66.941,70.149c-0.357,40.549,28.688,70.717,69.282,71.959
	C6733.032,6593.623,6764.467,6559.881,6764.563,6522.251z M7610.504,6522.957c0.205-40.378-29.432-72.364-67.159-72.483
	c-36.96-0.116-67.05,30.777-67.641,69.445c-0.64,41.869,31.106,73.779,72.308,72.682
	C7580.655,6591.731,7610.323,6558.669,7610.504,6522.957z M6276.897,6877.122c-38.538-0.357-72.599,28.329-73.746,62.11
	c-1.348,39.683,28.916,71.771,68.558,72.689c40.682,0.942,73.486-29.051,73.561-67.256
	C6345.341,6908.026,6314.409,6877.47,6276.897,6877.122z M6764.562,6098.469c-0.032-45.356-22.907-67.692-68.911-67.289
	c-43.428,0.381-65.697,22.883-65.894,66.583c-0.171,38.218,28.612,67.915,66.124,68.221
	C6741.729,6166.359,6764.594,6143.882,6764.562,6098.469z M6910.689,6375.647c39.276-0.042,72.313-32.281,70.647-68.939
	c-1.661-36.561-34.104-66.251-71.976-65.869c-38.603,0.39-69.654,30.037-69.962,66.797
	C6839.083,6345.402,6870.831,6375.69,6910.689,6375.647z M6554.906,6730.874c-0.13-37.465-31.387-71.226-67.311-70.186
	c-29.566,0.856-73.586,28.194-68.429,71.866c4.584,38.822,32.504,70.834,70.384,69.732
	C6526.066,6801.223,6555.04,6769.565,6554.906,6730.874z M5852.046,7011.925c44.995-0.204,67.17-23.392,66.574-69.614
	c-0.556-43.142-23.282-65.157-67.294-65.189c-45.418-0.033-67.888,22.828-67.51,68.686
	C5784.125,6983.319,5813.823,7012.098,5852.046,7011.925z M6063.316,7221.588c43.076,9.191,70.869-37.774,71.741-67.517
	c1.053-35.937-32.713-67.166-70.2-67.292c-38.693-0.13-70.353,28.854-71.399,65.367
	C5992.372,7190.042,6023.948,7221.43,6063.316,7221.588z M6488.124,6375.646c42.642-0.166,66.333-22.368,66.78-62.585
	c0.46-41.275-28.58-72.263-67.685-72.225c-45.423,0.044-67.756,23.243-67.124,69.724
	C6420.685,6353.907,6443.587,6375.818,6488.124,6375.646z M7335.103,6240.835c-44.791-0.477-68.217,21.246-69.065,64.043
	c-0.927,46.785,21.143,70.419,66.085,70.767c44.803,0.346,68.971-22.294,68.724-64.381
	C7400.614,6271.69,7372.181,6241.23,7335.103,6240.835z"/>
<path style="fill:#7BB242;" d="M6066.336,6802.298c-40.813,0.707-71.575-27.811-72.887-67.568
	c-1.362-41.249,30.134-74.396,70.861-74.578c31.087-0.138,70.399,38.302,71.254,69.675
	C6136.611,6768.23,6104.702,6801.634,6066.336,6802.298z"/>
<path style="fill:#7BB242;" d="M6908.684,6802.298c-40.424-0.68-69.33-30.363-69.3-71.165c0.028-39.112,31.528-70.716,70.745-70.979
	c32.642-0.218,72.797,41.009,71.358,73.265C6979.712,6773.188,6948.241,6802.963,6908.684,6802.298z"/>
<path style="fill:#7BB242;" d="M6345.265,6518.634c-0.379,41.248-33.575,75.1-72.531,73.964
	c-31.718-0.925-70.105-40.567-69.606-71.884c0.598-37.56,35.318-71.146,72.534-70.166
	C6314.592,6451.574,6345.602,6481.907,6345.265,6518.634z"/>
<path style="fill:#7BB242;" d="M7120.657,6592.613c-31.327,0.312-70.863-38.302-71.582-69.913
	c-0.838-36.826,33.408-71.866,70.54-72.177c38.62-0.324,70.94,29.527,71.594,66.124
	C7191.942,6557.711,7159.892,6592.222,7120.657,6592.613z"/>
<path style="fill:#7BB242;" d="M7121.128,6031.18c38.046,0.131,69.287,29.475,70.083,65.827c0.839,38.34-31.38,69.272-71.848,68.977
	c-39.977-0.292-70.346-30.954-70.302-70.981C7049.1,6061.284,7083.239,6031.049,7121.128,6031.18z"/>
<path style="fill:#7BB242;" d="M6764.563,6522.251c-0.097,37.629-31.531,71.371-65.521,70.331
	c-40.593-1.242-69.639-31.41-69.282-71.959c0.341-38.753,30.072-69.908,66.941-70.149
	C6734.499,6450.227,6764.666,6482.135,6764.563,6522.251z"/>
<path style="fill:#7BB242;" d="M7610.504,6522.957c-0.181,35.712-29.849,68.774-62.492,69.644
	c-41.201,1.097-72.947-30.813-72.308-72.682c0.591-38.668,30.681-69.562,67.641-69.445
	C7581.072,6450.593,7610.708,6482.579,7610.504,6522.957z"/>
<path style="fill:#7BB242;" d="M6276.897,6877.122c37.512,0.348,68.444,30.904,68.373,67.543
	c-0.075,38.205-32.879,68.198-73.561,67.256c-39.642-0.918-69.906-33.006-68.558-72.689
	C6204.298,6905.451,6238.359,6876.765,6276.897,6877.122z"/>
<path style="fill:#7BB242;" d="M6764.562,6098.469c0.032,45.413-22.833,67.89-68.681,67.515
	c-37.512-0.307-66.295-30.003-66.124-68.221c0.197-43.699,22.466-66.201,65.894-66.583
	C6741.655,6030.777,6764.53,6053.113,6764.562,6098.469z"/>
<path style="fill:#7BB242;" d="M6910.689,6375.647c-39.858,0.043-71.606-30.245-71.29-68.011
	c0.308-36.76,31.359-66.408,69.962-66.797c37.872-0.382,70.315,29.308,71.976,65.869
	C6983.002,6343.366,6949.965,6375.604,6910.689,6375.647z"/>
<path style="fill:#7BB242;" d="M6554.906,6730.874c0.134,38.691-28.839,70.349-65.356,71.413c-37.88,1.103-65.8-30.91-70.384-69.732
	c-5.157-43.672,38.863-71.01,68.429-71.866C6523.519,6659.647,6554.776,6693.408,6554.906,6730.874z"/>
<path style="fill:#7BB242;" d="M5852.046,7011.925c-38.224,0.173-67.922-28.606-68.23-66.117
	c-0.377-45.858,22.092-68.719,67.51-68.686c44.012,0.032,66.738,22.047,67.294,65.189
	C5919.217,6988.534,5897.042,7011.722,5852.046,7011.925z"/>
<path style="fill:#7BB242;" d="M6063.316,7221.588c-39.368-0.158-70.944-31.546-69.858-69.441
	c1.046-36.513,32.706-65.498,71.399-65.367c37.487,0.126,71.253,31.354,70.2,67.292
	C6134.186,7183.814,6106.392,7230.779,6063.316,7221.588z"/>
<path style="fill:#7BB242;" d="M6488.124,6375.646c-44.536,0.173-67.438-21.738-68.028-65.086
	c-0.632-46.481,21.701-69.68,67.124-69.724c39.105-0.038,68.145,30.949,67.685,72.225
	C6554.456,6353.277,6530.766,6375.479,6488.124,6375.646z"/>
<path style="fill:#7BB242;" d="M7335.103,6240.835c37.078,0.395,65.511,30.854,65.744,70.429
	c0.247,42.087-23.921,64.728-68.724,64.381c-44.942-0.348-67.012-23.982-66.085-70.767
	C7266.886,6262.082,7290.312,6240.359,7335.103,6240.835z"/>
<path style="fill:#8BC34B;" d="M7427.192,7560.476c7.407,13.916,4.418,25.041,4.426,35.63
	c0.213,266.681,0.199,533.362,0.156,800.042c-0.012,74.988-26.26,95.519-101.658,84.601
	c-114.644-16.601-221.22-55.596-321.95-111.563c-45.716-25.402-55.417-65.713-27.285-109.909
	c141.608-222.479,283.397-444.842,425.168-667.217C7412.489,7581.959,7419.368,7572.14,7427.192,7560.476z"/>
<path style="fill:#8BC34B;" d="M7541.791,7569.24c29.502,47.487,58.312,93.345,86.618,139.511
	c112.5,183.487,224.893,367.04,337.214,550.636c34.399,56.228,22.438,97.567-36.301,128.272
	c-96.8,50.601-200.281,80.326-307.515,97.855c-38.572,6.306-72.051-19.071-82.598-59.141c-2.936-11.152-2.638-22.204-2.641-33.354
	c-0.065-265.481-0.087-530.963,0.12-796.444C7536.693,7588.617,7533.355,7579.844,7541.791,7569.24z"/>
<path style="fill:#8BC34B;" d="M7640.673,7520.691c42.95,7.297,76.164,35.416,113.198,54.723
	c114.806,59.85,227.917,122.945,341.836,184.503c74.489,40.251,149.414,79.7,223.813,120.115
	c54.92,29.833,64.642,66.641,31.361,120.315c-46.155,74.44-102.92,140.533-163.583,203.371
	c-6.864,7.109-14.995,13.131-23.071,18.913c-41.073,29.406-81.211,23.255-108.48-19.656
	c-50.738-79.844-99.832-160.735-149.346-241.353c-86.001-140.027-171.787-280.188-257.738-420.246
	c-3.902-6.359-8.992-12.076-8.45-20.229L7640.673,7520.691z"/>
<path style="fill:#8BC34B;" d="M7319.55,7521.975c-0.841,15.886-11.138,27.644-18.956,39.952
	c-132.143,208.047-264.729,415.812-397.248,623.621c-2.679,4.201-5.774,8.134-8.604,12.241
	c-29.276,42.503-66.253,47.457-103.149,12.256c-64.256-61.304-119.907-129.793-167.179-205.03
	c-5.299-8.434-11.072-16.607-15.852-25.325c-21.331-38.901-12.337-77.067,25.562-99.637c33.128-19.729,67.604-37.223,101.713-55.271
	c188.179-99.571,376.416-199.031,564.709-298.387c5.366-2.832,11.575-4.065,17.392-6.044L7319.55,7521.975z"/>
<path style="fill:#8BC34B;" d="M7736.384,7440.723c8.898-4.468,18.645-2.072,27.891-2.08c224.557-0.176,449.138,1.681,673.656-1.304
	c62.756-0.834,95.549,42.449,82.761,100.663c-14.918,67.912-26.791,136.425-48.9,202.537c-18.613,55.657-56.678,71.733-107.218,44.5
	c-206.118-111.067-412.014-222.544-617.911-334.021C7742.727,7448.887,7736.94,7447.931,7736.384,7440.723z"/>
<path style="fill:#8BC34B;" d="M7224.808,7446.058c-50.176,26.957-100.223,54.159-150.553,80.826
	c-157.235,83.311-314.597,166.381-471.865,249.63c-46.246,24.479-84.575,12.6-101.884-35.939
	c-24.633-69.076-41.804-140.494-49.783-213.424c-6.491-59.335,22.056-88.427,81.751-88.458
	c221.85-0.117,443.699-0.044,665.548-0.043c8.479,0,16.958,0,25.437,0C7223.909,7441.118,7224.358,7443.588,7224.808,7446.058z"/>
<path style="fill:#8BC34B;" d="M7317.938,7520.351c1.317-1.469,2.633-2.938,3.95-4.407c4.33,3.992,0.475,4.81-2.338,6.032
	L7317.938,7520.351z"/>
<path style="fill:#8BC34B;" d="M7640.214,7521.146c-1.58-1.14-3.159-2.281-4.738-3.421c4.565-3.977,4.604-0.019,5.198,2.965
	L7640.214,7521.146z"/>
<path style="fill:#DAEBC5;" d="M8663.384,7364.364l-943.14-0.59c-57.998-0.217-115.99-0.278-173.97-0.109l-1243.042-0.778
	l0.283,7.44c-0.158-0.31-0.271-0.624-0.283-0.946c0.434,12.229,0.981,24.441,1.64,36.638l0.01,0.262l0.004,0
	c5.532,102.21,19.351,203.231,47.903,302.034c99.528,344.405,296.545,614.313,611.796,791.133
	c139.602,78.301,290.692,122.093,451.375,131.214c308.424,17.508,575.709-82.562,805.025-285.375
	c232.624-205.74,368.544-466.171,423.008-770.556c12.077-67.5,17.96-135.551,19.391-204.044c-0.049,0-0.099,0-0.147-0.001
	L8663.384,7364.364z M6500.506,7740.574c-24.633-69.076-41.804-140.494-49.783-213.424c-6.491-59.335,22.056-88.427,81.751-88.458
	c221.85-0.117,443.699-0.044,665.548-0.043c8.479,0,16.958,0,25.437,0c0.45,2.47,0.899,4.939,1.349,7.409
	c-50.176,26.958-100.223,54.159-150.553,80.826c-157.235,83.311-314.597,166.381-471.865,249.629
	C6556.144,7800.993,6517.815,7789.113,6500.506,7740.574z M6903.346,8185.548c-2.679,4.201-5.774,8.134-8.604,12.241
	c-29.276,42.503-66.253,47.457-103.148,12.256c-64.256-61.304-119.907-129.793-167.18-205.03
	c-5.299-8.434-11.072-16.607-15.852-25.325c-21.331-38.901-12.337-77.067,25.562-99.637c33.128-19.729,67.604-37.223,101.713-55.271
	c188.179-99.571,376.417-199.032,564.708-298.387c5.367-2.832,11.576-4.065,17.392-6.044c1.317-1.469,2.633-2.938,3.95-4.407
	c4.33,3.992,0.476,4.81-2.338,6.032c-0.841,15.886-11.138,27.644-18.956,39.952
	C7168.451,7769.974,7035.865,7977.74,6903.346,8185.548z M7431.774,8396.148c-0.012,74.988-26.26,95.519-101.658,84.601
	c-114.643-16.601-221.22-55.596-321.949-111.563c-45.716-25.401-55.417-65.712-27.285-109.909
	c141.608-222.479,283.397-444.842,425.168-667.217c6.439-10.1,13.318-19.919,21.143-31.583c7.408,13.916,4.418,25.04,4.426,35.63
	C7431.832,7862.787,7431.818,8129.467,7431.774,8396.148z M7929.322,8387.659c-96.8,50.601-200.281,80.326-307.516,97.855
	c-38.572,6.306-72.05-19.071-82.598-59.141c-2.935-11.152-2.639-22.204-2.641-33.354c-0.065-265.482-0.087-530.963,0.12-796.444
	c0.006-7.958-3.333-16.731,5.103-27.335c29.502,47.487,58.312,93.345,86.618,139.511c112.5,183.487,224.893,367.039,337.214,550.636
	C8000.021,8315.614,7988.061,8356.954,7929.322,8387.659z M8350.882,8000.347c-46.155,74.44-102.92,140.533-163.583,203.371
	c-6.864,7.11-14.995,13.131-23.071,18.913c-41.073,29.406-81.211,23.255-108.48-19.656
	c-50.738-79.844-99.832-160.735-149.346-241.353c-86.001-140.027-171.786-280.188-257.738-420.246
	c-3.902-6.359-8.992-12.076-8.451-20.229c-1.579-1.14-3.159-2.281-4.738-3.421c4.565-3.977,4.604-0.019,5.198,2.965
	c42.95,7.297,76.164,35.416,113.198,54.723c114.806,59.85,227.917,122.945,341.836,184.503
	c74.489,40.251,149.414,79.7,223.813,120.115C8374.44,7909.865,8384.162,7946.673,8350.882,8000.347z M8520.691,7538.002
	c-14.918,67.912-26.791,136.425-48.9,202.537c-18.613,55.657-56.678,71.733-107.218,44.5
	c-206.118-111.067-412.014-222.544-617.91-334.021c-3.937-2.131-9.723-3.086-10.279-10.294c8.898-4.468,18.646-2.072,27.891-2.08
	c224.557-0.176,449.138,1.681,673.656-1.304C8500.687,7436.506,8533.479,7479.789,8520.691,7538.002z"/>
<path style="fill:#568C31;" d="M8804.148,7375.103c0.026-2.622,0.065-5.234,0.078-7.868c-0.026,0.001-0.053,0.003-0.078,0.004
	v-2.875h-140.765v6.324c-1.431,68.493-7.313,136.544-19.391,204.044c-54.464,304.384-190.384,564.816-423.008,770.556
	c-229.316,202.812-496.601,302.883-805.025,285.375c-160.683-9.121-311.773-52.913-451.375-131.214
	c-315.251-176.82-512.268-446.728-611.796-791.133c-31.984-110.68-45.49-224.142-49.557-338.944v-6.484h-33.153
	c-7.78-0.44-15.592-0.318-23.414,0h-81.3v33.5h0.344c-0.063,1.992-0.116,4.099-0.164,6.333
	c-2.131,98.528,14.953,194.556,37.472,289.871c46.522,196.909,128.939,377.021,249.454,540.003
	c19.607,26.516,45.407,49.035,57.66,80.886c13.741,6.938,23.073,18.78,33.15,29.797c62.425,68.245,129.933,130.935,204.9,185.24
	c273.589,198.188,578.002,281.749,913.091,232.528c321.912-47.285,583.508-207.259,793.193-452.941
	c175.374-205.483,282.064-444.119,329.224-709.55c12.752-71.775,19.563-144.302,20.442-221.833h0.017V7375.103z"/>
</svg>
