<?xml version="1.0" encoding="utf-8"?>
<!-- Generator: Adobe Illustrator 25.3.1, SVG Export Plug-In . SVG Version: 6.00 Build 0)  -->
<svg version="1.1" id="Layer_1" xmlns="http://www.w3.org/2000/svg" xmlns:xlink="http://www.w3.org/1999/xlink" x="0px" y="0px"
	 viewBox="0 0 2245.8 1885.2" style="enable-background:new 0 0 2245.8 1885.2;" xml:space="preserve">
<style type="text/css">
	.st0{fill:#5F990C;}
	.st1{fill:#F4AB31;}
	.st2{fill:#FEFEFE;}
	.st3{fill:#537918;}
	.st4{fill:#80593E;}
	.st5{fill:#FEA714;}
</style>
<g>
	<path class="st0" d="M1372.2,228.5c11.7-26.3,23.3-52.7,35-79c2.2-2.9,6.3-1.9,8.7-4.5c0,0-0.4,0.1-0.4,0.1
		c241.5-143.1,478.8-110.8,720.8,99.5c35.3,30.6,66.6,65.8,100.4,98.2c13.8,13.3,12.4,20.1-6.3,24.7
		c-231.3,56.1-462.6,104.3-694.9,4.6c-1.4-0.6-3.7,0.7-5.5,1.1l0.3,0.4c-2.2-1.9-4-4-5-6.7C1477.9,316.6,1428.9,268.3,1372.2,228.5z
		"/>
	<path class="st1" d="M1636.4,868.5c-7.8,205.9-99,408.7-249.9,586.4c-159.9,188.4-363.2,303-606.8,343.2
		c-229.1,37.8-449.6,7.5-656.6-99.5c-86.8-44.9-88-137.2-6.7-221.4c137-141.8,192.1-318.3,218.9-507.6
		c21-148.3-0.4-305.8,79.5-441.6c116.5-197.9,286.7-320,520.9-339.5c134.9-11.3,269.7,2.6,384.3,74.8
		C1526.5,393.2,1636.4,605.4,1636.4,868.5z"/>
	<path class="st2" d="M1526.2,361.9c1.7,2.2,3.3,4.5,5,6.7C1529.6,366.3,1527.9,364.1,1526.2,361.9z"/>
	<path class="st2" d="M1416.9,140.1c-2.9,1.5-5.8,3-8.7,4.5C1411.1,143,1414,141.6,1416.9,140.1z"/>
	<path class="st3" d="M2073.5,319.9c-176.6,7.9-514.1-46.5-630.7-100.9C1539.8,188.7,1928.4,250.1,2073.5,319.9z"/>
	<path class="st4" d="M1372.2,228.5c-31.6-18.7-63.3-37.3-94.9-56c35.2-57,46.6-128.3,103.2-172.5c8.8,0,17.6,0,26.4,0
		c8.7,0,23.6,14.1,29.1,20.3c6.4,7.1,10.7,15.7,12,25.2c3.6,25.8-12.3,48.1-22.2,70.5c-7.7,17.4-12.5,35.8-19,53.7
		c-6.4,17.6-15.9,33.6-23.7,50.5C1381,224.4,1379,229.9,1372.2,228.5z"/>
	<path class="st5" d="M3.5,1551c11-52.9,45.6-101,78.4-146c34.3-47.1,71.5-92.2,101-142.6c16.7-28.6,30.9-58.7,40.4-90.4
		c45.2-150,56.2-303.1,66.6-456.6c20.8-306.5,338.8-568.8,616.4-593.6c79.1-7.1,158.7-0.4,236.6,14.1c40.7,7.6,81.6,15.2,121.2,27.8
		c40.2,12.8,75,32.5,110.3,55.1c31.4,20,60.3,44.1,87.4,69.7c25.8,24.4,53.4,49.9,71.2,80.8c34.7,60.3,75.2,114.7,102.9,179.2
		c27.6,64.2,45.9,132.2,53,201.8c28.2,278.5-67.7,519-237.8,731.6c-307.6,384.7-829.8,508.4-1281,309.5
		c-68-30-136.3-82.5-161.4-155.1C-1.5,1606.4-2.1,1578.1,3.5,1551z"/>
</g>
</svg>
