<?xml version="1.0" encoding="iso-8859-1"?>
<!-- Generator: Adobe Illustrator 25.3.1, SVG Export Plug-In . SVG Version: 6.00 Build 0)  -->
<svg version="1.1" id="Layer_1" xmlns="http://www.w3.org/2000/svg" xmlns:xlink="http://www.w3.org/1999/xlink" x="0px" y="0px"
	 viewBox="0 0 4320 4320" style="enable-background:new 0 0 4320 4320;" xml:space="preserve">
<g>
	<path style="fill:#5F990C;" d="M2611.218,1446.599c11.67-26.325,23.34-52.651,35.009-78.976c2.158-2.924,6.347-1.906,8.689-4.474
		c0,0-0.445,0.143-0.445,0.142c241.512-143.066,478.763-110.753,720.778,99.472c35.279,30.645,66.635,65.77,100.407,98.196
		c13.833,13.281,12.387,20.137-6.298,24.673c-231.279,56.147-462.566,104.306-694.886,4.558c-1.42-0.609-3.655,0.678-5.509,1.08
		c0,0,0.33,0.389,0.33,0.389c-2.187-1.854-4.01-3.98-5.008-6.719C2716.981,1534.717,2667.993,1486.353,2611.218,1446.599z"/>
	<path style="fill:#F4AB31;" d="M2875.456,2086.611c-7.821,205.883-98.99,408.654-249.855,586.4
		c-159.901,188.392-363.217,302.959-606.785,343.181c-229.064,37.827-449.558,7.516-656.57-99.516
		c-86.801-44.879-88.044-137.177-6.712-221.354c137.002-141.794,192.097-318.341,218.895-507.572
		c20.999-148.285-0.368-305.838,79.534-441.592c116.457-197.86,286.655-319.97,520.911-339.536
		c134.886-11.266,269.712,2.649,384.305,74.776C2765.521,1611.274,2875.466,1823.511,2875.456,2086.611z"/>
	<path style="fill:#FEFEFE;" d="M2765.286,1579.94c1.669,2.24,3.338,4.479,5.008,6.719
		C2768.625,1584.42,2766.955,1582.18,2765.286,1579.94z"/>
	<path style="fill:#FEFEFE;" d="M2655.916,1358.149c-2.898,1.49-5.796,2.979-8.691,4.471
		C2650.123,1361.132,2653.019,1359.641,2655.916,1358.149z"/>
	<path style="fill:#537918;" d="M3312.578,1537.999c-176.627,7.893-514.09-46.537-630.692-100.888
		C2778.844,1406.818,3167.505,1468.157,3312.578,1537.999z"/>
	<path style="fill:#80593E;" d="M2611.218,1446.599c-31.643-18.674-63.287-37.348-94.933-56.018
		c35.159-57.046,46.628-128.26,103.217-172.499c8.792,0,17.584,0,26.375,0c8.733,0,23.591,14.068,29.125,20.253
		c6.369,7.12,10.689,15.653,12.025,25.153c3.621,25.751-12.288,48.071-22.193,70.463c-7.694,17.392-12.522,35.831-19.048,53.656
		c-6.444,17.602-15.861,33.596-23.748,50.536C2620.037,1442.44,2618.095,1448.001,2611.218,1446.599z"/>
	<path style="fill:#FEA714;" d="M1242.593,2769.043c10.967-52.879,45.635-101.042,78.358-146.019
		c34.269-47.103,71.548-92.24,101.044-142.631c16.723-28.57,30.868-58.681,40.439-90.423
		c45.232-150.008,56.186-303.072,66.621-456.565c20.835-306.483,338.803-568.835,616.448-593.6
		c79.106-7.056,158.677-0.412,236.592,14.077c40.726,7.573,81.62,15.177,121.155,27.773c40.246,12.823,74.967,32.497,110.341,55.1
		c31.369,20.043,60.348,44.12,87.358,69.662c25.828,24.424,53.405,49.897,71.172,80.824
		c34.655,60.324,75.188,114.673,102.903,179.237c27.555,64.194,45.913,132.225,52.952,201.777
		c28.184,278.454-67.733,518.991-237.758,731.637c-307.589,384.695-829.792,508.403-1281.009,309.456
		c-68.008-29.985-136.302-82.508-161.354-155.094C1237.577,2824.474,1236.973,2796.139,1242.593,2769.043z"/>
</g>
</svg>
