<?xml version="1.0" encoding="iso-8859-1"?>
<!-- Generator: Adobe Illustrator 25.3.1, SVG Export Plug-In . SVG Version: 6.00 Build 0)  -->
<svg version="1.1" id="Layer_1" xmlns="http://www.w3.org/2000/svg" xmlns:xlink="http://www.w3.org/1999/xlink" x="0px" y="0px"
	 viewBox="0 0 4320 4320" style="enable-background:new 0 0 4320 4320;" xml:space="preserve">
<g id="NiDPGM.tif">
	<g>
		<path style="fill:#8CA533;" d="M1919.814,3186.896c-90.614,1.556-178.664-13.498-265.131-39.905
			c-168.902-51.582-311.69-143.576-429.535-274.947c-110.35-123.014-180.796-266.245-216.672-426.826
			c-7.44-33.304-12.711-67.246-15.08-101.46c-0.261-3.771-0.02-7.715-4.608-9.311c0-56.569,0-113.137,0-169.706
			c9.457-13.924,6.271-30.576,8.392-45.684c22.496-160.256,83.565-304.333,180.316-433.344
			c79.317-105.764,177.081-191.152,292.601-255.511c94.363-52.571,194.946-87.845,301.835-105.262
			c48.315-7.872,96.772-11.555,145.6-11.931c-8.856,14.8-25.454,9.588-37.285,11.206c-68.631,9.388-134.632,28.014-198.95,52.596
			c-20.799,7.949-42.531,15.373-64.226,30.289c22.777,2.072,42.295,2.988,61.436,4.411c36.342,2.703,71.995,8.199,107.731,14.565
			c92.327,16.448,179.88,47.42,264.633,86.676c71.885,33.296,138.84,74.95,203.296,120.998
			c41.464,29.622,79.148,63.643,118.065,96.236c14.477,12.124,15.246,41.571,3.194,54.379
			c-11.972,12.723-35.074,11.496-51.209-1.805c-42.674-35.177-84.638-71.066-129.724-103.448
			c-72.741-52.244-151.061-93.858-233.252-127.999c-57.93-24.063-117.999-42.923-180.038-54.163
			c-39.386-7.136-78.864-14.817-118.967-15.342c-55.425-0.725-110.828-2.019-166.017,8.059c-18.87,3.446-33.892,9.464-48.973,20.837
			c-15.807,11.921-30.039,25.613-45.104,38.207c-24.29,20.305-45.549,44.236-71.682,70.206c9.765,0,14.092-0.008,18.42,0.001
			c56.977,0.129,113.898-1.327,170.521,8.817c46.103,8.259,91.824,17.446,136.653,31.136c37.729,11.522,74.662,25.183,111.225,39.86
			c22.647,9.091,33.328,30.271,26.456,48.758c-6.903,18.567-30.81,28.507-53.584,18.345
			c-53.228-23.751-108.521-41.755-165.41-55.008c-49.411-11.511-99.56-17.899-149.859-22.756
			c-43.321-4.184-86.731,1.566-129.82,5.436c-11.267,1.012-26.626-1.991-36.426,13.244c-26.709,41.521-54.461,82.561-76.084,126.854
			c-34.616,70.909-61.56,144.91-77.349,222.503c-11.32,55.634-18.462,111.879-19.97,168.671
			c-1.534,57.758,4.221,114.886,12.777,172.104c6.966,46.583,18.111,91.799,31.683,136.593
			c18.324,60.476,44.457,117.573,74.62,173.094c32.071,59.031,70.896,113.308,116.015,162.523
			c32.358,35.296,66.208,69.462,103.292,100.386c46.239,38.559,95.503,72.369,148.153,101.026
			c58.748,31.976,119.789,58.733,184.55,76.97c50.249,14.151,100.399,27.714,152.753,30.848
			C1915.139,3178.688,1919.668,3179.716,1919.814,3186.896z"/>
		<path style="fill:#99B648;" d="M1919.814,3186.896c-0.146-7.181-4.675-8.208-10.738-8.571
			c-52.354-3.133-102.504-16.697-152.753-30.848c-64.761-18.238-125.802-44.994-184.55-76.97
			c-52.65-28.657-101.914-62.467-148.153-101.026c-37.084-30.924-70.934-65.09-103.292-100.386
			c-45.118-49.215-83.944-103.492-116.015-162.523c-30.163-55.521-56.296-112.618-74.62-173.094
			c-13.573-44.794-24.718-90.009-31.683-136.593c-8.556-57.218-14.312-114.346-12.777-172.104
			c1.509-56.792,8.65-113.037,19.97-168.671c15.789-77.593,42.733-151.594,77.349-222.503
			c21.623-44.293,49.376-85.333,76.084-126.854c9.8-15.235,25.159-12.232,36.426-13.244c43.089-3.87,86.499-9.62,129.82-5.436
			c50.299,4.858,100.448,11.246,149.859,22.756c56.89,13.253,112.182,31.257,165.41,55.008
			c22.775,10.162,46.682,0.222,53.584-18.345c6.873-18.487-3.808-39.667-26.456-48.758c-36.563-14.677-73.496-28.338-111.225-39.86
			c-44.829-13.691-90.55-22.877-136.653-31.136c-56.623-10.144-113.544-8.688-170.521-8.817c-4.328-0.01-8.656-0.001-18.42-0.001
			c26.133-25.97,47.392-49.901,71.682-70.206c15.065-12.593,29.296-26.286,45.104-38.207c15.082-11.374,30.104-17.392,48.973-20.837
			c55.189-10.078,110.592-8.784,166.017-8.059c40.103,0.525,79.581,8.206,118.967,15.342c62.039,11.24,122.108,30.1,180.038,54.163
			c82.191,34.141,160.511,75.755,233.252,127.999c45.086,32.381,87.051,68.27,129.724,103.448
			c16.135,13.3,39.237,14.528,51.209,1.805c12.052-12.808,11.283-42.254-3.194-54.379c-38.917-32.593-76.601-66.614-118.065-96.236
			c-64.456-46.048-131.41-87.702-203.296-120.998c-84.753-39.256-172.306-70.228-264.633-86.676
			c-35.736-6.366-71.388-11.862-107.731-14.565c-19.141-1.424-38.658-2.34-61.436-4.411c21.696-14.916,43.427-22.34,64.226-30.289
			c64.318-24.582,130.319-43.208,198.95-52.596c11.831-1.618,28.429,3.593,37.285-11.206c35.963-5.027,71.643,1.594,107.058,4.938
			c64.411,6.081,127.801,19.37,189.463,39.683c24.537,8.083,48.947,16.551,73.415,24.843c2.24,2.012,4.145,4.884,6.771,5.908
			c39.703,15.484,76.84,36.085,113.668,57.213c11.132,6.386,21.118,14.777,34.085,17.533c13.082,17.57,33.069,26.563,49.833,39.462
			c179.775,138.327,295.778,318.087,348.764,538.136c19.164,79.584,26.003,160.963,23.275,242.917
			c-0.556,16.719-4.749,33.25-3.192,50.138c-0.454,2.239-0.318,4.846-1.449,6.664c-24.854,39.951-48.984,80.215-77.854,117.71
			c-46.681,60.627-98.883,115.338-159.053,162.539c-83.723,65.676-174.724,118.104-275.902,152.104
			c-51.676,17.365-103.803,32.321-158.166,39.615c-28.546,3.83-57.055,6.786-85.688,9.605c-42.543,4.19-84.747,5.231-127.209-0.266
			c-10.758-1.393-22.558-4.791-32.823,3.066c-24.62,21.277-47.396,44.404-68.969,68.738c-27.109,15.091-45.122,40.119-65.773,61.971
			c-7.772,8.224-3.197,20.001,6.805,27.652c50.616,38.72,103.21,74.533,160.279,102.987c58.97,29.402,120.122,53.622,184.177,69.907
			c-28.218,11.349-58.167,15.482-87.878,19.874C2021.04,3183.356,1970.752,3190.026,1919.814,3186.896z"/>
		<path style="fill:#FBB860;" d="M1873.558,2893.556c21.573-24.334,44.349-47.461,68.969-68.738
			c2.479,6.343,8.953,5.313,13.661,6.778c77.539,24.125,157.234,38.407,237.957,43.261c66.703,4.011,133.998,3.384,200.218-8.799
			c63.305-11.646,125.079-28.776,184.728-53.701c35.249-14.729,68.832-32.263,101.008-52.468
			c58.802-36.926,111.169-81.125,157.521-133.404c39.699-44.776,72.564-93.553,100.533-145.879
			c24.738-46.281,43.387-95.257,57.086-145.896c17.624-65.146,29.603-131.282,30.083-199.067c0.2-28.271,0.056-56.545,0.009-84.817
			c-0.037-22.045-3.539-43.93-6.008-65.647c-4.504-39.627-11.72-79.104-21.694-117.851c-6.511-25.295-9.935-51.655-23.528-74.753
			c41.219-45.078,85.721-86.92,128.766-130.194c11.305-11.365,20.07-9.874,30.19,3.702c33.27,44.627,65.235,90.154,91.58,139.323
			c41.939,78.273,72.853,160.73,91.02,247.66c8.7,41.629,15.025,83.641,18.022,126.301c1.979,28.178,3.732,56.261,3.114,84.427
			c-1.758,80.117-13.057,158.796-33.979,236.318c-18.367,68.054-45.1,132.749-77.954,194.566
			c-34.019,64.009-74.885,124.007-124.884,176.987c-17.171,18.195-29.791,40.769-51.67,54.48
			c-13.071-8.76-12.096,2.062-13.446,9.643l0.028-0.208c-18.533-0.491-29.573,14.214-43.167,22.695
			c-73.219,45.676-150.37,82.043-232.689,108.42c-74.014,23.717-149.965,36.36-226.837,42.16
			c-67.565,5.098-135.63,1.761-202.534-9.341c-63.347-10.512-125.535-26.708-186.061-49.074
			c-78.955-29.177-152.334-68.765-221.111-116.75C1905.372,2921.746,1885.905,2911.705,1873.558,2893.556z"/>
		<path style="fill:#FEA92D;" d="M2974.101,1792.574c13.593,23.098,17.017,49.459,23.528,74.753
			c9.974,38.747,17.191,78.224,21.694,117.851c2.468,21.717,5.97,43.603,6.008,65.647c0.048,28.272,0.191,56.546-0.009,84.817
			c-0.48,67.785-12.458,133.921-30.083,199.067c-13.699,50.64-32.349,99.616-57.086,145.896
			c-27.969,52.325-60.834,101.103-100.533,145.879c-46.352,52.28-98.719,96.479-157.521,133.404
			c-32.176,20.205-65.759,37.739-101.008,52.468c-59.649,24.925-121.423,42.054-184.728,53.701
			c-66.22,12.183-133.515,12.81-200.218,8.799c-80.723-4.854-160.418-19.136-237.957-43.261c-4.708-1.465-11.182-0.435-13.661-6.778
			c10.265-7.856,22.065-4.458,32.823-3.066c42.462,5.497,84.667,4.456,127.209,0.266c28.633-2.82,57.141-5.775,85.688-9.605
			c54.363-7.294,106.49-22.25,158.166-39.615c101.177-34,192.179-86.428,275.902-152.104
			c60.171-47.2,112.372-101.911,159.053-162.539c28.87-37.495,53-77.759,77.854-117.71c1.131-1.818,0.995-4.425,1.449-6.664
			c25.544-38.052,41.28-80.779,57.395-123.142c26.542-69.775,43.352-142.229,51.241-216.328
			c6.281-58.993,9.95-118.336,2.054-177.702C2970.321,1808.787,2967.632,1799.917,2974.101,1792.574z"/>
		<path style="fill:#FEA92D;" d="M1873.558,2893.556c12.347,18.149,31.814,28.19,48.93,40.132
			c68.776,47.986,142.156,87.574,221.111,116.75c60.526,22.367,122.714,38.563,186.061,49.074
			c66.904,11.102,134.969,14.438,202.534,9.341c76.872-5.8,152.823-18.443,226.837-42.16
			c82.319-26.377,159.47-62.745,232.689-108.42c13.594-8.48,24.634-23.185,43.167-22.695c-9.538,14.998-23.386,26.03-36.771,36.912
			c-118.866,96.634-252.761,162.813-402.815,194.824c-79.254,16.907-159.737,24.042-240.667,19.49
			c-66.054-3.715-131.656-12.455-195.586-30.733c-64.055-16.286-125.207-40.505-184.177-69.907
			c-57.069-28.454-109.663-64.267-160.279-102.987c-10.001-7.651-14.577-19.428-6.805-27.652
			C1828.436,2933.675,1846.45,2908.647,1873.558,2893.556z"/>
		<path style="fill:#80593E;" d="M2441.991,1463.128c-12.967-2.756-22.953-11.146-34.085-17.533
			c-36.828-21.128-73.965-41.728-113.668-57.213c-2.625-1.024-4.531-3.895-6.771-5.908c53.908-44.348,101.892-93.9,137.114-154.837
			c13.731-23.757,25.167-48.403,32.348-74.944c0.791-2.923,2.031-5.721,2.907-8.624c1.85-6.129,4.171-11.707,12.101-11.185
			c7.686,0.506,10.155,6.406,11.323,12.393c3.343,17.126,6.94,34.272,8.913,51.584c9.215,80.841,1.837,159.538-32.58,234.322
			C2454.525,1442.199,2447.898,1452.498,2441.991,1463.128z"/>
		<path style="fill:#FEA92D;" d="M3034.859,2935.787c1.35-7.581,0.375-18.403,13.446-9.643
			C3044.917,2930.884,3041.402,2935.446,3034.859,2935.787z"/>
	</g>
</g>
</svg>
