<?xml version="1.0" encoding="utf-8"?>
<!-- Generator: Adobe Illustrator 25.3.1, SVG Export Plug-In . SVG Version: 6.00 Build 0)  -->
<svg version="1.1" id="Layer_1" xmlns="http://www.w3.org/2000/svg" xmlns:xlink="http://www.w3.org/1999/xlink" x="0px" y="0px"
	 viewBox="0 0 2348.1 2055.3" style="enable-background:new 0 0 2348.1 2055.3;" xml:space="preserve">
<style type="text/css">
	.st0{fill:#8CA533;}
	.st1{fill:#99B648;}
	.st2{fill:#FBB860;}
	.st3{fill:#FEA92D;}
	.st4{fill:#80593E;}
</style>
<g id="NiDPGM.tif">
	<g>
		<path class="st0" d="M931,2054c-90.6,1.6-178.7-13.5-265.1-39.9c-168.9-51.6-311.7-143.6-429.5-274.9
			c-110.3-123-180.8-266.2-216.7-426.8c-7.4-33.3-12.7-67.2-15.1-101.5c-0.3-3.8,0-7.7-4.6-9.3c0-56.6,0-113.1,0-169.7
			c9.5-13.9,6.3-30.6,8.4-45.7C30.9,826,92,681.9,188.7,552.9C268,447.1,365.8,361.7,481.3,297.4c94.4-52.6,194.9-87.8,301.8-105.3
			c48.3-7.9,96.8-11.6,145.6-11.9c-8.9,14.8-25.5,9.6-37.3,11.2c-68.6,9.4-134.6,28-198.9,52.6c-20.8,7.9-42.5,15.4-64.2,30.3
			c22.8,2.1,42.3,3,61.4,4.4c36.3,2.7,72,8.2,107.7,14.6c92.3,16.4,179.9,47.4,264.6,86.7c71.9,33.3,138.8,74.9,203.3,121
			c41.5,29.6,79.1,63.6,118.1,96.2c14.5,12.1,15.2,41.6,3.2,54.4c-12,12.7-35.1,11.5-51.2-1.8c-42.7-35.2-84.6-71.1-129.7-103.4
			c-72.7-52.2-151.1-93.9-233.3-128c-57.9-24.1-118-42.9-180-54.2c-39.4-7.1-78.9-14.8-119-15.3c-55.4-0.7-110.8-2-166,8.1
			c-18.9,3.4-33.9,9.5-49,20.8c-15.8,11.9-30,25.6-45.1,38.2c-24.3,20.3-45.5,44.2-71.7,70.2c9.8,0,14.1,0,18.4,0
			c57,0.1,113.9-1.3,170.5,8.8c46.1,8.3,91.8,17.4,136.7,31.1c37.7,11.5,74.7,25.2,111.2,39.9c22.6,9.1,33.3,30.3,26.5,48.8
			c-6.9,18.6-30.8,28.5-53.6,18.3c-53.2-23.8-108.5-41.8-165.4-55c-49.4-11.5-99.6-17.9-149.9-22.8c-43.3-4.2-86.7,1.6-129.8,5.4
			c-11.3,1-26.6-2-36.4,13.2c-26.7,41.5-54.5,82.6-76.1,126.9c-34.6,70.9-61.6,144.9-77.3,222.5c-11.3,55.6-18.5,111.9-20,168.7
			c-1.5,57.8,4.2,114.9,12.8,172.1c7,46.6,18.1,91.8,31.7,136.6c18.3,60.5,44.5,117.6,74.6,173.1c32.1,59,70.9,113.3,116,162.5
			c32.4,35.3,66.2,69.5,103.3,100.4c46.2,38.6,95.5,72.4,148.2,101c58.7,32,119.8,58.7,184.6,77c50.2,14.2,100.4,27.7,152.8,30.8
			C926.4,2045.8,930.9,2046.9,931,2054z"/>
		<path class="st1" d="M931,2054c-0.1-7.2-4.7-8.2-10.7-8.6c-52.4-3.1-102.5-16.7-152.8-30.8c-64.8-18.2-125.8-45-184.6-77
			c-52.7-28.7-101.9-62.5-148.2-101c-37.1-30.9-70.9-65.1-103.3-100.4c-45.1-49.2-83.9-103.5-116-162.5
			c-30.2-55.5-56.3-112.6-74.6-173.1c-13.6-44.8-24.7-90-31.7-136.6c-8.6-57.2-14.3-114.3-12.8-172.1c1.5-56.8,8.7-113,20-168.7
			c15.8-77.6,42.7-151.6,77.3-222.5c21.6-44.3,49.4-85.3,76.1-126.9c9.8-15.2,25.2-12.2,36.4-13.2c43.1-3.9,86.5-9.6,129.8-5.4
			c50.3,4.9,100.4,11.2,149.9,22.8c56.9,13.3,112.2,31.3,165.4,55c22.8,10.2,46.7,0.2,53.6-18.3c6.9-18.5-3.8-39.7-26.5-48.8
			c-36.6-14.7-73.5-28.3-111.2-39.9c-44.8-13.7-90.6-22.9-136.7-31.1c-56.6-10.1-113.5-8.7-170.5-8.8c-4.3,0-8.7,0-18.4,0
			c26.1-26,47.4-49.9,71.7-70.2c15.1-12.6,29.3-26.3,45.1-38.2c15.1-11.4,30.1-17.4,49-20.8c55.2-10.1,110.6-8.8,166-8.1
			c40.1,0.5,79.6,8.2,119,15.3c62,11.2,122.1,30.1,180,54.2c82.2,34.1,160.5,75.8,233.3,128c45.1,32.4,87.1,68.3,129.7,103.4
			c16.1,13.3,39.2,14.5,51.2,1.8c12.1-12.8,11.3-42.3-3.2-54.4c-38.9-32.6-76.6-66.6-118.1-96.2c-64.5-46-131.4-87.7-203.3-121
			c-84.8-39.3-172.3-70.2-264.6-86.7c-35.7-6.4-71.4-11.9-107.7-14.6c-19.1-1.4-38.7-2.3-61.4-4.4c21.7-14.9,43.4-22.3,64.2-30.3
			c64.3-24.6,130.3-43.2,198.9-52.6c11.8-1.6,28.4,3.6,37.3-11.2c36-5,71.6,1.6,107.1,4.9c64.4,6.1,127.8,19.4,189.5,39.7
			c24.5,8.1,48.9,16.6,73.4,24.8c2.2,2,4.1,4.9,6.8,5.9c39.7,15.5,76.8,36.1,113.7,57.2c11.1,6.4,21.1,14.8,34.1,17.5
			c13.1,17.6,33.1,26.6,49.8,39.5c179.8,138.3,295.8,318.1,348.8,538.1c19.2,79.6,26,161,23.3,242.9c-0.6,16.7-4.7,33.2-3.2,50.1
			c-0.5,2.2-0.3,4.8-1.4,6.7c-24.9,40-49,80.2-77.9,117.7c-46.7,60.6-98.9,115.3-159.1,162.5c-83.7,65.7-174.7,118.1-275.9,152.1
			c-51.7,17.4-103.8,32.3-158.2,39.6c-28.5,3.8-57.1,6.8-85.7,9.6c-42.5,4.2-84.7,5.2-127.2-0.3c-10.8-1.4-22.6-4.8-32.8,3.1
			c-24.6,21.3-47.4,44.4-69,68.7c-27.1,15.1-45.1,40.1-65.8,62c-7.8,8.2-3.2,20,6.8,27.7c50.6,38.7,103.2,74.5,160.3,103
			c59,29.4,120.1,53.6,184.2,69.9c-28.2,11.3-58.2,15.5-87.9,19.9C1032.3,2050.5,982,2057.2,931,2054z"/>
		<path class="st2" d="M884.8,1760.7c21.6-24.3,44.3-47.5,69-68.7c2.5,6.3,9,5.3,13.7,6.8c77.5,24.1,157.2,38.4,238,43.3
			c66.7,4,134,3.4,200.2-8.8c63.3-11.6,125.1-28.8,184.7-53.7c35.2-14.7,68.8-32.3,101-52.5c58.8-36.9,111.2-81.1,157.5-133.4
			c39.7-44.8,72.6-93.6,100.5-145.9c24.7-46.3,43.4-95.3,57.1-145.9c17.6-65.1,29.6-131.3,30.1-199.1c0.2-28.3,0.1-56.5,0-84.8
			c0-22-3.5-43.9-6-65.6c-4.5-39.6-11.7-79.1-21.7-117.9c-6.5-25.3-9.9-51.7-23.5-74.8c41.2-45.1,85.7-86.9,128.8-130.2
			c11.3-11.4,20.1-9.9,30.2,3.7c33.3,44.6,65.2,90.2,91.6,139.3c41.9,78.3,72.9,160.7,91,247.7c8.7,41.6,15,83.6,18,126.3
			c2,28.2,3.7,56.3,3.1,84.4c-1.8,80.1-13.1,158.8-34,236.3c-18.4,68.1-45.1,132.7-78,194.6c-34,64-74.9,124-124.9,177
			c-17.2,18.2-29.8,40.8-51.7,54.5c-13.1-8.8-12.1,2.1-13.4,9.6l0-0.2c-18.5-0.5-29.6,14.2-43.2,22.7
			c-73.2,45.7-150.4,82-232.7,108.4c-74,23.7-150,36.4-226.8,42.2c-67.6,5.1-135.6,1.8-202.5-9.3c-63.3-10.5-125.5-26.7-186.1-49.1
			c-79-29.2-152.3-68.8-221.1-116.8C916.6,1788.9,897.1,1778.9,884.8,1760.7z"/>
		<path class="st3" d="M1985.3,659.7c13.6,23.1,17,49.5,23.5,74.8c10,38.7,17.2,78.2,21.7,117.9c2.5,21.7,6,43.6,6,65.6
			c0,28.3,0.2,56.5,0,84.8c-0.5,67.8-12.5,133.9-30.1,199.1c-13.7,50.6-32.3,99.6-57.1,145.9c-28,52.3-60.8,101.1-100.5,145.9
			c-46.4,52.3-98.7,96.5-157.5,133.4c-32.2,20.2-65.8,37.7-101,52.5c-59.6,24.9-121.4,42.1-184.7,53.7
			c-66.2,12.2-133.5,12.8-200.2,8.8c-80.7-4.9-160.4-19.1-238-43.3c-4.7-1.5-11.2-0.4-13.7-6.8c10.3-7.9,22.1-4.5,32.8-3.1
			c42.5,5.5,84.7,4.5,127.2,0.3c28.6-2.8,57.1-5.8,85.7-9.6c54.4-7.3,106.5-22.2,158.2-39.6c101.2-34,192.2-86.4,275.9-152.1
			c60.2-47.2,112.4-101.9,159.1-162.5c28.9-37.5,53-77.8,77.9-117.7c1.1-1.8,1-4.4,1.4-6.7c25.5-38.1,41.3-80.8,57.4-123.1
			c26.5-69.8,43.4-142.2,51.2-216.3c6.3-59,9.9-118.3,2.1-177.7C1981.5,675.9,1978.8,667.1,1985.3,659.7z"/>
		<path class="st3" d="M884.8,1760.7c12.3,18.1,31.8,28.2,48.9,40.1c68.8,48,142.2,87.6,221.1,116.8
			c60.5,22.4,122.7,38.6,186.1,49.1c66.9,11.1,135,14.4,202.5,9.3c76.9-5.8,152.8-18.4,226.8-42.2c82.3-26.4,159.5-62.7,232.7-108.4
			c13.6-8.5,24.6-23.2,43.2-22.7c-9.5,15-23.4,26-36.8,36.9c-118.9,96.6-252.8,162.8-402.8,194.8c-79.3,16.9-159.7,24-240.7,19.5
			c-66.1-3.7-131.7-12.5-195.6-30.7c-64.1-16.3-125.2-40.5-184.2-69.9c-57.1-28.5-109.7-64.3-160.3-103c-10-7.7-14.6-19.4-6.8-27.7
			C839.6,1800.8,857.7,1775.8,884.8,1760.7z"/>
		<path class="st4" d="M1453.2,330.3c-13-2.8-23-11.1-34.1-17.5c-36.8-21.1-74-41.7-113.7-57.2c-2.6-1-4.5-3.9-6.8-5.9
			c53.9-44.3,101.9-93.9,137.1-154.8c13.7-23.8,25.2-48.4,32.3-74.9c0.8-2.9,2-5.7,2.9-8.6c1.9-6.1,4.2-11.7,12.1-11.2
			c7.7,0.5,10.2,6.4,11.3,12.4c3.3,17.1,6.9,34.3,8.9,51.6c9.2,80.8,1.8,159.5-32.6,234.3C1465.7,309.3,1459.1,319.6,1453.2,330.3z"
			/>
		<path class="st3" d="M2046.1,1802.9c1.4-7.6,0.4-18.4,13.4-9.6C2056.1,1798,2052.6,1802.6,2046.1,1802.9z"/>
	</g>
</g>
</svg>
