<?xml version="1.0" encoding="iso-8859-1"?>
<!-- Generator: Adobe Illustrator 25.3.1, SVG Export Plug-In . SVG Version: 6.00 Build 0)  -->
<svg version="1.1" id="Layer_1" xmlns="http://www.w3.org/2000/svg" xmlns:xlink="http://www.w3.org/1999/xlink" x="0px" y="0px"
	 viewBox="0 0 14400 14400" style="enable-background:new 0 0 14400 14400;" xml:space="preserve">
<path style="fill:#FEFEFE;" d="M8443.505,5700.397c-4.438-4.439-8.874-8.879-13.311-13.318
	C8441.651,5684.493,8446.089,5688.933,8443.505,5700.397z"/>
<path style="fill:#FEFEFE;" d="M8430.194,8870.215c4.437-4.439,8.873-8.879,13.311-13.318
	C8446.089,8868.361,8441.651,8872.801,8430.194,8870.215z"/>
<path style="fill:#54892D;" d="M7098.099,7059.858c-191.352,27.553-382.929,44.532-573.957-0.551
	c-376.016-88.739-624.55-324.541-772.471-674.931c-5.613-13.296-24.242-30.339,3.575-41.879
	c16.276,29.38,46.228,39.988,73.787,53.942c450.502,228.099,909.613,436.088,1389.447,595.687
	C7180.434,7018.405,7145.155,7049.611,7098.099,7059.858z"/>
<path style="fill:#346A1F;" d="M7218.48,6992.127c-479.834-159.599-938.945-367.588-1389.447-595.687
	c-27.559-13.954-57.51-24.562-73.787-53.942c438.022-46.014,831.102,69.61,1184.027,329.634
	c84.263,115.515,176.779,223.156,293.361,307.835C7227.917,6984.02,7223.199,6988.073,7218.48,6992.127z"/>
<path style="fill:#6D4E40;" d="M7251.574,6965.209c311.754-172.12,650.569-287.987,1012.551-302.834
	c18.392,50.372,6.266,99.299,8.972,150.644c-112.569,17.037-222.376,30.636-330.96,50.819
	c-150.82,28.033-250.231,132.534-278.389,284.764c-56.591,18.621-108.93,50.167-169.758,55.897
	c-12.844-62.619,4.052-121.102,37.371-195.039c-241.209,104.055-433.868,246.943-612.426,411.311
	c-41.827-34.334-83.633-68.692-125.434-103.053c86.088-86.566,178.866-165.226,277.542-237.091
	c20.835-15.173,40.72-33.589,62.559-46.898C7172.48,7010.035,7211.807,6987.165,7251.574,6965.209z"/>
<path style="fill:#54892D;" d="M7285.751,6952.525c-13.779,16.761-32.618,23.71-53.121,27.432
	c-116.578-84.669-209.094-192.311-293.357-307.826c-28.194-96.9-74.676-188.081-86.917-290.06
	c-20.566-171.333-11.268-339.907,41.444-504.935c4.683-14.659,2.34-38.676,30.02-34.904
	c53.996,121.288,110.393,241.57,161.474,364.072C7185.215,6445.933,7262.839,6691.985,7285.751,6952.525z"/>
<path style="fill:#346A1F;" d="M7285.751,6952.525c-22.913-260.541-100.536-506.592-200.457-746.221
	c-51.081-122.502-107.478-242.785-161.474-364.072c251.436,100.886,429.29,271.96,492.836,541.007
	c44.986,190.468-1.011,370.94-90.016,541.758C7318.48,6942.31,7305.009,6951.722,7285.751,6952.525z"/>
<g>
	<path style="fill:#FEFEFE;" d="M5621.656,8856.612c4.527,4.529,9.053,9.059,13.58,13.588
		C5623.546,8872.838,5619.02,8868.31,5621.656,8856.612z"/>
	<path style="fill:#9D9D24;" d="M6932.886,7394.618c118.242,136.293,164.208,336.702,156.783,512.29
		c-17.772,420.227-392.052,841.853-778.599,870.278c-345.161,25.383-596.492-186.626-646.101-545.014
		c-57.636-416.385,255.209-898.372,660.064-998.54c186.942-46.252,388.842-22.722,543.009,98.901
		C6891.7,7351.196,6913.286,7372.026,6932.886,7394.618z M6267.72,8625.592c49.914,4.37,71.348-26.045,71.428-68.325
		c0.087-45.717-28.568-79.113-74.839-76.905c-38.988,1.861-73.798,25.104-71.408,72.877
		C6195.181,8598.794,6215.015,8630.583,6267.72,8625.592z M6341.17,8327.052c45.357-0.393,67.073-23.099,69.15-70.449
		c2.267-51.681-23.671-77.716-70.738-77.03c-43.267,0.63-68.761,25.219-67.207,73.938
		C6273.845,8299.542,6292.1,8325.513,6341.17,8327.052z M6641.073,8484.152c-4.251-44.935-25.085-73.668-71.072-75.068
		c-44.668-1.359-74.805,24.288-76.737,67.062c-2.085,46.163,28.752,77.289,74.376,79.188
		C6612.062,8557.182,6633.742,8525.244,6641.073,8484.152z"/>
	<path style="fill:#807616;" d="M6267.72,8625.592c-52.705,4.991-72.54-26.798-74.819-72.354
		c-2.39-47.772,32.42-71.016,71.408-72.877c46.271-2.208,74.926,31.188,74.839,76.905
		C6339.068,8599.547,6317.634,8629.962,6267.72,8625.592z"/>
	<path style="fill:#807616;" d="M6341.17,8327.052c-49.07-1.539-67.326-27.51-68.794-73.542
		c-1.554-48.719,23.94-73.307,67.207-73.938c47.066-0.686,73.004,25.35,70.738,77.03
		C6408.244,8303.953,6386.528,8326.659,6341.17,8327.052z"/>
	<path style="fill:#7F7516;" d="M6641.073,8484.152c-7.331,41.092-29.011,73.029-73.434,71.181
		c-45.624-1.898-76.461-33.024-74.376-79.188c1.932-42.773,32.069-68.421,76.737-67.062
		C6615.988,8410.484,6636.822,8439.218,6641.073,8484.152z"/>
</g>
<g>
	<path style="fill:#9D9D24;" d="M7615.792,7136.775c12.566-2.616,25.157-4.604,37.71-5.809c42.989-4.125,87.402-2.304,130.245,2.543
		c78.815,8.917,155.73,32.071,225.937,69.069c134.824,71.053,238.909,189.534,307.375,324.37
		c119.837,236.006,150.386,549.798,19.381,787.989c-181.845,329.471-538.46,422.777-846.786,206.671
		c-357.436-250.527-457.446-783.628-217.426-1145.043c27.151-40.884,62.771-74.574,98.578-107.726
		c34.339-31.794,59.429-62.537,102.73-82.028C7518.053,7166.771,7566.728,7146.99,7615.792,7136.775z M7893.725,8480.858
		c45.063-2.762,71.973-25.265,74.407-71.034c2.578-48.475-31.504-73.098-70.676-74.562c-42.997-1.606-78.749,23.052-77.324,74.33
		C7821.411,8455.57,7849.185,8477.797,7893.725,8480.858z M7887.769,8103.381c5.662-43.335-22.101-68.041-65.407-69.687
		c-42.374-1.61-72.13,18.634-72.071,68.817c0.057,48.08,16.09,78.364,68.936,78.483
		C7867.522,8181.105,7887.898,8155.056,7887.769,8103.381z M8050.168,8197.879c0.477,32.159,29.052,57.526,71.338,58.886
		c43.957,1.413,74.024-28.134,72.602-71.948c-1.486-45.784-29.13-74.223-79.863-71.994
		C8069.025,8114.81,8049.969,8139.647,8050.168,8197.879z"/>
	<path style="fill:#7F7616;" d="M7893.725,8480.858c-44.54-3.062-72.314-25.288-73.592-71.267
		c-1.425-51.278,34.327-75.937,77.324-74.33c39.171,1.465,73.254,26.088,70.676,74.562
		C7965.697,8455.594,7938.788,8478.097,7893.725,8480.858z"/>
	<path style="fill:#807616;" d="M7887.769,8103.381c0.129,51.674-20.247,77.724-68.542,77.614
		c-52.846-0.12-68.879-30.403-68.936-78.483c-0.059-50.183,29.697-70.427,72.071-68.817
		C7865.668,8035.341,7893.431,8060.046,7887.769,8103.381z"/>
	<path style="fill:#7F7516;" d="M8050.168,8197.879c-0.2-58.231,18.856-83.069,64.077-85.056
		c50.732-2.229,78.376,26.209,79.863,71.994c1.422,43.814-28.646,73.361-72.602,71.948
		C8079.22,8255.405,8050.646,8230.038,8050.168,8197.879z"/>
</g>
</svg>
