<?xml version="1.0" encoding="utf-8"?>
<!-- Generator: Adobe Illustrator 25.3.1, SVG Export Plug-In . SVG Version: 6.00 Build 0)  -->
<svg version="1.1" id="Layer_1" xmlns="http://www.w3.org/2000/svg" xmlns:xlink="http://www.w3.org/1999/xlink" x="0px" y="0px"
	 viewBox="0 0 1606.1 1811.7" style="enable-background:new 0 0 1606.1 1811.7;" xml:space="preserve">
<style type="text/css">
	.st0{fill:#FEFEFE;}
	.st1{fill:#54892D;}
	.st2{fill:#346A1F;}
	.st3{fill:#6D4E40;}
	.st4{fill:#9D9D24;}
	.st5{fill:#807616;}
	.st6{fill:#7F7516;}
	.st7{fill:#7F7616;}
</style>
<path class="st0" d="M1605.7,8c-2.5-2.5-5-5.1-7.6-7.6C1604.7-1.1,1607.2,1.5,1605.7,8z"/>
<path class="st0" d="M1598.2,1811.3c2.5-2.5,5-5.1,7.6-7.6C1607.2,1810.2,1604.7,1812.7,1598.2,1811.3z"/>
<path class="st1" d="M840.3,781.4c-108.9,15.7-217.8,25.3-326.5-0.3c-213.9-50.5-355.3-184.6-439.5-384c-3.2-7.6-13.8-17.3,2-23.8
	c9.3,16.7,26.3,22.7,42,30.7C374.7,533.7,635.9,652,908.8,742.8C887.2,757.8,867.1,775.5,840.3,781.4z"/>
<path class="st2" d="M908.8,742.8C635.9,652,374.7,533.7,118.4,404c-15.7-7.9-32.7-14-42-30.7c249.2-26.2,472.8,39.6,673.6,187.5
	c47.9,65.7,100.6,127,166.9,175.1C914.2,738.2,911.5,740.5,908.8,742.8z"/>
<path class="st3" d="M927.7,727.5c177.4-97.9,370.1-163.8,576-172.3c10.5,28.7,3.6,56.5,5.1,85.7c-64,9.7-126.5,17.4-188.3,28.9
	c-85.8,15.9-142.4,75.4-158.4,162c-32.2,10.6-62,28.5-96.6,31.8c-7.3-35.6,2.3-68.9,21.3-111c-137.2,59.2-246.8,140.5-348.4,234
	c-23.8-19.5-47.6-39.1-71.4-58.6c49-49.2,101.8-94,157.9-134.9c11.9-8.6,23.2-19.1,35.6-26.7C882.7,753,905,740,927.7,727.5z"/>
<path class="st1" d="M947.1,720.3c-7.8,9.5-18.6,13.5-30.2,15.6c-66.3-48.2-119-109.4-166.9-175.1c-16-55.1-42.5-107-49.4-165
	c-11.7-97.5-6.4-193.4,23.6-287.3c2.7-8.3,1.3-22,17.1-19.9c30.7,69,62.8,137.4,91.9,207.1C889.9,432.1,934.1,572.1,947.1,720.3z"/>
<path class="st2" d="M947.1,720.3c-13-148.2-57.2-288.2-114-424.5c-29.1-69.7-61.1-138.1-91.9-207.1
	c143,57.4,244.2,154.7,280.4,307.8c25.6,108.4-0.6,211-51.2,308.2C965.7,714.5,958.1,719.8,947.1,720.3z"/>
<g>
	<path class="st0" d="M0.4,1803.5c2.6,2.6,5.2,5.2,7.7,7.7C1.5,1812.7-1.1,1810.2,0.4,1803.5z"/>
	<path class="st4" d="M746.4,971.8c67.3,77.5,93.4,191.5,89.2,291.4c-10.1,239.1-223,478.9-442.9,495.1
		c-196.4,14.4-339.3-106.2-367.6-310.1c-32.8-236.9,145.2-511.1,375.5-568.1c106.3-26.3,221.2-12.9,308.9,56.3
		C722.9,947.1,735.2,959,746.4,971.8z M368,1672.1c28.4,2.5,40.6-14.8,40.6-38.9c0-26-16.3-45-42.6-43.8
		c-22.2,1.1-42,14.3-40.6,41.5C326.7,1656.8,338,1674.9,368,1672.1z M409.7,1502.3c25.8-0.2,38.2-13.1,39.3-40.1
		c1.3-29.4-13.5-44.2-40.2-43.8c-24.6,0.4-39.1,14.3-38.2,42.1C371.4,1486.6,381.8,1501.4,409.7,1502.3z M580.3,1591.6
		c-2.4-25.6-14.3-41.9-40.4-42.7c-25.4-0.8-42.6,13.8-43.7,38.2c-1.2,26.3,16.4,44,42.3,45C563.8,1633.2,576.2,1615,580.3,1591.6z"
		/>
	<path class="st5" d="M368,1672.1c-30,2.8-41.3-15.2-42.6-41.2c-1.4-27.2,18.4-40.4,40.6-41.5c26.3-1.3,42.6,17.7,42.6,43.8
		C408.5,1657.3,396.3,1674.6,368,1672.1z"/>
	<path class="st5" d="M409.7,1502.3c-27.9-0.9-38.3-15.6-39.1-41.8c-0.9-27.7,13.6-41.7,38.2-42.1c26.8-0.4,41.5,14.4,40.2,43.8
		C447.9,1489.1,435.5,1502,409.7,1502.3z"/>
	<path class="st6" d="M580.3,1591.6c-4.2,23.4-16.5,41.5-41.8,40.5c-26-1.1-43.5-18.8-42.3-45c1.1-24.3,18.2-38.9,43.7-38.2
		C566.1,1549.7,577.9,1566.1,580.3,1591.6z"/>
</g>
<g>
	<path class="st4" d="M1134.9,825.1c7.1-1.5,14.3-2.6,21.5-3.3c24.5-2.3,49.7-1.3,74.1,1.4c44.8,5.1,88.6,18.2,128.5,39.3
		c76.7,40.4,135.9,107.8,174.9,184.5c68.2,134.3,85.6,312.8,11,448.3c-103.4,187.4-306.3,240.5-481.7,117.6
		c-203.3-142.5-260.2-445.8-123.7-651.4c15.4-23.3,35.7-42.4,56.1-61.3c19.5-18.1,33.8-35.6,58.4-46.7
		C1079.3,842.2,1106.9,830.9,1134.9,825.1z M1293,1589.8c25.6-1.6,40.9-14.4,42.3-40.4c1.5-27.6-17.9-41.6-40.2-42.4
		c-24.5-0.9-44.8,13.1-44,42.3C1251.8,1575.4,1267.6,1588,1293,1589.8z M1289.6,1375c3.2-24.7-12.6-38.7-37.2-39.6
		c-24.1-0.9-41,10.6-41,39.1c0,27.4,9.2,44.6,39.2,44.6C1278.1,1419.2,1289.7,1404.4,1289.6,1375z M1382,1428.8
		c0.3,18.3,16.5,32.7,40.6,33.5c25,0.8,42.1-16,41.3-40.9c-0.8-26-16.6-42.2-45.4-41C1392.7,1381.5,1381.9,1395.6,1382,1428.8z"/>
	<path class="st7" d="M1293,1589.8c-25.3-1.7-41.1-14.4-41.9-40.5c-0.8-29.2,19.5-43.2,44-42.3c22.3,0.8,41.7,14.8,40.2,42.4
		C1333.9,1575.4,1318.6,1588.2,1293,1589.8z"/>
	<path class="st5" d="M1289.6,1375c0.1,29.4-11.5,44.2-39,44.2c-30.1-0.1-39.2-17.3-39.2-44.6c0-28.5,16.9-40.1,41-39.1
		C1277,1336.3,1292.8,1350.4,1289.6,1375z"/>
	<path class="st6" d="M1382,1428.8c-0.1-33.1,10.7-47.3,36.5-48.4c28.9-1.3,44.6,14.9,45.4,41c0.8,24.9-16.3,41.7-41.3,40.9
		C1398.5,1461.5,1382.2,1447.1,1382,1428.8z"/>
</g>
</svg>
