<?xml version="1.0" encoding="utf-8"?>
<!-- Generator: Adobe Illustrator 25.3.1, SVG Export Plug-In . SVG Version: 6.00 Build 0)  -->
<svg version="1.1" id="Layer_1" xmlns="http://www.w3.org/2000/svg" xmlns:xlink="http://www.w3.org/1999/xlink" x="0px" y="0px"
	 viewBox="0 0 2021.4 3397.6" style="enable-background:new 0 0 2021.4 3397.6;" xml:space="preserve">
<style type="text/css">
	.st0{fill:#B27214;}
	.st1{fill:#F7B239;}
	.st2{fill:#E09B2D;}
	.st3{fill:#87BC3E;}
</style>
<path class="st0" d="M1136.6,3269l-94.4-94.4c-0.1-0.1-0.1-0.1-0.2-0.2c-1-1-2-1.9-3.1-2.8c-0.5-0.4-1-0.8-1.6-1.2
	c-0.6-0.5-1.3-1-2-1.4c-0.6-0.4-1.2-0.8-1.9-1.1c-0.6-0.4-1.2-0.8-1.9-1.1c-0.6-0.3-1.3-0.6-1.9-0.9c-0.7-0.3-1.3-0.7-2-0.9
	c-0.6-0.3-1.3-0.5-1.9-0.7c-0.7-0.3-1.5-0.5-2.2-0.8c-0.6-0.2-1.3-0.3-1.9-0.5c-0.8-0.2-1.5-0.4-2.3-0.6c-0.7-0.1-1.4-0.2-2.2-0.3
	c-0.7-0.1-1.4-0.2-2.1-0.3c-1.3-0.1-2.6-0.2-3.8-0.2c-0.2,0-0.4,0-0.5,0s-0.4,0-0.5,0c-1.3,0-2.6,0.1-3.8,0.2
	c-0.7,0.1-1.4,0.2-2.1,0.3c-0.7,0.1-1.5,0.2-2.2,0.3c-0.8,0.2-1.6,0.4-2.3,0.6c-0.6,0.2-1.3,0.3-1.9,0.5c-0.8,0.2-1.5,0.5-2.2,0.8
	c-0.6,0.2-1.3,0.4-1.9,0.7c-0.7,0.3-1.3,0.6-2,0.9c-0.6,0.3-1.3,0.6-1.9,0.9c-0.6,0.3-1.2,0.7-1.9,1.1s-1.3,0.7-1.9,1.1
	c-0.7,0.5-1.3,1-2,1.4c-0.5,0.4-1,0.7-1.6,1.2c-1.1,0.9-2.1,1.8-3.1,2.8c-0.1,0.1-0.1,0.1-0.2,0.2l-94.4,94.4
	c-17.4,17.4-17.4,45.6,0,63c17.4,17.4,45.6,17.4,63,0l18.4-18.4v39.6c0,24.6,19.9,44.5,44.5,44.5s44.5-19.9,44.5-44.5v-39.6
	l18.4,18.4c8.7,8.7,20.1,13,31.5,13s22.8-4.3,31.5-13C1154,3314.6,1154,3286.4,1136.6,3269z"/>
<path class="st1" d="M1213.2,1373l-33.4-311.3H841.5L808.1,1373c-19.4,180.6-133.7,337.1-299.7,410.9C204.7,1919,0,2173,0,2464
	c0,432.8,452.5,783.6,1010.7,783.6s1010.7-350.8,1010.7-783.6c0-291-204.7-545-508.5-680.1C1346.9,1710,1232.6,1553.6,1213.2,1373z"
	/>
<path class="st2" d="M1010.7,3247.6C452.5,3247.6,0,2896.8,0,2464c0-291.1,204.6-545,508.4-680.1c166-73.9,280.3-230.3,299.7-410.9
	l33.4-311.3H933L917.8,1373c-8.9,180.7-61.3,337.1-137.5,410.9C640.9,1919,547,2172.9,547,2464
	C547,2896.8,754.6,3247.6,1010.7,3247.6z"/>
<g>
	<path class="st0" d="M471,2952.4c-10,0-19.7-5-25.3-14.1c-85.3-138.7-130.3-302.7-130.3-474.3c0-215.9,71.5-419.2,201.4-572.5
		c10.6-12.5,29.3-14.1,41.8-3.5c12.5,10.6,14.1,29.3,3.5,41.8c-120.8,142.5-187.3,332.2-187.3,534.1c0,160.6,42,313.9,121.5,443.2
		c8.6,14,4.2,32.2-9.8,40.8C481.7,2951,476.3,2952.4,471,2952.4z"/>
	<path class="st0" d="M1550.4,2952.4c-5.3,0-10.7-1.4-15.5-4.4c-14-8.6-18.3-26.9-9.8-40.8c79.5-129.3,121.5-282.6,121.5-443.2
		c0-201.9-66.5-391.6-187.3-534.1c-10.6-12.5-9-31.2,3.5-41.8c12.5-10.6,31.2-9,41.8,3.5C1634.5,2044.7,1706,2248,1706,2464
		c0,171.6-45.1,335.6-130.3,474.3C1570.1,2947.4,1560.3,2952.4,1550.4,2952.4z"/>
	<path class="st0" d="M1182.4,3050.4c-2.9,0-5.9-0.4-8.9-1.4c-15.6-4.9-24.3-21.6-19.4-37.2c45.7-145.5,70.9-340.1,70.9-547.8
		c0-253.6-38.5-490.3-103-633.2c-6.7-14.9-0.1-32.5,14.8-39.3c15-6.7,32.5-0.1,39.3,14.8c67.8,150.2,108.3,396.1,108.3,657.7
		c0,213.6-26.2,414.5-73.7,565.6C1206.8,3042.3,1195.1,3050.4,1182.4,3050.4z"/>
	<path class="st0" d="M839,3050.4c-12.6,0-24.3-8.1-28.3-20.8c-47.5-151.1-73.7-352-73.7-565.6c0-261.7,40.5-507.6,108.3-657.7
		c6.8-14.9,24.3-21.6,39.3-14.8c14.9,6.7,21.6,24.3,14.8,39.3c-64.5,142.8-103,379.5-103,633.2c0,207.7,25.2,402.3,70.9,547.8
		c4.9,15.6-3.8,32.3-19.4,37.2C844.9,3049.9,841.9,3050.4,839,3050.4z"/>
</g>
<path class="st3" d="M1139.6,677.2c-20.7-124.9-51.5-243-94.4-357.9C993.9,182,898.7,18,870,0c101.6,271,137,546.8,85.1,832.7
	C861.6,691.7,758,562.1,633.3,451C519.1,349.2,272.1,194.3,216.1,192.6c29.3,24.3,58,48.1,86.8,71.8
	c131.3,107.9,240.9,235.6,329,382.8c68.7,114.7,122,236.8,155.9,366.9c15.5,59.5,32.3,120.8,33.8,181.6c0.5,20.9-0.2,41.8-2.1,62.4
	h381.1c-0.8-12.3-1.3-24.7-1.2-37.2c0.6-105.9,21.6-209,51.6-310.4c48.8-164.9,123.8-315,226.4-451.4
	c79.9-106.2,172-198.6,276-278.8c20.4-15.8,41.3-31,62-46.4C1539.7,247.6,1317.4,432.3,1139.6,677.2z"/>
</svg>
