<?xml version="1.0" encoding="iso-8859-1"?>
<!-- Generator: Adobe Illustrator 25.3.1, SVG Export Plug-In . SVG Version: 6.00 Build 0)  -->
<svg version="1.1" id="Layer_1" xmlns="http://www.w3.org/2000/svg" xmlns:xlink="http://www.w3.org/1999/xlink" x="0px" y="0px"
	 viewBox="0 0 4320 4320" style="enable-background:new 0 0 4320 4320;" xml:space="preserve">
<path style="fill:#FF5252;" d="M2132.828,2895.571c-6.98-11.74-126.916-258.147-126.916-571.122
	c0-455.121,338.295-717.266,559.192-860.681c-58.825-14.532-368.818-91.189-615.416-91.189
	c-409.05,0-832.188,354.286-832.188,947.238c0,447.569,211.632,773.299,629.059,968.306
	c76.657,35.79,426.438,146.715,513.185,178.571C2256.635,3261.724,2142.855,2912.578,2132.828,2895.571z"/>
<path style="fill:#4CAF50;" d="M2386.66,1503.048c0,0-130.914-722.723-1142.244-447.76
	C1688.622,1943.701,2386.66,1503.048,2386.66,1503.048z"/>
<path style="fill:#2E7D32;" d="M2275.609,1541.44c-114.796-150.522-276.931-263.541-456.517-342.166
	c-89.793-39.471-183.901-70.756-280.167-94.87c-96.329-23.797-194.753-41.628-294.509-49.116
	c100.073-3.109,200.654,4.252,300.537,17.959c99.819,14.088,199.195,35.727,296.476,66.631
	c97.154,30.967,192.405,71.39,282.261,123.807c89.603,52.036,174.827,117.778,247.105,193.864L2275.609,1541.44z"/>
<path style="fill:none;stroke:#795548;stroke-width:2;stroke-linecap:round;" d="M2196.286,1118.81
	c0,0,190.374,126.916,190.374,317.29"/>
<path style="fill:#FF9E80;" d="M2586.109,1372.578c-14.913,0-30.968,1.206-46.769,2.158
	c-252.246,22.464-723.802,251.675-723.802,949.713c0,846.784,458.421,1205.702,509.631,1205.702
	c19.101,0.127,29-12.501,37.631-29.064c25.764-49.878,97.662-78.624,197.228-118.349c63.331-25.32,135.102-54.003,215.059-95.631
	c456.961-238.094,626.902-581.91,626.902-1019.897C3401.989,1732.068,3074.101,1372.578,2586.109,1372.578z"/>
<path style="fill:#E53935;" d="M1988.017,3128.906c-4.95-10.026-9.899-19.926-14.786-30.396
	c-7.869-16.88-15.357-34.585-22.908-52.543c-5.648-13.453-11.169-27.033-16.562-41.057c-6.6-17.134-12.945-34.775-19.164-52.861
	c-5.775-16.626-11.232-33.696-16.562-51.084c-5.394-17.451-10.598-35.092-15.611-53.305c-5.457-19.862-10.344-40.55-15.23-61.364
	c-4.125-17.705-8.313-35.283-12.057-53.749c-4.759-23.479-8.694-48.038-12.692-72.659c-2.856-17.578-5.965-34.712-8.376-52.924
	c-3.807-28.746-6.536-58.889-9.201-89.158c-1.396-15.738-3.3-30.777-4.379-46.896c-3.109-47.149-4.95-95.822-4.95-146.461
	c0-38.836,1.967-75.769,4.759-111.75c0.635-8.123,1.206-16.245,1.967-24.178c3.236-33.696,7.552-66.313,13.072-97.471
	c1.333-7.488,2.983-14.595,4.442-21.957c4.95-25.066,10.661-49.307,17.007-72.786c2.158-8.123,4.125-16.436,6.473-24.304
	c7.615-25.574,16.055-49.942,25.193-73.611c3.998-10.344,8.186-20.433,12.438-30.396c7.298-17.134,15.04-33.76,23.035-49.878
	c7.742-15.547,15.928-30.396,24.304-45.055c6.727-11.676,13.453-23.353,20.56-34.458c7.425-11.676,15.103-22.845,22.972-33.887
	c5.965-8.376,12.057-16.436,18.213-24.431c20.18-26.272,41.184-51.02,63.141-73.421c-28.239,3.363-57.683,5.457-88.207,5.457
	c-33.569,0-68.408-2.602-104.008-8.059c-98.741-15.103-203.764-53.622-307.264-130.279
	c-56.541,31.856-109.782,71.771-159.216,117.715c123.553,103.373,250.215,159.66,367.993,187.518
	c-57.747,137.386-93.791,313.482-93.791,545.231c0,438.241,298.443,840.438,328.586,861.569c-0.698-1.269-1.333-2.729-2.031-3.998
	C2005.912,3165.141,1996.965,3147.118,1988.017,3128.906z"/>
</svg>
