<?xml version="1.0" encoding="utf-8"?>
<!-- Generator: Adobe Illustrator 25.3.1, SVG Export Plug-In . SVG Version: 6.00 Build 0)  -->
<svg version="1.1" id="Layer_1" xmlns="http://www.w3.org/2000/svg" xmlns:xlink="http://www.w3.org/1999/xlink" x="0px" y="0px"
	 viewBox="0 0 2284.5 2537.3" style="enable-background:new 0 0 2284.5 2537.3;" xml:space="preserve">
<style type="text/css">
	.st0{fill:#FF5252;}
	.st1{fill:#4CAF50;}
	.st2{fill:#2E7D32;}
	.st3{fill:none;stroke:#795548;stroke-width:2;stroke-linecap:round;}
	.st4{fill:#FF9E80;}
	.st5{fill:#E53935;}
</style>
<path class="st0" d="M1015.3,1902.7c-7-11.7-126.9-258.1-126.9-571.1c0-455.1,338.3-717.3,559.2-860.7
	c-58.8-14.5-368.8-91.2-615.4-91.2C423.1,379.7,0,734,0,1326.9c0,447.6,211.6,773.3,629.1,968.3c76.7,35.8,426.4,146.7,513.2,178.6
	C1139.1,2268.8,1025.4,1919.7,1015.3,1902.7z"/>
<path class="st1" d="M1269.2,510.2c0,0-130.9-722.7-1142.2-447.8C571.1,950.8,1269.2,510.2,1269.2,510.2z"/>
<path class="st2" d="M1158.1,548.6C1043.3,398,881.2,285,701.6,206.4c-89.8-39.5-183.9-70.8-280.2-94.9
	c-96.3-23.8-194.8-41.6-294.5-49.1c100.1-3.1,200.7,4.3,300.5,18c99.8,14.1,199.2,35.7,296.5,66.6c97.2,31,192.4,71.4,282.3,123.8
	c89.6,52,174.8,117.8,247.1,193.9L1158.1,548.6z"/>
<path class="st3" d="M1078.8,125.9c0,0,190.4,126.9,190.4,317.3"/>
<path class="st4" d="M1468.6,379.7c-14.9,0-31,1.2-46.8,2.2C1169.6,404.3,698,633.5,698,1331.6c0,846.8,458.4,1205.7,509.6,1205.7
	c19.1,0.1,29-12.5,37.6-29.1c25.8-49.9,97.7-78.6,197.2-118.3c63.3-25.3,135.1-54,215.1-95.6c457-238.1,626.9-581.9,626.9-1019.9
	C2284.5,739.2,1956.6,379.7,1468.6,379.7z"/>
<path class="st5" d="M870.5,2136c-4.9-10-9.9-19.9-14.8-30.4c-7.9-16.9-15.4-34.6-22.9-52.5c-5.6-13.5-11.2-27-16.6-41.1
	c-6.6-17.1-12.9-34.8-19.2-52.9c-5.8-16.6-11.2-33.7-16.6-51.1c-5.4-17.5-10.6-35.1-15.6-53.3c-5.5-19.9-10.3-40.6-15.2-61.4
	c-4.1-17.7-8.3-35.3-12.1-53.7c-4.8-23.5-8.7-48-12.7-72.7c-2.9-17.6-6-34.7-8.4-52.9c-3.8-28.7-6.5-58.9-9.2-89.2
	c-1.4-15.7-3.3-30.8-4.4-46.9c-3.1-47.1-4.9-95.8-4.9-146.5c0-38.8,2-75.8,4.8-111.8c0.6-8.1,1.2-16.2,2-24.2
	c3.2-33.7,7.6-66.3,13.1-97.5c1.3-7.5,3-14.6,4.4-22c4.9-25.1,10.7-49.3,17-72.8c2.2-8.1,4.1-16.4,6.5-24.3
	c7.6-25.6,16.1-49.9,25.2-73.6c4-10.3,8.2-20.4,12.4-30.4c7.3-17.1,15-33.8,23-49.9c7.7-15.5,15.9-30.4,24.3-45.1
	c6.7-11.7,13.5-23.4,20.6-34.5c7.4-11.7,15.1-22.8,23-33.9c6-8.4,12.1-16.4,18.2-24.4c20.2-26.3,41.2-51,63.1-73.4
	c-28.2,3.4-57.7,5.5-88.2,5.5c-33.6,0-68.4-2.6-104-8.1c-98.7-15.1-203.8-53.6-307.3-130.3c-56.5,31.9-109.8,71.8-159.2,117.7
	c123.6,103.4,250.2,159.7,368,187.5c-57.7,137.4-93.8,313.5-93.8,545.2c0,438.2,298.4,840.4,328.6,861.6c-0.7-1.3-1.3-2.7-2-4
	C888.4,2172.3,879.5,2154.2,870.5,2136z"/>
</svg>
