<?xml version="1.0" encoding="utf-8"?>
<!-- Generator: Adobe Illustrator 25.3.1, SVG Export Plug-In . SVG Version: 6.00 Build 0)  -->
<svg version="1.1" id="Layer_1" xmlns="http://www.w3.org/2000/svg" xmlns:xlink="http://www.w3.org/1999/xlink" x="0px" y="0px"
	 viewBox="0 0 3663 3755.6" style="enable-background:new 0 0 3663 3755.6;" xml:space="preserve">
<style type="text/css">
	.st0{fill:#669966;}
	.st1{fill:#E5B45C;}
	.st2{clip-path:url(#SVGID_2_);}
	.st3{fill:#FFCC66;}
</style>
<g>
	<g id="ICON_6">
		<path class="st0" d="M2169.4,1341.5c0-319,248.3-593.9,593.9-657.4C2362,610.7,1971,845.6,1890,1208.6s178.5,716.9,579.7,790.2
			c96.9,17.7,196.7,17.7,293.6,0C2417.7,1935.4,2169.4,1660.5,2169.4,1341.5z"/>
		<path class="st0" d="M2100.8,986.5c0-319,248.3-593.9,593.9-657.4c-401.2-73.4-792.2,161.5-873.3,524.6s178.5,716.9,579.7,790.2
			c96.9,17.7,196.7,17.7,293.6,0C2349.2,1580.3,2100.9,1305.5,2100.8,986.5z"/>
		<path class="st0" d="M1981.1,670.7c0.1-319,248.4-593.8,593.9-657.3c-401.2-73.4-792.2,161.5-873.3,524.6
			c-81.1,363.1,178.5,716.9,579.7,790.2c96.9,17.7,196.7,17.7,293.6,0C2229.5,1264.7,1981.2,989.8,1981.1,670.7z"/>
		<path class="st0" d="M1517.3,1341.5c0-319-248.3-593.9-593.9-657.4c401.2-73.4,792.2,161.5,873.3,524.6s-178.5,716.9-579.7,790.2
			c-96.9,17.7-196.7,17.7-293.6,0C1268.9,1935.4,1517.2,1660.5,1517.3,1341.5z"/>
		<path class="st0" d="M1585.4,986.5c0-319-248.3-593.9-593.8-657.4c401.2-73.4,792.2,161.5,873.3,524.6s-178.5,716.9-579.7,790.2
			c-96.9,17.7-196.7,17.7-293.6,0C1337.1,1580.3,1585.4,1305.4,1585.4,986.5z"/>
		<path class="st0" d="M1705.3,670.7c-0.1-319-248.3-593.8-593.8-657.3c401.2-73.4,792.2,161.5,873.3,524.6
			s-178.5,716.9-579.7,790.2c-96.9,17.7-196.7,17.7-293.6,0C1457.1,1264.6,1705.3,989.8,1705.3,670.7z"/>
		<path class="st1" d="M1732.2,966.8h198.7c459.7,0,832.3,337.2,832.3,753.2v862c0,416-372.6,753.2-832.3,753.2h-198.7
			c-459.7,0-832.3-337.2-832.3-753.2v-862C899.9,1304,1272.6,966.8,1732.2,966.8z"/>
		<g>
			<g>
				<defs>
					<path id="SVGID_1_" d="M1732.2,966.8h198.7c459.7,0,832.3,337.2,832.3,753.2v862c0,416-372.6,753.2-832.3,753.2h-198.7
						c-459.7,0-832.3-337.2-832.3-753.2v-862C899.9,1304,1272.6,966.8,1732.2,966.8z"/>
				</defs>
				<clipPath id="SVGID_2_">
					<use xlink:href="#SVGID_1_"  style="overflow:visible;"/>
				</clipPath>
				<g class="st2">
					<polygon class="st3" points="2037.9,3755.6 0,2017.2 87.8,1942.3 2125.7,3680.7 					"/>
					<polygon class="st3" points="2345.4,3493.4 307.5,1755 395.3,1680 2433.3,3418.5 					"/>
					<polygon class="st3" points="2652.8,3231.1 614.9,1492.7 702.7,1417.8 2740.6,3156.2 					"/>
					<polygon class="st3" points="2960.3,2968.9 922.4,1230.5 1010.2,1155.5 3048.1,2894 					"/>
					<polygon class="st3" points="3267.7,2706.7 1229.8,968.2 1317.6,893.3 3355.5,2631.6 					"/>
					<polygon class="st3" points="3575.2,2444.3 1537.3,705.9 1625.1,631.1 3663,2369.4 					"/>
					<polygon class="st3" points="87.8,2444.3 0,2369.4 2037.9,631.1 2125.7,705.9 					"/>
					<polygon class="st3" points="395.3,2706.7 307.5,2631.6 2345.4,893.3 2433.3,968.2 					"/>
					<polygon class="st3" points="702.7,2968.9 614.9,2894 2652.8,1155.5 2740.6,1230.5 					"/>
					<polygon class="st3" points="1010.2,3231.1 922.4,3156.2 2960.3,1417.8 3048.1,1492.7 					"/>
					<polygon class="st3" points="1317.6,3493.4 1229.8,3418.5 3267.7,1680 3355.5,1755 					"/>
					<polygon class="st3" points="1625.1,3755.6 1537.3,3680.7 3575.2,1942.3 3663,2017.2 					"/>
				</g>
			</g>
		</g>
	</g>
</g>
</svg>
