<?xml version="1.0" encoding="iso-8859-1"?>
<!-- Generator: Adobe Illustrator 25.3.1, SVG Export Plug-In . SVG Version: 6.00 Build 0)  -->
<svg version="1.1" id="Layer_1" xmlns="http://www.w3.org/2000/svg" xmlns:xlink="http://www.w3.org/1999/xlink" x="0px" y="0px"
	 viewBox="0 0 4320 4320" style="enable-background:new 0 0 4320 4320;" xml:space="preserve">
<g>
	<g id="ICON_6">
		<path style="fill:#669966;" d="M2498.288,1834.486c0.017-319.046,248.342-593.948,593.878-657.44
			c-401.234-73.357-792.219,161.496-873.289,524.559s178.475,716.852,579.709,790.209c96.881,17.713,196.699,17.713,293.58,0
			C2746.675,2428.331,2498.364,2153.49,2498.288,1834.486z"/>
		<path style="fill:#669966;" d="M2429.735,1479.419c0.017-319.046,248.342-593.948,593.878-657.44
			c-401.234-73.357-792.219,161.496-873.289,524.559c-81.07,363.063,178.475,716.852,579.709,790.209
			c96.881,17.712,196.698,17.712,293.579,0C2678.122,2073.264,2429.811,1798.423,2429.735,1479.419z"/>
		<path style="fill:#669966;" d="M2310.075,1163.706c0.075-319.004,248.387-593.845,593.878-657.328
			c-401.235-73.357-792.219,161.496-873.289,524.559c-81.07,363.063,178.475,716.852,579.709,790.209
			c96.881,17.713,196.699,17.713,293.58,0C2558.417,1757.654,2310.092,1482.752,2310.075,1163.706z"/>
		<path style="fill:#669966;" d="M1846.177,1834.486c-0.017-319.046-248.341-593.948-593.878-657.44
			c401.234-73.357,792.219,161.496,873.289,524.559c81.07,363.063-178.475,716.852-579.709,790.209
			c-96.881,17.713-196.699,17.713-293.58,0C1597.79,2428.331,1846.102,2153.49,1846.177,1834.486z"/>
		<path style="fill:#669966;" d="M1914.361,1479.419c-0.005-319.011-248.267-593.902-593.755-657.44
			c401.234-73.357,792.219,161.496,873.289,524.559s-178.475,716.852-579.71,790.209c-96.881,17.712-196.698,17.712-293.579,0
			C1666.049,2073.218,1914.298,1798.389,1914.361,1479.419z"/>
		<path style="fill:#669966;" d="M2034.267,1163.706c-0.063-318.97-248.312-593.799-593.755-657.328
			c401.234-73.357,792.219,161.496,873.289,524.559c81.07,363.063-178.475,716.852-579.709,790.209
			c-96.881,17.713-196.699,17.713-293.58,0C1786,1757.608,2034.262,1482.717,2034.267,1163.706z"/>
		<path style="fill:#E5B45C;" d="M2061.172,1459.743h198.655c459.688,0,832.338,337.198,832.338,753.154v861.987
			c0,415.956-372.65,753.154-832.338,753.154h-198.655c-459.688,0-832.339-337.198-832.339-753.154v-861.987
			C1228.834,1796.941,1601.484,1459.743,2061.172,1459.743z"/>
		<g>
			<defs>
				<path id="SVGID_1_" d="M2061.172,1459.743h198.655c459.688,0,832.338,337.198,832.338,753.154v861.987
					c0,415.956-372.65,753.154-832.338,753.154h-198.655c-459.688,0-832.339-337.198-832.339-753.154v-861.987
					C1228.834,1796.941,1601.484,1459.743,2061.172,1459.743z"/>
			</defs>
			<clipPath id="SVGID_2_">
				<use xlink:href="#SVGID_1_"  style="overflow:visible;"/>
			</clipPath>
			<g style="clip-path:url(#SVGID_2_);">
				<polygon style="fill:#FFCC66;" points="2366.834,4248.581 328.926,2510.157 416.766,2435.23 2454.675,4173.655 				"/>
				<polygon style="fill:#FFCC66;" points="2674.338,3986.339 636.43,2247.915 724.271,2172.988 2762.179,3911.413 				"/>
				<polygon style="fill:#FFCC66;" points="2981.72,3724.097 943.812,1985.672 1031.653,1910.746 3069.561,3649.17 				"/>
				<polygon style="fill:#FFCC66;" points="3289.225,3461.854 1251.316,1723.43 1339.157,1648.504 3377.065,3386.928 				"/>
				<polygon style="fill:#FFCC66;" points="3596.606,3199.613 1558.698,1461.188 1646.539,1386.262 3684.447,3124.575 				"/>
				<polygon style="fill:#FFCC66;" points="3904.111,2937.259 1866.202,1198.835 1954.043,1124.02 3991.952,2862.333 				"/>
				<polygon style="fill:#FFCC66;" points="416.766,2937.259 328.926,2862.333 2366.834,1124.02 2454.675,1198.835 				"/>
				<polygon style="fill:#FFCC66;" points="724.271,3199.613 636.43,3124.575 2674.338,1386.262 2762.179,1461.188 				"/>
				<polygon style="fill:#FFCC66;" points="1031.653,3461.854 943.812,3386.928 2981.72,1648.504 3069.561,1723.43 				"/>
				<polygon style="fill:#FFCC66;" points="1339.157,3724.097 1251.316,3649.17 3289.225,1910.746 3377.065,1985.672 				"/>
				<polygon style="fill:#FFCC66;" points="1646.539,3986.339 1558.698,3911.413 3596.606,2172.988 3684.447,2247.915 				"/>
				<polygon style="fill:#FFCC66;" points="1954.043,4248.581 1866.202,4173.655 3904.111,2435.23 3991.952,2510.157 				"/>
			</g>
		</g>
	</g>
</g>
</svg>
