<?xml version="1.0" encoding="iso-8859-1"?>
<!-- Generator: Adobe Illustrator 25.3.1, SVG Export Plug-In . SVG Version: 6.00 Build 0)  -->
<svg version="1.1" id="Layer_1" xmlns="http://www.w3.org/2000/svg" xmlns:xlink="http://www.w3.org/1999/xlink" x="0px" y="0px"
	 viewBox="0 0 4320 4320" style="enable-background:new 0 0 4320 4320;" xml:space="preserve">
<g>
	<path style="fill:#F27C00;" d="M796.51,2140.256c11.765-13.635,8.12-30.971,10.057-46.531
		c25.506-204.9,93.084-392.94,226.832-552.693c87.52-104.537,194.884-180.732,331.758-208.015
		c32.429-6.464,65.11-11.331,98.395-8.173c0.364,8.449-5.02,13.677-10.967,18.038c-40.488,29.691-77.417,62.75-111.718,99.912
		c-46.228,50.084-85.84,104.716-119.27,163.182c-59.225,103.578-99.825,215.127-126.672,331.348
		c-19.061,82.516-26.482,166.873-33.323,251.04c-5.275,64.903,1.566,129.981,6.094,194.756c1.32,18.879,1.464,38.435,5.134,56.996
		c10.554,53.384,18.461,107.248,32.176,160.091c20.698,79.749,47.38,157.134,83.695,231.077
		c30.189,61.471,64.886,120.413,107.264,174.236c37.894,48.128,81.258,91.126,128.147,130.881
		c13.834,11.729,35.591,17.333,39.426,39.541c-96.401,2.418-184.99-24.326-266.293-74.583
		c-138.344-85.518-230.748-209.949-297.526-355.775c-45.45-99.25-73.159-203.521-90.208-310.91
		c-3.161-19.912-4.479-40.114-6.785-60.166c-0.592-5.153,0.775-11.378-6.215-13.703
		C796.51,2287.287,796.51,2213.772,796.51,2140.256z"/>
	<path style="fill:#F88B00;" d="M2554.992,3254.119c-13.866-0.539-23.527,8.816-34.5,14.892
		c-97.257,53.853-200.038,86.851-312.567,83.354c-0.045-705.286-0.091-1410.572-0.136-2115.858
		c72.844-3.819,142.459,11.331,210.564,35.63c10.107,3.606,19.925,9.425,31.449,6.434c6.864,10.909,19.169,13.449,29.571,18.486
		c58.623,28.388,113.725,62.831,161.854,106.295c42.632,38.5,81.897,80.568,117.671,126.298
		c81.516,104.203,139.352,220.549,180.484,345.032c33.955,102.759,54.79,209.448,60.908,317.324
		c5.736,101.131,5.771,203.142-10.482,303.782c-11.569,71.633-27.007,142.584-49.208,211.936
		c-29.913,93.444-69.165,182.611-121.509,265.589c-26.718,42.353-56.01,82.922-89.219,120.859
		c-30.197,34.497-61.84,66.897-96.632,96.79C2607.758,3212.857,2578.994,3230.525,2554.992,3254.119z"/>
	<path style="fill:#FEA426;" d="M2207.788,1236.508c0.045,705.286,0.091,1410.572,0.136,2115.858
		c-113.062,1.612-217.008-30.404-314.574-85.628c-10.378-5.874-19.845-13.425-32.741-12.23c1.013-10.937-8.79-13.5-15.036-17.635
		c-71.832-47.547-131.872-108.386-184.178-175.396c-90.755-116.267-153.912-247.135-194.713-389.438
		c-29.014-101.19-44.264-204.365-51.581-308.562c-3.82-54.398-2.602-109.478,3.1-164.555
		c5.998-57.939,12.095-115.566,22.775-172.906c20.34-109.198,54.961-213.543,104.279-312.751
		c36.649-73.723,80.251-143.114,134.117-206.143c72.103-84.367,152.566-157.51,253.779-205.643
		c13.008-6.186,27.221-10.731,37.738-21.488c12.288,0.57,22.894-5.263,33.963-9.136
		C2070.559,1247.864,2137.861,1234.474,2207.788,1236.508z"/>
	<path style="fill:#F88B00;" d="M1970.89,1279.991c-10.516,10.757-24.73,15.303-37.738,21.488
		c-101.214,48.132-181.677,121.275-253.779,205.643c-53.866,63.029-97.468,132.42-134.117,206.143
		c-49.318,99.208-83.94,203.553-104.279,312.751c-10.68,57.34-16.777,114.967-22.775,172.906
		c-5.702,55.077-6.92,110.156-3.1,164.555c7.316,104.198,22.567,207.372,51.581,308.562
		c40.802,142.303,103.958,273.171,194.713,389.438c52.307,67.01,112.346,127.85,184.178,175.396
		c6.246,4.135,16.049,6.697,15.036,17.635c-78.755,18.522-156.483,11.727-233.547-9.725c-47.999-13.362-92.976-33.83-135.251-60.007
		c-9.049-5.603-18.087-8.323-28.273-8.834c-3.836-22.207-25.592-27.811-39.426-39.541c-46.888-39.755-90.252-82.753-128.147-130.881
		c-42.378-53.823-77.075-112.765-107.264-174.236c-36.315-73.944-62.997-151.328-83.695-231.077
		c-13.714-52.843-21.622-106.707-32.176-160.091c-3.669-18.56-3.814-38.116-5.134-56.996
		c-4.528-64.774-11.369-129.853-6.094-194.756c6.84-84.167,14.262-168.524,33.323-251.04
		c26.847-116.221,67.447-227.77,126.672-331.348c33.43-58.465,73.042-113.097,119.27-163.182
		c34.3-37.162,71.23-70.221,111.718-99.912c5.947-4.361,11.331-9.589,10.967-18.038c11.484,0.082,20.711-5.161,30.41-10.904
		c91.378-54.103,189.582-82.808,296.512-77.867c40.51,1.872,80.177,8.739,119.02,20.478c12.271,3.708,24.243,8.721,37.273,9.502
		C1953.288,1273.329,1963.214,1274.713,1970.89,1279.991z"/>
	<path style="fill:#F27C00;" d="M2554.992,3254.119c24.003-23.594,52.766-41.262,78.25-63.157
		c34.792-29.893,66.435-62.293,96.632-96.79c33.208-37.937,62.501-78.506,89.219-120.859
		c52.344-82.978,91.596-172.145,121.509-265.589c22.201-69.352,37.639-140.303,49.208-211.936
		c16.253-100.641,16.219-202.651,10.482-303.782c-6.118-107.875-26.954-214.565-60.908-317.324
		c-41.133-124.483-98.968-240.829-180.484-345.032c-35.774-45.73-75.039-87.797-117.671-126.298
		c-48.13-43.465-103.231-77.907-161.854-106.295c-10.402-5.037-22.707-7.577-29.571-18.486c6.294-4.172,12.587-8.343,18.881-12.515
		c37.56-7.379,73.586-20.696,111.882-25.802c115.752-15.432,223.14,8.698,324.721,64.068c13.487,7.351,25.188,18.465,41.273,20.675
		c2.201,2.897,3.907,6.425,6.677,8.598c44.435,34.883,87.362,70.985,125.29,113.502c45.23,50.704,85.04,105.033,118.199,163.836
		c58.651,104.01,98.248,215.739,124.239,332.041c11.065,49.513,19.662,99.543,23.174,150.607
		c3.183,46.268,9.698,92.365,10.101,138.855c0.316,36.526-2.175,72.935-4.318,109.42c-3.317,56.485-7.925,112.892-19.156,167.941
		c-17.436,85.459-39.254,169.766-73.245,251.029c-32.274,77.159-69.954,150.592-118.606,218.408
		c-42.782,59.635-93.543,111.637-149.664,158.996c-13.116,11.069-34.281,16.113-37.321,37.725
		c-11.36,0.088-20.733,4.705-30.5,10.523c-91.154,54.309-189.416,82.589-296.073,77.967
		C2601.664,3263.419,2577.801,3261.927,2554.992,3254.119z"/>
	<path style="fill:#EC6C01;" d="M2951.929,3175.955c3.04-21.612,24.205-26.656,37.321-37.725
		c56.12-47.358,106.881-99.361,149.664-158.996c48.651-67.815,86.332-141.248,118.606-218.408
		c33.99-81.263,55.809-165.57,73.245-251.029c11.231-55.049,15.838-111.456,19.156-167.941c2.143-36.485,4.635-72.894,4.318-109.42
		c-0.403-46.49-6.918-92.587-10.101-138.855c-3.512-51.063-12.109-101.093-23.174-150.607
		c-25.991-116.302-65.588-228.031-124.239-332.041c-33.159-58.804-72.969-113.133-118.199-163.836
		c-37.927-42.517-80.855-78.619-125.29-113.502c-2.769-2.174-4.476-5.701-6.677-8.598c100.585-4.402,192.179,24.338,276.561,77.154
		c134.627,84.263,225.677,205.865,290.484,348.135c90.853,199.447,119.299,409.483,98.716,626.623
		c-15.349,161.924-59.587,315.508-141.585,456.692c-75.878,130.646-175.509,237.52-315.789,300.707
		C3090.61,3163.288,3022.96,3178.457,2951.929,3175.955z"/>
	<path style="fill:#68B96B;" d="M2468.683,1266.056c-6.294,4.172-12.587,8.344-18.881,12.515
		c-11.524,2.991-21.343-2.828-31.449-6.434c-68.105-24.299-137.72-39.449-210.564-35.63
		c-69.927-2.034-137.229,11.357-202.935,34.347c-11.069,3.873-21.675,9.706-33.963,9.136c-7.676-5.278-17.601-6.662-24.124-13.937
		c44.68-55.619,104.212-87.906,175.045-109.27c0.647-138.264,63.627-252.076,150.141-359.679
		c46.574,33.489,92.987,66.861,140.884,101.302c-26.537,41.38-56.68,78.343-78.627,120.57
		c-22.318,42.941-33.311,88.665-35.876,138.925C2363.835,1179.324,2424.488,1210,2468.683,1266.056z"/>
</g>
</svg>
