<?xml version="1.0" encoding="utf-8"?>
<!-- Generator: Adobe Illustrator 25.3.1, SVG Export Plug-In . SVG Version: 6.00 Build 0)  -->
<svg version="1.1" id="Layer_1" xmlns="http://www.w3.org/2000/svg" xmlns:xlink="http://www.w3.org/1999/xlink" x="0px" y="0px"
	 viewBox="0 0 2822.2 2555.5" style="enable-background:new 0 0 2822.2 2555.5;" xml:space="preserve">
<style type="text/css">
	.st0{fill:#F27C00;}
	.st1{fill:#F88B00;}
	.st2{fill:#FEA426;}
	.st3{fill:#EC6C01;}
	.st4{fill:#68B96B;}
</style>
<g>
	<path class="st0" d="M0,1343.2c11.8-13.6,8.1-31,10.1-46.5c25.5-204.9,93.1-392.9,226.8-552.7c87.5-104.5,194.9-180.7,331.8-208
		c32.4-6.5,65.1-11.3,98.4-8.2c0.4,8.4-5,13.7-11,18c-40.5,29.7-77.4,62.8-111.7,99.9c-46.2,50.1-85.8,104.7-119.3,163.2
		c-59.2,103.6-99.8,215.1-126.7,331.3c-19.1,82.5-26.5,166.9-33.3,251c-5.3,64.9,1.6,130,6.1,194.8c1.3,18.9,1.5,38.4,5.1,57
		c10.6,53.4,18.5,107.2,32.2,160.1c20.7,79.7,47.4,157.1,83.7,231.1c30.2,61.5,64.9,120.4,107.3,174.2
		c37.9,48.1,81.3,91.1,128.1,130.9c13.8,11.7,35.6,17.3,39.4,39.5c-96.4,2.4-185-24.3-266.3-74.6
		c-138.3-85.5-230.7-209.9-297.5-355.8C57.8,1849.2,30,1745,13,1637.6c-3.2-19.9-4.5-40.1-6.8-60.2c-0.6-5.2,0.8-11.4-6.2-13.7
		C0,1490.2,0,1416.7,0,1343.2z"/>
	<path class="st1" d="M1758.5,2457c-13.9-0.5-23.5,8.8-34.5,14.9c-97.3,53.9-200,86.9-312.6,83.4c0-705.3-0.1-1410.6-0.1-2115.9
		c72.8-3.8,142.5,11.3,210.6,35.6c10.1,3.6,19.9,9.4,31.4,6.4c6.9,10.9,19.2,13.4,29.6,18.5c58.6,28.4,113.7,62.8,161.9,106.3
		c42.6,38.5,81.9,80.6,117.7,126.3c81.5,104.2,139.4,220.5,180.5,345c34,102.8,54.8,209.4,60.9,317.3
		c5.7,101.1,5.8,203.1-10.5,303.8c-11.6,71.6-27,142.6-49.2,211.9c-29.9,93.4-69.2,182.6-121.5,265.6c-26.7,42.4-56,82.9-89.2,120.9
		c-30.2,34.5-61.8,66.9-96.6,96.8C1811.2,2415.8,1782.5,2433.4,1758.5,2457z"/>
	<path class="st2" d="M1411.3,439.4c0,705.3,0.1,1410.6,0.1,2115.9c-113.1,1.6-217-30.4-314.6-85.6c-10.4-5.9-19.8-13.4-32.7-12.2
		c1-10.9-8.8-13.5-15-17.6c-71.8-47.5-131.9-108.4-184.2-175.4c-90.8-116.3-153.9-247.1-194.7-389.4
		c-29-101.2-44.3-204.4-51.6-308.6c-3.8-54.4-2.6-109.5,3.1-164.6c6-57.9,12.1-115.6,22.8-172.9c20.3-109.2,55-213.5,104.3-312.8
		C785.4,842.4,829,773,882.9,710c72.1-84.4,152.6-157.5,253.8-205.6c13-6.2,27.2-10.7,37.7-21.5c12.3,0.6,22.9-5.3,34-9.1
		C1274,450.8,1341.4,437.4,1411.3,439.4z"/>
	<path class="st1" d="M1174.4,482.9c-10.5,10.8-24.7,15.3-37.7,21.5C1035.4,552.5,955,625.6,882.9,710
		c-53.9,63-97.5,132.4-134.1,206.1c-49.3,99.2-83.9,203.6-104.3,312.8c-10.7,57.3-16.8,115-22.8,172.9
		c-5.7,55.1-6.9,110.2-3.1,164.6c7.3,104.2,22.6,207.4,51.6,308.6c40.8,142.3,104,273.2,194.7,389.4
		c52.3,67,112.3,127.9,184.2,175.4c6.2,4.1,16,6.7,15,17.6c-78.8,18.5-156.5,11.7-233.5-9.7c-48-13.4-93-33.8-135.3-60
		c-9-5.6-18.1-8.3-28.3-8.8c-3.8-22.2-25.6-27.8-39.4-39.5c-46.9-39.8-90.3-82.8-128.1-130.9c-42.4-53.8-77.1-112.8-107.3-174.2
		c-36.3-73.9-63-151.3-83.7-231.1c-13.7-52.8-21.6-106.7-32.2-160.1c-3.7-18.6-3.8-38.1-5.1-57c-4.5-64.8-11.4-129.9-6.1-194.8
		c6.8-84.2,14.3-168.5,33.3-251c26.8-116.2,67.4-227.8,126.7-331.3c33.4-58.5,73-113.1,119.3-163.2c34.3-37.2,71.2-70.2,111.7-99.9
		c5.9-4.4,11.3-9.6,11-18c11.5,0.1,20.7-5.2,30.4-10.9C788.8,462.7,887,434,994,439c40.5,1.9,80.2,8.7,119,20.5
		c12.3,3.7,24.2,8.7,37.3,9.5C1156.8,476.2,1166.7,477.6,1174.4,482.9z"/>
	<path class="st0" d="M1758.5,2457c24-23.6,52.8-41.3,78.2-63.2c34.8-29.9,66.4-62.3,96.6-96.8c33.2-37.9,62.5-78.5,89.2-120.9
		c52.3-83,91.6-172.1,121.5-265.6c22.2-69.4,37.6-140.3,49.2-211.9c16.3-100.6,16.2-202.7,10.5-303.8
		c-6.1-107.9-27-214.6-60.9-317.3c-41.1-124.5-99-240.8-180.5-345c-35.8-45.7-75-87.8-117.7-126.3
		c-48.1-43.5-103.2-77.9-161.9-106.3c-10.4-5-22.7-7.6-29.6-18.5c6.3-4.2,12.6-8.3,18.9-12.5c37.6-7.4,73.6-20.7,111.9-25.8
		c115.8-15.4,223.1,8.7,324.7,64.1c13.5,7.4,25.2,18.5,41.3,20.7c2.2,2.9,3.9,6.4,6.7,8.6c44.4,34.9,87.4,71,125.3,113.5
		c45.2,50.7,85,105,118.2,163.8c58.7,104,98.2,215.7,124.2,332c11.1,49.5,19.7,99.5,23.2,150.6c3.2,46.3,9.7,92.4,10.1,138.9
		c0.3,36.5-2.2,72.9-4.3,109.4c-3.3,56.5-7.9,112.9-19.2,167.9c-17.4,85.5-39.3,169.8-73.2,251c-32.3,77.2-70,150.6-118.6,218.4
		c-42.8,59.6-93.5,111.6-149.7,159c-13.1,11.1-34.3,16.1-37.3,37.7c-11.4,0.1-20.7,4.7-30.5,10.5c-91.2,54.3-189.4,82.6-296.1,78
		C1805.2,2466.3,1781.3,2464.8,1758.5,2457z"/>
	<path class="st3" d="M2155.4,2378.9c3-21.6,24.2-26.7,37.3-37.7c56.1-47.4,106.9-99.4,149.7-159c48.7-67.8,86.3-141.2,118.6-218.4
		c34-81.3,55.8-165.6,73.2-251c11.2-55,15.8-111.5,19.2-167.9c2.1-36.5,4.6-72.9,4.3-109.4c-0.4-46.5-6.9-92.6-10.1-138.9
		c-3.5-51.1-12.1-101.1-23.2-150.6c-26-116.3-65.6-228-124.2-332c-33.2-58.8-73-113.1-118.2-163.8c-37.9-42.5-80.9-78.6-125.3-113.5
		c-2.8-2.2-4.5-5.7-6.7-8.6c100.6-4.4,192.2,24.3,276.6,77.2c134.6,84.3,225.7,205.9,290.5,348.1c90.9,199.4,119.3,409.5,98.7,626.6
		c-15.3,161.9-59.6,315.5-141.6,456.7c-75.9,130.6-175.5,237.5-315.8,300.7C2294.1,2366.2,2226.4,2381.4,2155.4,2378.9z"/>
	<path class="st4" d="M1672.2,469c-6.3,4.2-12.6,8.3-18.9,12.5c-11.5,3-21.3-2.8-31.4-6.4c-68.1-24.3-137.7-39.4-210.6-35.6
		c-69.9-2-137.2,11.4-202.9,34.3c-11.1,3.9-21.7,9.7-34,9.1c-7.7-5.3-17.6-6.7-24.1-13.9c44.7-55.6,104.2-87.9,175-109.3
		c0.6-138.3,63.6-252.1,150.1-359.7c46.6,33.5,93,66.9,140.9,101.3c-26.5,41.4-56.7,78.3-78.6,120.6
		c-22.3,42.9-33.3,88.7-35.9,138.9C1567.3,382.2,1628,412.9,1672.2,469z"/>
</g>
</svg>
