<?xml version="1.0" encoding="utf-8"?>
<!-- Generator: Adobe Illustrator 25.3.1, SVG Export Plug-In . SVG Version: 6.00 Build 0)  -->
<svg version="1.1" id="Layer_1" xmlns="http://www.w3.org/2000/svg" xmlns:xlink="http://www.w3.org/1999/xlink" x="0px" y="0px"
	 viewBox="0 0 1576.2 2047.9" style="enable-background:new 0 0 1576.2 2047.9;" xml:space="preserve">
<style type="text/css">
	.st0{fill:#C52A6A;}
	.st1{fill:#659C36;}
	.st2{fill:#E43383;}
</style>
<g id="S2V0P6.tif">
</g>
<path class="st0" d="M792,2047.9c-16.7-6-33.9-10.8-49.9-18.1c-37.3-17-67.5-42.8-88.5-78.3c-5.2-8.8-8.6-12.6-19.4-6.1
	c-109.9,66.5-254.4,13.1-293.9-111.3c-3-9.6-8.4-13.7-17.2-16.9c-116.8-42.6-168.3-156.4-122.2-271.4c5.5-13.7-0.1-15.5-10.3-18.2
	c-79.5-21-129.5-71.9-148.3-151.5c-13.2-55.9-2.7-108.7,30.3-156.2c7.8-11.2,10.6-17.3-2.3-28.4c-92.8-80-93.7-218.8-2.2-301.4
	c10.5-9.5,12.7-17.9,10-30.9c-20.9-103.4,41.1-205.6,142.4-231.5c22.9-5.9,28.8-23.1,39.2-38.5c4.7-4.7,9.5-9.4,14-14.2
	c87.1-91.4,219.7-88.3,302.3,7.6c8.2,9.5,11.8,9.9,20.6-0.2c74.9-85.8,187.2-97.9,278.1-31c20.7,15.2,35.5,35.6,51.5,57.9
	c4.1-8.5,7.1-15,10.2-21.5c47.2-101,169.1-144,269.3-95.2c33.1,16.1,57.7,42.2,81.4,69.3c7.5,18.5,19,35.2,23.5,55
	c1.8,7.6,8.3,9.5,14.7,11.8c86.1,31,132.7,92.4,139.9,183.4c0.7,9.4,4.6,13.8,12,18.5c121.2,77,133,234.5,24.4,328.1
	c-8.9,7.6-9.6,10.7-0.3,18.7c113.1,97.4,95.3,262.7-36,334.7c-9,4.9-12.2,8.9-8.8,19.8c35.9,113.9-39.9,239.1-161.9,255.6
	c-14.2,1.9-14.3,11.7-16.1,21.1c-12.8,67.7-50.5,116.8-112.4,146.2c-51.1,24.2-104,26.2-157.2,5.7c-8.2-3.2-14.4-6.6-21.8,3.6
	c-31.4,43.5-73.8,70.5-126.9,80.1c-1.5,0.3-2.7,2.4-4.1,3.6C834.8,2047.9,813.4,2047.9,792,2047.9z M1251.9,909.4
	c-1.3,0-2.7-0.1-4,0c-69.8,3.3-131.6-69.6-111.9-134.4c2.5-8.3,6.1-17.5,3.9-27.3c-3.7-16.5-18.8-30.4-34.6-30.8
	c-18-0.5-35.4,14.6-39.9,35.7c-16.4,78.2,4.8,143.7,69.3,192.3c78.1,58.8,177,50.9,242.1-13.3c9.9-9.8,18.8-21.2,15.1-37
	c-7.3-31-41.3-39.8-65.3-16.6C1305.6,898.3,1282.2,911.8,1251.9,909.4z M551.4,871.9c2.3-18.6-2.3-38.7-9.8-58
	c-7.1-18.3-25.6-28-41.4-23.1c-20.5,6.4-30.8,23.7-26.1,44.4c6.4,28.4,8.4,56.1-5.3,83.6c-28,56.1-116.2,96.3-178.6,36.5
	c-12.3-11.7-26.8-23.9-46.3-15.8c-25.7,10.7-31.1,41.2-10.3,62.6c45.6,47,100.8,63.7,165.5,51.9
	C480.4,1039.1,554.4,962.2,551.4,871.9z M996.5,1651.2c0.5-18.1-2.5-35.8-7.9-52.9c-5.7-18-26.7-30.4-41.9-26.3
	c-19,5.1-31.2,26.2-27.3,46.2c2,10.4,5.2,21.1,4.5,31.4c-3.3,49.1-28.3,84.6-73.9,101.9c-42.3,16-83.7,13.3-117.9-21.8
	c-8.3-8.5-17.1-17-29.9-18.4c-17.2-2-29.8,5.3-38.4,19.9c-10,17-2.2,31,9.2,43.3c42,45.5,93.2,63.8,155.5,57.6
	C918.8,1823,996.5,1741.3,996.5,1651.2z M1317.1,1323.5c2.6-18.5-2.1-39.2-9.2-59.5c-5.1-14.5-17.7-19.5-31.1-21.6
	c-14-2.2-23.6,5.9-32,16.2c-10.4,12.8-5.4,26.7-2.8,40c10.5,52.4-9.4,97-55.9,123.2c-41.9,23.6-98.4,16.4-133.3-17.2
	c-18.9-18.2-40.5-19.4-56.5-3.2c-13.3,13.4-10.6,42.1,6.6,57.4c45.2,40,96.7,59.1,157.8,48
	C1250.9,1490.4,1322.6,1409.6,1317.1,1323.5z M522.1,1535.6c76.2-5.7,135.5-38.1,167.5-112.5c9.9-23,5.3-45.4-12.5-53.9
	c-21.2-10.1-43.1-0.6-53.5,23.1c-19.7,45-65.1,74.3-108.5,70c-57.6-5.7-98.7-41.9-108.1-95.2c-0.9-5.2-1.9-10.6-4.2-15.3
	c-7.4-15.7-19.6-25.7-37.4-24.1c-17.9,1.5-30,16.9-30.4,36.2c-0.5,19.5,3.4,38.5,11.1,56.2C379.3,1496.1,440.5,1529.9,522.1,1535.6z
	 M1025.1,1058.7c-0.3-7.7-0.7-14.5-6.1-20.8c-19.2-22.9-48.9-20.6-61.7,6.5c-11.4,24-25.1,45.5-48.6,59.2
	c-57.5,33.5-159.9,13.3-172.9-84.3c-2.9-21.9-20.5-35.8-39.9-33.6c-19.2,2.2-33.8,20.7-32,41.5c3.9,46.5,23.7,86.5,57.9,116.8
	c68,60,173.7,65.8,246,7.7C997.5,1127.7,1018.2,1097.1,1025.1,1058.7z"/>
<path class="st1" d="M1287.2,561.9c-23.8-27-48.3-53.1-81.4-69.3c-100.3-48.9-222.1-5.8-269.3,95.2c-3,6.5-6.1,12.9-10.2,21.5
	c-16-22.2-30.8-42.7-51.5-57.9c-90.9-66.9-203.2-54.8-278.1,31c-8.7,10-12.4,9.7-20.6,0.2c-82.6-95.9-215.2-99.1-302.3-7.6
	c-4.6,4.8-9.4,9.5-14,14.2c-83.4-53.9-151.8-121.6-195.9-212c-24.9-51-25.3-51.6,28.8-67.2c94.5-27.2,190.2-42,288.5-22.4
	c49.9,9.9,78.6,24.2,138.5,70.8c5.2-41.1,11.4-81.1,24.3-119.6C577.7,137,639.1,58,734.1,6c14.5-7.9,26-8,40.4,0
	c109.9,60.7,173.7,154.9,201.7,275.2c5.8,25.1,9.1,50.7,13.7,77.1c91.9-84.9,202.4-87.3,316.3-72.8c49,6.3,96.4,20.2,143.9,34.1
	c14.6,4.3,15,9.7,10.3,21.9C1425,432.6,1365.7,504.8,1287.2,561.9z"/>
<path class="st2" d="M1251.9,909.4c30.3,2.4,53.8-11.1,74.7-31.3c24-23.2,58-14.4,65.3,16.6c3.7,15.8-5.1,27.2-15.1,37
	c-65,64.2-163.9,72.1-242.1,13.3c-64.5-48.5-85.7-114-69.3-192.3c4.4-21.2,21.8-36.2,39.9-35.7c15.8,0.4,30.9,14.3,34.6,30.8
	c2.2,9.8-1.4,19-3.9,27.3c-19.7,64.7,42.1,137.7,111.9,134.4C1249.2,909.3,1250.5,909.4,1251.9,909.4z"/>
<path class="st2" d="M551.4,871.9c3,90.3-71.1,167.2-152.4,182.1c-64.6,11.8-119.9-4.9-165.5-51.9c-20.7-21.4-15.4-51.9,10.3-62.6
	c19.5-8.1,34,4.1,46.3,15.8c62.4,59.7,150.6,19.5,178.6-36.5c13.7-27.4,11.8-55.1,5.3-83.6c-4.7-20.7,5.7-38,26.1-44.4
	c15.8-4.9,34.3,4.8,41.4,23.1C549.1,833.2,553.7,853.3,551.4,871.9z"/>
<path class="st2" d="M996.5,1651.2c0,90.1-77.7,171.8-167.9,180.8c-62.3,6.2-113.5-12.1-155.5-57.6c-11.3-12.3-19.1-26.3-9.2-43.3
	c8.5-14.6,21.2-21.8,38.4-19.9c12.8,1.5,21.6,9.9,29.9,18.4c34.2,35.2,75.6,37.9,117.9,21.8c45.6-17.2,70.6-52.8,73.9-101.9
	c0.7-10.3-2.5-21-4.5-31.4c-3.9-20,8.4-41.1,27.3-46.2c15.2-4.1,36.2,8.2,41.9,26.3C994,1615.4,997,1633.1,996.5,1651.2z"/>
<path class="st2" d="M1317.1,1323.5c5.5,86.1-66.2,166.9-156.3,183.2c-61.1,11.1-112.7-8-157.8-48c-17.3-15.3-19.9-43.9-6.6-57.4
	c16-16.2,37.6-14.9,56.5,3.2c34.9,33.5,91.4,40.8,133.3,17.2c46.5-26.2,66.4-70.8,55.9-123.2c-2.7-13.3-7.7-27.1,2.8-40
	c8.4-10.3,18-18.4,32-16.2c13.4,2.1,26,7.1,31.1,21.6C1315,1284.2,1319.7,1304.9,1317.1,1323.5z"/>
<path class="st2" d="M522.1,1535.6c-81.6-5.7-142.8-39.5-176-115.5c-7.8-17.8-11.6-36.7-11.1-56.2c0.5-19.3,12.6-34.7,30.4-36.2
	c17.8-1.5,30.1,8.4,37.4,24.1c2.2,4.7,3.2,10.1,4.2,15.3c9.5,53.3,50.5,89.5,108.1,95.2c43.4,4.3,88.8-25,108.5-70
	c10.4-23.8,32.3-33.2,53.5-23.1c17.9,8.5,22.4,30.9,12.5,53.9C657.7,1497.5,598.3,1529.9,522.1,1535.6z"/>
<path class="st2" d="M1025.1,1058.7c-6.9,38.4-27.6,69-57.3,92.8c-72.3,58.2-178,52.3-246-7.7c-34.3-30.2-54-70.3-57.9-116.8
	c-1.7-20.9,12.8-39.3,32-41.5c19.4-2.2,37,11.7,39.9,33.6c13,97.6,115.4,117.9,172.9,84.3c23.5-13.7,37.2-35.2,48.6-59.2
	c12.8-27,42.5-29.3,61.7-6.5C1024.3,1044.2,1024.8,1051,1025.1,1058.7z"/>
</svg>
