<?xml version="1.0" encoding="iso-8859-1"?>
<!-- Generator: Adobe Illustrator 25.3.1, SVG Export Plug-In . SVG Version: 6.00 Build 0)  -->
<svg version="1.1" id="Layer_1" xmlns="http://www.w3.org/2000/svg" xmlns:xlink="http://www.w3.org/1999/xlink" x="0px" y="0px"
	 viewBox="0 0 14400 14400" style="enable-background:new 0 0 14400 14400;" xml:space="preserve">
<g id="S2V0P6.tif">
	
		<image style="overflow:visible;" width="394" height="512" id="Layer_0" xlink:href="E92355333E30A234.png"  transform="matrix(0.0875 0 0 0.0875 7182.2656 7026.7144)">
	</image>
</g>
<path style="fill:#C52A6A;" d="M7136.624,8977.01c-29.304-10.461-59.507-18.945-87.732-31.78
	c-65.642-29.851-118.709-75.154-155.548-137.714c-9.136-15.515-15.203-22.21-34.135-10.751
	c-193.222,116.958-447.1,22.999-516.656-195.651c-5.356-16.838-14.803-24.065-30.307-29.714
	c-205.36-74.816-295.922-274.857-214.85-477.03c9.647-24.057-0.143-27.224-18.14-31.977
	c-139.73-36.901-227.612-126.388-260.602-266.296c-23.149-98.176-4.671-191.126,53.304-274.488
	c13.712-19.716,18.595-30.401-4.101-49.951c-163.21-140.586-164.725-384.65-3.901-529.828
	c18.474-16.677,22.264-31.527,17.648-54.353c-36.748-181.717,72.283-361.397,250.272-406.97
	c40.306-10.32,50.62-40.546,68.853-67.733c8.231-8.307,16.614-16.467,24.68-24.93c153.167-160.728,386.257-155.164,531.448,13.419
	c14.409,16.731,20.82,17.343,36.197-0.27c131.708-150.859,329.048-172.079,488.887-54.552
	c36.391,26.757,62.406,62.662,90.562,101.753c7.124-15.028,12.556-26.344,17.868-37.717
	c82.94-177.558,297.184-253.183,473.423-167.309c58.213,28.365,101.36,74.201,143.166,121.733
	c13.236,32.456,33.326,61.955,41.376,96.67c3.106,13.394,14.575,16.673,25.863,20.743c151.281,54.543,233.34,162.35,245.847,322.438
	c1.285,16.446,8.169,24.309,21.049,32.493c213.069,135.375,233.829,412.18,42.963,576.711
	c-15.586,13.436-16.877,18.798-0.459,32.936c198.857,171.24,167.472,461.855-63.314,588.408
	c-15.847,8.69-21.45,15.727-15.411,34.892c63.066,200.136-70.059,420.356-284.645,449.24c-24.893,3.351-25.19,20.508-28.328,37.072
	c-22.558,119.058-88.819,205.365-197.624,256.921c-89.801,42.552-182.818,46.112-276.294,10.041
	c-14.366-5.544-25.369-11.664-38.374,6.333c-55.236,76.44-129.712,123.902-223.074,140.819c-2.684,0.486-4.785,4.187-7.157,6.389
	C7211.794,8977.01,7174.209,8977.01,7136.624,8977.01z M7944.944,6975.719c-2.347,0-4.698-0.098-7.039,0.014
	c-122.656,5.874-231.321-122.417-196.685-236.211c4.443-14.595,10.758-30.808,6.934-47.977
	c-6.463-29.016-33.04-53.416-60.826-54.159c-31.692-0.847-62.254,25.615-70.058,62.813
	c-28.856,137.542,8.449,252.634,121.813,337.947c137.344,103.36,311.178,89.526,425.494-23.359
	c17.487-17.269,32.995-37.326,26.457-65.034c-12.853-54.463-72.609-69.889-114.779-29.109
	C8039.441,6956.246,7998.185,6979.923,7944.944,6975.719z M6713.706,6909.803c4.046-32.673-4.106-68.006-17.28-102.031
	c-12.448-32.15-45.008-49.224-72.735-40.555c-35.95,11.24-54.225,41.651-45.96,78.097c11.33,49.961,14.755,98.642-9.354,146.876
	c-49.248,98.528-204.191,169.208-313.891,64.236c-21.561-20.632-47.191-41.972-81.402-27.777
	c-45.207,18.758-54.59,72.411-18.188,109.961c80.15,82.677,177.268,111.992,290.864,91.232
	C6588.803,7203.702,6718.968,7068.523,6713.706,6909.803z M7496.081,8279.691c0.897-31.834-4.443-63.002-13.915-93.036
	c-10.001-31.715-46.87-53.453-73.605-46.212c-33.321,9.024-54.879,46.011-48.054,81.192c3.547,18.284,9.176,37.06,7.965,55.221
	c-5.754,86.31-49.724,148.777-129.835,179.085c-74.419,28.155-147.091,23.436-207.239-38.392
	c-14.613-15.021-30.129-29.818-52.583-32.388c-30.176-3.454-52.468,9.331-67.443,34.929c-17.491,29.898-3.803,54.449,16.116,76.048
	c73.796,80.021,163.831,112.187,273.377,101.312C7359.524,8581.7,7495.994,8438.086,7496.081,8279.691z M8059.575,7703.597
	c4.616-32.546-3.639-68.931-16.177-104.572c-8.994-25.564-31.071-34.271-54.706-37.963c-24.55-3.834-41.529,10.365-56.253,28.541
	c-18.294,22.583-9.53,46.921-4.838,70.272c18.514,92.145-16.543,170.495-98.204,216.517c-73.705,41.539-173,28.743-234.383-30.203
	c-33.261-31.94-71.146-34.119-99.317-5.711c-23.383,23.579-18.684,73.928,11.66,100.825
	c79.372,70.354,170.049,103.81,277.455,84.375C7943.179,7997.021,8069.182,7855.031,8059.575,7703.597z M6662.182,8076.499
	c133.923-9.967,238.265-66.945,294.491-197.744c17.396-40.469,9.385-79.755-22.021-94.71c-37.278-17.751-75.74-1.107-93.979,40.668
	c-34.55,79.136-114.349,130.604-190.721,123.01c-101.32-10.073-173.434-73.705-190.059-167.414
	c-1.623-9.143-3.393-18.635-7.296-26.93c-12.979-27.582-34.454-45.104-65.82-42.409c-31.391,2.697-52.685,29.744-53.522,63.687
	c-0.847,34.33,5.91,67.605,19.551,98.851C6411.122,8007.089,6518.684,8066.442,6662.182,8076.499z M7546.285,7238.159
	c-0.576-13.539-1.293-25.411-10.705-36.634c-33.722-40.212-85.92-36.148-108.493,11.355
	c-20.069,42.234-44.189,80.014-85.447,104.081c-101.034,58.935-281.086,23.34-303.948-148.228
	c-5.13-38.501-36.053-62.922-70.131-59.063c-33.703,3.817-59.332,36.307-56.259,72.968c6.851,81.758,41.576,152.127,101.858,205.27
	c119.545,105.387,305.324,115.741,432.463,13.459C7497.775,7359.412,7534.201,7305.615,7546.285,7238.159z"/>
<path style="fill:#659C36;" d="M8006.963,6364.903c-41.806-47.532-84.953-93.369-143.166-121.733
	c-176.24-85.874-390.483-10.249-473.423,167.309c-5.312,11.373-10.745,22.688-17.868,37.717
	c-28.156-39.091-54.172-74.996-90.562-101.753c-159.839-117.526-357.179-96.307-488.887,54.552
	c-15.377,17.612-21.788,17-36.197,0.27c-145.191-168.583-378.281-174.147-531.448-13.419c-8.065,8.463-16.448,16.623-24.68,24.93
	c-146.566-94.817-266.875-213.781-344.341-372.6c-43.705-89.603-44.554-90.663,50.576-118.084
	c166.176-47.9,334.365-73.797,507.171-39.448c87.758,17.443,138.118,42.595,243.531,124.522
	c9.226-72.205,20.092-142.535,42.661-210.262c59.581-178.8,167.541-317.804,334.502-409.234c25.493-13.96,45.66-13.981,71.093,0.053
	c193.212,106.614,305.37,272.251,354.509,483.824c10.232,44.052,15.989,89.143,24.117,135.52
	c161.602-149.241,355.706-153.527,555.974-127.898c86.216,11.034,169.531,35.553,252.867,59.901
	c25.617,7.485,26.408,17.029,18.062,38.496C8249.195,6137.679,8145.022,6264.536,8006.963,6364.903z"/>
<path style="fill:#E43383;" d="M7944.941,6975.712c53.244,4.211,94.5-19.466,131.314-55.067
	c42.17-40.78,101.927-25.354,114.779,29.109c6.539,27.708-8.969,47.766-26.457,65.034
	c-114.316,112.885-288.15,126.719-425.494,23.359c-113.364-85.313-150.669-200.404-121.813-337.947
	c7.804-37.199,38.365-63.66,70.058-62.813c27.786,0.743,54.362,25.143,60.826,54.159c3.825,17.168-2.491,33.381-6.934,47.977
	c-34.637,113.794,74.029,242.085,196.685,236.211C7940.247,6975.621,7942.598,6975.719,7944.941,6975.712z"/>
<path style="fill:#E43383;" d="M6713.706,6909.803c5.262,158.721-124.902,293.899-267.945,320.04
	c-113.596,20.759-210.714-8.555-290.864-91.232c-36.402-37.55-27.019-91.203,18.188-109.961
	c34.21-14.195,59.841,7.145,81.402,27.777c109.7,104.971,264.643,34.292,313.891-64.236c24.109-48.234,20.684-96.915,9.354-146.876
	c-8.265-36.445,10.01-66.856,45.96-78.097c27.728-8.669,60.288,8.404,72.735,40.555
	C6709.599,6841.796,6717.752,6877.129,6713.706,6909.803z"/>
<path style="fill:#E43383;" d="M7496.053,8279.695c-0.059,158.391-136.529,302.005-295.188,317.755
	c-109.546,10.875-199.581-21.29-273.377-101.312c-19.919-21.599-33.606-46.149-16.116-76.048
	c14.975-25.598,37.267-38.383,67.443-34.929c22.453,2.569,37.969,17.366,52.583,32.388c60.148,61.827,132.819,66.547,207.239,38.392
	c80.111-30.308,124.081-92.775,129.835-179.085c1.211-18.161-4.418-36.937-7.965-55.221c-6.825-35.181,14.733-72.167,48.054-81.192
	c26.736-7.241,63.604,14.497,73.605,46.212C7491.637,8216.689,7496.978,8247.857,7496.053,8279.695z"/>
<path style="fill:#E43383;" d="M8059.575,7703.597c9.606,151.435-116.396,293.424-274.764,322.081
	c-107.406,19.435-198.083-14.02-277.455-84.375c-30.343-26.897-35.042-77.246-11.66-100.825
	c28.171-28.408,66.056-26.229,99.317,5.711c61.384,58.946,160.678,71.742,234.383,30.203
	c81.661-46.022,116.718-124.373,98.204-216.517c-4.692-23.351-13.456-47.689,4.838-70.272
	c14.724-18.176,31.703-32.375,56.253-28.541c23.635,3.691,45.712,12.399,54.706,37.963
	C8055.937,7634.666,8064.191,7671.05,8059.575,7703.597z"/>
<path style="fill:#E43383;" d="M6662.182,8076.499c-143.498-10.057-251.06-69.409-309.375-202.989
	c-13.641-31.246-20.397-64.521-19.551-98.851c0.837-33.943,22.131-60.99,53.522-63.687c31.366-2.695,52.84,14.827,65.82,42.409
	c3.903,8.294,5.673,17.787,7.296,26.93c16.625,93.709,88.738,157.34,190.059,167.414c76.373,7.593,156.171-43.875,190.721-123.01
	c18.239-41.776,56.701-58.419,93.979-40.668c31.406,14.955,39.417,54.241,22.021,94.71
	C6900.447,8009.553,6796.104,8066.532,6662.182,8076.499z"/>
<path style="fill:#E43383;" d="M7546.285,7238.159c-12.084,67.456-48.51,121.253-100.663,163.209
	c-127.139,102.282-312.918,91.928-432.463-13.459c-60.282-53.143-95.007-123.512-101.858-205.27
	c-3.072-36.661,22.556-69.151,56.259-72.968c34.078-3.859,65.001,20.562,70.131,59.063
	c22.862,171.567,202.915,207.163,303.948,148.228c41.258-24.067,65.378-61.847,85.447-104.081
	c22.573-47.503,74.771-51.567,108.493-11.355C7544.992,7212.749,7545.709,7224.621,7546.285,7238.159z"/>
</svg>
