<?xml version="1.0" encoding="utf-8"?>
<!-- Generator: Adobe Illustrator 25.3.1, SVG Export Plug-In . SVG Version: 6.00 Build 0)  -->
<svg version="1.1" id="Layer_1" xmlns="http://www.w3.org/2000/svg" xmlns:xlink="http://www.w3.org/1999/xlink" x="0px" y="0px"
	 viewBox="0 0 3162.5 3326.1" style="enable-background:new 0 0 3162.5 3326.1;" xml:space="preserve">
<style type="text/css">
	.st0{fill-rule:evenodd;clip-rule:evenodd;fill:#3BC3A4;}
	.st1{fill-rule:evenodd;clip-rule:evenodd;fill:#7FDBAE;}
	.st2{fill-rule:evenodd;clip-rule:evenodd;fill:#FFE5C1;}
	.st3{fill-rule:evenodd;clip-rule:evenodd;fill:#A7E9A6;}
	.st4{fill-rule:evenodd;clip-rule:evenodd;fill:#FED1A3;}
</style>
<g>
	<g>
		<path class="st0" d="M1246.8,298.5c-35.3,683.3-210.8,1172.2-453,1571.9c148.9-93.5,265-196.4,367.5-321.1
			c94.9-115.5,162-196.3,224-403.4c80.8-300.5,61.5-480,26.9-823.3C1386.4,147.8,1254.3,151.8,1246.8,298.5L1246.8,298.5z"/>
	</g>
	<g>
		<path class="st1" d="M642.8,2028.2l33.3,173l178.2,17.7c30-34.5,523.7-334.9,552.7-370.2c275.8-334.1,330.7-765,330.7-765
			c192.9-294.8,273.4-552.8,265.6-996.3c-1.9-111.9-108.7-110-129.8-29.8c-98.1,417-269.6,767-488.3,1088.3
			c-172.2,253.1-373.7,488.3-591.5,724.5c-28.3,30.7-57.1,61.7-86.1,92.6C683.3,1988.8,664,2008.9,642.8,2028.2z"/>
	</g>
	<g>
		<path class="st2" d="M854.3,2218.9l-211.5-190.7c-15.7,14.4-32.6,28.5-53.3,44.6l-479.9,372.8c-214.9,166.9-79.1,442,112.7,495.5
			c15.6-85.4,67.5-176,170-261.4C561.2,2538.7,712.6,2383,854.3,2218.9L854.3,2218.9z"/>
	</g>
	<g>
		<path class="st3" d="M1737.7,1083.7c-275.4,335.2-519.2,696.4-795,1030.5l44.6,194.7l218.6,23.8
			c433.7-619.2,1324.9-1174.8,1956.8-1661.3v-7c-53.9-17.6-789.3,134.3-1211.8,546.7c231.2-289.5,398.2-577.5,1190-1118.5
			c6.8-3.6,21.8-32.1,21.8-52.7c0-0.2,0-0.2,0-0.4c0-17.1-10.4-28.6-44.6-15.7C2510.2,253.9,2097,646.6,1737.7,1083.7L1737.7,1083.7
			z"/>
	</g>
	<g>
		<path class="st2" d="M1205.8,2332.7l-263.1-218.5c-29,35.3-58.4,70.2-88.4,104.7c-141.7,164.1-293.1,319.8-462.1,460.8
			c-102.4,85.4-154.4,176-170,261.4c-64.5,354.2,496.4,621.1,691.3,66.6C1002,2755,1176.9,2373.7,1205.8,2332.7L1205.8,2332.7z"/>
	</g>
	<g>
		<path class="st4" d="M854.3,2218.9l-211.5-190.7l-2.1,1.9l103.8,93.5c-141.7,163.9-293.1,319.8-462.1,460.8
			c-102.4,85.4-154.6,175.9-170.2,261.4c-18.2-5.1-36-12.3-53.1-21.1c40.8,55.4,98.8,98.3,163.1,116.3c15.6-85.4,67.5-176,170-261.4
			C561.2,2538.7,712.6,2383,854.3,2218.9L854.3,2218.9z"/>
	</g>
	<g>
		<path class="st0" d="M1605.1,1053.3c-296.5,360.6-555.3,712.5-858.8,1068.4l107.9,97.1c30-34.5,59.4-69.4,88.4-104.7
			c275.8-334.1,519.6-695.3,795-1030.5c192.9-294.8,273.4-552.8,265.6-996.3c-1.9-111.9-108.7-110-129.8-29.8
			c-0.8,3.2-1.7,6.5-2.5,9.7C1872.4,481.5,1790.8,769.3,1605.1,1053.3L1605.1,1053.3z"/>
	</g>
	<g>
		<path class="st4" d="M1205.8,2332.7l-263.1-218.5l131.5,109.3c-28.6,41-203.5,422.3-292.3,675c-110.2,314-337.7,364.6-502.7,285.3
			c141.9,194.4,489.4,236.6,634.4-176C1002,2755,1176.9,2373.7,1205.8,2332.7L1205.8,2332.7z"/>
	</g>
	<g>
		<path class="st1" d="M1074.1,2223.4l131.7,109.3c433.7-619.2,1324.9-1174.8,1956.8-1661.3v-7
			C2077.3,1101.7,1253.8,1967.1,1074.1,2223.4L1074.1,2223.4z"/>
	</g>
</g>
</svg>
