<?xml version="1.0" encoding="iso-8859-1"?>
<!-- Generator: Adobe Illustrator 25.3.1, SVG Export Plug-In . SVG Version: 6.00 Build 0)  -->
<svg version="1.1" id="Layer_1" xmlns="http://www.w3.org/2000/svg" xmlns:xlink="http://www.w3.org/1999/xlink" x="0px" y="0px"
	 viewBox="0 0 4320 4320" style="enable-background:new 0 0 4320 4320;" xml:space="preserve">
<g>
	<g>
		<path style="fill-rule:evenodd;clip-rule:evenodd;fill:#3BC3A4;" d="M1933.838,780.021
			c-35.282,683.317-210.756,1172.19-453.007,1571.901c148.917-93.529,265.021-196.354,367.469-321.071
			c94.912-115.538,162.046-196.315,224.015-403.413c80.815-300.491,61.462-479.954,26.94-823.321
			C2073.459,629.396,1941.426,633.384,1933.838,780.021L1933.838,780.021z"/>
	</g>
	<g>
		<path style="fill-rule:evenodd;clip-rule:evenodd;fill:#7FDBAE;" d="M1329.836,2509.758l33.307,172.973l178.209,17.683
			c29.974-34.528,523.688-334.87,552.707-370.152c275.824-334.071,330.725-765.042,330.725-765.042
			c192.924-294.8,273.355-552.804,265.579-996.333c-1.897-111.926-108.698-110.029-129.752-29.786
			c-98.076,416.971-269.562,766.978-488.289,1088.341c-172.246,253.067-373.712,488.302-591.484,724.485
			c-28.266,30.734-57.097,61.657-86.123,92.574C1370.432,2470.299,1351.079,2490.406,1329.836,2509.758z"/>
	</g>
	<g>
		<path style="fill-rule:evenodd;clip-rule:evenodd;fill:#FFE5C1;" d="M1541.352,2700.408l-211.516-190.656
			c-15.747,14.416-32.631,28.454-53.303,44.578L796.592,2927.1c-214.933,166.938-79.107,442.015,112.68,495.513
			c15.552-85.369,67.53-176.046,169.972-261.415C1248.26,3020.252,1399.646,2864.508,1541.352,2700.408L1541.352,2700.408z"/>
	</g>
	<g>
		<path style="fill-rule:evenodd;clip-rule:evenodd;fill:#A7E9A6;" d="M2424.784,1565.215
			c-275.447,335.208-519.212,696.407-795.036,1030.478l44.552,194.749l218.558,23.79
			c433.654-619.198,1324.869-1174.848,1956.76-1661.252v-7.016c-53.875-17.644-789.345,134.313-1211.805,546.73
			c231.246-289.492,398.184-577.465,1189.99-1118.504c6.828-3.605,21.815-32.06,21.815-52.738c0-0.188,0-0.188,0-0.377
			c0-17.073-10.433-28.643-44.578-15.747C3197.245,735.443,2784.074,1128.131,2424.784,1565.215L2424.784,1565.215z"/>
	</g>
	<g>
		<path style="fill-rule:evenodd;clip-rule:evenodd;fill:#FFE5C1;" d="M1892.866,2814.232l-263.117-218.539
			c-29.026,35.282-58.429,70.194-88.403,104.715c-141.706,164.093-293.085,319.844-462.108,460.796
			c-102.435,85.369-154.413,176.046-169.972,261.415c-64.496,354.177,496.448,621.095,691.269,66.588
			C1689.125,3236.517,1864.028,2855.211,1892.866,2814.232L1892.866,2814.232z"/>
	</g>
	<g>
		<path style="fill-rule:evenodd;clip-rule:evenodd;fill:#FED1A3;" d="M1541.352,2700.408l-211.516-190.656l-2.085,1.897
			l103.767,93.522c-141.706,163.904-293.085,319.844-462.108,460.796c-102.435,85.369-154.608,175.857-170.16,261.415
			c-18.209-5.119-36.042-12.33-53.115-21.055c40.784,55.395,98.836,98.265,163.144,116.292
			c15.552-85.369,67.53-176.046,169.972-261.415C1248.26,3020.252,1399.646,2864.507,1541.352,2700.408L1541.352,2700.408z"/>
	</g>
	<g>
		<path style="fill-rule:evenodd;clip-rule:evenodd;fill:#3BC3A4;" d="M2292.18,1534.864
			c-296.502,360.628-555.254,712.531-858.772,1068.424l107.938,97.128c29.974-34.528,59.377-69.433,88.403-104.715
			c275.824-334.077,519.588-695.277,795.036-1030.484c192.924-294.8,273.355-552.805,265.579-996.333
			c-1.897-111.926-108.698-110.029-129.752-29.786c-0.76,3.222-1.708,6.451-2.469,9.673
			C2559.468,963.09,2477.899,1250.874,2292.18,1534.864L2292.18,1534.864z"/>
	</g>
	<g>
		<path style="fill-rule:evenodd;clip-rule:evenodd;fill:#FED1A3;" d="M1892.866,2814.232l-263.117-218.539l131.461,109.27
			c-28.643,40.979-203.545,422.285-292.331,674.969c-110.218,313.965-337.663,364.617-502.704,285.315
			c141.894,194.45,489.426,236.56,634.36-176.046C1689.125,3236.517,1864.028,2855.211,1892.866,2814.232L1892.866,2814.232z"/>
	</g>
	<g>
		<path style="fill-rule:evenodd;clip-rule:evenodd;fill:#7FDBAE;" d="M1761.21,2704.962l131.65,109.27
			c433.654-619.198,1324.869-1174.848,1956.76-1661.252v-7.016C2764.344,1583.236,1940.861,2448.673,1761.21,2704.962
			L1761.21,2704.962z"/>
	</g>
</g>
</svg>
