<?xml version="1.0" encoding="iso-8859-1"?>
<!-- Generator: Adobe Illustrator 25.3.1, SVG Export Plug-In . SVG Version: 6.00 Build 0)  -->
<svg version="1.1" id="Layer_1" xmlns="http://www.w3.org/2000/svg" xmlns:xlink="http://www.w3.org/1999/xlink" x="0px" y="0px"
	 viewBox="0 0 4320 4320" style="enable-background:new 0 0 4320 4320;" xml:space="preserve">
<g>
	<path style="fill:#79AC54;" d="M1709.341,3018.475c-17.658-0.135-35.714,2.06-52.895-0.874
		c-39.548-6.753-67.988-29.117-83.658-66.854c-1.961-4.722-1.396-11.091-7.262-13.861c0-20.541,0-41.082,0-61.622
		c3.546-0.253,6.769-1.139,8.312-4.79c12.037-28.501,35.582-45.695,60.385-61.724c55.983-36.177,108.205-77.146,158.577-120.838
		c21.172-18.364,39.595-39.437,61.14-57.167c34.196-28.142,65.062-59.226,89.4-96.44c8.005,1.445,12.558-3.888,17.412-8.769
		c13.51-13.586,27.054-27.137,40.632-40.655c51.859-51.63,103.737-103.241,155.493-154.745c0-70.977,0-140.726,0-210.475
		c0.374-19.009,0.535-37.846,3.799-56.867c8.053-46.924,25.703-89.403,59.262-123.008
		c104.625-104.768,207.754-211.053,314.903-313.284c22.933-11.826,44.654-25.863,69.099-34.958
		c13.847-5.152,29.545-4.881,41.819-14.396c27.438-0.146,54.537-6.924,82.122-4.191c17.39,2.863,35.025,4.696,52.129,8.765
		c76.483,18.193,135.396,61.623,179.871,125.973c37.882,54.81,52.614,115.87,51.415,181.594
		c-1.091,29.614-9.522,57.839-16.345,86.367c-9.925,25.869-23.866,49.715-37.183,73.875c-9.408,5.096-12.824,15.464-20.081,22.675
		c-98.379,97.758-196.298,195.978-294.436,293.979c-11.583,11.567-24.854,20.903-39.285,28.854
		c-43.432,23.928-89.918,34.151-139.243,32.52c-69.758,0-139.517,0-208.663,0c-2.916,2.516-5.092,4.17-7.01,6.081
		c-66.444,66.163-132.849,132.365-199.339,198.481c-2.603,2.588-2.734,4.12,0.531,5.763c-27.585,22.934-55.947,45.195-79.226,72.617
		c-16.332,19.239-34.058,37.002-51.421,55.198c-14.528,15.226-29.161,30.47-42.361,46.826
		c-40.031,49.604-78.148,100.645-112.963,154.114c-11.231,17.248-25.04,32.113-44.333,40.955
		C1715.237,3009.749,1709.237,3011.331,1709.341,3018.475z M2566.147,1720.511c-19.176,36.59-33.574,73.729-42.142,113.003
		c-10.421,47.766-8.853,95.243,12.816,139.497c7.502,15.322,4.929,22.862-5.666,33.255
		c-39.569,38.816-78.487,78.295-117.793,117.381c-4.186,4.163-7.344,10.049-17.289,11.153
		c-23.541-65.214,2.82-122.954,27.514-182.187c-16.092-14.321-35.5-23.387-54.359-33.929
		c-12.377,18.153-18.756,37.842-26.411,56.646c-7.641,18.77-12.863,38.817-16.724,58.772c-7.584,39.197-12.243,81.038,6.414,116.223
		c17.818,33.604,7.275,51.411-16.856,71.739c-17.521,14.76-32.738,32.257-45.824,45.37c16.701,17.147,31.239,32.073,47.853,49.132
		c24.538-25.311,50.155-51.736,75.968-78.363c97.146,62.814,188.954,33.188,283.426-10.966c-11.213-21.156-18.845-41.15-35.933-55.3
		c-64.362,28.777-127.414,54.027-197.537,19.807c14.61-20.33,136.146-140.938,150.344-149.739
		c35,26.131,76.093,36.578,118.726,35.492c40.771-1.038,80.573-11.602,118.283-28.176c14.019-6.161,29.661-9.456,41.618-21.993
		c-9.329-19.401-18.026-38.191-34.26-52.921c-32.195,15.229-63.546,28.305-97.383,33.888c-34.497,5.692-67.847,4.098-101.861-15.507
		c66.955-67.172,131.813-132.242,193.377-194.007c-16.736-16.993-31.353-31.835-49.762-50.528
		c-61.415,61.971-124.241,125.365-187.032,188.724c-4.683-7.515-10.873-23.898-11.406-31.72
		c-3.637-53.397,14.979-101.525,36.732-148.678C2605.886,1739.215,2585.014,1733.236,2566.147,1720.511z"/>
	<path style="fill:#6A9C46;" d="M2534.841,1626.502c-107.149,102.232-210.277,208.517-314.903,313.284
		c-33.559,33.605-51.209,76.083-59.262,123.008c-3.264,19.021-3.425,37.858-3.799,56.867
		c-29.701,18.522-42.791,48.102-53.227,79.569c-39.287,118.457-94.287,229.408-160.31,335.075
		c-24.339,37.214-55.204,68.298-89.4,96.44c-21.545,17.73-39.968,38.803-61.14,57.167c-50.373,43.692-102.594,84.66-158.577,120.838
		c-24.804,16.029-48.348,33.223-60.385,61.724c-1.542,3.651-4.766,4.537-8.312,4.79c0-10.955,0-21.91,0-32.865
		c24.872-63.957,74.693-109.991,117.499-160.614c91.005-107.625,170.397-222.357,228.438-351.264
		c23.305-51.76,43.592-104.635,60.496-158.796c14.287-45.773,10.187-90.607-9.287-133.979
		c-24.619-54.83-49.671-109.469-74.986-163.981c-28.512-61.395-35.456-124.555-15.072-189.511
		c38.431-122.464,75.281-245.497,117.121-366.798c36.342-105.359,112.746-170.136,221.076-197.052
		c6.824-1.695,15.173-0.37,20.085-7.535c30.119,0,60.239,0,90.359,0c1.753,5.286,6.538,3.728,10.248,4.477
		c95.656,19.326,168.626,70.08,216.322,155.977c1.893,3.409,3.062,7.721,7.612,9.006c-0.605,5.69,1.923,10.469,4.013,15.543
		c24.049,58.38,31.982,118.062,17.412,180.507c-9.57,41.015-23.503,80.53-36.349,120.459
		C2537.619,1607.823,2533.464,1616.614,2534.841,1626.502z M2062.053,1954.919c21.021,5.735,37.772,20.373,59.277,23.405
		c27.799-56.747,44.16-116.637,65.301-173.717c122.48-4.498,182.765-71.183,195.136-123.814
		c-19.04-5.958-38.204-11.954-58.484-18.299c-24.876,46.984-64.466,68.66-118.822,74.269
		c17.984-65.16,28.538-129.006,44.311-191.867c93.596,1.991,155.385-44.36,200.627-121.47
		c-20.595-10.212-39.257-19.465-57.292-28.407c-52.875,67.918-86.629,88.695-133.04,80.692
		c12.425-74.288,21.531-149.138,29.034-224.993c-21.529-11.306-42.872-5.147-64.455-5.649
		c-4.623,37.375-8.938,72.351-13.279,107.323c-4.358,35.111-7.6,70.427-17.04,107.858c-47.449-27.202-62.859-69.654-71.435-116.583
		c-21.331-0.819-41.507-1.736-63.968,0.699c6.962,85.914,47.696,146.814,124.856,185.212
		c-11.881,65.658-25.312,129.962-44.041,194.878c-47.164-29.978-65.512-76.213-82.501-123.239
		c-20.859,2.835-39.573,4.897-61.5,12.194c16.891,77.08,54.588,138.027,126.082,176.712
		C2105.301,1845.457,2083.769,1897.615,2062.053,1954.919z"/>
	<path style="fill:#5F8C46;" d="M2534.841,1626.502c-1.377-9.887,2.778-18.678,5.669-27.664
		c12.846-39.93,26.78-79.445,36.349-120.459c14.57-62.445,6.637-122.126-17.412-180.507c-2.09-5.074-4.618-9.853-4.013-15.543
		c9.897-16.262,19.252-32.886,29.79-48.722c39.049-58.684,93.266-95.768,161.53-112.972c8.789-2.215,18.971-0.436,26.293-7.766
		c26.012,0,52.025,0,78.037,0c2.358,6.166,8.094,3.669,12.356,4.656c106.103,24.563,179.115,85.307,206.816,193.064
		c16.868,65.616,3.546,127.497-31.108,185.066c-30.681,50.969-61.652,101.763-92.293,152.756
		c-3.307,5.504-8.293,10.451-8.886,18.154c7.36,0.041,11.783-4.533,16.728-7.507c44.524-26.784,89.244-53.26,133.332-80.749
		c140.536-87.624,320.22-18.658,370.465,145.066c38.035,123.939-9.886,248.633-118.155,315.168
		c-2.277,1.399-4.895,2.244-7.353,3.347c-9.791,0.187-18.716-2.421-27.247-7.336c-18.412-10.607-38.315-17.745-58.737-23.222
		c-40.361-10.825-80.988-15.029-122.76-7.514c-47.709,8.582-92.82,25.532-138.733,39.994c-9.035,2.846-17.829,7.055-27.742,5.719
		c13.317-24.16,27.258-48.007,37.183-73.875c9.735-1.467,17.688-6.851,25.832-11.794c40.649-24.676,81.286-49.371,123.631-75.094
		c25.049,27.746,53.803,49.76,90.774,59.399c36.654,9.556,72.566,11.302,111.457-2.496c-11.039-20.997-13.464-41.698-25.108-58.559
		c-55.88,8.905-100.247-4.833-113.208-36.47c44.865-27.114,90.052-54.422,135.999-82.189c-8.415-20.907-20.002-38.135-32.772-55.726
		c-6.259,3.03-11.992,5.253-17.164,8.399c-33.721,20.507-67.317,41.222-100.965,61.849c-7.397,4.535-14.457,10.805-25.169,4.832
		c-2.107-45.872,24.597-78.184,54.652-109.715c-13.897-16.97-26.621-32.508-41.636-50.843
		c-58.755,57.68-95.359,120.087-71.295,203.424c-11.525,14.225-27.838,19.277-41.821,27.168
		c-18.83,10.626-34.684,26.921-56.862,31.448c1.199-65.724-13.533-126.784-51.415-181.594
		c-44.475-64.35-103.387-107.78-179.871-125.973c-17.104-4.068-34.739-5.902-52.129-8.765c9.849-25.524,24.681-48.048,41.648-71.594
		c41.232,11.713,81.749,6.297,120.274-8.126c38.321-14.347,76.743-30.168,107.246-61.544c-13.91-17.036-26.203-32.091-38.369-46.991
		c-87.264,51.385-124.752,64.249-151.709,52.083c31.698-55.242,67.239-108.228,97.474-163.961
		c-28.068-21.129-38.867-26.918-56.837-30.7c-34.082,52.386-62.545,108.617-100.46,162.492
		c-33.249-37.583-31.414-80.255-32.231-121.359c-22.279-5.379-42.432-9.465-63.861-9.268c-6.554,73.867,7.415,138.901,60.936,191.96
		c-22.418,37.637-44.325,74.417-66.233,111.197c-12.274,9.515-27.972,9.244-41.819,14.396
		C2579.495,1600.639,2557.774,1614.676,2534.841,1626.502z"/>
	<path style="fill:#6A9C46;" d="M2957.768,2049.532c9.913,1.337,18.708-2.873,27.742-5.719
		c45.913-14.463,91.024-31.412,138.733-39.994c41.772-7.514,82.399-3.311,122.76,7.514c20.422,5.477,40.325,12.615,58.737,23.222
		c8.531,4.915,17.455,7.522,27.247,7.336c-4.115,8.93,4.296,10.08,8.632,13.233c65.363,47.538,106.224,110.782,123.283,189.821
		c30.668,142.096-47.034,293.931-184.563,344.407c-130.029,47.723-262.896,87.872-396.062,126.308
		c-58.022,16.747-115.201,7.726-169.862-17.184c-55.942-25.493-111.66-51.484-167.75-76.645
		c-46.193-20.721-93.091-22.494-141.793-6.927c-178.955,57.201-338.764,148.061-481.371,269.974
		c-40.045,34.234-80.731,67.729-121.504,101.098c-26.804,21.936-57.551,33.703-92.656,32.498
		c-0.104-7.144,5.896-8.726,10.599-10.881c19.293-8.841,33.102-23.706,44.333-40.955c34.815-53.469,72.931-104.51,112.963-154.114
		c13.2-16.356,27.833-31.6,42.361-46.826c17.362-18.196,35.088-35.959,51.421-55.198c23.279-27.422,51.64-49.683,79.226-72.617
		c7.19-0.484,12.497-5.016,18.392-8.39c29.06-16.633,57.878-33.725,87.366-49.567c77.175-41.46,157.501-75.649,240.667-103.264
		c27.607-9.167,52.341-23.079,68.055-49.104c49.325,1.631,95.811-8.592,139.243-32.52c14.431-7.95,27.702-17.287,39.285-28.854
		c98.138-98.001,196.057-196.222,294.436-293.979C2944.944,2064.996,2948.36,2054.628,2957.768,2049.532z M2861.38,2426.91
		c51.929-21.512,101.439-37.631,150.929-54.033c49.45,69.482,122.58,95.339,196.654,121.288c9.962-20.1,15.041-39.564,19.799-59.888
		c-25.295-13.739-52.954-19.776-77.596-33.067c-24.896-13.427-50.532-25.368-72.105-49.764
		c77.208-26.517,153.61-43.48,233.716-57.121c-8.609-21.56-2.454-43.499-12.999-62.874c-75.239,8.591-147.689,30.002-223.624,49.483
		c7.278-46.67,32.292-80.448,51.833-116.608c-17.015-13.248-31.875-24.817-48.863-38.044c-21.455,25.97-36.53,54.375-49.972,84.1
		c-13.781,30.474-19.213,63.361-27.476,95.042c-49.277,17.64-96.658,34.601-146.366,52.394c10.37-46.269,32.919-82.718,54.91-119.95
		c-17.832-13.549-33.74-25.636-51.391-39.047c-40.305,57.611-67.62,117.354-74.324,186.285
		c-59.565,27.599-121.698,48.285-180.561,79.716c8.251,19.843,17.298,38.532,28.503,56.958
		c56.032-23.621,110.204-48.803,165.968-69.265c49.963,64.83,121.122,89.974,193.203,115.437
		c9.095-20.443,12.844-40.358,19.163-61.265C2958.974,2485.231,2904.861,2469.259,2861.38,2426.91z"/>
	<path style="fill:#88B965;" d="M2566.147,1720.511c18.867,12.725,39.739,18.704,54.833,36.068
		c-21.754,47.153-40.369,95.281-36.732,148.678c0.533,7.822,6.723,24.205,11.406,31.72
		c62.791-63.358,125.616-126.753,187.032-188.724c18.41,18.693,33.027,33.535,49.762,50.528
		c-61.564,61.765-126.423,126.834-193.377,194.007c34.014,19.605,67.364,21.199,101.861,15.507
		c33.837-5.583,65.188-18.659,97.383-33.888c16.234,14.729,24.931,33.519,34.26,52.921c-11.958,12.536-27.6,15.832-41.618,21.993
		c-37.71,16.573-77.511,27.137-118.283,28.176c-42.632,1.086-83.726-9.361-118.726-35.492
		c-14.197,8.801-135.733,129.409-150.344,149.739c70.123,34.22,133.175,8.97,197.537-19.807c17.088,14.15,24.72,34.145,35.933,55.3
		c-94.472,44.154-186.28,73.781-283.426,10.966c-25.813,26.627-51.43,53.051-75.968,78.363
		c-16.614-17.058-31.152-31.985-47.853-49.132c13.087-13.113,28.303-30.61,45.824-45.37c24.131-20.328,34.674-38.135,16.856-71.739
		c-18.656-35.185-13.998-77.026-6.414-116.223c3.861-19.956,9.083-40.002,16.724-58.772c7.655-18.804,14.034-38.493,26.411-56.646
		c18.86,10.542,38.267,19.608,54.359,33.929c-24.694,59.234-51.055,116.973-27.514,182.187c9.945-1.104,13.103-6.99,17.289-11.153
		c39.306-39.086,78.224-78.565,117.793-117.381c10.595-10.393,13.168-17.933,5.666-33.255
		c-21.669-44.255-23.237-91.731-12.816-139.497C2532.573,1794.241,2546.971,1757.101,2566.147,1720.511z"/>
	<path style="fill:#6A9C46;" d="M2645.76,1577.148c21.907-36.78,43.815-73.56,66.233-111.197
		c-53.521-53.06-67.49-118.094-60.936-191.96c21.428-0.197,41.582,3.89,63.861,9.268c0.818,41.105-1.017,83.776,32.231,121.359
		c37.915-53.875,66.378-110.106,100.46-162.492c17.969,3.782,28.769,9.572,56.837,30.7
		c-30.235,55.733-65.775,108.719-97.474,163.961c26.957,12.166,64.445-0.698,151.709-52.083
		c12.166,14.9,24.459,29.955,38.369,46.991c-30.502,31.376-68.925,47.197-107.246,61.544
		c-38.525,14.423-79.042,19.838-120.274,8.126c-16.967,23.546-31.799,46.069-41.648,71.594
		C2700.297,1570.224,2673.198,1577.002,2645.76,1577.148z"/>
	<path style="fill:#6A9C46;" d="M3011.296,1889.289c22.177-4.527,38.032-20.822,56.862-31.448
		c13.983-7.891,30.296-12.943,41.821-27.168c-24.064-83.338,12.54-145.744,71.295-203.424
		c15.015,18.336,27.739,33.873,41.636,50.843c-30.055,31.531-56.759,63.843-54.652,109.715c10.713,5.973,17.772-0.297,25.169-4.832
		c33.649-20.627,67.244-41.342,100.965-61.849c5.172-3.145,10.905-5.368,17.164-8.399c12.771,17.591,24.357,34.819,32.772,55.726
		c-45.947,27.767-91.134,55.075-135.999,82.189c12.961,31.636,57.327,45.375,113.208,36.47
		c11.644,16.862,14.069,37.562,25.108,58.559c-38.891,13.798-74.803,12.053-111.457,2.496
		c-36.971-9.639-65.725-31.652-90.774-59.399c-42.345,25.723-82.982,50.418-123.631,75.094
		c-8.144,4.943-16.097,10.327-25.832,11.794C3001.775,1947.128,3010.205,1918.903,3011.296,1889.289z"/>
	<path style="fill:#79AC54;" d="M2062.053,1954.919c21.716-57.304,43.248-109.462,58.767-164.797
		c-71.494-38.685-109.191-99.632-126.082-176.712c21.926-7.297,40.64-9.359,61.5-12.194c16.989,47.026,35.337,93.261,82.501,123.239
		c18.729-64.916,32.16-129.22,44.041-194.878c-77.161-38.398-117.895-99.297-124.856-185.212c22.46-2.436,42.637-1.519,63.968-0.699
		c8.576,46.929,23.987,89.381,71.435,116.583c9.44-37.431,12.682-72.748,17.04-107.858c4.341-34.973,8.656-69.948,13.279-107.323
		c21.583,0.502,42.926-5.657,64.455,5.649c-7.502,75.854-16.608,150.705-29.034,224.993c46.411,8.004,80.165-12.774,133.04-80.692
		c18.035,8.942,36.697,18.195,57.292,28.407c-45.243,77.11-107.031,123.462-200.627,121.47
		c-15.773,62.861-26.327,126.707-44.311,191.867c54.356-5.609,93.946-27.284,118.822-74.269
		c20.281,6.346,39.444,12.342,58.484,18.299c-12.371,52.631-72.656,119.316-195.136,123.814
		c-21.14,57.08-37.501,116.97-65.301,173.717C2099.825,1975.293,2083.074,1960.655,2062.053,1954.919z"/>
	<path style="fill:#79AC54;" d="M2861.38,2426.91c43.481,42.349,97.594,58.321,149.401,79.777
		c-6.319,20.907-10.068,40.822-19.163,61.265c-72.082-25.463-143.24-50.607-193.203-115.437
		c-55.764,20.462-109.936,45.644-165.968,69.265c-11.205-18.426-20.252-37.115-28.503-56.958
		c58.863-31.431,120.996-52.117,180.561-79.716c6.705-68.932,34.02-128.674,74.324-186.285
		c17.651,13.412,33.559,25.499,51.391,39.047c-21.991,37.232-44.539,73.681-54.91,119.95
		c49.708-17.794,97.089-34.755,146.366-52.394c8.263-31.68,13.695-64.568,27.476-95.042c13.443-29.726,28.517-58.13,49.972-84.1
		c16.989,13.227,31.848,24.796,48.863,38.044c-19.541,36.161-44.555,69.938-51.833,116.608
		c75.935-19.481,148.384-40.893,223.624-49.483c10.545,19.375,4.391,41.314,12.999,62.874
		c-80.106,13.641-156.508,30.604-233.716,57.121c21.573,24.396,47.209,36.337,72.105,49.764
		c24.643,13.291,52.302,19.328,77.596,33.067c-4.758,20.324-9.837,39.788-19.799,59.888
		c-74.075-25.949-147.204-51.806-196.654-121.288C2962.819,2389.279,2913.309,2405.398,2861.38,2426.91z"/>
</g>
</svg>
