<?xml version="1.0" encoding="utf-8"?>
<!-- Generator: Adobe Illustrator 25.3.1, SVG Export Plug-In . SVG Version: 6.00 Build 0)  -->
<svg version="1.1" id="Layer_1" xmlns="http://www.w3.org/2000/svg" xmlns:xlink="http://www.w3.org/1999/xlink" x="0px" y="0px"
	 viewBox="0 0 1906 1906.3" style="enable-background:new 0 0 1906 1906.3;" xml:space="preserve">
<style type="text/css">
	.st0{fill:#79AC54;}
	.st1{fill:#6A9C46;}
	.st2{fill:#5F8C46;}
	.st3{fill:#88B965;}
</style>
<g>
	<path class="st0" d="M143.8,1905.6c-17.7-0.1-35.7,2.1-52.9-0.9c-39.5-6.8-68-29.1-83.7-66.9c-2-4.7-1.4-11.1-7.3-13.9
		c0-20.5,0-41.1,0-61.6c3.5-0.3,6.8-1.1,8.3-4.8c12-28.5,35.6-45.7,60.4-61.7c56-36.2,108.2-77.1,158.6-120.8
		c21.2-18.4,39.6-39.4,61.1-57.2c34.2-28.1,65.1-59.2,89.4-96.4c8,1.4,12.6-3.9,17.4-8.8c13.5-13.6,27.1-27.1,40.6-40.7
		c51.9-51.6,103.7-103.2,155.5-154.7c0-71,0-140.7,0-210.5c0.4-19,0.5-37.8,3.8-56.9c8.1-46.9,25.7-89.4,59.3-123
		C759,722.1,862.2,615.9,969.3,513.6c22.9-11.8,44.7-25.9,69.1-35c13.8-5.2,29.5-4.9,41.8-14.4c27.4-0.1,54.5-6.9,82.1-4.2
		c17.4,2.9,35,4.7,52.1,8.8c76.5,18.2,135.4,61.6,179.9,126c37.9,54.8,52.6,115.9,51.4,181.6c-1.1,29.6-9.5,57.8-16.3,86.4
		c-9.9,25.9-23.9,49.7-37.2,73.9c-9.4,5.1-12.8,15.5-20.1,22.7c-98.4,97.8-196.3,196-294.4,294c-11.6,11.6-24.9,20.9-39.3,28.9
		c-43.4,23.9-89.9,34.2-139.2,32.5c-69.8,0-139.5,0-208.7,0c-2.9,2.5-5.1,4.2-7,6.1c-66.4,66.2-132.8,132.4-199.3,198.5
		c-2.6,2.6-2.7,4.1,0.5,5.8c-27.6,22.9-55.9,45.2-79.2,72.6c-16.3,19.2-34.1,37-51.4,55.2c-14.5,15.2-29.2,30.5-42.4,46.8
		c-40,49.6-78.1,100.6-113,154.1c-11.2,17.2-25,32.1-44.3,41C149.7,1896.9,143.7,1898.5,143.8,1905.6z M1000.6,607.6
		c-19.2,36.6-33.6,73.7-42.1,113c-10.4,47.8-8.9,95.2,12.8,139.5c7.5,15.3,4.9,22.9-5.7,33.3c-39.6,38.8-78.5,78.3-117.8,117.4
		c-4.2,4.2-7.3,10-17.3,11.2c-23.5-65.2,2.8-123,27.5-182.2c-16.1-14.3-35.5-23.4-54.4-33.9c-12.4,18.2-18.8,37.8-26.4,56.6
		c-7.6,18.8-12.9,38.8-16.7,58.8c-7.6,39.2-12.2,81,6.4,116.2c17.8,33.6,7.3,51.4-16.9,71.7c-17.5,14.8-32.7,32.3-45.8,45.4
		c16.7,17.1,31.2,32.1,47.9,49.1c24.5-25.3,50.2-51.7,76-78.4c97.1,62.8,189,33.2,283.4-11c-11.2-21.2-18.8-41.1-35.9-55.3
		c-64.4,28.8-127.4,54-197.5,19.8c14.6-20.3,136.1-140.9,150.3-149.7c35,26.1,76.1,36.6,118.7,35.5c40.8-1,80.6-11.6,118.3-28.2
		c14-6.2,29.7-9.5,41.6-22c-9.3-19.4-18-38.2-34.3-52.9c-32.2,15.2-63.5,28.3-97.4,33.9c-34.5,5.7-67.8,4.1-101.9-15.5
		c67-67.2,131.8-132.2,193.4-194c-16.7-17-31.4-31.8-49.8-50.5c-61.4,62-124.2,125.4-187,188.7c-4.7-7.5-10.9-23.9-11.4-31.7
		c-3.6-53.4,15-101.5,36.7-148.7C1040.4,626.3,1019.5,620.4,1000.6,607.6z"/>
	<path class="st1" d="M969.3,513.6C862.2,615.9,759,722.2,654.4,826.9c-33.6,33.6-51.2,76.1-59.3,123c-3.3,19-3.4,37.9-3.8,56.9
		c-29.7,18.5-42.8,48.1-53.2,79.6c-39.3,118.5-94.3,229.4-160.3,335.1c-24.3,37.2-55.2,68.3-89.4,96.4c-21.5,17.7-40,38.8-61.1,57.2
		c-50.4,43.7-102.6,84.7-158.6,120.8c-24.8,16-48.3,33.2-60.4,61.7c-1.5,3.7-4.8,4.5-8.3,4.8c0-11,0-21.9,0-32.9
		c24.9-64,74.7-110,117.5-160.6c91-107.6,170.4-222.4,228.4-351.3c23.3-51.8,43.6-104.6,60.5-158.8c14.3-45.8,10.2-90.6-9.3-134
		c-24.6-54.8-49.7-109.5-75-164c-28.5-61.4-35.5-124.6-15.1-189.5c38.4-122.5,75.3-245.5,117.1-366.8C460.6,99.2,537,34.5,645.3,7.5
		c6.8-1.7,15.2-0.4,20.1-7.5c30.1,0,60.2,0,90.4,0c1.8,5.3,6.5,3.7,10.2,4.5c95.7,19.3,168.6,70.1,216.3,156c1.9,3.4,3.1,7.7,7.6,9
		c-0.6,5.7,1.9,10.5,4,15.5c24,58.4,32,118.1,17.4,180.5c-9.6,41-23.5,80.5-36.3,120.5C972.1,495,967.9,503.7,969.3,513.6z
		 M496.5,842.1c21,5.7,37.8,20.4,59.3,23.4c27.8-56.7,44.2-116.6,65.3-173.7c122.5-4.5,182.8-71.2,195.1-123.8
		c-19-6-38.2-12-58.5-18.3c-24.9,47-64.5,68.7-118.8,74.3c18-65.2,28.5-129,44.3-191.9c93.6,2,155.4-44.4,200.6-121.5
		c-20.6-10.2-39.3-19.5-57.3-28.4c-52.9,67.9-86.6,88.7-133,80.7c12.4-74.3,21.5-149.1,29-225c-21.5-11.3-42.9-5.1-64.5-5.6
		c-4.6,37.4-8.9,72.4-13.3,107.3c-4.4,35.1-7.6,70.4-17,107.9c-47.4-27.2-62.9-69.7-71.4-116.6c-21.3-0.8-41.5-1.7-64,0.7
		c7,85.9,47.7,146.8,124.9,185.2c-11.9,65.7-25.3,130-44,194.9c-47.2-30-65.5-76.2-82.5-123.2c-20.9,2.8-39.6,4.9-61.5,12.2
		c16.9,77.1,54.6,138,126.1,176.7C539.8,732.6,518.2,784.7,496.5,842.1z"/>
	<path class="st2" d="M969.3,513.6c-1.4-9.9,2.8-18.7,5.7-27.7c12.8-39.9,26.8-79.4,36.3-120.5c14.6-62.4,6.6-122.1-17.4-180.5
		c-2.1-5.1-4.6-9.9-4-15.5c9.9-16.3,19.3-32.9,29.8-48.7c39-58.7,93.3-95.8,161.5-113c8.8-2.2,19-0.4,26.3-7.8c26,0,52,0,78,0
		c2.4,6.2,8.1,3.7,12.4,4.7C1404,29.2,1477,90,1504.7,197.7c16.9,65.6,3.5,127.5-31.1,185.1c-30.7,51-61.7,101.8-92.3,152.8
		c-3.3,5.5-8.3,10.5-8.9,18.2c7.4,0,11.8-4.5,16.7-7.5c44.5-26.8,89.2-53.3,133.3-80.7c140.5-87.6,320.2-18.7,370.5,145.1
		c38,123.9-9.9,248.6-118.2,315.2c-2.3,1.4-4.9,2.2-7.4,3.3c-9.8,0.2-18.7-2.4-27.2-7.3c-18.4-10.6-38.3-17.7-58.7-23.2
		c-40.4-10.8-81-15-122.8-7.5c-47.7,8.6-92.8,25.5-138.7,40c-9,2.8-17.8,7.1-27.7,5.7c13.3-24.2,27.3-48,37.2-73.9
		c9.7-1.5,17.7-6.9,25.8-11.8c40.6-24.7,81.3-49.4,123.6-75.1c25,27.7,53.8,49.8,90.8,59.4c36.7,9.6,72.6,11.3,111.5-2.5
		c-11-21-13.5-41.7-25.1-58.6c-55.9,8.9-100.2-4.8-113.2-36.5c44.9-27.1,90.1-54.4,136-82.2c-8.4-20.9-20-38.1-32.8-55.7
		c-6.3,3-12,5.3-17.2,8.4c-33.7,20.5-67.3,41.2-101,61.8c-7.4,4.5-14.5,10.8-25.2,4.8c-2.1-45.9,24.6-78.2,54.7-109.7
		c-13.9-17-26.6-32.5-41.6-50.8c-58.8,57.7-95.4,120.1-71.3,203.4c-11.5,14.2-27.8,19.3-41.8,27.2c-18.8,10.6-34.7,26.9-56.9,31.4
		c1.2-65.7-13.5-126.8-51.4-181.6c-44.5-64.3-103.4-107.8-179.9-126c-17.1-4.1-34.7-5.9-52.1-8.8c9.8-25.5,24.7-48,41.6-71.6
		c41.2,11.7,81.7,6.3,120.3-8.1c38.3-14.3,76.7-30.2,107.2-61.5c-13.9-17-26.2-32.1-38.4-47c-87.3,51.4-124.8,64.2-151.7,52.1
		c31.7-55.2,67.2-108.2,97.5-164c-28.1-21.1-38.9-26.9-56.8-30.7c-34.1,52.4-62.5,108.6-100.5,162.5
		c-33.2-37.6-31.4-80.3-32.2-121.4c-22.3-5.4-42.4-9.5-63.9-9.3c-6.6,73.9,7.4,138.9,60.9,192c-22.4,37.6-44.3,74.4-66.2,111.2
		c-12.3,9.5-28,9.2-41.8,14.4C1014,487.8,992.2,501.8,969.3,513.6z"/>
	<path class="st1" d="M1392.2,936.7c9.9,1.3,18.7-2.9,27.7-5.7c45.9-14.5,91-31.4,138.7-40c41.8-7.5,82.4-3.3,122.8,7.5
		c20.4,5.5,40.3,12.6,58.7,23.2c8.5,4.9,17.5,7.5,27.2,7.3c-4.1,8.9,4.3,10.1,8.6,13.2c65.4,47.5,106.2,110.8,123.3,189.8
		c30.7,142.1-47,293.9-184.6,344.4c-130,47.7-262.9,87.9-396.1,126.3c-58,16.7-115.2,7.7-169.9-17.2
		c-55.9-25.5-111.7-51.5-167.8-76.6c-46.2-20.7-93.1-22.5-141.8-6.9c-179,57.2-338.8,148.1-481.4,270
		c-40,34.2-80.7,67.7-121.5,101.1c-26.8,21.9-57.6,33.7-92.7,32.5c-0.1-7.1,5.9-8.7,10.6-10.9c19.3-8.8,33.1-23.7,44.3-41
		c34.8-53.5,72.9-104.5,113-154.1c13.2-16.4,27.8-31.6,42.4-46.8c17.4-18.2,35.1-36,51.4-55.2c23.3-27.4,51.6-49.7,79.2-72.6
		c7.2-0.5,12.5-5,18.4-8.4c29.1-16.6,57.9-33.7,87.4-49.6c77.2-41.5,157.5-75.6,240.7-103.3c27.6-9.2,52.3-23.1,68.1-49.1
		c49.3,1.6,95.8-8.6,139.2-32.5c14.4-7.9,27.7-17.3,39.3-28.9c98.1-98,196.1-196.2,294.4-294
		C1379.4,952.1,1382.8,941.8,1392.2,936.7z M1295.9,1314c51.9-21.5,101.4-37.6,150.9-54c49.4,69.5,122.6,95.3,196.7,121.3
		c10-20.1,15-39.6,19.8-59.9c-25.3-13.7-53-19.8-77.6-33.1c-24.9-13.4-50.5-25.4-72.1-49.8c77.2-26.5,153.6-43.5,233.7-57.1
		c-8.6-21.6-2.5-43.5-13-62.9c-75.2,8.6-147.7,30-223.6,49.5c7.3-46.7,32.3-80.4,51.8-116.6c-17-13.2-31.9-24.8-48.9-38
		c-21.5,26-36.5,54.4-50,84.1c-13.8,30.5-19.2,63.4-27.5,95c-49.3,17.6-96.7,34.6-146.4,52.4c10.4-46.3,32.9-82.7,54.9-119.9
		c-17.8-13.5-33.7-25.6-51.4-39c-40.3,57.6-67.6,117.4-74.3,186.3c-59.6,27.6-121.7,48.3-180.6,79.7c8.3,19.8,17.3,38.5,28.5,57
		c56-23.6,110.2-48.8,166-69.3c50,64.8,121.1,90,193.2,115.4c9.1-20.4,12.8-40.4,19.2-61.3C1393.4,1372.4,1339.3,1356.4,1295.9,1314
		z"/>
	<path class="st3" d="M1000.6,607.6c18.9,12.7,39.7,18.7,54.8,36.1c-21.8,47.2-40.4,95.3-36.7,148.7c0.5,7.8,6.7,24.2,11.4,31.7
		c62.8-63.4,125.6-126.8,187-188.7c18.4,18.7,33,33.5,49.8,50.5c-61.6,61.8-126.4,126.8-193.4,194c34,19.6,67.4,21.2,101.9,15.5
		c33.8-5.6,65.2-18.7,97.4-33.9c16.2,14.7,24.9,33.5,34.3,52.9c-12,12.5-27.6,15.8-41.6,22c-37.7,16.6-77.5,27.1-118.3,28.2
		c-42.6,1.1-83.7-9.4-118.7-35.5c-14.2,8.8-135.7,129.4-150.3,149.7c70.1,34.2,133.2,9,197.5-19.8c17.1,14.1,24.7,34.1,35.9,55.3
		c-94.5,44.2-186.3,73.8-283.4,11c-25.8,26.6-51.4,53.1-76,78.4c-16.6-17.1-31.2-32-47.9-49.1c13.1-13.1,28.3-30.6,45.8-45.4
		c24.1-20.3,34.7-38.1,16.9-71.7c-18.7-35.2-14-77-6.4-116.2c3.9-20,9.1-40,16.7-58.8c7.7-18.8,14-38.5,26.4-56.6
		c18.9,10.5,38.3,19.6,54.4,33.9c-24.7,59.2-51.1,117-27.5,182.2c9.9-1.1,13.1-7,17.3-11.2c39.3-39.1,78.2-78.6,117.8-117.4
		c10.6-10.4,13.2-17.9,5.7-33.3c-21.7-44.3-23.2-91.7-12.8-139.5C967,681.4,981.4,644.2,1000.6,607.6z"/>
	<path class="st1" d="M1080.2,464.3c21.9-36.8,43.8-73.6,66.2-111.2c-53.5-53.1-67.5-118.1-60.9-192c21.4-0.2,41.6,3.9,63.9,9.3
		c0.8,41.1-1,83.8,32.2,121.4c37.9-53.9,66.4-110.1,100.5-162.5c18,3.8,28.8,9.6,56.8,30.7c-30.2,55.7-65.8,108.7-97.5,164
		c27,12.2,64.4-0.7,151.7-52.1c12.2,14.9,24.5,30,38.4,47c-30.5,31.4-68.9,47.2-107.2,61.5c-38.5,14.4-79,19.8-120.3,8.1
		c-17,23.5-31.8,46.1-41.6,71.6C1134.8,457.4,1107.7,464.1,1080.2,464.3z"/>
	<path class="st1" d="M1445.8,776.4c22.2-4.5,38-20.8,56.9-31.4c14-7.9,30.3-12.9,41.8-27.2c-24.1-83.3,12.5-145.7,71.3-203.4
		c15,18.3,27.7,33.9,41.6,50.8c-30.1,31.5-56.8,63.8-54.7,109.7c10.7,6,17.8-0.3,25.2-4.8c33.6-20.6,67.2-41.3,101-61.8
		c5.2-3.1,10.9-5.4,17.2-8.4c12.8,17.6,24.4,34.8,32.8,55.7c-45.9,27.8-91.1,55.1-136,82.2c13,31.6,57.3,45.4,113.2,36.5
		c11.6,16.9,14.1,37.6,25.1,58.6c-38.9,13.8-74.8,12.1-111.5,2.5c-37-9.6-65.7-31.7-90.8-59.4c-42.3,25.7-83,50.4-123.6,75.1
		c-8.1,4.9-16.1,10.3-25.8,11.8C1436.2,834.3,1444.7,806,1445.8,776.4z"/>
	<path class="st0" d="M496.5,842.1c21.7-57.3,43.2-109.5,58.8-164.8c-71.5-38.7-109.2-99.6-126.1-176.7c21.9-7.3,40.6-9.4,61.5-12.2
		c17,47,35.3,93.3,82.5,123.2c18.7-64.9,32.2-129.2,44-194.9c-77.2-38.4-117.9-99.3-124.9-185.2c22.5-2.4,42.6-1.5,64-0.7
		c8.6,46.9,24,89.4,71.4,116.6c9.4-37.4,12.7-72.7,17-107.9c4.3-35,8.7-69.9,13.3-107.3c21.6,0.5,42.9-5.7,64.5,5.6
		c-7.5,75.9-16.6,150.7-29,225c46.4,8,80.2-12.8,133-80.7c18,8.9,36.7,18.2,57.3,28.4C838.6,387.7,776.8,434,683.2,432
		c-15.8,62.9-26.3,126.7-44.3,191.9c54.4-5.6,93.9-27.3,118.8-74.3c20.3,6.3,39.4,12.3,58.5,18.3c-12.4,52.6-72.7,119.3-195.1,123.8
		c-21.1,57.1-37.5,117-65.3,173.7C534.3,862.4,517.5,847.8,496.5,842.1z"/>
	<path class="st0" d="M1295.9,1314c43.5,42.3,97.6,58.3,149.4,79.8c-6.3,20.9-10.1,40.8-19.2,61.3
		c-72.1-25.5-143.2-50.6-193.2-115.4c-55.8,20.5-109.9,45.6-166,69.3c-11.2-18.4-20.3-37.1-28.5-57c58.9-31.4,121-52.1,180.6-79.7
		c6.7-68.9,34-128.7,74.3-186.3c17.7,13.4,33.6,25.5,51.4,39c-22,37.2-44.5,73.7-54.9,119.9c49.7-17.8,97.1-34.8,146.4-52.4
		c8.3-31.7,13.7-64.6,27.5-95c13.4-29.7,28.5-58.1,50-84.1c17,13.2,31.8,24.8,48.9,38c-19.5,36.2-44.6,69.9-51.8,116.6
		c75.9-19.5,148.4-40.9,223.6-49.5c10.5,19.4,4.4,41.3,13,62.9c-80.1,13.6-156.5,30.6-233.7,57.1c21.6,24.4,47.2,36.3,72.1,49.8
		c24.6,13.3,52.3,19.3,77.6,33.1c-4.8,20.3-9.8,39.8-19.8,59.9c-74.1-25.9-147.2-51.8-196.7-121.3
		C1397.3,1276.4,1347.8,1292.5,1295.9,1314z"/>
</g>
</svg>
