<?xml version="1.0" encoding="iso-8859-1"?>
<!-- Generator: Adobe Illustrator 25.3.1, SVG Export Plug-In . SVG Version: 6.00 Build 0)  -->
<svg version="1.1" id="Layer_1" xmlns="http://www.w3.org/2000/svg" xmlns:xlink="http://www.w3.org/1999/xlink" x="0px" y="0px"
	 viewBox="0 0 14400 14400" style="enable-background:new 0 0 14400 14400;" xml:space="preserve">
<g>
	<path style="fill:#FB3A39;" d="M8214.361,7059.063c15.519,161.045-8.859,317.538-62.086,470.648
		c-88.847,255.574-262.218,453.801-477.59,623.89c-162.591,128.405-345.722,225.889-532.427,318.369
		c-108.89,53.936-216.563,110.151-332.374,150.435c-90.351,31.429-182.785,54.017-279.673,55.606
		c-175.851,2.887-291.001-71.264-353.413-225.734c-44.738-110.728-60.83-226.639-65.307-343.7
		c-7.407-193.666-13.865-387.588,2.253-581.187c19.182-230.389,60.56-456.546,159.412-670.395
		c93.647-202.588,230.786-371.391,432.841-489.139c13.777-8.029,28.399-14.771,42.622-22.108c9.638,2.065,19.102,2.013,28.822,7.02
		c34.519,17.783,71.42,30.067,109.747,39.502c35.53,8.747,71.941,13.896,107.093,22.626
		c57.964,14.396,117.071,21.141,175.914,27.285c37.731,3.94,75.402,10.545,112.989,14.778c26.443,2.978,55.06,2.51,88.074,10.406
		c-33.507,16.068-60.816,30.117-88.959,42.479c-77.513,34.046-148.106,77.666-211.754,131.546
		c-54.897,46.473-91.748,104.461-122.015,166.649c-8.231,16.913-3.785,35.919,16.074,38.412
		c25.794,3.239,49.178,13.903,75.969,14.533c101.123,2.376,199.019-12.186,296.084-38.606
		c72.141-19.636,143.647-39.871,211.422-70.738c12.542-5.712,19.983-4.1,21.487,12.277c1.677,18.276-11.32,31.875-12.392,49.199
		c-6.12,98.894,19.717,188.889,74.802,273.48c40.462,62.136,90.989,115.333,145.088,166.276
		c18.555,17.472,41.4,13.512,53.829-10.112c7.466-14.19,15.831-27.676,24.222-41.346c47.192-76.881,87.706-156.041,85.586-248.032
		c-0.928-40.298,2.067-80.954-14.736-120.383c16.531,11.589,30.841,23.22,42.022,37.088
		c45.043,55.863,102.906,97.768,163.991,136.399C8159.519,7023.902,8186.906,7041.531,8214.361,7059.063z M7370.133,7057.829
		c-0.237-37.604-27.806-62.57-62.883-56.947c-57.224,9.174-106.062,86.983-86.949,138.528c7.304,19.698,36.88,40.842,51.829,37.053
		C7325.739,7162.872,7370.454,7108.744,7370.133,7057.829z M6442.589,7973.288c-1.256-7.211-2.179-19.819-5.751-31.718
		c-13.347-44.456-61.718-60.412-94.663-31.74c-38.597,33.593-45.989,105.686-14.97,145.995c23.218,30.171,58.224,32.215,85.72,4.854
		C6436.147,8037.571,6442.795,8009.07,6442.589,7973.288z M6780.099,7109.327c-0.777,58.944,38.404,90.007,80.917,69.771
		c43.049-20.491,73.371-83.365,61.396-127.311c-12.471-45.765-52.212-59.326-92.534-31.245
		C6796.294,7043.932,6784.653,7077.841,6780.099,7109.327z M7259.044,7821.763c-1.064-37.529-28.564-59.078-66.307-51.959
		c-47.952,9.044-95.676,65.612-94.27,111.738c1.191,39.066,32.776,60.906,72.781,50.325
		C7218.772,7919.298,7260.333,7867.177,7259.044,7821.763z M6702.034,7987.462c1.229,54.643,36.199,80.988,76.904,65.13
		c50.174-19.547,82.613-90.648,63.193-138.511c-13.361-32.93-42.813-43.782-76.05-26.631
		C6721.338,7910.538,6704.858,7949.195,6702.034,7987.462z M7417.909,8059.793c-47.091,1-104.321,47.71-112.424,91.757
		c-7.043,38.29,19.575,65.329,61.606,62.581c46.297-3.027,98.681-46.006,108.562-89.072
		C7484.547,8086.291,7460.306,8058.892,7417.909,8059.793z M6993.939,8245.024c-50.789,0.433-108.598,48.584-114.933,95.734
		c-4.502,33.505,17.859,57.822,53.921,58.641c50.556,1.146,109.824-45.806,117.433-93.031
		C7056.325,8269.346,7033.646,8244.687,6993.939,8245.024z M6761.046,6732.943c-0.237-64.57-40.036-93.027-83.633-70.588
		c-45.232,23.28-71.632,89.778-53.624,135.071c14.146,35.578,46.09,47.138,80.395,26.904
		C6743.697,6801.024,6759.818,6764.923,6761.046,6732.943z M6478.022,7131.649c-1.445-17.253-4.027-36.075-15.865-52.556
		c-20.871-29.057-55.74-33.136-83.576-9.692c-36.234,30.517-48.356,97.699-24.855,137.751c22.343,38.08,63.438,41.256,94.241,8.209
		C6470.074,7191.647,6477.255,7163.82,6478.022,7131.649z M7463.582,7474.732c0.169,38.021,25.57,58.083,65.588,51.804
		c50.465-7.918,98.967-62.959,97.917-111.119c-0.713-32.71-27.976-54.171-63.324-49.851
		C7513.646,7371.694,7463.367,7426.481,7463.582,7474.732z M6798.5,7531.885c0.227-62.56-38.667-88.699-84.801-66.313
		c-42.722,20.73-72.122,86.33-57.792,128.949c12.873,38.286,48.232,51.673,84.091,29.937
		C6778.808,7600.931,6796.342,7565.344,6798.5,7531.885z M6440.653,7536.796c-2.651-10.399-4.667-24.829-10.033-38.048
		c-12.594-31.029-46.803-41.47-77.716-24.929c-44.751,23.945-68.251,98.775-44.731,142.437
		c17.488,32.464,53.092,39.639,84.065,16.962C6424.344,7609.712,6436.122,7576.949,6440.653,7536.796z M7195.337,7437.504
		c-0.58-36.996-28.921-59.47-66.202-52.498c-50.456,9.438-97.945,69.589-93.085,117.906c3.674,36.525,33.703,55.531,71.615,45.327
		C7154.248,7535.702,7196.049,7482.905,7195.337,7437.504z M7874.389,7521c0.187,37.787,22.427,56.115,62.338,51.374
		c53.049-6.303,103.852-64.481,99.84-114.336c-2.613-32.483-28.811-51.933-63.058-46.815
		C7922.247,7418.882,7874.146,7472.155,7874.389,7521z M7656.989,7754.049c-50.908,1.371-105.458,46.112-113.795,93.332
		c-5.992,33.939,21.06,62.225,58.22,60.874c48.343-1.758,103.536-46.874,112.514-91.972
		C7721.683,7777.319,7699.349,7752.908,7656.989,7754.049z M6593.771,8370.417c0.18-42.15-27.284-64.421-67.498-54.734
		c-52.374,12.615-94.975,74.538-85.708,124.579c6.292,33.978,38.735,51.527,73.03,39.504
		C6558.913,8463.878,6593.575,8416.604,6593.771,8370.417z"/>
	<path style="fill:#5BAC2B;" d="M8214.361,7059.063c-27.456-17.532-54.843-35.162-82.382-52.578
		c-61.085-38.631-118.948-80.536-163.991-136.399c-11.181-13.868-25.491-25.499-42.022-37.088
		c16.803,39.429,13.809,80.085,14.736,120.383c2.12,91.991-38.394,171.151-85.586,248.032c-8.391,13.67-16.756,27.156-24.222,41.346
		c-12.429,23.624-35.274,27.584-53.829,10.112c-54.099-50.943-104.626-104.14-145.088-166.276
		c-55.084-84.591-80.921-174.587-74.802-273.48c1.072-17.324,14.069-30.923,12.392-49.199c-1.504-16.377-8.945-17.99-21.487-12.277
		c-67.775,30.867-139.281,51.102-211.422,70.738c-97.066,26.42-194.962,40.983-296.084,38.606
		c-26.791-0.629-50.174-11.293-75.969-14.533c-19.859-2.493-24.306-21.5-16.074-38.412
		c30.267-62.188,67.117-120.176,122.015-166.649c63.648-53.88,134.241-97.5,211.754-131.546
		c28.143-12.362,55.452-26.41,88.959-42.479c-33.014-7.896-61.631-7.428-88.074-10.406c-37.587-4.232-75.258-10.838-112.989-14.778
		c-58.843-6.144-117.95-12.888-175.914-27.285c-35.152-8.731-71.563-13.88-107.093-22.626
		c-38.327-9.435-75.229-21.719-109.747-39.502c-9.72-5.007-19.184-4.955-28.822-7.02c-30.221-43.09-27.334-55.062,23.758-83.636
		c73.157-40.913,155.335-50.493,237.65-57.644c79.078-6.87,158.438-9.22,238.718-7.192c-45.877-25.712-93.301-48.261-136.237-77.605
		c-64.694-44.216-125.239-91.873-154.33-165.672c-15.884-40.297-12.92-45.506,33.562-47.676
		c102.686-4.793,197.323,22.268,287.346,65.924c142.856,69.277,256.219,170.583,353.106,289.593
		c3.041,3.734,6.351,7.274,10.917,12.481c54.426-54.868,112.994-103.402,178.347-144.7
		c114.331-72.248,239.989-116.952,374.741-140.317c27.799-4.82,51.422,0.625,72.433,20.489c19.274,18.221,42.223,32.96,63.17,49.659
		c31.719,25.285,26.998,48.869-11.301,64.45c-142.858,58.117-278.152,128.046-393.487,228.237
		c-20.172,17.524-38.112,37.309-57.451,55.706c-12.84,12.215-14.691,19.502,7.077,23.015
		c97.981,15.811,192.122,43.356,279.546,88.124c117.145,59.986,213.052,139.612,263.136,260.333
		c9.092,21.915,5.895,29.162-20.409,26.201c-68.852-7.75-131.087-33.807-193.796-58.936c-14.521-5.819-29.495-10.641-45.823-13.376
		c32.946,32.347,72.05,57.354,104.309,89.533c54.854,54.72,105.395,111.785,123.682,187.809c1.349,5.604,3.097,11.136,4.15,16.787
		c9.665,51.854-2.706,64.271-57.407,57.307c-34.437-4.384-67.812-12.776-100.343-24.222
		C8227.479,7058.236,8221.38,7052.211,8214.361,7059.063z"/>
	<path style="fill:#FEFEFE;" d="M7370.133,7057.829c0.321,50.915-44.394,105.043-98.003,118.634
		c-14.949,3.79-44.524-17.354-51.829-37.053c-19.113-51.545,29.725-129.354,86.949-138.528
		C7342.328,6995.259,7369.896,7020.224,7370.133,7057.829z"/>
	<path style="fill:#FEFEFE;" d="M6442.589,7973.288c0.207,35.783-6.442,64.283-29.664,87.391
		c-27.496,27.362-62.502,25.317-85.72-4.854c-31.019-40.31-23.627-112.402,14.97-145.995c32.944-28.672,81.315-12.716,94.663,31.74
		C6440.41,7953.469,6441.333,7966.077,6442.589,7973.288z"/>
	<path style="fill:#FEFEFE;" d="M6780.099,7109.327c4.554-31.485,16.195-65.395,49.779-88.784
		c40.322-28.082,80.063-14.521,92.534,31.245c11.975,43.945-18.347,106.819-61.396,127.311
		C6818.503,7199.333,6779.322,7168.271,6780.099,7109.327z"/>
	<path style="fill:#FEFEFE;" d="M7259.044,7821.763c1.288,45.414-40.272,97.536-87.795,110.104
		c-40.005,10.581-71.59-11.259-72.781-50.325c-1.406-46.126,46.318-102.694,94.27-111.738
		C7230.48,7762.685,7257.98,7784.234,7259.044,7821.763z"/>
	<path style="fill:#FEFEFE;" d="M6702.034,7987.462c2.825-38.267,19.304-76.924,64.047-100.012
		c33.237-17.15,62.688-6.298,76.05,26.631c19.42,47.862-13.019,118.964-63.193,138.511
		C6738.233,8068.45,6703.263,8042.104,6702.034,7987.462z"/>
	<path style="fill:#FEFEFE;" d="M7417.909,8059.793c42.397-0.901,66.638,26.498,57.743,65.266
		c-9.881,43.066-62.265,86.045-108.562,89.072c-42.031,2.748-68.649-24.291-61.606-62.581
		C7313.587,8107.503,7370.817,8060.793,7417.909,8059.793z"/>
	<path style="fill:#FEFEFE;" d="M6993.939,8245.024c39.707-0.338,62.386,24.321,56.421,61.344
		c-7.609,47.226-66.877,94.178-117.433,93.031c-36.062-0.818-58.423-25.136-53.921-58.641
		C6885.341,8293.608,6943.15,8245.457,6993.939,8245.024z"/>
	<path style="fill:#FEFEFE;" d="M6761.046,6732.943c-1.229,31.98-17.349,68.081-56.862,91.387
		c-34.305,20.234-66.249,8.673-80.395-26.904c-18.008-45.293,8.392-111.791,53.624-135.071
		C6721.011,6639.916,6760.809,6668.373,6761.046,6732.943z"/>
	<path style="fill:#FEFEFE;" d="M6478.022,7131.649c-0.767,32.17-7.949,59.998-30.054,83.712
		c-30.804,33.047-71.898,29.871-94.241-8.209c-23.501-40.052-11.379-107.234,24.855-137.751
		c27.836-23.444,62.705-19.365,83.576,9.692C6473.995,7095.575,6476.578,7114.396,6478.022,7131.649z"/>
	<path style="fill:#FEFEFE;" d="M7463.582,7474.732c-0.215-48.251,50.064-103.039,100.182-109.165
		c35.348-4.321,62.61,17.141,63.324,49.851c1.05,48.159-47.452,103.2-97.917,111.119
		C7489.152,7532.816,7463.75,7512.753,7463.582,7474.732z"/>
	<path style="fill:#FEFEFE;" d="M6798.5,7531.885c-2.158,33.459-19.692,69.045-58.502,92.572
		c-35.858,21.737-71.218,8.35-84.091-29.937c-14.33-42.62,15.07-108.219,57.792-128.949
		C6759.833,7443.187,6798.727,7469.326,6798.5,7531.885z"/>
	<path style="fill:#FEFEFE;" d="M6440.653,7536.796c-4.531,40.153-16.309,72.916-48.416,96.422
		c-30.973,22.677-66.577,15.502-84.065-16.962c-23.52-43.662-0.02-118.492,44.731-142.437c30.913-16.541,65.122-6.1,77.716,24.929
		C6435.986,7511.967,6438.002,7526.397,6440.653,7536.796z"/>
	<path style="fill:#FEFEFE;" d="M7195.337,7437.504c0.712,45.4-41.089,98.198-87.671,110.735
		c-37.913,10.204-67.941-8.802-71.615-45.327c-4.86-48.317,42.629-108.468,93.085-117.906
		C7166.417,7378.034,7194.757,7400.508,7195.337,7437.504z"/>
	<path style="fill:#FEFEFE;" d="M7874.389,7521c-0.242-48.845,47.858-102.118,99.12-109.777
		c34.247-5.118,60.445,14.332,63.058,46.815c4.012,49.855-46.791,108.033-99.84,114.336
		C7896.816,7577.115,7874.576,7558.787,7874.389,7521z"/>
	<path style="fill:#FEFEFE;" d="M7656.989,7754.049c42.36-1.141,64.694,23.271,56.938,62.233
		c-8.978,45.099-64.17,90.214-112.514,91.972c-37.16,1.351-64.212-26.934-58.22-60.874
		C7551.53,7800.161,7606.081,7755.419,7656.989,7754.049z"/>
	<path style="fill:#FEFEFE;" d="M6593.771,8370.417c-0.197,46.188-34.859,93.461-80.176,109.349
		c-34.295,12.023-66.738-5.526-73.03-39.504c-9.267-50.041,33.335-111.964,85.708-124.579
		C6566.488,8305.996,6593.951,8328.267,6593.771,8370.417z"/>
</g>
</svg>
