<?xml version="1.0" encoding="utf-8"?>
<!-- Generator: Adobe Illustrator 25.3.1, SVG Export Plug-In . SVG Version: 6.00 Build 0)  -->
<svg version="1.1" id="Layer_1" xmlns="http://www.w3.org/2000/svg" xmlns:xlink="http://www.w3.org/1999/xlink" x="0px" y="0px"
	 viewBox="0 0 1319.9 1577.1" style="enable-background:new 0 0 1319.9 1577.1;" xml:space="preserve">
<style type="text/css">
	.st0{fill:#FB3A39;}
	.st1{fill:#5BAC2B;}
	.st2{fill:#FEFEFE;}
</style>
<g>
	<path class="st0" d="M1200.7,656.1c8.8,91.6-5,180.6-35.3,267.7c-50.5,145.4-149.2,258.2-271.7,354.9
		c-92.5,73-196.7,128.5-302.9,181.1c-61.9,30.7-123.2,62.7-189.1,85.6c-51.4,17.9-104,30.7-159.1,31.6
		c-100,1.6-165.5-40.5-201.1-128.4c-25.5-63-34.6-128.9-37.2-195.5C0.2,1143-3.5,1032.7,5.7,922.5c10.9-131.1,34.5-259.7,90.7-381.4
		c53.3-115.2,131.3-211.3,246.2-278.3c7.8-4.6,16.2-8.4,24.2-12.6c5.5,1.2,10.9,1.1,16.4,4c19.6,10.1,40.6,17.1,62.4,22.5
		c20.2,5,40.9,7.9,60.9,12.9c33,8.2,66.6,12,100.1,15.5c21.5,2.2,42.9,6,64.3,8.4c15,1.7,31.3,1.4,50.1,5.9
		c-19.1,9.1-34.6,17.1-50.6,24.2c-44.1,19.4-84.3,44.2-120.5,74.8c-31.2,26.4-52.2,59.4-69.4,94.8c-4.7,9.6-2.2,20.4,9.1,21.9
		c14.7,1.8,28,7.9,43.2,8.3c57.5,1.4,113.2-6.9,168.4-22c41-11.2,81.7-22.7,120.3-40.2c7.1-3.2,11.4-2.3,12.2,7
		c1,10.4-6.4,18.1-7,28c-3.5,56.3,11.2,107.5,42.6,155.6c23,35.3,51.8,65.6,82.5,94.6c10.6,9.9,23.6,7.7,30.6-5.8
		c4.2-8.1,9-15.7,13.8-23.5c26.8-43.7,49.9-88.8,48.7-141.1c-0.5-22.9,1.2-46.1-8.4-68.5c9.4,6.6,17.5,13.2,23.9,21.1
		c25.6,31.8,58.5,55.6,93.3,77.6C1169.5,636.1,1185.1,646.1,1200.7,656.1z M720.4,655.4c-0.1-21.4-15.8-35.6-35.8-32.4
		c-32.6,5.2-60.3,49.5-49.5,78.8c4.2,11.2,21,23.2,29.5,21.1C695.2,715.1,720.6,684.4,720.4,655.4z M192.8,1176.2
		c-0.7-4.1-1.2-11.3-3.3-18c-7.6-25.3-35.1-34.4-53.9-18.1c-22,19.1-26.2,60.1-8.5,83.1c13.2,17.2,33.1,18.3,48.8,2.8
		C189.1,1212.8,192.9,1196.5,192.8,1176.2z M384.8,684.7c-0.4,33.5,21.8,51.2,46,39.7c24.5-11.7,41.7-47.4,34.9-72.4
		c-7.1-26-29.7-33.8-52.6-17.8C394,647.5,387.4,666.8,384.8,684.7z M657.2,1090c-0.6-21.3-16.2-33.6-37.7-29.6
		c-27.3,5.1-54.4,37.3-53.6,63.6c0.7,22.2,18.6,34.6,41.4,28.6C634.3,1145.5,658,1115.8,657.2,1090z M340.4,1184.2
		c0.7,31.1,20.6,46.1,43.7,37.1c28.5-11.1,47-51.6,35.9-78.8c-7.6-18.7-24.4-24.9-43.3-15.2C351.4,1140.5,342,1162.5,340.4,1184.2z
		 M747.6,1225.4c-26.8,0.6-59.3,27.1-64,52.2c-4,21.8,11.1,37.2,35,35.6c26.3-1.7,56.1-26.2,61.8-50.7
		C785.5,1240.5,771.7,1224.9,747.6,1225.4z M506.4,1330.8c-28.9,0.2-61.8,27.6-65.4,54.5c-2.6,19.1,10.2,32.9,30.7,33.4
		c28.8,0.7,62.5-26.1,66.8-52.9C541.9,1344.6,529,1330.6,506.4,1330.8z M373.9,470.6c-0.1-36.7-22.8-52.9-47.6-40.2
		c-25.7,13.2-40.8,51.1-30.5,76.8c8,20.2,26.2,26.8,45.7,15.3C364.1,509.3,373.2,488.8,373.9,470.6z M212.9,697.4
		c-0.8-9.8-2.3-20.5-9-29.9c-11.9-16.5-31.7-18.9-47.5-5.5c-20.6,17.4-27.5,55.6-14.1,78.4c12.7,21.7,36.1,23.5,53.6,4.7
		C208.4,731.5,212.5,715.7,212.9,697.4z M773.6,892.6c0.1,21.6,14.5,33,37.3,29.5c28.7-4.5,56.3-35.8,55.7-63.2
		c-0.4-18.6-15.9-30.8-36-28.4C802.1,833.9,773.5,865.1,773.6,892.6z M395.2,925.1c0.1-35.6-22-50.5-48.2-37.7
		c-24.3,11.8-41,49.1-32.9,73.4c7.3,21.8,27.4,29.4,47.8,17C384,964.4,394,944.1,395.2,925.1z M191.7,927.9
		c-1.5-5.9-2.7-14.1-5.7-21.6c-7.2-17.7-26.6-23.6-44.2-14.2c-25.5,13.6-38.8,56.2-25.4,81c9.9,18.5,30.2,22.6,47.8,9.6
		C182.4,969.4,189.1,950.7,191.7,927.9z M621,871.4c-0.3-21-16.5-33.8-37.7-29.9c-28.7,5.4-55.7,39.6-53,67.1
		c2.1,20.8,19.2,31.6,40.7,25.8C597.6,927.2,621.4,897.2,621,871.4z M1007.3,918.9c0.1,21.5,12.8,31.9,35.5,29.2
		c30.2-3.6,59.1-36.7,56.8-65c-1.5-18.5-16.4-29.5-35.9-26.6C1034.5,860.8,1007.2,891.1,1007.3,918.9z M883.6,1051.5
		c-29,0.8-60,26.2-64.7,53.1c-3.4,19.3,12,35.4,33.1,34.6c27.5-1,58.9-26.7,64-52.3C920.4,1064.7,907.7,1050.8,883.6,1051.5z
		 M278.8,1402.1c0.1-24-15.5-36.6-38.4-31.1c-29.8,7.2-54,42.4-48.8,70.9c3.6,19.3,22,29.3,41.5,22.5
		C259,1455.3,278.7,1428.4,278.8,1402.1z"/>
	<path class="st1" d="M1200.7,656.1c-15.6-10-31.2-20-46.9-29.9c-34.8-22-67.7-45.8-93.3-77.6c-6.4-7.9-14.5-14.5-23.9-21.1
		c9.6,22.4,7.9,45.6,8.4,68.5c1.2,52.3-21.8,97.4-48.7,141.1c-4.8,7.8-9.5,15.4-13.8,23.5c-7.1,13.4-20.1,15.7-30.6,5.8
		c-30.8-29-59.5-59.2-82.5-94.6c-31.3-48.1-46-99.3-42.6-155.6c0.6-9.9,8-17.6,7-28c-0.9-9.3-5.1-10.2-12.2-7
		c-38.6,17.6-79.2,29.1-120.3,40.2c-55.2,15-110.9,23.3-168.4,22c-15.2-0.4-28.5-6.4-43.2-8.3c-11.3-1.4-13.8-12.2-9.1-21.9
		c17.2-35.4,38.2-68.4,69.4-94.8c36.2-30.7,76.4-55.5,120.5-74.8c16-7,31.5-15,50.6-24.2c-18.8-4.5-35.1-4.2-50.1-5.9
		c-21.4-2.4-42.8-6.2-64.3-8.4c-33.5-3.5-67.1-7.3-100.1-15.5c-20-5-40.7-7.9-60.9-12.9c-21.8-5.4-42.8-12.4-62.4-22.5
		c-5.5-2.8-10.9-2.8-16.4-4c-17.2-24.5-15.5-31.3,13.5-47.6c41.6-23.3,88.4-28.7,135.2-32.8c45-3.9,90.1-5.2,135.8-4.1
		c-26.1-14.6-53.1-27.5-77.5-44.1c-36.8-25.2-71.2-52.3-87.8-94.2c-9-22.9-7.3-25.9,19.1-27.1C563.6-2.4,617.4,13,668.6,37.8
		c81.3,39.4,145.8,97,200.9,164.7c1.7,2.1,3.6,4.1,6.2,7.1c31-31.2,64.3-58.8,101.5-82.3c65-41.1,136.5-66.5,213.2-79.8
		c15.8-2.7,29.3,0.4,41.2,11.7c11,10.4,24,18.8,35.9,28.3c18,14.4,15.4,27.8-6.4,36.7c-81.3,33.1-158.2,72.8-223.9,129.8
		c-11.5,10-21.7,21.2-32.7,31.7c-7.3,6.9-8.4,11.1,4,13.1c55.7,9,109.3,24.7,159,50.1c66.6,34.1,121.2,79.4,149.7,148.1
		c5.2,12.5,3.4,16.6-11.6,14.9c-39.2-4.4-74.6-19.2-110.2-33.5c-8.3-3.3-16.8-6.1-26.1-7.6c18.7,18.4,41,32.6,59.3,50.9
		c31.2,31.1,60,63.6,70.4,106.8c0.8,3.2,1.8,6.3,2.4,9.5c5.5,29.5-1.5,36.6-32.7,32.6c-19.6-2.5-38.6-7.3-57.1-13.8
		C1208.2,655.6,1204.7,652.2,1200.7,656.1z"/>
	<path class="st2" d="M720.4,655.4c0.2,29-25.3,59.8-55.8,67.5c-8.5,2.2-25.3-9.9-29.5-21.1c-10.9-29.3,16.9-73.6,49.5-78.8
		C704.6,619.8,720.3,634,720.4,655.4z"/>
	<path class="st2" d="M192.8,1176.2c0.1,20.4-3.7,36.6-16.9,49.7c-15.6,15.6-35.6,14.4-48.8-2.8c-17.6-22.9-13.4-63.9,8.5-83.1
		c18.7-16.3,46.3-7.2,53.9,18.1C191.5,1164.9,192.1,1172.1,192.8,1176.2z"/>
	<path class="st2" d="M384.8,684.7c2.6-17.9,9.2-37.2,28.3-50.5c22.9-16,45.5-8.3,52.6,17.8c6.8,25-10.4,60.8-34.9,72.4
		C406.6,735.9,384.3,718.2,384.8,684.7z"/>
	<path class="st2" d="M657.2,1090c0.7,25.8-22.9,55.5-49.9,62.6c-22.8,6-40.7-6.4-41.4-28.6c-0.8-26.2,26.3-58.4,53.6-63.6
		C641,1056.4,656.6,1068.6,657.2,1090z"/>
	<path class="st2" d="M340.4,1184.2c1.6-21.8,11-43.8,36.4-56.9c18.9-9.8,35.7-3.6,43.3,15.2c11,27.2-7.4,67.7-35.9,78.8
		C361,1230.3,341.1,1215.3,340.4,1184.2z"/>
	<path class="st2" d="M747.6,1225.4c24.1-0.5,37.9,15.1,32.8,37.1c-5.6,24.5-35.4,49-61.8,50.7c-23.9,1.6-39.1-13.8-35-35.6
		C688.3,1252.5,720.8,1226,747.6,1225.4z"/>
	<path class="st2" d="M506.4,1330.8c22.6-0.2,35.5,13.8,32.1,34.9c-4.3,26.9-38,53.6-66.8,52.9c-20.5-0.5-33.2-14.3-30.7-33.4
		C444.7,1358.4,477.5,1331,506.4,1330.8z"/>
	<path class="st2" d="M373.9,470.6c-0.7,18.2-9.9,38.7-32.3,52c-19.5,11.5-37.7,4.9-45.7-15.3c-10.2-25.8,4.8-63.6,30.5-76.8
		C351.2,417.6,373.8,433.8,373.9,470.6z"/>
	<path class="st2" d="M212.9,697.4c-0.4,18.3-4.5,34.1-17.1,47.6c-17.5,18.8-40.9,17-53.6-4.7c-13.4-22.8-6.5-61,14.1-78.4
		c15.8-13.3,35.7-11,47.5,5.5C210.6,676.9,212.1,687.6,212.9,697.4z"/>
	<path class="st2" d="M773.6,892.6c-0.1-27.4,28.5-58.6,57-62.1c20.1-2.5,35.6,9.8,36,28.4c0.6,27.4-27,58.7-55.7,63.2
		C788.2,925.6,773.7,914.2,773.6,892.6z"/>
	<path class="st2" d="M395.2,925.1c-1.2,19-11.2,39.3-33.3,52.7c-20.4,12.4-40.5,4.8-47.8-17c-8.2-24.2,8.6-61.6,32.9-73.4
		C373.3,874.6,395.4,889.5,395.2,925.1z"/>
	<path class="st2" d="M191.7,927.9c-2.6,22.8-9.3,41.5-27.5,54.9c-17.6,12.9-37.9,8.8-47.8-9.6c-13.4-24.8,0-67.4,25.4-81
		c17.6-9.4,37-3.5,44.2,14.2C189,913.7,190.2,922,191.7,927.9z"/>
	<path class="st2" d="M621,871.4c0.4,25.8-23.4,55.9-49.9,63c-21.6,5.8-38.7-5-40.7-25.8c-2.8-27.5,24.3-61.7,53-67.1
		C604.6,837.6,620.7,850.3,621,871.4z"/>
	<path class="st2" d="M1007.3,918.9c-0.1-27.8,27.2-58.1,56.4-62.5c19.5-2.9,34.4,8.2,35.9,26.6c2.3,28.4-26.6,61.5-56.8,65
		C1020.1,950.8,1007.4,940.4,1007.3,918.9z"/>
	<path class="st2" d="M883.6,1051.5c24.1-0.6,36.8,13.2,32.4,35.4c-5.1,25.7-36.5,51.3-64,52.3c-21.1,0.8-36.5-15.3-33.1-34.6
		C823.6,1077.7,854.7,1052.2,883.6,1051.5z"/>
	<path class="st2" d="M278.8,1402.1c-0.1,26.3-19.8,53.2-45.6,62.2c-19.5,6.8-38-3.1-41.5-22.5c-5.3-28.5,19-63.7,48.8-70.9
		C263.3,1365.5,278.9,1378.1,278.8,1402.1z"/>
</g>
</svg>
