<?xml version="1.0" encoding="utf-8"?>
<!-- Generator: Adobe Illustrator 25.3.1, SVG Export Plug-In . SVG Version: 6.00 Build 0)  -->
<svg version="1.1" id="Layer_1" xmlns="http://www.w3.org/2000/svg" xmlns:xlink="http://www.w3.org/1999/xlink" x="0px" y="0px"
	 viewBox="0 0 1768.5 1863.2" style="enable-background:new 0 0 1768.5 1863.2;" xml:space="preserve">
<style type="text/css">
	.st0{fill:#117F40;}
	.st1{fill:#33A94A;}
	.st2{fill:#85BB40;}
	.st3{fill:#EB5849;}
	.st4{fill:#4D4D4D;}
</style>
<g id="Flat">
	<path class="st0" d="M821.1,410.5h-63.2V189.5h-31.6c-52.3,0-94.7-42.4-94.7-94.7S674,0,726.3,0s94.7,42.4,94.7,94.7v31.6h63.2
		v63.2h-63.2L821.1,410.5L821.1,410.5z M726.3,63.2c-17.4,0-31.6,14.1-31.6,31.6s14.1,31.6,31.6,31.6h31.6V94.7
		C757.9,77.3,743.8,63.2,726.3,63.2z"/>
	<path class="st0" d="M1579,1073.7c0,398.8-295.6,728.5-679.7,781.9c-72.8,10.1-146.7,10.1-219.6,0C295.6,1802.2,0,1472.5,0,1073.7
		s295.6-728.5,679.7-781.9c72.8-10.1,146.7-10.1,219.6,0C1283.4,345.2,1579,674.9,1579,1073.7z"/>
	<path class="st1" d="M1342.1,1073.7c0-18.9,5.1-39.2,10.6-60.8c7.5-29.6,15.2-60.2,10.9-92.2c-4.5-34.2-21.5-64-36.4-90.3
		c-10.5-18.4-20.3-35.7-24.9-52.2c-5.1-18.2-5.9-38.8-6.8-60.8c-1.2-31.1-2.5-63.2-16.3-92.9c-15.3-33-42-57-65.7-78.2
		c-15-13.5-29.2-26.2-38.7-39.4c-10.7-14.8-18.8-32.7-27.3-51.7c-13.7-30.2-27.8-61.4-54.4-84.1c-30.9-26.3-69.7-35.6-103.9-43.7
		c-16.2-3.4-32.1-7.9-47.6-13.7c-14.6-6.4-28.7-13.8-42.3-22c-72.8-10.1-146.7-10.1-219.6,0c-13.6,8.2-27.8,15.6-42.3,22
		c-15.5,5.7-31.4,10.3-47.6,13.7c-34.2,8.1-73,17.4-103.9,43.7c-26.6,22.7-40.7,53.9-54.4,84.1c-8.6,18.9-16.7,36.9-27.3,51.7
		c-9.5,13.2-23.7,26-38.7,39.4c-23.6,21.2-50.4,45.2-65.7,78.2c-13.8,29.7-15,61.8-16.3,92.9c-0.9,21.9-1.7,42.6-6.8,60.8
		c-4.7,16.5-14.5,33.8-24.9,52.2c-14.9,26.3-31.9,56.1-36.4,90.3c-4.3,32,3.5,62.6,10.9,92.2c5.4,21.6,10.6,41.9,10.6,60.8
		s-5.1,39.2-10.6,60.8c-7.5,29.6-15.2,60.3-10.9,92.2c4.5,34.2,21.5,64,36.5,90.4c10.4,18.4,20.3,35.7,24.9,52.2
		c5.1,18.1,5.9,38.8,6.8,60.8c1.2,31,2.5,63.1,16.3,92.8c15.3,33,42,57,65.7,78.2c15,13.5,29.2,26.2,38.7,39.4
		c10.7,14.8,18.8,32.7,27.3,51.7c13.7,30.2,27.8,61.4,54.4,84.1c30.9,26.3,69.7,35.6,103.9,43.7c16.2,3.4,32.1,7.9,47.6,13.7
		c14.6,6.4,28.7,13.8,42.3,22c72.8,10.1,146.7,10.1,219.6,0c13.6-8.2,27.8-15.6,42.3-22c15.5-5.7,31.4-10.3,47.6-13.7
		c34.2-8.1,72.9-17.4,103.9-43.7c26.6-22.7,40.7-53.9,54.4-84.1c8.6-18.9,16.7-36.9,27.3-51.7c9.5-13.2,23.7-26,38.7-39.4
		c23.6-21.2,50.4-45.2,65.7-78.2c13.8-29.7,15-61.8,16.3-92.8c0.9-21.9,1.7-42.6,6.8-60.8c4.6-16.5,14.5-33.8,24.9-52.2
		c15-26.3,31.9-56.2,36.5-90.4c4.3-31.9-3.5-62.6-10.9-92.2C1347.3,1112.9,1342.1,1092.6,1342.1,1073.7L1342.1,1073.7z
		 M661.2,1775.1c-18.5-7-37.5-12.6-56.8-16.7c-29.9-7.1-58.2-13.8-77.5-30.3c-15.8-13.5-26.5-37.1-37.8-62
		c-9.5-21-19.3-42.6-33.6-62.5c-13.5-18.8-31-34.5-47.8-49.6c-20.9-18.8-40.7-36.5-50.6-57.8c-8.4-18.2-9.4-42.8-10.4-68.8
		c-1-24.6-2-50.1-9.1-75.4c-6.7-23.9-18.9-45.4-30.8-66.3c-13.3-23.4-25.9-45.5-28.8-67.5c-2.6-19.9,3.3-43.5,9.6-68.4
		c6.2-24.3,12.5-49.5,12.5-76.2c0-26.7-6.4-51.9-12.5-76.2c-6.3-24.9-12.2-48.5-9.6-68.4c2.9-22,15.5-44.1,28.8-67.5
		c11.8-20.8,24.1-42.4,30.8-66.2c7.1-25.3,8.1-50.8,9.1-75.4c1-26,2-50.5,10.4-68.8c9.8-21.2,29.6-39,50.6-57.8
		c16.9-15.1,34.3-30.8,47.8-49.6c14.3-19.9,24.1-41.6,33.6-62.5c11.3-24.9,22-48.6,37.8-62c19.3-16.5,47.6-23.2,77.5-30.3
		c19.3-4.1,38.3-9.7,56.8-16.7c0.4-0.2,0.8-0.4,1.2-0.5c-15.6,21.2-33.9,47.3-45.5,81c-7.9,23-10.5,48.2-13,72.6
		c-1.5,17.9-4.1,35.7-7.6,53.3c-3.9,15.3-8.7,30.3-14.4,45c-8.1,22.2-17.4,47.4-21.5,74.9c-3.5,23.8-2.5,47.8-1.5,71.1
		c1.3,18.4,1.3,36.9,0,55.3c-2.1,17-5.3,33.8-9.6,50.4c-5.5,23.2-11.2,47.1-12.3,73.1c-1.1,24.2,2.3,47.8,5.5,70.6
		c3,18.1,4.8,36.4,5.3,54.7c-0.5,18.3-2.3,36.6-5.3,54.7c-3.2,22.8-6.6,46.5-5.5,70.7c1.1,26,6.8,49.9,12.3,73.1
		c4.4,16.6,7.6,33.4,9.6,50.4c1.2,18.4,1.2,36.9,0,55.3c-1,23.3-2.1,47.3,1.5,71.1c4.1,27.6,13.3,52.7,21.5,74.9
		c5.7,14.7,10.6,29.7,14.4,45c3.6,17.6,6.1,35.4,7.6,53.3c2.5,24.4,5.2,49.6,13,72.6c11.6,33.8,30,59.9,45.5,81.1
		C662,1775.5,661.6,1775.3,661.2,1775.1L661.2,1775.1z M902.3,1674.1c-9.2,26.8-24.6,47.8-39.6,68.2c-6.7,9.1-13,17.7-18.7,26.7
		c-13.9,21.9-39.8,62.6-54.5,62.6c-14.6,0-40.6-40.7-54.5-62.6c-5.7-9-12-17.6-18.7-26.7c-15-20.4-30.4-41.4-39.6-68.2
		c-5.6-16.1-7.7-36.8-10-58.7c-1.7-20.3-4.6-40.5-8.8-60.5c-4.4-18-10.1-35.6-16.8-52.9c-7.8-21.2-15.2-41.3-18.3-62.4
		c-2.6-17.8-1.8-37.8-0.8-59c1.4-21.3,1.3-42.6-0.2-63.9c-2.3-19.9-6-39.7-11.1-59.1c-5.1-21.2-9.8-41.3-10.7-61.3
		c-0.8-18.3,2-38.1,4.9-59c3.5-21,5.5-42.3,5.9-63.6c-0.4-21.3-2.4-42.6-5.9-63.6c-3-20.9-5.8-40.7-4.9-59
		c0.9-20,5.6-40.1,10.7-61.3c5.1-19.4,8.8-39.2,11.1-59.1c1.5-21.3,1.6-42.6,0.2-63.9c-0.9-21.2-1.8-41.3,0.8-59
		c3.2-21.2,10.5-41.2,18.3-62.4c6.7-17.3,12.4-34.9,16.8-52.9c4.1-20,7.1-40.2,8.8-60.5c2.2-21.8,4.4-42.5,9.9-58.7
		c9.2-26.8,24.6-47.8,39.6-68.2c6.7-9.1,13-17.6,18.7-26.6c13.9-21.9,39.8-62.6,54.5-62.6c14.6,0,40.5,40.7,54.5,62.6
		c5.7,9,12,17.6,18.7,26.6c15,20.4,30.4,41.4,39.6,68.2c5.5,16.2,7.7,36.8,9.9,58.7c1.8,20.3,4.7,40.5,8.8,60.5
		c4.4,18,10,35.7,16.8,52.9c7.8,21.2,15.1,41.3,18.3,62.4c2.6,17.7,1.8,37.8,0.8,59c-1.4,21.3-1.3,42.6,0.2,63.9
		c2.3,19.9,6,39.7,11.1,59.1c5.1,21.2,9.8,41.3,10.7,61.3c0.8,18.3-2,38.1-4.9,59c-3.5,21-5.5,42.3-5.9,63.6
		c0.4,21.3,2.4,42.6,5.9,63.6c3,20.9,5.8,40.7,4.9,59c-0.9,20-5.6,40.1-10.7,61.3c-5.1,19.4-8.8,39.2-11.1,59.1
		c-1.5,21.3-1.6,42.6-0.2,63.9c0.9,21.2,1.8,41.2-0.8,58.9c-3.1,21.2-10.5,41.3-18.3,62.5c-6.7,17.3-12.3,34.9-16.8,52.9
		c-4.1,20-7,40.2-8.8,60.5C910,1637.3,907.8,1657.9,902.3,1674.1L902.3,1674.1z M1291.5,1149.9c6.3,24.9,12.2,48.5,9.6,68.4
		c-2.9,22-15.5,44.1-28.8,67.5c-11.8,20.8-24.1,42.4-30.8,66.3c-7.1,25.3-8.1,50.8-9.1,75.4c-1,26-2,50.5-10.4,68.8
		c-9.9,21.2-29.6,39-50.6,57.8c-16.9,15.1-34.3,30.8-47.8,49.6c-14.3,19.9-24.1,41.6-33.6,62.5c-11.3,24.9-22,48.6-37.8,62
		c-19.3,16.5-47.6,23.2-77.5,30.3c-19.3,4.1-38.3,9.7-56.8,16.7c-0.4,0.2-0.8,0.4-1.2,0.5c15.6-21.2,33.9-47.3,45.5-81.1
		c7.9-23,10.5-48.2,13-72.6c1.5-17.9,4.1-35.7,7.6-53.3c3.9-15.3,8.7-30.3,14.4-45c8.2-22.2,17.4-47.3,21.5-74.9
		c3.5-23.7,2.5-47.8,1.5-71.1c-1.3-18.4-1.3-36.9,0-55.3c2.1-17,5.3-33.8,9.6-50.4c5.5-23.2,11.2-47.1,12.3-73.1
		c1.1-24.2-2.3-47.8-5.5-70.7c-3-18.1-4.8-36.4-5.3-54.7c0.5-18.3,2.3-36.6,5.3-54.7c3.2-22.8,6.6-46.5,5.5-70.6
		c-1.1-26-6.8-50-12.3-73.1c-4.4-16.6-7.6-33.4-9.6-50.4c-1.2-18.4-1.2-36.9,0-55.3c1-23.3,2.1-47.3-1.5-71.1
		c-4.1-27.5-13.3-52.7-21.5-74.9c-5.7-14.7-10.6-29.7-14.4-45c-3.6-17.6-6.1-35.4-7.6-53.3c-2.5-24.4-5.2-49.6-13-72.6
		c-11.6-33.8-30-59.8-45.5-81c0.4,0.2,0.8,0.4,1.2,0.5c18.5,7,37.5,12.6,56.8,16.7c29.9,7.1,58.2,13.8,77.5,30.3
		c15.8,13.5,26.5,37.1,37.8,62c9.5,21,19.3,42.6,33.6,62.5c13.5,18.8,31,34.5,47.8,49.6c20.9,18.8,40.7,36.5,50.6,57.8
		c8.4,18.3,9.4,42.8,10.4,68.8c1,24.6,2,50.1,9.1,75.4c6.7,23.8,18.9,45.4,30.8,66.2c13.3,23.4,25.9,45.5,28.8,67.5
		c2.7,19.9-3.3,43.5-9.6,68.4c-6.2,24.3-12.5,49.5-12.5,76.2C1279,1100.4,1285.3,1125.6,1291.5,1149.9L1291.5,1149.9z"/>
	<path class="st2" d="M1768.5,1231.6c0,348.8-282.8,631.6-631.6,631.6s-631.6-282.8-631.6-631.6L1768.5,1231.6L1768.5,1231.6z"/>
	<path class="st3" d="M1642.1,1231.6c0,279.1-226.2,505.3-505.3,505.3s-505.3-226.2-505.3-505.3L1642.1,1231.6L1642.1,1231.6z"/>
	<g>
		<path class="st3" d="M821.1,1357.9h63.2v63.2h-63.2V1357.9z"/>
		<path class="st3" d="M1231.6,1515.8h63.2v63.2h-63.2V1515.8z"/>
		<path class="st3" d="M947.4,1515.8h63.2v63.2h-63.2V1515.8z"/>
		<path class="st3" d="M1421.1,1357.9h63.2v63.2h-63.2L1421.1,1357.9L1421.1,1357.9z"/>
		<path class="st3" d="M1105.3,1357.9h63.2v63.2h-63.2V1357.9z"/>
	</g>
</g>
<g>
	<path class="st4" d="M1037.5,1561.9c0,24.7-20,44.7-44.7,44.7c-24.7,0-44.8-20-44.8-44.7c0-24.7,44.8-62.1,44.8-62.1
		S1037.5,1537.2,1037.5,1561.9z"/>
	<path class="st4" d="M1340.4,1561.9c0,24.7-20,44.7-44.7,44.7c-24.7,0-44.8-20-44.8-44.7c0-24.7,44.8-62.1,44.8-62.1
		S1340.4,1537.2,1340.4,1561.9z"/>
	<path class="st4" d="M1498.9,1387.1c0,24.7-20,44.7-44.7,44.7c-24.7,0-44.8-20-44.8-44.7c0-24.7,44.8-62.1,44.8-62.1
		S1498.9,1362.4,1498.9,1387.1z"/>
	<path class="st4" d="M879,1387.1c0,24.7-20,44.7-44.7,44.7c-24.7,0-44.8-20-44.8-44.7c0-24.7,44.8-62.1,44.8-62.1
		S879,1362.4,879,1387.1z"/>
	<path class="st4" d="M1189,1387.1c0,24.7-20,44.7-44.7,44.7c-24.7,0-44.8-20-44.8-44.7c0-24.7,44.8-62.1,44.8-62.1
		S1189,1362.4,1189,1387.1z"/>
</g>
</svg>
