<?xml version="1.0" encoding="iso-8859-1"?>
<!-- Generator: Adobe Illustrator 25.3.1, SVG Export Plug-In . SVG Version: 6.00 Build 0)  -->
<svg version="1.1" id="Layer_1" xmlns="http://www.w3.org/2000/svg" xmlns:xlink="http://www.w3.org/1999/xlink" x="0px" y="0px"
	 viewBox="0 0 14400 14400" style="enable-background:new 0 0 14400 14400;" xml:space="preserve">
<g id="Flat">
	<path style="fill:#117F40;" d="M7071.363,6265.214h-111.022v-388.579h-55.511c-91.974,0-166.534-74.56-166.534-166.534
		c0-91.974,74.56-166.534,166.534-166.534s166.534,74.56,166.534,166.534v55.511h111.022v111.022h-111.022V6265.214z
		 M6904.83,5654.59c-30.658,0-55.511,24.853-55.511,55.511c0,30.658,24.854,55.511,55.511,55.511h55.511v-55.511
		C6960.307,5679.458,6935.474,5654.625,6904.83,5654.59z"/>
	<path style="fill:#117F40;" d="M8403.633,7430.95c0,700.968-519.654,1280.575-1194.81,1374.458
		c-128.034,17.763-257.908,17.763-385.942,0c-675.155-93.884-1194.81-673.49-1194.81-1374.458s519.655-1280.575,1194.81-1374.458
		c128.034-17.764,257.908-17.764,385.942,0C7883.979,6150.375,8403.633,6729.981,8403.633,7430.95z"/>
	<path style="fill:#33A94A;" d="M7987.299,7430.95c0-33.168,9.021-68.973,18.596-106.859
		c13.115-52.042,26.715-105.888,19.221-162.093c-7.98-60.091-37.817-112.549-64.046-158.762
		c-18.388-32.335-35.666-62.797-43.854-91.732c-8.951-31.919-10.408-68.279-11.935-106.79
		c-2.151-54.609-4.372-111.022-28.588-163.272c-26.854-58.009-73.899-100.198-115.463-137.459
		c-26.368-23.662-51.348-46.074-68.07-69.32c-18.735-26.021-32.96-57.523-48.018-90.83
		c-24.078-53.083-48.919-107.969-95.618-147.799c-54.332-46.282-122.472-62.52-182.632-76.813
		c-28.448-5.929-56.419-13.953-83.683-24.009c-25.601-11.295-50.448-24.228-74.385-38.719c-128.034-17.764-257.908-17.764-385.942,0
		c-23.938,14.491-48.784,27.424-74.385,38.719c-27.264,10.056-55.235,18.08-83.683,24.009
		c-60.161,14.294-128.3,30.531-182.632,76.813c-46.699,39.83-71.54,94.716-95.618,147.799
		c-15.058,33.307-29.282,64.809-48.018,90.83c-16.723,23.246-41.703,45.658-68.07,69.32c-41.564,37.262-88.61,79.45-115.463,137.459
		c-24.217,52.25-26.438,108.664-28.588,163.272c-1.527,38.511-2.984,74.871-11.935,106.79
		c-8.188,28.935-25.466,59.397-43.854,91.732c-26.229,46.213-56.066,98.671-64.046,158.762
		c-7.494,56.205,6.106,110.051,19.221,162.093c9.576,37.887,18.596,73.691,18.596,106.859s-9.021,68.973-18.596,106.859
		c-13.114,52.042-26.715,105.957-19.221,162.093c7.98,60.091,37.817,112.549,64.116,158.832
		c18.318,32.266,35.666,62.728,43.784,91.732c9.021,31.85,10.408,68.279,11.935,106.79c2.151,54.54,4.372,110.953,28.588,163.203
		c26.854,58.01,73.899,100.268,115.463,137.46c26.368,23.661,51.348,46.074,68.07,69.319c18.735,26.021,32.96,57.523,48.018,90.83
		c24.078,53.083,48.919,107.97,95.618,147.799c54.332,46.282,122.472,62.52,182.562,76.813c28.474,5.92,56.468,13.944,83.753,24.009
		c25.601,11.295,50.447,24.229,74.385,38.719c128.034,17.764,257.908,17.764,385.942,0c23.938-14.49,48.784-27.424,74.385-38.719
		c27.285-10.064,55.279-18.089,83.752-24.009c60.091-14.294,128.231-30.531,182.562-76.813
		c46.699-39.829,71.54-94.716,95.618-147.799c15.058-33.307,29.282-64.809,48.018-90.83c16.723-23.245,41.703-45.658,68.07-69.319
		c41.564-37.192,88.61-79.45,115.463-137.46c24.217-52.25,26.438-108.663,28.588-163.203c1.527-38.511,2.915-74.94,11.935-106.79
		c8.119-29.004,25.466-59.466,43.784-91.732c26.299-46.282,56.136-98.74,64.116-158.832c7.494-56.136-6.106-110.051-19.221-162.093
		C7996.319,7499.922,7987.299,7464.118,7987.299,7430.95L7987.299,7430.95z M6790.407,8663.924
		c-32.511-12.297-65.915-22.086-99.92-29.282c-52.597-12.49-102.279-24.286-136.28-53.291
		c-27.825-23.662-46.629-65.156-66.475-109.01c-16.653-36.846-33.862-74.94-59.05-109.913c-23.8-33.029-54.47-60.576-84.1-87.152
		c-36.776-33.029-71.54-64.185-88.887-101.516c-14.849-32.058-16.515-75.218-18.319-120.876
		c-1.734-43.298-3.469-88.055-16.029-132.533c-11.796-41.98-33.307-79.867-54.124-116.504
		c-23.384-41.079-45.45-79.936-50.584-118.586c-4.649-35.042,5.759-76.467,16.792-120.32c10.825-42.744,21.997-87.014,21.997-133.99
		c0-46.977-11.172-91.247-21.997-133.99c-11.033-43.854-21.51-85.279-16.792-120.321c5.135-38.65,27.201-77.507,50.584-118.586
		c20.817-36.637,42.328-74.524,54.124-116.435c12.56-44.548,14.294-89.304,16.029-132.603c1.804-45.658,3.47-88.749,18.319-120.875
		c17.278-37.332,52.111-68.487,88.887-101.517c29.629-26.576,60.299-54.054,84.1-87.152c25.188-34.972,42.397-73.067,59.05-109.912
		c19.845-43.854,38.649-85.349,66.475-109.01c34-29.005,83.683-40.801,136.28-53.291c34.005-7.196,67.41-16.985,99.92-29.282
		c0.694-0.277,1.388-0.624,2.151-0.902c-27.339,37.262-59.674,83.128-80.005,142.456c-13.809,40.385-18.458,84.724-22.898,127.606
		c-2.668,31.433-7.14,62.686-13.392,93.606c-6.769,26.852-15.228,53.25-25.327,79.034c-14.294,38.997-30.531,83.267-37.748,131.631
		c-6.175,41.772-4.372,84.03-2.567,124.9c2.209,32.366,2.232,64.845,0.069,97.214c-3.62,29.865-9.276,59.447-16.931,88.541
		c-9.645,40.731-19.637,82.851-21.649,128.578c-1.874,42.466,4.024,84.03,9.714,124.137c5.342,31.801,8.449,63.938,9.298,96.173
		c-0.849,32.235-3.956,64.372-9.298,96.173c-5.69,40.107-11.588,81.671-9.714,124.207c2.012,45.658,12.004,87.777,21.649,128.508
		c7.654,29.093,13.311,58.676,16.931,88.541c2.163,32.346,2.14,64.801-0.069,97.145c-1.804,40.939-3.608,83.197,2.567,124.9
		c7.216,48.434,23.384,92.634,37.748,131.631c10.1,25.785,18.559,52.183,25.327,79.034c6.248,30.921,10.719,62.174,13.392,93.605
		c4.441,42.883,9.09,87.223,22.898,127.606c20.331,59.397,52.666,105.264,80.005,142.525
		C6791.795,8664.548,6791.101,8664.201,6790.407,8663.924L6790.407,8663.924z M7214.097,8486.287
		c-16.098,47.115-43.299,84.1-69.597,119.904c-11.727,15.96-22.829,31.087-32.891,46.907
		c-24.425,38.511-70.013,110.12-95.757,110.12c-25.743,0-71.332-71.609-95.757-110.12c-10.062-15.82-21.164-30.947-32.89-46.907
		c-26.299-35.805-53.499-72.789-69.598-119.904c-9.784-28.38-13.531-64.67-17.555-103.111c-3.02-35.709-8.164-71.207-15.404-106.305
		c-7.818-31.597-17.668-62.654-29.49-92.981c-13.67-37.332-26.646-72.581-32.127-109.773c-4.649-31.225-3.123-66.405-1.457-103.667
		c2.483-37.387,2.367-74.9-0.347-112.271c-4.021-35.062-10.514-69.797-19.429-103.945c-8.882-37.331-17.208-72.65-18.735-107.831
		c-1.457-32.197,3.47-66.891,8.674-103.667c6.146-36.964,9.624-74.323,10.408-111.786c-0.784-37.463-4.263-74.822-10.408-111.786
		c-5.204-36.776-10.131-71.471-8.674-103.667c1.527-35.18,9.854-70.499,18.735-107.831c8.915-34.147,15.407-68.882,19.429-103.945
		c2.714-37.371,2.831-74.884,0.347-112.271c-1.666-37.262-3.192-72.512,1.457-103.667c5.551-37.192,18.458-72.442,32.127-109.773
		c11.863-30.335,21.714-61.42,29.49-93.051c7.229-35.102,12.395-70.598,15.474-106.304c3.955-38.372,7.771-74.663,17.486-103.112
		c16.099-47.046,43.299-84.1,69.598-119.904c11.727-15.959,22.829-31.017,32.89-46.838c24.495-38.511,70.014-110.12,95.757-110.12
		c25.744,0,71.263,71.609,95.757,110.12c10.062,15.821,21.164,30.878,32.891,46.838c26.298,35.805,53.499,72.858,69.597,119.904
		c9.714,28.449,13.531,64.74,17.486,103.112c3.079,35.707,8.246,71.202,15.474,106.304c7.775,31.631,17.627,62.715,29.49,93.051
		c13.669,37.331,26.576,72.581,32.127,109.773c4.649,31.156,3.123,66.405,1.458,103.667c-2.483,37.387-2.368,74.9,0.347,112.271
		c4.021,35.062,10.514,69.797,19.429,103.945c8.882,37.332,17.208,72.65,18.735,107.831c1.457,32.197-3.47,66.891-8.674,103.667
		c-6.146,36.964-9.624,74.322-10.408,111.786c0.784,37.463,4.263,74.821,10.408,111.786c5.204,36.776,10.131,71.47,8.674,103.667
		c-1.527,35.18-9.854,70.5-18.735,107.831c-8.915,34.148-15.407,68.883-19.429,103.945c-2.714,37.371-2.83,74.885-0.347,112.271
		c1.665,37.262,3.191,72.442-1.458,103.598c-5.481,37.262-18.458,72.512-32.127,109.843c-11.822,30.326-21.673,61.385-29.49,92.981
		c-7.241,35.098-12.384,70.595-15.404,106.304C7227.627,8421.617,7223.88,8457.907,7214.097,8486.287L7214.097,8486.287z
		 M7898.272,7564.94c11.033,43.854,21.441,85.279,16.792,120.32c-5.135,38.65-27.201,77.508-50.584,118.586
		c-20.817,36.637-42.328,74.524-54.124,116.504c-12.56,44.478-14.294,89.234-16.029,132.533
		c-1.804,45.658-3.47,88.818-18.319,120.876c-17.347,37.332-52.111,68.487-88.887,101.516c-29.629,26.576-60.299,54.123-84.1,87.152
		c-25.188,34.973-42.396,73.067-59.05,109.913c-19.845,43.854-38.649,85.348-66.475,109.01c-34,29.005-83.683,40.801-136.28,53.291
		c-34.005,7.196-67.409,16.985-99.92,29.282c-0.694,0.277-1.388,0.624-2.151,0.901c27.339-37.262,59.674-83.128,80.005-142.524
		c13.808-40.385,18.458-84.725,22.898-127.606c2.673-31.433,7.144-62.686,13.392-93.606c6.768-26.852,15.228-53.249,25.327-79.034
		c14.364-38.996,30.531-83.197,37.748-131.631c6.176-41.703,4.372-83.96,2.567-124.9c-2.208-32.343-2.232-64.798-0.069-97.145
		c3.62-29.865,9.276-59.447,16.931-88.541c9.645-40.731,19.637-82.85,21.649-128.508c1.874-42.536-4.024-84.1-9.714-124.206
		c-5.342-31.801-8.449-63.938-9.298-96.173c0.849-32.235,3.956-64.372,9.298-96.173c5.69-40.107,11.588-81.671,9.714-124.137
		c-2.012-45.727-12.004-87.846-21.649-128.578c-7.655-29.093-13.312-58.676-16.931-88.541c-2.163-32.369-2.139-64.848,0.069-97.214
		c1.804-40.87,3.608-83.128-2.567-124.9c-7.216-48.364-23.453-92.634-37.748-131.631c-10.099-25.785-18.559-52.182-25.327-79.034
		c-6.253-30.92-10.724-62.173-13.392-93.606c-4.441-42.882-9.09-87.222-22.898-127.606
		c-20.331-59.328-52.667-105.194-80.005-142.456c0.763,0.277,1.457,0.625,2.151,0.902c32.511,12.296,65.915,22.086,99.92,29.282
		c52.597,12.49,102.28,24.286,136.28,53.291c27.825,23.662,46.629,65.156,66.475,109.01c16.653,36.845,33.862,74.94,59.05,109.912
		c23.8,33.099,54.47,60.577,84.1,87.152c36.776,33.029,71.609,64.185,88.887,101.517c14.849,32.127,16.515,75.217,18.319,120.875
		c1.735,43.299,3.469,88.055,16.029,132.603c11.796,41.911,33.307,79.797,54.124,116.435c23.384,41.079,45.45,79.937,50.584,118.586
		c4.718,35.042-5.759,76.467-16.792,120.321c-10.824,42.744-21.996,87.014-21.996,133.99
		C7876.276,7477.926,7887.448,7522.196,7898.272,7564.94L7898.272,7564.94z"/>
	<path style="fill:#85BB40;" d="M8736.7,7708.506c0,613.16-497.064,1110.225-1110.225,1110.225s-1110.225-497.064-1110.225-1110.225
		H8736.7z"/>
	<path style="fill:#EB5849;" d="M8514.655,7708.506c0,490.528-397.651,888.18-888.18,888.18s-888.18-397.651-888.18-888.18H8514.655
		z"/>
	<g>
		<path style="fill:#EB5849;" d="M7071.363,7930.551h111.022v111.022h-111.022V7930.551z"/>
		<path style="fill:#EB5849;" d="M7793.009,8208.106h111.022v111.022h-111.022V8208.106z"/>
		<path style="fill:#EB5849;" d="M7293.408,8208.106h111.022v111.022h-111.022V8208.106z"/>
		<path style="fill:#EB5849;" d="M8126.077,7930.551H8237.1v111.022h-111.023V7930.551z"/>
		<path style="fill:#EB5849;" d="M7570.964,7930.551h111.022v111.022h-111.022V7930.551z"/>
	</g>
</g>
<g>
	<path style="fill:#4D4D4D;" d="M7451.766,8289.097c0,43.421-35.216,78.637-78.636,78.637c-43.47,0-78.686-35.216-78.686-78.637
		c0-43.47,78.686-109.137,78.686-109.137S7451.766,8245.632,7451.766,8289.097z"/>
	<path style="fill:#4D4D4D;" d="M7984.291,8289.097c0,43.421-35.216,78.637-78.636,78.637c-43.47,0-78.686-35.216-78.686-78.637
		c0-43.47,78.686-109.137,78.686-109.137S7984.291,8245.632,7984.291,8289.097z"/>
	<path style="fill:#4D4D4D;" d="M8262.884,7981.823c0,43.42-35.216,78.636-78.637,78.636c-43.47,0-78.686-35.216-78.686-78.636
		c0-43.47,78.686-109.137,78.686-109.137S8262.884,7938.353,8262.884,7981.823z"/>
	<path style="fill:#4D4D4D;" d="M7173.174,7981.823c0,43.42-35.215,78.636-78.636,78.636c-43.47,0-78.686-35.216-78.686-78.636
		c0-43.47,78.686-109.137,78.686-109.137S7173.174,7938.353,7173.174,7981.823z"/>
	<path style="fill:#4D4D4D;" d="M7718.029,7981.823c0,43.42-35.216,78.636-78.637,78.636c-43.47,0-78.685-35.216-78.685-78.636
		c0-43.47,78.685-109.137,78.685-109.137S7718.029,7938.353,7718.029,7981.823z"/>
</g>
</svg>
