<?xml version="1.0" encoding="utf-8"?>
<!-- Generator: Adobe Illustrator 25.3.1, SVG Export Plug-In . SVG Version: 6.00 Build 0)  -->
<svg version="1.1" id="Layer_1" xmlns="http://www.w3.org/2000/svg" xmlns:xlink="http://www.w3.org/1999/xlink" x="0px" y="0px"
	 viewBox="0 0 306 225" style="enable-background:new 0 0 306 225;" xml:space="preserve">
<style type="text/css">
	.st0{opacity:0.25;}
	.st1{opacity:0.8;fill:#F7EEED;enable-background:new    ;}
	.st2{fill:none;stroke:#FFFFFF;}
</style>
<g class="st0">
	
		<image style="overflow:visible;enable-background:new    ;" width="243" height="225" xlink:href="6339C2CF8ABD2CA7.png"  transform="matrix(1 0 0 1 31 0)">
	</image>
</g>
<ellipse class="st1" cx="152" cy="107.5" rx="91" ry="91.5"/>
<g class="st0">
	
		<image style="overflow:visible;enable-background:new    ;" width="243" height="221" xlink:href="6339C2CF8ABD2CA2.png"  transform="matrix(1 0 0 1 31 4)">
	</image>
</g>
<ellipse class="st2" cx="152" cy="107.5" rx="90.5" ry="91"/>
<g class="st0">
	
		<image style="overflow:visible;enable-background:new    ;" width="257" height="219" xlink:href="6339C2CF8ABD2CA1.png"  transform="matrix(1 0 0 1 24 4)">
	</image>
</g>
<ellipse class="st2" cx="152" cy="107.5" rx="97.5" ry="98"/>
<g class="st0">
	
		<image style="overflow:visible;enable-background:new    ;" width="93" height="92" xlink:href="6339C2CF8ABD2CAD.png"  transform="matrix(1 0 0 1 0 71)">
	</image>
</g>
<circle class="st1" cx="42" cy="111.5" r="36"/>
<circle class="st2" cx="42" cy="111.5" r="35.5"/>
<g class="st0">
	
		<image style="overflow:visible;enable-background:new    ;" width="96" height="92" xlink:href="6339C2CF8ABD2CAE.png"  transform="matrix(1 0 0 1 210 71)">
	</image>
</g>
<circle class="st1" cx="261.6" cy="111.5" r="36"/>
<circle class="st2" cx="261.6" cy="111.5" r="35.5"/>
</svg>
