<svg width="256" height="256" viewBox="0 0 256 256" fill="none" xmlns="http://www.w3.org/2000/svg">
<path fill-rule="evenodd" clip-rule="evenodd" d="M189.67 59.0685C202.816 71.9412 198.932 94.3107 201.893 113.123C204.793 131.542 214.193 149.748 206.789 167.8C199.268 186.136 180.382 196.861 163.356 207.08C146.604 217.135 128.531 228.067 110.168 225.795C92.229 223.575 82.0969 206.653 68.6164 195.356C54.6563 183.656 35.8344 176.275 29.9992 158.608C23.8088 139.866 24.3798 116.124 36.7976 99.0205C48.8372 82.4379 72.7385 84.3024 90.7193 74.9765C106.476 66.8039 118.232 50.6707 135.312 47.9248C154.625 44.8201 176.405 46.0791 189.67 59.0685Z" fill="white" fill-opacity="0.8"/>
</svg>
