<svg id="Layer_1" data-name="Layer 1" xmlns="http://www.w3.org/2000/svg" viewBox="0 0 291.58 197"><defs><style>.cls-1{fill:#f7eeed;fill-opacity:0.8;}.cls-2,.cls-3{fill:none;}.cls-2{stroke:#fff;}</style></defs><ellipse class="cls-1" cx="146.01" cy="98.5" rx="91" ry="91.5"/><path class="cls-2" d="M240.5,98.5c0,50.26-40.52,91-90.5,91s-90.5-40.74-90.5-91S100,7.5,150,7.5,240.5,48.24,240.5,98.5Z" transform="translate(-3.99)"/><path class="cls-2" d="M247.5,98.5c0,54.13-43.65,98-97.5,98s-97.5-43.87-97.5-98S96.15.5,150,.5,247.5,44.37,247.5,98.5Z" transform="translate(-3.99)"/><rect class="cls-3" x="112.01" y="59" width="62" height="66"/><path class="cls-3" d="M107.31,26.62H104.4V24.9h7.93v1.72h-2.91V34h-2.11Zm12.9.39v7h-1.92v-.83a2.77,2.77,0,0,1-1,.7,3.07,3.07,0,0,1-1.21.23,3,3,0,0,1-2.19-.79,3.18,3.18,0,0,1-.8-2.35V27h2v3.65c0,1.13.47,1.69,1.41,1.69a1.53,1.53,0,0,0,1.17-.47,2,2,0,0,0,.44-1.42V27Zm9.7-.11a3.44,3.44,0,0,1,1.77.46,3.18,3.18,0,0,1,1.26,1.26,3.79,3.79,0,0,1,.45,1.88,3.9,3.9,0,0,1-.45,1.9,3.31,3.31,0,0,1-1.26,1.26,3.52,3.52,0,0,1-1.77.44,2.69,2.69,0,0,1-2.2-.91V34h-1.94V24.35h2v3.4A2.68,2.68,0,0,1,129.91,26.9Zm-.35,5.54a1.66,1.66,0,0,0,1.27-.52,2,2,0,0,0,.51-1.42,1.91,1.91,0,0,0-.51-1.4,1.63,1.63,0,0,0-1.27-.53,1.69,1.69,0,0,0-1.29.53,1.94,1.94,0,0,0-.49,1.4,2,2,0,0,0,.49,1.42A1.72,1.72,0,0,0,129.56,32.44Zm12-1.91s0,.21,0,.55h-5.29a1.64,1.64,0,0,0,.68,1,2.22,2.22,0,0,0,1.32.38,2.54,2.54,0,0,0,1-.16,2.34,2.34,0,0,0,.8-.52L141.11,33a3.61,3.61,0,0,1-2.89,1.13,4.63,4.63,0,0,1-2.09-.45,3.39,3.39,0,0,1-1.41-1.29,3.49,3.49,0,0,1-.49-1.86,3.56,3.56,0,0,1,.48-1.84,3.39,3.39,0,0,1,1.34-1.29A3.94,3.94,0,0,1,138,26.9a4,4,0,0,1,1.86.44,3.2,3.2,0,0,1,1.3,1.28A3.69,3.69,0,0,1,141.6,30.53ZM138,28.44a1.72,1.72,0,0,0-1.15.39,1.62,1.62,0,0,0-.58,1.06h3.45a1.66,1.66,0,0,0-.57-1.05A1.7,1.7,0,0,0,138,28.44Zm9.11-1.54a3.44,3.44,0,0,1,1.77.46,3.06,3.06,0,0,1,1.26,1.26,3.69,3.69,0,0,1,.46,1.88,3.79,3.79,0,0,1-.46,1.9,3.18,3.18,0,0,1-1.26,1.26,3.52,3.52,0,0,1-1.77.44,2.66,2.66,0,0,1-2.19-.91V34H143V24.35h2v3.4A2.67,2.67,0,0,1,147.08,26.9Zm-.35,5.54a1.68,1.68,0,0,0,1.28-.52,2,2,0,0,0,.5-1.42,1.91,1.91,0,0,0-.5-1.4,1.81,1.81,0,0,0-2.56,0,2,2,0,0,0-.5,1.4,2,2,0,0,0,.5,1.42A1.68,1.68,0,0,0,146.73,32.44Zm12.05-1.91s0,.21,0,.55h-5.29a1.63,1.63,0,0,0,.67,1,2.27,2.27,0,0,0,1.33.38,2.61,2.61,0,0,0,1-.16,2.22,2.22,0,0,0,.79-.52L158.28,33a3.6,3.6,0,0,1-2.88,1.13,4.7,4.7,0,0,1-2.1-.45,3.43,3.43,0,0,1-1.4-1.29,3.49,3.49,0,0,1-.49-1.86,3.56,3.56,0,0,1,.48-1.84,3.33,3.33,0,0,1,1.34-1.29,3.92,3.92,0,0,1,1.91-.47,4,4,0,0,1,1.86.44,3.27,3.27,0,0,1,1.3,1.28A3.69,3.69,0,0,1,158.78,30.53Zm-3.63-2.09a1.77,1.77,0,0,0-1.16.39,1.66,1.66,0,0,0-.57,1.06h3.45a1.62,1.62,0,0,0-.58-1.05A1.67,1.67,0,0,0,155.15,28.44Zm.52-4.2h2.18l-2.35,1.87h-1.58Zm15,6.29s0,.21,0,.55h-5.29a1.64,1.64,0,0,0,.68,1,2.22,2.22,0,0,0,1.32.38,2.54,2.54,0,0,0,1-.16,2.34,2.34,0,0,0,.8-.52L170.17,33a3.62,3.62,0,0,1-2.89,1.13,4.63,4.63,0,0,1-2.09-.45,3.39,3.39,0,0,1-1.41-1.29,3.49,3.49,0,0,1-.49-1.86,3.56,3.56,0,0,1,.48-1.84,3.33,3.33,0,0,1,1.34-1.29A3.94,3.94,0,0,1,167,26.9a4,4,0,0,1,1.86.44,3.2,3.2,0,0,1,1.3,1.28A3.69,3.69,0,0,1,170.66,30.53ZM167,28.44a1.72,1.72,0,0,0-1.15.39,1.62,1.62,0,0,0-.58,1.06h3.45a1.66,1.66,0,0,0-.57-1.05A1.71,1.71,0,0,0,167,28.44Zm7.33,5.66a7.39,7.39,0,0,1-1.7-.2,4.63,4.63,0,0,1-1.33-.55l.68-1.46a4.37,4.37,0,0,0,1.13.5,5,5,0,0,0,1.3.18c.86,0,1.29-.21,1.29-.64a.46.46,0,0,0-.35-.43,5.86,5.86,0,0,0-1.08-.22,8.66,8.66,0,0,1-1.42-.3,2.22,2.22,0,0,1-1-.59,1.74,1.74,0,0,1-.41-1.23,1.93,1.93,0,0,1,.38-1.17,2.51,2.51,0,0,1,1.12-.8,4.8,4.8,0,0,1,1.74-.29,6.7,6.7,0,0,1,1.47.17,3.94,3.94,0,0,1,1.22.44L176.76,29a4,4,0,0,0-2-.52,2.11,2.11,0,0,0-1,.18.54.54,0,0,0-.32.47.47.47,0,0,0,.35.45,6.23,6.23,0,0,0,1.12.25,10.45,10.45,0,0,1,1.4.31,2,2,0,0,1,.95.58,1.69,1.69,0,0,1,.4,1.2,1.81,1.81,0,0,1-.39,1.16,2.51,2.51,0,0,1-1.14.79A5.15,5.15,0,0,1,174.36,34.1Zm9.07-.44a2.2,2.2,0,0,1-.74.34,3.85,3.85,0,0,1-.91.1,2.76,2.76,0,0,1-1.94-.63,2.47,2.47,0,0,1-.68-1.88V28.72h-1.08V27.16h1.08v-1.7h2v1.7h1.74v1.56h-1.74v2.85a1,1,0,0,0,.22.69.92.92,0,0,0,.65.23,1.26,1.26,0,0,0,.82-.26Zm4-6.76a3.61,3.61,0,0,1,2.49.78,3,3,0,0,1,.87,2.33v4h-1.9v-.87a2.25,2.25,0,0,1-2.13,1,3.4,3.4,0,0,1-1.4-.27,2.09,2.09,0,0,1-.9-.75,2,2,0,0,1-.31-1.09,1.81,1.81,0,0,1,.73-1.54,3.77,3.77,0,0,1,2.27-.56h1.62a1.26,1.26,0,0,0-.41-1,1.77,1.77,0,0,0-1.21-.37,3.22,3.22,0,0,0-1.1.19,2.69,2.69,0,0,0-.91.46l-.73-1.41a4.44,4.44,0,0,1,1.37-.63A6.44,6.44,0,0,1,187.39,26.9Zm-.16,5.84a1.85,1.85,0,0,0,.92-.23,1.43,1.43,0,0,0,.58-.72v-.71h-1.4c-.83,0-1.24.27-1.24.81a.79.79,0,0,0,.29.63A1.45,1.45,0,0,0,187.23,32.74Zm.94-8.5h2.18L188,26.11h-1.59Zm-55,25.86a4.44,4.44,0,0,1-2-.45,3.53,3.53,0,0,1-1.39-1.29,3.49,3.49,0,0,1-.49-1.86,3.54,3.54,0,0,1,.49-1.86,3.48,3.48,0,0,1,1.39-1.27,4.33,4.33,0,0,1,2-.47,3.85,3.85,0,0,1,1.92.47,2.7,2.7,0,0,1,1.21,1.31l-1.57.85a1.73,1.73,0,0,0-1.58-1,1.76,1.76,0,0,0-1.31.52,1.87,1.87,0,0,0-.52,1.41,1.91,1.91,0,0,0,.52,1.42,1.76,1.76,0,0,0,1.31.52,1.71,1.71,0,0,0,1.58-1l1.57.86a2.86,2.86,0,0,1-1.21,1.3A3.84,3.84,0,0,1,133.15,50.1Zm7.54,0a4.32,4.32,0,0,1-2-.45,3.46,3.46,0,0,1-1.86-3.15,3.54,3.54,0,0,1,.49-1.86,3.43,3.43,0,0,1,1.37-1.27,4.21,4.21,0,0,1,2-.47,4.13,4.13,0,0,1,2,.47A3.43,3.43,0,0,1,144,44.64a3.54,3.54,0,0,1,.49,1.86,3.46,3.46,0,0,1-1.86,3.15A4.23,4.23,0,0,1,140.69,50.1Zm0-1.66a1.66,1.66,0,0,0,1.27-.52,2,2,0,0,0,.51-1.42,1.91,1.91,0,0,0-.51-1.4,1.63,1.63,0,0,0-1.27-.53,1.69,1.69,0,0,0-1.29.53,1.91,1.91,0,0,0-.51,1.4,2,2,0,0,0,.51,1.42A1.72,1.72,0,0,0,140.69,48.44Zm14.14-5.54a2.78,2.78,0,0,1,2.08.78,3.11,3.11,0,0,1,.78,2.32v4h-2V46.31a1.82,1.82,0,0,0-.36-1.24,1.19,1.19,0,0,0-1-.41,1.43,1.43,0,0,0-1.13.46,2,2,0,0,0-.42,1.37V50h-2V46.31q0-1.65-1.32-1.65a1.43,1.43,0,0,0-1.12.46,2,2,0,0,0-.42,1.37V50h-2V43h1.93v.8a2.57,2.57,0,0,1,.95-.67A3.2,3.2,0,0,1,150,42.9a3,3,0,0,1,1.34.3,2.25,2.25,0,0,1,1,.85,2.9,2.9,0,0,1,1.08-.85A3.44,3.44,0,0,1,154.83,42.9Zm8.09,7.2a4.32,4.32,0,0,1-2-.45,3.46,3.46,0,0,1-1.86-3.15,3.54,3.54,0,0,1,.49-1.86,3.43,3.43,0,0,1,1.37-1.27,4.21,4.21,0,0,1,2-.47,4.13,4.13,0,0,1,2,.47,3.43,3.43,0,0,1,1.37,1.27,3.54,3.54,0,0,1,.49,1.86,3.46,3.46,0,0,1-1.86,3.15A4.23,4.23,0,0,1,162.92,50.1Zm0-1.66a1.67,1.67,0,0,0,1.27-.52,2,2,0,0,0,.51-1.42,1.91,1.91,0,0,0-.51-1.4,1.65,1.65,0,0,0-1.27-.53,1.68,1.68,0,0,0-1.29.53,1.91,1.91,0,0,0-.51,1.4,2,2,0,0,0,.51,1.42A1.7,1.7,0,0,0,162.92,48.44Z" transform="translate(-3.99)"/><path class="cls-3" d="M114.29,141.39V150h-2.37v-1a3.36,3.36,0,0,1-1.18.86,3.84,3.84,0,0,1-1.49.29,3.69,3.69,0,0,1-2.69-1,3.88,3.88,0,0,1-1-2.89v-4.87h2.5v4.5c0,1.38.58,2.08,1.74,2.08a1.86,1.86,0,0,0,1.44-.58,2.44,2.44,0,0,0,.55-1.74v-4.26Zm7.55-.13a3.51,3.51,0,0,1,2.57,1,3.8,3.8,0,0,1,1,2.85V150h-2.5v-4.54a2.19,2.19,0,0,0-.45-1.52,1.64,1.64,0,0,0-1.29-.52,2,2,0,0,0-1.51.6,2.39,2.39,0,0,0-.56,1.72V150h-2.49v-8.61H119v1a3.23,3.23,0,0,1,1.23-.83A4.25,4.25,0,0,1,121.84,141.26Zm9.3,0a4.45,4.45,0,0,1,3.07,1,3.61,3.61,0,0,1,1.07,2.87V150H133v-1.07a2.79,2.79,0,0,1-2.63,1.2,4,4,0,0,1-1.72-.34,2.55,2.55,0,0,1-1.11-.93,2.44,2.44,0,0,1-.38-1.34,2.27,2.27,0,0,1,.89-1.89,4.64,4.64,0,0,1,2.8-.69h2a1.55,1.55,0,0,0-.5-1.24,2.16,2.16,0,0,0-1.49-.45,4.3,4.3,0,0,0-1.36.22,3.49,3.49,0,0,0-1.12.58l-.89-1.75a5.41,5.41,0,0,1,1.68-.76A7.31,7.31,0,0,1,131.14,141.26Zm-.19,7.19a2.24,2.24,0,0,0,1.13-.29,1.68,1.68,0,0,0,.71-.88v-.88h-1.71c-1,0-1.54.34-1.54,1a.93.93,0,0,0,.37.77A1.76,1.76,0,0,0,131,148.45Zm13.86-6.87H147v1.92h-2.15V150h-2.49v-6.5h-1.33v-1.92h1.33v-.38a3.2,3.2,0,0,1,.86-2.34,3.4,3.4,0,0,1,2.47-.86,4,4,0,0,1,1,.13,2.56,2.56,0,0,1,.85.33l-.66,1.81a1.69,1.69,0,0,0-1-.3c-.76,0-1.14.41-1.14,1.25Zm7.12.95a2.72,2.72,0,0,1,1.2-.95,4.57,4.57,0,0,1,1.76-.32v2.31l-.56,0a2.27,2.27,0,0,0-1.68.6,2.41,2.41,0,0,0-.61,1.8V150h-2.5v-8.61h2.39Zm13.18-1.14V150h-2.37v-1a3.4,3.4,0,0,1-1.19.86,3.79,3.79,0,0,1-1.48.29,3.66,3.66,0,0,1-2.69-1,3.88,3.88,0,0,1-1-2.89v-4.87h2.49v4.5c0,1.38.58,2.08,1.74,2.08a1.9,1.9,0,0,0,1.45-.58,2.48,2.48,0,0,0,.54-1.74v-4.26Zm7.86,8.19a2.84,2.84,0,0,1-.91.42,4.52,4.52,0,0,1-1.12.13,3.36,3.36,0,0,1-2.39-.79,3,3,0,0,1-.83-2.3V143.5h-1.33v-1.92h1.33v-2.09h2.5v2.09h2.14v1.92h-2.14V147a1.26,1.26,0,0,0,.27.85,1.08,1.08,0,0,0,.8.28,1.58,1.58,0,0,0,1-.32Zm1.4-8.19h2.5V150h-2.5Zm1.25-1.2a1.57,1.57,0,0,1-1.12-.4,1.28,1.28,0,0,1-.43-1,1.27,1.27,0,0,1,.43-1,1.57,1.57,0,0,1,1.12-.4,1.65,1.65,0,0,1,1.12.38,1.23,1.23,0,0,1,.43,1,1.37,1.37,0,0,1-.43,1A1.57,1.57,0,0,1,175.62,140.19Zm3.56-2.06h2.5V150h-2.5Zm4.82,0h2.49V150H184Zm8.28,3.13a4.45,4.45,0,0,1,3.07,1,3.61,3.61,0,0,1,1.07,2.87V150h-2.33v-1.07a2.79,2.79,0,0,1-2.63,1.2,4,4,0,0,1-1.72-.34,2.55,2.55,0,0,1-1.11-.93,2.44,2.44,0,0,1-.38-1.34,2.27,2.27,0,0,1,.89-1.89,4.66,4.66,0,0,1,2.8-.69h2a1.55,1.55,0,0,0-.5-1.24,2.14,2.14,0,0,0-1.49-.45,4.3,4.3,0,0,0-1.36.22,3.49,3.49,0,0,0-1.12.58l-.89-1.75a5.41,5.41,0,0,1,1.68-.76A7.31,7.31,0,0,1,192.28,141.26Zm-.19,7.19a2.24,2.24,0,0,0,1.13-.29,1.68,1.68,0,0,0,.71-.88v-.88h-1.71c-1,0-1.54.34-1.54,1a.93.93,0,0,0,.37.77A1.76,1.76,0,0,0,192.09,148.45Z" transform="translate(-3.99)"/><circle class="cls-1" cx="36" cy="102.5" r="36"/><circle class="cls-2" cx="36" cy="102.5" r="35.5"/><circle class="cls-1" cx="255.58" cy="102.5" r="36"/><circle class="cls-2" cx="255.58" cy="102.5" r="35.5"/></svg>