<?xml version="1.0" encoding="iso-8859-1"?>
<!-- Generator: Adobe Illustrator 25.3.1, SVG Export Plug-In . SVG Version: 6.00 Build 0)  -->
<svg version="1.1" id="Layer_1" xmlns="http://www.w3.org/2000/svg" xmlns:xlink="http://www.w3.org/1999/xlink" x="0px" y="0px"
	 viewBox="0 0 291.58 197" style="enable-background:new 0 0 291.58 197;" xml:space="preserve">
<g>
	
		<image style="overflow:visible;opacity:0.25;" width="243" height="243" xlink:href="FDA1DEC6CB61E3DF.png"  transform="matrix(1 0 0 1 25 -13)">
	</image>
	<g>
		<ellipse style="opacity:0.8;fill:#F7EEED;" cx="146.01" cy="98.5" rx="91" ry="91.5"/>
	</g>
</g>
<g>
	
		<image style="overflow:visible;opacity:0.25;" width="243" height="243" xlink:href="FDA1DEC6CB61E3DD.png"  transform="matrix(1 0 0 1 25 -13)">
	</image>
	<g>
		<ellipse style="fill:none;stroke:#FFFFFF;" cx="146.01" cy="98.5" rx="90.5" ry="91"/>
	</g>
</g>
<g>
	
		<image style="overflow:visible;opacity:0.25;" width="257" height="257" xlink:href="FDA1DEC6CB61E3E3.png"  transform="matrix(1 0 0 1 18 -20)">
	</image>
	<g>
		<ellipse style="fill:none;stroke:#FFFFFF;" cx="146.01" cy="98.5" rx="97.5" ry="98"/>
	</g>
</g>
<g>
	
		<image style="overflow:visible;opacity:0.25;" width="102" height="103" xlink:href="FDA1DEC6CB61E3E5.png"  transform="matrix(1 0 0 1 -15 56)">
	</image>
	<g>
		<circle style="opacity:0.8;fill:#F7EEED;" cx="36" cy="102.5" r="36"/>
	</g>
</g>
<circle style="fill:none;stroke:#FFFFFF;" cx="36" cy="102.5" r="35.5"/>
<g>
	
		<image style="overflow:visible;opacity:0.25;" width="103" height="103" xlink:href="FDA1DEC6CB61E3E7.png"  transform="matrix(1 0 0 1 204 56)">
	</image>
	<g>
		
			<ellipse transform="matrix(0.1602 -0.9871 0.9871 0.1602 113.4642 338.3611)" style="opacity:0.8;fill:#F7EEED;" cx="255.58" cy="102.5" rx="36" ry="36"/>
	</g>
</g>
<ellipse transform="matrix(0.1602 -0.9871 0.9871 0.1602 113.4642 338.3611)" style="fill:none;stroke:#FFFFFF;" cx="255.58" cy="102.5" rx="35.5" ry="35.5"/>
</svg>
