<?xml version="1.0" encoding="utf-8"?>
<!-- Generator: Adobe Illustrator 25.3.1, SVG Export Plug-In . SVG Version: 6.00 Build 0)  -->
<svg version="1.1" id="Layer_1" xmlns="http://www.w3.org/2000/svg" xmlns:xlink="http://www.w3.org/1999/xlink" x="0px" y="0px"
	 viewBox="0 0 375 640" style="enable-background:new 0 0 375 640;" xml:space="preserve">
<style type="text/css">
	.st0{fill:url(#SVGID_1_);}
	.st1{fill:url(#SVGID_2_);}
	.st2{fill:url(#SVGID_3_);}
	.st3{fill:url(#SVGID_4_);}
	.st4{fill:url(#SVGID_5_);}
	.st5{fill:url(#SVGID_6_);}
	.st6{fill:url(#SVGID_7_);}
	.st7{fill:url(#SVGID_8_);}
</style>
<g>
	
		<radialGradient id="SVGID_1_" cx="-769.8738" cy="870.2803" r="1" gradientTransform="matrix(6.306931e-15 103 83.1872 -5.093747e-15 -72161.9297 79343)" gradientUnits="userSpaceOnUse">
		<stop  offset="0" style="stop-color:#F2595B;stop-opacity:0.35"/>
		<stop  offset="1" style="stop-color:#FFFFFF;stop-opacity:0"/>
	</radialGradient>
	<ellipse class="st0" cx="234.3" cy="46" rx="83.2" ry="103"/>
</g>
<g>
	
		<radialGradient id="SVGID_2_" cx="-770.1288" cy="871.7483" r="1" gradientTransform="matrix(6.9354 137.5002 70.6179 -3.5619 -56008.6836 109519.4531)" gradientUnits="userSpaceOnUse">
		<stop  offset="0" style="stop-color:#FFD2DD"/>
		<stop  offset="1" style="stop-color:#FFFFFF;stop-opacity:0"/>
	</radialGradient>
	<ellipse class="st1" cx="218.2" cy="521.5" rx="99.3" ry="137.5"/>
</g>
<g>
	
		<radialGradient id="SVGID_3_" cx="-781.4465" cy="855.2462" r="1" gradientTransform="matrix(-54.3725 -87.9786 -44.9033 106.3798 -3945.6333 -159425.9219)" gradientUnits="userSpaceOnUse">
		<stop  offset="0" style="stop-color:#F5B09B"/>
		<stop  offset="1" style="stop-color:#FFFFFF;stop-opacity:0"/>
	</radialGradient>
	<path class="st2" d="M304.6,373.2c-38.9,75.7-92.6,93.4-119.9,39.5s-17.9-158.9,21-234.6s92.6-93.4,119.9-39.5
		C352.9,192.4,343.5,297.5,304.6,373.2z"/>
</g>
<g>
	
		<radialGradient id="SVGID_4_" cx="-780.9931" cy="865.0702" r="1" gradientTransform="matrix(-62.2779 48.3578 52.0683 160.6527 -93631.1875 -100680.5234)" gradientUnits="userSpaceOnUse">
		<stop  offset="0" style="stop-color:#A176CE"/>
		<stop  offset="1.000000e-04" style="stop-color:#FFD5DF;stop-opacity:0.9427"/>
		<stop  offset="0.3958" style="stop-color:#FFFFFF;stop-opacity:0"/>
	</radialGradient>
	<path class="st3" d="M154.2,290.9c14.3,98.3-2.7,194-38.1,213.8S40.3,461,26,362.8s2.7-194,38.1-213.8S139.8,192.7,154.2,290.9z"/>
</g>
<g>
	
		<radialGradient id="SVGID_5_" cx="-769.7087" cy="870.3254" r="1" gradientTransform="matrix(6.306931e-15 103 83.1872 -5.093747e-15 -72161.9297 79343)" gradientUnits="userSpaceOnUse">
		<stop  offset="0" style="stop-color:#FFD2DD;stop-opacity:0.83"/>
		<stop  offset="1" style="stop-color:#FFFFFF;stop-opacity:0"/>
	</radialGradient>
	<ellipse class="st4" cx="238" cy="63" rx="83.2" ry="103"/>
</g>
<g>
	
		<radialGradient id="SVGID_6_" cx="-770.0042" cy="871.7892" r="1" gradientTransform="matrix(6.9354 137.5002 70.6179 -3.5619 -56008.6836 109519.4531)" gradientUnits="userSpaceOnUse">
		<stop  offset="0" style="stop-color:#FFD2DD"/>
		<stop  offset="1" style="stop-color:#FFFFFF;stop-opacity:0"/>
	</radialGradient>
	<ellipse class="st5" cx="221.9" cy="538.5" rx="99.3" ry="137.5"/>
</g>
<g>
	
		<radialGradient id="SVGID_7_" cx="-781.566" cy="855.3071" r="1" gradientTransform="matrix(-54.3725 -87.9786 -44.9033 106.3798 -3945.6333 -159425.9219)" gradientUnits="userSpaceOnUse">
		<stop  offset="0" style="stop-color:#FFD2DD;stop-opacity:0.81"/>
		<stop  offset="1" style="stop-color:#FFFFFF;stop-opacity:0"/>
	</radialGradient>
	<path class="st6" d="M308.3,390.2c-38.9,75.7-92.6,93.4-119.9,39.5s-17.9-158.9,21-234.6s92.6-93.4,119.9-39.5
		C356.6,209.4,347.2,314.5,308.3,390.2z"/>
</g>
<g>
	
		<radialGradient id="SVGID_8_" cx="-780.9706" cy="865.1693" r="1" gradientTransform="matrix(-62.2779 48.3578 52.0683 160.6527 -93631.1875 -100680.5234)" gradientUnits="userSpaceOnUse">
		<stop  offset="0" style="stop-color:#FFD2DC"/>
		<stop  offset="1.000000e-04" style="stop-color:#FFD5DF;stop-opacity:0.9427"/>
		<stop  offset="1" style="stop-color:#FFFFFF;stop-opacity:0"/>
	</radialGradient>
	<path class="st7" d="M157.9,307.9c14.3,98.3-2.7,194-38.1,213.8c-35.4,19.8-75.7-43.7-90.1-142s2.7-194,38.1-213.8
		S143.6,209.7,157.9,307.9z"/>
</g>
</svg>
