<svg width="83" height="122" viewBox="0 0 83 122" fill="none" xmlns="http://www.w3.org/2000/svg">
<g filter="url(#filter0_b_2556_10180)">
<path d="M56.8931 45.3314L52.1557 42.9409L53.2422 42.2021C55.9897 40.2649 58.1167 37.5727 59.3654 34.4515C60.6142 31.3302 60.9312 27.9139 60.2781 24.6162C59.625 21.3185 58.0298 18.2809 55.6856 15.8712C53.3415 13.4616 50.349 11.7832 47.0706 11.0395L37.7696 9.21405L34.3361 2.39044C34.3361 2.39044 34.0753 2.0862 33.9884 1.91235C33.8096 1.64716 33.6059 1.39974 33.3799 1.17349C33.3799 1.17349 32.9453 0.86925 32.7279 0.6954C32.4909 0.548228 32.244 0.417531 31.9891 0.304237H31.0764C30.8719 0.177397 30.653 0.0752711 30.4244 0H13.0394C11.8867 0 10.7813 0.457907 9.96617 1.27299C9.15109 2.08807 8.69318 3.19355 8.69318 4.34625V8.43172L5.65081 32.6403C4.7487 39.8686 4.90977 47.19 6.1289 54.3716C7.72163 64.1905 7.11298 74.2407 4.34693 83.7957C1.42657 94.1322 -0.036297 104.826 0.000683941 115.567V117.349C0.000683941 118.501 0.458592 119.607 1.27367 120.422C2.08875 121.237 3.19424 121.695 4.34693 121.695H65.1944C65.7624 121.688 66.3235 121.57 66.846 121.347C67.3727 121.127 67.8578 120.818 68.2803 120.435L68.9757 119.696C74.1808 114.494 78.0746 108.129 80.3357 101.126C82.5968 94.1229 83.1605 86.6827 81.9804 79.419C80.8002 72.1553 77.9099 65.2763 73.5479 59.3495C69.186 53.4226 63.4774 48.6178 56.8931 45.3314Z" 
fill="rgba(53,157,158,0.7)" fill-opacity="0.8"/>
</g>
<defs>
<filter id="filter0_b_2556_10180" x="-4" y="-4" width="90.5811" height="129.695" filterUnits="userSpaceOnUse" color-interpolation-filters="sRGB">
<feFlood flood-opacity="0" result="BackgroundImageFix"/>
<feGaussianBlur in="BackgroundImage" stdDeviation="2"/>
<feComposite in2="SourceAlpha" operator="in" result="effect1_backgroundBlur_2556_10180"/>
<feBlend mode="normal" in="SourceGraphic" in2="effect1_backgroundBlur_2556_10180" result="shape"/>
</filter>
</defs>
</svg>
