<svg width="154" height="130" viewBox="0 0 154 130" fill="none" xmlns="http://www.w3.org/2000/svg" xmlns:xlink="http://www.w3.org/1999/xlink">
<path d="M36 116.369C59.7503 125.901 112.909 139.245 135.542 116.369C158.174 93.4921 154.053 66.591 149.163 56" stroke="white" stroke-dasharray="2 2"/>
<path d="M31 110.369C54.9533 119.901 108.566 133.245 131.393 110.369C154.219 87.4921 150.062 60.591 145.13 50" stroke="#F2595B" stroke-dasharray="2 2"/>
<path d="M133.888 15.203C110.093 5.36595 56.7435 -8.63541 33.7013 14.0554C10.6591 36.7462 14.498 63.7832 19.2978 74.4654" stroke="white" stroke-dasharray="2 2"/>
<path d="M140.452 21.0218C116.657 11.1848 63.3074 -2.81656 40.2652 19.8742C17.2229 42.565 21.0619 69.6021 25.8616 80.2842" stroke="#F2595B" stroke-dasharray="2 2"/>
<path d="M4.83315 102.632C3.31043 101.423 1.06299 99.5088 1.06299 97.354C1.06299 96.4636 2.18436 96.2795 2.94807 96.6838C3.38988 96.9177 4.01153 98.1178 4.37235 98.5689C4.95695 99.2996 4.51179 100.27 4.85409 99.0715C5.45221 96.9781 9.11815 96.6821 7.63982 99.4276C6.58879 101.38 4.45613 104.13 4.45613 106.402" stroke="white" stroke-linecap="round"/>
<rect x="67" y="44" width="42" height="40" fill="url(#pattern0)"/>
<path d="M145.993 36.4519C145.328 35.9199 144.731 35.3365 144.253 34.6258C143.815 33.9729 143.532 33.2478 143.205 32.5373C143.039 32.1744 142.845 31.7977 142.814 31.3933C142.797 31.1718 142.793 30.8614 143.001 30.7186C143.928 30.0847 144.951 31.4094 145.231 32.155C145.325 32.4047 145.181 31.6237 145.168 31.3573C145.145 30.8943 145.093 30.3798 145.307 29.951C145.558 29.4495 146.103 28.9881 146.693 29.1279C147.017 29.2048 147.217 29.7065 147.294 29.987C147.46 30.5878 147.384 31.2307 147.27 31.8311C146.988 33.3172 146.582 34.7778 146.313 36.2675C146.211 36.8383 146.16 37.4234 146.047 37.9902" stroke="white" stroke-linecap="round"/>
<path d="M72.5242 42.6902C71.2674 42.6902 69.9821 42.6145 68.7333 42.7749C67.9379 42.8771 67.2442 43.196 66.5435 43.567C65.6881 44.0198 64.5667 44.6025 64.2901 45.6213C63.9957 46.7062 63.8327 47.738 63.8327 48.8615C63.8327 49.3689 63.8067 49.8846 63.8496 50.3906C63.8779 50.724 63.9852 51.0467 63.9852 51.3817" stroke="white" stroke-linecap="round"/>
<path d="M99.285 86.224C100.376 86.224 101.468 86.224 102.559 86.224C103.235 86.224 103.907 86.1659 104.58 86.1054C104.904 86.0762 105.206 86.0659 105.499 85.9148C106.768 85.2598 107.763 84.2003 108.231 82.8439C108.676 81.5519 108.586 80.2483 108.586 78.9048" stroke="white" stroke-linecap="round"/>
<defs>
<pattern id="pattern0" patternContentUnits="objectBoundingBox" width="1" height="1">
<use xlink:href="#image0" transform="translate(0 -0.0025) scale(0.00569728 0.00598214)"/>
</pattern>
</defs>
</svg>
